<?xml version="1.0" encoding="UTF-8" standalone="no"?>
<svg
   xmlns:dc="http://purl.org/dc/elements/1.1/"
   xmlns:cc="http://creativecommons.org/ns#"
   xmlns:rdf="http://www.w3.org/1999/02/22-rdf-syntax-ns#"
   xmlns:svg="http://www.w3.org/2000/svg"
   xmlns="http://www.w3.org/2000/svg"
   xmlns:sodipodi="http://sodipodi.sourceforge.net/DTD/sodipodi-0.dtd"
   xmlns:inkscape="http://www.inkscape.org/namespaces/inkscape"
   viewBox="0 0 69.999999 70.000001"
   version="1.1"
   id="svg118"
   sodipodi:docname="0.svg"
   inkscape:version="0.92.3 (2405546, 2018-03-11)"
   width="70"
   height="70">
  <metadata
     id="metadata122">
    <rdf:RDF>
      <cc:Work
         rdf:about="">
        <dc:format>image/svg+xml</dc:format>
        <dc:type
           rdf:resource="http://purl.org/dc/dcmitype/StillImage" />
        <dc:title></dc:title>
      </cc:Work>
    </rdf:RDF>
  </metadata>
  <sodipodi:namedview
     pagecolor="#ffffff"
     bordercolor="#666666"
     borderopacity="1"
     objecttolerance="10"
     gridtolerance="10"
     guidetolerance="10"
     inkscape:pageopacity="0"
     inkscape:pageshadow="2"
     inkscape:window-width="1920"
     inkscape:window-height="1052"
     id="namedview120"
     showgrid="false"
     inkscape:zoom="3.5881183"
     inkscape:cx="117.2393"
     inkscape:cy="90.011125"
     inkscape:window-x="0"
     inkscape:window-y="360"
     inkscape:window-maximized="1"
     inkscape:current-layer="g116" />
  <defs
     id="defs14">
    <filter
       id="c">
      <feGaussianBlur
         stdDeviation="2.68098"
         id="feGaussianBlur2" />
    </filter>
    <filter
       id="d"
       x="-0.24642999"
       y="-0.085660003"
       width="1.4928"
       height="1.1713001">
      <feGaussianBlur
         stdDeviation="2.68098"
         id="feGaussianBlur5" />
    </filter>
    <filter
       id="b"
       x="-0.38402"
       y="-0.18893"
       width="1.768"
       height="1.3778">
      <feGaussianBlur
         stdDeviation="3.31744"
         id="feGaussianBlur8" />
    </filter>
    <filter
       id="a"
       x="-0.22600999"
       y="-0.11123"
       width="1.452"
       height="1.2225">
      <feGaussianBlur
         stdDeviation="3.31744"
         id="feGaussianBlur11" />
    </filter>
  </defs>
  <g
     transform="matrix(4.4538,0,0,4.4538,-1059.6,-3398.8622)"
     id="g116">
    <path
       d="m 240.57065,771.98242 c 0.11433,5.38795 2.12405,6.46017 4.98427,6.38237 3.45784,-0.096 5.26384,-1.75592 5.7783,-6.17684 0.0548,-10.52775 -9.57129,-12.40686 -10.76257,-0.20553 z m 5.56626,-2.27291 c 1.93242,-0.57797 1.95555,0.23595 2.39985,1.56587 0.42113,1.26027 -0.023,2.8141 -0.66536,3.75457 -0.69634,1.01961 -3.34457,1.46889 -3.40173,-1.15607 -0.10757,-2.99812 0.31985,-3.26509 1.66724,-4.16437 z"
       id="path16"
       inkscape:connector-curvature="0"
       style="fill:#bc5fd3;fill-rule:evenodd;stroke:#ab37c8;stroke-width:0.26390541"
       sodipodi:nodetypes="cccccccccc" />
    <path
       d="m 289.29,648.08 c -1.4286,2.8571 -22.857,27.857 -20,60 4.1342,42.745 24.877,53.474 60,61.429 0,0 -35,7.8571 -52.857,-9.2857 -17.857,-17.1428 -20.714,-44.286 -17.857,-68.571 2.857,-24.285 13.571,-35 30.714,-43.571 z"
       id="path20"
       inkscape:connector-curvature="0"
       transform="matrix(0.07547869,0,0,0.08759945,221.62629,709.97103)"
       style="fill:#cd87de;fill-rule:evenodd;filter:url(#c)" />
    <path
       d="m 335.71,673.79 c 0,0 11.429,-0.71428 20,17.143 8.571,17.85728 8.5714,33.571 6.4286,37.857 -2.1428,4.286 -13.571,16.429 -13.571,16.429 0,0 25,-11.429 22.143,-37.857 -2.857,-26.428 -20,-35 -35,-33.571 z"
       id="path24"
       inkscape:connector-curvature="0"
       transform="matrix(0.07511502,0,0,0.09077859,221.73301,707.93457)"
       style="fill:#ab37c8;fill-rule:evenodd;filter:url(#a)" />
    <path
       d="m 246.30614,768.03092 c -2e-5,0.76993 -0.5165,1.39409 -1.15361,1.39409 -0.63712,0 -1.15353,-0.62422 -1.15353,-1.39418 0,-0.76997 0.51649,-1.39408 1.1536,-1.39408 0.63712,0 1.15354,0.6242 1.15354,1.39417"
       id="path26"
       inkscape:connector-curvature="0"
       style="fill:#f6d5ff;stroke:#672178;stroke-width:0.24772875" />
    <path
       d="m 249.21129,767.5786 c -2e-5,0.81042 -0.54365,1.46734 -1.21424,1.46734 -0.6706,0 -1.21414,-0.65703 -1.21414,-1.46746 0,-0.81043 0.54365,-1.46733 1.21424,-1.46733 0.67059,0 1.21414,0.65702 1.21414,1.46745"
       id="path28"
       inkscape:connector-curvature="0"
       style="fill:#f6d5ff;stroke:#672178;stroke-width:0.24773566" />
    <path
       d="m 248.90889,767.52801 c -1e-5,0.42078 -0.28229,0.76188 -0.63046,0.76187 -0.34817,-1e-5 -0.63042,-0.34115 -0.6304,-0.76191 1e-5,-0.42078 0.28226,-0.76189 0.63044,-0.76189 0.34818,2e-5 0.63043,0.34115 0.63042,0.76193"
       id="path30"
       inkscape:connector-curvature="0"
       style="fill:#672178;stroke-width:0.08257625" />
    <path
       d="m 246.03799,768.09536 c -2e-5,0.44764 -0.3003,0.81052 -0.6707,0.81051 -0.3704,0 -0.67065,-0.36292 -0.67064,-0.81055 0,-0.44763 0.30028,-0.81051 0.67069,-0.8105 0.37039,1e-5 0.67066,0.36292 0.67065,0.81054"
       id="path32"
       inkscape:connector-curvature="0"
       style="fill:#672178;stroke-width:0.08257625" />
    <path
       d="m 248.61368,767.44722 c -10e-6,0.21485 -0.14414,0.38904 -0.32193,0.38904 -0.17781,0 -0.32192,-0.1742 -0.32192,-0.38907 0,-0.21488 0.14415,-0.38904 0.32193,-0.38904 0.17779,0 0.32191,0.17419 0.32191,0.38907"
       id="path34"
       inkscape:connector-curvature="0"
       style="fill:#441650;stroke-width:0.08257625" />
    <path
       d="m 245.76983,768.1444 c 0,0.24172 -0.16216,0.43768 -0.36218,0.43767 -0.20002,-1e-5 -0.36216,-0.19599 -0.36215,-0.4377 1e-5,-0.24174 0.16216,-0.43769 0.36217,-0.43768 0.20002,10e-6 0.36217,0.19597 0.36216,0.43771"
       id="path36"
       inkscape:connector-curvature="0"
       style="fill:#441650;stroke-width:0.08257625" />
    <path
       d="m 248.61368,767.25205 c -10e-6,0.10743 -0.0721,0.19451 -0.16097,0.19451 -0.0889,0 -0.16095,-0.0871 -0.16095,-0.19452 0,-0.10743 0.0721,-0.19453 0.16096,-0.19453 0.0889,0 0.16096,0.0871 0.16096,0.19454"
       id="path38"
       inkscape:connector-curvature="0"
       style="fill:#ddafe9;stroke-width:0.08257625" />
    <path
       d="m 245.71649,767.78763 c 0,0.11639 -0.0781,0.21074 -0.17438,0.21074 -0.0963,0 -0.17437,-0.0945 -0.17437,-0.21075 0,-0.11639 0.0781,-0.21072 0.17438,-0.21072 0.0963,0 0.17437,0.0944 0.17437,0.21073"
       id="path40"
       inkscape:connector-curvature="0"
       style="fill:#ddafe9;stroke-width:0.08257625" />
    <path
       d="m 245.47402,764.97892 c -1e-5,0.3581 -0.25225,0.6484 -0.56338,0.64838 -0.31113,-10e-6 -0.56335,-0.29032 -0.56335,-0.64843 1e-5,-0.35811 0.25225,-0.64841 0.56338,-0.64839 0.31113,2e-5 0.56335,0.29032 0.56335,0.64844"
       id="path48"
       inkscape:connector-curvature="0"
       style="fill:#ddafe9;stroke-width:0.08257625" />
    <path
       d="m 248.15956,764.9508 c -2e-5,0.17906 -0.12012,0.32421 -0.26828,0.3242 -0.14818,-10e-6 -0.26828,-0.14516 -0.26826,-0.32423 0,-0.17905 0.12011,-0.3242 0.26828,-0.32419 0.14816,10e-6 0.26826,0.14516 0.26826,0.32422"
       id="path70"
       inkscape:connector-curvature="0"
       style="fill:#ddafe9;stroke-width:0.08257625" />
    <path
       d="m 243.759,765.52683 c -10e-6,0.17906 -0.14413,0.32421 -0.32193,0.32421 -0.17779,-10e-6 -0.32192,-0.14517 -0.32192,-0.32423 0,-0.17906 0.14415,-0.3242 0.32194,-0.3242 0.1778,10e-6 0.32191,0.14517 0.32191,0.32422"
       id="path72"
       inkscape:connector-curvature="0"
       style="fill:#ddafe9;stroke-width:0.08257625" />
    <path
       d="m 247.00397,765.50182 c -1e-5,0.34021 -0.24024,0.61599 -0.53656,0.61598 -0.29632,0 -0.53652,-0.27581 -0.53651,-0.61601 2e-5,-0.3402 0.24023,-0.616 0.53655,-0.61599 0.29632,2e-5 0.53653,0.27583 0.53652,0.61602"
       id="path78"
       inkscape:connector-curvature="0"
       style="fill:#ddafe9;stroke-width:0.08257625" />
    <path
       d="m 242.60447,768.15983 c 0,0.26858 -0.15614,0.4863 -0.34875,0.48629 -0.19262,0 -0.34875,-0.21775 -0.34874,-0.48632 1e-5,-0.26858 0.15614,-0.48631 0.34876,-0.4863 0.19261,10e-6 0.34874,0.21774 0.34873,0.48633"
       id="path80"
       inkscape:connector-curvature="0"
       style="fill:#ddafe9;stroke-width:0.08257625" />
    <path
       d="m 244.37494,770.00807 c -2e-5,0.46556 -0.36035,0.84294 -0.80486,0.84293 -0.44451,-2e-5 -0.80478,-0.37744 -0.80478,-0.84297 0,-0.46555 0.36034,-0.84294 0.80486,-0.84292 0.44451,10e-6 0.80478,0.37744 0.80478,0.84296"
       id="path82"
       inkscape:connector-curvature="0"
       style="fill:#ddafe9;stroke-width:0.08257625" />
    <path
       d="m 242.71189,771.23994 c -1e-5,0.21486 -0.20419,0.38904 -0.45607,0.38904 -0.25186,0 -0.45604,-0.17419 -0.45603,-0.38906 1e-5,-0.21489 0.20419,-0.38905 0.45606,-0.38905 0.25188,0 0.45605,0.1742 0.45604,0.38907"
       id="path84"
       inkscape:connector-curvature="0"
       style="fill:#ddafe9;stroke-width:0.08257625" />
    <path
       d="m 243.62378,772.89393 c -1e-5,0.41182 -0.27625,0.74568 -0.61703,0.74566 -0.34077,-3e-5 -0.61701,-0.33389 -0.61699,-0.74571 1e-5,-0.41185 0.27626,-0.74568 0.61703,-0.74567 0.34078,2e-5 0.61702,0.33388 0.61699,0.74572"
       id="path86"
       inkscape:connector-curvature="0"
       style="fill:#ddafe9;stroke-width:0.08257625" />
    <path
       d="m 241.58517,773.80172 c -1e-5,0.16114 -0.10811,0.29179 -0.24144,0.29179 -0.13337,0 -0.24144,-0.13066 -0.24144,-0.29181 0,-0.16116 0.10811,-0.29178 0.24145,-0.29178 0.13334,0 0.24143,0.13065 0.24143,0.2918"
       id="path88"
       inkscape:connector-curvature="0"
       style="fill:#ddafe9;stroke-width:0.08257625" />
    <path
       d="m 244.10678,774.90377 c -2e-5,0.48345 -0.38438,0.87535 -0.85849,0.87533 -0.47412,-10e-6 -0.85841,-0.39195 -0.85841,-0.8754 0,-0.48345 0.38437,-0.87535 0.85848,-0.87533 0.47412,2e-5 0.85842,0.39195 0.85842,0.8754"
       id="path90"
       inkscape:connector-curvature="0"
       style="fill:#ddafe9;stroke-width:0.08257625" />
    <path
       d="m 249.20333,769.87827 c 0,0.14324 -0.10812,0.25936 -0.24145,0.25935 -0.13334,0 -0.24144,-0.11613 -0.24144,-0.25937 0,-0.14324 0.10812,-0.25937 0.24145,-0.25936 0.13336,1e-5 0.24144,0.11613 0.24144,0.25938"
       id="path92"
       inkscape:connector-curvature="0"
       style="fill:#ddafe9;stroke-width:0.08257625" />
    <path
       d="m 250.49156,769.23011 c -2e-5,0.39391 -0.27626,0.71324 -0.61705,0.71323 -0.34077,-1e-5 -0.617,-0.31936 -0.61699,-0.71328 2e-5,-0.39393 0.27626,-0.71325 0.61705,-0.71324 0.34077,10e-6 0.617,0.31935 0.61699,0.71329"
       id="path94"
       inkscape:connector-curvature="0"
       style="fill:#ddafe9;stroke-width:0.08257625" />
    <path
       d="m 250.6523,771.36976 c -1e-5,0.50135 -0.3123,0.90776 -0.69752,0.90775 -0.38521,-10e-6 -0.69748,-0.40645 -0.69746,-0.90778 1e-5,-0.50133 0.31229,-0.90777 0.69752,-0.90776 0.3852,1e-5 0.69747,0.40646 0.69746,0.90779"
       id="path96"
       inkscape:connector-curvature="0"
       style="fill:#ddafe9;stroke-width:0.08257625" />
    <path
       d="m 250.92046,770.17056 c 0,0.19698 -0.14413,0.35664 -0.32194,0.35663 -0.1778,0 -0.3219,-0.15968 -0.3219,-0.35665 0,-0.19695 0.14413,-0.35662 0.32193,-0.35661 0.1778,10e-6 0.32191,0.15968 0.32191,0.35663"
       id="path98"
       inkscape:connector-curvature="0"
       style="fill:#ddafe9;stroke-width:0.08257625" />
    <path
       d="m 249.41816,772.9257 c -1e-5,0.14326 -0.0961,0.25937 -0.21462,0.25935 -0.11852,-1e-5 -0.21461,-0.11614 -0.2146,-0.25938 0,-0.14322 0.0961,-0.25934 0.21462,-0.25934 0.11852,10e-6 0.2146,0.11613 0.2146,0.25937"
       id="path100"
       inkscape:connector-curvature="0"
       style="fill:#ddafe9;stroke-width:0.08257625" />
    <path
       d="m 251.02787,773.21802 c -1e-5,0.34019 -0.26426,0.61598 -0.5902,0.61597 -0.32595,-2e-5 -0.59017,-0.27581 -0.59017,-0.61601 1e-5,-0.34021 0.26426,-0.61599 0.59021,-0.61598 0.32596,0 0.59018,0.27581 0.59016,0.61602"
       id="path102"
       inkscape:connector-curvature="0"
       style="fill:#ddafe9;stroke-width:0.08257625" />
    <path
       d="m 249.47224,774.09311 c 0,0.17906 -0.14413,0.32422 -0.32191,0.32421 -0.1778,-10e-6 -0.32192,-0.14516 -0.32192,-0.32423 0,-0.17906 0.14413,-0.32421 0.32193,-0.3242 0.17778,0 0.3219,0.14516 0.3219,0.32422"
       id="path104"
       inkscape:connector-curvature="0"
       style="fill:#ddafe9;stroke-width:0.08257625" />
    <path
       d="m 249.84782,775.55192 c -1e-5,0.44764 -0.33633,0.81052 -0.75115,0.8105 -0.41481,0 -0.75114,-0.3629 -0.75113,-0.81056 0,-0.44762 0.33634,-0.8105 0.75115,-0.81049 0.41482,1e-5 0.75114,0.36292 0.75113,0.81055"
       id="path106"
       inkscape:connector-curvature="0"
       style="fill:#ddafe9;stroke-width:0.08257625" />
    <path
       d="m 250.33006,774.38542 c -1e-5,0.26859 -0.15615,0.48632 -0.34877,0.48631 -0.19261,-10e-6 -0.34874,-0.21775 -0.34873,-0.48633 10e-6,-0.2686 0.15614,-0.48631 0.34876,-0.4863 0.19261,10e-6 0.34874,0.21774 0.34874,0.48632"
       id="path108"
       inkscape:connector-curvature="0"
       style="fill:#ddafe9;stroke-width:0.08257625" />
    <path
       d="m 248.39885,776.68667 c -1e-5,0.42972 -0.30029,0.77808 -0.67069,0.77807 -0.3704,-2e-5 -0.67065,-0.3484 -0.67065,-0.77813 1e-5,-0.42975 0.30029,-0.77808 0.6707,-0.77808 0.37039,0 0.67066,0.34838 0.67064,0.77813"
       id="path110"
       inkscape:connector-curvature="0"
       style="fill:#ddafe9;stroke-width:0.08257625" />
    <path
       d="m 246.41356,776.81647 c 0,0.17906 -0.14414,0.32421 -0.32194,0.32421 -0.1778,-10e-6 -0.32191,-0.14517 -0.32191,-0.32423 0,-0.17906 0.14413,-0.3242 0.32193,-0.3242 0.17781,10e-6 0.32192,0.14517 0.32192,0.32422"
       id="path112"
       inkscape:connector-curvature="0"
       style="fill:#ddafe9;stroke-width:0.08257625" />
    <path
       d="m 244.85793,776.29813 c 0,0.25068 -0.19219,0.45389 -0.42925,0.45388 -0.23706,-1e-5 -0.42922,-0.20324 -0.4292,-0.45391 0,-0.25068 0.19217,-0.45389 0.42924,-0.45388 0.23705,1e-5 0.42922,0.20322 0.42921,0.45391"
       id="path114"
       inkscape:connector-curvature="0"
       style="fill:#ddafe9;stroke-width:0.08257625" />
  </g>
</svg>
