<?xml version="1.0" encoding="UTF-8" standalone="no"?>
<svg
   xmlns:dc="http://purl.org/dc/elements/1.1/"
   xmlns:cc="http://creativecommons.org/ns#"
   xmlns:rdf="http://www.w3.org/1999/02/22-rdf-syntax-ns#"
   xmlns:svg="http://www.w3.org/2000/svg"
   xmlns="http://www.w3.org/2000/svg"
   xmlns:sodipodi="http://sodipodi.sourceforge.net/DTD/sodipodi-0.dtd"
   xmlns:inkscape="http://www.inkscape.org/namespaces/inkscape"
   viewBox="0 0 744.09447 1052.362179"
   version="1.1"
   id="svg118"
   sodipodi:docname="0.svg"
   inkscape:version="0.92.3 (2405546, 2018-03-11)">
  <metadata
     id="metadata122">
    <rdf:RDF>
      <cc:Work
         rdf:about="">
        <dc:format>image/svg+xml</dc:format>
        <dc:type
           rdf:resource="http://purl.org/dc/dcmitype/StillImage" />
      </cc:Work>
    </rdf:RDF>
  </metadata>
  <sodipodi:namedview
     pagecolor="#ffffff"
     bordercolor="#666666"
     borderopacity="1"
     objecttolerance="10"
     gridtolerance="10"
     guidetolerance="10"
     inkscape:pageopacity="0"
     inkscape:pageshadow="2"
     inkscape:window-width="1920"
     inkscape:window-height="1052"
     id="namedview120"
     showgrid="false"
     inkscape:zoom="0.63429569"
     inkscape:cx="216.29175"
     inkscape:cy="603.86904"
     inkscape:window-x="0"
     inkscape:window-y="360"
     inkscape:window-maximized="1"
     inkscape:current-layer="g116" />
  <defs
     id="defs14">
    <filter
       id="c">
      <feGaussianBlur
         stdDeviation="2.68098"
         id="feGaussianBlur2" />
    </filter>
    <filter
       id="d"
       x="-.24643"
       y="-.08566"
       width="1.4928"
       height="1.1713">
      <feGaussianBlur
         stdDeviation="2.68098"
         id="feGaussianBlur5" />
    </filter>
    <filter
       id="b"
       x="-.38402"
       y="-.18893"
       width="1.768"
       height="1.3778">
      <feGaussianBlur
         stdDeviation="3.31744"
         id="feGaussianBlur8" />
    </filter>
    <filter
       id="a"
       x="-.22601"
       y="-.11123"
       width="1.452"
       height="1.2225">
      <feGaussianBlur
         stdDeviation="3.31744"
         id="feGaussianBlur11" />
    </filter>
  </defs>
  <g
     transform="matrix(4.4538 0 0 4.4538 -1059.6 -2416.5)"
     id="g116">
    <path
       d="m 250.78387,677.4141 c 1.522,83.08123 28.27713,99.61464 66.35513,98.41502 46.034,-1.48098 70.07704,-27.07607 76.92604,-95.24589 C 394.79426,518.24721 266.64318,489.27145 250.78387,677.4141 Z M 324.887,642.36605 c 25.726,-8.91205 26.03394,3.63833 31.94894,24.14527 5.6064,19.4333 -0.30687,43.39324 -8.85784,57.89508 -9.2703,15.72245 -44.526,22.65002 -45.287,-17.82634 -1.43161,-46.23073 4.25824,-50.34723 22.1959,-64.21401 z"
       id="path16"
       inkscape:connector-curvature="0"
       style="fill:#bc5fd3;fill-rule:evenodd;stroke:#ab37c8;stroke-width:3.78115749"
       sodipodi:nodetypes="cccccccccc" />
    <path
       d="m 289.29,648.08 c -1.4286,2.8571 -22.857,27.857 -20,60 4.1342,42.745 24.877,53.474 60,61.429 0,0 -35,7.8571 -52.857,-9.2857 -17.857,-17.1428 -20.714,-44.286 -17.857,-68.571 2.857,-24.285 13.571,-35 30.714,-43.571 z"
       id="path20"
       inkscape:connector-curvature="0"
       transform="matrix(1,0,0,1.399791,0,-310.19313)"
       style="fill:#cd87de;fill-rule:evenodd;filter:url(#c)" />
    <path
       d="m 335.71,673.79 c 0,0 11.429,-0.71428 20,17.143 8.571,17.85728 8.5714,33.571 6.4286,37.857 -2.1428,4.286 -13.571,16.429 -13.571,16.429 0,0 25,-11.429 22.143,-37.857 -2.857,-26.428 -20,-35 -35,-33.571 z"
       id="path24"
       inkscape:connector-curvature="0"
       transform="matrix(1,0,0,1.399791,0,-310.19313)"
       style="fill:#ab37c8;fill-rule:evenodd;filter:url(#a)" />
    <path
       d="m 327.14,616.48251 c -2.9e-4,11.87233 -6.8761,21.49659 -15.358,21.49659 -8.4819,0 -15.357,-9.6251 -15.357,-21.49799 0,-11.87288 6.8761,-21.49659 15.358,-21.49659 8.4819,0 15.357,9.6251 15.357,21.49799"
       id="path26"
       inkscape:connector-curvature="0"
       style="fill:#f6d5ff;stroke:#672178;stroke-width:3.54938293" />
    <path
       d="m 365.816,609.5079 c -3e-4,12.49651 -7.23763,22.62589 -16.16518,22.62589 -8.92755,0 -16.16376,-10.13116 -16.16376,-22.62787 0,-12.4967 7.23763,-22.62589 16.16518,-22.62589 8.92755,0 16.16376,10.13117 16.16376,22.62787"
       id="path28"
       inkscape:connector-curvature="0"
       style="fill:#f6d5ff;stroke:#672178;stroke-width:3.54948211" />
    <path
       d="m 361.79,608.72767 c -1.5e-4,6.48831 -3.7579,11.74803 -8.3931,11.74789 -4.6352,-1.4e-4 -8.3927,-5.26028 -8.3926,-11.74859 10e-5,-6.48831 3.7579,-11.74803 8.3931,-11.74789 4.6352,1.4e-4 8.3927,5.26028 8.3926,11.74859"
       id="path30"
       inkscape:connector-curvature="0"
       style="fill:#672178;stroke-width:1.18312764" />
    <path
       d="m 323.57,617.47636 c -1.6e-4,6.90251 -3.9978,12.4979 -8.9289,12.49776 -4.9311,-1.4e-4 -8.9284,-5.59609 -8.9283,-12.4986 10e-5,-6.90251 3.9978,-12.49789 8.9289,-12.49775 4.9311,1.4e-4 8.9284,5.59608 8.9283,12.49859"
       id="path32"
       inkscape:connector-curvature="0"
       style="fill:#672178;stroke-width:1.18312764" />
    <path
       d="m 357.86,607.48186 c -8e-5,3.31316 -1.9189,5.99894 -4.2859,5.99894 -2.367,0 -4.2856,-2.68606 -4.2856,-5.99936 0,-3.31331 1.9189,-5.99895 4.2858,-5.99895 2.3669,0 4.2856,2.68606 4.2856,5.99937"
       id="path34"
       inkscape:connector-curvature="0"
       style="fill:#441650;stroke-width:1.18312764" />
    <path
       d="m 320,618.23225 c -9e-5,3.72736 -2.1588,6.74895 -4.8216,6.74881 -2.6628,-1.4e-4 -4.8214,-3.02187 -4.8213,-6.74923 10e-5,-3.72736 2.1588,-6.74895 4.8216,-6.74881 2.6628,1.4e-4 4.8214,3.02187 4.8213,6.74923"
       id="path36"
       inkscape:connector-curvature="0"
       style="fill:#441650;stroke-width:1.18312764" />
    <path
       d="m 357.86,604.47231 c -4e-5,1.65665 -0.95946,2.99947 -2.1429,2.99947 -1.18344,0 -2.1428,-1.34305 -2.1428,-2.99961 0,-1.65657 0.95946,-2.99948 2.1429,-2.99948 1.18344,0 2.1428,1.34305 2.1428,2.99962"
       id="path38"
       inkscape:connector-curvature="0"
       style="fill:#ddafe9;stroke-width:1.18312764" />
    <path
       d="m 319.29,612.73107 c -4e-5,1.79467 -1.0394,3.24948 -2.3215,3.24948 -1.2821,0 -2.3214,-1.45495 -2.3214,-3.24962 0,-1.79467 1.0394,-3.24947 2.3215,-3.24947 1.2821,0 2.3214,1.45494 2.3214,3.24961"
       id="path40"
       inkscape:connector-curvature="0"
       style="fill:#ddafe9;stroke-width:1.18312764" />
    <path
       d="m 316.06194,569.4211 c -1.4e-4,5.52204 -3.3581,9.99843 -7.5002,9.99815 -4.1421,-2.8e-4 -7.4999,-4.47681 -7.4998,-9.99885 1e-4,-5.52203 3.3581,-9.99842 7.5002,-9.99814 4.1421,2.8e-4 7.4999,4.47681 7.4998,9.99884"
       id="path48"
       inkscape:connector-curvature="0"
       style="fill:#ddafe9;stroke-width:1.18312764" />
    <path
       d="m 351.81419,568.9876 c -7e-5,2.76095 -1.5991,4.99922 -3.5716,4.99908 -1.9725,-1.4e-4 -3.5714,-2.23841 -3.5713,-4.9995 10e-5,-2.76108 1.5991,-4.99921 3.5716,-4.99907 1.9725,1.4e-4 3.5714,2.23841 3.5713,4.99949"
       id="path70"
       inkscape:connector-curvature="0"
       style="fill:#ddafe9;stroke-width:1.18312764" />
    <path
       d="m 293.2301,577.86998 c -8e-5,2.76094 -1.9189,4.99921 -4.2859,4.99907 -2.367,-1.4e-4 -4.2856,-2.23841 -4.2856,-4.99949 0,-2.76109 1.9189,-4.99922 4.2859,-4.99908 2.367,1.4e-4 4.2856,2.23841 4.2856,4.99936"
       id="path72"
       inkscape:connector-curvature="0"
       style="fill:#ddafe9;stroke-width:1.18312764" />
    <path
       d="m 336.43,577.48433 c -1.3e-4,5.24586 -3.1982,9.49843 -7.1431,9.49829 -3.9449,-1.4e-4 -7.1428,-4.25299 -7.1426,-9.49885 2e-4,-5.24585 3.1982,-9.49842 7.1431,-9.49828 3.9449,1.4e-4 7.1428,4.25299 7.1426,9.49884"
       id="path78"
       inkscape:connector-curvature="0"
       style="fill:#ddafe9;stroke-width:1.18312764" />
    <path
       d="m 277.86,618.47022 c -8e-5,4.14156 -2.0788,7.49882 -4.643,7.49868 -2.5642,-1.4e-4 -4.6428,-3.35768 -4.6427,-7.4991 1e-4,-4.14143 2.0788,-7.49882 4.643,-7.49868 2.5642,1.4e-4 4.6428,3.35753 4.6427,7.4991"
       id="path80"
       inkscape:connector-curvature="0"
       style="fill:#ddafe9;stroke-width:1.18312764" />
    <path
       d="m 301.43,646.96996 c -2e-4,7.17869 -4.7973,12.9979 -10.715,12.99762 -5.9177,-2.8e-4 -10.714,-5.81991 -10.714,-12.99846 0,-7.17855 4.7973,-12.9979 10.715,-12.99762 5.9177,2.8e-4 10.714,5.81991 10.714,12.99846"
       id="path82"
       inkscape:connector-curvature="0"
       style="fill:#ddafe9;stroke-width:1.18312764" />
    <path
       d="m 279.29,665.96512 c -1.1e-4,3.31317 -2.7185,5.99895 -6.0716,5.99895 -3.3531,0 -6.0713,-2.68606 -6.0712,-5.99937 10e-5,-3.3133 2.7185,-5.99894 6.0716,-5.99894 3.3531,0 6.0713,2.68606 6.0712,5.99936"
       id="path84"
       inkscape:connector-curvature="0"
       style="fill:#ddafe9;stroke-width:1.18312764" />
    <path
       d="m 291.43,691.46932 c -1.5e-4,6.35029 -3.6779,11.49816 -8.2146,11.49788 -4.5367,-2.8e-4 -8.2142,-5.14829 -8.214,-11.49872 2e-4,-6.35044 3.6779,-11.49817 8.2146,-11.49789 4.5367,2.8e-4 8.2142,5.14829 8.214,11.49873"
       id="path86"
       inkscape:connector-curvature="0"
       style="fill:#ddafe9;stroke-width:1.18312764" />
    <path
       d="m 264.29,705.46723 c -6e-5,2.48491 -1.4392,4.4992 -3.2144,4.4992 -1.7752,0 -3.2142,-2.01457 -3.2142,-4.49948 0,-2.48491 1.4392,-4.49921 3.2144,-4.49921 1.7752,0 3.2142,2.01458 3.2142,4.49949"
       id="path88"
       inkscape:connector-curvature="0"
       style="fill:#ddafe9;stroke-width:1.18312764" />
    <path
       d="m 297.86,722.46069 c -2.1e-4,7.45473 -5.1171,13.49776 -11.429,13.49748 -6.3119,-2.8e-4 -11.428,-6.04373 -11.428,-13.49846 0,-7.45473 5.1171,-13.49777 11.429,-13.49749 6.3119,2.8e-4 11.428,6.04374 11.428,13.49847"
       id="path90"
       inkscape:connector-curvature="0"
       style="fill:#ddafe9;stroke-width:1.18312764" />
    <path
       d="m 365.71,644.96826 c -6e-5,2.20887 -1.4392,3.99934 -3.2144,3.9992 -1.7752,-1.4e-4 -3.2142,-1.79075 -3.2142,-3.99948 0,-2.20873 1.4392,-3.99934 3.2144,-3.9992 1.7752,1.4e-4 3.2142,1.79075 3.2142,3.99948"
       id="path92"
       inkscape:connector-curvature="0"
       style="fill:#ddafe9;stroke-width:1.18312764" />
    <path
       d="m 382.86,634.97375 c -1.5e-4,6.07425 -3.6779,10.99816 -8.2146,10.99802 -4.5367,-1.4e-4 -8.2142,-4.92447 -8.214,-10.99872 2e-4,-6.07425 3.6779,-10.99816 8.2146,-10.99802 4.5367,1.4e-4 8.2142,4.92447 8.214,10.99872"
       id="path94"
       inkscape:connector-curvature="0"
       style="fill:#ddafe9;stroke-width:1.18312764" />
    <path
       d="m 385,667.96683 c -1.7e-4,7.73076 -4.1577,13.99763 -9.286,13.99749 -5.1283,-1.4e-4 -9.2856,-6.26757 -9.2854,-13.99791 2e-4,-7.73035 4.1577,-13.99763 9.286,-13.99749 5.1283,1.4e-4 9.2856,6.26756 9.2854,13.99791"
       id="path96"
       inkscape:connector-curvature="0"
       style="fill:#ddafe9;stroke-width:1.18312764" />
    <path
       d="m 388.57,649.47559 c -8e-5,3.03712 -1.9189,5.49908 -4.2859,5.49894 -2.367,-1.4e-4 -4.2856,-2.46224 -4.2856,-5.49936 0,-3.03713 1.9189,-5.49908 4.2859,-5.49894 2.367,1.4e-4 4.2856,2.46223 4.2856,5.49936"
       id="path98"
       inkscape:connector-curvature="0"
       style="fill:#ddafe9;stroke-width:1.18312764" />
    <path
       d="m 368.57,691.95924 c -6e-5,2.20887 -1.2793,3.99935 -2.8572,3.99921 -1.5779,-1.4e-4 -2.8571,-1.79076 -2.857,-3.99949 1e-4,-2.20873 1.2793,-3.99934 2.8572,-3.9992 1.5779,1.4e-4 2.8571,1.79075 2.857,3.99948"
       id="path100"
       inkscape:connector-curvature="0"
       style="fill:#ddafe9;stroke-width:1.18312764" />
    <path
       d="m 390,696.46657 c -1.5e-4,5.24586 -3.518,9.49842 -7.8574,9.49828 -4.3394,-1.4e-4 -7.857,-4.25298 -7.8569,-9.49884 10e-5,-5.24586 3.518,-9.49842 7.8574,-9.49828 4.3394,1.4e-4 7.857,4.25298 7.8569,9.49884"
       id="path102"
       inkscape:connector-curvature="0"
       style="fill:#ddafe9;stroke-width:1.18312764" />
    <path
       d="m 369.29,709.96056 c -7e-5,2.76094 -1.9189,4.99921 -4.2858,4.99907 -2.3669,-1.4e-4 -4.2856,-2.23841 -4.2856,-4.99949 0,-2.76109 1.9189,-4.99922 4.2858,-4.99908 2.3669,1.4e-4 4.2856,2.23841 4.2856,4.9995"
       id="path104"
       inkscape:connector-curvature="0"
       style="fill:#ddafe9;stroke-width:1.18312764" />
    <path
       d="m 374.29,732.4552 c -1.9e-4,6.90251 -4.4775,12.49789 -10,12.49775 -5.5225,-1.4e-4 -9.9998,-5.59608 -9.9997,-12.49859 10e-5,-6.90251 4.4775,-12.4979 10,-12.49776 5.5225,1.4e-4 9.9998,5.59609 9.9997,12.4986"
       id="path106"
       inkscape:connector-curvature="0"
       style="fill:#ddafe9;stroke-width:1.18312764" />
    <path
       d="m 380.71,714.46788 c -9e-5,4.14156 -2.0788,7.49882 -4.643,7.49868 -2.5642,-1.4e-4 -4.6428,-3.35754 -4.6427,-7.4991 10e-5,-4.14156 2.0788,-7.49882 4.643,-7.49868 2.5642,1.4e-4 4.6428,3.35768 4.6427,7.4991"
       id="path108"
       inkscape:connector-curvature="0"
       style="fill:#ddafe9;stroke-width:1.18312764" />
    <path
       d="m 355,749.95258 c -1.6e-4,6.62648 -3.9978,11.99803 -8.9289,11.99775 -4.9311,-2.8e-4 -8.9284,-5.37211 -8.9283,-11.99858 10e-5,-6.62648 3.9978,-11.99803 8.9289,-11.99789 4.9311,1.4e-4 8.9284,5.37211 8.9283,11.99858"
       id="path110"
       inkscape:connector-curvature="0"
       style="fill:#ddafe9;stroke-width:1.18312764" />
    <path
       d="m 328.57,751.95429 c -8e-5,2.76094 -1.9189,4.99921 -4.2859,4.99907 -2.367,-1.4e-4 -4.2856,-2.23841 -4.2856,-4.99949 0,-2.76109 1.9189,-4.99922 4.2859,-4.99908 2.367,1.4e-4 4.2856,2.23841 4.2856,4.9995"
       id="path112"
       inkscape:connector-curvature="0"
       style="fill:#ddafe9;stroke-width:1.18312764" />
    <path
       d="m 307.86,743.96148 c -1.1e-4,3.86538 -2.5586,6.99881 -5.7145,6.99867 -3.1559,-1.4e-4 -5.7142,-3.13385 -5.7141,-6.99923 1e-4,-3.86538 2.5586,-6.99882 5.7145,-6.99868 3.1559,1.4e-4 5.7142,3.13372 5.7141,6.99924"
       id="path114"
       inkscape:connector-curvature="0"
       style="fill:#ddafe9;stroke-width:1.18312764" />
  </g>
</svg>
