<?xml version="1.0" encoding="UTF-8" standalone="no"?>
<svg
   xmlns:dc="http://purl.org/dc/elements/1.1/"
   xmlns:cc="http://creativecommons.org/ns#"
   xmlns:rdf="http://www.w3.org/1999/02/22-rdf-syntax-ns#"
   xmlns:svg="http://www.w3.org/2000/svg"
   xmlns="http://www.w3.org/2000/svg"
   xmlns:sodipodi="http://sodipodi.sourceforge.net/DTD/sodipodi-0.dtd"
   xmlns:inkscape="http://www.inkscape.org/namespaces/inkscape"
   viewBox="0 0 69.999999 70.000001"
   version="1.1"
   id="svg66"
   sodipodi:docname="1.svg"
   width="70"
   height="70"
   inkscape:version="0.92.3 (2405546, 2018-03-11)">
  <metadata
     id="metadata72">
    <rdf:RDF>
      <cc:Work
         rdf:about="">
        <dc:format>image/svg+xml</dc:format>
        <dc:type
           rdf:resource="http://purl.org/dc/dcmitype/StillImage" />
        <dc:title></dc:title>
      </cc:Work>
    </rdf:RDF>
  </metadata>
  <defs
     id="defs70" />
  <sodipodi:namedview
     pagecolor="#ffffff"
     bordercolor="#666666"
     borderopacity="1"
     objecttolerance="10"
     gridtolerance="10"
     guidetolerance="10"
     inkscape:pageopacity="0"
     inkscape:pageshadow="2"
     inkscape:window-width="1920"
     inkscape:window-height="1052"
     id="namedview68"
     showgrid="false"
     inkscape:zoom="3.5881183"
     inkscape:cx="109.10891"
     inkscape:cy="-0.11612329"
     inkscape:window-x="0"
     inkscape:window-y="360"
     inkscape:window-maximized="1"
     inkscape:current-layer="svg66" />
  <g
     transform="matrix(0.29182234,0,0,0.23840946,-30.86355,-43.856363)"
     id="g64">
    <path
       d="m 154.29,277.36 c 0,0 -10,7.1429 -7.1428,17.857 2.8572,10.7141 10.714,9.2857 10.714,13.571 0,4.2853 -5.7143,8.5714 -5.7143,8.5714 0,0 10,-2.1429 10,-7.8571 0,-5.7142 8.5714,-0.71429 8.5714,-0.71429 0,0 -5.7143,-5.7143 -11.429,-7.1428 -5.7147,-1.4285 -7.8571,-7.1429 -7.1428,-12.857 0.7143,-5.7141 6.4286,-5.7143 6.4286,-5.7143 l -4.2857,-5.7143 z"
       id="path2"
       inkscape:connector-curvature="0"
       style="fill:#ff2a2a;fill-rule:evenodd" />
    <path
       d="m 134.29,250.93 40,52.857 40,-33.571 -7.1428,146.43 -54.286,-5.7143 v 61.429 h 161.43 l -10,-68.571 -44.286,5.7143 27.143,-195.71 -55.714,-18.571 -97.143,55.714 z"
       id="path4"
       inkscape:connector-curvature="0"
       style="fill:#88aa00;fill-rule:evenodd;stroke:#668000;stroke-width:3" />
    <path
       transform="translate(-7.8571,-12.857)"
       d="m 235,223.08 c -3.4e-4,10.257 -8.3153,18.571 -18.572,18.571 -10.2567,0 -18.571,-8.3153 -18.571,-18.572 0,-10.2567 8.3153,-18.571 18.572,-18.571 10.2567,0 18.571,8.3153 18.571,18.572"
       id="path6"
       inkscape:connector-curvature="0"
       style="fill:#e6e6e6;stroke:#668000;stroke-width:3" />
    <path
       transform="matrix(1.1779,0,0,1.1779,-7.7961,-28.265)"
       d="m 235,223.08 c -3.4e-4,10.257 -8.3153,18.571 -18.572,18.571 -10.2567,0 -18.571,-8.3153 -18.571,-18.572 0,-10.2567 8.3153,-18.571 18.572,-18.571 10.2567,0 18.571,8.3153 18.571,18.572"
       id="path8"
       inkscape:connector-curvature="0"
       style="fill:#e6e6e6;stroke:#668000;stroke-width:3" />
    <path
       d="m 145.71,243.79 27.857,34.286"
       id="path10"
       inkscape:connector-curvature="0"
       style="fill:none;stroke:#668000;stroke-width:2" />
    <path
       d="m 160.71,234.51 22.143,30.714"
       id="path12"
       inkscape:connector-curvature="0"
       style="fill:none;stroke:#668000;stroke-width:2" />
    <path
       d="m 175.71,226.65 22.857,28.571"
       id="path14"
       inkscape:connector-curvature="0"
       style="fill:none;stroke:#668000;stroke-width:2" />
    <path
       d="m 242.86,287.36 h 35.714"
       id="path16"
       inkscape:connector-curvature="0"
       style="fill:none;stroke:#668000;stroke-width:2" />
    <path
       d="m 249.29,303.79 25,-0.71428"
       id="path18"
       inkscape:connector-curvature="0"
       style="fill:none;stroke:#668000;stroke-width:2" />
    <path
       d="m 236.43,319.51 h 37.143"
       id="path20"
       inkscape:connector-curvature="0"
       style="fill:none;stroke:#668000;stroke-width:2" />
    <path
       d="m 241.43,335.22 29.286,1.4286"
       id="path22"
       inkscape:connector-curvature="0"
       style="fill:none;stroke:#668000;stroke-width:2" />
    <path
       d="m 235,350.93 c 3.5714,0 34.286,0.71429 34.286,0.71429"
       id="path24"
       inkscape:connector-curvature="0"
       style="fill:none;stroke:#668000;stroke-width:2" />
    <path
       d="m 243.57,363.79 h 24.286"
       id="path26"
       inkscape:connector-curvature="0"
       style="fill:none;stroke:#668000;stroke-width:2" />
    <path
       d="m 232.14,380.93 32.143,-2.1429"
       id="path28"
       inkscape:connector-curvature="0"
       style="fill:none;stroke:#668000;stroke-width:2" />
    <path
       d="m 238.57,393.08 22.143,-0.71429"
       id="path30"
       inkscape:connector-curvature="0"
       style="fill:none;stroke:#668000;stroke-width:2" />
    <g
       transform="matrix(0.85149,0,0,0.85149,3.1789,9.3041)"
       id="g38">
      <path
         d="m 256.07,232.18 c -1.8e-4,5.4242 -4.3975,9.8213 -9.8218,9.8211 -5.4243,-2e-4 -9.8213,-4.3975 -9.8211,-9.8218 2e-4,-5.4243 4.3975,-9.8213 9.8218,-9.8211 5.4243,2e-4 9.8213,4.3975 9.8211,9.8218"
         id="path32"
         inkscape:connector-curvature="0"
         style="fill:#445500;stroke:#222b00;stroke-width:2" />
      <path
         d="m 250.36,232.18 c -7e-5,2.2683 -1.839,4.1071 -4.1073,4.107 -2.2683,-1e-4 -4.1071,-1.839 -4.107,-4.1073 1e-4,-2.2683 1.839,-4.1071 4.1073,-4.107 2.2683,1e-4 4.1071,1.839 4.107,4.1073"
         id="path34"
         inkscape:connector-curvature="0"
         style="fill:#222b00" />
      <path
         transform="translate(0,1.0714)"
         d="m 251.43,228.79 c -4e-5,0.98622 -0.79955,1.7857 -1.7858,1.7856 -0.98625,-1e-4 -1.7857,-0.79955 -1.7856,-1.7858 1e-4,-0.98625 0.79955,-1.7857 1.7858,-1.7857 0.98625,0 1.7857,0.79955 1.7857,1.7858"
         id="path36"
         inkscape:connector-curvature="0"
         style="fill:#cdde87" />
    </g>
    <g
       transform="matrix(1.1485,0,0,1.1485,-31.215,-31.268)"
       id="g46">
      <path
         d="m 256.07,232.18 c -1.8e-4,5.4242 -4.3975,9.8213 -9.8218,9.8211 -5.4243,-2e-4 -9.8213,-4.3975 -9.8211,-9.8218 2e-4,-5.4243 4.3975,-9.8213 9.8218,-9.8211 5.4243,2e-4 9.8213,4.3975 9.8211,9.8218"
         id="path40"
         inkscape:connector-curvature="0"
         style="fill:#445500;stroke:#222b00;stroke-width:2" />
      <path
         d="m 250.36,232.18 c -7e-5,2.2683 -1.839,4.1071 -4.1073,4.107 -2.2683,-1e-4 -4.1071,-1.839 -4.107,-4.1073 1e-4,-2.2683 1.839,-4.1071 4.1073,-4.107 2.2683,1e-4 4.1071,1.839 4.107,4.1073"
         id="path42"
         inkscape:connector-curvature="0"
         style="fill:#222b00" />
      <path
         transform="translate(0,1.0714)"
         d="m 251.43,228.79 c -4e-5,0.98622 -0.79955,1.7857 -1.7858,1.7856 -0.98625,-1e-4 -1.7857,-0.79955 -1.7856,-1.7858 1e-4,-0.98625 0.79955,-1.7857 1.7858,-1.7857 0.98625,0 1.7857,0.79955 1.7857,1.7858"
         id="path44"
         inkscape:connector-curvature="0"
         style="fill:#cdde87" />
    </g>
    <path
       d="m 297.64,435.77 c 0.0474,2.8568 0.59298,35.709 0.59298,35.709"
       id="path48"
       inkscape:connector-curvature="0"
       style="fill:none;stroke:#668000;stroke-width:2" />
    <path
       d="m 281.32,445.5 1.1293,24.985"
       id="path50"
       inkscape:connector-curvature="0"
       style="fill:none;stroke:#668000;stroke-width:2" />
    <path
       d="m 265.65,435.18 0.61669,37.138"
       id="path52"
       inkscape:connector-curvature="0"
       style="fill:none;stroke:#668000;stroke-width:2" />
    <path
       d="m 249.77,441.7 -0.94214,29.305"
       id="path54"
       inkscape:connector-curvature="0"
       style="fill:none;stroke:#668000;stroke-width:2" />
    <path
       d="m 221.88,434.76 c 0.0474,2.8568 0.59298,35.709 0.59298,35.709"
       id="path56"
       inkscape:connector-curvature="0"
       style="fill:none;stroke:#668000;stroke-width:2" />
    <path
       d="m 205.56,444.49 1.1293,24.985"
       id="path58"
       inkscape:connector-curvature="0"
       style="fill:none;stroke:#668000;stroke-width:2" />
    <path
       d="m 189.89,434.17 0.61669,37.138"
       id="path60"
       inkscape:connector-curvature="0"
       style="fill:none;stroke:#668000;stroke-width:2" />
    <path
       d="m 174.01,440.69 -0.94214,29.305"
       id="path62"
       inkscape:connector-curvature="0"
       style="fill:none;stroke:#668000;stroke-width:2" />
  </g>
</svg>
