<?xml version="1.0" encoding="UTF-8"?>
<svg viewBox="0 0 744.09447 1052.362179" xmlns="http://www.w3.org/2000/svg">
 <g transform="matrix(3.6759 0 0 3.6759 -461.59 -690.9)">
  <path d="m154.29 277.36s-10 7.1429-7.1428 17.857 10.714 9.2857 10.714 13.571-5.7143 8.5714-5.7143 8.5714 10-2.1429 10-7.8571 8.5714-0.71429 8.5714-0.71429-5.7143-5.7143-11.429-7.1428-7.8571-7.1429-7.1428-12.857 6.4286-5.7143 6.4286-5.7143l-4.2857-5.7143z" fill="#ff2a2a" fill-rule="evenodd"/>
  <path d="m134.29 250.93 40 52.857 40-33.571-7.1428 146.43-54.286-5.7143v61.429h161.43l-10-68.571-44.286 5.7143 27.143-195.71-55.714-18.571-97.143 55.714z" fill="#8a0" fill-rule="evenodd" stroke="#668000" stroke-width="3"/>
  <path transform="translate(-7.8571 -12.857)" d="m235 223.08c-3.4e-4 10.257-8.3153 18.571-18.572 18.571s-18.571-8.3153-18.571-18.572 8.3153-18.571 18.572-18.571 18.571 8.3153 18.571 18.572" fill="#e6e6e6" stroke="#668000" stroke-width="3"/>
  <path transform="matrix(1.1779 0 0 1.1779 -7.7961 -28.265)" d="m235 223.08c-3.4e-4 10.257-8.3153 18.571-18.572 18.571s-18.571-8.3153-18.571-18.572 8.3153-18.571 18.572-18.571 18.571 8.3153 18.571 18.572" fill="#e6e6e6" stroke="#668000" stroke-width="3"/>
  <path d="m145.71 243.79 27.857 34.286" fill="none" stroke="#668000" stroke-width="2"/>
  <path d="m160.71 234.51 22.143 30.714" fill="none" stroke="#668000" stroke-width="2"/>
  <path d="m175.71 226.65 22.857 28.571" fill="none" stroke="#668000" stroke-width="2"/>
  <path d="m242.86 287.36h35.714" fill="none" stroke="#668000" stroke-width="2"/>
  <path d="m249.29 303.79 25-0.71428" fill="none" stroke="#668000" stroke-width="2"/>
  <path d="m236.43 319.51h37.143" fill="none" stroke="#668000" stroke-width="2"/>
  <path d="m241.43 335.22 29.286 1.4286" fill="none" stroke="#668000" stroke-width="2"/>
  <path d="m235 350.93c3.5714 0 34.286 0.71429 34.286 0.71429" fill="none" stroke="#668000" stroke-width="2"/>
  <path d="m243.57 363.79h24.286" fill="none" stroke="#668000" stroke-width="2"/>
  <path d="m232.14 380.93 32.143-2.1429" fill="none" stroke="#668000" stroke-width="2"/>
  <path d="m238.57 393.08 22.143-0.71429" fill="none" stroke="#668000" stroke-width="2"/>
  <g transform="matrix(.85149 0 0 .85149 3.1789 9.3041)">
   <path d="m256.07 232.18c-1.8e-4 5.4242-4.3975 9.8213-9.8218 9.8211s-9.8213-4.3975-9.8211-9.8218 4.3975-9.8213 9.8218-9.8211 9.8213 4.3975 9.8211 9.8218" fill="#450" stroke="#222b00" stroke-width="2"/>
   <path d="m250.36 232.18c-7e-5 2.2683-1.839 4.1071-4.1073 4.107s-4.1071-1.839-4.107-4.1073 1.839-4.1071 4.1073-4.107 4.1071 1.839 4.107 4.1073" fill="#222b00"/>
   <path transform="translate(0 1.0714)" d="m251.43 228.79c-4e-5 0.98622-0.79955 1.7857-1.7858 1.7856s-1.7857-0.79955-1.7856-1.7858 0.79955-1.7857 1.7858-1.7857 1.7857 0.79955 1.7857 1.7858" fill="#cdde87"/>
  </g>
  <g transform="matrix(1.1485 0 0 1.1485 -31.215 -31.268)">
   <path d="m256.07 232.18c-1.8e-4 5.4242-4.3975 9.8213-9.8218 9.8211s-9.8213-4.3975-9.8211-9.8218 4.3975-9.8213 9.8218-9.8211 9.8213 4.3975 9.8211 9.8218" fill="#450" stroke="#222b00" stroke-width="2"/>
   <path d="m250.36 232.18c-7e-5 2.2683-1.839 4.1071-4.1073 4.107s-4.1071-1.839-4.107-4.1073 1.839-4.1071 4.1073-4.107 4.1071 1.839 4.107 4.1073" fill="#222b00"/>
   <path transform="translate(0 1.0714)" d="m251.43 228.79c-4e-5 0.98622-0.79955 1.7857-1.7858 1.7856s-1.7857-0.79955-1.7856-1.7858 0.79955-1.7857 1.7858-1.7857 1.7857 0.79955 1.7857 1.7858" fill="#cdde87"/>
  </g>
  <path d="m297.64 435.77c0.0474 2.8568 0.59298 35.709 0.59298 35.709" fill="none" stroke="#668000" stroke-width="2"/>
  <path d="m281.32 445.5 1.1293 24.985" fill="none" stroke="#668000" stroke-width="2"/>
  <path d="m265.65 435.18 0.61669 37.138" fill="none" stroke="#668000" stroke-width="2"/>
  <path d="m249.77 441.7-0.94214 29.305" fill="none" stroke="#668000" stroke-width="2"/>
  <path d="m221.88 434.76c0.0474 2.8568 0.59298 35.709 0.59298 35.709" fill="none" stroke="#668000" stroke-width="2"/>
  <path d="m205.56 444.49 1.1293 24.985" fill="none" stroke="#668000" stroke-width="2"/>
  <path d="m189.89 434.17 0.61669 37.138" fill="none" stroke="#668000" stroke-width="2"/>
  <path d="m174.01 440.69-0.94214 29.305" fill="none" stroke="#668000" stroke-width="2"/>
 </g>
</svg>
