<?xml version="1.0" encoding="UTF-8"?>
<svg viewBox="0 0 744.09447 1052.362179" xmlns="http://www.w3.org/2000/svg">
 <defs>
  <filter id="b" x="-.16854" y="-.10606" width="1.3371" height="1.2121">
   <feGaussianBlur stdDeviation="4.98722"/>
  </filter>
  <filter id="a" x="-.09658" y="-.22892" width="1.1932" height="1.4578">
   <feGaussianBlur stdDeviation="5.52059"/>
  </filter>
 </defs>
 <g transform="matrix(3.9207 0 0 3.9207 -659.56 -1063)">
  <path d="m170.72 371.52 18.183 19.193s41.21-61.825 74.751-28.284c34.345 34.345-63.64 57.579-70.711 86.873s0 52.528 0 52.528l163.64-1.0102-3.0305-77.782-105.06 28.284s67.68-26.264 75.761-69.701c5.9154-31.795-35.355-96.975-96.975-74.751s2.0203 40.406-56.569 64.65z" fill="#fc0" fill-rule="evenodd" stroke="#a80" stroke-width="3"/>
  <path d="m221.22 333.13c-3.8e-4 11.158-9.0459 20.203-20.204 20.202s-20.203-9.0459-20.202-20.204 9.0459-20.203 20.204-20.202 20.203 9.0459 20.202 20.204" fill="#fea" stroke="#a80" stroke-width="3"/>
  <path d="m216.17 332.63c-1.8e-4 5.3-4.2968 9.5963-9.5968 9.5961s-9.5963-4.2968-9.5961-9.5968 4.2968-9.5963 9.5968-9.5961 9.5963 4.2968 9.5961 9.5968" fill="#540"/>
  <path d="m214.4 333.51c-7e-5 2.1618-1.7526 3.9143-3.9145 3.9142s-3.9143-1.7526-3.9142-3.9145 1.7526-3.9143 3.9145-3.9142 3.9143 1.7526 3.9142 3.9145" fill="#2b2200"/>
  <path d="m210.11 330.36c-3e-5 0.97631-0.79151 1.7677-1.7678 1.7677s-1.7677-0.79152-1.7677-1.7678 0.79151-1.7677 1.7678-1.7677 1.7677 0.79152 1.7677 1.7678" fill="#fea"/>
  <path d="m242.86 314.51c2.8572 1.4286 33.571 2.8571 52.143 24.286s5.7143 49.286-2.1429 61.429-20 25.714-20 25.714 37.143-20 40.714-54.286-30-58.571-46.429-58.571-25 2.1429-24.286 1.4286z" fill="#fea" fill-rule="evenodd" filter="url(#b)"/>
  <path d="m212.86 491.65s123.57 5.7143 132.14-1.4286 3.5714-54.286 3.5714-54.286-5 28.571-30.714 38.571-106.43 17.857-105 17.143z" fill="#ffe680" fill-rule="evenodd" filter="url(#a)"/>
  <path d="m196.43 365.93-15.714 14.286" fill="none" stroke="#806600" stroke-width="2"/>
  <path d="m242.86 454.51s-5 58.571 48.571 27.857c43.856-25.144 61.429-58.571 61.429-58.571" fill="none" stroke="#a80" stroke-width="3"/>
  <path d="m254.05 461.42 64.145-19.698" fill="none" stroke="#a80" stroke-width="2"/>
  <path d="m267.19 467.48 52.023-17.678" fill="none" stroke="#a80" stroke-width="2"/>
  <path d="m282.34 471.52 35.86-13.132" fill="none" stroke="#a80" stroke-width="2"/>
 </g>
</svg>
