<?xml version="1.0" encoding="UTF-8" standalone="no"?>
<svg
   xmlns:dc="http://purl.org/dc/elements/1.1/"
   xmlns:cc="http://creativecommons.org/ns#"
   xmlns:rdf="http://www.w3.org/1999/02/22-rdf-syntax-ns#"
   xmlns:svg="http://www.w3.org/2000/svg"
   xmlns="http://www.w3.org/2000/svg"
   xmlns:sodipodi="http://sodipodi.sourceforge.net/DTD/sodipodi-0.dtd"
   xmlns:inkscape="http://www.inkscape.org/namespaces/inkscape"
   viewBox="0 0 69.999999 70.000001"
   version="1.1"
   id="svg36"
   sodipodi:docname="2.svg"
   width="70"
   height="70"
   inkscape:version="0.92.3 (2405546, 2018-03-11)">
  <metadata
     id="metadata40">
    <rdf:RDF>
      <cc:Work
         rdf:about="">
        <dc:format>image/svg+xml</dc:format>
        <dc:type
           rdf:resource="http://purl.org/dc/dcmitype/StillImage" />
        <dc:title></dc:title>
      </cc:Work>
    </rdf:RDF>
  </metadata>
  <sodipodi:namedview
     pagecolor="#ffffff"
     bordercolor="#666666"
     borderopacity="1"
     objecttolerance="10"
     gridtolerance="10"
     guidetolerance="10"
     inkscape:pageopacity="0"
     inkscape:pageshadow="2"
     inkscape:window-width="1920"
     inkscape:window-height="1052"
     id="namedview38"
     showgrid="false"
     inkscape:zoom="5.0743655"
     inkscape:cx="34.727136"
     inkscape:cy="46.540681"
     inkscape:window-x="0"
     inkscape:window-y="360"
     inkscape:window-maximized="1"
     inkscape:current-layer="svg36" />
  <defs
     id="defs8">
    <filter
       id="b"
       x="-0.16854"
       y="-0.10606"
       width="1.3371"
       height="1.2121">
      <feGaussianBlur
         stdDeviation="4.98722"
         id="feGaussianBlur2" />
    </filter>
    <filter
       id="a"
       x="-0.096579999"
       y="-0.22892"
       width="1.1932"
       height="1.4578">
      <feGaussianBlur
         stdDeviation="5.52059"
         id="feGaussianBlur5" />
    </filter>
  </defs>
  <g
     transform="matrix(0.32550584,0,0,0.32522029,-50.59301,-95.643205)"
     id="g34">
    <path
       d="m 170.72,371.52 18.183,19.193 c 0,0 41.21,-61.825 74.751,-28.284 34.345,34.345 -63.64,57.579 -70.711,86.873 -7.071,29.294 0,52.528 0,52.528 l 163.64,-1.0102 -3.0305,-77.782 -105.06,28.284 c 0,0 67.68,-26.264 75.761,-69.701 5.9154,-31.795 -35.355,-96.975 -96.975,-74.751 -61.62,22.224 2.0203,40.406 -56.569,64.65 z"
       id="path10"
       inkscape:connector-curvature="0"
       style="fill:#ffcc00;fill-rule:evenodd;stroke:#aa8800;stroke-width:3" />
    <path
       d="m 221.22,333.13 c -3.8e-4,11.158 -9.0459,20.203 -20.204,20.202 -11.1581,-10e-4 -20.203,-9.0459 -20.202,-20.204 0.001,-11.1581 9.0459,-20.203 20.204,-20.202 11.1581,0.001 20.203,9.0459 20.202,20.204"
       id="path12"
       inkscape:connector-curvature="0"
       style="fill:#ffeeaa;stroke:#aa8800;stroke-width:3" />
    <path
       d="m 216.17,332.63 c -1.8e-4,5.3 -4.2968,9.5963 -9.5968,9.5961 -5.3,-2e-4 -9.5963,-4.2968 -9.5961,-9.5968 2e-4,-5.3 4.2968,-9.5963 9.5968,-9.5961 5.3,2e-4 9.5963,4.2968 9.5961,9.5968"
       id="path14"
       inkscape:connector-curvature="0"
       style="fill:#554400" />
    <path
       d="m 214.4,333.51 c -7e-5,2.1618 -1.7526,3.9143 -3.9145,3.9142 -2.1619,-10e-5 -3.9143,-1.7526 -3.9142,-3.9145 1e-4,-2.1619 1.7526,-3.9143 3.9145,-3.9142 2.1619,10e-5 3.9143,1.7526 3.9142,3.9145"
       id="path16"
       inkscape:connector-curvature="0"
       style="fill:#2b2200" />
    <path
       d="m 210.11,330.36 c -3e-5,0.97631 -0.79151,1.7677 -1.7678,1.7677 -0.97629,0 -1.7677,-0.79152 -1.7677,-1.7678 0,-0.97628 0.79151,-1.7677 1.7678,-1.7677 0.97629,0 1.7677,0.79152 1.7677,1.7678"
       id="path18"
       inkscape:connector-curvature="0"
       style="fill:#ffeeaa" />
    <path
       d="m 242.86,314.51 c 2.8572,1.4286 33.571,2.8571 52.143,24.286 18.572,21.4289 5.7143,49.286 -2.1429,61.429 -7.8572,12.143 -20,25.714 -20,25.714 0,0 37.143,-20 40.714,-54.286 3.571,-34.286 -30,-58.571 -46.429,-58.571 -16.429,0 -25,2.1429 -24.286,1.4286 z"
       id="path20"
       inkscape:connector-curvature="0"
       style="fill:#ffeeaa;fill-rule:evenodd;filter:url(#b)" />
    <path
       d="m 212.86,491.65 c 0,0 123.57,5.7143 132.14,-1.4286 8.57,-7.1429 3.5714,-54.286 3.5714,-54.286 0,0 -5,28.571 -30.714,38.571 -25.714,10 -106.43,17.857 -105,17.143 z"
       id="path22"
       inkscape:connector-curvature="0"
       style="fill:#ffe680;fill-rule:evenodd;filter:url(#a)" />
    <path
       d="m 196.43,365.93 -15.714,14.286"
       id="path24"
       inkscape:connector-curvature="0"
       style="fill:none;stroke:#806600;stroke-width:2" />
    <path
       d="m 242.86,454.51 c 0,0 -5,58.571 48.571,27.857 43.856,-25.144 61.429,-58.571 61.429,-58.571"
       id="path26"
       inkscape:connector-curvature="0"
       style="fill:none;stroke:#aa8800;stroke-width:3" />
    <path
       d="m 254.05,461.42 64.145,-19.698"
       id="path28"
       inkscape:connector-curvature="0"
       style="fill:none;stroke:#aa8800;stroke-width:2" />
    <path
       d="m 267.19,467.48 52.023,-17.678"
       id="path30"
       inkscape:connector-curvature="0"
       style="fill:none;stroke:#aa8800;stroke-width:2" />
    <path
       d="M 282.34,471.52 318.2,458.388"
       id="path32"
       inkscape:connector-curvature="0"
       style="fill:none;stroke:#aa8800;stroke-width:2" />
  </g>
</svg>
