<?xml version="1.0" encoding="UTF-8"?>
<svg viewBox="0 0 744.09447 1052.362179" xmlns="http://www.w3.org/2000/svg">
 <g transform="matrix(4.2085 0 0 4.2085 -1671.5 -160.21)">
  <path d="m450.75 120 9.2857 11.429 28.571-11.071s-3.9286-9.2857-20.357-8.9286-17.5 8.2143-17.5 8.5714z" fill="#f4d7d7" fill-rule="evenodd" stroke="#d35f5f"/>
  <path d="m468.25 148.93 0.71428-9.2857 27.143 1.4286 0.35714 0.35714s2.1429 11.429-8.5714 11.786-19.643-4.2857-19.643-4.2857z" fill="#f4d7d7" fill-rule="evenodd" stroke="#d35f5f"/>
  <path d="m410.12 89.687 13.132 43.437s52.032-32.445 66.67-11.112c30.203 44.02-45.55 23.356-45.55 23.356l2.4387 35.579s66.936-22.54 70.385 13.796c1.8236 19.213-23.426 33.792-41.416 29.294-28.284-7.0711-38.386-27.274-38.386-27.274l-37.376 32.325s12.122 47.477 91.924 45.457 82.833-91.924 76.772-109.1-26.264-21.213-26.264-21.213 10.102-11.112 10.102-34.345-15.152-48.487-57.579-57.579-84.853 38.386-84.853 37.376z" fill="#c83737" fill-rule="evenodd" stroke="#a02c2c" stroke-width="3"/>
  <path transform="translate(243.45 -304.06)" d="m279.81 401.82c-3e-4 8.9263-7.2367 16.162-16.163 16.162s-16.162-7.2367-16.162-16.163 7.2367-16.162 16.163-16.162 16.162 7.2367 16.162 16.163" fill="#f4d7d7" stroke="#a02c2c" stroke-width="3"/>
  <path transform="translate(271.73 -284.86)" d="m216.17 363.44c-5.1e-4 15.063-12.212 27.274-27.275 27.273s-27.274-12.212-27.273-27.275 12.212-27.274 27.275-27.273 27.274 12.212 27.273 27.275" fill="#f4d7d7" stroke="#a02c2c" stroke-width="3"/>
  <path transform="translate(252.54 -284.86)" d="m226.27 364.95c-2.3e-4 6.9736-5.6537 12.627-12.627 12.626s-12.627-5.6537-12.626-12.627 5.6537-12.627 12.627-12.626 12.627 5.6537 12.626 12.627" fill="#501616"/>
  <path transform="matrix(.76 0 0 .76 341.69 -181.11)" d="m226.27 364.95c-2.3e-4 6.9736-5.6537 12.627-12.627 12.626s-12.627-5.6537-12.626-12.627 5.6537-12.627 12.627-12.626 12.627 5.6537 12.626 12.627" fill="#501616"/>
  <path transform="matrix(1.413 0 0 1.413 163.14 -434.44)" d="m219.46 364.51c-8e-5 2.2683-1.839 4.1071-4.1073 4.107s-4.1071-1.839-4.107-4.1073 1.839-4.1071 4.1073-4.107 4.1071 1.839 4.107 4.1073" fill="#280b0b"/>
  <path transform="matrix(1.413 0 0 1.413 197.96 -419.08)" d="m219.46 364.51c-8e-5 2.2683-1.839 4.1071-4.1073 4.107s-4.1071-1.839-4.107-4.1073 1.839-4.1071 4.1073-4.107 4.1071 1.839 4.107 4.1073" fill="#280b0b"/>
  <path transform="translate(252.54 -284.86)" d="m221.79 362.9c-4e-5 1.1835-0.95946 2.1428-2.1429 2.1428s-2.1428-0.95947-2.1428-2.1429 0.95946-2.1428 2.1429-2.1428 2.1428 0.95946 2.1428 2.1429" fill="#e9afaf"/>
  <path transform="translate(287.9 -268.43)" d="m221.79 362.9c-4e-5 1.1835-0.95946 2.1428-2.1429 2.1428s-2.1428-0.95947-2.1428-2.1429 0.95946-2.1428 2.1429-2.1428 2.1428 0.95946 2.1428 2.1429" fill="#ffd5d5"/>
  <path transform="translate(252.54 -282.01)" d="m205 522.72c-3.2e-4 9.665-7.8356 17.5-17.501 17.499s-17.5-7.8356-17.499-17.501 7.8356-17.5 17.501-17.499 17.5 7.8356 17.499 17.501" fill="#a02c2c"/>
  <path transform="matrix(.55102 0 0 .55102 371.01 -50.887)" d="m205 522.72c-3.2e-4 9.665-7.8356 17.5-17.501 17.499s-17.5-7.8356-17.499-17.501 7.8356-17.5 17.501-17.499 17.5 7.8356 17.499 17.501" fill="#a02c2c"/>
  <path transform="matrix(.79592 0 0 .79592 347.95 -160.33)" d="m205 522.72c-3.2e-4 9.665-7.8356 17.5-17.501 17.499s-17.5-7.8356-17.499-17.501 7.8356-17.5 17.501-17.499 17.5 7.8356 17.499 17.501" fill="#a02c2c"/>
  <path transform="matrix(.79592 0 0 .79592 366.52 -185.33)" d="m205 522.72c-3.2e-4 9.665-7.8356 17.5-17.501 17.499s-17.5-7.8356-17.499-17.501 7.8356-17.5 17.501-17.499 17.5 7.8356 17.499 17.501" fill="#a02c2c"/>
  <path transform="matrix(.44898 0 0 .44898 382.64 23.523)" d="m205 522.72c-3.2e-4 9.665-7.8356 17.5-17.501 17.499s-17.5-7.8356-17.499-17.501 7.8356-17.5 17.501-17.499 17.5 7.8356 17.499 17.501" fill="#a02c2c"/>
  <path transform="matrix(.44898 0 0 .44898 352.64 -22.191)" d="m205 522.72c-3.2e-4 9.665-7.8356 17.5-17.501 17.499s-17.5-7.8356-17.499-17.501 7.8356-17.5 17.501-17.499 17.5 7.8356 17.499 17.501" fill="#a02c2c"/>
  <path transform="matrix(.42857 0 0 .42857 442.54 29.548)" d="m205 522.72c-3.2e-4 9.665-7.8356 17.5-17.501 17.499s-17.5-7.8356-17.499-17.501 7.8356-17.5 17.501-17.499 17.5 7.8356 17.499 17.501" fill="#a02c2c"/>
  <path transform="matrix(.7551 0 0 .7551 403.46 -176.14)" d="m205 522.72c-3.2e-4 9.665-7.8356 17.5-17.501 17.499s-17.5-7.8356-17.499-17.501 7.8356-17.5 17.501-17.499 17.5 7.8356 17.499 17.501" fill="#a02c2c"/>
  <path transform="matrix(.36735 0 0 .36735 460.09 4.0512)" d="m205 522.72c-3.2e-4 9.665-7.8356 17.5-17.501 17.499s-17.5-7.8356-17.499-17.501 7.8356-17.5 17.501-17.499 17.5 7.8356 17.499 17.501" fill="#a02c2c"/>
  <path transform="matrix(.79592 0 0 .79592 402.95 -231.04)" d="m205 522.72c-3.2e-4 9.665-7.8356 17.5-17.501 17.499s-17.5-7.8356-17.499-17.501 7.8356-17.5 17.501-17.499 17.5 7.8356 17.499 17.501" fill="#a02c2c"/>
  <path transform="matrix(.79592 0 0 .79592 375.09 -250.33)" d="m205 522.72c-3.2e-4 9.665-7.8356 17.5-17.501 17.499s-17.5-7.8356-17.499-17.501 7.8356-17.5 17.501-17.499 17.5 7.8356 17.499 17.501" fill="#a02c2c"/>
  <path transform="matrix(.36735 0 0 .36735 480.09 -33.092)" d="m205 522.72c-3.2e-4 9.665-7.8356 17.5-17.501 17.499s-17.5-7.8356-17.499-17.501 7.8356-17.5 17.501-17.499 17.5 7.8356 17.499 17.501" fill="#a02c2c"/>
  <path transform="matrix(.89796 0 0 .89796 348.46 -336.88)" d="m205 522.72c-3.2e-4 9.665-7.8356 17.5-17.501 17.499s-17.5-7.8356-17.499-17.501 7.8356-17.5 17.501-17.499 17.5 7.8356 17.499 17.501" fill="#a02c2c"/>
  <path transform="matrix(.36735 0 0 .36735 470.8 -73.092)" d="m205 522.72c-3.2e-4 9.665-7.8356 17.5-17.501 17.499s-17.5-7.8356-17.499-17.501 7.8356-17.5 17.501-17.499 17.5 7.8356 17.499 17.501" fill="#a02c2c"/>
  <path transform="matrix(.53061 0 0 .53061 438.05 -177.72)" d="m205 522.72c-3.2e-4 9.665-7.8356 17.5-17.501 17.499s-17.5-7.8356-17.499-17.501 7.8356-17.5 17.501-17.499 17.5 7.8356 17.499 17.501" fill="#a02c2c"/>
  <path transform="matrix(.53061 0 0 .53061 402.33 -209.86)" d="m205 522.72c-3.2e-4 9.665-7.8356 17.5-17.501 17.499s-17.5-7.8356-17.499-17.501 7.8356-17.5 17.501-17.499 17.5 7.8356 17.499 17.501" fill="#a02c2c"/>
  <path transform="matrix(.36735 0 0 .36735 455.09 -114.52)" d="m205 522.72c-3.2e-4 9.665-7.8356 17.5-17.501 17.499s-17.5-7.8356-17.499-17.501 7.8356-17.5 17.501-17.499 17.5 7.8356 17.499 17.501" fill="#a02c2c"/>
  <path transform="matrix(.71429 0 0 .71429 298.97 -263.37)" d="m205 522.72c-3.2e-4 9.665-7.8356 17.5-17.501 17.499s-17.5-7.8356-17.499-17.501 7.8356-17.5 17.501-17.499 17.5 7.8356 17.499 17.501" fill="#a02c2c"/>
  <path transform="matrix(.30612 0 0 .30612 368.35 -71.446)" d="m205 522.72c-3.2e-4 9.665-7.8356 17.5-17.501 17.499s-17.5-7.8356-17.499-17.501 7.8356-17.5 17.501-17.499 17.5 7.8356 17.499 17.501" fill="#a02c2c"/>
  <path transform="matrix(.5102 0 0 .5102 364.37 -104.55)" d="m205 522.72c-3.2e-4 9.665-7.8356 17.5-17.501 17.499s-17.5-7.8356-17.499-17.501 7.8356-17.5 17.501-17.499 17.5 7.8356 17.499 17.501" fill="#a02c2c"/>
  <path transform="matrix(.36735 0 0 .36735 410.8 -29.52)" d="m205 522.72c-3.2e-4 9.665-7.8356 17.5-17.501 17.499s-17.5-7.8356-17.499-17.501 7.8356-17.5 17.501-17.499 17.5 7.8356 17.499 17.501" fill="#a02c2c"/>
  <path transform="matrix(.2449 0 0 .2449 455.19 23.772)" d="m205 522.72c-3.2e-4 9.665-7.8356 17.5-17.501 17.499s-17.5-7.8356-17.499-17.501 7.8356-17.5 17.501-17.499 17.5 7.8356 17.499 17.501" fill="#a02c2c"/>
  <path transform="matrix(.38776 0 0 .38776 425.91 -39.831)" d="m205 522.72c-3.2e-4 9.665-7.8356 17.5-17.501 17.499s-17.5-7.8356-17.499-17.501 7.8356-17.5 17.501-17.499 17.5 7.8356 17.499 17.501" fill="#a02c2c"/>
 </g>
</svg>
