<?xml version="1.0" encoding="UTF-8" standalone="no"?>
<svg
   xmlns:dc="http://purl.org/dc/elements/1.1/"
   xmlns:cc="http://creativecommons.org/ns#"
   xmlns:rdf="http://www.w3.org/1999/02/22-rdf-syntax-ns#"
   xmlns:svg="http://www.w3.org/2000/svg"
   xmlns="http://www.w3.org/2000/svg"
   xmlns:sodipodi="http://sodipodi.sourceforge.net/DTD/sodipodi-0.dtd"
   xmlns:inkscape="http://www.inkscape.org/namespaces/inkscape"
   viewBox="0 0 69.999999 70.000001"
   version="1.1"
   id="svg72"
   sodipodi:docname="3.svg"
   width="70"
   height="70"
   inkscape:version="0.92.3 (2405546, 2018-03-11)">
  <metadata
     id="metadata78">
    <rdf:RDF>
      <cc:Work
         rdf:about="">
        <dc:format>image/svg+xml</dc:format>
        <dc:type
           rdf:resource="http://purl.org/dc/dcmitype/StillImage" />
        <dc:title></dc:title>
      </cc:Work>
    </rdf:RDF>
  </metadata>
  <defs
     id="defs76" />
  <sodipodi:namedview
     pagecolor="#ffffff"
     bordercolor="#666666"
     borderopacity="1"
     objecttolerance="10"
     gridtolerance="10"
     guidetolerance="10"
     inkscape:pageopacity="0"
     inkscape:pageshadow="2"
     inkscape:window-width="1920"
     inkscape:window-height="1052"
     id="namedview74"
     showgrid="false"
     inkscape:zoom="2.5371828"
     inkscape:cx="93.853344"
     inkscape:cy="-22.876067"
     inkscape:window-x="0"
     inkscape:window-y="360"
     inkscape:window-maximized="1"
     inkscape:current-layer="svg72" />
  <g
     transform="matrix(0.28292597,0,0,0.29494949,-101.72036,-13.104133)"
     id="g70">
    <path
       d="m 450.75,120 9.2857,11.429 28.571,-11.071 c 0,0 -3.9286,-9.2857 -20.357,-8.9286 -16.4284,0.3571 -17.5,8.2143 -17.5,8.5714 z"
       id="path2"
       inkscape:connector-curvature="0"
       style="fill:#f4d7d7;fill-rule:evenodd;stroke:#d35f5f" />
    <path
       d="m 468.25,148.93 0.71428,-9.2857 27.143,1.4286 0.35714,0.35714 c 0,0 2.1429,11.429 -8.5714,11.786 -10.7143,0.357 -19.643,-4.2857 -19.643,-4.2857 z"
       id="path4"
       inkscape:connector-curvature="0"
       style="fill:#f4d7d7;fill-rule:evenodd;stroke:#d35f5f" />
    <path
       d="m 410.12,89.687 13.132,43.437 c 0,0 52.032,-32.445 66.67,-11.112 30.203,44.02 -45.55,23.356 -45.55,23.356 l 2.4387,35.579 c 0,0 66.936,-22.54 70.385,13.796 1.8236,19.213 -23.426,33.792 -41.416,29.294 -28.284,-7.0711 -38.386,-27.274 -38.386,-27.274 l -37.376,32.325 c 0,0 12.122,47.477 91.924,45.457 79.802,-2.02 82.833,-91.924 76.772,-109.1 -6.061,-17.176 -26.264,-21.213 -26.264,-21.213 0,0 10.102,-11.112 10.102,-34.345 0,-23.233 -15.152,-48.487 -57.579,-57.579 -42.427,-9.092 -84.853,38.386 -84.853,37.376 z"
       id="path6"
       inkscape:connector-curvature="0"
       style="fill:#c83737;fill-rule:evenodd;stroke:#a02c2c;stroke-width:3" />
    <path
       transform="translate(243.45,-304.06)"
       d="m 279.81,401.82 c -3e-4,8.9263 -7.2367,16.162 -16.163,16.162 -8.9263,0 -16.162,-7.2367 -16.162,-16.163 0,-8.9263 7.2367,-16.162 16.163,-16.162 8.9263,0 16.162,7.2367 16.162,16.163"
       id="path8"
       inkscape:connector-curvature="0"
       style="fill:#f4d7d7;stroke:#a02c2c;stroke-width:3" />
    <path
       transform="translate(271.73,-284.86)"
       d="m 216.17,363.44 c -5.1e-4,15.063 -12.212,27.274 -27.275,27.273 -15.063,-0.001 -27.274,-12.212 -27.273,-27.275 10e-4,-15.063 12.212,-27.274 27.275,-27.273 15.063,10e-4 27.274,12.212 27.273,27.275"
       id="path10"
       inkscape:connector-curvature="0"
       style="fill:#f4d7d7;stroke:#a02c2c;stroke-width:3" />
    <path
       transform="translate(252.54,-284.86)"
       d="m 226.27,364.95 c -2.3e-4,6.9736 -5.6537,12.627 -12.627,12.626 -6.9733,-0.001 -12.627,-5.6537 -12.626,-12.627 0.001,-6.9733 5.6537,-12.627 12.627,-12.626 6.9733,0.001 12.627,5.6537 12.626,12.627"
       id="path12"
       inkscape:connector-curvature="0"
       style="fill:#501616" />
    <path
       transform="matrix(0.76,0,0,0.76,341.69,-181.11)"
       d="m 226.27,364.95 c -2.3e-4,6.9736 -5.6537,12.627 -12.627,12.626 -6.9733,-0.001 -12.627,-5.6537 -12.626,-12.627 0.001,-6.9733 5.6537,-12.627 12.627,-12.626 6.9733,0.001 12.627,5.6537 12.626,12.627"
       id="path14"
       inkscape:connector-curvature="0"
       style="fill:#501616" />
    <path
       transform="matrix(1.413,0,0,1.413,163.14,-434.44)"
       d="m 219.46,364.51 c -8e-5,2.2683 -1.839,4.1071 -4.1073,4.107 -2.2683,-1e-4 -4.1071,-1.839 -4.107,-4.1073 1e-4,-2.2683 1.839,-4.1071 4.1073,-4.107 2.2683,1e-4 4.1071,1.839 4.107,4.1073"
       id="path16"
       inkscape:connector-curvature="0"
       style="fill:#280b0b" />
    <path
       transform="matrix(1.413,0,0,1.413,197.96,-419.08)"
       d="m 219.46,364.51 c -8e-5,2.2683 -1.839,4.1071 -4.1073,4.107 -2.2683,-1e-4 -4.1071,-1.839 -4.107,-4.1073 1e-4,-2.2683 1.839,-4.1071 4.1073,-4.107 2.2683,1e-4 4.1071,1.839 4.107,4.1073"
       id="path18"
       inkscape:connector-curvature="0"
       style="fill:#280b0b" />
    <path
       transform="translate(252.54,-284.86)"
       d="m 221.79,362.9 c -4e-5,1.1835 -0.95946,2.1428 -2.1429,2.1428 -1.18344,0 -2.1428,-0.95947 -2.1428,-2.1429 0,-1.18343 0.95946,-2.1428 2.1429,-2.1428 1.18344,0 2.1428,0.95946 2.1428,2.1429"
       id="path20"
       inkscape:connector-curvature="0"
       style="fill:#e9afaf" />
    <path
       transform="translate(287.9,-268.43)"
       d="m 221.79,362.9 c -4e-5,1.1835 -0.95946,2.1428 -2.1429,2.1428 -1.18344,0 -2.1428,-0.95947 -2.1428,-2.1429 0,-1.18343 0.95946,-2.1428 2.1429,-2.1428 1.18344,0 2.1428,0.95946 2.1428,2.1429"
       id="path22"
       inkscape:connector-curvature="0"
       style="fill:#ffd5d5" />
    <path
       transform="translate(252.54,-282.01)"
       d="m 205,522.72 c -3.2e-4,9.665 -7.8356,17.5 -17.501,17.499 -9.6654,-0.001 -17.5,-7.8356 -17.499,-17.501 0.001,-9.6654 7.8356,-17.5 17.501,-17.499 9.6654,0.001 17.5,7.8356 17.499,17.501"
       id="path24"
       inkscape:connector-curvature="0"
       style="fill:#a02c2c" />
    <path
       transform="matrix(0.55102,0,0,0.55102,371.01,-50.887)"
       d="m 205,522.72 c -3.2e-4,9.665 -7.8356,17.5 -17.501,17.499 -9.6654,-0.001 -17.5,-7.8356 -17.499,-17.501 0.001,-9.6654 7.8356,-17.5 17.501,-17.499 9.6654,0.001 17.5,7.8356 17.499,17.501"
       id="path26"
       inkscape:connector-curvature="0"
       style="fill:#a02c2c" />
    <path
       transform="matrix(0.79592,0,0,0.79592,347.95,-160.33)"
       d="m 205,522.72 c -3.2e-4,9.665 -7.8356,17.5 -17.501,17.499 -9.6654,-0.001 -17.5,-7.8356 -17.499,-17.501 0.001,-9.6654 7.8356,-17.5 17.501,-17.499 9.6654,0.001 17.5,7.8356 17.499,17.501"
       id="path28"
       inkscape:connector-curvature="0"
       style="fill:#a02c2c" />
    <path
       transform="matrix(0.79592,0,0,0.79592,366.52,-185.33)"
       d="m 205,522.72 c -3.2e-4,9.665 -7.8356,17.5 -17.501,17.499 -9.6654,-0.001 -17.5,-7.8356 -17.499,-17.501 0.001,-9.6654 7.8356,-17.5 17.501,-17.499 9.6654,0.001 17.5,7.8356 17.499,17.501"
       id="path30"
       inkscape:connector-curvature="0"
       style="fill:#a02c2c" />
    <path
       transform="matrix(0.44898,0,0,0.44898,382.64,23.523)"
       d="m 205,522.72 c -3.2e-4,9.665 -7.8356,17.5 -17.501,17.499 -9.6654,-0.001 -17.5,-7.8356 -17.499,-17.501 0.001,-9.6654 7.8356,-17.5 17.501,-17.499 9.6654,0.001 17.5,7.8356 17.499,17.501"
       id="path32"
       inkscape:connector-curvature="0"
       style="fill:#a02c2c" />
    <path
       transform="matrix(0.44898,0,0,0.44898,352.64,-22.191)"
       d="m 205,522.72 c -3.2e-4,9.665 -7.8356,17.5 -17.501,17.499 -9.6654,-0.001 -17.5,-7.8356 -17.499,-17.501 0.001,-9.6654 7.8356,-17.5 17.501,-17.499 9.6654,0.001 17.5,7.8356 17.499,17.501"
       id="path34"
       inkscape:connector-curvature="0"
       style="fill:#a02c2c" />
    <path
       transform="matrix(0.42857,0,0,0.42857,442.54,29.548)"
       d="m 205,522.72 c -3.2e-4,9.665 -7.8356,17.5 -17.501,17.499 -9.6654,-0.001 -17.5,-7.8356 -17.499,-17.501 0.001,-9.6654 7.8356,-17.5 17.501,-17.499 9.6654,0.001 17.5,7.8356 17.499,17.501"
       id="path36"
       inkscape:connector-curvature="0"
       style="fill:#a02c2c" />
    <path
       transform="matrix(0.7551,0,0,0.7551,403.46,-176.14)"
       d="m 205,522.72 c -3.2e-4,9.665 -7.8356,17.5 -17.501,17.499 -9.6654,-0.001 -17.5,-7.8356 -17.499,-17.501 0.001,-9.6654 7.8356,-17.5 17.501,-17.499 9.6654,0.001 17.5,7.8356 17.499,17.501"
       id="path38"
       inkscape:connector-curvature="0"
       style="fill:#a02c2c" />
    <path
       transform="matrix(0.36735,0,0,0.36735,460.09,4.0512)"
       d="m 205,522.72 c -3.2e-4,9.665 -7.8356,17.5 -17.501,17.499 -9.6654,-0.001 -17.5,-7.8356 -17.499,-17.501 0.001,-9.6654 7.8356,-17.5 17.501,-17.499 9.6654,0.001 17.5,7.8356 17.499,17.501"
       id="path40"
       inkscape:connector-curvature="0"
       style="fill:#a02c2c" />
    <path
       transform="matrix(0.79592,0,0,0.79592,402.95,-231.04)"
       d="m 205,522.72 c -3.2e-4,9.665 -7.8356,17.5 -17.501,17.499 -9.6654,-0.001 -17.5,-7.8356 -17.499,-17.501 0.001,-9.6654 7.8356,-17.5 17.501,-17.499 9.6654,0.001 17.5,7.8356 17.499,17.501"
       id="path42"
       inkscape:connector-curvature="0"
       style="fill:#a02c2c" />
    <path
       transform="matrix(0.79592,0,0,0.79592,375.09,-250.33)"
       d="m 205,522.72 c -3.2e-4,9.665 -7.8356,17.5 -17.501,17.499 -9.6654,-0.001 -17.5,-7.8356 -17.499,-17.501 0.001,-9.6654 7.8356,-17.5 17.501,-17.499 9.6654,0.001 17.5,7.8356 17.499,17.501"
       id="path44"
       inkscape:connector-curvature="0"
       style="fill:#a02c2c" />
    <path
       transform="matrix(0.36735,0,0,0.36735,480.09,-33.092)"
       d="m 205,522.72 c -3.2e-4,9.665 -7.8356,17.5 -17.501,17.499 -9.6654,-0.001 -17.5,-7.8356 -17.499,-17.501 0.001,-9.6654 7.8356,-17.5 17.501,-17.499 9.6654,0.001 17.5,7.8356 17.499,17.501"
       id="path46"
       inkscape:connector-curvature="0"
       style="fill:#a02c2c" />
    <path
       transform="matrix(0.89796,0,0,0.89796,348.46,-336.88)"
       d="m 205,522.72 c -3.2e-4,9.665 -7.8356,17.5 -17.501,17.499 -9.6654,-0.001 -17.5,-7.8356 -17.499,-17.501 0.001,-9.6654 7.8356,-17.5 17.501,-17.499 9.6654,0.001 17.5,7.8356 17.499,17.501"
       id="path48"
       inkscape:connector-curvature="0"
       style="fill:#a02c2c" />
    <path
       transform="matrix(0.36735,0,0,0.36735,470.8,-73.092)"
       d="m 205,522.72 c -3.2e-4,9.665 -7.8356,17.5 -17.501,17.499 -9.6654,-0.001 -17.5,-7.8356 -17.499,-17.501 0.001,-9.6654 7.8356,-17.5 17.501,-17.499 9.6654,0.001 17.5,7.8356 17.499,17.501"
       id="path50"
       inkscape:connector-curvature="0"
       style="fill:#a02c2c" />
    <path
       transform="matrix(0.53061,0,0,0.53061,438.05,-177.72)"
       d="m 205,522.72 c -3.2e-4,9.665 -7.8356,17.5 -17.501,17.499 -9.6654,-0.001 -17.5,-7.8356 -17.499,-17.501 0.001,-9.6654 7.8356,-17.5 17.501,-17.499 9.6654,0.001 17.5,7.8356 17.499,17.501"
       id="path52"
       inkscape:connector-curvature="0"
       style="fill:#a02c2c" />
    <path
       transform="matrix(0.53061,0,0,0.53061,402.33,-209.86)"
       d="m 205,522.72 c -3.2e-4,9.665 -7.8356,17.5 -17.501,17.499 -9.6654,-0.001 -17.5,-7.8356 -17.499,-17.501 0.001,-9.6654 7.8356,-17.5 17.501,-17.499 9.6654,0.001 17.5,7.8356 17.499,17.501"
       id="path54"
       inkscape:connector-curvature="0"
       style="fill:#a02c2c" />
    <path
       transform="matrix(0.36735,0,0,0.36735,455.09,-114.52)"
       d="m 205,522.72 c -3.2e-4,9.665 -7.8356,17.5 -17.501,17.499 -9.6654,-0.001 -17.5,-7.8356 -17.499,-17.501 0.001,-9.6654 7.8356,-17.5 17.501,-17.499 9.6654,0.001 17.5,7.8356 17.499,17.501"
       id="path56"
       inkscape:connector-curvature="0"
       style="fill:#a02c2c" />
    <path
       transform="matrix(0.71429,0,0,0.71429,298.97,-263.37)"
       d="m 205,522.72 c -3.2e-4,9.665 -7.8356,17.5 -17.501,17.499 -9.6654,-0.001 -17.5,-7.8356 -17.499,-17.501 0.001,-9.6654 7.8356,-17.5 17.501,-17.499 9.6654,0.001 17.5,7.8356 17.499,17.501"
       id="path58"
       inkscape:connector-curvature="0"
       style="fill:#a02c2c" />
    <path
       transform="matrix(0.30612,0,0,0.30612,368.35,-71.446)"
       d="m 205,522.72 c -3.2e-4,9.665 -7.8356,17.5 -17.501,17.499 -9.6654,-0.001 -17.5,-7.8356 -17.499,-17.501 0.001,-9.6654 7.8356,-17.5 17.501,-17.499 9.6654,0.001 17.5,7.8356 17.499,17.501"
       id="path60"
       inkscape:connector-curvature="0"
       style="fill:#a02c2c" />
    <path
       transform="matrix(0.5102,0,0,0.5102,364.37,-104.55)"
       d="m 205,522.72 c -3.2e-4,9.665 -7.8356,17.5 -17.501,17.499 -9.6654,-0.001 -17.5,-7.8356 -17.499,-17.501 0.001,-9.6654 7.8356,-17.5 17.501,-17.499 9.6654,0.001 17.5,7.8356 17.499,17.501"
       id="path62"
       inkscape:connector-curvature="0"
       style="fill:#a02c2c" />
    <path
       transform="matrix(0.36735,0,0,0.36735,410.8,-29.52)"
       d="m 205,522.72 c -3.2e-4,9.665 -7.8356,17.5 -17.501,17.499 -9.6654,-0.001 -17.5,-7.8356 -17.499,-17.501 0.001,-9.6654 7.8356,-17.5 17.501,-17.499 9.6654,0.001 17.5,7.8356 17.499,17.501"
       id="path64"
       inkscape:connector-curvature="0"
       style="fill:#a02c2c" />
    <path
       transform="matrix(0.2449,0,0,0.2449,455.19,23.772)"
       d="m 205,522.72 c -3.2e-4,9.665 -7.8356,17.5 -17.501,17.499 -9.6654,-0.001 -17.5,-7.8356 -17.499,-17.501 0.001,-9.6654 7.8356,-17.5 17.501,-17.499 9.6654,0.001 17.5,7.8356 17.499,17.501"
       id="path66"
       inkscape:connector-curvature="0"
       style="fill:#a02c2c" />
    <path
       transform="matrix(0.38776,0,0,0.38776,425.91,-39.831)"
       d="m 205,522.72 c -3.2e-4,9.665 -7.8356,17.5 -17.501,17.499 -9.6654,-0.001 -17.5,-7.8356 -17.499,-17.501 0.001,-9.6654 7.8356,-17.5 17.501,-17.499 9.6654,0.001 17.5,7.8356 17.499,17.501"
       id="path68"
       inkscape:connector-curvature="0"
       style="fill:#a02c2c" />
  </g>
</svg>
