<?xml version="1.0" encoding="UTF-8"?>
<svg viewBox="0 0 744.09447 1052.362179" xmlns="http://www.w3.org/2000/svg">
 <g transform="matrix(4.8057 0 0 4.8057 -217.73 -1376.4)">
  <g transform="matrix(1.0302 0 0 1.0302 -58.857 -41.079)">
   <path d="m124.25 321.02-12.125 156.56 67.25 1.5312c-1.2502 21.12-12.084 43.03-13.911 48.509h40.138l-8.6652-48.103 47.531 1.0938-3.0312-51.531-41.188 6.9375 13.844-45.027-40.536 1.9196s8.7533 22.485 7.7857 46.295l-41.938 7.0625 38.375-124.25-53.531-1z" fill="#08a" fill-rule="evenodd" stroke="#006680" stroke-width="3"/>
   <path d="m185.87 351.32c-3.1e-4 9.4842-7.689 17.172-17.173 17.172s-17.172-7.689-17.172-17.173 7.689-17.172 17.173-17.172 17.172 7.689 17.172 17.173" fill="#d5f6ff" stroke="#006680" stroke-width="3"/>
   <path transform="matrix(.83771 0 0 .83771 -9.9973 56.512)" d="m185.87 351.32c-3.1e-4 9.4842-7.689 17.172-17.173 17.172s-17.172-7.689-17.172-17.173 7.689-17.172 17.173-17.172 17.172 7.689 17.172 17.173" fill="#d5f6ff" stroke="#006680" stroke-width="3"/>
   <path d="m105.56 375.05h44.952s-14.647 19.193-27.274 19.193-17.173-18.183-17.678-19.193z" fill="#d5f6ff" fill-rule="evenodd" stroke="#045" stroke-width="3"/>
   <path d="m178.8 351.57c-1.5e-4 4.6026-3.7314 8.3336-8.334 8.3335s-8.3336-3.7314-8.3335-8.334 3.7314-8.3336 8.334-8.3335 8.3336 3.7314 8.3335 8.334" fill="#045"/>
   <path transform="matrix(.80303 0 0 .80303 -8.219 68.365)" d="m178.8 351.57c-1.5e-4 4.6026-3.7314 8.3336-8.334 8.3335s-8.3336-3.7314-8.3335-8.334 3.7314-8.3336 8.334-8.3335 8.3336 3.7314 8.3335 8.334" fill="#045"/>
   <path d="m174.25 350.94c-8e-5 2.1618-1.7526 3.9143-3.9145 3.9142s-3.9143-1.7526-3.9142-3.9145 1.7526-3.9143 3.9145-3.9142 3.9143 1.7526 3.9142 3.9145" fill="#00222b"/>
   <path d="m174.5 348.66c-3e-5 0.90657-0.73498 1.6415-1.6416 1.6414s-1.6415-0.73498-1.6414-1.6416 0.73498-1.6415 1.6416-1.6414 1.6415 0.73497 1.6414 1.6416" fill="#aef"/>
   <g transform="matrix(.70968 0 0 .70968 7.6576 101.51)">
    <path d="m174.25 350.94c-8e-5 2.1618-1.7526 3.9143-3.9145 3.9142s-3.9143-1.7526-3.9142-3.9145 1.7526-3.9143 3.9145-3.9142 3.9143 1.7526 3.9142 3.9145" fill="#00222b"/>
    <path d="m174.5 348.66c-3e-5 0.90657-0.73498 1.6415-1.6416 1.6414s-1.6415-0.73498-1.6414-1.6416 0.73498-1.6415 1.6416-1.6414 1.6415 0.73497 1.6414 1.6416" fill="#aef"/>
   </g>
   <path d="m117.5 375.22v7.1429" fill="none" stroke="#08a" stroke-width="3"/>
   <path d="m133.39 375.4v7.1429" fill="none" stroke="#08a" stroke-width="3"/>
   <path d="m123.39 382.29v11.216" fill="none" stroke="#08a" stroke-width="3"/>
  </g>
  <path d="m100 450.93s32.857 0 43.571-11.429-6.4286-22.857-15-20-10.714 14.286-5 17.143 13.571 0 12.857-5.7143-8.5714-1.4286-8.5714-1.4286" fill="none" stroke="#006680" stroke-width="2"/>
 </g>
</svg>
