<?xml version="1.0" encoding="UTF-8" standalone="no"?>
<svg
   xmlns:dc="http://purl.org/dc/elements/1.1/"
   xmlns:cc="http://creativecommons.org/ns#"
   xmlns:rdf="http://www.w3.org/1999/02/22-rdf-syntax-ns#"
   xmlns:svg="http://www.w3.org/2000/svg"
   xmlns="http://www.w3.org/2000/svg"
   xmlns:sodipodi="http://sodipodi.sourceforge.net/DTD/sodipodi-0.dtd"
   xmlns:inkscape="http://www.inkscape.org/namespaces/inkscape"
   viewBox="0 0 69.999999 70.000001"
   version="1.1"
   id="svg36"
   sodipodi:docname="4.svg"
   width="70"
   height="70"
   inkscape:version="0.92.3 (2405546, 2018-03-11)">
  <metadata
     id="metadata42">
    <rdf:RDF>
      <cc:Work
         rdf:about="">
        <dc:format>image/svg+xml</dc:format>
        <dc:type
           rdf:resource="http://purl.org/dc/dcmitype/StillImage" />
        <dc:title></dc:title>
      </cc:Work>
    </rdf:RDF>
  </metadata>
  <defs
     id="defs40" />
  <sodipodi:namedview
     pagecolor="#ffffff"
     bordercolor="#666666"
     borderopacity="1"
     objecttolerance="10"
     gridtolerance="10"
     guidetolerance="10"
     inkscape:pageopacity="0"
     inkscape:pageshadow="2"
     inkscape:window-width="1920"
     inkscape:window-height="1052"
     id="namedview38"
     showgrid="false"
     inkscape:zoom="5.0743655"
     inkscape:cx="90.071354"
     inkscape:cy="9.796603"
     inkscape:window-x="0"
     inkscape:window-y="360"
     inkscape:window-maximized="1"
     inkscape:current-layer="svg36" />
  <g
     transform="matrix(0.36260028,0,0,0.30820736,-8.8405413,-87.05737)"
     id="g34">
    <g
       transform="matrix(1.0302,0,0,1.0302,-58.857,-41.079)"
       id="g30">
      <path
         d="m 124.25,321.02 -12.125,156.56 67.25,1.5312 c -1.2502,21.12 -12.084,43.03 -13.911,48.509 h 40.138 l -8.6652,-48.103 47.531,1.0938 -3.0312,-51.531 -41.188,6.9375 13.844,-45.027 -40.536,1.9196 c 0,0 8.7533,22.485 7.7857,46.295 l -41.938,7.0625 38.375,-124.25 -53.531,-1 z"
         id="path2"
         inkscape:connector-curvature="0"
         style="fill:#0088aa;fill-rule:evenodd;stroke:#006680;stroke-width:3" />
      <path
         d="m 185.87,351.32 c -3.1e-4,9.4842 -7.689,17.172 -17.173,17.172 -9.484,0 -17.172,-7.689 -17.172,-17.173 0,-9.484 7.689,-17.172 17.173,-17.172 9.484,0 17.172,7.689 17.172,17.173"
         id="path4"
         inkscape:connector-curvature="0"
         style="fill:#d5f6ff;stroke:#006680;stroke-width:3" />
      <path
         transform="matrix(0.83771,0,0,0.83771,-9.9973,56.512)"
         d="m 185.87,351.32 c -3.1e-4,9.4842 -7.689,17.172 -17.173,17.172 -9.484,0 -17.172,-7.689 -17.172,-17.173 0,-9.484 7.689,-17.172 17.173,-17.172 9.484,0 17.172,7.689 17.172,17.173"
         id="path6"
         inkscape:connector-curvature="0"
         style="fill:#d5f6ff;stroke:#006680;stroke-width:3" />
      <path
         d="m 105.56,375.05 h 44.952 c 0,0 -14.647,19.193 -27.274,19.193 -12.627,0 -17.173,-18.183 -17.678,-19.193 z"
         id="path8"
         inkscape:connector-curvature="0"
         style="fill:#d5f6ff;fill-rule:evenodd;stroke:#004455;stroke-width:3" />
      <path
         d="m 178.8,351.57 c -1.5e-4,4.6026 -3.7314,8.3336 -8.334,8.3335 -4.6026,-1e-4 -8.3336,-3.7314 -8.3335,-8.334 1e-4,-4.6026 3.7314,-8.3336 8.334,-8.3335 4.6026,1e-4 8.3336,3.7314 8.3335,8.334"
         id="path10"
         inkscape:connector-curvature="0"
         style="fill:#004455" />
      <path
         transform="matrix(0.80303,0,0,0.80303,-8.219,68.365)"
         d="m 178.8,351.57 c -1.5e-4,4.6026 -3.7314,8.3336 -8.334,8.3335 -4.6026,-1e-4 -8.3336,-3.7314 -8.3335,-8.334 1e-4,-4.6026 3.7314,-8.3336 8.334,-8.3335 4.6026,1e-4 8.3336,3.7314 8.3335,8.334"
         id="path12"
         inkscape:connector-curvature="0"
         style="fill:#004455" />
      <path
         d="m 174.25,350.94 c -8e-5,2.1618 -1.7526,3.9143 -3.9145,3.9142 -2.1619,-10e-5 -3.9143,-1.7526 -3.9142,-3.9145 1e-4,-2.1619 1.7526,-3.9143 3.9145,-3.9142 2.1619,10e-5 3.9143,1.7526 3.9142,3.9145"
         id="path14"
         inkscape:connector-curvature="0"
         style="fill:#00222b" />
      <path
         d="m 174.5,348.66 c -3e-5,0.90657 -0.73498,1.6415 -1.6416,1.6414 -0.90662,-10e-5 -1.6415,-0.73498 -1.6414,-1.6416 10e-5,-0.90662 0.73498,-1.6415 1.6416,-1.6414 0.90662,1e-4 1.6415,0.73497 1.6414,1.6416"
         id="path16"
         inkscape:connector-curvature="0"
         style="fill:#aaeeff" />
      <g
         transform="matrix(0.70968,0,0,0.70968,7.6576,101.51)"
         id="g22">
        <path
           d="m 174.25,350.94 c -8e-5,2.1618 -1.7526,3.9143 -3.9145,3.9142 -2.1619,-10e-5 -3.9143,-1.7526 -3.9142,-3.9145 1e-4,-2.1619 1.7526,-3.9143 3.9145,-3.9142 2.1619,10e-5 3.9143,1.7526 3.9142,3.9145"
           id="path18"
           inkscape:connector-curvature="0"
           style="fill:#00222b" />
        <path
           d="m 174.5,348.66 c -3e-5,0.90657 -0.73498,1.6415 -1.6416,1.6414 -0.90662,-10e-5 -1.6415,-0.73498 -1.6414,-1.6416 10e-5,-0.90662 0.73498,-1.6415 1.6416,-1.6414 0.90662,1e-4 1.6415,0.73497 1.6414,1.6416"
           id="path20"
           inkscape:connector-curvature="0"
           style="fill:#aaeeff" />
      </g>
      <path
         d="m 117.5,375.22 v 7.1429"
         id="path24"
         inkscape:connector-curvature="0"
         style="fill:none;stroke:#0088aa;stroke-width:3" />
      <path
         d="m 133.39,375.4 v 7.1429"
         id="path26"
         inkscape:connector-curvature="0"
         style="fill:none;stroke:#0088aa;stroke-width:3" />
      <path
         d="m 123.39,382.29 v 11.216"
         id="path28"
         inkscape:connector-curvature="0"
         style="fill:none;stroke:#0088aa;stroke-width:3" />
    </g>
    <path
       d="m 100,450.93 c 0,0 32.857,0 43.571,-11.429 10.714,-11.429 -6.4286,-22.857 -15,-20 -8.5714,2.857 -10.714,14.286 -5,17.143 5.714,2.857 13.571,0 12.857,-5.7143 -0.714,-5.7143 -8.5714,-1.4286 -8.5714,-1.4286"
       id="path32"
       inkscape:connector-curvature="0"
       style="fill:none;stroke:#006680;stroke-width:2" />
  </g>
</svg>
