<?xml version="1.0" encoding="UTF-8"?>
<svg viewBox="0 0 744.09447 1052.362179" xmlns="http://www.w3.org/2000/svg">
 <g transform="matrix(4.6603 0 0 4.6603 -1075.3 -1317.2)">
  <path transform="translate(26.25 5.7143)" d="m361.43 314.86c-2.5e-4 7.6925-6.2365 13.928-13.929 13.928s-13.928-6.2365-13.928-13.929 6.2365-13.928 13.929-13.928 13.928 6.2365 13.928 13.929" fill="#fca" stroke="#a40" stroke-width="3"/>
  <path transform="matrix(.90541 0 0 .90541 59.377 33.554)" d="m359.64 317.9c-1.2e-4 3.649-2.9583 6.607-6.6074 6.6069s-6.607-2.9583-6.6069-6.6074 2.9583-6.607 6.6074-6.6069 6.607 2.9583 6.6069 6.6074" fill="#a40"/>
  <path transform="matrix(.52312 0 0 .52312 194.47 154.95)" d="m359.64 317.9c-1.2e-4 3.649-2.9583 6.607-6.6074 6.6069s-6.607-2.9583-6.6069-6.6074 2.9583-6.607 6.6074-6.6069 6.607 2.9583 6.6069 6.6074" fill="#520"/>
  <path transform="matrix(.24144 0 0 .24144 295.77 242.63)" d="m359.64 317.9c-1.2e-4 3.649-2.9583 6.607-6.6074 6.6069s-6.607-2.9583-6.6069-6.6074 2.9583-6.607 6.6074-6.6069 6.607 2.9583 6.6069 6.6074" fill="#ffb380"/>
  <path d="m369.79 290.69 1.4286 62.262-99.24-23.093-7.7902 46.742s37.22-28.564 73.575-12.118 40.682 54.532 32.892 86.558-55.779 50.636-81.365 45.876c-37.22-6.9247-53.666-36.355-53.666-36.355l36.724-37.438s-6.9296 41.077 39.447 28.782c31.866-8.4475 28.58-31.651 15.293-48.112-18.619-23.067-62.9 10.026-62.9 10.026l-30.295-21.64 17.312-95.214 118.58-6.2773z" fill="#f60" fill-rule="evenodd" stroke="#a40" stroke-width="3.6354"/>
  <path transform="matrix(1.1157 0 0 1.1157 -42.006 -34.657)" d="m361.43 314.86c-2.5e-4 7.6925-6.2365 13.928-13.929 13.928s-13.928-6.2365-13.928-13.929 6.2365-13.928 13.929-13.928 13.928 6.2365 13.928 13.929" fill="#fca" stroke="#a40" stroke-width="3"/>
  <path transform="matrix(1.2162 0 0 1.2162 -79.546 -69.449)" d="m359.64 317.9c-1.2e-4 3.649-2.9583 6.607-6.6074 6.6069s-6.607-2.9583-6.6069-6.6074 2.9583-6.607 6.6074-6.6069 6.607 2.9583 6.6069 6.6074" fill="#a40"/>
  <path transform="matrix(.7027 0 0 .7027 101.92 93.617)" d="m359.64 317.9c-1.2e-4 3.649-2.9583 6.607-6.6074 6.6069s-6.607-2.9583-6.6069-6.6074 2.9583-6.607 6.6074-6.6069 6.607 2.9583 6.6069 6.6074" fill="#520"/>
  <path transform="matrix(.32432 0 0 .32432 238 211.4)" d="m359.64 317.9c-1.2e-4 3.649-2.9583 6.607-6.6074 6.6069s-6.607-2.9583-6.6069-6.6074 2.9583-6.607 6.6074-6.6069 6.607 2.9583 6.6069 6.6074" fill="#ffb380"/>
  <path d="m276.78 381.12s-8.5863 8.0812-3.0305 11.617 13.637-5.0508 15.657-2.0203 1.0102 9.0914 1.0102 9.0914" fill="none" stroke="#a40" stroke-width="2"/>
  <path d="m302.54 372.02s-7.5762 6.0609-3.5355 11.112 6.566-1.0102 10.102 3.0305 1.0102 8.5863 1.0102 8.5863" fill="none" stroke="#a40" stroke-width="2"/>
  <path d="m330.32 374.04s-9.0914 0.50507-8.5863 7.5761 9.0914 3.0305 8.5863 8.5863-8.0812 7.0711-8.0812 7.0711" fill="none" stroke="#a40" stroke-width="2"/>
  <path d="m330.82 407.38s11.112 0 13.132-4.0406-3.5355-6.566-1.5152-11.617 11.617-2.0203 11.617-2.0203" fill="none" stroke="#a40" stroke-width="2"/>
  <path d="m336.38 422.03s7.5761 2.5254 11.617 0 2.5254-12.122 8.5863-12.122 7.5761 8.0812 7.5761 8.0812" fill="none" stroke="#a40" stroke-width="2"/>
  <path d="m333.86 435.16s3.0304 8.5863 8.5863 6.566 9.0914-6.566 14.647-4.5457 4.0406 10.607 4.0406 10.607" fill="none" stroke="#a40" stroke-width="2"/>
  <path d="m325.27 445.77s-7.5761 10.102 1.0102 13.132 6.566-5.5558 14.647-2.5254 3.0305 11.617 3.0305 11.617" fill="none" stroke="#a40" stroke-width="2"/>
  <path d="m305.57 452.33s-10.102 7.5761-1.5152 12.627 11.617 5.0508 11.617 9.5964-12.122 6.0609-12.122 6.0609" fill="none" stroke="#a40" stroke-width="2"/>
  <path d="m286.88 451.83s-10.102 5.0508-6.566 10.607 8.5863 4.5457 6.566 9.0914-15.152 2.5254-15.152 2.5254" fill="none" stroke="#a40" stroke-width="2"/>
  <path d="m275.27 441.22s-15.152 2.0203-14.142 8.0812 5.0508 11.617 2.5254 13.637-12.122-2.5254-12.122-2.5254" fill="none" stroke="#a40" stroke-width="2"/>
  <path d="m274.76 312.93 4.5457 18.688" fill="none" stroke="#a40" stroke-width="3"/>
  <path d="m265.17 318.99c2.5254 3.5355 8.0812 10.102 8.0812 10.102" fill="none" stroke="#a40" stroke-width="3"/>
  <path d="m287.39 312.43c-1.0102 3.0305-3.0305 19.698-3.0305 19.698" fill="none" stroke="#a40" stroke-width="3"/>
 </g>
</svg>
