<?xml version="1.0" encoding="UTF-8" standalone="no"?>
<svg
   xmlns:dc="http://purl.org/dc/elements/1.1/"
   xmlns:cc="http://creativecommons.org/ns#"
   xmlns:rdf="http://www.w3.org/1999/02/22-rdf-syntax-ns#"
   xmlns:svg="http://www.w3.org/2000/svg"
   xmlns="http://www.w3.org/2000/svg"
   xmlns:sodipodi="http://sodipodi.sourceforge.net/DTD/sodipodi-0.dtd"
   xmlns:inkscape="http://www.inkscape.org/namespaces/inkscape"
   viewBox="0 0 69.999999 70.000001"
   version="1.1"
   id="svg48"
   sodipodi:docname="5.svg"
   width="70"
   height="70"
   inkscape:version="0.92.3 (2405546, 2018-03-11)">
  <metadata
     id="metadata54">
    <rdf:RDF>
      <cc:Work
         rdf:about="">
        <dc:format>image/svg+xml</dc:format>
        <dc:type
           rdf:resource="http://purl.org/dc/dcmitype/StillImage" />
        <dc:title></dc:title>
      </cc:Work>
    </rdf:RDF>
  </metadata>
  <defs
     id="defs52" />
  <sodipodi:namedview
     pagecolor="#ffffff"
     bordercolor="#666666"
     borderopacity="1"
     objecttolerance="10"
     gridtolerance="10"
     guidetolerance="10"
     inkscape:pageopacity="0"
     inkscape:pageshadow="2"
     inkscape:window-width="1920"
     inkscape:window-height="1052"
     id="namedview50"
     showgrid="false"
     inkscape:zoom="5.0743655"
     inkscape:cx="95.377216"
     inkscape:cy="17.119151"
     inkscape:window-x="0"
     inkscape:window-y="360"
     inkscape:window-maximized="1"
     inkscape:current-layer="svg48" />
  <g
     transform="matrix(0.39035719,0,0,0.30714591,-84.950019,-86.375652)"
     id="g46">
    <path
       transform="translate(26.25,5.7143)"
       d="m 361.43,314.86 c -2.5e-4,7.6925 -6.2365,13.928 -13.929,13.928 -7.6925,0 -13.928,-6.2365 -13.928,-13.929 0,-7.6925 6.2365,-13.928 13.929,-13.928 7.6925,0 13.928,6.2365 13.928,13.929"
       id="path2"
       inkscape:connector-curvature="0"
       style="fill:#ffccaa;stroke:#aa4400;stroke-width:3" />
    <path
       transform="matrix(0.90541,0,0,0.90541,59.377,33.554)"
       d="m 359.64,317.9 c -1.2e-4,3.649 -2.9583,6.607 -6.6074,6.6069 -3.6491,-10e-5 -6.607,-2.9583 -6.6069,-6.6074 10e-5,-3.6491 2.9583,-6.607 6.6074,-6.6069 3.6491,1e-4 6.607,2.9583 6.6069,6.6074"
       id="path4"
       inkscape:connector-curvature="0"
       style="fill:#aa4400" />
    <path
       transform="matrix(0.52312,0,0,0.52312,194.47,154.95)"
       d="m 359.64,317.9 c -1.2e-4,3.649 -2.9583,6.607 -6.6074,6.6069 -3.6491,-10e-5 -6.607,-2.9583 -6.6069,-6.6074 10e-5,-3.6491 2.9583,-6.607 6.6074,-6.6069 3.6491,1e-4 6.607,2.9583 6.6069,6.6074"
       id="path6"
       inkscape:connector-curvature="0"
       style="fill:#552200" />
    <path
       transform="matrix(0.24144,0,0,0.24144,295.77,242.63)"
       d="m 359.64,317.9 c -1.2e-4,3.649 -2.9583,6.607 -6.6074,6.6069 -3.6491,-10e-5 -6.607,-2.9583 -6.6069,-6.6074 10e-5,-3.6491 2.9583,-6.607 6.6074,-6.6069 3.6491,1e-4 6.607,2.9583 6.6069,6.6074"
       id="path8"
       inkscape:connector-curvature="0"
       style="fill:#ffb380" />
    <path
       d="m 369.79,290.69 1.4286,62.262 -99.24,-23.093 -7.7902,46.742 c 0,0 37.22,-28.564 73.575,-12.118 36.355,16.446 40.682,54.532 32.892,86.558 -7.79,32.026 -55.779,50.636 -81.365,45.876 -37.22,-6.9247 -53.666,-36.355 -53.666,-36.355 l 36.724,-37.438 c 0,0 -6.9296,41.077 39.447,28.782 31.866,-8.4475 28.58,-31.651 15.293,-48.112 -18.619,-23.067 -62.9,10.026 -62.9,10.026 l -30.295,-21.64 17.312,-95.214 118.58,-6.2773 z"
       id="path10"
       inkscape:connector-curvature="0"
       style="fill:#ff6600;fill-rule:evenodd;stroke:#aa4400;stroke-width:3.63540006" />
    <path
       transform="matrix(1.1157,0,0,1.1157,-42.006,-34.657)"
       d="m 361.43,314.86 c -2.5e-4,7.6925 -6.2365,13.928 -13.929,13.928 -7.6925,0 -13.928,-6.2365 -13.928,-13.929 0,-7.6925 6.2365,-13.928 13.929,-13.928 7.6925,0 13.928,6.2365 13.928,13.929"
       id="path12"
       inkscape:connector-curvature="0"
       style="fill:#ffccaa;stroke:#aa4400;stroke-width:3" />
    <path
       transform="matrix(1.2162,0,0,1.2162,-79.546,-69.449)"
       d="m 359.64,317.9 c -1.2e-4,3.649 -2.9583,6.607 -6.6074,6.6069 -3.6491,-10e-5 -6.607,-2.9583 -6.6069,-6.6074 10e-5,-3.6491 2.9583,-6.607 6.6074,-6.6069 3.6491,1e-4 6.607,2.9583 6.6069,6.6074"
       id="path14"
       inkscape:connector-curvature="0"
       style="fill:#aa4400" />
    <path
       transform="matrix(0.7027,0,0,0.7027,101.92,93.617)"
       d="m 359.64,317.9 c -1.2e-4,3.649 -2.9583,6.607 -6.6074,6.6069 -3.6491,-10e-5 -6.607,-2.9583 -6.6069,-6.6074 10e-5,-3.6491 2.9583,-6.607 6.6074,-6.6069 3.6491,1e-4 6.607,2.9583 6.6069,6.6074"
       id="path16"
       inkscape:connector-curvature="0"
       style="fill:#552200" />
    <path
       transform="matrix(0.32432,0,0,0.32432,238,211.4)"
       d="m 359.64,317.9 c -1.2e-4,3.649 -2.9583,6.607 -6.6074,6.6069 -3.6491,-10e-5 -6.607,-2.9583 -6.6069,-6.6074 10e-5,-3.6491 2.9583,-6.607 6.6074,-6.6069 3.6491,1e-4 6.607,2.9583 6.6069,6.6074"
       id="path18"
       inkscape:connector-curvature="0"
       style="fill:#ffb380" />
    <path
       d="m 276.78,381.12 c 0,0 -8.5863,8.0812 -3.0305,11.617 5.5558,3.5358 13.637,-5.0508 15.657,-2.0203 2.02,3.0305 1.0102,9.0914 1.0102,9.0914"
       id="path20"
       inkscape:connector-curvature="0"
       style="fill:none;stroke:#aa4400;stroke-width:2" />
    <path
       d="m 302.54,372.02 c 0,0 -7.5762,6.0609 -3.5355,11.112 4.0407,5.0511 6.566,-1.0102 10.102,3.0305 3.536,4.0407 1.0102,8.5863 1.0102,8.5863"
       id="path22"
       inkscape:connector-curvature="0"
       style="fill:none;stroke:#aa4400;stroke-width:2" />
    <path
       d="m 330.32,374.04 c 0,0 -9.0914,0.50507 -8.5863,7.5761 0.5051,7.07103 9.0914,3.0305 8.5863,8.5863 -0.5051,5.5558 -8.0812,7.0711 -8.0812,7.0711"
       id="path24"
       inkscape:connector-curvature="0"
       style="fill:none;stroke:#aa4400;stroke-width:2" />
    <path
       d="m 330.82,407.38 c 0,0 11.112,0 13.132,-4.0406 2.02,-4.0406 -3.5355,-6.566 -1.5152,-11.617 2.0203,-5.051 11.617,-2.0203 11.617,-2.0203"
       id="path26"
       inkscape:connector-curvature="0"
       style="fill:none;stroke:#aa4400;stroke-width:2" />
    <path
       d="m 336.38,422.03 c 0,0 7.5761,2.5254 11.617,0 4.0409,-2.5254 2.5254,-12.122 8.5863,-12.122 6.0609,0 7.5761,8.0812 7.5761,8.0812"
       id="path28"
       inkscape:connector-curvature="0"
       style="fill:none;stroke:#aa4400;stroke-width:2" />
    <path
       d="m 333.86,435.16 c 0,0 3.0304,8.5863 8.5863,6.566 5.5559,-2.0203 9.0914,-6.566 14.647,-4.5457 5.5556,2.0203 4.0406,10.607 4.0406,10.607"
       id="path30"
       inkscape:connector-curvature="0"
       style="fill:none;stroke:#aa4400;stroke-width:2" />
    <path
       d="m 325.27,445.77 c 0,0 -7.5761,10.102 1.0102,13.132 8.5863,3.03 6.566,-5.5558 14.647,-2.5254 8.081,3.0304 3.0305,11.617 3.0305,11.617"
       id="path32"
       inkscape:connector-curvature="0"
       style="fill:none;stroke:#aa4400;stroke-width:2" />
    <path
       d="m 305.57,452.33 c 0,0 -10.102,7.5761 -1.5152,12.627 8.5868,5.0509 11.617,5.0508 11.617,9.5964 0,4.5456 -12.122,6.0609 -12.122,6.0609"
       id="path34"
       inkscape:connector-curvature="0"
       style="fill:none;stroke:#aa4400;stroke-width:2" />
    <path
       d="m 286.88,451.83 c 0,0 -10.102,5.0508 -6.566,10.607 3.536,5.5562 8.5863,4.5457 6.566,9.0914 -2.0203,4.5457 -15.152,2.5254 -15.152,2.5254"
       id="path36"
       inkscape:connector-curvature="0"
       style="fill:none;stroke:#aa4400;stroke-width:2" />
    <path
       d="m 275.27,441.22 c 0,0 -15.152,2.0203 -14.142,8.0812 1.01,6.0609 5.0508,11.617 2.5254,13.637 -2.5254,2.02 -12.122,-2.5254 -12.122,-2.5254"
       id="path38"
       inkscape:connector-curvature="0"
       style="fill:none;stroke:#aa4400;stroke-width:2" />
    <path
       d="m 274.76,312.93 4.5457,18.688"
       id="path40"
       inkscape:connector-curvature="0"
       style="fill:none;stroke:#aa4400;stroke-width:3" />
    <path
       d="m 265.17,318.99 c 2.5254,3.5355 8.0812,10.102 8.0812,10.102"
       id="path42"
       inkscape:connector-curvature="0"
       style="fill:none;stroke:#aa4400;stroke-width:3" />
    <path
       d="m 287.39,312.43 c -1.0102,3.0305 -3.0305,19.698 -3.0305,19.698"
       id="path44"
       inkscape:connector-curvature="0"
       style="fill:none;stroke:#aa4400;stroke-width:3" />
  </g>
</svg>
