<?xml version="1.0" encoding="UTF-8" standalone="no"?>
<svg
   xmlns:dc="http://purl.org/dc/elements/1.1/"
   xmlns:cc="http://creativecommons.org/ns#"
   xmlns:rdf="http://www.w3.org/1999/02/22-rdf-syntax-ns#"
   xmlns:svg="http://www.w3.org/2000/svg"
   xmlns="http://www.w3.org/2000/svg"
   xmlns:sodipodi="http://sodipodi.sourceforge.net/DTD/sodipodi-0.dtd"
   xmlns:inkscape="http://www.inkscape.org/namespaces/inkscape"
   viewBox="0 0 69.999999 70.000001"
   version="1.1"
   id="svg76"
   sodipodi:docname="6.svg"
   width="70"
   height="70"
   inkscape:version="0.92.3 (2405546, 2018-03-11)">
  <metadata
     id="metadata80">
    <rdf:RDF>
      <cc:Work
         rdf:about="">
        <dc:format>image/svg+xml</dc:format>
        <dc:type
           rdf:resource="http://purl.org/dc/dcmitype/StillImage" />
        <dc:title></dc:title>
      </cc:Work>
    </rdf:RDF>
  </metadata>
  <sodipodi:namedview
     pagecolor="#ffffff"
     bordercolor="#666666"
     borderopacity="1"
     objecttolerance="10"
     gridtolerance="10"
     guidetolerance="10"
     inkscape:pageopacity="0"
     inkscape:pageshadow="2"
     inkscape:window-width="1920"
     inkscape:window-height="1052"
     id="namedview78"
     showgrid="false"
     inkscape:zoom="2.5371828"
     inkscape:cx="157.12343"
     inkscape:cy="64.927374"
     inkscape:window-x="0"
     inkscape:window-y="360"
     inkscape:window-maximized="1"
     inkscape:current-layer="svg76" />
  <defs
     id="defs14">
    <filter
       id="c">
      <feGaussianBlur
         stdDeviation="2.83208"
         id="feGaussianBlur2" />
    </filter>
    <filter
       id="a">
      <feGaussianBlur
         stdDeviation="2.58782"
         id="feGaussianBlur5" />
    </filter>
    <filter
       id="d"
       x="-0.077260002"
       y="-0.14957"
       width="1.1545"
       height="1.2991">
      <feGaussianBlur
         stdDeviation="3.4827"
         id="feGaussianBlur8" />
    </filter>
    <filter
       id="b"
       x="-0.24339999"
       y="-0.24339999"
       width="1.4868"
       height="1.4868">
      <feGaussianBlur
         stdDeviation="1.63912"
         id="feGaussianBlur11" />
    </filter>
  </defs>
  <g
     transform="matrix(0.34477371,0,0,0.31245439,-133.99184,-89.05653)"
     id="g74">
    <path
       d="m 504.53,298.35 c -10.715,0.0911 -22.553,1.9945 -33.518,7.9057 -17.342,9.3499 -59.443,30.348 -57.627,101.6 1.816,71.252 64.818,95.644 101.3,86.473 36.482,-9.171 57.731,-29.385 58.346,-61.318 0.45821,-24.882 -3.4358,-53.697 -53.576,-57.79 -59.099,-4.824 -65.369,47.075 -65.369,47.075 0,0 -5.1674,-65.831 37.013,-80.005 42.1804,-14.174 61.841,24.175 61.841,24.175 l 5.4095,-57.316 c -0.59765,0.88666 -34.485,-10.962 -53.824,-10.798 z m 20.614,125.9 c 11.948,0.0568 21.136,5.447 21.136,19.307 0,15.84 -26.39,39.077 -46.454,19.013 -20.064,-20.064 5.8024,-36.442 20.058,-38.026 1.8012,-0.20014 3.5527,-0.30213 5.2596,-0.29401 z"
       id="path16"
       inkscape:connector-curvature="0"
       style="fill:#aad400;fill-rule:evenodd;stroke:#668000;stroke-width:3.13619995" />
    <path
       d="m 532.86,383.64 c 29.895,7.7749 39.707,32.211 33.84,53.538 0,0 -5.5558,-30.81 -32.83,-40.911 -27.2742,-10.101 -55.558,4.5457 -64.65,16.162 -9.092,11.6163 -9.0914,17.173 -9.0914,17.173 0,0 0,-16.162 11.617,-29.294 16.439,-19.672 36.311,-21.716 61.114,-16.668 z"
       id="path18"
       inkscape:connector-curvature="0"
       style="fill:#e5ff80;fill-rule:evenodd;filter:url(#d)" />
    <path
       d="m 424.26,376.57 c 1.5152,-2.0203 21.213,-59.599 62.629,-64.65 41.416,-5.051 64.65,4.0406 64.65,4.0406 0,0 -24.749,-16.668 -57.579,-11.112 -32.83,5.556 -59.599,25.254 -69.701,71.721 z"
       id="path20"
       inkscape:connector-curvature="0"
       style="fill:#e5ff80;fill-rule:evenodd;filter:url(#c)" />
    <path
       transform="matrix(1.1699,0,0,1.1699,-73.369,-64.88)"
       d="m 447.14,337.72 c -2.4e-4,7.298 -5.9167,13.214 -13.215,13.214 -7.2983,0 -13.214,-5.9167 -13.214,-13.215 0,-7.2983 5.9167,-13.214 13.215,-13.214 7.2983,0 13.214,5.9167 13.214,13.215"
       id="path22"
       inkscape:connector-curvature="0"
       style="fill:#eeffaa;stroke:#445500;stroke-width:3" />
    <path
       transform="matrix(1.5097,0,0,1.5097,-191.53,-148.21)"
       d="m 447.14,337.72 c -2.4e-4,7.298 -5.9167,13.214 -13.215,13.214 -7.2983,0 -13.214,-5.9167 -13.214,-13.215 0,-7.2983 5.9167,-13.214 13.215,-13.214 7.2983,0 13.214,5.9167 13.214,13.215"
       id="path24"
       inkscape:connector-curvature="0"
       style="fill:#eeffaa;stroke:#445500;stroke-width:3" />
    <path
       transform="matrix(0.85489,0,0,0.85489,94.751,73.648)"
       d="m 447.14,337.72 c -2.4e-4,7.298 -5.9167,13.214 -13.215,13.214 -7.2983,0 -13.214,-5.9167 -13.214,-13.215 0,-7.2983 5.9167,-13.214 13.215,-13.214 7.2983,0 13.214,5.9167 13.214,13.215"
       id="path26"
       inkscape:connector-curvature="0"
       style="fill:#445500" />
    <path
       transform="matrix(0.49178,0,0,0.49178,253.07,196.02)"
       d="m 447.14,337.72 c -2.4e-4,7.298 -5.9167,13.214 -13.215,13.214 -7.2983,0 -13.214,-5.9167 -13.214,-13.215 0,-7.2983 5.9167,-13.214 13.215,-13.214 7.2983,0 13.214,5.9167 13.214,13.215"
       id="path28"
       inkscape:connector-curvature="0"
       style="fill:#222b00" />
    <path
       transform="matrix(0.22423,0,0,0.22423,372.71,282.85)"
       d="m 447.14,337.72 c -2.4e-4,7.298 -5.9167,13.214 -13.215,13.214 -7.2983,0 -13.214,-5.9167 -13.214,-13.215 0,-7.2983 5.9167,-13.214 13.215,-13.214 7.2983,0 13.214,5.9167 13.214,13.215"
       id="path30"
       inkscape:connector-curvature="0"
       style="fill:#eeffaa" />
    <path
       transform="matrix(0.60645,0,0,0.60645,173.52,126.99)"
       d="m 447.14,337.72 c -2.4e-4,7.298 -5.9167,13.214 -13.215,13.214 -7.2983,0 -13.214,-5.9167 -13.214,-13.215 0,-7.2983 5.9167,-13.214 13.215,-13.214 7.2983,0 13.214,5.9167 13.214,13.215"
       id="path32"
       inkscape:connector-curvature="0"
       style="fill:#445500" />
    <path
       transform="matrix(0.34887,0,0,0.34887,285.83,213.81)"
       d="m 447.14,337.72 c -2.4e-4,7.298 -5.9167,13.214 -13.215,13.214 -7.2983,0 -13.214,-5.9167 -13.214,-13.215 0,-7.2983 5.9167,-13.214 13.215,-13.214 7.2983,0 13.214,5.9167 13.214,13.215"
       id="path34"
       inkscape:connector-curvature="0"
       style="fill:#222b00" />
    <path
       transform="matrix(0.15907,0,0,0.15907,370.69,275.4)"
       d="m 447.14,337.72 c -2.4e-4,7.298 -5.9167,13.214 -13.215,13.214 -7.2983,0 -13.214,-5.9167 -13.214,-13.215 0,-7.2983 5.9167,-13.214 13.215,-13.214 7.2983,0 13.214,5.9167 13.214,13.215"
       id="path36"
       inkscape:connector-curvature="0"
       style="fill:#eeffaa" />
    <path
       transform="translate(6.0609,8.0812)"
       d="m 442.95,378.59 c -1.5e-4,4.4631 -3.6184,8.0811 -8.0815,8.081 -4.4631,-10e-5 -8.0811,-3.6184 -8.081,-8.0815 10e-5,-4.4631 3.6184,-8.0811 8.0815,-8.081 4.4631,10e-5 8.0811,3.6184 8.081,8.0815"
       id="path38"
       inkscape:connector-curvature="0"
       style="fill:#668000;filter:url(#b)" />
    <path
       d="m 403.82,364.72 36.346,19.129 c 0,0 -10.202,13.39 -22.955,12.753 -12.753,-0.637 -13.39,-33.157 -13.39,-31.882 z"
       id="path40"
       inkscape:connector-curvature="0"
       style="fill:#eeffaa;fill-rule:evenodd;stroke:#445500;stroke-width:2.52489996" />
    <path
       d="m 475,432.36 17.857,8.5714"
       id="path42"
       inkscape:connector-curvature="0"
       style="fill:none;stroke:#668000;stroke-width:2" />
    <path
       d="m 482.86,422.36 15.714,10.714"
       id="path44"
       inkscape:connector-curvature="0"
       style="fill:none;stroke:#668000;stroke-width:2" />
    <path
       d="m 497.14,410.93 10,15.714"
       id="path46"
       inkscape:connector-curvature="0"
       style="fill:none;stroke:#668000;stroke-width:2" />
    <path
       d="m 512.86,406.65 2.8572,16.429"
       id="path48"
       inkscape:connector-curvature="0"
       style="fill:none;stroke:#668000;stroke-width:2" />
    <path
       d="m 527.14,405.22 -2.8572,16.429"
       id="path50"
       inkscape:connector-curvature="0"
       style="fill:none;stroke:#668000;stroke-width:2" />
    <path
       d="m 537.86,408.08 -5.7143,15"
       id="path52"
       inkscape:connector-curvature="0"
       style="fill:none;stroke:#668000;stroke-width:2" />
    <path
       d="m 548.57,415.93 -10,11.429"
       id="path54"
       inkscape:connector-curvature="0"
       style="fill:none;stroke:#668000;stroke-width:2" />
    <path
       d="m 554.29,426.65 -12.143,6.4286"
       id="path56"
       inkscape:connector-curvature="0"
       style="fill:none;stroke:#668000;stroke-width:2" />
    <path
       d="m 556.43,437.36 -11.429,0.71429"
       id="path58"
       inkscape:connector-curvature="0"
       style="fill:none;stroke:#668000;stroke-width:2" />
    <path
       d="m 553.57,446.65 -7.1429,-2.8572"
       id="path60"
       inkscape:connector-curvature="0"
       style="fill:none;stroke:#668000;stroke-width:2" />
    <path
       d="m 477.14,445.93 13.571,0.71429"
       id="path62"
       inkscape:connector-curvature="0"
       style="fill:none;stroke:#668000;stroke-width:2" />
    <path
       d="m 479.29,453.79 13.571,-1.4286"
       id="path64"
       inkscape:connector-curvature="0"
       style="fill:none;stroke:#668000;stroke-width:2" />
    <path
       d="m 421.43,420.93 c 0,0 11.429,55 50,65 38.571,10 64.286,-4.2857 64.286,-4.2857 0,0 -25.714,11.429 -66.429,-3.5714 -40.715,-15.0004 -47.857,-58.571 -47.857,-57.143 z"
       id="path66"
       inkscape:connector-curvature="0"
       style="fill:#e5ff80;fill-rule:evenodd;filter:url(#a)" />
    <path
       d="m 415.71,370.93 -5,7.1429"
       id="path68"
       inkscape:connector-curvature="0"
       style="fill:none;stroke:#668000;stroke-width:3" />
    <path
       d="m 429.29,377.36 -7.1428,6.4286 v -0.71428"
       id="path70"
       inkscape:connector-curvature="0"
       style="fill:none;stroke:#668000;stroke-width:3" />
    <path
       d="m 410.71,391.65 5.7143,-12.143"
       id="path72"
       inkscape:connector-curvature="0"
       style="fill:none;stroke:#668000;stroke-width:3" />
  </g>
</svg>
