<?xml version="1.0" encoding="UTF-8"?>
<svg viewBox="0 0 744.09447 1052.362179" xmlns="http://www.w3.org/2000/svg">
 <defs>
  <filter id="c">
   <feGaussianBlur stdDeviation="2.83208"/>
  </filter>
  <filter id="a">
   <feGaussianBlur stdDeviation="2.58782"/>
  </filter>
  <filter id="d" x="-.07726" y="-.14957" width="1.1545" height="1.2991">
   <feGaussianBlur stdDeviation="3.4827"/>
  </filter>
  <filter id="b" x="-.2434" y="-.2434" width="1.4868" height="1.4868">
   <feGaussianBlur stdDeviation="1.63912"/>
  </filter>
 </defs>
 <g transform="matrix(4.217 0 0 4.217 -1684.2 -1148.6)">
  <path d="m504.53 298.35c-10.715 0.0911-22.553 1.9945-33.518 7.9057-17.342 9.3499-59.443 30.348-57.627 101.6s64.818 95.644 101.3 86.473 57.731-29.385 58.346-61.318c0.45821-24.882-3.4358-53.697-53.576-57.79-59.099-4.824-65.369 47.075-65.369 47.075s-5.1674-65.831 37.013-80.005 61.841 24.175 61.841 24.175l5.4095-57.316c-0.59765 0.88666-34.485-10.962-53.824-10.798zm20.614 125.9c11.948 0.0568 21.136 5.447 21.136 19.307 0 15.84-26.39 39.077-46.454 19.013s5.8024-36.442 20.058-38.026c1.8012-0.20014 3.5527-0.30213 5.2596-0.29401z" fill="#aad400" fill-rule="evenodd" stroke="#668000" stroke-width="3.1362"/>
  <path d="m532.86 383.64c29.895 7.7749 39.707 32.211 33.84 53.538 0 0-5.5558-30.81-32.83-40.911s-55.558 4.5457-64.65 16.162-9.0914 17.173-9.0914 17.173 0-16.162 11.617-29.294c16.439-19.672 36.311-21.716 61.114-16.668z" fill="#e5ff80" fill-rule="evenodd" filter="url(#d)"/>
  <path d="m424.26 376.57c1.5152-2.0203 21.213-59.599 62.629-64.65s64.65 4.0406 64.65 4.0406-24.749-16.668-57.579-11.112-59.599 25.254-69.701 71.721z" fill="#e5ff80" fill-rule="evenodd" filter="url(#c)"/>
  <path transform="matrix(1.1699 0 0 1.1699 -73.369 -64.88)" d="m447.14 337.72c-2.4e-4 7.298-5.9167 13.214-13.215 13.214s-13.214-5.9167-13.214-13.215 5.9167-13.214 13.215-13.214 13.214 5.9167 13.214 13.215" fill="#efa" stroke="#450" stroke-width="3"/>
  <path transform="matrix(1.5097 0 0 1.5097 -191.53 -148.21)" d="m447.14 337.72c-2.4e-4 7.298-5.9167 13.214-13.215 13.214s-13.214-5.9167-13.214-13.215 5.9167-13.214 13.215-13.214 13.214 5.9167 13.214 13.215" fill="#efa" stroke="#450" stroke-width="3"/>
  <path transform="matrix(.85489 0 0 .85489 94.751 73.648)" d="m447.14 337.72c-2.4e-4 7.298-5.9167 13.214-13.215 13.214s-13.214-5.9167-13.214-13.215 5.9167-13.214 13.215-13.214 13.214 5.9167 13.214 13.215" fill="#450"/>
  <path transform="matrix(.49178 0 0 .49178 253.07 196.02)" d="m447.14 337.72c-2.4e-4 7.298-5.9167 13.214-13.215 13.214s-13.214-5.9167-13.214-13.215 5.9167-13.214 13.215-13.214 13.214 5.9167 13.214 13.215" fill="#222b00"/>
  <path transform="matrix(.22423 0 0 .22423 372.71 282.85)" d="m447.14 337.72c-2.4e-4 7.298-5.9167 13.214-13.215 13.214s-13.214-5.9167-13.214-13.215 5.9167-13.214 13.215-13.214 13.214 5.9167 13.214 13.215" fill="#efa"/>
  <path transform="matrix(.60645 0 0 .60645 173.52 126.99)" d="m447.14 337.72c-2.4e-4 7.298-5.9167 13.214-13.215 13.214s-13.214-5.9167-13.214-13.215 5.9167-13.214 13.215-13.214 13.214 5.9167 13.214 13.215" fill="#450"/>
  <path transform="matrix(.34887 0 0 .34887 285.83 213.81)" d="m447.14 337.72c-2.4e-4 7.298-5.9167 13.214-13.215 13.214s-13.214-5.9167-13.214-13.215 5.9167-13.214 13.215-13.214 13.214 5.9167 13.214 13.215" fill="#222b00"/>
  <path transform="matrix(.15907 0 0 .15907 370.69 275.4)" d="m447.14 337.72c-2.4e-4 7.298-5.9167 13.214-13.215 13.214s-13.214-5.9167-13.214-13.215 5.9167-13.214 13.215-13.214 13.214 5.9167 13.214 13.215" fill="#efa"/>
  <path transform="translate(6.0609 8.0812)" d="m442.95 378.59c-1.5e-4 4.4631-3.6184 8.0811-8.0815 8.081s-8.0811-3.6184-8.081-8.0815 3.6184-8.0811 8.0815-8.081 8.0811 3.6184 8.081 8.0815" fill="#668000" filter="url(#b)"/>
  <path d="m403.82 364.72 36.346 19.129s-10.202 13.39-22.955 12.753-13.39-33.157-13.39-31.882z" fill="#efa" fill-rule="evenodd" stroke="#450" stroke-width="2.5249"/>
  <path d="m475 432.36 17.857 8.5714" fill="none" stroke="#668000" stroke-width="2"/>
  <path d="m482.86 422.36 15.714 10.714" fill="none" stroke="#668000" stroke-width="2"/>
  <path d="m497.14 410.93 10 15.714" fill="none" stroke="#668000" stroke-width="2"/>
  <path d="m512.86 406.65 2.8572 16.429" fill="none" stroke="#668000" stroke-width="2"/>
  <path d="m527.14 405.22-2.8572 16.429" fill="none" stroke="#668000" stroke-width="2"/>
  <path d="m537.86 408.08-5.7143 15" fill="none" stroke="#668000" stroke-width="2"/>
  <path d="m548.57 415.93-10 11.429" fill="none" stroke="#668000" stroke-width="2"/>
  <path d="m554.29 426.65-12.143 6.4286" fill="none" stroke="#668000" stroke-width="2"/>
  <path d="m556.43 437.36-11.429 0.71429" fill="none" stroke="#668000" stroke-width="2"/>
  <path d="m553.57 446.65-7.1429-2.8572" fill="none" stroke="#668000" stroke-width="2"/>
  <path d="m477.14 445.93 13.571 0.71429" fill="none" stroke="#668000" stroke-width="2"/>
  <path d="m479.29 453.79 13.571-1.4286" fill="none" stroke="#668000" stroke-width="2"/>
  <path d="m421.43 420.93s11.429 55 50 65 64.286-4.2857 64.286-4.2857-25.714 11.429-66.429-3.5714-47.857-58.571-47.857-57.143z" fill="#e5ff80" fill-rule="evenodd" filter="url(#a)"/>
  <path d="m415.71 370.93-5 7.1429" fill="none" stroke="#668000" stroke-width="3"/>
  <path d="m429.29 377.36-7.1428 6.4286v-0.71428" fill="none" stroke="#668000" stroke-width="3"/>
  <path d="m410.71 391.65 5.7143-12.143" fill="none" stroke="#668000" stroke-width="3"/>
 </g>
</svg>
