<?xml version="1.0" encoding="UTF-8" standalone="no"?>
<svg
   xmlns:dc="http://purl.org/dc/elements/1.1/"
   xmlns:cc="http://creativecommons.org/ns#"
   xmlns:rdf="http://www.w3.org/1999/02/22-rdf-syntax-ns#"
   xmlns:svg="http://www.w3.org/2000/svg"
   xmlns="http://www.w3.org/2000/svg"
   xmlns:sodipodi="http://sodipodi.sourceforge.net/DTD/sodipodi-0.dtd"
   xmlns:inkscape="http://www.inkscape.org/namespaces/inkscape"
   viewBox="0 0 69.999999 70.000001"
   version="1.1"
   id="svg50"
   sodipodi:docname="7.svg"
   width="70"
   height="70"
   inkscape:version="0.92.3 (2405546, 2018-03-11)">
  <metadata
     id="metadata56">
    <rdf:RDF>
      <cc:Work
         rdf:about="">
        <dc:format>image/svg+xml</dc:format>
        <dc:type
           rdf:resource="http://purl.org/dc/dcmitype/StillImage" />
        <dc:title></dc:title>
      </cc:Work>
    </rdf:RDF>
  </metadata>
  <defs
     id="defs54" />
  <sodipodi:namedview
     pagecolor="#ffffff"
     bordercolor="#666666"
     borderopacity="1"
     objecttolerance="10"
     gridtolerance="10"
     guidetolerance="10"
     inkscape:pageopacity="0"
     inkscape:pageshadow="2"
     inkscape:window-width="1920"
     inkscape:window-height="1052"
     id="namedview52"
     showgrid="false"
     inkscape:zoom="7.1762366"
     inkscape:cx="52.261473"
     inkscape:cy="19.318923"
     inkscape:window-x="0"
     inkscape:window-y="360"
     inkscape:window-maximized="1"
     inkscape:current-layer="svg50" />
  <g
     transform="matrix(0.23931361,0,0,0.27491022,6.3066121,-146.96645)"
     id="g48">
    <path
       d="m 34.37,556.97 c 0,20.048 6.6828,76.852 6.6828,76.852 l 120.29,-33.414 -43.438,180.44 76.852,-3.3414 -5.0121,-222.2 -155.38,1.6707 z"
       id="path2"
       inkscape:connector-curvature="0"
       style="fill:#ffb200;fill-rule:evenodd;stroke:#aa8800;stroke-width:3" />
    <path
       transform="translate(47.143,-17.143)"
       d="m 170,603.08 c -4.3e-4,13.018 -10.554,23.571 -23.572,23.571 -13.018,0 -23.571,-10.554 -23.571,-23.572 0,-13.018 10.554,-23.571 23.572,-23.571 13.018,0 23.571,10.554 23.571,23.572"
       id="path4"
       inkscape:connector-curvature="0"
       style="fill:#ffeeaa;stroke:#aa8800;stroke-width:3" />
    <path
       transform="matrix(0.80057,0,0,0.80057,32.774,76.7)"
       d="m 170,603.08 c -4.3e-4,13.018 -10.554,23.571 -23.572,23.571 -13.018,0 -23.571,-10.554 -23.571,-23.572 0,-13.018 10.554,-23.571 23.572,-23.571 13.018,0 23.571,10.554 23.571,23.572"
       id="path6"
       inkscape:connector-curvature="0"
       style="fill:#ffeeaa;stroke:#aa8800;stroke-width:3" />
    <path
       d="m 49.286,589.51 c -7.3e-5,2.7614 -1.759,4.9999 -3.9287,4.9998 -2.1697,-1e-4 -3.9285,-2.2388 -3.9284,-5.0002 1e-4,-2.7614 1.759,-4.9999 3.9287,-4.9998 2.1697,10e-5 3.9285,2.2387 3.9284,5.0002"
       id="path8"
       inkscape:connector-curvature="0"
       style="fill:#806600" />
    <path
       d="m 61.429,586.29 c -7.9e-5,4.1421 -1.9189,7.4999 -4.2859,7.4998 -2.367,-10e-5 -4.2856,-3.3581 -4.2856,-7.5002 0,-4.1421 1.9189,-7.4999 4.2859,-7.4998 2.367,10e-5 4.2856,3.3581 4.2856,7.5002"
       id="path10"
       inkscape:connector-curvature="0"
       style="fill:#806600" />
    <path
       d="m 207.86,588.79 c -2.3e-4,7.1008 -5.7568,12.857 -12.858,12.857 -7.1012,0 -12.857,-5.7568 -12.857,-12.858 0,-7.1012 5.7568,-12.857 12.858,-12.857 7.1012,0 12.857,5.7568 12.857,12.858"
       id="path12"
       inkscape:connector-curvature="0"
       style="fill:#806600" />
    <path
       d="m 161.43,559.15 c -1.8e-4,5.3256 -4.3176,9.6427 -9.6432,9.6425 -5.3256,-2e-4 -9.6427,-4.3176 -9.6425,-9.6432 2e-4,-5.3256 4.3176,-9.6427 9.6432,-9.6425 5.3256,2e-4 9.6427,4.3176 9.6425,9.6432"
       id="path14"
       inkscape:connector-curvature="0"
       style="fill:#806600" />
    <path
       d="m 200.71,587.36 c -9e-5,2.7614 -2.2387,4.9999 -5.0002,4.9998 -2.7615,-10e-5 -4.9999,-2.2387 -4.9998,-5.0002 1e-4,-2.7615 2.2387,-4.9999 5.0002,-4.9998 2.7615,1e-4 4.9999,2.2388 4.9998,5.0002"
       id="path16"
       inkscape:connector-curvature="0"
       style="fill:#2b2200" />
    <path
       d="m 156.43,558.79 c -8e-5,2.3669 -1.9189,4.2856 -4.2859,4.2856 -2.367,0 -4.2856,-1.9189 -4.2856,-4.2859 0,-2.367 1.9189,-4.2856 4.2859,-4.2856 2.367,0 4.2856,1.9189 4.2856,4.2858"
       id="path18"
       inkscape:connector-curvature="0"
       style="fill:#2b2200" />
    <path
       transform="matrix(1.75,0,0,1.75,-147.59,-436.5)"
       d="m 199.64,583.43 c -3e-5,0.78898 -0.63964,1.4286 -1.4286,1.4285 -0.78896,-1e-4 -1.4286,-0.63965 -1.4285,-1.4286 10e-5,-0.78895 0.63964,-1.4286 1.4286,-1.4285 0.78896,10e-5 1.4286,0.63964 1.4285,1.4286"
       id="path20"
       inkscape:connector-curvature="0"
       style="fill:#ffeeaa" />
    <path
       d="m 156.43,555.22 c -4e-5,1.1835 -0.95946,2.1428 -2.1429,2.1428 -1.18344,0 -2.1428,-0.95946 -2.1428,-2.1429 0,-1.18344 0.95947,-2.1428 2.1429,-2.1428 1.18343,0 2.1428,0.95946 2.1428,2.1429"
       id="path22"
       inkscape:connector-curvature="0"
       style="fill:#ffeeaa" />
    <path
       d="m 109.29,597.72 5.7143,16.071"
       id="path24"
       inkscape:connector-curvature="0"
       style="fill:none;stroke:#aa8800;stroke-width:2" />
    <path
       d="m 118.57,599.15 3.9286,11.429"
       id="path26"
       inkscape:connector-curvature="0"
       style="fill:none;stroke:#aa8800;stroke-width:2" />
    <path
       d="m 125,590.93 c 0,1.7857 5,17.143 5,17.143"
       id="path28"
       inkscape:connector-curvature="0"
       style="fill:none;stroke:#aa8800;stroke-width:2" />
    <path
       d="m 134.64,596.65 3.9286,9.2857"
       id="path30"
       inkscape:connector-curvature="0"
       style="fill:none;stroke:#aa8800;stroke-width:2" />
    <path
       d="m 143.57,593.43 3.5714,9.2857"
       id="path32"
       inkscape:connector-curvature="0"
       style="fill:none;stroke:#aa8800;stroke-width:2" />
    <path
       d="m 97.5,602.72 c 0.71429,1.4286 5,12.5 5,12.5"
       id="path34"
       inkscape:connector-curvature="0"
       style="fill:none;stroke:#aa8800;stroke-width:2" />
    <path
       d="m 81.822,595.27 c 0,0 14.142,21.213 -7.0711,29.294"
       id="path36"
       inkscape:connector-curvature="0"
       style="fill:none;stroke:#806600;stroke-width:3" />
    <path
       d="m 184.35,638.7 c 0,0 0.50508,-16.162 -6.0609,-14.142 -6.56598,2.02 -4.5457,9.0914 -10.607,15.657 -6.0613,6.5656 -1.0102,21.718 7.5762,18.688 8.5864,-3.03 2.5254,-5.0508 5.0508,-8.5863 2.5254,-3.5355 4.5457,-11.112 4.0406,-11.617 z"
       id="path38"
       inkscape:connector-curvature="0"
       style="fill:#aa8800;fill-rule:evenodd" />
    <path
       d="m 150.51,676.08 c 0,0 1.5152,-8.0812 9.5964,-0.50508 8.0812,7.57612 2.5254,11.617 1.5152,19.698 -1.0102,8.081 7.0711,11.617 1.5152,20.708 -5.5559,9.091 4.0406,15.657 -15.152,10.607 -19.1926,-5.05 -6.0609,-20.708 -6.0609,-20.708 l 8.5863,-29.8 z"
       id="path40"
       inkscape:connector-curvature="0"
       style="fill:#aa8800;fill-rule:evenodd" />
    <path
       d="m 184.35,683.15 c 0,0 2.0203,-6.566 1.0102,-10.607 -1.0101,-4.041 2.0203,-8.0812 -8.5863,-6.566 -10.6066,1.5152 -13.132,4.0406 -9.5964,9.0914 3.5356,5.0508 1.0102,6.0609 1.0102,12.627 0,6.5661 4.0406,20.708 10.102,16.162 6.0614,-4.546 3.5355,-5.0508 4.0406,-9.5964 0.5051,-4.5456 1.5152,-11.112 2.0203,-11.112 z"
       id="path42"
       inkscape:connector-curvature="0"
       style="fill:#aa8800;fill-rule:evenodd" />
    <path
       d="m 180.82,766.99 c 1.5152,-3.0305 8.5863,-9.5964 8.0812,-19.698 -0.5051,-10.1016 -4.0406,-12.122 -5.5558,-18.183 -1.5152,-6.061 6.0609,-6.0609 1.0102,-13.132 -5.0507,-7.0711 -13.637,-14.142 -14.142,-6.566 -0.505,7.576 5.0508,3.0305 -1.0102,13.132 -6.061,10.1015 -6.0609,4.0406 -10.102,15.657 -4.0411,11.6164 -1.0102,11.617 0.50507,16.162 1.51527,4.545 -6.566,10.102 -0.50507,14.647 6.06093,4.545 22.223,-0.50507 21.718,-2.0203 z"
       id="path44"
       inkscape:connector-curvature="0"
       style="fill:#aa8800;fill-rule:evenodd" />
    <path
       d="m 135.36,731.13 c 2.0203,0 6.566,-6.566 11.617,-0.50507 5.051,6.06093 0.50507,9.5964 4.0406,14.647 3.53553,5.0506 8.5863,6.566 2.5254,13.132 -6.0609,6.566 -7.5762,6.0609 -9.0914,11.112 -1.5152,5.0511 -8.0812,7.0711 -14.142,6.566 -6.0608,-0.5051 -8.0812,-9.0914 -1.5152,-13.132 6.566,-4.0406 6.566,-7.0711 5.0508,-14.142 -1.5152,-7.0709 1.0102,-17.678 1.5152,-17.678 z"
       id="path46"
       inkscape:connector-curvature="0"
       style="fill:#aa8800;fill-rule:evenodd" />
  </g>
</svg>
