<?xml version="1.0" encoding="UTF-8"?>
<svg viewBox="0 0 744.09447 1052.362179" xmlns="http://www.w3.org/2000/svg">
 <g transform="matrix(3.9767 0 0 3.9767 -124.82 -2117.3)">
  <path d="m34.37 556.97c0 20.048 6.6828 76.852 6.6828 76.852l120.29-33.414-43.438 180.44 76.852-3.3414-5.0121-222.2-155.38 1.6707z" fill="#ffb200" fill-rule="evenodd" stroke="#a80" stroke-width="3"/>
  <path transform="translate(47.143 -17.143)" d="m170 603.08c-4.3e-4 13.018-10.554 23.571-23.572 23.571s-23.571-10.554-23.571-23.572 10.554-23.571 23.572-23.571 23.571 10.554 23.571 23.572" fill="#fea" stroke="#a80" stroke-width="3"/>
  <path transform="matrix(.80057 0 0 .80057 32.774 76.7)" d="m170 603.08c-4.3e-4 13.018-10.554 23.571-23.572 23.571s-23.571-10.554-23.571-23.572 10.554-23.571 23.572-23.571 23.571 10.554 23.571 23.572" fill="#fea" stroke="#a80" stroke-width="3"/>
  <path d="m49.286 589.51c-7.3e-5 2.7614-1.759 4.9999-3.9287 4.9998s-3.9285-2.2388-3.9284-5.0002 1.759-4.9999 3.9287-4.9998 3.9285 2.2387 3.9284 5.0002" fill="#806600"/>
  <path d="m61.429 586.29c-7.9e-5 4.1421-1.9189 7.4999-4.2859 7.4998s-4.2856-3.3581-4.2856-7.5002 1.9189-7.4999 4.2859-7.4998 4.2856 3.3581 4.2856 7.5002" fill="#806600"/>
  <path d="m207.86 588.79c-2.3e-4 7.1008-5.7568 12.857-12.858 12.857s-12.857-5.7568-12.857-12.858 5.7568-12.857 12.858-12.857 12.857 5.7568 12.857 12.858" fill="#806600"/>
  <path d="m161.43 559.15c-1.8e-4 5.3256-4.3176 9.6427-9.6432 9.6425s-9.6427-4.3176-9.6425-9.6432 4.3176-9.6427 9.6432-9.6425 9.6427 4.3176 9.6425 9.6432" fill="#806600"/>
  <path d="m200.71 587.36c-9e-5 2.7614-2.2387 4.9999-5.0002 4.9998s-4.9999-2.2387-4.9998-5.0002 2.2387-4.9999 5.0002-4.9998 4.9999 2.2388 4.9998 5.0002" fill="#2b2200"/>
  <path d="m156.43 558.79c-8e-5 2.3669-1.9189 4.2856-4.2859 4.2856s-4.2856-1.9189-4.2856-4.2859 1.9189-4.2856 4.2859-4.2856 4.2856 1.9189 4.2856 4.2858" fill="#2b2200"/>
  <path transform="matrix(1.75 0 0 1.75 -147.59 -436.5)" d="m199.64 583.43c-3e-5 0.78898-0.63964 1.4286-1.4286 1.4285s-1.4286-0.63965-1.4285-1.4286 0.63964-1.4286 1.4286-1.4285 1.4286 0.63964 1.4285 1.4286" fill="#fea"/>
  <path d="m156.43 555.22c-4e-5 1.1835-0.95946 2.1428-2.1429 2.1428s-2.1428-0.95946-2.1428-2.1429 0.95947-2.1428 2.1429-2.1428 2.1428 0.95946 2.1428 2.1429" fill="#fea"/>
  <path d="m109.29 597.72 5.7143 16.071" fill="none" stroke="#a80" stroke-width="2"/>
  <path d="m118.57 599.15 3.9286 11.429" fill="none" stroke="#a80" stroke-width="2"/>
  <path d="m125 590.93c0 1.7857 5 17.143 5 17.143" fill="none" stroke="#a80" stroke-width="2"/>
  <path d="m134.64 596.65 3.9286 9.2857" fill="none" stroke="#a80" stroke-width="2"/>
  <path d="m143.57 593.43 3.5714 9.2857" fill="none" stroke="#a80" stroke-width="2"/>
  <path d="m97.5 602.72c0.71429 1.4286 5 12.5 5 12.5" fill="none" stroke="#a80" stroke-width="2"/>
  <path d="m81.822 595.27s14.142 21.213-7.0711 29.294" fill="none" stroke="#806600" stroke-width="3"/>
  <path d="m184.35 638.7s0.50508-16.162-6.0609-14.142-4.5457 9.0914-10.607 15.657-1.0102 21.718 7.5762 18.688 2.5254-5.0508 5.0508-8.5863 4.5457-11.112 4.0406-11.617z" fill="#a80" fill-rule="evenodd"/>
  <path d="m150.51 676.08s1.5152-8.0812 9.5964-0.50508 2.5254 11.617 1.5152 19.698 7.0711 11.617 1.5152 20.708 4.0406 15.657-15.152 10.607-6.0609-20.708-6.0609-20.708l8.5863-29.8z" fill="#a80" fill-rule="evenodd"/>
  <path d="m184.35 683.15s2.0203-6.566 1.0102-10.607 2.0203-8.0812-8.5863-6.566-13.132 4.0406-9.5964 9.0914 1.0102 6.0609 1.0102 12.627 4.0406 20.708 10.102 16.162 3.5355-5.0508 4.0406-9.5964 1.5152-11.112 2.0203-11.112z" fill="#a80" fill-rule="evenodd"/>
  <path d="m180.82 766.99c1.5152-3.0305 8.5863-9.5964 8.0812-19.698s-4.0406-12.122-5.5558-18.183 6.0609-6.0609 1.0102-13.132-13.637-14.142-14.142-6.566 5.0508 3.0305-1.0102 13.132-6.0609 4.0406-10.102 15.657-1.0102 11.617 0.50507 16.162-6.566 10.102-0.50507 14.647 22.223-0.50507 21.718-2.0203z" fill="#a80" fill-rule="evenodd"/>
  <path d="m135.36 731.13c2.0203 0 6.566-6.566 11.617-0.50507s0.50507 9.5964 4.0406 14.647 8.5863 6.566 2.5254 13.132-7.5762 6.0609-9.0914 11.112-8.0812 7.0711-14.142 6.566-8.0812-9.0914-1.5152-13.132 6.566-7.0711 5.0508-14.142 1.0102-17.678 1.5152-17.678z" fill="#a80" fill-rule="evenodd"/>
 </g>
</svg>
