<?xml version="1.0" encoding="UTF-8"?>
<svg viewBox="0 0 744.09447 1052.362179" xmlns="http://www.w3.org/2000/svg">
 <defs>
  <filter id="c">
   <feGaussianBlur stdDeviation="2.68098"/>
  </filter>
  <filter id="d" x="-.24643" y="-.08566" width="1.4928" height="1.1713">
   <feGaussianBlur stdDeviation="2.68098"/>
  </filter>
  <filter id="b" x="-.38402" y="-.18893" width="1.768" height="1.3778">
   <feGaussianBlur stdDeviation="3.31744"/>
  </filter>
  <filter id="a" x="-.22601" y="-.11123" width="1.452" height="1.2225">
   <feGaussianBlur stdDeviation="3.31744"/>
  </filter>
 </defs>
 <g transform="matrix(4.4538 0 0 4.4538 -1059.6 -2416.5)">
  <path d="m327.06 546.04c-20.039 0.33881-57.084 12.945-60.889 49.47s24.335 42.612 24.335 42.612-43.368 9.1264-41.846 68.479 30.401 70.102 68.479 69.245c46.034-1.058 70.785-18.281 77.634-66.981s-41.851-72.274-37.286-72.274 25.867-19.037 20.54-50.236-30.928-40.654-50.968-40.315zm11.086 38.717c7.0267 0.0713 9.4498 2.9439 14.015 9.2215 6.0874 8.3702 3.7856 13.678-3.0627 23.57s-28.154 9.1549-31.959-6.8246 12.184-25.134 12.184-25.134c3.6144-0.5707 6.4798-0.85604 8.822-0.83226zm-13.259 95.744c25.726-6.3667 24.972 11.45 30.887 26.1 5.6064 13.883 0.75507 22.149-7.7959 32.509-9.2703 11.232-44.526 16.181-45.287-12.735-4.9714-32.774-3.5302-39.508 22.195-45.874z" fill="#bc5fd3" fill-rule="evenodd" stroke="#ab37c8" stroke-width="3.1959"/>
  <path d="m290.71 633.79c-2.1429-2.8571-26.429-12.143-17.857-42.143s24.286-32.857 24.286-32.857-20.714 24.286-18.571 44.286 13.571 32.143 12.143 30.714z" fill="#cd87de" fill-rule="evenodd" filter="url(#d)"/>
  <path d="m289.29 648.08c-1.4286 2.8571-22.857 27.857-20 60 4.1342 42.745 24.877 53.474 60 61.429 0 0-35 7.8571-52.857-9.2857s-20.714-44.286-17.857-68.571 13.571-35 30.714-43.571z" fill="#cd87de" fill-rule="evenodd" filter="url(#c)"/>
  <path d="m345.71 580.93s15.714 10 15.714 20.714-10 21.429-10 21.429 14.286-5 15-22.143-19.286-20-20.714-20z" fill="#ab37c8" fill-rule="evenodd" filter="url(#b)"/>
  <path d="m335.71 673.79s11.429-0.71428 20 17.143 8.5714 33.571 6.4286 37.857-13.571 16.429-13.571 16.429 25-11.429 22.143-37.857-20-35-35-33.571z" fill="#ab37c8" fill-rule="evenodd" filter="url(#a)"/>
  <path d="m327.14 662.01c-2.9e-4 8.4815-6.8761 15.357-15.358 15.357s-15.357-6.8761-15.357-15.358 6.8761-15.357 15.358-15.357 15.357 6.8761 15.357 15.358" fill="#f6d5ff" stroke="#672178" stroke-width="3"/>
  <path transform="matrix(1.4144 0 0 1.4144 -150.44 -270.72)" d="m365 655.93c-2.1e-4 6.3118-5.1171 11.428-11.429 11.428s-11.428-5.1171-11.428-11.429 5.1171-11.428 11.429-11.428 11.428 5.1171 11.428 11.429" fill="#f6d5ff" stroke="#672178" stroke-width="2.1211"/>
  <path d="m361.79 656.47c-1.5e-4 4.6352-3.7579 8.3927-8.3931 8.3926s-8.3927-3.7579-8.3926-8.3931 3.7579-8.3927 8.3931-8.3926 8.3927 3.7579 8.3926 8.3931" fill="#672178"/>
  <path d="m323.57 662.72c-1.6e-4 4.9311-3.9978 8.9284-8.9289 8.9283s-8.9284-3.9978-8.9283-8.9289 3.9978-8.9284 8.9289-8.9283 8.9284 3.9978 8.9283 8.9289" fill="#672178"/>
  <path d="m357.86 655.58c-8e-5 2.3669-1.9189 4.2856-4.2859 4.2856s-4.2856-1.9189-4.2856-4.2859 1.9189-4.2856 4.2858-4.2856 4.2856 1.9189 4.2856 4.2859" fill="#441650"/>
  <path d="m320 663.26c-9e-5 2.6628-2.1588 4.8214-4.8216 4.8213s-4.8214-2.1588-4.8213-4.8216 2.1588-4.8214 4.8216-4.8213 4.8214 2.1588 4.8213 4.8216" fill="#441650"/>
  <path d="m357.86 653.43c-4e-5 1.1835-0.95946 2.1428-2.1429 2.1428s-2.1428-0.95946-2.1428-2.1429 0.95946-2.1428 2.1429-2.1428 2.1428 0.95946 2.1428 2.1429" fill="#ddafe9"/>
  <path d="m319.29 659.33c-4e-5 1.2821-1.0394 2.3214-2.3215 2.3214s-2.3214-1.0394-2.3214-2.3215 1.0394-2.3214 2.3215-2.3214 2.3214 1.0394 2.3214 2.3215" fill="#ddafe9"/>
  <path d="m300.71 575.93c-1.2e-4 4.7339-3.0383 8.5713-6.7859 8.5711s-6.7856-3.8378-6.7855-8.5717 3.0383-8.5713 6.7859-8.5711 6.7856 3.8378 6.7855 8.5717" fill="#ddafe9"/>
  <path d="m298.57 605.93c-2.3e-4 6.3118-5.5969 11.428-12.5 11.428s-12.5-5.1171-12.5-11.429 5.5969-11.428 12.5-11.428 12.5 5.1171 12.5 11.429" fill="#ddafe9"/>
  <path d="m312.14 590.93c-9e-5 2.7614-2.0788 4.9999-4.643 4.9998s-4.6428-2.2387-4.6427-5.0002 2.0788-4.9999 4.643-4.9998 4.6428 2.2388 4.6427 5.0002" fill="#ddafe9"/>
  <path d="m315 623.08c-1.4e-4 3.9449-3.3581 7.1428-7.5002 7.1426s-7.4999-3.1982-7.4998-7.1431 3.3581-7.1428 7.5002-7.1426 7.4999 3.1982 7.4998 7.1431" fill="#ddafe9"/>
  <path d="m310 560.22c-7e-5 1.578-1.759 2.8571-3.9287 2.857s-3.9285-1.2793-3.9284-2.8572 1.759-2.8571 3.9287-2.857 3.9285 1.2793 3.9284 2.8572" fill="#ddafe9"/>
  <path d="m342.86 562.01c-2.3e-4 6.1146-5.5969 11.071-12.5 11.071s-12.5-4.9572-12.5-11.072 5.5968-11.071 12.5-11.071 12.5 4.9572 12.5 11.072" fill="#ddafe9"/>
  <path d="m317.14 571.65c-9e-5 2.7614-2.2387 4.9999-5.0002 4.9998s-4.9999-2.2387-4.9998-5.0002 2.2388-4.9999 5.0002-4.9998 4.9999 2.2387 4.9998 5.0002" fill="#ddafe9"/>
  <path d="m329.29 579.15c-6e-5 1.7752-1.5991 3.2142-3.5715 3.2142s-3.5714-1.4392-3.5713-3.2144 1.5991-3.2142 3.5715-3.2142 3.5714 1.4392 3.5713 3.2144" fill="#ddafe9"/>
  <path d="m347.14 576.65c-8e-5 2.3669-1.9189 4.2856-4.2859 4.2856s-4.2856-1.9189-4.2856-4.2858 1.9189-4.2856 4.2859-4.2856 4.2856 1.9189 4.2856 4.2859" fill="#ddafe9"/>
  <path d="m365 565.93c-1.5e-4 3.9449-3.6779 7.1428-8.2146 7.1426s-8.2142-3.1982-8.214-7.1431 3.6779-7.1428 8.2146-7.1426 8.2142 3.1982 8.214 7.1431" fill="#ddafe9"/>
  <path d="m360.71 580.22c-4e-5 1.578-1.1194 2.8571-2.5001 2.857s-2.5-1.2793-2.4999-2.8572 1.1194-2.8571 2.5001-2.857 2.5 1.2793 2.4999 2.8572" fill="#ddafe9"/>
  <path d="m374.29 593.08c-1.3e-4 3.1559-3.1982 5.7142-7.1431 5.7141s-7.1428-2.5586-7.1426-5.7145 3.1982-5.7142 7.1431-5.7141 7.1428 2.5586 7.1426 5.7145" fill="#ddafe9"/>
  <path d="m367.86 605.93c-5e-5 1.1835-1.2793 2.1428-2.8572 2.1428s-2.8571-0.95946-2.857-2.1429 1.2793-2.1428 2.8572-2.1428 2.8571 0.95946 2.857 2.1429" fill="#ddafe9"/>
  <path d="m364.29 618.08c-1.1e-4 2.7614-2.5586 4.9999-5.7145 4.9998s-5.7142-2.2388-5.7141-5.0002 2.5586-4.9999 5.7145-4.9998 5.7142 2.2387 5.7141 5.0002" fill="#ddafe9"/>
  <path d="m355 628.08c-7e-5 1.9724-1.5991 3.5714-3.5716 3.5713s-3.5714-1.5991-3.5713-3.5716 1.5991-3.5714 3.5716-3.5713 3.5714 1.5991 3.5713 3.5716" fill="#ddafe9"/>
  <path d="m295 625.93c-8e-5 1.9724-1.9189 3.5714-4.2859 3.5713s-4.2856-1.5991-4.2856-3.5716 1.9189-3.5714 4.2859-3.5713 4.2856 1.5991 4.2856 3.5715" fill="#ddafe9"/>
  <path d="m312.86 605.22c-7e-5 1.9724-1.759 3.5714-3.9287 3.5713s-3.9285-1.5991-3.9284-3.5716 1.759-3.5714 3.9287-3.5713 3.9285 1.5991 3.9284 3.5716" fill="#ddafe9"/>
  <path d="m285.71 584.15c-5e-5 1.7752-1.2793 3.2142-2.8572 3.2142s-2.8571-1.4392-2.857-3.2144 1.2793-3.2142 2.8572-3.2142 2.8571 1.4392 2.857 3.2144" fill="#ddafe9"/>
  <path d="m336.43 634.15c-1.3e-4 3.7476-3.1982 6.7856-7.1431 6.7855s-7.1428-3.0383-7.1426-6.7859 3.1982-6.7856 7.1431-6.7855 7.1428 3.0383 7.1426 6.7859" fill="#ddafe9"/>
  <path d="m277.86 663.43c-8e-5 2.9587-2.0788 5.3571-4.643 5.357s-4.6428-2.3987-4.6427-5.3573 2.0788-5.3571 4.643-5.357 4.6428 2.3986 4.6427 5.3573" fill="#ddafe9"/>
  <path d="m301.43 683.79c-2e-4 5.1284-4.7973 9.2856-10.715 9.2854s-10.714-4.1577-10.714-9.286 4.7973-9.2856 10.715-9.2854 10.714 4.1577 10.714 9.286" fill="#ddafe9"/>
  <path d="m279.29 697.36c-1.1e-4 2.3669-2.7185 4.2856-6.0716 4.2856s-6.0713-1.9189-6.0712-4.2859 2.7185-4.2856 6.0716-4.2856 6.0713 1.9189 6.0712 4.2859" fill="#ddafe9"/>
  <path d="m291.43 715.58c-1.5e-4 4.5366-3.6779 8.2142-8.2146 8.214s-8.2142-3.6779-8.214-8.2146 3.6779-8.2142 8.2146-8.214 8.2142 3.6779 8.214 8.2146" fill="#ddafe9"/>
  <path d="m264.29 725.58c-6e-5 1.7752-1.4392 3.2142-3.2144 3.2142s-3.2142-1.4392-3.2142-3.2144 1.4392-3.2142 3.2144-3.2142 3.2142 1.4392 3.2142 3.2144" fill="#ddafe9"/>
  <path d="m297.86 737.72c-2.1e-4 5.3256-5.1171 9.6427-11.429 9.6425s-11.428-4.3176-11.428-9.6432 5.1171-9.6427 11.429-9.6425 11.428 4.3176 11.428 9.6432" fill="#ddafe9"/>
  <path d="m365.71 682.36c-6e-5 1.578-1.4392 2.8571-3.2144 2.857s-3.2142-1.2793-3.2142-2.8572 1.4392-2.8571 3.2144-2.857 3.2142 1.2793 3.2142 2.8572" fill="#ddafe9"/>
  <path d="m382.86 675.22c-1.5e-4 4.3394-3.6779 7.857-8.2146 7.8569s-8.2142-3.518-8.214-7.8574 3.6779-7.857 8.2146-7.8569 8.2142 3.518 8.214 7.8574" fill="#ddafe9"/>
  <path d="m385 698.79c-1.7e-4 5.5228-4.1577 9.9998-9.286 9.9997s-9.2856-4.4775-9.2854-10 4.1577-9.9998 9.286-9.9997 9.2856 4.4775 9.2854 10" fill="#ddafe9"/>
  <path d="m388.57 685.58c-8e-5 2.1697-1.9189 3.9285-4.2859 3.9284s-4.2856-1.759-4.2856-3.9287 1.9189-3.9285 4.2859-3.9284 4.2856 1.759 4.2856 3.9287" fill="#ddafe9"/>
  <path d="m368.57 715.93c-6e-5 1.578-1.2793 2.8571-2.8572 2.857s-2.8571-1.2793-2.857-2.8572 1.2793-2.8571 2.8572-2.857 2.8571 1.2793 2.857 2.8572" fill="#ddafe9"/>
  <path d="m390 719.15c-1.5e-4 3.7476-3.518 6.7856-7.8574 6.7855s-7.857-3.0383-7.8569-6.7859 3.518-6.7856 7.8574-6.7855 7.857 3.0383 7.8569 6.7859" fill="#ddafe9"/>
  <path d="m369.29 728.79c-7e-5 1.9724-1.9189 3.5714-4.2858 3.5713s-4.2856-1.5991-4.2856-3.5716 1.9189-3.5714 4.2858-3.5713 4.2856 1.5991 4.2856 3.5716" fill="#ddafe9"/>
  <path d="m374.29 744.86c-1.9e-4 4.9311-4.4775 8.9284-10 8.9283s-9.9998-3.9978-9.9997-8.9289 4.4775-8.9284 10-8.9283 9.9998 3.9978 9.9997 8.9289" fill="#ddafe9"/>
  <path d="m380.71 732.01c-9e-5 2.9587-2.0788 5.3571-4.643 5.357s-4.6428-2.3986-4.6427-5.3573 2.0788-5.3571 4.643-5.357 4.6428 2.3987 4.6427 5.3573" fill="#ddafe9"/>
  <path d="m355 757.36c-1.6e-4 4.7339-3.9978 8.5713-8.9289 8.5711s-8.9284-3.8378-8.9283-8.5717 3.9978-8.5713 8.9289-8.5712 8.9284 3.8378 8.9283 8.5717" fill="#ddafe9"/>
  <path d="m328.57 758.79c-8e-5 1.9724-1.9189 3.5714-4.2859 3.5713s-4.2856-1.5991-4.2856-3.5716 1.9189-3.5714 4.2859-3.5713 4.2856 1.5991 4.2856 3.5716" fill="#ddafe9"/>
  <path d="m307.86 753.08c-1.1e-4 2.7614-2.5586 4.9999-5.7145 4.9998s-5.7142-2.2388-5.7141-5.0002 2.5586-4.9999 5.7145-4.9998 5.7142 2.2387 5.7141 5.0002" fill="#ddafe9"/>
 </g>
</svg>
