<?xml version="1.0" encoding="UTF-8" standalone="no"?>
<svg
   xmlns:dc="http://purl.org/dc/elements/1.1/"
   xmlns:cc="http://creativecommons.org/ns#"
   xmlns:rdf="http://www.w3.org/1999/02/22-rdf-syntax-ns#"
   xmlns:svg="http://www.w3.org/2000/svg"
   xmlns="http://www.w3.org/2000/svg"
   xmlns:sodipodi="http://sodipodi.sourceforge.net/DTD/sodipodi-0.dtd"
   xmlns:inkscape="http://www.inkscape.org/namespaces/inkscape"
   viewBox="0 0 69.999999 70.000001"
   version="1.1"
   id="svg118"
   sodipodi:docname="8.svg"
   width="70"
   height="70"
   inkscape:version="0.92.3 (2405546, 2018-03-11)">
  <metadata
     id="metadata122">
    <rdf:RDF>
      <cc:Work
         rdf:about="">
        <dc:format>image/svg+xml</dc:format>
        <dc:type
           rdf:resource="http://purl.org/dc/dcmitype/StillImage" />
        <dc:title></dc:title>
      </cc:Work>
    </rdf:RDF>
  </metadata>
  <sodipodi:namedview
     pagecolor="#ffffff"
     bordercolor="#666666"
     borderopacity="1"
     objecttolerance="10"
     gridtolerance="10"
     guidetolerance="10"
     inkscape:pageopacity="0"
     inkscape:pageshadow="2"
     inkscape:window-width="1920"
     inkscape:window-height="1052"
     id="namedview120"
     showgrid="false"
     inkscape:zoom="5.0743655"
     inkscape:cx="81.073122"
     inkscape:cy="68.381938"
     inkscape:window-x="0"
     inkscape:window-y="360"
     inkscape:window-maximized="1"
     inkscape:current-layer="svg118" />
  <defs
     id="defs14">
    <filter
       id="c">
      <feGaussianBlur
         stdDeviation="2.68098"
         id="feGaussianBlur2" />
    </filter>
    <filter
       id="d"
       x="-0.24642999"
       y="-0.085660003"
       width="1.4928"
       height="1.1713001">
      <feGaussianBlur
         stdDeviation="2.68098"
         id="feGaussianBlur5" />
    </filter>
    <filter
       id="b"
       x="-0.38402"
       y="-0.18893"
       width="1.768"
       height="1.3778">
      <feGaussianBlur
         stdDeviation="3.31744"
         id="feGaussianBlur8" />
    </filter>
    <filter
       id="a"
       x="-0.22600999"
       y="-0.11123"
       width="1.452"
       height="1.2225">
      <feGaussianBlur
         stdDeviation="3.31744"
         id="feGaussianBlur11" />
    </filter>
  </defs>
  <g
     transform="matrix(0.30654767,0,0,0.28449578,-63.42739,-153.605)"
     id="g116">
    <path
       d="m 327.06,546.04 c -20.039,0.33881 -57.084,12.945 -60.889,49.47 -3.805,36.525 24.335,42.612 24.335,42.612 0,0 -43.368,9.1264 -41.846,68.479 1.522,59.3526 30.401,70.102 68.479,69.245 46.034,-1.058 70.785,-18.281 77.634,-66.981 6.849,-48.7 -41.851,-72.274 -37.286,-72.274 4.565,0 25.867,-19.037 20.54,-50.236 -5.327,-31.199 -30.928,-40.654 -50.968,-40.315 z m 11.086,38.717 c 7.0267,0.0713 9.4498,2.9439 14.015,9.2215 6.0874,8.3702 3.7856,13.678 -3.0627,23.57 -6.8483,9.892 -28.154,9.1549 -31.959,-6.8246 -3.805,-15.9795 12.184,-25.134 12.184,-25.134 3.6144,-0.5707 6.4798,-0.85604 8.822,-0.83226 z m -13.259,95.744 c 25.726,-6.3667 24.972,11.45 30.887,26.1 5.6064,13.883 0.75507,22.149 -7.7959,32.509 -9.2703,11.232 -44.526,16.181 -45.287,-12.735 -4.9714,-32.774 -3.5302,-39.508 22.195,-45.874 z"
       id="path16"
       inkscape:connector-curvature="0"
       style="fill:#bc5fd3;fill-rule:evenodd;stroke:#ab37c8;stroke-width:3.19589996" />
    <path
       d="m 290.71,633.79 c -2.1429,-2.8571 -26.429,-12.143 -17.857,-42.143 8.572,-30 24.286,-32.857 24.286,-32.857 0,0 -20.714,24.286 -18.571,44.286 2.143,20 13.571,32.143 12.143,30.714 z"
       id="path18"
       inkscape:connector-curvature="0"
       style="fill:#cd87de;fill-rule:evenodd;filter:url(#d)" />
    <path
       d="m 289.29,648.08 c -1.4286,2.8571 -22.857,27.857 -20,60 4.1342,42.745 24.877,53.474 60,61.429 0,0 -35,7.8571 -52.857,-9.2857 -17.857,-17.1428 -20.714,-44.286 -17.857,-68.571 2.857,-24.285 13.571,-35 30.714,-43.571 z"
       id="path20"
       inkscape:connector-curvature="0"
       style="fill:#cd87de;fill-rule:evenodd;filter:url(#c)" />
    <path
       d="m 345.71,580.93 c 0,0 15.714,10 15.714,20.714 0,10.714 -10,21.429 -10,21.429 0,0 14.286,-5 15,-22.143 0.714,-17.143 -19.286,-20 -20.714,-20 z"
       id="path22"
       inkscape:connector-curvature="0"
       style="fill:#ab37c8;fill-rule:evenodd;filter:url(#b)" />
    <path
       d="m 335.71,673.79 c 0,0 11.429,-0.71428 20,17.143 8.571,17.85728 8.5714,33.571 6.4286,37.857 -2.1428,4.286 -13.571,16.429 -13.571,16.429 0,0 25,-11.429 22.143,-37.857 -2.857,-26.428 -20,-35 -35,-33.571 z"
       id="path24"
       inkscape:connector-curvature="0"
       style="fill:#ab37c8;fill-rule:evenodd;filter:url(#a)" />
    <path
       d="m 327.14,662.01 c -2.9e-4,8.4815 -6.8761,15.357 -15.358,15.357 -8.4819,0 -15.357,-6.8761 -15.357,-15.358 0,-8.4819 6.8761,-15.357 15.358,-15.357 8.4819,0 15.357,6.8761 15.357,15.358"
       id="path26"
       inkscape:connector-curvature="0"
       style="fill:#f6d5ff;stroke:#672178;stroke-width:3" />
    <path
       transform="matrix(1.4144,0,0,1.4144,-150.44,-270.72)"
       d="m 365,655.93 c -2.1e-4,6.3118 -5.1171,11.428 -11.429,11.428 -6.3119,0 -11.428,-5.1171 -11.428,-11.429 0,-6.3119 5.1171,-11.428 11.429,-11.428 6.3119,0 11.428,5.1171 11.428,11.429"
       id="path28"
       inkscape:connector-curvature="0"
       style="fill:#f6d5ff;stroke:#672178;stroke-width:2.12109995" />
    <path
       d="m 361.79,656.47 c -1.5e-4,4.6352 -3.7579,8.3927 -8.3931,8.3926 -4.6352,-1e-4 -8.3927,-3.7579 -8.3926,-8.3931 10e-5,-4.6352 3.7579,-8.3927 8.3931,-8.3926 4.6352,10e-5 8.3927,3.7579 8.3926,8.3931"
       id="path30"
       inkscape:connector-curvature="0"
       style="fill:#672178" />
    <path
       d="m 323.57,662.72 c -1.6e-4,4.9311 -3.9978,8.9284 -8.9289,8.9283 -4.9311,-10e-5 -8.9284,-3.9978 -8.9283,-8.9289 10e-5,-4.9311 3.9978,-8.9284 8.9289,-8.9283 4.9311,10e-5 8.9284,3.9978 8.9283,8.9289"
       id="path32"
       inkscape:connector-curvature="0"
       style="fill:#672178" />
    <path
       d="m 357.86,655.58 c -8e-5,2.3669 -1.9189,4.2856 -4.2859,4.2856 -2.367,0 -4.2856,-1.9189 -4.2856,-4.2859 0,-2.367 1.9189,-4.2856 4.2858,-4.2856 2.3669,0 4.2856,1.9189 4.2856,4.2859"
       id="path34"
       inkscape:connector-curvature="0"
       style="fill:#441650" />
    <path
       d="m 320,663.26 c -9e-5,2.6628 -2.1588,4.8214 -4.8216,4.8213 -2.6628,-1e-4 -4.8214,-2.1588 -4.8213,-4.8216 10e-5,-2.6628 2.1588,-4.8214 4.8216,-4.8213 2.6628,10e-5 4.8214,2.1588 4.8213,4.8216"
       id="path36"
       inkscape:connector-curvature="0"
       style="fill:#441650" />
    <path
       d="m 357.86,653.43 c -4e-5,1.1835 -0.95946,2.1428 -2.1429,2.1428 -1.18344,0 -2.1428,-0.95946 -2.1428,-2.1429 0,-1.18344 0.95946,-2.1428 2.1429,-2.1428 1.18344,0 2.1428,0.95946 2.1428,2.1429"
       id="path38"
       inkscape:connector-curvature="0"
       style="fill:#ddafe9" />
    <path
       d="m 319.29,659.33 c -4e-5,1.2821 -1.0394,2.3214 -2.3215,2.3214 -1.2821,0 -2.3214,-1.0394 -2.3214,-2.3215 0,-1.2821 1.0394,-2.3214 2.3215,-2.3214 1.2821,0 2.3214,1.0394 2.3214,2.3215"
       id="path40"
       inkscape:connector-curvature="0"
       style="fill:#ddafe9" />
    <path
       d="m 300.71,575.93 c -1.2e-4,4.7339 -3.0383,8.5713 -6.7859,8.5711 -3.7476,-2e-4 -6.7856,-3.8378 -6.7855,-8.5717 10e-5,-4.7339 3.0383,-8.5713 6.7859,-8.5711 3.7476,2e-4 6.7856,3.8378 6.7855,8.5717"
       id="path42"
       inkscape:connector-curvature="0"
       style="fill:#ddafe9" />
    <path
       d="m 298.57,605.93 c -2.3e-4,6.3118 -5.5969,11.428 -12.5,11.428 -6.9031,0 -12.5,-5.1171 -12.5,-11.429 0,-6.3119 5.5969,-11.428 12.5,-11.428 6.9031,0 12.5,5.1171 12.5,11.429"
       id="path44"
       inkscape:connector-curvature="0"
       style="fill:#ddafe9" />
    <path
       d="m 312.14,590.93 c -9e-5,2.7614 -2.0788,4.9999 -4.643,4.9998 -2.5642,-10e-5 -4.6428,-2.2387 -4.6427,-5.0002 10e-5,-2.7615 2.0788,-4.9999 4.643,-4.9998 2.5642,10e-5 4.6428,2.2388 4.6427,5.0002"
       id="path46"
       inkscape:connector-curvature="0"
       style="fill:#ddafe9" />
    <path
       d="m 315,623.08 c -1.4e-4,3.9449 -3.3581,7.1428 -7.5002,7.1426 -4.1421,-2e-4 -7.4999,-3.1982 -7.4998,-7.1431 10e-5,-3.9449 3.3581,-7.1428 7.5002,-7.1426 4.1421,2e-4 7.4999,3.1982 7.4998,7.1431"
       id="path48"
       inkscape:connector-curvature="0"
       style="fill:#ddafe9" />
    <path
       d="m 310,560.22 c -7e-5,1.578 -1.759,2.8571 -3.9287,2.857 -2.1697,-10e-5 -3.9285,-1.2793 -3.9284,-2.8572 10e-5,-1.5779 1.759,-2.8571 3.9287,-2.857 2.1697,10e-5 3.9285,1.2793 3.9284,2.8572"
       id="path50"
       inkscape:connector-curvature="0"
       style="fill:#ddafe9" />
    <path
       d="m 342.86,562.01 c -2.3e-4,6.1146 -5.5969,11.071 -12.5,11.071 -6.9031,0 -12.5,-4.9572 -12.5,-11.072 0,-6.1148 5.5968,-11.071 12.5,-11.071 6.9032,0 12.5,4.9572 12.5,11.072"
       id="path52"
       inkscape:connector-curvature="0"
       style="fill:#ddafe9" />
    <path
       d="m 317.14,571.65 c -9e-5,2.7614 -2.2387,4.9999 -5.0002,4.9998 -2.7615,-10e-5 -4.9999,-2.2387 -4.9998,-5.0002 1e-4,-2.7615 2.2388,-4.9999 5.0002,-4.9998 2.7614,10e-5 4.9999,2.2387 4.9998,5.0002"
       id="path54"
       inkscape:connector-curvature="0"
       style="fill:#ddafe9" />
    <path
       d="m 329.29,579.15 c -6e-5,1.7752 -1.5991,3.2142 -3.5715,3.2142 -1.9724,0 -3.5714,-1.4392 -3.5713,-3.2144 10e-5,-1.7752 1.5991,-3.2142 3.5715,-3.2142 1.9724,0 3.5714,1.4392 3.5713,3.2144"
       id="path56"
       inkscape:connector-curvature="0"
       style="fill:#ddafe9" />
    <path
       d="m 347.14,576.65 c -8e-5,2.3669 -1.9189,4.2856 -4.2859,4.2856 -2.367,0 -4.2856,-1.9189 -4.2856,-4.2858 0,-2.3669 1.9189,-4.2856 4.2859,-4.2856 2.367,0 4.2856,1.9189 4.2856,4.2859"
       id="path58"
       inkscape:connector-curvature="0"
       style="fill:#ddafe9" />
    <path
       d="m 365,565.93 c -1.5e-4,3.9449 -3.6779,7.1428 -8.2146,7.1426 -4.5367,-2e-4 -8.2142,-3.1982 -8.214,-7.1431 2e-4,-3.9449 3.6779,-7.1428 8.2146,-7.1426 4.5367,2e-4 8.2142,3.1982 8.214,7.1431"
       id="path60"
       inkscape:connector-curvature="0"
       style="fill:#ddafe9" />
    <path
       d="m 360.71,580.22 c -4e-5,1.578 -1.1194,2.8571 -2.5001,2.857 -1.3807,-10e-5 -2.5,-1.2793 -2.4999,-2.8572 1e-4,-1.5779 1.1194,-2.8571 2.5001,-2.857 1.3807,10e-5 2.5,1.2793 2.4999,2.8572"
       id="path62"
       inkscape:connector-curvature="0"
       style="fill:#ddafe9" />
    <path
       d="m 374.29,593.08 c -1.3e-4,3.1559 -3.1982,5.7142 -7.1431,5.7141 -3.9449,-10e-5 -7.1428,-2.5586 -7.1426,-5.7145 2e-4,-3.1559 3.1982,-5.7142 7.1431,-5.7141 3.9449,10e-5 7.1428,2.5586 7.1426,5.7145"
       id="path64"
       inkscape:connector-curvature="0"
       style="fill:#ddafe9" />
    <path
       d="m 367.86,605.93 c -5e-5,1.1835 -1.2793,2.1428 -2.8572,2.1428 -1.5779,0 -2.8571,-0.95946 -2.857,-2.1429 10e-5,-1.18344 1.2793,-2.1428 2.8572,-2.1428 1.5779,0 2.8571,0.95946 2.857,2.1429"
       id="path66"
       inkscape:connector-curvature="0"
       style="fill:#ddafe9" />
    <path
       d="m 364.29,618.08 c -1.1e-4,2.7614 -2.5586,4.9999 -5.7145,4.9998 -3.1559,-10e-5 -5.7142,-2.2388 -5.7141,-5.0002 10e-5,-2.7614 2.5586,-4.9999 5.7145,-4.9998 3.1559,10e-5 5.7142,2.2387 5.7141,5.0002"
       id="path68"
       inkscape:connector-curvature="0"
       style="fill:#ddafe9" />
    <path
       d="m 355,628.08 c -7e-5,1.9724 -1.5991,3.5714 -3.5716,3.5713 -1.9725,-10e-5 -3.5714,-1.5991 -3.5713,-3.5716 10e-5,-1.9725 1.5991,-3.5714 3.5716,-3.5713 1.9725,10e-5 3.5714,1.5991 3.5713,3.5716"
       id="path70"
       inkscape:connector-curvature="0"
       style="fill:#ddafe9" />
    <path
       d="m 295,625.93 c -8e-5,1.9724 -1.9189,3.5714 -4.2859,3.5713 -2.367,-10e-5 -4.2856,-1.5991 -4.2856,-3.5716 0,-1.9725 1.9189,-3.5714 4.2859,-3.5713 2.367,1e-4 4.2856,1.5991 4.2856,3.5715"
       id="path72"
       inkscape:connector-curvature="0"
       style="fill:#ddafe9" />
    <path
       d="m 312.86,605.22 c -7e-5,1.9724 -1.759,3.5714 -3.9287,3.5713 -2.1697,-10e-5 -3.9285,-1.5991 -3.9284,-3.5716 10e-5,-1.9725 1.759,-3.5714 3.9287,-3.5713 2.1697,10e-5 3.9285,1.5991 3.9284,3.5716"
       id="path74"
       inkscape:connector-curvature="0"
       style="fill:#ddafe9" />
    <path
       d="m 285.71,584.15 c -5e-5,1.7752 -1.2793,3.2142 -2.8572,3.2142 -1.5779,0 -2.8571,-1.4392 -2.857,-3.2144 1e-4,-1.7752 1.2793,-3.2142 2.8572,-3.2142 1.5779,0 2.8571,1.4392 2.857,3.2144"
       id="path76"
       inkscape:connector-curvature="0"
       style="fill:#ddafe9" />
    <path
       d="m 336.43,634.15 c -1.3e-4,3.7476 -3.1982,6.7856 -7.1431,6.7855 -3.9449,-1e-4 -7.1428,-3.0383 -7.1426,-6.7859 2e-4,-3.7476 3.1982,-6.7856 7.1431,-6.7855 3.9449,10e-5 7.1428,3.0383 7.1426,6.7859"
       id="path78"
       inkscape:connector-curvature="0"
       style="fill:#ddafe9" />
    <path
       d="m 277.86,663.43 c -8e-5,2.9587 -2.0788,5.3571 -4.643,5.357 -2.5642,-1e-4 -4.6428,-2.3987 -4.6427,-5.3573 1e-4,-2.9586 2.0788,-5.3571 4.643,-5.357 2.5642,10e-5 4.6428,2.3986 4.6427,5.3573"
       id="path80"
       inkscape:connector-curvature="0"
       style="fill:#ddafe9" />
    <path
       d="m 301.43,683.79 c -2e-4,5.1284 -4.7973,9.2856 -10.715,9.2854 -5.9177,-2e-4 -10.714,-4.1577 -10.714,-9.286 0,-5.1283 4.7973,-9.2856 10.715,-9.2854 5.9177,2e-4 10.714,4.1577 10.714,9.286"
       id="path82"
       inkscape:connector-curvature="0"
       style="fill:#ddafe9" />
    <path
       d="m 279.29,697.36 c -1.1e-4,2.3669 -2.7185,4.2856 -6.0716,4.2856 -3.3531,0 -6.0713,-1.9189 -6.0712,-4.2859 10e-5,-2.367 2.7185,-4.2856 6.0716,-4.2856 3.3531,0 6.0713,1.9189 6.0712,4.2859"
       id="path84"
       inkscape:connector-curvature="0"
       style="fill:#ddafe9" />
    <path
       d="m 291.43,715.58 c -1.5e-4,4.5366 -3.6779,8.2142 -8.2146,8.214 -4.5367,-2e-4 -8.2142,-3.6779 -8.214,-8.2146 2e-4,-4.5367 3.6779,-8.2142 8.2146,-8.214 4.5367,2e-4 8.2142,3.6779 8.214,8.2146"
       id="path86"
       inkscape:connector-curvature="0"
       style="fill:#ddafe9" />
    <path
       d="m 264.29,725.58 c -6e-5,1.7752 -1.4392,3.2142 -3.2144,3.2142 -1.7752,0 -3.2142,-1.4392 -3.2142,-3.2144 0,-1.7752 1.4392,-3.2142 3.2144,-3.2142 1.7752,0 3.2142,1.4392 3.2142,3.2144"
       id="path88"
       inkscape:connector-curvature="0"
       style="fill:#ddafe9" />
    <path
       d="m 297.86,737.72 c -2.1e-4,5.3256 -5.1171,9.6427 -11.429,9.6425 -6.3119,-2e-4 -11.428,-4.3176 -11.428,-9.6432 0,-5.3256 5.1171,-9.6427 11.429,-9.6425 6.3119,2e-4 11.428,4.3176 11.428,9.6432"
       id="path90"
       inkscape:connector-curvature="0"
       style="fill:#ddafe9" />
    <path
       d="m 365.71,682.36 c -6e-5,1.578 -1.4392,2.8571 -3.2144,2.857 -1.7752,-10e-5 -3.2142,-1.2793 -3.2142,-2.8572 0,-1.5779 1.4392,-2.8571 3.2144,-2.857 1.7752,10e-5 3.2142,1.2793 3.2142,2.8572"
       id="path92"
       inkscape:connector-curvature="0"
       style="fill:#ddafe9" />
    <path
       d="m 382.86,675.22 c -1.5e-4,4.3394 -3.6779,7.857 -8.2146,7.8569 -4.5367,-10e-5 -8.2142,-3.518 -8.214,-7.8574 2e-4,-4.3394 3.6779,-7.857 8.2146,-7.8569 4.5367,10e-5 8.2142,3.518 8.214,7.8574"
       id="path94"
       inkscape:connector-curvature="0"
       style="fill:#ddafe9" />
    <path
       d="m 385,698.79 c -1.7e-4,5.5228 -4.1577,9.9998 -9.286,9.9997 -5.1283,-1e-4 -9.2856,-4.4775 -9.2854,-10 2e-4,-5.5225 4.1577,-9.9998 9.286,-9.9997 5.1283,1e-4 9.2856,4.4775 9.2854,10"
       id="path96"
       inkscape:connector-curvature="0"
       style="fill:#ddafe9" />
    <path
       d="m 388.57,685.58 c -8e-5,2.1697 -1.9189,3.9285 -4.2859,3.9284 -2.367,-1e-4 -4.2856,-1.759 -4.2856,-3.9287 0,-2.1697 1.9189,-3.9285 4.2859,-3.9284 2.367,10e-5 4.2856,1.759 4.2856,3.9287"
       id="path98"
       inkscape:connector-curvature="0"
       style="fill:#ddafe9" />
    <path
       d="m 368.57,715.93 c -6e-5,1.578 -1.2793,2.8571 -2.8572,2.857 -1.5779,-1e-4 -2.8571,-1.2793 -2.857,-2.8572 1e-4,-1.5779 1.2793,-2.8571 2.8572,-2.857 1.5779,10e-5 2.8571,1.2793 2.857,2.8572"
       id="path100"
       inkscape:connector-curvature="0"
       style="fill:#ddafe9" />
    <path
       d="m 390,719.15 c -1.5e-4,3.7476 -3.518,6.7856 -7.8574,6.7855 -4.3394,-1e-4 -7.857,-3.0383 -7.8569,-6.7859 10e-5,-3.7476 3.518,-6.7856 7.8574,-6.7855 4.3394,10e-5 7.857,3.0383 7.8569,6.7859"
       id="path102"
       inkscape:connector-curvature="0"
       style="fill:#ddafe9" />
    <path
       d="m 369.29,728.79 c -7e-5,1.9724 -1.9189,3.5714 -4.2858,3.5713 -2.3669,-10e-5 -4.2856,-1.5991 -4.2856,-3.5716 0,-1.9725 1.9189,-3.5714 4.2858,-3.5713 2.3669,10e-5 4.2856,1.5991 4.2856,3.5716"
       id="path104"
       inkscape:connector-curvature="0"
       style="fill:#ddafe9" />
    <path
       d="m 374.29,744.86 c -1.9e-4,4.9311 -4.4775,8.9284 -10,8.9283 -5.5225,-1e-4 -9.9998,-3.9978 -9.9997,-8.9289 10e-5,-4.9311 4.4775,-8.9284 10,-8.9283 5.5225,10e-5 9.9998,3.9978 9.9997,8.9289"
       id="path106"
       inkscape:connector-curvature="0"
       style="fill:#ddafe9" />
    <path
       d="m 380.71,732.01 c -9e-5,2.9587 -2.0788,5.3571 -4.643,5.357 -2.5642,-10e-5 -4.6428,-2.3986 -4.6427,-5.3573 10e-5,-2.9587 2.0788,-5.3571 4.643,-5.357 2.5642,10e-5 4.6428,2.3987 4.6427,5.3573"
       id="path108"
       inkscape:connector-curvature="0"
       style="fill:#ddafe9" />
    <path
       d="m 355,757.36 c -1.6e-4,4.7339 -3.9978,8.5713 -8.9289,8.5711 -4.9311,-2e-4 -8.9284,-3.8378 -8.9283,-8.5717 10e-5,-4.7339 3.9978,-8.5713 8.9289,-8.5712 4.9311,1e-4 8.9284,3.8378 8.9283,8.5717"
       id="path110"
       inkscape:connector-curvature="0"
       style="fill:#ddafe9" />
    <path
       d="m 328.57,758.79 c -8e-5,1.9724 -1.9189,3.5714 -4.2859,3.5713 -2.367,-10e-5 -4.2856,-1.5991 -4.2856,-3.5716 0,-1.9725 1.9189,-3.5714 4.2859,-3.5713 2.367,10e-5 4.2856,1.5991 4.2856,3.5716"
       id="path112"
       inkscape:connector-curvature="0"
       style="fill:#ddafe9" />
    <path
       d="m 307.86,753.08 c -1.1e-4,2.7614 -2.5586,4.9999 -5.7145,4.9998 -3.1559,-10e-5 -5.7142,-2.2388 -5.7141,-5.0002 1e-4,-2.7614 2.5586,-4.9999 5.7145,-4.9998 3.1559,10e-5 5.7142,2.2387 5.7141,5.0002"
       id="path114"
       inkscape:connector-curvature="0"
       style="fill:#ddafe9" />
  </g>
</svg>
