<?xml version="1.0" encoding="UTF-8" standalone="no"?>
<svg
   xmlns:dc="http://purl.org/dc/elements/1.1/"
   xmlns:cc="http://creativecommons.org/ns#"
   xmlns:rdf="http://www.w3.org/1999/02/22-rdf-syntax-ns#"
   xmlns:svg="http://www.w3.org/2000/svg"
   xmlns="http://www.w3.org/2000/svg"
   xmlns:sodipodi="http://sodipodi.sourceforge.net/DTD/sodipodi-0.dtd"
   xmlns:inkscape="http://www.inkscape.org/namespaces/inkscape"
   viewBox="0 0 69.999999 70.000001"
   version="1.1"
   id="svg42"
   sodipodi:docname="9.svg"
   width="70"
   height="70"
   inkscape:version="0.92.3 (2405546, 2018-03-11)">
  <metadata
     id="metadata46">
    <rdf:RDF>
      <cc:Work
         rdf:about="">
        <dc:format>image/svg+xml</dc:format>
        <dc:type
           rdf:resource="http://purl.org/dc/dcmitype/StillImage" />
        <dc:title></dc:title>
      </cc:Work>
    </rdf:RDF>
  </metadata>
  <sodipodi:namedview
     pagecolor="#ffffff"
     bordercolor="#666666"
     borderopacity="1"
     objecttolerance="10"
     gridtolerance="10"
     guidetolerance="10"
     inkscape:pageopacity="0"
     inkscape:pageshadow="2"
     inkscape:window-width="1920"
     inkscape:window-height="1052"
     id="namedview44"
     showgrid="false"
     inkscape:zoom="2.5371828"
     inkscape:cx="202.18244"
     inkscape:cy="-66.792276"
     inkscape:window-x="0"
     inkscape:window-y="360"
     inkscape:window-maximized="1"
     inkscape:current-layer="svg42" />
  <defs
     id="defs8">
    <filter
       id="b"
       x="-0.46415001"
       y="-0.46415001"
       width="1.9283"
       height="1.9283">
      <feGaussianBlur
         stdDeviation="3.02808"
         id="feGaussianBlur2" />
    </filter>
    <filter
       id="a"
       x="-0.11381"
       y="-0.048409998"
       width="1.2276"
       height="1.0968">
      <feGaussianBlur
         stdDeviation="2.27636"
         id="feGaussianBlur5" />
    </filter>
  </defs>
  <g
     transform="matrix(0.38919631,0,0,0.31656536,-164.01591,-172.03068)"
     id="g40">
    <path
       d="m 551.43,599.86 c -5.2e-4,14.004 -12.633,25.357 -28.215,25.356 -15.582,-10e-4 -28.214,-11.354 -28.213,-25.358 10e-4,-14.004 12.633,-25.357 28.215,-25.356 15.582,0.001 28.214,11.354 28.213,25.358"
       id="path10"
       inkscape:connector-curvature="0"
       style="fill:#d5f6ff;stroke:#666666;stroke-width:3" />
    <g
       transform="matrix(0.90236,0,0,0.90236,71.688,73.067)"
       id="g38">
      <path
         d="m 489.72,531.16 c -13.19,0.0137 -26.655,4.0808 -42.875,13.406 -39.927,22.955 -26.916,70.138 -3.5312,98.344 23.3848,28.206 73.531,-2.625 73.531,-2.625 l -30.406,119.62 56.469,0.96875 10.531,-207.38 c -25.758,-13.695 -44.442,-22.364 -63.719,-22.344 z m 10.312,28.25 c 34.345,8.0812 27.256,35.356 11.094,43.438 -16.162,8.082 -36.344,1.0155 -36.344,-19.188 0,-20.2035 25.25,-24.25 25.25,-24.25 z"
         id="path12"
         inkscape:connector-curvature="0"
         style="fill:#00aad4;fill-rule:evenodd;stroke:#006680;stroke-width:3" />
      <path
         d="m 495.48,619.26 c -1.5e-4,4.3237 -3.5053,7.8286 -7.829,7.8284 -4.3237,-2e-4 -7.8286,-3.5053 -7.8284,-7.8289 2e-4,-4.3236 3.5053,-7.8286 7.8289,-7.8284 4.3236,2e-4 7.8286,3.5053 7.8284,7.829"
         id="path14"
         inkscape:connector-curvature="0"
         style="fill:#55ddff;filter:url(#b)" />
      <path
         d="m 452.55,651.33 c 0,0 25.254,-2.0203 34.345,-13.132 9.091,-11.1117 1.0102,-20.203 1.0102,-20.203"
         id="path16"
         inkscape:connector-curvature="0"
         style="fill:none;stroke:#006680;stroke-width:3" />
      <path
         transform="translate(-4.5457,0.50508)"
         d="m 512.15,570.52 c -1.5e-4,4.4631 -3.6184,8.0811 -8.0815,8.081 -4.4631,-10e-5 -8.0811,-3.6184 -8.081,-8.0815 10e-5,-4.4631 3.6184,-8.0811 8.0815,-8.081 4.4631,10e-5 8.0811,3.6184 8.081,8.0815"
         id="path18"
         inkscape:connector-curvature="0"
         style="fill:#006680" />
      <path
         d="m 503.56,570.27 c -7e-5,2.0921 -1.6961,3.788 -3.7882,3.788 -2.0921,0 -3.788,-1.6961 -3.7879,-3.7882 10e-5,-2.0921 1.6961,-3.788 3.7882,-3.788 2.0921,0 3.788,1.6961 3.7879,3.7882"
         id="path20"
         inkscape:connector-curvature="0"
         style="fill:#004455" />
      <path
         d="m 423.57,573.08 28.571,7.1428"
         id="path22"
         inkscape:connector-curvature="0"
         style="fill:none;stroke:#0088aa;stroke-width:2" />
      <path
         d="m 429.29,561.65 20,5"
         id="path24"
         inkscape:connector-curvature="0"
         style="fill:none;stroke:#0088aa;stroke-width:2" />
      <path
         d="m 438.57,548.08 20,10.714"
         id="path26"
         inkscape:connector-curvature="0"
         style="fill:none;stroke:#0088aa;stroke-width:2" />
      <path
         d="m 452.86,540.93 12.143,11.429"
         id="path28"
         inkscape:connector-curvature="0"
         style="fill:none;stroke:#0088aa;stroke-width:2" />
      <path
         d="m 465,534.51 13.571,14.286"
         id="path30"
         inkscape:connector-curvature="0"
         style="fill:none;stroke:#0088aa;stroke-width:2" />
      <path
         d="m 483.57,530.93 2.8571,13.571"
         id="path32"
         inkscape:connector-curvature="0"
         style="fill:none;stroke:#0088aa;stroke-width:2" />
      <path
         d="m 496.43,531.65 -1.4286,11.429"
         id="path34"
         inkscape:connector-curvature="0"
         style="fill:none;stroke:#0088aa;stroke-width:2" />
      <path
         d="m 544.29,643.08 -5,112.86 -42.857,-0.71428 c 0,0 32.857,0.71428 36.429,-7.8572 3.572,-8.57148 12.857,-103.57 11.429,-104.29 z"
         id="path36"
         inkscape:connector-curvature="0"
         style="fill:#aaeeff;fill-rule:evenodd;filter:url(#a)" />
    </g>
  </g>
</svg>
