<?xml version="1.0" encoding="UTF-8"?>
<svg viewBox="0 0 744.09447 1052.362179" xmlns="http://www.w3.org/2000/svg">
 <defs>
  <filter id="b" x="-.46415" y="-.46415" width="1.9283" height="1.9283">
   <feGaussianBlur stdDeviation="3.02808"/>
  </filter>
  <filter id="a" x="-.11381" y="-.04841" width="1.2276" height="1.0968">
   <feGaussianBlur stdDeviation="2.27636"/>
  </filter>
 </defs>
 <g transform="matrix(5.0272 0 0 5.0272 -2171 -2765.5)">
  <path d="m551.43 599.86c-5.2e-4 14.004-12.633 25.357-28.215 25.356s-28.214-11.354-28.213-25.358 12.633-25.357 28.215-25.356 28.214 11.354 28.213 25.358" fill="#d5f6ff" stroke="#666" stroke-width="3"/>
  <g transform="matrix(.90236 0 0 .90236 71.688 73.067)">
   <path d="m489.72 531.16c-13.19 0.0137-26.655 4.0808-42.875 13.406-39.927 22.955-26.916 70.138-3.5312 98.344s73.531-2.625 73.531-2.625l-30.406 119.62 56.469 0.96875 10.531-207.38c-25.758-13.695-44.442-22.364-63.719-22.344zm10.312 28.25c34.345 8.0812 27.256 35.356 11.094 43.438s-36.344 1.0155-36.344-19.188 25.25-24.25 25.25-24.25z" fill="#00aad4" fill-rule="evenodd" stroke="#006680" stroke-width="3"/>
   <path d="m495.48 619.26c-1.5e-4 4.3237-3.5053 7.8286-7.829 7.8284s-7.8286-3.5053-7.8284-7.8289 3.5053-7.8286 7.8289-7.8284 7.8286 3.5053 7.8284 7.829" fill="#5df" filter="url(#b)"/>
   <path d="m452.55 651.33s25.254-2.0203 34.345-13.132 1.0102-20.203 1.0102-20.203" fill="none" stroke="#006680" stroke-width="3"/>
   <path transform="translate(-4.5457 .50508)" d="m512.15 570.52c-1.5e-4 4.4631-3.6184 8.0811-8.0815 8.081s-8.0811-3.6184-8.081-8.0815 3.6184-8.0811 8.0815-8.081 8.0811 3.6184 8.081 8.0815" fill="#006680"/>
   <path d="m503.56 570.27c-7e-5 2.0921-1.6961 3.788-3.7882 3.788s-3.788-1.6961-3.7879-3.7882 1.6961-3.788 3.7882-3.788 3.788 1.6961 3.7879 3.7882" fill="#045"/>
   <path d="m423.57 573.08 28.571 7.1428" fill="none" stroke="#08a" stroke-width="2"/>
   <path d="m429.29 561.65 20 5" fill="none" stroke="#08a" stroke-width="2"/>
   <path d="m438.57 548.08 20 10.714" fill="none" stroke="#08a" stroke-width="2"/>
   <path d="m452.86 540.93 12.143 11.429" fill="none" stroke="#08a" stroke-width="2"/>
   <path d="m465 534.51 13.571 14.286" fill="none" stroke="#08a" stroke-width="2"/>
   <path d="m483.57 530.93 2.8571 13.571" fill="none" stroke="#08a" stroke-width="2"/>
   <path d="m496.43 531.65-1.4286 11.429" fill="none" stroke="#08a" stroke-width="2"/>
   <path d="m544.29 643.08-5 112.86-42.857-0.71428s32.857 0.71428 36.429-7.8572 12.857-103.57 11.429-104.29z" fill="#aef" fill-rule="evenodd" filter="url(#a)"/>
  </g>
 </g>
</svg>
