<?xml version="1.0" encoding="UTF-8" standalone="no"?>
<svg
   xmlns:dc="http://purl.org/dc/elements/1.1/"
   xmlns:cc="http://creativecommons.org/ns#"
   xmlns:rdf="http://www.w3.org/1999/02/22-rdf-syntax-ns#"
   xmlns:svg="http://www.w3.org/2000/svg"
   xmlns="http://www.w3.org/2000/svg"
   xmlns:sodipodi="http://sodipodi.sourceforge.net/DTD/sodipodi-0.dtd"
   xmlns:inkscape="http://www.inkscape.org/namespaces/inkscape"
   viewBox="0 0 69.999999 70"
   version="1.1"
   id="svg1749"
   sodipodi:docname="alphabet-160205.svg"
   width="70"
   height="70"
   inkscape:version="0.92.3 (2405546, 2018-03-11)">
  <metadata
     id="metadata1753">
    <rdf:RDF>
      <cc:Work
         rdf:about="">
        <dc:format>image/svg+xml</dc:format>
        <dc:type
           rdf:resource="http://purl.org/dc/dcmitype/StillImage" />
        <dc:title></dc:title>
      </cc:Work>
    </rdf:RDF>
  </metadata>
  <sodipodi:namedview
     pagecolor="#ffffff"
     bordercolor="#666666"
     borderopacity="1"
     objecttolerance="10"
     gridtolerance="10"
     guidetolerance="10"
     inkscape:pageopacity="0"
     inkscape:pageshadow="2"
     inkscape:window-width="1920"
     inkscape:window-height="1052"
     id="namedview1751"
     showgrid="false"
     inkscape:zoom="1.5831818"
     inkscape:cx="112.46351"
     inkscape:cy="175.00075"
     inkscape:window-x="0"
     inkscape:window-y="360"
     inkscape:window-maximized="1"
     inkscape:current-layer="svg1749" />
  <defs
     id="defs5">
    <filter
       id="a"
       x="-0.46415001"
       y="-0.46415001"
       width="1.9283"
       height="1.9283">
      <feGaussianBlur
         stdDeviation="3.0281"
         id="feGaussianBlur2" />
    </filter>
  </defs>
  <g
     id="g53"
     transform="translate(-253.78098,-464.10271)">
    <g
       style="font-size:72px;font-family:'Plump MT';letter-spacing:0;word-spacing:0;fill:#ffb200;stroke:#b88f00"
       id="g9"
       word-spacing="0"
       letter-spacing="0"
       font-size="72"
       transform="translate(6.6923,-5.5558)">
      <path
         id="path7"
         d="m 312.26,524.89 c 0.16617,7.2129 -10.038,11.759 -15.253,6.7391 -3.1605,-2.2593 -2.0311,-8.1272 -5.728,-9.3072 -4.2582,-1.3591 -9.449,-2.1488 -13.404,-0.0671 -3.7365,1.9666 -2.6324,8.7866 -6.8789,10.76 -6.3164,3.4216 -15.139,-3.6448 -12.738,-10.554 3.0718,-9.666 7.3098,-18.907 10.596,-28.498 2.1008,-5.3966 3.9829,-11.031 7.3276,-15.798 5.5985,-5.9884 17.229,-3.9762 20.077,3.8552 5.6069,13.838 11.486,27.604 15.872,41.894 l 0.0724,0.48725 0.0578,0.4892 z m -24.609,-17.719 c 0.95872,-2.9463 0.28587,-8.8594 -2.8125,-8.8594 -3.1055,0 -3.8225,5.8994 -2.8828,8.8594 0.57443,1.8094 5.1079,1.8053 5.6953,0 z"
         inkscape:connector-curvature="0" />
    </g>
    <path
       style="fill:#ffeeaa;stroke:#aa8800;stroke-width:3"
       id="path11"
       d="m 170,603.08 c -4.3e-4,13.018 -10.554,23.571 -23.572,23.571 -13.018,0 -23.571,-10.554 -23.571,-23.572 0,-13.018 10.554,-23.571 23.572,-23.571 13.018,0 23.571,10.554 23.571,23.572"
       transform="matrix(0.22636,0,0,0.18388,232.54,397.54)"
       inkscape:connector-curvature="0" />
    <path
       style="fill:#806600"
       id="path13"
       d="m 161.43,559.15 c -1.8e-4,5.3256 -4.3176,9.6427 -9.6432,9.6425 -5.3256,-2e-4 -9.6427,-4.3176 -9.6425,-9.6432 2e-4,-5.3256 4.3176,-9.6427 9.6432,-9.6425 5.3256,2e-4 9.6427,4.3176 9.6425,9.6432"
       transform="matrix(0.28275,0,0,0.22969,223.27,379.93)"
       inkscape:connector-curvature="0" />
    <path
       style="fill:#2b2200"
       id="path15"
       d="m 156.43,558.79 c -8e-5,2.3669 -1.9189,4.2856 -4.2859,4.2856 -2.367,0 -4.2856,-1.9189 -4.2856,-4.2859 0,-2.367 1.9189,-4.2856 4.2859,-4.2856 2.367,0 4.2856,1.9189 4.2856,4.2858"
       transform="matrix(0.28275,0,0,0.22969,223.27,379.93)"
       inkscape:connector-curvature="0" />
    <path
       style="fill:#ffeeaa"
       id="path17"
       d="m 156.43,555.22 c -4e-5,1.1835 -0.95946,2.1428 -2.1429,2.1428 -1.18344,0 -2.1428,-0.95946 -2.1428,-2.1429 0,-1.18344 0.95947,-2.1428 2.1429,-2.1428 1.18343,0 2.1428,0.95946 2.1428,2.1429"
       transform="matrix(0.28275,0,0,0.22969,223.27,379.93)"
       inkscape:connector-curvature="0" />
    <path
       style="fill:#ffeeaa;stroke:#aa8800;stroke-width:3"
       id="path19"
       d="m 170,603.08 c -4.3e-4,13.018 -10.554,23.571 -23.572,23.571 -13.018,0 -23.571,-10.554 -23.571,-23.572 0,-13.018 10.554,-23.571 23.572,-23.571 13.018,0 23.571,10.554 23.571,23.572"
       transform="matrix(0.22636,0,0,0.18388,232.54,397.54)"
       inkscape:connector-curvature="0" />
    <path
       style="fill:#806600"
       id="path21"
       d="m 161.43,559.15 c -1.8e-4,5.3256 -4.3176,9.6427 -9.6432,9.6425 -5.3256,-2e-4 -9.6427,-4.3176 -9.6425,-9.6432 2e-4,-5.3256 4.3176,-9.6427 9.6432,-9.6425 5.3256,2e-4 9.6427,4.3176 9.6425,9.6432"
       transform="matrix(0.28275,0,0,0.22969,223.27,379.93)"
       inkscape:connector-curvature="0" />
    <path
       style="fill:#2b2200"
       id="path23"
       d="m 156.43,558.79 c -8e-5,2.3669 -1.9189,4.2856 -4.2859,4.2856 -2.367,0 -4.2856,-1.9189 -4.2856,-4.2859 0,-2.367 1.9189,-4.2856 4.2859,-4.2856 2.367,0 4.2856,1.9189 4.2856,4.2858"
       transform="matrix(0.28275,0,0,0.22969,223.27,379.93)"
       inkscape:connector-curvature="0" />
    <path
       style="fill:#ffeeaa"
       id="path25"
       d="m 156.43,555.22 c -4e-5,1.1835 -0.95946,2.1428 -2.1429,2.1428 -1.18344,0 -2.1428,-0.95946 -2.1428,-2.1429 0,-1.18344 0.95947,-2.1428 2.1429,-2.1428 1.18343,0 2.1428,0.95946 2.1428,2.1429"
       transform="matrix(0.28275,0,0,0.22969,223.27,379.93)"
       inkscape:connector-curvature="0" />
    <path
       style="fill:#ffeeaa;stroke:#aa8800;stroke-width:3"
       id="path27"
       d="m 170,603.08 c -4.3e-4,13.018 -10.554,23.571 -23.572,23.571 -13.018,0 -23.571,-10.554 -23.571,-23.572 0,-13.018 10.554,-23.571 23.572,-23.571 13.018,0 23.571,10.554 23.571,23.572"
       transform="matrix(0.28275,0,0,0.22969,236.73,374.98)"
       inkscape:connector-curvature="0" />
    <path
       style="fill:#806600"
       id="path29"
       d="m 207.86,588.79 c -2.3e-4,7.1008 -5.7568,12.857 -12.858,12.857 -7.1012,0 -12.857,-5.7568 -12.857,-12.858 0,-7.1012 5.7568,-12.857 12.858,-12.857 7.1012,0 12.857,5.7568 12.857,12.858"
       transform="matrix(0.28275,0,0,0.22969,223.4,378.92)"
       inkscape:connector-curvature="0" />
    <path
       style="fill:#2b2200"
       id="path31"
       d="m 200.71,587.36 c -9e-5,2.7614 -2.2387,4.9999 -5.0002,4.9998 -2.7615,-10e-5 -4.9999,-2.2387 -4.9998,-5.0002 1e-4,-2.7615 2.2387,-4.9999 5.0002,-4.9998 2.7615,1e-4 4.9999,2.2388 4.9998,5.0002"
       transform="matrix(0.28275,0,0,0.22969,223.4,378.92)"
       inkscape:connector-curvature="0" />
    <path
       style="fill:#ffeeaa"
       id="path33"
       d="m 199.64,583.43 c -3e-5,0.78898 -0.63964,1.4286 -1.4286,1.4285 -0.78896,-1e-4 -1.4286,-0.63965 -1.4285,-1.4286 10e-5,-0.78895 0.63964,-1.4286 1.4286,-1.4285 0.78896,10e-5 1.4286,0.63964 1.4285,1.4286"
       transform="matrix(0.49482,0,0,0.40196,181.67,278.66)"
       inkscape:connector-curvature="0" />
    <path
       style="fill:none;stroke:#806600;stroke-width:0.76454002"
       id="path35"
       d="m 276.84,521.45 c 0,0 3.9988,4.8725 -1.9994,6.7287"
       inkscape:connector-curvature="0" />
    <path
       style="fill:none;stroke:#b88f00;stroke-width:0.50968999"
       id="path37"
       d="m 280.3,476.22 5.0492,1.9688"
       inkscape:connector-curvature="0" />
    <path
       style="fill:none;stroke:#b88f00;stroke-width:0.50968999"
       id="path39"
       d="m 282.26,473.55 4.4433,2.461"
       inkscape:connector-curvature="0" />
    <path
       style="fill:none;stroke:#b88f00;stroke-width:0.50968999"
       id="path41"
       d="m 286.18,470.79 2.8275,3.6094"
       inkscape:connector-curvature="0" />
    <path
       style="fill:none;stroke:#b88f00;stroke-width:0.50968999"
       id="path43"
       d="m 290.75,469.43 0.80787,3.7735"
       inkscape:connector-curvature="0" />
    <path
       style="fill:none;stroke:#b88f00;stroke-width:0.50968999"
       id="path45"
       d="m 294.79,469.61 -0.80786,3.7735"
       inkscape:connector-curvature="0" />
    <path
       style="fill:none;stroke:#b88f00;stroke-width:0.50968999"
       id="path47"
       d="m 297.82,470.26 -1.6157,3.4454"
       inkscape:connector-curvature="0" />
    <path
       style="fill:none;stroke:#b88f00;stroke-width:0.50968999"
       id="path49"
       d="m 300.47,472.32 -2.8275,2.625"
       inkscape:connector-curvature="0" />
    <path
       style="fill:none;stroke:#b88f00;stroke-width:0.50968999"
       id="path51"
       d="m 302.46,474.53 -3.4334,1.4766"
       inkscape:connector-curvature="0" />
  </g>
</svg>
