<?xml version="1.0" encoding="UTF-8" standalone="no"?>
<svg
   xmlns:dc="http://purl.org/dc/elements/1.1/"
   xmlns:cc="http://creativecommons.org/ns#"
   xmlns:rdf="http://www.w3.org/1999/02/22-rdf-syntax-ns#"
   xmlns:svg="http://www.w3.org/2000/svg"
   xmlns="http://www.w3.org/2000/svg"
   xmlns:sodipodi="http://sodipodi.sourceforge.net/DTD/sodipodi-0.dtd"
   xmlns:inkscape="http://www.inkscape.org/namespaces/inkscape"
   viewBox="0 0 69.999999 70"
   version="1.1"
   id="svg1749"
   sodipodi:docname="B.svg"
   inkscape:version="0.92.3 (2405546, 2018-03-11)"
   width="70"
   height="70">
  <metadata
     id="metadata1753">
    <rdf:RDF>
      <cc:Work
         rdf:about="">
        <dc:format>image/svg+xml</dc:format>
        <dc:type
           rdf:resource="http://purl.org/dc/dcmitype/StillImage" />
        <dc:title></dc:title>
        <dc:title></dc:title>
      </cc:Work>
    </rdf:RDF>
  </metadata>
  <sodipodi:namedview
     pagecolor="#ffffff"
     bordercolor="#666666"
     borderopacity="1"
     objecttolerance="10"
     gridtolerance="10"
     guidetolerance="10"
     inkscape:pageopacity="0"
     inkscape:pageshadow="2"
     inkscape:window-width="1920"
     inkscape:window-height="1052"
     id="namedview1751"
     showgrid="false"
     inkscape:zoom="1.5831818"
     inkscape:cx="112.46351"
     inkscape:cy="175.00075"
     inkscape:window-x="0"
     inkscape:window-y="360"
     inkscape:window-maximized="1"
     inkscape:current-layer="svg1749" />
  <defs
     id="defs5">
    <filter
       id="a"
       x="-0.46415001"
       y="-0.46415001"
       width="1.9283"
       height="1.9283">
      <feGaussianBlur
         stdDeviation="3.0281"
         id="feGaussianBlur2" />
    </filter>
  </defs>
  <g
     id="g265"
     transform="translate(-414.30546,-177.80091)">
    <g
       style="fill:none;stroke:#668000;stroke-width:0.38308001"
       id="g193"
       transform="translate(-22,-2)">
      <path
         id="path177"
         d="m 457.51,196.14 h 7.59"
         inkscape:connector-curvature="0" />
      <path
         id="path179"
         d="m 458.87,198.98 5.313,-0.12331"
         inkscape:connector-curvature="0" />
      <path
         id="path181"
         d="m 456.14,201.69 h 7.8936"
         inkscape:connector-curvature="0" />
      <path
         id="path183"
         d="m 457.2,204.4 6.2238,0.24662"
         inkscape:connector-curvature="0" />
      <path
         id="path185"
         d="m 455.84,207.12 c 0.759,0 7.2864,0.12331 7.2864,0.12331"
         inkscape:connector-curvature="0" />
      <path
         id="path187"
         d="m 457.66,209.34 h 5.1612"
         inkscape:connector-curvature="0" />
      <path
         id="path189"
         d="m 455.23,212.3 6.831,-0.36994"
         inkscape:connector-curvature="0" />
      <path
         id="path191"
         d="m 456.59,214.39 4.7058,-0.12331"
         inkscape:connector-curvature="0" />
    </g>
    <path
       style="fill:#88aa00;stroke:#668000"
       id="path195"
       d="m 475.16,223.36 c 0.37874,8.7905 -7.2394,16.969 -16.029,17.264 -8.2694,0.87537 -16.598,0.28382 -24.892,0.42432 -3.4337,-0.0272 -7.1022,-1.3325 -8.8313,-4.5051 -2.082,-3.9202 -1.143,-8.5176 -1.4244,-12.769 0.007,-10.29 -0.0926,-20.586 0.10905,-30.873 -0.0591,-4.2706 3.2346,-8.2159 7.4898,-8.8126 7.6276,-0.64453 15.309,-0.16701 22.958,-0.28619 5.6421,0.10586 11.885,1.7448 15.191,6.7048 4.0566,5.4496 4.0351,13.794 -0.75321,18.801 -1.4808,2.3069 3.082,2.9292 3.6268,5.2314 1.7518,2.5726 2.6694,5.7087 2.5563,8.8207 z m -21.094,-21.867 c -0.0628,-3.0579 -3.9064,-2.4585 -6.0077,-2.4609 -1.6654,0 -3.8305,-1.1894 -4.9962,0 -1.1894,1.2135 -1.5749,4.4597 0,5.0977 3.2318,1.3091 7.3165,0.80691 10.453,-1.2016 0.35636,-0.38419 0.57635,-0.90666 0.55138,-1.4351 z m 2.0039,20.777 c -0.1578,-3.871 -5.1914,-3.3382 -7.9161,-3.1128 -1.6824,0.0711 -5.4598,-1.3183 -5.0917,1.6011 0,1.5704 -1.4806,4.1878 0,4.7111 3.7102,1.3112 7.9997,0.47091 11.826,-0.61162 0.87126,-0.5235 1.2625,-1.6091 1.1821,-2.5878 z"
       inkscape:connector-curvature="0" />
    <path
       style="fill:#e6e6e6;stroke:#668000;stroke-width:3"
       id="path197"
       d="m 235,223.08 c -3.4e-4,10.257 -8.3153,18.571 -18.572,18.571 -10.2567,0 -18.571,-8.3153 -18.571,-18.572 0,-10.2567 8.3153,-18.571 18.572,-18.571 10.2567,0 18.571,8.3153 18.571,18.572"
       transform="matrix(0.21252,0,0,0.17264,417.94,165.88)"
       inkscape:connector-curvature="0" />
    <path
       style="fill:#e6e6e6;stroke:#668000;stroke-width:3"
       id="path199"
       d="m 235,223.08 c -3.4e-4,10.257 -8.3153,18.571 -18.572,18.571 -10.2567,0 -18.571,-8.3153 -18.571,-18.572 0,-10.2567 8.3153,-18.571 18.572,-18.571 10.2567,0 18.571,8.3153 18.571,18.572"
       transform="matrix(0.25033,0,0,0.20335,417.95,163.22)"
       inkscape:connector-curvature="0" />
    <g
       id="g207"
       transform="matrix(0.18096,0,0,0.147,420.28,169.71)">
      <path
         style="fill:#445500;stroke:#222b00;stroke-width:2"
         id="path201"
         d="m 256.07,232.18 c -1.8e-4,5.4242 -4.3975,9.8213 -9.8218,9.8211 -5.4243,-2e-4 -9.8213,-4.3975 -9.8211,-9.8218 2e-4,-5.4243 4.3975,-9.8213 9.8218,-9.8211 5.4243,2e-4 9.8213,4.3975 9.8211,9.8218"
         inkscape:connector-curvature="0" />
      <path
         style="fill:#222b00"
         id="path203"
         d="m 250.36,232.18 c -7e-5,2.2683 -1.839,4.1071 -4.1073,4.107 -2.2683,-1e-4 -4.1071,-1.839 -4.107,-4.1073 1e-4,-2.2683 1.839,-4.1071 4.1073,-4.107 2.2683,1e-4 4.1071,1.839 4.107,4.1073"
         inkscape:connector-curvature="0" />
      <path
         style="fill:#cdde87"
         id="path205"
         d="m 251.43,228.79 c -4e-5,0.98622 -0.79955,1.7857 -1.7858,1.7856 -0.98625,-1e-4 -1.7857,-0.79955 -1.7856,-1.7858 1e-4,-0.98625 0.79955,-1.7857 1.7858,-1.7857 0.98625,0 1.7857,0.79955 1.7857,1.7858"
         transform="translate(0,1.0714)"
         inkscape:connector-curvature="0" />
    </g>
    <g
       id="g215"
       transform="matrix(0.24408,0,0,0.19827,412.97,162.71)">
      <path
         style="fill:#445500;stroke:#222b00;stroke-width:2"
         id="path209"
         d="m 256.07,232.18 c -1.8e-4,5.4242 -4.3975,9.8213 -9.8218,9.8211 -5.4243,-2e-4 -9.8213,-4.3975 -9.8211,-9.8218 2e-4,-5.4243 4.3975,-9.8213 9.8218,-9.8211 5.4243,2e-4 9.8213,4.3975 9.8211,9.8218"
         inkscape:connector-curvature="0" />
      <path
         style="fill:#222b00"
         id="path211"
         d="m 250.36,232.18 c -7e-5,2.2683 -1.839,4.1071 -4.1073,4.107 -2.2683,-1e-4 -4.1071,-1.839 -4.107,-4.1073 1e-4,-2.2683 1.839,-4.1071 4.1073,-4.107 2.2683,1e-4 4.1071,1.839 4.107,4.1073"
         inkscape:connector-curvature="0" />
      <path
         style="fill:#cdde87"
         id="path213"
         d="m 251.43,228.79 c -4e-5,0.98622 -0.79955,1.7857 -1.7858,1.7856 -0.98625,-1e-4 -1.7857,-0.79955 -1.7856,-1.7858 1e-4,-0.98625 0.79955,-1.7857 1.7858,-1.7857 0.98625,0 1.7857,0.79955 1.7857,1.7858"
         transform="translate(0,1.0714)"
         inkscape:connector-curvature="0" />
    </g>
    <path
       style="fill:none;stroke:#668000;stroke-width:0.38308001"
       id="path217"
       d="m 431.15,203.78 h -7.59"
       inkscape:connector-curvature="0" />
    <path
       style="fill:none;stroke:#668000;stroke-width:0.38308001"
       id="path219"
       d="m 429.34,206.62 -5.2941,-0.12331"
       inkscape:connector-curvature="0" />
    <path
       style="fill:none;stroke:#668000;stroke-width:0.38308001"
       id="path221"
       d="m 431.66,209.33 h -7.8936"
       inkscape:connector-curvature="0" />
    <path
       style="fill:none;stroke:#668000;stroke-width:0.38308001"
       id="path223"
       d="m 430.18,212.05 -6.2616,0.24662"
       inkscape:connector-curvature="0" />
    <path
       style="fill:none;stroke:#668000;stroke-width:0.38308001"
       id="path225"
       d="m 431.13,214.76 c -0.759,0 -7.3053,0.12331 -7.3053,0.12331"
       inkscape:connector-curvature="0" />
    <path
       style="fill:none;stroke:#668000;stroke-width:0.38308001"
       id="path227"
       d="m 428.97,216.98 h -5.1612"
       inkscape:connector-curvature="0" />
    <path
       style="fill:none;stroke:#668000;stroke-width:0.38308001"
       id="path229"
       d="m 430.95,219.94 -6.7742,-0.36994"
       inkscape:connector-curvature="0" />
    <path
       style="fill:none;stroke:#668000;stroke-width:0.38308001"
       id="path231"
       d="m 429.26,222.03 -4.6869,-0.12331"
       inkscape:connector-curvature="0" />
    <path
       style="fill:none;stroke:#668000;stroke-width:0.38308001"
       id="path233"
       d="m 461.08,234.4 0.12602,6.1647"
       inkscape:connector-curvature="0" />
    <path
       style="fill:none;stroke:#668000;stroke-width:0.38308001"
       id="path235"
       d="m 457.61,236.08 0.23999,4.3132"
       inkscape:connector-curvature="0" />
    <path
       style="fill:none;stroke:#668000;stroke-width:0.38308001"
       id="path237"
       d="m 454.28,234.3 0.13105,6.4113"
       inkscape:connector-curvature="0" />
    <path
       style="fill:none;stroke:#668000;stroke-width:0.38308001"
       id="path239"
       d="m 450.9,235.43 -0.20022,5.0592"
       inkscape:connector-curvature="0" />
    <path
       style="fill:none;stroke:#668000;stroke-width:0.38308001"
       id="path241"
       d="m 444.98,234.23 0.12602,6.1647"
       inkscape:connector-curvature="0" />
    <path
       style="fill:none;stroke:#668000;stroke-width:0.38308001"
       id="path243"
       d="m 441.51,235.91 0.23999,4.3133"
       inkscape:connector-curvature="0" />
    <path
       style="fill:none;stroke:#668000;stroke-width:0.38308001"
       id="path245"
       d="m 438.18,234.13 0.13106,6.4113"
       inkscape:connector-curvature="0" />
    <path
       style="fill:none;stroke:#668000;stroke-width:0.38308001"
       id="path247"
       d="m 434.8,235.25 -0.20023,5.0592"
       inkscape:connector-curvature="0" />
    <path
       style="fill:none;stroke:#668000;stroke-width:0.38308001"
       id="path249"
       d="m 459.86,190.44 0.12602,-6.1647"
       inkscape:connector-curvature="0" />
    <path
       style="fill:none;stroke:#668000;stroke-width:0.38308001"
       id="path251"
       d="m 456.39,188.76 0.23999,-4.3132"
       inkscape:connector-curvature="0" />
    <path
       style="fill:none;stroke:#668000;stroke-width:0.38308001"
       id="path253"
       d="m 453.06,190.54 0.13105,-6.4113"
       inkscape:connector-curvature="0" />
    <path
       style="fill:none;stroke:#668000;stroke-width:0.38308001"
       id="path255"
       d="m 449.69,189.41 -0.20022,-5.0592"
       inkscape:connector-curvature="0" />
    <path
       style="fill:none;stroke:#668000;stroke-width:0.38308001"
       id="path257"
       d="m 443.76,190.61 0.12602,-6.1647"
       inkscape:connector-curvature="0" />
    <path
       style="fill:none;stroke:#668000;stroke-width:0.38308001"
       id="path259"
       d="m 440.29,188.93 0.23999,-4.3133"
       inkscape:connector-curvature="0" />
    <path
       style="fill:none;stroke:#668000;stroke-width:0.38308001"
       id="path261"
       d="m 436.96,190.71 0.13106,-6.4113"
       inkscape:connector-curvature="0" />
    <path
       style="fill:none;stroke:#668000;stroke-width:0.38308001"
       id="path263"
       d="m 433.59,189.59 -0.20023,-5.0592"
       inkscape:connector-curvature="0" />
  </g>
</svg>
