<?xml version="1.0" encoding="UTF-8" standalone="no"?>
<svg
   xmlns:dc="http://purl.org/dc/elements/1.1/"
   xmlns:cc="http://creativecommons.org/ns#"
   xmlns:rdf="http://www.w3.org/1999/02/22-rdf-syntax-ns#"
   xmlns:svg="http://www.w3.org/2000/svg"
   xmlns="http://www.w3.org/2000/svg"
   xmlns:sodipodi="http://sodipodi.sourceforge.net/DTD/sodipodi-0.dtd"
   xmlns:inkscape="http://www.inkscape.org/namespaces/inkscape"
   viewBox="0 0 69.999999 70"
   version="1.1"
   id="svg1749"
   sodipodi:docname="C.svg"
   inkscape:version="0.92.3 (2405546, 2018-03-11)"
   width="70"
   height="70">
  <metadata
     id="metadata1753">
    <rdf:RDF>
      <cc:Work
         rdf:about="">
        <dc:format>image/svg+xml</dc:format>
        <dc:type
           rdf:resource="http://purl.org/dc/dcmitype/StillImage" />
        <dc:title></dc:title>
        <dc:title></dc:title>
      </cc:Work>
    </rdf:RDF>
  </metadata>
  <sodipodi:namedview
     pagecolor="#ffffff"
     bordercolor="#666666"
     borderopacity="1"
     objecttolerance="10"
     gridtolerance="10"
     guidetolerance="10"
     inkscape:pageopacity="0"
     inkscape:pageshadow="2"
     inkscape:window-width="1920"
     inkscape:window-height="1052"
     id="namedview1751"
     showgrid="false"
     inkscape:zoom="4.4779145"
     inkscape:cx="22.30818"
     inkscape:cy="32.391377"
     inkscape:window-x="0"
     inkscape:window-y="360"
     inkscape:window-maximized="1"
     inkscape:current-layer="svg1749" />
  <defs
     id="defs5">
    <filter
       id="a"
       x="-0.46415001"
       y="-0.46415001"
       width="1.9283"
       height="1.9283">
      <feGaussianBlur
         stdDeviation="3.0281"
         id="feGaussianBlur2" />
    </filter>
  </defs>
  <g
     id="g457"
     transform="translate(-484.03815,-177.65869)">
    <path
       style="fill:#c83737;stroke:#a02c2c"
       id="path359"
       d="m 543.95,222.58 c -6e-5,3.375 -0.99029,6.5156 -2.9707,9.4219 -1.98041,2.9063 -4.834,5.209 -8.5605,6.9082 -3.7265,1.6992 -8.0743,2.5488 -13.043,2.5488 -2.2969,-1e-5 -4.4649,-0.16993 -6.5039,-0.50977 -2.039,-0.33984 -3.8789,-0.83789 -5.5195,-1.4941 -1.6406,-0.65621 -3.1465,-1.4766 -4.5176,-2.4609 -1.3711,-0.9843 -2.6895,-2.168 -3.9551,-3.5508 -1.9688,-2.1328 -3.5098,-4.418 -4.623,-6.8555 -1.1132,-2.4375 -1.8809,-4.8633 -2.3027,-7.2773 -0.4218,-2.414 -0.63281,-4.8047 -0.63281,-7.1719 0,-4.5468 0.64453,-8.6425 1.9336,-12.287 1.28907,-3.6445 3.1465,-6.7734 5.5723,-9.3867 2.4258,-2.6133 5.3554,-4.6113 8.7891,-5.9941 3.4337,-1.3828 7.2363,-2.0742 11.408,-2.0742 5.8125,5e-5 10.6,0.97271 14.361,2.918 3.761,1.94529 6.4628,4.295 8.1035,7.0488 1.6407,2.7538 2.4609,5.3379 2.4609,7.752 -6e-5,2.086 -0.82037,3.9375 -2.4609,5.5547 -1.64053,1.6172 -3.7032,2.4258 -6.1875,2.4258 -2.3907,4e-5 -4.2129,-0.50973 -5.4668,-1.5293 -1.2539,-1.01957 -2.3145,-2.4785 -3.1816,-4.377 -0.42191,-0.96089 -0.97855,-1.705 -1.6699,-2.2324 -0.69135,-0.5274 -1.5118,-0.88472 -2.4609,-1.0723 -0.9491,-0.18758 -2.0918,-0.28121 -3.4277,-0.28125 -3.5625,4e-5 -5.9063,1.3125 -7.0312,3.9375 -1.125,2.625 -1.6875,5.5313 -1.6875,8.7188 v 1.1602 c -2e-5,2.7656 0.20505,4.9219 0.61523,6.4688 0.41018,1.5469 1.0254,2.8711 1.8457,3.9727 0.67967,0.82033 1.5762,1.459 2.6895,1.916 1.1133,0.457 2.2558,0.68557 3.4277,0.68555 1.9922,2e-5 3.6621,-0.46287 5.0098,-1.3887 1.3477,-0.92583 2.291,-2.0918 2.8301,-3.498 1.4062,-3.9375 4.2187,-5.9062 8.4375,-5.9062 1.5,3e-5 2.9179,0.30472 4.2539,0.91407 1.336,0.60935 2.414,1.5117 3.2344,2.707 0.8204,1.1953 1.2304,2.625 1.2305,4.2891 z"
       inkscape:connector-curvature="0" />
    <path
       style="fill:#f4d7d7;stroke:#a02c2c;stroke-width:3"
       id="path361"
       d="m 279.81,401.82 c -3e-4,8.9263 -7.2367,16.162 -16.163,16.162 -8.9263,0 -16.162,-7.2367 -16.162,-16.163 0,-8.9263 7.2367,-16.162 16.163,-16.162 8.9263,0 16.162,7.2367 16.162,16.163"
       transform="matrix(0.28275,0,0,0.22969,467.39,111.2)"
       inkscape:connector-curvature="0" />
    <path
       style="fill:#f4d7d7;stroke:#a02c2c;stroke-width:3"
       id="path363"
       d="m 216.17,363.44 c -5.1e-4,15.063 -12.212,27.274 -27.275,27.273 -15.063,-0.001 -27.274,-12.212 -27.273,-27.275 10e-4,-15.063 12.212,-27.274 27.275,-27.273 15.063,10e-4 27.274,12.212 27.273,27.275"
       transform="matrix(0.28275,0,0,0.22969,475.39,115.61)"
       inkscape:connector-curvature="0" />
    <path
       style="fill:#501616"
       id="path365"
       d="m 226.27,364.95 c -2.3e-4,6.9736 -5.6537,12.627 -12.627,12.626 -6.9733,-0.001 -12.627,-5.6537 -12.626,-12.627 0.001,-6.9733 5.6537,-12.627 12.627,-12.626 6.9733,0.001 12.627,5.6537 12.626,12.627"
       transform="matrix(0.28275,0,0,0.22969,469.97,115.61)"
       inkscape:connector-curvature="0" />
    <path
       style="fill:#501616"
       id="path367"
       d="m 226.27,364.95 c -2.3e-4,6.9736 -5.6537,12.627 -12.627,12.626 -6.9733,-0.001 -12.627,-5.6537 -12.626,-12.627 0.001,-6.9733 5.6537,-12.627 12.627,-12.626 6.9733,0.001 12.627,5.6537 12.626,12.627"
       transform="matrix(0.21489,0,0,0.17456,495.17,139.44)"
       inkscape:connector-curvature="0" />
    <path
       style="fill:#280b0b"
       id="path369"
       d="m 219.46,364.51 c -8e-5,2.2683 -1.839,4.1071 -4.1073,4.107 -2.2683,-1e-4 -4.1071,-1.839 -4.107,-4.1073 1e-4,-2.2683 1.839,-4.1071 4.1073,-4.107 2.2683,1e-4 4.1071,1.839 4.107,4.1073"
       transform="matrix(0.39954,0,0,0.32456,444.69,81.256)"
       inkscape:connector-curvature="0" />
    <path
       style="fill:#280b0b"
       id="path371"
       d="m 219.46,364.51 c -8e-5,2.2683 -1.839,4.1071 -4.1073,4.107 -2.2683,-1e-4 -4.1071,-1.839 -4.107,-4.1073 1e-4,-2.2683 1.839,-4.1071 4.1073,-4.107 2.2683,1e-4 4.1071,1.839 4.107,4.1073"
       transform="matrix(0.39954,0,0,0.32456,454.53,84.783)"
       inkscape:connector-curvature="0" />
    <path
       style="fill:#e9afaf"
       id="path373"
       d="m 221.79,362.9 c -4e-5,1.1835 -0.95946,2.1428 -2.1429,2.1428 -1.18344,0 -2.1428,-0.95947 -2.1428,-2.1429 0,-1.18343 0.95946,-2.1428 2.1429,-2.1428 1.18344,0 2.1428,0.95946 2.1428,2.1429"
       transform="matrix(0.28275,0,0,0.22969,469.97,115.61)"
       inkscape:connector-curvature="0" />
    <path
       style="fill:#ffd5d5"
       id="path375"
       d="m 221.79,362.9 c -4e-5,1.1835 -0.95946,2.1428 -2.1429,2.1428 -1.18344,0 -2.1428,-0.95947 -2.1428,-2.1429 0,-1.18343 0.95946,-2.1428 2.1429,-2.1428 1.18344,0 2.1428,0.95946 2.1428,2.1429"
       transform="matrix(0.28275,0,0,0.22969,479.96,119.39)"
       inkscape:connector-curvature="0" />
    <path
       style="fill:#a02c2c"
       id="path377"
       d="m 205,522.72 c -3.2e-4,9.665 -7.8356,17.5 -17.501,17.499 -9.6654,-0.001 -17.5,-7.8356 -17.499,-17.501 0.001,-9.6654 7.8356,-17.5 17.501,-17.499 9.6654,0.001 17.5,7.8356 17.499,17.501"
       transform="matrix(0.15003,0,0,0.12188,512.32,132.84)"
       inkscape:connector-curvature="0" />
    <path
       style="fill:#a02c2c"
       id="path379"
       d="m 205,522.72 c -3.2e-4,9.665 -7.8356,17.5 -17.501,17.499 -9.6654,-0.001 -17.5,-7.8356 -17.499,-17.501 0.001,-9.6654 7.8356,-17.5 17.501,-17.499 9.6654,0.001 17.5,7.8356 17.499,17.501"
       transform="matrix(0.10387,0,0,0.08438,498.67,146.17)"
       inkscape:connector-curvature="0" />
    <path
       style="fill:#a02c2c"
       id="path381"
       d="m 205,522.72 c -3.2e-4,9.665 -7.8356,17.5 -17.501,17.499 -9.6654,-0.001 -17.5,-7.8356 -17.499,-17.501 0.001,-9.6654 7.8356,-17.5 17.501,-17.499 9.6654,0.001 17.5,7.8356 17.499,17.501"
       transform="matrix(0.08656,0,0,0.07031,490.21,166.77)"
       inkscape:connector-curvature="0" />
    <path
       style="fill:#a02c2c"
       id="path383"
       d="m 205,522.72 c -3.2e-4,9.665 -7.8356,17.5 -17.501,17.499 -9.6654,-0.001 -17.5,-7.8356 -17.499,-17.501 0.001,-9.6654 7.8356,-17.5 17.501,-17.499 9.6654,0.001 17.5,7.8356 17.499,17.501"
       transform="matrix(0.28275,0,0,0.22969,451.75,111.63)"
       inkscape:connector-curvature="0" />
    <path
       style="fill:#a02c2c"
       id="path385"
       d="m 205,522.72 c -3.2e-4,9.665 -7.8356,17.5 -17.501,17.499 -9.6654,-0.001 -17.5,-7.8356 -17.499,-17.501 0.001,-9.6654 7.8356,-17.5 17.501,-17.499 9.6654,0.001 17.5,7.8356 17.499,17.501"
       transform="matrix(0.1558,0,0,0.12656,485.25,164.71)"
       inkscape:connector-curvature="0" />
    <path
       style="fill:#a02c2c"
       id="path387"
       d="m 205,522.72 c -3.2e-4,9.665 -7.8356,17.5 -17.501,17.499 -9.6654,-0.001 -17.5,-7.8356 -17.499,-17.501 0.001,-9.6654 7.8356,-17.5 17.501,-17.499 9.6654,0.001 17.5,7.8356 17.499,17.501"
       transform="matrix(0.22505,0,0,0.18282,478.73,139.57)"
       inkscape:connector-curvature="0" />
    <path
       style="fill:#a02c2c"
       id="path389"
       d="m 205,522.72 c -3.2e-4,9.665 -7.8356,17.5 -17.501,17.499 -9.6654,-0.001 -17.5,-7.8356 -17.499,-17.501 0.001,-9.6654 7.8356,-17.5 17.501,-17.499 9.6654,0.001 17.5,7.8356 17.499,17.501"
       transform="matrix(0.22505,0,0,0.18282,483.98,133.83)"
       inkscape:connector-curvature="0" />
    <path
       style="fill:#a02c2c"
       id="path391"
       d="m 205,522.72 c -3.2e-4,9.665 -7.8356,17.5 -17.501,17.499 -9.6654,-0.001 -17.5,-7.8356 -17.499,-17.501 0.001,-9.6654 7.8356,-17.5 17.501,-17.499 9.6654,0.001 17.5,7.8356 17.499,17.501"
       transform="matrix(0.12695,0,0,0.10313,488.54,181.8)"
       inkscape:connector-curvature="0" />
    <path
       style="fill:#a02c2c"
       id="path393"
       d="m 205,522.72 c -3.2e-4,9.665 -7.8356,17.5 -17.501,17.499 -9.6654,-0.001 -17.5,-7.8356 -17.499,-17.501 0.001,-9.6654 7.8356,-17.5 17.501,-17.499 9.6654,0.001 17.5,7.8356 17.499,17.501"
       transform="matrix(0.12695,0,0,0.10313,480.06,171.3)"
       inkscape:connector-curvature="0" />
    <path
       style="fill:#a02c2c"
       id="path395"
       d="m 205,522.72 c -3.2e-4,9.665 -7.8356,17.5 -17.501,17.499 -9.6654,-0.001 -17.5,-7.8356 -17.499,-17.501 0.001,-9.6654 7.8356,-17.5 17.501,-17.499 9.6654,0.001 17.5,7.8356 17.499,17.501"
       transform="matrix(0.12118,0,0,0.09844,505.47,183.19)"
       inkscape:connector-curvature="0" />
    <path
       style="fill:#a02c2c"
       id="path397"
       d="m 205,522.72 c -3.2e-4,9.665 -7.8356,17.5 -17.501,17.499 -9.6654,-0.001 -17.5,-7.8356 -17.499,-17.501 0.001,-9.6654 7.8356,-17.5 17.501,-17.499 9.6654,0.001 17.5,7.8356 17.499,17.501"
       transform="matrix(0.21351,0,0,0.17344,494.42,135.94)"
       inkscape:connector-curvature="0" />
    <path
       style="fill:#a02c2c"
       id="path399"
       d="m 205,522.72 c -3.2e-4,9.665 -7.8356,17.5 -17.501,17.499 -9.6654,-0.001 -17.5,-7.8356 -17.499,-17.501 0.001,-9.6654 7.8356,-17.5 17.501,-17.499 9.6654,0.001 17.5,7.8356 17.499,17.501"
       transform="matrix(-0.00665,-0.28268,-0.22963,0.0054,623.01,271.02)"
       inkscape:connector-curvature="0" />
    <path
       style="fill:#a02c2c"
       id="path401"
       d="m 205,522.72 c -3.2e-4,9.665 -7.8356,17.5 -17.501,17.499 -9.6654,-0.001 -17.5,-7.8356 -17.499,-17.501 0.001,-9.6654 7.8356,-17.5 17.501,-17.499 9.6654,0.001 17.5,7.8356 17.499,17.501"
       transform="matrix(-0.00366,-0.15576,-0.12653,0.00297,569.15,238.78)"
       inkscape:connector-curvature="0" />
    <path
       style="fill:#a02c2c"
       id="path403"
       d="m 205,522.72 c -3.2e-4,9.665 -7.8356,17.5 -17.501,17.499 -9.6654,-0.001 -17.5,-7.8356 -17.499,-17.501 0.001,-9.6654 7.8356,-17.5 17.501,-17.499 9.6654,0.001 17.5,7.8356 17.499,17.501"
       transform="matrix(-0.00529,-0.22499,-0.18276,0.0043,594.44,244.7)"
       inkscape:connector-curvature="0" />
    <path
       style="fill:#a02c2c"
       id="path405"
       d="m 205,522.72 c -3.2e-4,9.665 -7.8356,17.5 -17.501,17.499 -9.6654,-0.001 -17.5,-7.8356 -17.499,-17.501 0.001,-9.6654 7.8356,-17.5 17.501,-17.499 9.6654,0.001 17.5,7.8356 17.499,17.501"
       transform="matrix(-0.00529,-0.22499,-0.18276,0.0043,600.05,239.32)"
       inkscape:connector-curvature="0" />
    <path
       style="fill:#a02c2c"
       id="path407"
       d="m 205,522.72 c -3.2e-4,9.665 -7.8356,17.5 -17.501,17.499 -9.6654,-0.001 -17.5,-7.8356 -17.499,-17.501 0.001,-9.6654 7.8356,-17.5 17.501,-17.499 9.6654,0.001 17.5,7.8356 17.499,17.501"
       transform="matrix(-0.00298,-0.12692,-0.1031,0.00242,551.99,235.89)"
       inkscape:connector-curvature="0" />
    <path
       style="fill:#a02c2c"
       id="path409"
       d="m 205,522.72 c -3.2e-4,9.665 -7.8356,17.5 -17.501,17.499 -9.6654,-0.001 -17.5,-7.8356 -17.499,-17.501 0.001,-9.6654 7.8356,-17.5 17.501,-17.499 9.6654,0.001 17.5,7.8356 17.499,17.501"
       transform="matrix(-0.00298,-0.12692,-0.1031,0.00242,562.69,244.12)"
       inkscape:connector-curvature="0" />
    <path
       style="fill:#a02c2c"
       id="path411"
       d="m 205,522.72 c -3.2e-4,9.665 -7.8356,17.5 -17.501,17.499 -9.6654,-0.001 -17.5,-7.8356 -17.499,-17.501 0.001,-9.6654 7.8356,-17.5 17.501,-17.499 9.6654,0.001 17.5,7.8356 17.499,17.501"
       transform="matrix(-0.00285,-0.12115,-0.09841,0.00231,550.21,218.99)"
       inkscape:connector-curvature="0" />
    <path
       style="fill:#a02c2c"
       id="path413"
       d="m 205,522.72 c -3.2e-4,9.665 -7.8356,17.5 -17.501,17.499 -9.6654,-0.001 -17.5,-7.8356 -17.499,-17.501 0.001,-9.6654 7.8356,-17.5 17.501,-17.499 9.6654,0.001 17.5,7.8356 17.499,17.501"
       transform="matrix(-0.00502,-0.21345,-0.17339,0.00408,597.7,228.93)"
       inkscape:connector-curvature="0" />
    <path
       style="fill:#a02c2c"
       id="path415"
       d="m 205,522.72 c -3.2e-4,9.665 -7.8356,17.5 -17.501,17.499 -9.6654,-0.001 -17.5,-7.8356 -17.499,-17.501 0.001,-9.6654 7.8356,-17.5 17.501,-17.499 9.6654,0.001 17.5,7.8356 17.499,17.501"
       transform="matrix(0.05382,0.06779,-0.05507,0.04372,532.54,160.46)"
       inkscape:connector-curvature="0" />
    <path
       style="fill:#a02c2c"
       id="path417"
       d="m 205,522.72 c -3.2e-4,9.665 -7.8356,17.5 -17.501,17.499 -9.6654,-0.001 -17.5,-7.8356 -17.499,-17.501 0.001,-9.6654 7.8356,-17.5 17.501,-17.499 9.6654,0.001 17.5,7.8356 17.499,17.501"
       transform="matrix(0.17292,-0.14404,-0.11701,-0.14047,544.02,291.59)"
       inkscape:connector-curvature="0" />
    <path
       style="fill:#a02c2c"
       id="path419"
       d="m 205,522.72 c -3.2e-4,9.665 -7.8356,17.5 -17.501,17.499 -9.6654,-0.001 -17.5,-7.8356 -17.499,-17.501 0.001,-9.6654 7.8356,-17.5 17.501,-17.499 9.6654,0.001 17.5,7.8356 17.499,17.501"
       transform="matrix(0.09311,-0.07756,-0.063,-0.07564,528.95,239.91)"
       inkscape:connector-curvature="0" />
    <path
       style="fill:#a02c2c"
       id="path421"
       d="m 205,522.72 c -3.2e-4,9.665 -7.8356,17.5 -17.501,17.499 -9.6654,-0.001 -17.5,-7.8356 -17.499,-17.501 0.001,-9.6654 7.8356,-17.5 17.501,-17.499 9.6654,0.001 17.5,7.8356 17.499,17.501"
       transform="matrix(0.16405,-0.13665,-0.11101,-0.13326,550.7,283.28)"
       inkscape:connector-curvature="0" />
    <path
       style="fill:#a02c2c"
       id="path423"
       d="m 205,522.72 c -3.2e-4,9.665 -7.8356,17.5 -17.501,17.499 -9.6654,-0.001 -17.5,-7.8356 -17.499,-17.501 0.001,-9.6654 7.8356,-17.5 17.501,-17.499 9.6654,0.001 17.5,7.8356 17.499,17.501"
       transform="matrix(0.28275,0,0,0.22969,451.75,111.63)"
       inkscape:connector-curvature="0" />
    <path
       style="fill:#a02c2c"
       id="path425"
       d="m 205,522.72 c -3.2e-4,9.665 -7.8356,17.5 -17.501,17.499 -9.6654,-0.001 -17.5,-7.8356 -17.499,-17.501 0.001,-9.6654 7.8356,-17.5 17.501,-17.499 9.6654,0.001 17.5,7.8356 17.499,17.501"
       transform="matrix(0.08656,0,0,0.07031,490.21,166.77)"
       inkscape:connector-curvature="0" />
    <path
       style="fill:#a02c2c"
       id="path427"
       d="m 205,522.72 c -3.2e-4,9.665 -7.8356,17.5 -17.501,17.499 -9.6654,-0.001 -17.5,-7.8356 -17.499,-17.501 0.001,-9.6654 7.8356,-17.5 17.501,-17.499 9.6654,0.001 17.5,7.8356 17.499,17.501"
       transform="matrix(0.28275,0,0,0.22969,451.75,111.63)"
       inkscape:connector-curvature="0" />
    <path
       style="fill:#a02c2c"
       id="path429"
       d="m 205,522.72 c -3.2e-4,9.665 -7.8356,17.5 -17.501,17.499 -9.6654,-0.001 -17.5,-7.8356 -17.499,-17.501 0.001,-9.6654 7.8356,-17.5 17.501,-17.499 9.6654,0.001 17.5,7.8356 17.499,17.501"
       transform="matrix(0.1558,0,0,0.12656,485.25,164.71)"
       inkscape:connector-curvature="0" />
    <path
       style="fill:#a02c2c"
       id="path431"
       d="m 205,522.72 c -3.2e-4,9.665 -7.8356,17.5 -17.501,17.499 -9.6654,-0.001 -17.5,-7.8356 -17.499,-17.501 0.001,-9.6654 7.8356,-17.5 17.501,-17.499 9.6654,0.001 17.5,7.8356 17.499,17.501"
       transform="matrix(0.12695,0,0,0.10313,488.54,181.8)"
       inkscape:connector-curvature="0" />
    <path
       style="fill:#a02c2c"
       id="path433"
       d="m 205,522.72 c -3.2e-4,9.665 -7.8356,17.5 -17.501,17.499 -9.6654,-0.001 -17.5,-7.8356 -17.499,-17.501 0.001,-9.6654 7.8356,-17.5 17.501,-17.499 9.6654,0.001 17.5,7.8356 17.499,17.501"
       transform="matrix(0.12695,0,0,0.10313,480.06,171.3)"
       inkscape:connector-curvature="0" />
    <path
       style="fill:#a02c2c"
       id="path435"
       d="m 205,522.72 c -3.2e-4,9.665 -7.8356,17.5 -17.501,17.499 -9.6654,-0.001 -17.5,-7.8356 -17.499,-17.501 0.001,-9.6654 7.8356,-17.5 17.501,-17.499 9.6654,0.001 17.5,7.8356 17.499,17.501"
       transform="matrix(-0.00665,-0.28268,-0.22963,0.0054,623.01,271.02)"
       inkscape:connector-curvature="0" />
    <path
       style="fill:#a02c2c"
       id="path437"
       d="m 205,522.72 c -3.2e-4,9.665 -7.8356,17.5 -17.501,17.499 -9.6654,-0.001 -17.5,-7.8356 -17.499,-17.501 0.001,-9.6654 7.8356,-17.5 17.501,-17.499 9.6654,0.001 17.5,7.8356 17.499,17.501"
       transform="matrix(-0.00366,-0.15576,-0.12653,0.00297,569.15,238.78)"
       inkscape:connector-curvature="0" />
    <path
       style="fill:#a02c2c"
       id="path439"
       d="m 205,522.72 c -3.2e-4,9.665 -7.8356,17.5 -17.501,17.499 -9.6654,-0.001 -17.5,-7.8356 -17.499,-17.501 0.001,-9.6654 7.8356,-17.5 17.501,-17.499 9.6654,0.001 17.5,7.8356 17.499,17.501"
       transform="matrix(-0.00529,-0.22499,-0.18276,0.0043,594.44,244.7)"
       inkscape:connector-curvature="0" />
    <path
       style="fill:#a02c2c"
       id="path441"
       d="m 205,522.72 c -3.2e-4,9.665 -7.8356,17.5 -17.501,17.499 -9.6654,-0.001 -17.5,-7.8356 -17.499,-17.501 0.001,-9.6654 7.8356,-17.5 17.501,-17.499 9.6654,0.001 17.5,7.8356 17.499,17.501"
       transform="matrix(-0.00529,-0.22499,-0.18276,0.0043,600.05,239.32)"
       inkscape:connector-curvature="0" />
    <path
       style="fill:#a02c2c"
       id="path443"
       d="m 205,522.72 c -3.2e-4,9.665 -7.8356,17.5 -17.501,17.499 -9.6654,-0.001 -17.5,-7.8356 -17.499,-17.501 0.001,-9.6654 7.8356,-17.5 17.501,-17.499 9.6654,0.001 17.5,7.8356 17.499,17.501"
       transform="matrix(-0.00298,-0.12692,-0.1031,0.00242,551.99,235.89)"
       inkscape:connector-curvature="0" />
    <path
       style="fill:#a02c2c"
       id="path445"
       d="m 205,522.72 c -3.2e-4,9.665 -7.8356,17.5 -17.501,17.499 -9.6654,-0.001 -17.5,-7.8356 -17.499,-17.501 0.001,-9.6654 7.8356,-17.5 17.501,-17.499 9.6654,0.001 17.5,7.8356 17.499,17.501"
       transform="matrix(-0.00298,-0.12692,-0.1031,0.00242,562.69,244.12)"
       inkscape:connector-curvature="0" />
    <path
       style="fill:#a02c2c"
       id="path447"
       d="m 205,522.72 c -3.2e-4,9.665 -7.8356,17.5 -17.501,17.499 -9.6654,-0.001 -17.5,-7.8356 -17.499,-17.501 0.001,-9.6654 7.8356,-17.5 17.501,-17.499 9.6654,0.001 17.5,7.8356 17.499,17.501"
       transform="matrix(-0.00285,-0.12115,-0.09841,0.00231,550.21,218.99)"
       inkscape:connector-curvature="0" />
    <path
       style="fill:#a02c2c"
       id="path449"
       d="m 205,522.72 c -3.2e-4,9.665 -7.8356,17.5 -17.501,17.499 -9.6654,-0.001 -17.5,-7.8356 -17.499,-17.501 0.001,-9.6654 7.8356,-17.5 17.501,-17.499 9.6654,0.001 17.5,7.8356 17.499,17.501"
       transform="matrix(-0.00502,-0.21345,-0.17339,0.00408,597.7,228.93)"
       inkscape:connector-curvature="0" />
    <path
       style="fill:#a02c2c"
       id="path451"
       d="m 205,522.72 c -3.2e-4,9.665 -7.8356,17.5 -17.501,17.499 -9.6654,-0.001 -17.5,-7.8356 -17.499,-17.501 0.001,-9.6654 7.8356,-17.5 17.501,-17.499 9.6654,0.001 17.5,7.8356 17.499,17.501"
       transform="matrix(0.05382,0.06779,-0.05507,0.04372,532.54,160.46)"
       inkscape:connector-curvature="0" />
    <path
       style="fill:#a02c2c"
       id="path453"
       d="m 205,522.72 c -3.2e-4,9.665 -7.8356,17.5 -17.501,17.499 -9.6654,-0.001 -17.5,-7.8356 -17.499,-17.501 0.001,-9.6654 7.8356,-17.5 17.501,-17.499 9.6654,0.001 17.5,7.8356 17.499,17.501"
       transform="matrix(0.09311,-0.07756,-0.063,-0.07564,528.95,239.91)"
       inkscape:connector-curvature="0" />
    <path
       style="fill:#a02c2c"
       id="path455"
       d="m 205,522.72 c -3.2e-4,9.665 -7.8356,17.5 -17.501,17.499 -9.6654,-0.001 -17.5,-7.8356 -17.499,-17.501 0.001,-9.6654 7.8356,-17.5 17.501,-17.499 9.6654,0.001 17.5,7.8356 17.499,17.501"
       transform="matrix(0.28275,0,0,0.22969,451.75,111.63)"
       inkscape:connector-curvature="0" />
  </g>
</svg>
