<?xml version="1.0" encoding="UTF-8" standalone="no"?>
<svg
   xmlns:dc="http://purl.org/dc/elements/1.1/"
   xmlns:cc="http://creativecommons.org/ns#"
   xmlns:rdf="http://www.w3.org/1999/02/22-rdf-syntax-ns#"
   xmlns:svg="http://www.w3.org/2000/svg"
   xmlns="http://www.w3.org/2000/svg"
   xmlns:sodipodi="http://sodipodi.sourceforge.net/DTD/sodipodi-0.dtd"
   xmlns:inkscape="http://www.inkscape.org/namespaces/inkscape"
   viewBox="0 0 69.999999 70"
   version="1.1"
   id="svg1749"
   sodipodi:docname="D.svg"
   inkscape:version="0.92.3 (2405546, 2018-03-11)"
   width="70"
   height="70">
  <metadata
     id="metadata1753">
    <rdf:RDF>
      <cc:Work
         rdf:about="">
        <dc:format>image/svg+xml</dc:format>
        <dc:type
           rdf:resource="http://purl.org/dc/dcmitype/StillImage" />
        <dc:title></dc:title>
        <dc:title></dc:title>
      </cc:Work>
    </rdf:RDF>
  </metadata>
  <sodipodi:namedview
     pagecolor="#ffffff"
     bordercolor="#666666"
     borderopacity="1"
     objecttolerance="10"
     gridtolerance="10"
     guidetolerance="10"
     inkscape:pageopacity="0"
     inkscape:pageshadow="2"
     inkscape:window-width="1920"
     inkscape:window-height="1052"
     id="namedview1751"
     showgrid="false"
     inkscape:zoom="4.4779145"
     inkscape:cx="22.30818"
     inkscape:cy="32.391377"
     inkscape:window-x="0"
     inkscape:window-y="360"
     inkscape:window-maximized="1"
     inkscape:current-layer="svg1749" />
  <defs
     id="defs5">
    <filter
       id="a"
       x="-0.46415001"
       y="-0.46415001"
       width="1.9283"
       height="1.9283">
      <feGaussianBlur
         stdDeviation="3.0281"
         id="feGaussianBlur2" />
    </filter>
  </defs>
  <g
     id="g613"
     transform="translate(-555.87056,-175.68827)">
    <path
       style="fill:#0088aa;stroke:#006680"
       id="path581"
       d="m 617.16,210.64 c -5e-5,2.5547 -0.18755,5.1153 -0.5625,7.6816 -0.37505,2.5664 -1.2422,5.2793 -2.6016,8.1387 -1.3594,2.8594 -3.3985,5.4492 -6.1172,7.7695 -2.0391,1.7344 -4.5704,3.0469 -7.5938,3.9375 -3.0234,0.8906 -6.2578,1.3359 -9.7031,1.3359 h -10.582 c -2.5781,0 -4.6055,-0.0996 -6.082,-0.29883 -1.4765,-0.19923 -2.6895,-0.60938 -3.6387,-1.2305 -0.9492,-0.62112 -1.8574,-1.5762 -2.7246,-2.8652 -0.58595,-0.93749 -0.98438,-2.0976 -1.1953,-3.4805 -0.21092,-1.3829 -0.31641,-3.4102 -0.3164,-6.082 v -29.391 c -1e-5,-2.6015 0.0644,-4.5117 0.19336,-5.7305 0.12896,-1.2188 0.36913,-2.1855 0.7207,-2.9004 0.35157,-0.7149 0.96093,-1.5292 1.8281,-2.4434 0.79687,-0.84369 1.6055,-1.4648 2.4258,-1.8633 0.8203,-0.3985 1.8574,-0.66791 3.1113,-0.80859 1.2539,-0.14068 3.1465,-0.21088 5.6777,-0.21094 h 10.301 c 2.1093,6e-5 4.084,0.10552 5.9238,0.3164 1.8398,0.21088 3.6914,0.66217 5.5547,1.3535 1.8633,0.69133 3.58,1.6465 5.1504,2.8652 2.3437,1.7344 4.2832,3.8204 5.8184,6.2578 1.5352,2.4374 2.6542,5.1328 3.3574,8.0859 0.7032,2.9531 1.0546,6.1407 1.0547,9.5625 z m -19.09,0.35157 c -4e-5,-2.9531 -0.31058,-5.332 -0.93164,-7.1367 -0.62106,-1.8047 -1.4473,-3.1054 -2.4785,-3.9024 -1.0312,-0.797 -2.1621,-1.2949 -3.3926,-1.4941 -1.2305,-0.1992 -2.8536,-0.29878 -4.8691,-0.29882 h -1.4414 v 25.348 h 2.9531 c 2.1562,2e-5 3.9258,-0.23436 5.3086,-0.70312 1.3828,-0.46876 2.5371,-1.6054 3.4629,-3.4102 0.9258,-1.8048 1.3886,-4.6054 1.3887,-8.4023 z"
       inkscape:connector-curvature="0" />
    <path
       style="fill:#d5f6ff;stroke:#006680;stroke-width:3"
       id="path583"
       d="m 185.87,351.32 c -3.1e-4,9.4842 -7.689,17.172 -17.173,17.172 -9.484,0 -17.172,-7.689 -17.172,-17.173 0,-9.484 7.689,-17.172 17.173,-17.172 9.484,0 17.172,7.689 17.172,17.173"
       transform="matrix(0.29129,0,0,0.23663,545.85,114.11)"
       inkscape:connector-curvature="0" />
    <path
       style="fill:#d5f6ff;stroke:#006680;stroke-width:3"
       id="path585"
       d="m 185.87,351.32 c -3.1e-4,9.4842 -7.689,17.172 -17.173,17.172 -9.484,0 -17.172,-7.689 -17.172,-17.173 0,-9.484 7.689,-17.172 17.173,-17.172 9.484,0 17.172,7.689 17.172,17.173"
       transform="matrix(0.24402,0,0,0.19822,542.93,127.48)"
       inkscape:connector-curvature="0" />
    <path
       style="fill:#004455"
       id="path587"
       d="m 178.8,351.57 c -1.5e-4,4.6026 -3.7314,8.3336 -8.334,8.3335 -4.6026,-1e-4 -8.3336,-3.7314 -8.3335,-8.334 1e-4,-4.6026 3.7314,-8.3336 8.334,-8.3335 4.6026,1e-4 8.3336,3.7314 8.3335,8.334"
       transform="matrix(0.29129,0,0,0.23663,545.85,114.11)"
       inkscape:connector-curvature="0" />
    <path
       style="fill:#004455"
       id="path589"
       d="m 178.8,351.57 c -1.5e-4,4.6026 -3.7314,8.3336 -8.334,8.3335 -4.6026,-1e-4 -8.3336,-3.7314 -8.3335,-8.334 1e-4,-4.6026 3.7314,-8.3336 8.334,-8.3335 4.6026,1e-4 8.3336,3.7314 8.3335,8.334"
       transform="matrix(0.23392,0,0,0.19002,543.45,130.28)"
       inkscape:connector-curvature="0" />
    <g
       id="g595"
       transform="matrix(0.29129,0,0,0.23663,545.85,114.11)">
      <path
         style="fill:#00222b"
         id="path591"
         d="m 174.25,350.94 c -8e-5,2.1618 -1.7526,3.9143 -3.9145,3.9142 -2.1619,-10e-5 -3.9143,-1.7526 -3.9142,-3.9145 1e-4,-2.1619 1.7526,-3.9143 3.9145,-3.9142 2.1619,10e-5 3.9143,1.7526 3.9142,3.9145"
         inkscape:connector-curvature="0" />
      <path
         style="fill:#aaeeff"
         id="path593"
         d="m 174.5,348.66 c -3e-5,0.90657 -0.73498,1.6415 -1.6416,1.6414 -0.90662,-10e-5 -1.6415,-0.73498 -1.6414,-1.6416 10e-5,-0.90662 0.73498,-1.6415 1.6416,-1.6414 0.90662,1e-4 1.6415,0.73497 1.6414,1.6416"
         inkscape:connector-curvature="0" />
    </g>
    <g
       id="g601"
       transform="matrix(0.20672,0,0,0.16793,548.08,138.13)">
      <path
         style="fill:#00222b"
         id="path597"
         d="m 174.25,350.94 c -8e-5,2.1618 -1.7526,3.9143 -3.9145,3.9142 -2.1619,-10e-5 -3.9143,-1.7526 -3.9142,-3.9145 1e-4,-2.1619 1.7526,-3.9143 3.9145,-3.9142 2.1619,10e-5 3.9143,1.7526 3.9142,3.9145"
         inkscape:connector-curvature="0" />
      <path
         style="fill:#aaeeff"
         id="path599"
         d="m 174.5,348.66 c -3e-5,0.90657 -0.73498,1.6415 -1.6416,1.6414 -0.90662,-10e-5 -1.6415,-0.73498 -1.6414,-1.6416 10e-5,-0.90662 0.73498,-1.6415 1.6416,-1.6414 0.90662,1e-4 1.6415,0.73497 1.6414,1.6416"
         inkscape:connector-curvature="0" />
    </g>
    <path
       style="fill:#d5f6ff;fill-rule:evenodd;stroke:#004455;stroke-width:0.78763002"
       id="path603"
       d="m 581.59,203.93 h 13.094 c 0,0 -4.2666,4.5416 -7.9448,4.5416 -3.6782,0 -5.0023,-4.3025 -5.1494,-4.5416 z"
       inkscape:connector-curvature="0" />
    <path
       style="fill:none;stroke:#0088aa;stroke-width:0.78763002"
       id="path605"
       d="m 585.07,203.97 v 1.6902"
       inkscape:connector-curvature="0" />
    <path
       style="fill:none;stroke:#0088aa;stroke-width:0.78763002"
       id="path607"
       d="m 589.7,204.01 v 1.6902"
       inkscape:connector-curvature="0" />
    <path
       style="fill:none;stroke:#0088aa;stroke-width:0.78763002"
       id="path609"
       d="m 586.79,205.64 v 2.6539"
       inkscape:connector-curvature="0" />
    <path
       style="fill:none;stroke:#006680;stroke-width:0.50494999"
       id="path611"
       d="m 586.03,239.61 c 0,0 9.0184,-1.372 11.579,-4.4156 2.5606,-3.0436 -2.5254,-4.9241 -4.7829,-3.9171 -2.2575,1.007 -2.4652,3.6927 -0.80167,4.1032 1.66353,0.4105 3.725,-0.56668 3.3387,-1.835 -0.3863,-1.26832 -2.4002,0.0334 -2.4002,0.0334"
       inkscape:connector-curvature="0" />
  </g>
</svg>
