<?xml version="1.0" encoding="UTF-8" standalone="no"?>
<svg
   xmlns:dc="http://purl.org/dc/elements/1.1/"
   xmlns:cc="http://creativecommons.org/ns#"
   xmlns:rdf="http://www.w3.org/1999/02/22-rdf-syntax-ns#"
   xmlns:svg="http://www.w3.org/2000/svg"
   xmlns="http://www.w3.org/2000/svg"
   xmlns:sodipodi="http://sodipodi.sourceforge.net/DTD/sodipodi-0.dtd"
   xmlns:inkscape="http://www.inkscape.org/namespaces/inkscape"
   viewBox="0 0 69.999999 70"
   version="1.1"
   id="svg1749"
   sodipodi:docname="F.svg"
   inkscape:version="0.92.3 (2405546, 2018-03-11)"
   width="70"
   height="70">
  <metadata
     id="metadata1753">
    <rdf:RDF>
      <cc:Work
         rdf:about="">
        <dc:format>image/svg+xml</dc:format>
        <dc:type
           rdf:resource="http://purl.org/dc/dcmitype/StillImage" />
        <dc:title></dc:title>
        <dc:title></dc:title>
      </cc:Work>
    </rdf:RDF>
  </metadata>
  <sodipodi:namedview
     pagecolor="#ffffff"
     bordercolor="#666666"
     borderopacity="1"
     objecttolerance="10"
     gridtolerance="10"
     guidetolerance="10"
     inkscape:pageopacity="0"
     inkscape:pageshadow="2"
     inkscape:window-width="1920"
     inkscape:window-height="1052"
     id="namedview1751"
     showgrid="false"
     inkscape:zoom="4.4779145"
     inkscape:cx="22.30818"
     inkscape:cy="50.256837"
     inkscape:window-x="0"
     inkscape:window-y="360"
     inkscape:window-maximized="1"
     inkscape:current-layer="svg1749" />
  <defs
     id="defs5">
    <filter
       id="a"
       x="-0.46415001"
       y="-0.46415001"
       width="1.9283"
       height="1.9283">
      <feGaussianBlur
         stdDeviation="3.0281"
         id="feGaussianBlur2" />
    </filter>
  </defs>
  <g
     id="g1097"
     transform="translate(-677.17981,-172.33986)"
     inkscape:transform-center-x="14.070915"
     inkscape:transform-center-y="-10.041862">
    <path
       style="fill:#eeffaa;stroke:#445500;stroke-width:3"
       id="path1023"
       d="m 447.14,337.72 c -2.4e-4,7.298 -5.9167,13.214 -13.215,13.214 -7.2983,0 -13.214,-5.9167 -13.214,-13.215 0,-7.2983 5.9167,-13.214 13.215,-13.214 7.2983,0 13.214,5.9167 13.214,13.215"
       transform="matrix(0.3308,0,0,0.26872,550.87,98.251)"
       inkscape:connector-curvature="0" />
    <path
       style="fill:#445500"
       id="path1025"
       d="m 447.14,337.72 c -2.4e-4,7.298 -5.9167,13.214 -13.215,13.214 -7.2983,0 -13.214,-5.9167 -13.214,-13.215 0,-7.2983 5.9167,-13.214 13.215,-13.214 7.2983,0 13.214,5.9167 13.214,13.215"
       transform="matrix(0.17148,0,0,0.1393,618.68,142.32)"
       inkscape:connector-curvature="0" />
    <path
       style="fill:#222b00"
       id="path1027"
       d="m 447.14,337.72 c -2.4e-4,7.298 -5.9167,13.214 -13.215,13.214 -7.2983,0 -13.214,-5.9167 -13.214,-13.215 0,-7.2983 5.9167,-13.214 13.215,-13.214 7.2983,0 13.214,5.9167 13.214,13.215"
       transform="matrix(0.09864,0,0,0.08013,650.43,162.26)"
       inkscape:connector-curvature="0" />
    <path
       style="fill:#eeffaa"
       id="path1029"
       d="m 447.14,337.72 c -2.4e-4,7.298 -5.9167,13.214 -13.215,13.214 -7.2983,0 -13.214,-5.9167 -13.214,-13.215 0,-7.2983 5.9167,-13.214 13.215,-13.214 7.2983,0 13.214,5.9167 13.214,13.215"
       transform="matrix(0.04498,0,0,0.03654,674.43,176.41)"
       inkscape:connector-curvature="0" />
    <path
       style="fill:#aad400;stroke:#668000;stroke-opacity:0.63919995"
       id="path1031"
       d="m 734.88,185.68 c 0.20319,7.7281 -9.1484,8.42 -14.861,7.7695 -2.7156,0.49615 -8.1047,-1.7229 -6.6917,2.998 2.675,5.069 12.606,-1.2187 16.444,4.638 6.3076,8.095 -5.2192,15.144 -12.588,12.512 -8.503,-0.2051 -0.66102,12.745 -5.1484,17.664 -3.6785,8.1029 -17.13,5.01 -17.467,-3.6466 0.0678,-14.305 -0.53471,-28.659 0.34362,-42.934 2.6841,-8.7751 13.573,-6.7528 20.637,-6.8112 6.5704,0.35991 17.788,-2.3634 19.271,6.7237 l 0.0599,1.0865 z"
       inkscape:connector-curvature="0" />
    <path
       style="fill:#eeffaa;stroke:#445500;stroke-width:3"
       id="path1033"
       d="m 447.14,337.72 c -2.4e-4,7.298 -5.9167,13.214 -13.215,13.214 -7.2983,0 -13.214,-5.9167 -13.214,-13.215 0,-7.2983 5.9167,-13.214 13.215,-13.214 7.2983,0 13.214,5.9167 13.214,13.215"
       transform="matrix(0.42688,0,0,0.34677,516.23,74.585)"
       inkscape:connector-curvature="0" />
    <path
       style="fill:#445500"
       id="path1035"
       d="m 447.14,337.72 c -2.4e-4,7.298 -5.9167,13.214 -13.215,13.214 -7.2983,0 -13.214,-5.9167 -13.214,-13.215 0,-7.2983 5.9167,-13.214 13.215,-13.214 7.2983,0 13.214,5.9167 13.214,13.215"
       transform="matrix(0.24172,0,0,0.19636,597.18,125.54)"
       inkscape:connector-curvature="0" />
    <path
       style="fill:#222b00"
       id="path1037"
       d="m 447.14,337.72 c -2.4e-4,7.298 -5.9167,13.214 -13.215,13.214 -7.2983,0 -13.214,-5.9167 -13.214,-13.215 0,-7.2983 5.9167,-13.214 13.215,-13.214 7.2983,0 13.214,5.9167 13.214,13.215"
       transform="matrix(0.13905,0,0,0.11296,641.95,153.65)"
       inkscape:connector-curvature="0" />
    <path
       style="fill:#eeffaa"
       id="path1039"
       d="m 447.14,337.72 c -2.4e-4,7.298 -5.9167,13.214 -13.215,13.214 -7.2983,0 -13.214,-5.9167 -13.214,-13.215 0,-7.2983 5.9167,-13.214 13.215,-13.214 7.2983,0 13.214,5.9167 13.214,13.215"
       transform="matrix(0.0634,0,0,0.0515,675.78,173.59)"
       inkscape:connector-curvature="0" />
    <path
       style="fill:#eeffaa;fill-rule:evenodd;stroke:#445500;stroke-width:0.64346999"
       id="path1041"
       d="m 691.46,197.22 10.277,4.3938 c 0,0 -2.8847,3.0757 -6.4907,2.9292 -3.606,-0.1465 -3.7862,-7.616 -3.7862,-7.323 z"
       inkscape:connector-curvature="0" />
    <path
       style="fill:none;stroke:#668000;stroke-width:0.76454002"
       id="path1043"
       d="m 693.81,198.4 -1.4138,1.6406"
       inkscape:connector-curvature="0" />
    <path
       style="fill:none;stroke:#668000;stroke-width:0.76454002"
       id="path1045"
       d="m 698.66,200.13 -2.0197,1.4766 v -0.16406"
       inkscape:connector-curvature="0" />
    <path
       style="fill:none;stroke:#668000;stroke-width:0.76454002"
       id="path1047"
       d="m 693.41,203.41 1.6157,-2.7891"
       inkscape:connector-curvature="0" />
    <path
       style="fill:#638200;fill-opacity:0.19220001;stroke:#638200;stroke-opacity:0.19220001"
       id="path1049"
       d="m 205,522.72 c -3.2e-4,9.665 -7.8356,17.5 -17.501,17.499 -9.6654,-0.001 -17.5,-7.8356 -17.499,-17.501 0.001,-9.6654 7.8356,-17.5 17.501,-17.499 9.6654,0.001 17.5,7.8356 17.499,17.501"
       transform="matrix(-0.00529,-0.22499,-0.18276,0.0043,822.91,225.75)"
       inkscape:connector-curvature="0" />
    <path
       style="fill:#91b700"
       id="path1051"
       d="m 205,522.72 c -3.2e-4,9.665 -7.8356,17.5 -17.501,17.499 -9.6654,-0.001 -17.5,-7.8356 -17.499,-17.501 0.001,-9.6654 7.8356,-17.5 17.501,-17.499 9.6654,0.001 17.5,7.8356 17.499,17.501"
       transform="matrix(0.28275,0,0,0.22969,650.32,108.77)"
       inkscape:connector-curvature="0" />
    <path
       style="fill:#91b700"
       id="path1053"
       d="m 205,522.72 c -3.2e-4,9.665 -7.8356,17.5 -17.501,17.499 -9.6654,-0.001 -17.5,-7.8356 -17.499,-17.501 0.001,-9.6654 7.8356,-17.5 17.501,-17.499 9.6654,0.001 17.5,7.8356 17.499,17.501"
       transform="matrix(0.1558,0,0,0.12656,679.18,146.14)"
       inkscape:connector-curvature="0" />
    <path
       style="fill:#91b700"
       id="path1055"
       d="m 205,522.72 c -3.2e-4,9.665 -7.8356,17.5 -17.501,17.499 -9.6654,-0.001 -17.5,-7.8356 -17.499,-17.501 0.001,-9.6654 7.8356,-17.5 17.501,-17.499 9.6654,0.001 17.5,7.8356 17.499,17.501"
       transform="matrix(0.12695,0,0,0.10313,687.47,172.52)"
       inkscape:connector-curvature="0" />
    <path
       style="fill:#91b700"
       id="path1057"
       d="m 205,522.72 c -3.2e-4,9.665 -7.8356,17.5 -17.501,17.499 -9.6654,-0.001 -17.5,-7.8356 -17.499,-17.501 0.001,-9.6654 7.8356,-17.5 17.501,-17.499 9.6654,0.001 17.5,7.8356 17.499,17.501"
       transform="matrix(0.12695,0,0,0.10313,678.63,168.45)"
       inkscape:connector-curvature="0" />
    <path
       style="fill:#91b700"
       id="path1059"
       d="m 205,522.72 c -3.2e-4,9.665 -7.8356,17.5 -17.501,17.499 -9.6654,-0.001 -17.5,-7.8356 -17.499,-17.501 0.001,-9.6654 7.8356,-17.5 17.501,-17.499 9.6654,0.001 17.5,7.8356 17.499,17.501"
       transform="matrix(-0.00366,-0.15576,-0.12653,0.00297,767.72,235.92)"
       inkscape:connector-curvature="0" />
    <path
       style="fill:#91b700"
       id="path1061"
       d="m 205,522.72 c -3.2e-4,9.665 -7.8356,17.5 -17.501,17.499 -9.6654,-0.001 -17.5,-7.8356 -17.499,-17.501 0.001,-9.6654 7.8356,-17.5 17.501,-17.499 9.6654,0.001 17.5,7.8356 17.499,17.501"
       transform="matrix(-0.00298,-0.12692,-0.1031,0.00242,761.26,241.27)"
       inkscape:connector-curvature="0" />
    <path
       style="fill:#91b700"
       id="path1063"
       d="m 205,522.72 c -3.2e-4,9.665 -7.8356,17.5 -17.501,17.499 -9.6654,-0.001 -17.5,-7.8356 -17.499,-17.501 0.001,-9.6654 7.8356,-17.5 17.501,-17.499 9.6654,0.001 17.5,7.8356 17.499,17.501"
       transform="matrix(0.28275,0,0,0.22969,650.32,108.77)"
       inkscape:connector-curvature="0" />
    <path
       style="fill:#91b700"
       id="path1065"
       d="m 205,522.72 c -3.2e-4,9.665 -7.8356,17.5 -17.501,17.499 -9.6654,-0.001 -17.5,-7.8356 -17.499,-17.501 0.001,-9.6654 7.8356,-17.5 17.501,-17.499 9.6654,0.001 17.5,7.8356 17.499,17.501"
       transform="matrix(0.28275,0,0,0.22969,650.32,108.77)"
       inkscape:connector-curvature="0" />
    <path
       style="fill:#91b700"
       id="path1067"
       d="m 205,522.72 c -3.2e-4,9.665 -7.8356,17.5 -17.501,17.499 -9.6654,-0.001 -17.5,-7.8356 -17.499,-17.501 0.001,-9.6654 7.8356,-17.5 17.501,-17.499 9.6654,0.001 17.5,7.8356 17.499,17.501"
       transform="matrix(-0.00366,-0.15576,-0.12653,0.00297,767.72,235.92)"
       inkscape:connector-curvature="0" />
    <path
       style="fill:#91b700"
       id="path1069"
       d="m 205,522.72 c -3.2e-4,9.665 -7.8356,17.5 -17.501,17.499 -9.6654,-0.001 -17.5,-7.8356 -17.499,-17.501 0.001,-9.6654 7.8356,-17.5 17.501,-17.499 9.6654,0.001 17.5,7.8356 17.499,17.501"
       transform="matrix(-0.00298,-0.12692,-0.1031,0.00242,754.47,238.77)"
       inkscape:connector-curvature="0" />
    <path
       style="fill:#91b700"
       id="path1071"
       d="m 205,522.72 c -3.2e-4,9.665 -7.8356,17.5 -17.501,17.499 -9.6654,-0.001 -17.5,-7.8356 -17.499,-17.501 0.001,-9.6654 7.8356,-17.5 17.501,-17.499 9.6654,0.001 17.5,7.8356 17.499,17.501"
       transform="matrix(0.1558,0,0,0.12656,688.46,136.14)"
       inkscape:connector-curvature="0" />
    <path
       style="fill:#91b700"
       id="path1073"
       d="m 205,522.72 c -3.2e-4,9.665 -7.8356,17.5 -17.501,17.499 -9.6654,-0.001 -17.5,-7.8356 -17.499,-17.501 0.001,-9.6654 7.8356,-17.5 17.501,-17.499 9.6654,0.001 17.5,7.8356 17.499,17.501"
       transform="matrix(0.12695,0,0,0.10313,699.97,156.8)"
       inkscape:connector-curvature="0" />
    <path
       style="fill:#91b700"
       id="path1075"
       d="m 205,522.72 c -3.2e-4,9.665 -7.8356,17.5 -17.501,17.499 -9.6654,-0.001 -17.5,-7.8356 -17.499,-17.501 0.001,-9.6654 7.8356,-17.5 17.501,-17.499 9.6654,0.001 17.5,7.8356 17.499,17.501"
       transform="matrix(0.12695,0,0,0.10313,691.84,154.87)"
       inkscape:connector-curvature="0" />
    <path
       style="fill:#91b700"
       id="path1077"
       d="m 205,522.72 c -3.2e-4,9.665 -7.8356,17.5 -17.501,17.499 -9.6654,-0.001 -17.5,-7.8356 -17.499,-17.501 0.001,-9.6654 7.8356,-17.5 17.501,-17.499 9.6654,0.001 17.5,7.8356 17.499,17.501"
       transform="matrix(-0.00366,-0.15576,-0.12653,0.00297,777.01,225.92)"
       inkscape:connector-curvature="0" />
    <path
       style="fill:#91b700"
       id="path1079"
       d="m 205,522.72 c -3.2e-4,9.665 -7.8356,17.5 -17.501,17.499 -9.6654,-0.001 -17.5,-7.8356 -17.499,-17.501 0.001,-9.6654 7.8356,-17.5 17.501,-17.499 9.6654,0.001 17.5,7.8356 17.499,17.501"
       transform="matrix(-0.00298,-0.12692,-0.1031,0.00242,759.85,223.03)"
       inkscape:connector-curvature="0" />
    <path
       style="fill:#91b700"
       id="path1081"
       d="m 205,522.72 c -3.2e-4,9.665 -7.8356,17.5 -17.501,17.499 -9.6654,-0.001 -17.5,-7.8356 -17.499,-17.501 0.001,-9.6654 7.8356,-17.5 17.501,-17.499 9.6654,0.001 17.5,7.8356 17.499,17.501"
       transform="matrix(-0.00298,-0.12692,-0.1031,0.00242,778.76,225.91)"
       inkscape:connector-curvature="0" />
    <path
       style="fill:#91b700"
       id="path1083"
       d="m 205,522.72 c -3.2e-4,9.665 -7.8356,17.5 -17.501,17.499 -9.6654,-0.001 -17.5,-7.8356 -17.499,-17.501 0.001,-9.6654 7.8356,-17.5 17.501,-17.499 9.6654,0.001 17.5,7.8356 17.499,17.501"
       transform="matrix(-0.00366,-0.15576,-0.12653,0.00297,777.01,225.92)"
       inkscape:connector-curvature="0" />
    <path
       style="fill:#91b700"
       id="path1085"
       d="m 205,522.72 c -3.2e-4,9.665 -7.8356,17.5 -17.501,17.499 -9.6654,-0.001 -17.5,-7.8356 -17.499,-17.501 0.001,-9.6654 7.8356,-17.5 17.501,-17.499 9.6654,0.001 17.5,7.8356 17.499,17.501"
       transform="matrix(-0.00298,-0.12692,-0.1031,0.00242,763.76,228.77)"
       inkscape:connector-curvature="0" />
    <path
       style="fill:#91b700"
       id="path1087"
       d="m 205,522.72 c -3.2e-4,9.665 -7.8356,17.5 -17.501,17.499 -9.6654,-0.001 -17.5,-7.8356 -17.499,-17.501 0.001,-9.6654 7.8356,-17.5 17.501,-17.499 9.6654,0.001 17.5,7.8356 17.499,17.501"
       transform="matrix(0.1558,0,0,0.12656,685.61,115.78)"
       inkscape:connector-curvature="0" />
    <path
       style="fill:#91b700"
       id="path1089"
       d="m 205,522.72 c -3.2e-4,9.665 -7.8356,17.5 -17.501,17.499 -9.6654,-0.001 -17.5,-7.8356 -17.499,-17.501 0.001,-9.6654 7.8356,-17.5 17.501,-17.499 9.6654,0.001 17.5,7.8356 17.499,17.501"
       transform="matrix(-0.00298,-0.12692,-0.1031,0.00242,757.33,205.19)"
       inkscape:connector-curvature="0" />
    <path
       style="fill:#91b700"
       id="path1091"
       d="m 205,522.72 c -3.2e-4,9.665 -7.8356,17.5 -17.501,17.499 -9.6654,-0.001 -17.5,-7.8356 -17.499,-17.501 0.001,-9.6654 7.8356,-17.5 17.501,-17.499 9.6654,0.001 17.5,7.8356 17.499,17.501"
       transform="matrix(0.12695,0,0,0.10313,686.84,136.3)"
       inkscape:connector-curvature="0" />
    <path
       style="fill:#91b700"
       id="path1093"
       d="m 205,522.72 c -3.2e-4,9.665 -7.8356,17.5 -17.501,17.499 -9.6654,-0.001 -17.5,-7.8356 -17.499,-17.501 0.001,-9.6654 7.8356,-17.5 17.501,-17.499 9.6654,0.001 17.5,7.8356 17.499,17.501"
       transform="matrix(-0.00298,-0.12692,-0.1031,0.00242,762.69,206.62)"
       inkscape:connector-curvature="0" />
    <path
       style="fill:#91b700"
       id="path1095"
       d="m 205,522.72 c -3.2e-4,9.665 -7.8356,17.5 -17.501,17.499 -9.6654,-0.001 -17.5,-7.8356 -17.499,-17.501 0.001,-9.6654 7.8356,-17.5 17.501,-17.499 9.6654,0.001 17.5,7.8356 17.499,17.501"
       transform="matrix(0.1558,0,0,0.12656,687.39,122.57)"
       inkscape:connector-curvature="0" />
  </g>
</svg>
