<?xml version="1.0" encoding="UTF-8" standalone="no"?>
<svg
   xmlns:dc="http://purl.org/dc/elements/1.1/"
   xmlns:cc="http://creativecommons.org/ns#"
   xmlns:rdf="http://www.w3.org/1999/02/22-rdf-syntax-ns#"
   xmlns:svg="http://www.w3.org/2000/svg"
   xmlns="http://www.w3.org/2000/svg"
   xmlns:sodipodi="http://sodipodi.sourceforge.net/DTD/sodipodi-0.dtd"
   xmlns:inkscape="http://www.inkscape.org/namespaces/inkscape"
   viewBox="0 0 69.999999 70"
   version="1.1"
   id="svg1749"
   sodipodi:docname="G.svg"
   inkscape:version="0.92.3 (2405546, 2018-03-11)"
   width="70"
   height="70">
  <metadata
     id="metadata1753">
    <rdf:RDF>
      <cc:Work
         rdf:about="">
        <dc:format>image/svg+xml</dc:format>
        <dc:type
           rdf:resource="http://purl.org/dc/dcmitype/StillImage" />
        <dc:title></dc:title>
        <dc:title></dc:title>
      </cc:Work>
    </rdf:RDF>
  </metadata>
  <sodipodi:namedview
     pagecolor="#ffffff"
     bordercolor="#666666"
     borderopacity="1"
     objecttolerance="10"
     gridtolerance="10"
     guidetolerance="10"
     inkscape:pageopacity="0"
     inkscape:pageshadow="2"
     inkscape:window-width="1920"
     inkscape:window-height="1052"
     id="namedview1751"
     showgrid="false"
     inkscape:zoom="4.4779145"
     inkscape:cx="22.30818"
     inkscape:cy="50.256837"
     inkscape:window-x="0"
     inkscape:window-y="360"
     inkscape:window-maximized="1"
     inkscape:current-layer="svg1749" />
  <defs
     id="defs5">
    <filter
       id="a"
       x="-0.46415001"
       y="-0.46415001"
       width="1.9283"
       height="1.9283">
      <feGaussianBlur
         stdDeviation="3.0281"
         id="feGaussianBlur2" />
    </filter>
  </defs>
  <g
     id="g1747"
     transform="translate(-350.68638,-402.24972)">
    <path
       style="fill:#ffcc00;stroke:#af8b00;stroke-opacity:0.69800002"
       id="path1721"
       d="m 413.32,451.03 c -6e-5,2.4141 -0.26959,4.2832 -0.8086,5.6074 -0.53901,1.3242 -1.7344,2.666 -3.5859,4.0254 -1.6172,1.2656 -4.3946,2.666 -8.332,4.2012 -3.9374,1.5352 -8.5782,2.3027 -13.922,2.3027 -5.1094,0 -9.5391,-0.79102 -13.289,-2.373 -3.7499,-1.58198 -6.8086,-3.7441 -9.1758,-6.4863 -2.3672,-2.7422 -4.125,-5.8828 -5.2734,-9.4219 -1.1484,-3.5391 -1.7227,-7.3125 -1.7227,-11.32 0,-4.1953 0.71484,-8.2148 2.1445,-12.059 1.42966,-3.8442 3.5508,-7.125 6.3633,-9.8438 5.2265,-5.039 12.551,-7.5585 21.973,-7.5586 4.5234,6e-5 8.3554,0.54498 11.496,1.6348 3.1406,1.08982 5.5722,2.4317 7.2949,4.0254 1.7227,1.5937 2.9589,3.2286 3.709,4.9043 0.7501,1.6757 1.125,3.1231 1.125,4.3418 -5e-5,1.9219 -0.77935,3.5215 -2.3379,4.7988 -1.55855,1.2773 -3.8379,1.916 -6.8379,1.916 -2.8125,4e-5 -5.2266,-1.0078 -7.2422,-3.0234 -0.93754,-0.93746 -2.0332,-1.6054 -3.2871,-2.0039 -1.2539,-0.3985 -2.9473,-0.59761 -5.0801,-0.59766 -3.7032,5e-5 -6.3164,1.2188 -7.8398,3.6562 -1.5938,2.4141 -2.3906,5.5664 -2.3906,9.457 -2e-5,2.9532 0.35154,5.4785 1.0547,7.5762 0.70316,2.0977 1.8457,3.7207 3.4277,4.8691 1.582,1.1484 3.6855,1.7227 6.3106,1.7226 1.4296,2e-5 2.9882,-0.16404 4.6758,-0.49218 1.6876,-0.32814 3.1289,-0.76171 4.3242,-1.3008 v -1.3711 h -2.1445 c -4.1016,2e-5 -6.8789,-0.62693 -8.332,-1.8809 -1.4531,-1.25397 -2.1797,-2.9355 -2.1797,-5.0449 -3e-5,-2.2031 0.66208,-4.0488 1.9863,-5.5371 1.32422,-1.4883 3.5683,-2.2324 6.7324,-2.2324 h 9.9844 c 2.5078,3e-5 4.5585,0.28714 6.1523,0.86133 1.5938,0.57419 2.83,1.711 3.709,3.4102 0.879,1.6992 1.3183,4.166 1.3184,7.4004 z"
       inkscape:connector-curvature="0" />
    <g
       id="g1731"
       transform="matrix(0.28275,0,0,0.22969,351.81,347.02)">
      <path
         style="fill:#ffeeaa;stroke:#aa8800;stroke-width:3"
         id="path1723"
         d="m 221.22,333.13 c -3.8e-4,11.158 -9.0459,20.203 -20.204,20.202 -11.1581,-10e-4 -20.203,-9.0459 -20.202,-20.204 0.001,-11.1581 9.0459,-20.203 20.204,-20.202 11.1581,0.001 20.203,9.0459 20.202,20.204"
         inkscape:connector-curvature="0" />
      <path
         style="fill:#554400"
         id="path1725"
         d="m 216.17,332.63 c -1.8e-4,5.3 -4.2968,9.5963 -9.5968,9.5961 -5.3,-2e-4 -9.5963,-4.2968 -9.5961,-9.5968 2e-4,-5.3 4.2968,-9.5963 9.5968,-9.5961 5.3,2e-4 9.5963,4.2968 9.5961,9.5968"
         inkscape:connector-curvature="0" />
      <path
         style="fill:#2b2200"
         id="path1727"
         d="m 214.4,333.51 c -7e-5,2.1618 -1.7526,3.9143 -3.9145,3.9142 -2.1619,-10e-5 -3.9143,-1.7526 -3.9142,-3.9145 1e-4,-2.1619 1.7526,-3.9143 3.9145,-3.9142 2.1619,10e-5 3.9143,1.7526 3.9142,3.9145"
         inkscape:connector-curvature="0" />
      <path
         style="fill:#ffeeaa"
         id="path1729"
         d="m 210.11,330.36 c -3e-5,0.97631 -0.79151,1.7677 -1.7678,1.7677 -0.97629,0 -1.7677,-0.79152 -1.7677,-1.7678 0,-0.97628 0.79151,-1.7677 1.7678,-1.7677 0.97629,0 1.7677,0.79152 1.7677,1.7678"
         inkscape:connector-curvature="0" />
    </g>
    <path
       style="fill:none;stroke:#aa8800;stroke-width:0.50968999"
       id="path1733"
       d="m 370.21,438.08 c 0,0 0.0691,3.0553 1.6509,2.2646 1.5818,-0.7907 1.3349,-3.799 2.2339,-3.8504 0.899,-0.0514 1.8554,0.99974 1.8554,0.99974"
       inkscape:connector-curvature="0" />
    <path
       style="fill:none;stroke:#aa8800;stroke-width:0.50968999"
       id="path1735"
       d="m 379.26,420.9 c 0,0 -2.1735,2.1484 -0.51246,2.7552 1.66104,0.6068 3.6782,-1.6386 4.3329,-1.0204 0.6547,0.6182 0.54748,2.0353 0.54748,2.0353"
       inkscape:connector-curvature="0" />
    <path
       style="fill:none;stroke:#aa8800;stroke-width:0.50968999"
       id="path1737"
       d="m 373.26,425.46 c 0,0 -1.6632,2.5639 0.0892,2.801 1.7524,0.2371 3.2422,-2.388 4.0141,-1.9242 0.7719,0.4638 0.97047,1.8709 0.97047,1.8709"
       inkscape:connector-curvature="0" />
    <path
       style="fill:none;stroke:#aa8800;stroke-width:0.50968999"
       id="path1739"
       d="m 373.42,448.97 c 0,0 0.0691,3.0553 1.6509,2.2646 1.5818,-0.7907 1.3349,-3.799 2.2339,-3.8504 0.899,-0.0514 1.8554,0.99974 1.8554,0.99974"
       inkscape:connector-curvature="0" />
    <path
       style="fill:none;stroke:#aa8800;stroke-width:0.50968999"
       id="path1741"
       d="m 370.57,432.19 c 0,0 0.0691,3.0553 1.6509,2.2646 1.5818,-0.7907 1.3349,-3.799 2.2339,-3.8504 0.899,-0.0514 1.8554,0.99974 1.8554,0.99974"
       inkscape:connector-curvature="0" />
    <path
       style="fill:none;stroke:#aa8800;stroke-width:0.50968999"
       id="path1743"
       d="m 370.57,443.61 c 0,0 0.0691,3.0553 1.6509,2.2646 1.5818,-0.7907 1.3349,-3.799 2.2339,-3.8504 0.899,-0.0514 1.8554,0.99974 1.8554,0.99974"
       inkscape:connector-curvature="0" />
    <path
       style="fill:none;stroke:#aa8800;stroke-width:0.50968999"
       id="path1745"
       d="m 377.64,454.26 c 0,0 1.8025,2.468 2.6488,0.91524 0.8463,-1.55276 -1.0752,-3.8805 -0.36672,-4.4363 0.70848,-0.5558 2.094,-0.23971 2.094,-0.23971"
       inkscape:connector-curvature="0" />
  </g>
</svg>
