<?xml version="1.0" encoding="UTF-8" standalone="no"?>
<svg
   xmlns:dc="http://purl.org/dc/elements/1.1/"
   xmlns:cc="http://creativecommons.org/ns#"
   xmlns:rdf="http://www.w3.org/1999/02/22-rdf-syntax-ns#"
   xmlns:svg="http://www.w3.org/2000/svg"
   xmlns="http://www.w3.org/2000/svg"
   xmlns:sodipodi="http://sodipodi.sourceforge.net/DTD/sodipodi-0.dtd"
   xmlns:inkscape="http://www.inkscape.org/namespaces/inkscape"
   viewBox="0 0 69.999999 70"
   version="1.1"
   id="svg1749"
   sodipodi:docname="H.svg"
   inkscape:version="0.92.3 (2405546, 2018-03-11)"
   width="70"
   height="70">
  <metadata
     id="metadata1753">
    <rdf:RDF>
      <cc:Work
         rdf:about="">
        <dc:format>image/svg+xml</dc:format>
        <dc:type
           rdf:resource="http://purl.org/dc/dcmitype/StillImage" />
        <dc:title></dc:title>
        <dc:title></dc:title>
      </cc:Work>
    </rdf:RDF>
  </metadata>
  <sodipodi:namedview
     pagecolor="#ffffff"
     bordercolor="#666666"
     borderopacity="1"
     objecttolerance="10"
     gridtolerance="10"
     guidetolerance="10"
     inkscape:pageopacity="0"
     inkscape:pageshadow="2"
     inkscape:window-width="1920"
     inkscape:window-height="1052"
     id="namedview1751"
     showgrid="false"
     inkscape:zoom="4.4779145"
     inkscape:cx="22.30818"
     inkscape:cy="50.256837"
     inkscape:window-x="0"
     inkscape:window-y="360"
     inkscape:window-maximized="1"
     inkscape:current-layer="svg1749" />
  <defs
     id="defs5">
    <filter
       id="a"
       x="-0.46415001"
       y="-0.46415001"
       width="1.9283"
       height="1.9283">
      <feGaussianBlur
         stdDeviation="3.0281"
         id="feGaussianBlur2" />
    </filter>
  </defs>
  <g
     id="g1559"
     transform="translate(-421.05582,-399.57757)">
    <path
       style="fill:#ddafe9"
       id="path1427"
       d="m 205,522.72 c -3.2e-4,9.665 -7.8356,17.5 -17.501,17.499 -9.6654,-0.001 -17.5,-7.8356 -17.499,-17.501 0.001,-9.6654 7.8356,-17.5 17.501,-17.499 9.6654,0.001 17.5,7.8356 17.499,17.501"
       transform="matrix(-0.00366,-0.15576,-0.12653,0.00297,535.94,471.63)"
       inkscape:connector-curvature="0" />
    <path
       style="fill:#ddafe9"
       id="path1429"
       d="m 205,522.72 c -3.2e-4,9.665 -7.8356,17.5 -17.501,17.499 -9.6654,-0.001 -17.5,-7.8356 -17.499,-17.501 0.001,-9.6654 7.8356,-17.5 17.501,-17.499 9.6654,0.001 17.5,7.8356 17.499,17.501"
       transform="matrix(-0.00298,-0.12692,-0.1031,0.00242,518.77,468.75)"
       inkscape:connector-curvature="0" />
    <path
       style="fill:#bc5fd3;stroke:#ab37c8;stroke-opacity:0.99220001"
       id="path1431"
       d="m 481.64,449.75 c -6e-5,3.1172 -0.16412,5.4434 -0.49219,6.9785 -0.32807,1.5351 -1.0313,2.8418 -2.1094,3.9199 -1.9688,1.9688 -4.2422,2.9531 -6.8203,2.9531 -2.7422,0 -5.0743,-0.96094 -6.9961,-2.8828 -1.0078,-1.0312 -1.6817,-2.3555 -2.0215,-3.9727 -0.3398,-1.6172 -0.5098,-3.9492 -0.50976,-6.9961 v -8.6836 h -13.148 v 8.6836 c -2e-5,3.1172 -0.1758,5.4551 -0.52734,7.0137 -0.35154,1.5586 -1.043,2.8535 -2.0742,3.8848 -1.9688,1.9688 -4.2539,2.9531 -6.8555,2.9531 -1.1953,0 -2.4199,-0.25195 -3.6738,-0.75586 -1.2539,-0.50391 -2.3496,-1.2129 -3.2871,-2.127 -1.0312,-1.0312 -1.7109,-2.3555 -2.0391,-3.9727 -0.3282,-1.6172 -0.49219,-3.9492 -0.49219,-6.9961 v -31.395 c 0,-3.0703 0.16406,-5.4023 0.49219,-6.9961 0.32813,-1.5938 1.0078,-2.9062 2.0391,-3.9375 1.9219,-1.9218 4.2187,-2.8828 6.8906,-2.8828 1.3594,6e-5 2.6367,0.24029 3.832,0.7207 1.1953,0.48041 2.2265,1.1778 3.0938,2.0918 1.0547,1.0547 1.7519,2.3907 2.0918,4.0078 0.3399,1.6171 0.50975,3.9493 0.50977,6.9961 v 6.293 h 13.148 v -6.2227 c -4e-5,-3.0703 0.16988,-5.414 0.50976,-7.0312 0.33988,-1.6172 1.0136,-2.9414 2.0215,-3.9727 1.9218,-1.9218 4.2304,-2.8828 6.9258,-2.8828 1.2421,6e-5 2.4785,0.24615 3.709,0.73828 1.2305,0.49213 2.2675,1.1836 3.1113,2.0742 0.70307,0.70318 1.248,1.5352 1.6348,2.4961 0.3868,0.9609 0.65619,2.1446 0.80859,3.5508 0.1524,1.4062 0.22846,3.0821 0.22852,5.0273 z"
       inkscape:connector-curvature="0" />
    <path
       style="fill:#f6d5ff;stroke:#672178;stroke-width:3"
       id="path1433"
       d="m 327.14,662.01 c -2.9e-4,8.4815 -6.8761,15.357 -15.358,15.357 -8.4819,0 -15.357,-6.8761 -15.357,-15.358 0,-8.4819 6.8761,-15.357 15.358,-15.357 8.4819,0 15.357,6.8761 15.357,15.358"
       transform="matrix(0.28275,0,0,0.22969,362.84,273.19)"
       inkscape:connector-curvature="0" />
    <path
       style="fill:#f6d5ff;stroke:#672178;stroke-width:2.12109995"
       id="path1435"
       d="m 365,655.93 c -2.1e-4,6.3118 -5.1171,11.428 -11.429,11.428 -6.3119,0 -11.428,-5.1171 -11.428,-11.429 0,-6.3119 5.1171,-11.428 11.429,-11.428 6.3119,0 11.428,5.1171 11.428,11.429"
       transform="matrix(0.39992,0,0,0.32487,320.31,211)"
       inkscape:connector-curvature="0" />
    <path
       style="fill:#672178"
       id="path1437"
       d="m 361.79,656.47 c -1.5e-4,4.6352 -3.7579,8.3927 -8.3931,8.3926 -4.6352,-1e-4 -8.3927,-3.7579 -8.3926,-8.3931 10e-5,-4.6352 3.7579,-8.3927 8.3931,-8.3926 4.6352,10e-5 8.3927,3.7579 8.3926,8.3931"
       transform="matrix(0.28275,0,0,0.22969,362.84,273.19)"
       inkscape:connector-curvature="0" />
    <path
       style="fill:#672178"
       id="path1439"
       d="m 323.57,662.72 c -1.6e-4,4.9311 -3.9978,8.9284 -8.9289,8.9283 -4.9311,-10e-5 -8.9284,-3.9978 -8.9283,-8.9289 10e-5,-4.9311 3.9978,-8.9284 8.9289,-8.9283 4.9311,10e-5 8.9284,3.9978 8.9283,8.9289"
       transform="matrix(0.28275,0,0,0.22969,362.84,273.19)"
       inkscape:connector-curvature="0" />
    <path
       style="fill:#441650"
       id="path1441"
       d="m 357.86,655.58 c -8e-5,2.3669 -1.9189,4.2856 -4.2859,4.2856 -2.367,0 -4.2856,-1.9189 -4.2856,-4.2859 0,-2.367 1.9189,-4.2856 4.2858,-4.2856 2.3669,0 4.2856,1.9189 4.2856,4.2859"
       transform="matrix(0.28275,0,0,0.22969,362.84,273.19)"
       inkscape:connector-curvature="0" />
    <path
       style="fill:#441650"
       id="path1443"
       d="m 320,663.26 c -9e-5,2.6628 -2.1588,4.8214 -4.8216,4.8213 -2.6628,-1e-4 -4.8214,-2.1588 -4.8213,-4.8216 10e-5,-2.6628 2.1588,-4.8214 4.8216,-4.8213 2.6628,10e-5 4.8214,2.1588 4.8213,4.8216"
       transform="matrix(0.28275,0,0,0.22969,362.84,273.19)"
       inkscape:connector-curvature="0" />
    <path
       style="fill:#ddafe9"
       id="path1445"
       d="m 357.86,653.43 c -4e-5,1.1835 -0.95946,2.1428 -2.1429,2.1428 -1.18344,0 -2.1428,-0.95946 -2.1428,-2.1429 0,-1.18344 0.95946,-2.1428 2.1429,-2.1428 1.18344,0 2.1428,0.95946 2.1428,2.1429"
       transform="matrix(0.28275,0,0,0.22969,362.84,273.19)"
       inkscape:connector-curvature="0" />
    <path
       style="fill:#ddafe9"
       id="path1447"
       d="m 319.29,659.33 c -4e-5,1.2821 -1.0394,2.3214 -2.3215,2.3214 -1.2821,0 -2.3214,-1.0394 -2.3214,-2.3215 0,-1.2821 1.0394,-2.3214 2.3215,-2.3214 1.2821,0 2.3214,1.0394 2.3214,2.3215"
       transform="matrix(0.28275,0,0,0.22969,362.84,273.19)"
       inkscape:connector-curvature="0" />
    <path
       style="fill:#f6d5ff;stroke:#672178;stroke-width:2.12109995"
       id="path1449"
       d="m 365,655.93 c -2.1e-4,6.3118 -5.1171,11.428 -11.429,11.428 -6.3119,0 -11.428,-5.1171 -11.428,-11.429 0,-6.3119 5.1171,-11.428 11.429,-11.428 6.3119,0 11.428,5.1171 11.428,11.429"
       transform="matrix(0.39992,0,0,0.32487,320.31,211)"
       inkscape:connector-curvature="0" />
    <path
       style="fill:#672178"
       id="path1451"
       d="m 361.79,656.47 c -1.5e-4,4.6352 -3.7579,8.3927 -8.3931,8.3926 -4.6352,-1e-4 -8.3927,-3.7579 -8.3926,-8.3931 10e-5,-4.6352 3.7579,-8.3927 8.3931,-8.3926 4.6352,10e-5 8.3927,3.7579 8.3926,8.3931"
       transform="matrix(0.28275,0,0,0.22969,362.84,273.19)"
       inkscape:connector-curvature="0" />
    <path
       style="fill:#672178"
       id="path1453"
       d="m 323.57,662.72 c -1.6e-4,4.9311 -3.9978,8.9284 -8.9289,8.9283 -4.9311,-10e-5 -8.9284,-3.9978 -8.9283,-8.9289 10e-5,-4.9311 3.9978,-8.9284 8.9289,-8.9283 4.9311,10e-5 8.9284,3.9978 8.9283,8.9289"
       transform="matrix(0.28275,0,0,0.22969,362.84,273.19)"
       inkscape:connector-curvature="0" />
    <path
       style="fill:#441650"
       id="path1455"
       d="m 357.86,655.58 c -8e-5,2.3669 -1.9189,4.2856 -4.2859,4.2856 -2.367,0 -4.2856,-1.9189 -4.2856,-4.2859 0,-2.367 1.9189,-4.2856 4.2858,-4.2856 2.3669,0 4.2856,1.9189 4.2856,4.2859"
       transform="matrix(0.28275,0,0,0.22969,362.84,273.19)"
       inkscape:connector-curvature="0" />
    <path
       style="fill:#441650"
       id="path1457"
       d="m 320,663.26 c -9e-5,2.6628 -2.1588,4.8214 -4.8216,4.8213 -2.6628,-1e-4 -4.8214,-2.1588 -4.8213,-4.8216 10e-5,-2.6628 2.1588,-4.8214 4.8216,-4.8213 2.6628,10e-5 4.8214,2.1588 4.8213,4.8216"
       transform="matrix(0.28275,0,0,0.22969,362.84,273.19)"
       inkscape:connector-curvature="0" />
    <path
       style="fill:#ddafe9"
       id="path1459"
       d="m 357.86,653.43 c -4e-5,1.1835 -0.95946,2.1428 -2.1429,2.1428 -1.18344,0 -2.1428,-0.95946 -2.1428,-2.1429 0,-1.18344 0.95946,-2.1428 2.1429,-2.1428 1.18344,0 2.1428,0.95946 2.1428,2.1429"
       transform="matrix(0.28275,0,0,0.22969,362.84,273.19)"
       inkscape:connector-curvature="0" />
    <path
       style="fill:#ddafe9"
       id="path1461"
       d="m 319.29,659.33 c -4e-5,1.2821 -1.0394,2.3214 -2.3215,2.3214 -1.2821,0 -2.3214,-1.0394 -2.3214,-2.3215 0,-1.2821 1.0394,-2.3214 2.3215,-2.3214 1.2821,0 2.3214,1.0394 2.3214,2.3215"
       transform="matrix(0.28275,0,0,0.22969,362.84,273.19)"
       inkscape:connector-curvature="0" />
    <path
       style="fill:#ddafe9"
       id="path1463"
       d="m 205,522.72 c -3.2e-4,9.665 -7.8356,17.5 -17.501,17.499 -9.6654,-0.001 -17.5,-7.8356 -17.499,-17.501 0.001,-9.6654 7.8356,-17.5 17.501,-17.499 9.6654,0.001 17.5,7.8356 17.499,17.501"
       transform="matrix(0.08656,0,0,0.07031,427.86,401.27)"
       inkscape:connector-curvature="0" />
    <path
       style="fill:#ddafe9"
       id="path1465"
       d="m 205,522.72 c -3.2e-4,9.665 -7.8356,17.5 -17.501,17.499 -9.6654,-0.001 -17.5,-7.8356 -17.499,-17.501 0.001,-9.6654 7.8356,-17.5 17.501,-17.499 9.6654,0.001 17.5,7.8356 17.499,17.501"
       transform="matrix(-0.00366,-0.15576,-0.12653,0.00297,511.59,473.28)"
       inkscape:connector-curvature="0" />
    <path
       style="fill:#ddafe9"
       id="path1467"
       d="m 205,522.72 c -3.2e-4,9.665 -7.8356,17.5 -17.501,17.499 -9.6654,-0.001 -17.5,-7.8356 -17.499,-17.501 0.001,-9.6654 7.8356,-17.5 17.501,-17.499 9.6654,0.001 17.5,7.8356 17.499,17.501"
       transform="matrix(-0.00529,-0.22499,-0.18276,0.0043,532.08,479.2)"
       inkscape:connector-curvature="0" />
    <path
       style="fill:#ddafe9"
       id="path1469"
       d="m 205,522.72 c -3.2e-4,9.665 -7.8356,17.5 -17.501,17.499 -9.6654,-0.001 -17.5,-7.8356 -17.499,-17.501 0.001,-9.6654 7.8356,-17.5 17.501,-17.499 9.6654,0.001 17.5,7.8356 17.499,17.501"
       transform="matrix(-0.00298,-0.12692,-0.1031,0.00242,489.63,470.39)"
       inkscape:connector-curvature="0" />
    <path
       style="fill:#ddafe9"
       id="path1471"
       d="m 205,522.72 c -3.2e-4,9.665 -7.8356,17.5 -17.501,17.499 -9.6654,-0.001 -17.5,-7.8356 -17.499,-17.501 0.001,-9.6654 7.8356,-17.5 17.501,-17.499 9.6654,0.001 17.5,7.8356 17.499,17.501"
       transform="matrix(-0.00298,-0.12692,-0.1031,0.00242,500.33,478.62)"
       inkscape:connector-curvature="0" />
    <path
       style="fill:#ddafe9"
       id="path1473"
       d="m 205,522.72 c -3.2e-4,9.665 -7.8356,17.5 -17.501,17.499 -9.6654,-0.001 -17.5,-7.8356 -17.499,-17.501 0.001,-9.6654 7.8356,-17.5 17.501,-17.499 9.6654,0.001 17.5,7.8356 17.499,17.501"
       transform="matrix(0.08656,0,0,0.07031,427.86,401.27)"
       inkscape:connector-curvature="0" />
    <path
       style="fill:#ddafe9"
       id="path1475"
       d="m 205,522.72 c -3.2e-4,9.665 -7.8356,17.5 -17.501,17.499 -9.6654,-0.001 -17.5,-7.8356 -17.499,-17.501 0.001,-9.6654 7.8356,-17.5 17.501,-17.499 9.6654,0.001 17.5,7.8356 17.499,17.501"
       transform="matrix(-0.00366,-0.15576,-0.12653,0.00297,530.28,465.45)"
       inkscape:connector-curvature="0" />
    <path
       style="fill:#ddafe9"
       id="path1477"
       d="m 205,522.72 c -3.2e-4,9.665 -7.8356,17.5 -17.501,17.499 -9.6654,-0.001 -17.5,-7.8356 -17.499,-17.501 0.001,-9.6654 7.8356,-17.5 17.501,-17.499 9.6654,0.001 17.5,7.8356 17.499,17.501"
       transform="matrix(-0.00529,-0.22499,-0.18276,0.0043,532.08,479.2)"
       inkscape:connector-curvature="0" />
    <path
       style="fill:#ddafe9"
       id="path1479"
       d="m 205,522.72 c -3.2e-4,9.665 -7.8356,17.5 -17.501,17.499 -9.6654,-0.001 -17.5,-7.8356 -17.499,-17.501 0.001,-9.6654 7.8356,-17.5 17.501,-17.499 9.6654,0.001 17.5,7.8356 17.499,17.501"
       transform="matrix(-0.00298,-0.12692,-0.1031,0.00242,489.63,470.39)"
       inkscape:connector-curvature="0" />
    <path
       style="fill:#ddafe9"
       id="path1481"
       d="m 205,522.72 c -3.2e-4,9.665 -7.8356,17.5 -17.501,17.499 -9.6654,-0.001 -17.5,-7.8356 -17.499,-17.501 0.001,-9.6654 7.8356,-17.5 17.501,-17.499 9.6654,0.001 17.5,7.8356 17.499,17.501"
       transform="matrix(-0.00298,-0.12692,-0.1031,0.00242,500.33,478.62)"
       inkscape:connector-curvature="0" />
    <path
       style="fill:#ddafe9"
       id="path1483"
       d="m 205,522.72 c -3.2e-4,9.665 -7.8356,17.5 -17.501,17.499 -9.6654,-0.001 -17.5,-7.8356 -17.499,-17.501 0.001,-9.6654 7.8356,-17.5 17.501,-17.499 9.6654,0.001 17.5,7.8356 17.499,17.501"
       transform="matrix(0.12118,0,0,0.09844,412.62,368.54)"
       inkscape:connector-curvature="0" />
    <path
       style="fill:#ddafe9"
       id="path1485"
       d="m 205,522.72 c -3.2e-4,9.665 -7.8356,17.5 -17.501,17.499 -9.6654,-0.001 -17.5,-7.8356 -17.499,-17.501 0.001,-9.6654 7.8356,-17.5 17.501,-17.499 9.6654,0.001 17.5,7.8356 17.499,17.501"
       transform="matrix(0.21351,0,0,0.17344,401.57,321.3)"
       inkscape:connector-curvature="0" />
    <path
       style="fill:#ddafe9"
       id="path1487"
       d="m 205,522.72 c -3.2e-4,9.665 -7.8356,17.5 -17.501,17.499 -9.6654,-0.001 -17.5,-7.8356 -17.499,-17.501 0.001,-9.6654 7.8356,-17.5 17.501,-17.499 9.6654,0.001 17.5,7.8356 17.499,17.501"
       transform="matrix(-0.00366,-0.15576,-0.12653,0.00297,511.65,459.49)"
       inkscape:connector-curvature="0" />
    <path
       style="fill:#ddafe9"
       id="path1489"
       d="m 205,522.72 c -3.2e-4,9.665 -7.8356,17.5 -17.501,17.499 -9.6654,-0.001 -17.5,-7.8356 -17.499,-17.501 0.001,-9.6654 7.8356,-17.5 17.501,-17.499 9.6654,0.001 17.5,7.8356 17.499,17.501"
       transform="matrix(-0.00529,-0.22499,-0.18276,0.0043,536.94,465.42)"
       inkscape:connector-curvature="0" />
    <path
       style="fill:#ddafe9"
       id="path1491"
       d="m 205,522.72 c -3.2e-4,9.665 -7.8356,17.5 -17.501,17.499 -9.6654,-0.001 -17.5,-7.8356 -17.499,-17.501 0.001,-9.6654 7.8356,-17.5 17.501,-17.499 9.6654,0.001 17.5,7.8356 17.499,17.501"
       transform="matrix(-0.00298,-0.12692,-0.1031,0.00242,494.49,456.6)"
       inkscape:connector-curvature="0" />
    <path
       style="fill:#ddafe9"
       id="path1493"
       d="m 205,522.72 c -3.2e-4,9.665 -7.8356,17.5 -17.501,17.499 -9.6654,-0.001 -17.5,-7.8356 -17.499,-17.501 0.001,-9.6654 7.8356,-17.5 17.501,-17.499 9.6654,0.001 17.5,7.8356 17.499,17.501"
       transform="matrix(-0.00366,-0.15576,-0.12653,0.00297,511.65,459.49)"
       inkscape:connector-curvature="0" />
    <path
       style="fill:#ddafe9"
       id="path1495"
       d="m 205,522.72 c -3.2e-4,9.665 -7.8356,17.5 -17.501,17.499 -9.6654,-0.001 -17.5,-7.8356 -17.499,-17.501 0.001,-9.6654 7.8356,-17.5 17.501,-17.499 9.6654,0.001 17.5,7.8356 17.499,17.501"
       transform="matrix(-0.00529,-0.22499,-0.18276,0.0043,536.94,465.42)"
       inkscape:connector-curvature="0" />
    <path
       style="fill:#ddafe9"
       id="path1497"
       d="m 205,522.72 c -3.2e-4,9.665 -7.8356,17.5 -17.501,17.499 -9.6654,-0.001 -17.5,-7.8356 -17.499,-17.501 0.001,-9.6654 7.8356,-17.5 17.501,-17.499 9.6654,0.001 17.5,7.8356 17.499,17.501"
       transform="matrix(-0.00298,-0.12692,-0.1031,0.00242,494.49,456.6)"
       inkscape:connector-curvature="0" />
    <path
       style="fill:#ddafe9"
       id="path1499"
       d="m 205,522.72 c -3.2e-4,9.665 -7.8356,17.5 -17.501,17.499 -9.6654,-0.001 -17.5,-7.8356 -17.499,-17.501 0.001,-9.6654 7.8356,-17.5 17.501,-17.499 9.6654,0.001 17.5,7.8356 17.499,17.501"
       transform="matrix(0.08656,0,0,0.07031,428.78,382.85)"
       inkscape:connector-curvature="0" />
    <path
       style="fill:#ddafe9"
       id="path1501"
       d="m 205,522.72 c -3.2e-4,9.665 -7.8356,17.5 -17.501,17.499 -9.6654,-0.001 -17.5,-7.8356 -17.499,-17.501 0.001,-9.6654 7.8356,-17.5 17.501,-17.499 9.6654,0.001 17.5,7.8356 17.499,17.501"
       transform="matrix(0.08656,0,0,0.07031,423.57,420.92)"
       inkscape:connector-curvature="0" />
    <path
       style="fill:#ddafe9"
       id="path1503"
       d="m 205,522.72 c -3.2e-4,9.665 -7.8356,17.5 -17.501,17.499 -9.6654,-0.001 -17.5,-7.8356 -17.499,-17.501 0.001,-9.6654 7.8356,-17.5 17.501,-17.499 9.6654,0.001 17.5,7.8356 17.499,17.501"
       transform="matrix(0.08656,0,0,0.07031,423.57,420.92)"
       inkscape:connector-curvature="0" />
    <path
       style="fill:#ddafe9"
       id="path1505"
       d="m 205,522.72 c -3.2e-4,9.665 -7.8356,17.5 -17.501,17.499 -9.6654,-0.001 -17.5,-7.8356 -17.499,-17.501 0.001,-9.6654 7.8356,-17.5 17.501,-17.499 9.6654,0.001 17.5,7.8356 17.499,17.501"
       transform="matrix(-0.00366,-0.15576,-0.12653,0.00297,507.37,479.13)"
       inkscape:connector-curvature="0" />
    <path
       style="fill:#ddafe9"
       id="path1507"
       d="m 205,522.72 c -3.2e-4,9.665 -7.8356,17.5 -17.501,17.499 -9.6654,-0.001 -17.5,-7.8356 -17.499,-17.501 0.001,-9.6654 7.8356,-17.5 17.501,-17.499 9.6654,0.001 17.5,7.8356 17.499,17.501"
       transform="matrix(-0.00298,-0.12692,-0.1031,0.00242,490.2,476.25)"
       inkscape:connector-curvature="0" />
    <path
       style="fill:#ddafe9"
       id="path1509"
       d="m 205,522.72 c -3.2e-4,9.665 -7.8356,17.5 -17.501,17.499 -9.6654,-0.001 -17.5,-7.8356 -17.499,-17.501 0.001,-9.6654 7.8356,-17.5 17.501,-17.499 9.6654,0.001 17.5,7.8356 17.499,17.501"
       transform="matrix(-0.00366,-0.15576,-0.12653,0.00297,507.37,479.13)"
       inkscape:connector-curvature="0" />
    <path
       style="fill:#ddafe9"
       id="path1511"
       d="m 205,522.72 c -3.2e-4,9.665 -7.8356,17.5 -17.501,17.499 -9.6654,-0.001 -17.5,-7.8356 -17.499,-17.501 0.001,-9.6654 7.8356,-17.5 17.501,-17.499 9.6654,0.001 17.5,7.8356 17.499,17.501"
       transform="matrix(-0.00298,-0.12692,-0.1031,0.00242,490.2,476.25)"
       inkscape:connector-curvature="0" />
    <path
       style="fill:#ddafe9"
       id="path1513"
       d="m 205,522.72 c -3.2e-4,9.665 -7.8356,17.5 -17.501,17.499 -9.6654,-0.001 -17.5,-7.8356 -17.499,-17.501 0.001,-9.6654 7.8356,-17.5 17.501,-17.499 9.6654,0.001 17.5,7.8356 17.499,17.501"
       transform="matrix(0.15003,0,0,0.12188,443.75,390.7)"
       inkscape:connector-curvature="0" />
    <path
       style="fill:#ddafe9"
       id="path1515"
       d="m 205,522.72 c -3.2e-4,9.665 -7.8356,17.5 -17.501,17.499 -9.6654,-0.001 -17.5,-7.8356 -17.499,-17.501 0.001,-9.6654 7.8356,-17.5 17.501,-17.499 9.6654,0.001 17.5,7.8356 17.499,17.501"
       transform="matrix(0.08656,0,0,0.07031,461.64,379.63)"
       inkscape:connector-curvature="0" />
    <path
       style="fill:#ddafe9"
       id="path1517"
       d="m 205,522.72 c -3.2e-4,9.665 -7.8356,17.5 -17.501,17.499 -9.6654,-0.001 -17.5,-7.8356 -17.499,-17.501 0.001,-9.6654 7.8356,-17.5 17.501,-17.499 9.6654,0.001 17.5,7.8356 17.499,17.501"
       transform="matrix(-0.00366,-0.15576,-0.12653,0.00297,540.58,451.63)"
       inkscape:connector-curvature="0" />
    <path
       style="fill:#ddafe9"
       id="path1519"
       d="m 205,522.72 c -3.2e-4,9.665 -7.8356,17.5 -17.501,17.499 -9.6654,-0.001 -17.5,-7.8356 -17.499,-17.501 0.001,-9.6654 7.8356,-17.5 17.501,-17.499 9.6654,0.001 17.5,7.8356 17.499,17.501"
       transform="matrix(-0.00529,-0.22499,-0.18276,0.0043,565.87,457.56)"
       inkscape:connector-curvature="0" />
    <path
       style="fill:#ddafe9"
       id="path1521"
       d="m 205,522.72 c -3.2e-4,9.665 -7.8356,17.5 -17.501,17.499 -9.6654,-0.001 -17.5,-7.8356 -17.499,-17.501 0.001,-9.6654 7.8356,-17.5 17.501,-17.499 9.6654,0.001 17.5,7.8356 17.499,17.501"
       transform="matrix(-0.00298,-0.12692,-0.1031,0.00242,523.42,448.75)"
       inkscape:connector-curvature="0" />
    <path
       style="fill:#ddafe9"
       id="path1523"
       d="m 205,522.72 c -3.2e-4,9.665 -7.8356,17.5 -17.501,17.499 -9.6654,-0.001 -17.5,-7.8356 -17.499,-17.501 0.001,-9.6654 7.8356,-17.5 17.501,-17.499 9.6654,0.001 17.5,7.8356 17.499,17.501"
       transform="matrix(0.08656,0,0,0.07031,461.64,379.63)"
       inkscape:connector-curvature="0" />
    <path
       style="fill:#ddafe9"
       id="path1525"
       d="m 205,522.72 c -3.2e-4,9.665 -7.8356,17.5 -17.501,17.499 -9.6654,-0.001 -17.5,-7.8356 -17.499,-17.501 0.001,-9.6654 7.8356,-17.5 17.501,-17.499 9.6654,0.001 17.5,7.8356 17.499,17.501"
       transform="matrix(-0.00366,-0.15576,-0.12653,0.00297,540.58,451.63)"
       inkscape:connector-curvature="0" />
    <path
       style="fill:#ddafe9"
       id="path1527"
       d="m 205,522.72 c -3.2e-4,9.665 -7.8356,17.5 -17.501,17.499 -9.6654,-0.001 -17.5,-7.8356 -17.499,-17.501 0.001,-9.6654 7.8356,-17.5 17.501,-17.499 9.6654,0.001 17.5,7.8356 17.499,17.501"
       transform="matrix(-0.00529,-0.22499,-0.18276,0.0043,565.87,457.56)"
       inkscape:connector-curvature="0" />
    <path
       style="fill:#ddafe9"
       id="path1529"
       d="m 205,522.72 c -3.2e-4,9.665 -7.8356,17.5 -17.501,17.499 -9.6654,-0.001 -17.5,-7.8356 -17.499,-17.501 0.001,-9.6654 7.8356,-17.5 17.501,-17.499 9.6654,0.001 17.5,7.8356 17.499,17.501"
       transform="matrix(-0.00298,-0.12692,-0.1031,0.00242,523.42,448.75)"
       inkscape:connector-curvature="0" />
    <path
       style="fill:#ddafe9"
       id="path1531"
       d="m 205,522.72 c -3.2e-4,9.665 -7.8356,17.5 -17.501,17.499 -9.6654,-0.001 -17.5,-7.8356 -17.499,-17.501 0.001,-9.6654 7.8356,-17.5 17.501,-17.499 9.6654,0.001 17.5,7.8356 17.499,17.501"
       transform="matrix(-0.00366,-0.15576,-0.12653,0.00297,542.44,473.42)"
       inkscape:connector-curvature="0" />
    <path
       style="fill:#ddafe9"
       id="path1533"
       d="m 205,522.72 c -3.2e-4,9.665 -7.8356,17.5 -17.501,17.499 -9.6654,-0.001 -17.5,-7.8356 -17.499,-17.501 0.001,-9.6654 7.8356,-17.5 17.501,-17.499 9.6654,0.001 17.5,7.8356 17.499,17.501"
       transform="matrix(-0.00529,-0.22499,-0.18276,0.0043,567.72,479.35)"
       inkscape:connector-curvature="0" />
    <path
       style="fill:#ddafe9"
       id="path1535"
       d="m 205,522.72 c -3.2e-4,9.665 -7.8356,17.5 -17.501,17.499 -9.6654,-0.001 -17.5,-7.8356 -17.499,-17.501 0.001,-9.6654 7.8356,-17.5 17.501,-17.499 9.6654,0.001 17.5,7.8356 17.499,17.501"
       transform="matrix(-0.00298,-0.12692,-0.1031,0.00242,525.27,470.53)"
       inkscape:connector-curvature="0" />
    <path
       style="fill:#ddafe9"
       id="path1537"
       d="m 205,522.72 c -3.2e-4,9.665 -7.8356,17.5 -17.501,17.499 -9.6654,-0.001 -17.5,-7.8356 -17.499,-17.501 0.001,-9.6654 7.8356,-17.5 17.501,-17.499 9.6654,0.001 17.5,7.8356 17.499,17.501"
       transform="matrix(-0.00285,-0.12115,-0.09841,0.00231,523.49,453.63)"
       inkscape:connector-curvature="0" />
    <path
       style="fill:#ddafe9"
       id="path1539"
       d="m 205,522.72 c -3.2e-4,9.665 -7.8356,17.5 -17.501,17.499 -9.6654,-0.001 -17.5,-7.8356 -17.499,-17.501 0.001,-9.6654 7.8356,-17.5 17.501,-17.499 9.6654,0.001 17.5,7.8356 17.499,17.501"
       transform="matrix(-0.00366,-0.15576,-0.12653,0.00297,542.44,473.42)"
       inkscape:connector-curvature="0" />
    <path
       style="fill:#ddafe9"
       id="path1541"
       d="m 205,522.72 c -3.2e-4,9.665 -7.8356,17.5 -17.501,17.499 -9.6654,-0.001 -17.5,-7.8356 -17.499,-17.501 0.001,-9.6654 7.8356,-17.5 17.501,-17.499 9.6654,0.001 17.5,7.8356 17.499,17.501"
       transform="matrix(-0.00529,-0.22499,-0.18276,0.0043,567.72,479.35)"
       inkscape:connector-curvature="0" />
    <path
       style="fill:#ddafe9"
       id="path1543"
       d="m 205,522.72 c -3.2e-4,9.665 -7.8356,17.5 -17.501,17.499 -9.6654,-0.001 -17.5,-7.8356 -17.499,-17.501 0.001,-9.6654 7.8356,-17.5 17.501,-17.499 9.6654,0.001 17.5,7.8356 17.499,17.501"
       transform="matrix(-0.00298,-0.12692,-0.1031,0.00242,525.27,470.53)"
       inkscape:connector-curvature="0" />
    <path
       style="fill:#ddafe9"
       id="path1545"
       d="m 205,522.72 c -3.2e-4,9.665 -7.8356,17.5 -17.501,17.499 -9.6654,-0.001 -17.5,-7.8356 -17.499,-17.501 0.001,-9.6654 7.8356,-17.5 17.501,-17.499 9.6654,0.001 17.5,7.8356 17.499,17.501"
       transform="matrix(-0.00285,-0.12115,-0.09841,0.00231,523.49,453.63)"
       inkscape:connector-curvature="0" />
    <path
       style="fill:#ddafe9"
       id="path1547"
       d="m 205,522.72 c -3.2e-4,9.665 -7.8356,17.5 -17.501,17.499 -9.6654,-0.001 -17.5,-7.8356 -17.499,-17.501 0.001,-9.6654 7.8356,-17.5 17.501,-17.499 9.6654,0.001 17.5,7.8356 17.499,17.501"
       transform="matrix(0.08656,0,0,0.07031,457.71,374.99)"
       inkscape:connector-curvature="0" />
    <path
       style="fill:#ddafe9"
       id="path1549"
       d="m 205,522.72 c -3.2e-4,9.665 -7.8356,17.5 -17.501,17.499 -9.6654,-0.001 -17.5,-7.8356 -17.499,-17.501 0.001,-9.6654 7.8356,-17.5 17.501,-17.499 9.6654,0.001 17.5,7.8356 17.499,17.501"
       transform="matrix(0.08656,0,0,0.07031,443.78,395.7)"
       inkscape:connector-curvature="0" />
    <path
       style="fill:#ddafe9"
       id="path1551"
       d="m 205,522.72 c -3.2e-4,9.665 -7.8356,17.5 -17.501,17.499 -9.6654,-0.001 -17.5,-7.8356 -17.499,-17.501 0.001,-9.6654 7.8356,-17.5 17.501,-17.499 9.6654,0.001 17.5,7.8356 17.499,17.501"
       transform="matrix(-0.00529,-0.22499,-0.18276,0.0043,548.01,473.63)"
       inkscape:connector-curvature="0" />
    <path
       style="fill:#ddafe9"
       id="path1553"
       d="m 205,522.72 c -3.2e-4,9.665 -7.8356,17.5 -17.501,17.499 -9.6654,-0.001 -17.5,-7.8356 -17.499,-17.501 0.001,-9.6654 7.8356,-17.5 17.501,-17.499 9.6654,0.001 17.5,7.8356 17.499,17.501"
       transform="matrix(0.08656,0,0,0.07031,443.78,395.7)"
       inkscape:connector-curvature="0" />
    <path
       style="fill:#ddafe9"
       id="path1555"
       d="m 205,522.72 c -3.2e-4,9.665 -7.8356,17.5 -17.501,17.499 -9.6654,-0.001 -17.5,-7.8356 -17.499,-17.501 0.001,-9.6654 7.8356,-17.5 17.501,-17.499 9.6654,0.001 17.5,7.8356 17.499,17.501"
       transform="matrix(-0.00529,-0.22499,-0.18276,0.0043,548.01,473.63)"
       inkscape:connector-curvature="0" />
    <path
       style="fill:#ddafe9"
       id="path1557"
       d="m 205,522.72 c -3.2e-4,9.665 -7.8356,17.5 -17.501,17.499 -9.6654,-0.001 -17.5,-7.8356 -17.499,-17.501 0.001,-9.6654 7.8356,-17.5 17.501,-17.499 9.6654,0.001 17.5,7.8356 17.499,17.501"
       transform="matrix(0.08656,0,0,0.07031,447.36,393.92)"
       inkscape:connector-curvature="0" />
  </g>
</svg>
