<?xml version="1.0" encoding="UTF-8" standalone="no"?>
<svg
   xmlns:dc="http://purl.org/dc/elements/1.1/"
   xmlns:cc="http://creativecommons.org/ns#"
   xmlns:rdf="http://www.w3.org/1999/02/22-rdf-syntax-ns#"
   xmlns:svg="http://www.w3.org/2000/svg"
   xmlns="http://www.w3.org/2000/svg"
   xmlns:sodipodi="http://sodipodi.sourceforge.net/DTD/sodipodi-0.dtd"
   xmlns:inkscape="http://www.inkscape.org/namespaces/inkscape"
   viewBox="0 0 69.999999 70"
   version="1.1"
   id="svg1749"
   sodipodi:docname="I.svg"
   inkscape:version="0.92.3 (2405546, 2018-03-11)"
   width="70"
   height="70">
  <metadata
     id="metadata1753">
    <rdf:RDF>
      <cc:Work
         rdf:about="">
        <dc:format>image/svg+xml</dc:format>
        <dc:type
           rdf:resource="http://purl.org/dc/dcmitype/StillImage" />
        <dc:title></dc:title>
        <dc:title></dc:title>
      </cc:Work>
    </rdf:RDF>
  </metadata>
  <sodipodi:namedview
     pagecolor="#ffffff"
     bordercolor="#666666"
     borderopacity="1"
     objecttolerance="10"
     gridtolerance="10"
     guidetolerance="10"
     inkscape:pageopacity="0"
     inkscape:pageshadow="2"
     inkscape:window-width="1920"
     inkscape:window-height="1052"
     id="namedview1751"
     showgrid="false"
     inkscape:zoom="4.4779145"
     inkscape:cx="22.30818"
     inkscape:cy="50.256837"
     inkscape:window-x="0"
     inkscape:window-y="360"
     inkscape:window-maximized="1"
     inkscape:current-layer="svg1749" />
  <defs
     id="defs5">
    <filter
       id="a"
       x="-0.46415001"
       y="-0.46415001"
       width="1.9283"
       height="1.9283">
      <feGaussianBlur
         stdDeviation="3.0281"
         id="feGaussianBlur2" />
    </filter>
    <filter
       height="1.9283"
       width="1.9283"
       y="-0.46415001"
       x="-0.46415001"
       id="a-4">
      <feGaussianBlur
         id="feGaussianBlur2-6"
         stdDeviation="3.0281" />
    </filter>
    <filter
       height="1.9283"
       width="1.9283"
       y="-0.46415001"
       x="-0.46415001"
       id="filter11866">
      <feGaussianBlur
         id="feGaussianBlur11864"
         stdDeviation="3.0281" />
    </filter>
    <filter
       height="1.9283"
       width="1.9283"
       y="-0.46415001"
       x="-0.46415001"
       id="filter11870">
      <feGaussianBlur
         id="feGaussianBlur11868"
         stdDeviation="3.0281" />
    </filter>
    <filter
       height="1.9283"
       width="1.9283"
       y="-0.46415001"
       x="-0.46415001"
       id="filter11874">
      <feGaussianBlur
         id="feGaussianBlur11872"
         stdDeviation="3.0281" />
    </filter>
    <filter
       height="1.9283"
       width="1.9283"
       y="-0.46415001"
       x="-0.46415001"
       id="filter11878">
      <feGaussianBlur
         id="feGaussianBlur11876"
         stdDeviation="3.0281" />
    </filter>
    <filter
       height="1.9283"
       width="1.9283"
       y="-0.46415001"
       x="-0.46415001"
       id="filter11882">
      <feGaussianBlur
         id="feGaussianBlur11880"
         stdDeviation="3.0281" />
    </filter>
    <filter
       height="1.9283"
       width="1.9283"
       y="-0.46415001"
       x="-0.46415001"
       id="filter11886">
      <feGaussianBlur
         id="feGaussianBlur11884"
         stdDeviation="3.0281" />
    </filter>
    <filter
       height="1.9283"
       width="1.9283"
       y="-0.46415001"
       x="-0.46415001"
       id="filter11890">
      <feGaussianBlur
         id="feGaussianBlur11888"
         stdDeviation="3.0281" />
    </filter>
    <filter
       height="1.9283"
       width="1.9283"
       y="-0.46415001"
       x="-0.46415001"
       id="filter11894">
      <feGaussianBlur
         id="feGaussianBlur11892"
         stdDeviation="3.0281" />
    </filter>
    <filter
       height="1.9283"
       width="1.9283"
       y="-0.46415001"
       x="-0.46415001"
       id="filter11898">
      <feGaussianBlur
         id="feGaussianBlur11896"
         stdDeviation="3.0281" />
    </filter>
    <filter
       height="1.9283"
       width="1.9283"
       y="-0.46415001"
       x="-0.46415001"
       id="filter11902">
      <feGaussianBlur
         id="feGaussianBlur11900"
         stdDeviation="3.0281" />
    </filter>
  </defs>
  <g
     id="g1189"
     transform="matrix(1.015559,0,0,1.0862263,-485.2145,-430.79322)">
    <path
       style="fill:#00aad4;stroke:#006680"
       id="path1159"
       d="m 522.63,444.75 c -10e-5,3.0938 -0.1641,5.4082 -0.4922,6.9434 -0.3281,1.5352 -1.0079,2.8301 -2.0391,3.8848 -1.8281,2.0156 -4.1367,3.0234 -6.9258,3.0234 -2.7187,0 -5.039,-0.96094 -6.9609,-2.8828 -1.0313,-1.0312 -1.7109,-2.3555 -2.0391,-3.9727 -0.3282,-1.6172 -0.4922,-3.9492 -0.4922,-6.9961 v -31.395 c 0,-3.0703 0.1641,-5.4023 0.4922,-6.9961 0.3281,-1.5938 1.0078,-2.9062 2.0391,-3.9375 0.4687,-0.46869 1.0488,-0.92572 1.7402,-1.3711 0.6914,-0.44538 1.4824,-0.80854 2.3731,-1.0898 0.8907,-0.28126 1.8164,-0.42182 2.7773,-0.42188 1.3594,6e-5 2.6367,0.24029 3.832,0.7207 1.1953,0.48041 2.2266,1.1778 3.0938,2.0918 1.0547,1.0547 1.7519,2.3965 2.0918,4.0254 0.3399,1.6289 0.5097,3.9551 0.5098,6.9785 z"
       inkscape:connector-curvature="0" />
    <path
       style="fill:#d5f6ff;stroke:#666666;stroke-width:0.64437997"
       id="path1161"
       d="m 516.21059,407.15683 c -1.1e-4,3.05215 -2.6742,5.52651 -5.97267,5.5263 -3.29846,-2.2e-4 -5.97245,-2.47459 -5.97224,-5.52674 2.1e-4,-3.05215 2.67421,-5.52651 5.97267,-5.5263 3.29846,2.3e-4 5.97245,2.47459 5.97224,5.52674"
       inkscape:connector-curvature="0" />
    <path
       style="fill:#006680"
       id="path1163"
       d="m 512.15,570.52 c -1.5e-4,4.4631 -3.6184,8.0811 -8.0815,8.081 -4.4631,-10e-5 -8.0811,-3.6184 -8.081,-8.0815 10e-5,-4.4631 3.6184,-8.0811 8.0815,-8.081 4.4631,10e-5 8.0811,3.6184 8.081,8.0815"
       transform="matrix(0.28275,0,0,0.22969,364.06,275.44)"
       inkscape:connector-curvature="0" />
    <path
       style="fill:#004455"
       id="path1165"
       d="m 503.56,570.27 c -7e-5,2.0921 -1.6961,3.788 -3.7882,3.788 -2.0921,0 -3.788,-1.6961 -3.7879,-3.7882 10e-5,-2.0921 1.6961,-3.788 3.7882,-3.788 2.0921,0 3.788,1.6961 3.7879,3.7882"
       transform="matrix(0.28275,0,0,0.22969,365.34,275.33)"
       inkscape:connector-curvature="0" />
    <path
       style="fill:#55ddff;filter:url(#a-4)"
       id="path1167"
       d="m 495.48,619.26 c -1.5e-4,4.3237 -3.5053,7.8286 -7.829,7.8284 -4.3237,-2e-4 -7.8286,-3.5053 -7.8284,-7.8289 2e-4,-4.3236 3.5053,-7.8286 7.8289,-7.8284 4.3236,2e-4 7.8286,3.5053 7.8284,7.829"
       transform="matrix(0.28275,0,0,0.22969,370.34,279.26)"
       inkscape:connector-curvature="0" />
    <path
       style="fill:#55ddff;filter:url(#a-4)"
       id="path1169"
       d="m 495.48,619.26 c -1.5e-4,4.3237 -3.5053,7.8286 -7.829,7.8284 -4.3237,-2e-4 -7.8286,-3.5053 -7.8284,-7.8289 2e-4,-4.3236 3.5053,-7.8286 7.8289,-7.8284 4.3236,2e-4 7.8286,3.5053 7.8284,7.829"
       transform="matrix(0.28275,0,0,0.22969,375.7,290.33)"
       inkscape:connector-curvature="0" />
    <path
       style="fill:#55ddff;filter:url(#a-4)"
       id="path1171"
       d="m 495.48,619.26 c -1.5e-4,4.3237 -3.5053,7.8286 -7.829,7.8284 -4.3237,-2e-4 -7.8286,-3.5053 -7.8284,-7.8289 2e-4,-4.3236 3.5053,-7.8286 7.8289,-7.8284 4.3236,2e-4 7.8286,3.5053 7.8284,7.829"
       transform="matrix(0.28275,0,0,0.22969,378.92,283.54)"
       inkscape:connector-curvature="0" />
    <path
       style="fill:#55ddff;filter:url(#a-4)"
       id="path1173"
       d="m 495.48,619.26 c -1.5e-4,4.3237 -3.5053,7.8286 -7.829,7.8284 -4.3237,-2e-4 -7.8286,-3.5053 -7.8284,-7.8289 2e-4,-4.3236 3.5053,-7.8286 7.8289,-7.8284 4.3236,2e-4 7.8286,3.5053 7.8284,7.829"
       transform="matrix(0.28275,0,0,0.22969,371.77,296.76)"
       inkscape:connector-curvature="0" />
    <path
       style="fill:#55ddff;filter:url(#a-4)"
       id="path1175"
       d="m 495.48,619.26 c -1.5e-4,4.3237 -3.5053,7.8286 -7.829,7.8284 -4.3237,-2e-4 -7.8286,-3.5053 -7.8284,-7.8289 2e-4,-4.3236 3.5053,-7.8286 7.8289,-7.8284 4.3236,2e-4 7.8286,3.5053 7.8284,7.829"
       transform="matrix(0.28275,0,0,0.22969,377.84,302.47)"
       inkscape:connector-curvature="0" />
    <path
       style="fill:#55ddff;filter:url(#a-4)"
       id="path1177"
       d="m 495.48,619.26 c -1.5e-4,4.3237 -3.5053,7.8286 -7.829,7.8284 -4.3237,-2e-4 -7.8286,-3.5053 -7.8284,-7.8289 2e-4,-4.3236 3.5053,-7.8286 7.8289,-7.8284 4.3236,2e-4 7.8286,3.5053 7.8284,7.829"
       transform="matrix(0.28275,0,0,0.22969,379.27,295.69)"
       inkscape:connector-curvature="0" />
    <path
       style="fill:#55ddff;filter:url(#a-4)"
       id="path1179"
       d="m 495.48,619.26 c -1.5e-4,4.3237 -3.5053,7.8286 -7.829,7.8284 -4.3237,-2e-4 -7.8286,-3.5053 -7.8284,-7.8289 2e-4,-4.3236 3.5053,-7.8286 7.8289,-7.8284 4.3236,2e-4 7.8286,3.5053 7.8284,7.829"
       transform="matrix(0.28275,0,0,0.22969,371.06,287.11)"
       inkscape:connector-curvature="0" />
    <path
       style="fill:#55ddff;filter:url(#a-4)"
       id="path1181"
       d="m 495.48,619.26 c -1.5e-4,4.3237 -3.5053,7.8286 -7.829,7.8284 -4.3237,-2e-4 -7.8286,-3.5053 -7.8284,-7.8289 2e-4,-4.3236 3.5053,-7.8286 7.8289,-7.8284 4.3236,2e-4 7.8286,3.5053 7.8284,7.829"
       transform="matrix(0.28275,0,0,0.22969,381.42,269.97)"
       inkscape:connector-curvature="0" />
    <path
       style="fill:#55ddff;filter:url(#a-4)"
       id="path1183"
       d="m 495.48,619.26 c -1.5e-4,4.3237 -3.5053,7.8286 -7.829,7.8284 -4.3237,-2e-4 -7.8286,-3.5053 -7.8284,-7.8289 2e-4,-4.3236 3.5053,-7.8286 7.8289,-7.8284 4.3236,2e-4 7.8286,3.5053 7.8284,7.829"
       transform="matrix(0.28275,0,0,0.22969,376.42,275.33)"
       inkscape:connector-curvature="0" />
    <path
       style="fill:#55ddff;filter:url(#a-4)"
       id="path1185"
       d="m 495.48,619.26 c -1.5e-4,4.3237 -3.5053,7.8286 -7.829,7.8284 -4.3237,-2e-4 -7.8286,-3.5053 -7.8284,-7.8289 2e-4,-4.3236 3.5053,-7.8286 7.8289,-7.8284 4.3236,2e-4 7.8286,3.5053 7.8284,7.829"
       transform="matrix(0.28275,0,0,0.22969,370.34,304.61)"
       inkscape:connector-curvature="0" />
    <path
       style="fill:#55ddff;filter:url(#a-4)"
       id="path1187"
       d="m 495.48,619.26 c -1.5e-4,4.3237 -3.5053,7.8286 -7.829,7.8284 -4.3237,-2e-4 -7.8286,-3.5053 -7.8284,-7.8289 2e-4,-4.3236 3.5053,-7.8286 7.8289,-7.8284 4.3236,2e-4 7.8286,3.5053 7.8284,7.829"
       transform="matrix(0.28275,0,0,0.22969,376.42,312.11)"
       inkscape:connector-curvature="0" />
  </g>
</svg>
