<?xml version="1.0" encoding="UTF-8" standalone="no"?>
<svg
   xmlns:dc="http://purl.org/dc/elements/1.1/"
   xmlns:cc="http://creativecommons.org/ns#"
   xmlns:rdf="http://www.w3.org/1999/02/22-rdf-syntax-ns#"
   xmlns:svg="http://www.w3.org/2000/svg"
   xmlns="http://www.w3.org/2000/svg"
   xmlns:sodipodi="http://sodipodi.sourceforge.net/DTD/sodipodi-0.dtd"
   xmlns:inkscape="http://www.inkscape.org/namespaces/inkscape"
   viewBox="0 0 69.999999 70"
   version="1.1"
   id="svg1749"
   sodipodi:docname="J.svg"
   inkscape:version="0.92.3 (2405546, 2018-03-11)"
   width="70"
   height="70">
  <metadata
     id="metadata1753">
    <rdf:RDF>
      <cc:Work
         rdf:about="">
        <dc:format>image/svg+xml</dc:format>
        <dc:type
           rdf:resource="http://purl.org/dc/dcmitype/StillImage" />
        <dc:title></dc:title>
        <dc:title></dc:title>
      </cc:Work>
    </rdf:RDF>
  </metadata>
  <sodipodi:namedview
     pagecolor="#ffffff"
     bordercolor="#666666"
     borderopacity="1"
     objecttolerance="10"
     gridtolerance="10"
     guidetolerance="10"
     inkscape:pageopacity="0"
     inkscape:pageshadow="2"
     inkscape:window-width="1920"
     inkscape:window-height="1052"
     id="namedview1751"
     showgrid="false"
     inkscape:zoom="4.4779145"
     inkscape:cx="22.30818"
     inkscape:cy="50.256837"
     inkscape:window-x="0"
     inkscape:window-y="360"
     inkscape:window-maximized="1"
     inkscape:current-layer="svg1749" />
  <defs
     id="defs5">
    <filter
       id="a"
       x="-0.46415001"
       y="-0.46415001"
       width="1.9283"
       height="1.9283">
      <feGaussianBlur
         stdDeviation="3.0281"
         id="feGaussianBlur2" />
    </filter>
    <filter
       height="1.9283"
       width="1.9283"
       y="-0.46415001"
       x="-0.46415001"
       id="a-4">
      <feGaussianBlur
         id="feGaussianBlur2-6"
         stdDeviation="3.0281" />
    </filter>
    <filter
       height="1.9283"
       width="1.9283"
       y="-0.46415001"
       x="-0.46415001"
       id="filter11866">
      <feGaussianBlur
         id="feGaussianBlur11864"
         stdDeviation="3.0281" />
    </filter>
    <filter
       height="1.9283"
       width="1.9283"
       y="-0.46415001"
       x="-0.46415001"
       id="filter11870">
      <feGaussianBlur
         id="feGaussianBlur11868"
         stdDeviation="3.0281" />
    </filter>
    <filter
       height="1.9283"
       width="1.9283"
       y="-0.46415001"
       x="-0.46415001"
       id="filter11874">
      <feGaussianBlur
         id="feGaussianBlur11872"
         stdDeviation="3.0281" />
    </filter>
    <filter
       height="1.9283"
       width="1.9283"
       y="-0.46415001"
       x="-0.46415001"
       id="filter11878">
      <feGaussianBlur
         id="feGaussianBlur11876"
         stdDeviation="3.0281" />
    </filter>
    <filter
       height="1.9283"
       width="1.9283"
       y="-0.46415001"
       x="-0.46415001"
       id="filter11882">
      <feGaussianBlur
         id="feGaussianBlur11880"
         stdDeviation="3.0281" />
    </filter>
    <filter
       height="1.9283"
       width="1.9283"
       y="-0.46415001"
       x="-0.46415001"
       id="filter11886">
      <feGaussianBlur
         id="feGaussianBlur11884"
         stdDeviation="3.0281" />
    </filter>
    <filter
       height="1.9283"
       width="1.9283"
       y="-0.46415001"
       x="-0.46415001"
       id="filter11890">
      <feGaussianBlur
         id="feGaussianBlur11888"
         stdDeviation="3.0281" />
    </filter>
    <filter
       height="1.9283"
       width="1.9283"
       y="-0.46415001"
       x="-0.46415001"
       id="filter11894">
      <feGaussianBlur
         id="feGaussianBlur11892"
         stdDeviation="3.0281" />
    </filter>
    <filter
       height="1.9283"
       width="1.9283"
       y="-0.46415001"
       x="-0.46415001"
       id="filter11898">
      <feGaussianBlur
         id="feGaussianBlur11896"
         stdDeviation="3.0281" />
    </filter>
    <filter
       height="1.9283"
       width="1.9283"
       y="-0.46415001"
       x="-0.46415001"
       id="filter11902">
      <feGaussianBlur
         id="feGaussianBlur11900"
         stdDeviation="3.0281" />
    </filter>
  </defs>
  <g
     id="g1129"
     transform="translate(-527.74935,-392.79238)">
    <path
       style="fill:#ff5555;stroke:#c83737"
       id="path1099"
       d="m 584.12,431.82 c -10e-5,2.086 -0.076,4.0606 -0.2286,5.9238 -0.1526,1.8632 -0.4805,3.709 -0.9843,5.5371 -0.5038,1.8281 -1.2716,3.5274 -2.3028,5.0977 -2.0156,2.9766 -4.5996,5.127 -7.7519,6.4512 -3.1523,1.3242 -6.5684,1.9863 -10.248,1.9863 -3.6328,0 -7.0898,-0.69141 -10.371,-2.0742 -3.2812,-1.38279 -5.9648,-3.6328 -8.0507,-6.75 -2.0859,-3.1172 -3.129,-7.0664 -3.1289,-11.848 -10e-5,-2.4609 0.5917,-4.3652 1.7753,-5.7129 1.1836,-1.3477 2.4786,-2.2558 3.8848,-2.7246 1.4062,-0.4688 2.5195,-0.7031 3.3399,-0.70313 1.9921,3e-5 3.58,0.38089 4.7636,1.1426 1.1836,0.76171 2.127,1.9102 2.8301,3.4453 0.7031,1.5351 1.3711,3.6504 2.0039,6.3457 0.2344,0.9844 0.5215,1.6758 0.8613,2.0742 0.3398,0.3984 0.9317,0.59767 1.7754,0.59766 1.2422,1e-5 2.0332,-0.52733 2.3731,-1.582 0.3399,-1.05467 0.5097,-2.4726 0.5097,-4.2539 v -23.203 c 0,-2.1562 0.07,-3.8613 0.211,-5.1152 0.141,-1.2539 0.3925,-2.3437 0.7558,-3.2695 0.3633,-0.9258 0.8848,-1.7519 1.5645,-2.4785 0.7734,-0.86714 1.7578,-1.5761 2.9531,-2.127 1.1953,-0.5509 2.5195,-0.82611 3.9727,-0.82617 1.289,6e-5 2.5605,0.25787 3.8144,0.77344 1.2539,0.51557 2.2793,1.2188 3.0762,2.1094 1.0781,1.1016 1.7812,2.4317 2.1094,3.9902 0.3282,1.5585 0.4921,3.8731 0.4922,6.9434 z"
       inkscape:connector-curvature="0" />
    <path
       style="fill:#ffd5d5;stroke:#a02c2c;stroke-width:3"
       id="path1101"
       d="m 356.43,979.51 c -2.8e-4,8.2843 -6.7162,15 -15,15 -8.2838,0 -15,-6.7162 -15,-15 0,-8.2838 6.7162,-15 15,-15 8.2838,0 15,6.7162 15,15"
       transform="matrix(0.23059,0,0,0.18731,487.29,220.55)"
       inkscape:connector-curvature="0" />
    <path
       style="fill:#782121"
       id="path1103"
       d="m 355.71,985.93 c -1.4e-4,4.3394 -3.518,7.857 -7.8574,7.8569 -4.3394,-10e-5 -7.857,-3.518 -7.8569,-7.8574 10e-5,-4.3394 3.518,-7.857 7.8574,-7.8569 4.3394,1e-4 7.857,3.518 7.8569,7.8574"
       transform="matrix(0.23777,0,0,0.19315,482.41,213.87)"
       inkscape:connector-curvature="0" />
    <path
       style="fill:#280b0b"
       id="path1105"
       d="m 355.71,985.93 c -1.4e-4,4.3394 -3.518,7.857 -7.8574,7.8569 -4.3394,-10e-5 -7.857,-3.518 -7.8569,-7.8574 10e-5,-4.3394 3.518,-7.857 7.8574,-7.8569 4.3394,1e-4 7.857,3.518 7.8569,7.8574"
       transform="matrix(0.11348,0,0,0.09218,525.65,313.41)"
       inkscape:connector-curvature="0" />
    <path
       style="fill:#ffd5d5;stroke:#a02c2c;stroke-width:3"
       id="path1107"
       d="m 356.43,979.51 c -2.8e-4,8.2843 -6.7162,15 -15,15 -8.2838,0 -15,-6.7162 -15,-15 0,-8.2838 6.7162,-15 15,-15 8.2838,0 15,6.7162 15,15"
       transform="matrix(0.27051,0,0,0.21975,481.19,187.91)"
       inkscape:connector-curvature="0" />
    <path
       style="fill:#782121"
       id="path1109"
       d="m 355.71,985.93 c -1.4e-4,4.3394 -3.518,7.857 -7.8574,7.8569 -4.3394,-10e-5 -7.857,-3.518 -7.8569,-7.8574 10e-5,-4.3394 3.518,-7.857 7.8574,-7.8569 4.3394,1e-4 7.857,3.518 7.8569,7.8574"
       transform="matrix(0.28275,0,0,0.22969,476,177.1)"
       inkscape:connector-curvature="0" />
    <path
       style="fill:#280b0b"
       id="path1111"
       d="m 355.71,985.93 c -1.4e-4,4.3394 -3.518,7.857 -7.8574,7.8569 -4.3394,-10e-5 -7.857,-3.518 -7.8569,-7.8574 10e-5,-4.3394 3.518,-7.857 7.8574,-7.8569 4.3394,1e-4 7.857,3.518 7.8569,7.8574"
       transform="matrix(0.13495,0,0,0.10963,527.42,295.48)"
       inkscape:connector-curvature="0" />
    <path
       style="fill:none;stroke:#501616;stroke-width:0.76454002"
       id="path1113"
       d="m 564.94,411.74 c 0,0 3.5246,2.7253 6.0238,2.6082 2.4992,-0.1171 4.7622,-3.5378 4.7622,-3.5378 l 0.3495,-0.16222"
       inkscape:connector-curvature="0" />
    <path
       style="fill:none;stroke:#c83737;stroke-width:0.76454002"
       id="path1115"
       d="m 584.23,431.66 c 0,0 -6.261,0.65626 -8.6846,0.16406 -2.4236,-0.4922 -3.4334,-1.1484 -3.4334,-1.1484"
       inkscape:connector-curvature="0" />
    <path
       style="fill:none;stroke:#c83737;stroke-width:0.76454002"
       id="path1117"
       d="m 583.42,436.09 c 0,0 -6.6649,0.98438 -8.8866,0.49219 -2.2217,-0.49219 -3.2315,-1.3125 -3.2315,-1.3125"
       inkscape:connector-curvature="0" />
    <path
       style="fill:none;stroke:#c83737;stroke-width:0.76454002"
       id="path1119"
       d="m 582.77,441.18 c 0,0 -7.0689,1.1484 -9.0885,0.49219 -2.0196,-0.65621 -2.4236,-1.1485 -2.4236,-1.1485"
       inkscape:connector-curvature="0" />
    <path
       style="fill:none;stroke:#c83737;stroke-width:0.76454002"
       id="path1121"
       d="m 581.51,446.26 c 0,0 -5.0492,1.3125 -6.8669,1.1485 -1.8177,-0.164 -4.4433,-2.1328 -4.4433,-2.1328"
       inkscape:connector-curvature="0" />
    <path
       style="fill:none;stroke:#c83737;stroke-width:0.86978"
       id="path1123"
       d="m 576.75,452.04 c 0,0 -2.8276,2.7605 -6.463,0.21235 -3.6354,-2.54815 -4.0394,-4.6716 -4.0394,-4.6716"
       inkscape:connector-curvature="0" />
    <path
       style="fill:none;stroke:#c83737;stroke-width:0.76454002"
       id="path1125"
       d="m 569.48,455.62 c 0,0 -4.2413,-0.32813 -6.261,-1.9688 -2.0197,-1.64067 -2.0197,-4.1016 -2.0197,-4.1016"
       inkscape:connector-curvature="0" />
    <path
       style="fill:none;stroke:#c83737;stroke-width:0.76454002"
       id="path1127"
       d="m 584.03,426.25 c 0,0 -6.463,1.6406 -8.4826,1.6406 -2.0196,0 -3.8374,-1.6406 -3.8374,-1.6406"
       inkscape:connector-curvature="0" />
  </g>
</svg>
