<?xml version="1.0" encoding="UTF-8" standalone="no"?>
<svg
   xmlns:dc="http://purl.org/dc/elements/1.1/"
   xmlns:cc="http://creativecommons.org/ns#"
   xmlns:rdf="http://www.w3.org/1999/02/22-rdf-syntax-ns#"
   xmlns:svg="http://www.w3.org/2000/svg"
   xmlns="http://www.w3.org/2000/svg"
   xmlns:sodipodi="http://sodipodi.sourceforge.net/DTD/sodipodi-0.dtd"
   xmlns:inkscape="http://www.inkscape.org/namespaces/inkscape"
   viewBox="0 0 69.999999 70"
   version="1.1"
   id="svg1749"
   sodipodi:docname="L.svg"
   inkscape:version="0.92.3 (2405546, 2018-03-11)"
   width="70"
   height="70">
  <metadata
     id="metadata1753">
    <rdf:RDF>
      <cc:Work
         rdf:about="">
        <dc:format>image/svg+xml</dc:format>
        <dc:type
           rdf:resource="http://purl.org/dc/dcmitype/StillImage" />
        <dc:title></dc:title>
        <dc:title></dc:title>
      </cc:Work>
    </rdf:RDF>
  </metadata>
  <sodipodi:namedview
     pagecolor="#ffffff"
     bordercolor="#666666"
     borderopacity="1"
     objecttolerance="10"
     gridtolerance="10"
     guidetolerance="10"
     inkscape:pageopacity="0"
     inkscape:pageshadow="2"
     inkscape:window-width="1920"
     inkscape:window-height="1052"
     id="namedview1751"
     showgrid="false"
     inkscape:zoom="4.4779145"
     inkscape:cx="22.30818"
     inkscape:cy="50.256837"
     inkscape:window-x="0"
     inkscape:window-y="360"
     inkscape:window-maximized="1"
     inkscape:current-layer="svg1749" />
  <defs
     id="defs5">
    <filter
       id="a"
       x="-0.46415001"
       y="-0.46415001"
       width="1.9283"
       height="1.9283">
      <feGaussianBlur
         stdDeviation="3.0281"
         id="feGaussianBlur2" />
    </filter>
    <filter
       height="1.9283"
       width="1.9283"
       y="-0.46415001"
       x="-0.46415001"
       id="a-4">
      <feGaussianBlur
         id="feGaussianBlur2-6"
         stdDeviation="3.0281" />
    </filter>
    <filter
       height="1.9283"
       width="1.9283"
       y="-0.46415001"
       x="-0.46415001"
       id="filter11866">
      <feGaussianBlur
         id="feGaussianBlur11864"
         stdDeviation="3.0281" />
    </filter>
    <filter
       height="1.9283"
       width="1.9283"
       y="-0.46415001"
       x="-0.46415001"
       id="filter11870">
      <feGaussianBlur
         id="feGaussianBlur11868"
         stdDeviation="3.0281" />
    </filter>
    <filter
       height="1.9283"
       width="1.9283"
       y="-0.46415001"
       x="-0.46415001"
       id="filter11874">
      <feGaussianBlur
         id="feGaussianBlur11872"
         stdDeviation="3.0281" />
    </filter>
    <filter
       height="1.9283"
       width="1.9283"
       y="-0.46415001"
       x="-0.46415001"
       id="filter11878">
      <feGaussianBlur
         id="feGaussianBlur11876"
         stdDeviation="3.0281" />
    </filter>
    <filter
       height="1.9283"
       width="1.9283"
       y="-0.46415001"
       x="-0.46415001"
       id="filter11882">
      <feGaussianBlur
         id="feGaussianBlur11880"
         stdDeviation="3.0281" />
    </filter>
    <filter
       height="1.9283"
       width="1.9283"
       y="-0.46415001"
       x="-0.46415001"
       id="filter11886">
      <feGaussianBlur
         id="feGaussianBlur11884"
         stdDeviation="3.0281" />
    </filter>
    <filter
       height="1.9283"
       width="1.9283"
       y="-0.46415001"
       x="-0.46415001"
       id="filter11890">
      <feGaussianBlur
         id="feGaussianBlur11888"
         stdDeviation="3.0281" />
    </filter>
    <filter
       height="1.9283"
       width="1.9283"
       y="-0.46415001"
       x="-0.46415001"
       id="filter11894">
      <feGaussianBlur
         id="feGaussianBlur11892"
         stdDeviation="3.0281" />
    </filter>
    <filter
       height="1.9283"
       width="1.9283"
       y="-0.46415001"
       x="-0.46415001"
       id="filter11898">
      <feGaussianBlur
         id="feGaussianBlur11896"
         stdDeviation="3.0281" />
    </filter>
    <filter
       height="1.9283"
       width="1.9283"
       y="-0.46415001"
       x="-0.46415001"
       id="filter11902">
      <feGaussianBlur
         id="feGaussianBlur11900"
         stdDeviation="3.0281" />
    </filter>
  </defs>
  <g
     id="g311"
     transform="translate(-409.90726,-251.68615)">
    <path
       style="fill:#88aa00;stroke:#668000"
       id="path267"
       d="m 468.17,307.42 c -5e-5,2.2969 -0.8438,4.2891 -2.5312,5.9766 -0.86723,0.89062 -1.9864,1.5 -3.3574,1.8281 -1.371,0.3281 -3.3457,0.49219 -5.9238,0.49219 h -16.559 c -2.6016,0 -4.5059,-0.0703 -5.7129,-0.21094 -1.207,-0.14064 -2.1738,-0.39258 -2.9004,-0.75586 -0.7266,-0.36328 -1.5469,-0.95507 -2.4609,-1.7754 -1.1719,-1.1016 -1.9453,-2.3848 -2.3203,-3.8496 -0.375,-1.4648 -0.5625,-3.9199 -0.5625,-7.3652 v -30.41 c 0,-3.0703 0.16406,-5.3964 0.49219,-6.9785 0.32813,-1.5821 0.99609,-2.9003 2.0039,-3.9551 1.9219,-1.9218 4.2305,-2.8828 6.9258,-2.8828 2.6953,0 5.0039,0.93755 6.9258,2.8125 1.0547,1.0547 1.7461,2.3614 2.0742,3.9199 0.3281,1.5585 0.49216,3.92 0.49218,7.084 0,0 -6.5877,21.362 0,27.949 2.7345,2.7345 11.602,0 11.602,0 2.6718,2e-5 4.6699,0.1465 5.9941,0.43945 1.3242,0.29295 2.3964,0.86135 3.2168,1.7051 1.7343,1.7344 2.6015,3.7266 2.6016,5.9766 z"
       inkscape:connector-curvature="0" />
    <path
       style="fill:none;stroke:#668000;stroke-width:0.38308001"
       id="path269"
       d="M 433.29,284.5 H 425.7"
       inkscape:connector-curvature="0" />
    <path
       style="fill:none;stroke:#668000;stroke-width:0.38308001"
       id="path271"
       d="m 430.77,287.33 -5.2941,-0.12331"
       inkscape:connector-curvature="0" />
    <path
       style="fill:none;stroke:#668000;stroke-width:0.38308001"
       id="path273"
       d="m 433.09,290.05 h -7.8936"
       inkscape:connector-curvature="0" />
    <path
       style="fill:none;stroke:#668000;stroke-width:0.38308001"
       id="path275"
       d="m 431.61,292.76 -6.2616,0.24662"
       inkscape:connector-curvature="0" />
    <path
       style="fill:none;stroke:#668000;stroke-width:0.38308001"
       id="path277"
       d="m 432.56,295.47 c -0.759,0 -7.3053,0.12331 -7.3053,0.12331"
       inkscape:connector-curvature="0" />
    <path
       style="fill:none;stroke:#668000;stroke-width:0.38308001"
       id="path279"
       d="m 430.4,297.69 h -5.1612"
       inkscape:connector-curvature="0" />
    <path
       style="fill:none;stroke:#668000;stroke-width:0.38308001"
       id="path281"
       d="m 432.37,300.65 -6.7742,-0.36994"
       inkscape:connector-curvature="0" />
    <path
       style="fill:none;stroke:#668000;stroke-width:0.38308001"
       id="path283"
       d="m 430.69,302.75 -4.6869,-0.12331"
       inkscape:connector-curvature="0" />
    <path
       style="fill:none;stroke:#668000;stroke-width:0.38308001"
       id="path285"
       d="m 461.08,309.05 0.12602,6.1647"
       inkscape:connector-curvature="0" />
    <path
       style="fill:none;stroke:#668000;stroke-width:0.38308001"
       id="path287"
       d="m 457.61,310.73 0.23999,4.3132"
       inkscape:connector-curvature="0" />
    <path
       style="fill:none;stroke:#668000;stroke-width:0.38308001"
       id="path289"
       d="m 454.28,308.95 0.13105,6.4113"
       inkscape:connector-curvature="0" />
    <path
       style="fill:none;stroke:#668000;stroke-width:0.38308001"
       id="path291"
       d="m 450.9,310.07 -0.20022,5.0592"
       inkscape:connector-curvature="0" />
    <path
       style="fill:none;stroke:#668000;stroke-width:0.38308001"
       id="path293"
       d="m 444.98,308.87 0.12602,6.1647"
       inkscape:connector-curvature="0" />
    <path
       style="fill:none;stroke:#668000;stroke-width:0.38308001"
       id="path295"
       d="m 441.51,310.55 0.23999,4.3133"
       inkscape:connector-curvature="0" />
    <path
       style="fill:none;stroke:#668000;stroke-width:0.38308001"
       id="path297"
       d="m 438.18,308.77 0.13106,6.4113"
       inkscape:connector-curvature="0" />
    <path
       style="fill:none;stroke:#668000;stroke-width:0.38308001"
       id="path299"
       d="m 434.8,309.9 -0.20023,5.0592"
       inkscape:connector-curvature="0" />
    <path
       style="fill:#e6e6e6;stroke:#668000;stroke-width:3"
       id="path301"
       d="m 235,223.08 c -3.4e-4,10.257 -8.3153,18.571 -18.572,18.571 -10.2567,0 -18.571,-8.3153 -18.571,-18.572 0,-10.2567 8.3153,-18.571 18.572,-18.571 10.2567,0 18.571,8.3153 18.571,18.572"
       transform="matrix(0.25033,0,0,0.20335,410.45,255.01)"
       inkscape:connector-curvature="0" />
    <g
       id="g309"
       transform="matrix(0.24408,0,0,0.19827,405.47,254.49)">
      <path
         style="fill:#445500;stroke:#222b00;stroke-width:2"
         id="path303"
         d="m 256.07,232.18 c -1.8e-4,5.4242 -4.3975,9.8213 -9.8218,9.8211 -5.4243,-2e-4 -9.8213,-4.3975 -9.8211,-9.8218 2e-4,-5.4243 4.3975,-9.8213 9.8218,-9.8211 5.4243,2e-4 9.8213,4.3975 9.8211,9.8218"
         inkscape:connector-curvature="0" />
      <path
         style="fill:#222b00"
         id="path305"
         d="m 250.36,232.18 c -7e-5,2.2683 -1.839,4.1071 -4.1073,4.107 -2.2683,-1e-4 -4.1071,-1.839 -4.107,-4.1073 1e-4,-2.2683 1.839,-4.1071 4.1073,-4.107 2.2683,1e-4 4.1071,1.839 4.107,4.1073"
         inkscape:connector-curvature="0" />
      <path
         style="fill:#cdde87"
         id="path307"
         d="m 251.43,228.79 c -4e-5,0.98622 -0.79955,1.7857 -1.7858,1.7856 -0.98625,-1e-4 -1.7857,-0.79955 -1.7856,-1.7858 1e-4,-0.98625 0.79955,-1.7857 1.7858,-1.7857 0.98625,0 1.7857,0.79955 1.7857,1.7858"
         transform="translate(0,1.0714)"
         inkscape:connector-curvature="0" />
    </g>
  </g>
</svg>
