<?xml version="1.0" encoding="UTF-8" standalone="no"?>
<svg
   xmlns:dc="http://purl.org/dc/elements/1.1/"
   xmlns:cc="http://creativecommons.org/ns#"
   xmlns:rdf="http://www.w3.org/1999/02/22-rdf-syntax-ns#"
   xmlns:svg="http://www.w3.org/2000/svg"
   xmlns="http://www.w3.org/2000/svg"
   xmlns:sodipodi="http://sodipodi.sourceforge.net/DTD/sodipodi-0.dtd"
   xmlns:inkscape="http://www.inkscape.org/namespaces/inkscape"
   viewBox="0 0 69.999999 70"
   version="1.1"
   id="svg1749"
   sodipodi:docname="M.svg"
   inkscape:version="0.92.3 (2405546, 2018-03-11)"
   width="70"
   height="70">
  <metadata
     id="metadata1753">
    <rdf:RDF>
      <cc:Work
         rdf:about="">
        <dc:format>image/svg+xml</dc:format>
        <dc:type
           rdf:resource="http://purl.org/dc/dcmitype/StillImage" />
        <dc:title></dc:title>
        <dc:title></dc:title>
      </cc:Work>
    </rdf:RDF>
  </metadata>
  <sodipodi:namedview
     pagecolor="#ffffff"
     bordercolor="#666666"
     borderopacity="1"
     objecttolerance="10"
     gridtolerance="10"
     guidetolerance="10"
     inkscape:pageopacity="0"
     inkscape:pageshadow="2"
     inkscape:window-width="1920"
     inkscape:window-height="1052"
     id="namedview1751"
     showgrid="false"
     inkscape:zoom="4.4779145"
     inkscape:cx="22.30818"
     inkscape:cy="50.256837"
     inkscape:window-x="0"
     inkscape:window-y="360"
     inkscape:window-maximized="1"
     inkscape:current-layer="g1425" />
  <defs
     id="defs5">
    <filter
       id="a"
       x="-0.46415001"
       y="-0.46415001"
       width="1.9283"
       height="1.9283">
      <feGaussianBlur
         stdDeviation="3.0281"
         id="feGaussianBlur2" />
    </filter>
    <filter
       height="1.9283"
       width="1.9283"
       y="-0.46415001"
       x="-0.46415001"
       id="a-4">
      <feGaussianBlur
         id="feGaussianBlur2-6"
         stdDeviation="3.0281" />
    </filter>
    <filter
       height="1.9283"
       width="1.9283"
       y="-0.46415001"
       x="-0.46415001"
       id="filter11866">
      <feGaussianBlur
         id="feGaussianBlur11864"
         stdDeviation="3.0281" />
    </filter>
    <filter
       height="1.9283"
       width="1.9283"
       y="-0.46415001"
       x="-0.46415001"
       id="filter11870">
      <feGaussianBlur
         id="feGaussianBlur11868"
         stdDeviation="3.0281" />
    </filter>
    <filter
       height="1.9283"
       width="1.9283"
       y="-0.46415001"
       x="-0.46415001"
       id="filter11874">
      <feGaussianBlur
         id="feGaussianBlur11872"
         stdDeviation="3.0281" />
    </filter>
    <filter
       height="1.9283"
       width="1.9283"
       y="-0.46415001"
       x="-0.46415001"
       id="filter11878">
      <feGaussianBlur
         id="feGaussianBlur11876"
         stdDeviation="3.0281" />
    </filter>
    <filter
       height="1.9283"
       width="1.9283"
       y="-0.46415001"
       x="-0.46415001"
       id="filter11882">
      <feGaussianBlur
         id="feGaussianBlur11880"
         stdDeviation="3.0281" />
    </filter>
    <filter
       height="1.9283"
       width="1.9283"
       y="-0.46415001"
       x="-0.46415001"
       id="filter11886">
      <feGaussianBlur
         id="feGaussianBlur11884"
         stdDeviation="3.0281" />
    </filter>
    <filter
       height="1.9283"
       width="1.9283"
       y="-0.46415001"
       x="-0.46415001"
       id="filter11890">
      <feGaussianBlur
         id="feGaussianBlur11888"
         stdDeviation="3.0281" />
    </filter>
    <filter
       height="1.9283"
       width="1.9283"
       y="-0.46415001"
       x="-0.46415001"
       id="filter11894">
      <feGaussianBlur
         id="feGaussianBlur11892"
         stdDeviation="3.0281" />
    </filter>
    <filter
       height="1.9283"
       width="1.9283"
       y="-0.46415001"
       x="-0.46415001"
       id="filter11898">
      <feGaussianBlur
         id="feGaussianBlur11896"
         stdDeviation="3.0281" />
    </filter>
    <filter
       height="1.9283"
       width="1.9283"
       y="-0.46415001"
       x="-0.46415001"
       id="filter11902">
      <feGaussianBlur
         id="feGaussianBlur11900"
         stdDeviation="3.0281" />
    </filter>
  </defs>
  <g
     id="g1425"
     transform="translate(-485.43934,-247.68893)">
    <path
       style="fill:#c83737;stroke:#a02c2c"
       id="path1261"
       d="m 551.08,298.04 c -6e-5,2.7422 -0.15241,4.8106 -0.45703,6.2051 -0.30462,1.3945 -0.91413,2.5488 -1.8281,3.4629 -1.7813,1.7812 -3.8438,2.6719 -6.1875,2.6719 -2.4141,-1e-5 -4.5118,-0.86719 -6.293,-2.6016 -0.93754,-0.98437 -1.5528,-2.1855 -1.8457,-3.6035 -0.2929,-1.418 -0.4395,-3.4629 -0.43945,-6.1348 v -18.211 l -4.1836,18.879 c -0.75004,3.4453 -1.4063,5.9004 -1.9688,7.3652 -0.5625,1.4648 -1.3242,2.5195 -2.2852,3.1641 -0.961,0.6446 -2.4024,0.96679 -4.3242,0.96679 -1.5469,0 -2.8067,-0.29882 -3.7793,-0.89648 -0.9726,-0.59766 -1.8223,-1.7168 -2.5488,-3.3574 -0.7265,-1.6406 -1.4649,-4.1016 -2.2148,-7.3828 l -4.1836,-18.211 v 17.684 c 0,2.7656 -0.16409,4.8809 -0.49219,6.3457 -0.3281,1.4648 -0.96096,2.6426 -1.8984,3.5332 -1.7344,1.6406 -3.7734,2.4609 -6.1172,2.4609 -2.4375,-10e-6 -4.5234,-0.86719 -6.2578,-2.6016 -0.9375,-0.98437 -1.5527,-2.1855 -1.8457,-3.6035 -0.293,-1.418 -0.43946,-3.4629 -0.43945,-6.1348 v -31.887 c -1e-5,-3.539 0.15234,-5.9648 0.45703,-7.2773 0.30469,-1.3125 1.0547,-2.5781 2.25,-3.7969 1.1719,-1.2187 2.4082,-2.0038 3.709,-2.3555 1.3008,-0.3517 3.1699,-0.52729 5.6074,-0.52735 2.7422,6e-5 4.7812,0.20514 6.1172,0.61524 1.336,0.4101 2.6015,1.2598 3.7969,2.5488 0.70309,0.70318 1.289,1.6172 1.7578,2.7422 0.46872,1.125 0.96091,2.9649 1.4766,5.5195 l 4.6758,22.113 4.3242,-22.043 c 0.60934,-3.1406 1.3125,-5.496 2.1094,-7.0664 0.7969,-1.5704 2.0624,-2.7011 3.7969,-3.3926 1.7345,-0.6915 4.2773,-1.037 7.6289,-1.0371 2.6718,6e-5 4.7812,0.29303 6.3281,0.87891 1.5469,0.58588 2.8945,1.7579 4.043,3.5156 0.58588,0.8438 0.98431,1.9629 1.1953,3.3574 0.21099,1.3945 0.31635,3.4629 0.31641,6.2051 z"
       inkscape:connector-curvature="0" />
    <path
       style="fill:#f4d7d7;stroke:#a02c2c;stroke-width:3"
       id="path1263"
       d="m 279.81,401.82 c -3e-4,8.9263 -7.2367,16.162 -16.163,16.162 -8.9263,0 -16.162,-7.2367 -16.162,-16.163 0,-8.9263 7.2367,-16.162 16.163,-16.162 8.9263,0 16.162,7.2367 16.162,16.163"
       transform="matrix(0.28275,0,0,0.22969,426.32,212.27)"
       inkscape:connector-curvature="0" />
    <path
       style="fill:#f4d7d7;stroke:#a02c2c;stroke-width:0.76452839"
       id="path1265"
       d="m 502.36493,294.35226 c -1.4e-4,3.45982 -3.45294,6.26456 -7.712,6.26433 -4.25907,-2.3e-4 -7.71173,-2.80497 -7.71144,-6.26479 2.8e-4,-3.45982 3.45294,-6.26457 7.712,-6.26434 4.25907,2.3e-4 7.71173,2.80498 7.71144,6.2648"
       inkscape:connector-curvature="0" />
    <path
       style="fill:#501616;stroke-width:0.25484279"
       id="path1267"
       d="m 495.32434,295.36905 c -6e-5,1.60176 -1.59858,2.90029 -3.57028,2.90006 -1.9717,-2.3e-4 -3.57029,-1.2986 -3.57,-2.90029 2.8e-4,-1.6017 1.59858,-2.9003 3.57028,-2.90007 1.9717,2.3e-4 3.57029,1.2986 3.57,2.9003"
       inkscape:connector-curvature="0" />
    <path
       style="fill:#501616"
       id="path1269"
       d="m 226.27,364.95 c -2.3e-4,6.9736 -5.6537,12.627 -12.627,12.626 -6.9733,-0.001 -12.627,-5.6537 -12.626,-12.627 0.001,-6.9733 5.6537,-12.627 12.627,-12.626 6.9733,0.001 12.627,5.6537 12.626,12.627"
       transform="matrix(0.21489,0,0,0.17456,454.1,240.51)"
       inkscape:connector-curvature="0" />
    <path
       style="fill:#280b0b;stroke-width:0.29364315"
       id="path1271"
       d="m 493.75955,295.05239 c -3e-5,0.48953 -0.73476,0.88637 -1.64103,0.88635 -0.90628,-2e-5 -1.64095,-0.39688 -1.64091,-0.88641 4e-5,-0.48953 0.73475,-0.88637 1.64103,-0.88635 0.90627,2e-5 1.64095,0.39688 1.64091,0.88641"
       inkscape:connector-curvature="0" />
    <path
       style="fill:#280b0b"
       id="path1273"
       d="m 219.46,364.51 c -8e-5,2.2683 -1.839,4.1071 -4.1073,4.107 -2.2683,-1e-4 -4.1071,-1.839 -4.107,-4.1073 1e-4,-2.2683 1.839,-4.1071 4.1073,-4.107 2.2683,1e-4 4.1071,1.839 4.107,4.1073"
       transform="matrix(0.39954,0,0,0.32456,413.46,185.85)"
       inkscape:connector-curvature="0" />
    <path
       style="fill:#e9afaf;stroke-width:0.25484279"
       id="path1275"
       d="m 494.05762,294.89818 c -10e-6,0.27184 -0.27128,0.49218 -0.6059,0.49218 -0.33462,0 -0.60588,-0.22038 -0.60588,-0.4922 0,-0.27182 0.27129,-0.49218 0.60591,-0.49218 0.33461,0 0.60587,0.22038 0.60587,0.4922"
       inkscape:connector-curvature="0" />
    <path
       style="fill:#ffd5d5"
       id="path1277"
       d="m 221.79,362.9 c -4e-5,1.1835 -0.95946,2.1428 -2.1429,2.1428 -1.18344,0 -2.1428,-0.95947 -2.1428,-2.1429 0,-1.18343 0.95946,-2.1428 2.1429,-2.1428 1.18344,0 2.1428,0.95946 2.1428,2.1429"
       transform="matrix(0.28275,0,0,0.22969,438.89,220.46)"
       inkscape:connector-curvature="0" />
    <path
       style="fill:#a02c2c"
       id="path1279"
       d="m 205,522.72 c -3.2e-4,9.665 -7.8356,17.5 -17.501,17.499 -9.6654,-0.001 -17.5,-7.8356 -17.499,-17.501 0.001,-9.6654 7.8356,-17.5 17.501,-17.499 9.6654,0.001 17.5,7.8356 17.499,17.501"
       transform="matrix(0.15003,0,0,0.12188,471.25,233.91)"
       inkscape:connector-curvature="0" />
    <path
       style="fill:#a02c2c"
       id="path1281"
       d="m 205,522.72 c -3.2e-4,9.665 -7.8356,17.5 -17.501,17.499 -9.6654,-0.001 -17.5,-7.8356 -17.499,-17.501 0.001,-9.6654 7.8356,-17.5 17.501,-17.499 9.6654,0.001 17.5,7.8356 17.499,17.501"
       transform="matrix(0.08656,0,0,0.07031,489.14,222.85)"
       inkscape:connector-curvature="0" />
    <path
       style="fill:#a02c2c"
       id="path1283"
       d="m 205,522.72 c -3.2e-4,9.665 -7.8356,17.5 -17.501,17.499 -9.6654,-0.001 -17.5,-7.8356 -17.499,-17.501 0.001,-9.6654 7.8356,-17.5 17.501,-17.499 9.6654,0.001 17.5,7.8356 17.499,17.501"
       transform="matrix(-0.00366,-0.15576,-0.12653,0.00297,568.08,294.85)"
       inkscape:connector-curvature="0" />
    <path
       style="fill:#a02c2c"
       id="path1285"
       d="m 205,522.72 c -3.2e-4,9.665 -7.8356,17.5 -17.501,17.499 -9.6654,-0.001 -17.5,-7.8356 -17.499,-17.501 0.001,-9.6654 7.8356,-17.5 17.501,-17.499 9.6654,0.001 17.5,7.8356 17.499,17.501"
       transform="matrix(-0.00529,-0.22499,-0.18276,0.0043,593.37,300.78)"
       inkscape:connector-curvature="0" />
    <path
       style="fill:#a02c2c"
       id="path1287"
       d="m 205,522.72 c -3.2e-4,9.665 -7.8356,17.5 -17.501,17.499 -9.6654,-0.001 -17.5,-7.8356 -17.499,-17.501 0.001,-9.6654 7.8356,-17.5 17.501,-17.499 9.6654,0.001 17.5,7.8356 17.499,17.501"
       transform="matrix(-0.00298,-0.12692,-0.1031,0.00242,550.92,291.96)"
       inkscape:connector-curvature="0" />
    <path
       style="fill:#a02c2c"
       id="path1289"
       d="m 205,522.72 c -3.2e-4,9.665 -7.8356,17.5 -17.501,17.499 -9.6654,-0.001 -17.5,-7.8356 -17.499,-17.501 0.001,-9.6654 7.8356,-17.5 17.501,-17.499 9.6654,0.001 17.5,7.8356 17.499,17.501"
       transform="matrix(-0.00298,-0.12692,-0.1031,0.00242,561.61,300.19)"
       inkscape:connector-curvature="0" />
    <path
       style="fill:#a02c2c"
       id="path1291"
       d="m 205,522.72 c -3.2e-4,9.665 -7.8356,17.5 -17.501,17.499 -9.6654,-0.001 -17.5,-7.8356 -17.499,-17.501 0.001,-9.6654 7.8356,-17.5 17.501,-17.499 9.6654,0.001 17.5,7.8356 17.499,17.501"
       transform="matrix(0.08656,0,0,0.07031,489.14,222.85)"
       inkscape:connector-curvature="0" />
    <path
       style="fill:#a02c2c"
       id="path1293"
       d="m 205,522.72 c -3.2e-4,9.665 -7.8356,17.5 -17.501,17.499 -9.6654,-0.001 -17.5,-7.8356 -17.499,-17.501 0.001,-9.6654 7.8356,-17.5 17.501,-17.499 9.6654,0.001 17.5,7.8356 17.499,17.501"
       transform="matrix(-0.00366,-0.15576,-0.12653,0.00297,568.08,294.85)"
       inkscape:connector-curvature="0" />
    <path
       style="fill:#a02c2c"
       id="path1295"
       d="m 205,522.72 c -3.2e-4,9.665 -7.8356,17.5 -17.501,17.499 -9.6654,-0.001 -17.5,-7.8356 -17.499,-17.501 0.001,-9.6654 7.8356,-17.5 17.501,-17.499 9.6654,0.001 17.5,7.8356 17.499,17.501"
       transform="matrix(-0.00529,-0.22499,-0.18276,0.0043,593.37,300.78)"
       inkscape:connector-curvature="0" />
    <path
       style="fill:#a02c2c"
       id="path1297"
       d="m 205,522.72 c -3.2e-4,9.665 -7.8356,17.5 -17.501,17.499 -9.6654,-0.001 -17.5,-7.8356 -17.499,-17.501 0.001,-9.6654 7.8356,-17.5 17.501,-17.499 9.6654,0.001 17.5,7.8356 17.499,17.501"
       transform="matrix(-0.00298,-0.12692,-0.1031,0.00242,550.92,291.96)"
       inkscape:connector-curvature="0" />
    <path
       style="fill:#a02c2c"
       id="path1299"
       d="m 205,522.72 c -3.2e-4,9.665 -7.8356,17.5 -17.501,17.499 -9.6654,-0.001 -17.5,-7.8356 -17.499,-17.501 0.001,-9.6654 7.8356,-17.5 17.501,-17.499 9.6654,0.001 17.5,7.8356 17.499,17.501"
       transform="matrix(-0.00298,-0.12692,-0.1031,0.00242,561.61,300.19)"
       inkscape:connector-curvature="0" />
    <path
       style="fill:#a02c2c"
       id="path1301"
       d="m 205,522.72 c -3.2e-4,9.665 -7.8356,17.5 -17.501,17.499 -9.6654,-0.001 -17.5,-7.8356 -17.499,-17.501 0.001,-9.6654 7.8356,-17.5 17.501,-17.499 9.6654,0.001 17.5,7.8356 17.499,17.501"
       transform="matrix(0.08656,0,0,0.07031,529.28,246.99)"
       inkscape:connector-curvature="0" />
    <path
       style="fill:#a02c2c"
       id="path1303"
       d="m 205,522.72 c -3.2e-4,9.665 -7.8356,17.5 -17.501,17.499 -9.6654,-0.001 -17.5,-7.8356 -17.499,-17.501 0.001,-9.6654 7.8356,-17.5 17.501,-17.499 9.6654,0.001 17.5,7.8356 17.499,17.501"
       transform="matrix(-0.00366,-0.15576,-0.12653,0.00297,608.22,318.99)"
       inkscape:connector-curvature="0" />
    <path
       style="fill:#a02c2c"
       id="path1305"
       d="m 205,522.72 c -3.2e-4,9.665 -7.8356,17.5 -17.501,17.499 -9.6654,-0.001 -17.5,-7.8356 -17.499,-17.501 0.001,-9.6654 7.8356,-17.5 17.501,-17.499 9.6654,0.001 17.5,7.8356 17.499,17.501"
       transform="matrix(-0.00529,-0.22499,-0.18276,0.0043,633.51,324.92)"
       inkscape:connector-curvature="0" />
    <path
       style="fill:#a02c2c"
       id="path1307"
       d="m 205,522.72 c -3.2e-4,9.665 -7.8356,17.5 -17.501,17.499 -9.6654,-0.001 -17.5,-7.8356 -17.499,-17.501 0.001,-9.6654 7.8356,-17.5 17.501,-17.499 9.6654,0.001 17.5,7.8356 17.499,17.501"
       transform="matrix(-0.00298,-0.12692,-0.1031,0.00242,591.06,316.1)"
       inkscape:connector-curvature="0" />
    <path
       style="fill:#a02c2c"
       id="path1309"
       d="m 205,522.72 c -3.2e-4,9.665 -7.8356,17.5 -17.501,17.499 -9.6654,-0.001 -17.5,-7.8356 -17.499,-17.501 0.001,-9.6654 7.8356,-17.5 17.501,-17.499 9.6654,0.001 17.5,7.8356 17.499,17.501"
       transform="matrix(-0.00298,-0.12692,-0.1031,0.00242,601.76,324.34)"
       inkscape:connector-curvature="0" />
    <path
       style="fill:#a02c2c"
       id="path1311"
       d="m 205,522.72 c -3.2e-4,9.665 -7.8356,17.5 -17.501,17.499 -9.6654,-0.001 -17.5,-7.8356 -17.499,-17.501 0.001,-9.6654 7.8356,-17.5 17.501,-17.499 9.6654,0.001 17.5,7.8356 17.499,17.501"
       transform="matrix(0.08656,0,0,0.07031,529.28,246.99)"
       inkscape:connector-curvature="0" />
    <path
       style="fill:#a02c2c"
       id="path1313"
       d="m 205,522.72 c -3.2e-4,9.665 -7.8356,17.5 -17.501,17.499 -9.6654,-0.001 -17.5,-7.8356 -17.499,-17.501 0.001,-9.6654 7.8356,-17.5 17.501,-17.499 9.6654,0.001 17.5,7.8356 17.499,17.501"
       transform="matrix(-0.00366,-0.15576,-0.12653,0.00297,608.22,318.99)"
       inkscape:connector-curvature="0" />
    <path
       style="fill:#a02c2c"
       id="path1315"
       d="m 205,522.72 c -3.2e-4,9.665 -7.8356,17.5 -17.501,17.499 -9.6654,-0.001 -17.5,-7.8356 -17.499,-17.501 0.001,-9.6654 7.8356,-17.5 17.501,-17.499 9.6654,0.001 17.5,7.8356 17.499,17.501"
       transform="matrix(-0.00529,-0.22499,-0.18276,0.0043,633.51,324.92)"
       inkscape:connector-curvature="0" />
    <path
       style="fill:#a02c2c"
       id="path1317"
       d="m 205,522.72 c -3.2e-4,9.665 -7.8356,17.5 -17.501,17.499 -9.6654,-0.001 -17.5,-7.8356 -17.499,-17.501 0.001,-9.6654 7.8356,-17.5 17.501,-17.499 9.6654,0.001 17.5,7.8356 17.499,17.501"
       transform="matrix(-0.00298,-0.12692,-0.1031,0.00242,591.06,316.1)"
       inkscape:connector-curvature="0" />
    <path
       style="fill:#a02c2c"
       id="path1319"
       d="m 205,522.72 c -3.2e-4,9.665 -7.8356,17.5 -17.501,17.499 -9.6654,-0.001 -17.5,-7.8356 -17.499,-17.501 0.001,-9.6654 7.8356,-17.5 17.501,-17.499 9.6654,0.001 17.5,7.8356 17.499,17.501"
       transform="matrix(-0.00298,-0.12692,-0.1031,0.00242,601.76,324.34)"
       inkscape:connector-curvature="0" />
    <path
       style="fill:#a02c2c"
       id="path1321"
       d="m 205,522.72 c -3.2e-4,9.665 -7.8356,17.5 -17.501,17.499 -9.6654,-0.001 -17.5,-7.8356 -17.499,-17.501 0.001,-9.6654 7.8356,-17.5 17.501,-17.499 9.6654,0.001 17.5,7.8356 17.499,17.501"
       transform="matrix(0.22505,0,0,0.18282,492.55,164.9)"
       inkscape:connector-curvature="0" />
    <path
       style="fill:#a02c2c"
       id="path1323"
       d="m 205,522.72 c -3.2e-4,9.665 -7.8356,17.5 -17.501,17.499 -9.6654,-0.001 -17.5,-7.8356 -17.499,-17.501 0.001,-9.6654 7.8356,-17.5 17.501,-17.499 9.6654,0.001 17.5,7.8356 17.499,17.501"
       transform="matrix(0.12118,0,0,0.09844,514.05,214.26)"
       inkscape:connector-curvature="0" />
    <path
       style="fill:#a02c2c"
       id="path1325"
       d="m 205,522.72 c -3.2e-4,9.665 -7.8356,17.5 -17.501,17.499 -9.6654,-0.001 -17.5,-7.8356 -17.499,-17.501 0.001,-9.6654 7.8356,-17.5 17.501,-17.499 9.6654,0.001 17.5,7.8356 17.499,17.501"
       transform="matrix(0.21351,0,0,0.17344,503,167.01)"
       inkscape:connector-curvature="0" />
    <path
       style="fill:#a02c2c"
       id="path1327"
       d="m 205,522.72 c -3.2e-4,9.665 -7.8356,17.5 -17.501,17.499 -9.6654,-0.001 -17.5,-7.8356 -17.499,-17.501 0.001,-9.6654 7.8356,-17.5 17.501,-17.499 9.6654,0.001 17.5,7.8356 17.499,17.501"
       transform="matrix(0.1558,0,0,0.12656,491.68,231.14)"
       inkscape:connector-curvature="0" />
    <path
       style="fill:#a02c2c"
       id="path1329"
       d="m 205,522.72 c -3.2e-4,9.665 -7.8356,17.5 -17.501,17.499 -9.6654,-0.001 -17.5,-7.8356 -17.499,-17.501 0.001,-9.6654 7.8356,-17.5 17.501,-17.499 9.6654,0.001 17.5,7.8356 17.499,17.501"
       transform="matrix(0.12695,0,0,0.10313,494.97,248.23)"
       inkscape:connector-curvature="0" />
    <path
       style="fill:#a02c2c"
       id="path1331"
       d="m 205,522.72 c -3.2e-4,9.665 -7.8356,17.5 -17.501,17.499 -9.6654,-0.001 -17.5,-7.8356 -17.499,-17.501 0.001,-9.6654 7.8356,-17.5 17.501,-17.499 9.6654,0.001 17.5,7.8356 17.499,17.501"
       transform="matrix(-0.00298,-0.12692,-0.1031,0.00242,569.11,310.55)"
       inkscape:connector-curvature="0" />
    <path
       style="fill:#a02c2c"
       id="path1333"
       d="m 205,522.72 c -3.2e-4,9.665 -7.8356,17.5 -17.501,17.499 -9.6654,-0.001 -17.5,-7.8356 -17.499,-17.501 0.001,-9.6654 7.8356,-17.5 17.501,-17.499 9.6654,0.001 17.5,7.8356 17.499,17.501"
       transform="matrix(0.1558,0,0,0.12656,491.68,231.14)"
       inkscape:connector-curvature="0" />
    <path
       style="fill:#a02c2c"
       id="path1335"
       d="m 205,522.72 c -3.2e-4,9.665 -7.8356,17.5 -17.501,17.499 -9.6654,-0.001 -17.5,-7.8356 -17.499,-17.501 0.001,-9.6654 7.8356,-17.5 17.501,-17.499 9.6654,0.001 17.5,7.8356 17.499,17.501"
       transform="matrix(0.12695,0,0,0.10313,494.97,248.23)"
       inkscape:connector-curvature="0" />
    <path
       style="fill:#a02c2c"
       id="path1337"
       d="m 205,522.72 c -3.2e-4,9.665 -7.8356,17.5 -17.501,17.499 -9.6654,-0.001 -17.5,-7.8356 -17.499,-17.501 0.001,-9.6654 7.8356,-17.5 17.501,-17.499 9.6654,0.001 17.5,7.8356 17.499,17.501"
       transform="matrix(-0.00298,-0.12692,-0.1031,0.00242,569.11,310.55)"
       inkscape:connector-curvature="0" />
    <path
       style="fill:#a02c2c"
       id="path1339"
       d="m 205,522.72 c -3.2e-4,9.665 -7.8356,17.5 -17.501,17.499 -9.6654,-0.001 -17.5,-7.8356 -17.499,-17.501 0.001,-9.6654 7.8356,-17.5 17.501,-17.499 9.6654,0.001 17.5,7.8356 17.499,17.501"
       transform="matrix(0.13941,0.06956,-0.05651,0.11325,533.28,208.84)"
       inkscape:connector-curvature="0" />
    <path
       style="fill:#a02c2c"
       id="path1341"
       d="m 205,522.72 c -3.2e-4,9.665 -7.8356,17.5 -17.501,17.499 -9.6654,-0.001 -17.5,-7.8356 -17.499,-17.501 0.001,-9.6654 7.8356,-17.5 17.501,-17.499 9.6654,0.001 17.5,7.8356 17.499,17.501"
       transform="matrix(0.1136,0.05668,-0.04604,0.09228,528.59,225.6)"
       inkscape:connector-curvature="0" />
    <path
       style="fill:#a02c2c"
       id="path1343"
       d="m 205,522.72 c -3.2e-4,9.665 -7.8356,17.5 -17.501,17.499 -9.6654,-0.001 -17.5,-7.8356 -17.499,-17.501 0.001,-9.6654 7.8356,-17.5 17.501,-17.499 9.6654,0.001 17.5,7.8356 17.499,17.501"
       transform="matrix(0.05399,-0.1149,-0.09333,-0.04386,567.12,314.47)"
       inkscape:connector-curvature="0" />
    <path
       style="fill:#a02c2c"
       id="path1345"
       d="m 205,522.72 c -3.2e-4,9.665 -7.8356,17.5 -17.501,17.499 -9.6654,-0.001 -17.5,-7.8356 -17.499,-17.501 0.001,-9.6654 7.8356,-17.5 17.501,-17.499 9.6654,0.001 17.5,7.8356 17.499,17.501"
       transform="matrix(0.13941,0.06956,-0.05651,0.11325,533.28,208.84)"
       inkscape:connector-curvature="0" />
    <path
       style="fill:#a02c2c"
       id="path1347"
       d="m 205,522.72 c -3.2e-4,9.665 -7.8356,17.5 -17.501,17.499 -9.6654,-0.001 -17.5,-7.8356 -17.499,-17.501 0.001,-9.6654 7.8356,-17.5 17.501,-17.499 9.6654,0.001 17.5,7.8356 17.499,17.501"
       transform="matrix(0.1136,0.05668,-0.04604,0.09228,528.59,225.6)"
       inkscape:connector-curvature="0" />
    <path
       style="fill:#a02c2c"
       id="path1349"
       d="m 205,522.72 c -3.2e-4,9.665 -7.8356,17.5 -17.501,17.499 -9.6654,-0.001 -17.5,-7.8356 -17.499,-17.501 0.001,-9.6654 7.8356,-17.5 17.501,-17.499 9.6654,0.001 17.5,7.8356 17.499,17.501"
       transform="matrix(0.05399,-0.1149,-0.09333,-0.04386,567.12,314.47)"
       inkscape:connector-curvature="0" />
    <path
       style="fill:#a02c2c"
       id="path1351"
       d="m 205,522.72 c -3.2e-4,9.665 -7.8356,17.5 -17.501,17.499 -9.6654,-0.001 -17.5,-7.8356 -17.499,-17.501 0.001,-9.6654 7.8356,-17.5 17.501,-17.499 9.6654,0.001 17.5,7.8356 17.499,17.501"
       transform="matrix(-0.00366,-0.15576,-0.12653,0.00297,569.94,316.63)"
       inkscape:connector-curvature="0" />
    <path
       style="fill:#a02c2c"
       id="path1353"
       d="m 205,522.72 c -3.2e-4,9.665 -7.8356,17.5 -17.501,17.499 -9.6654,-0.001 -17.5,-7.8356 -17.499,-17.501 0.001,-9.6654 7.8356,-17.5 17.501,-17.499 9.6654,0.001 17.5,7.8356 17.499,17.501"
       transform="matrix(-0.00529,-0.22499,-0.18276,0.0043,595.22,322.56)"
       inkscape:connector-curvature="0" />
    <path
       style="fill:#a02c2c"
       id="path1355"
       d="m 205,522.72 c -3.2e-4,9.665 -7.8356,17.5 -17.501,17.499 -9.6654,-0.001 -17.5,-7.8356 -17.499,-17.501 0.001,-9.6654 7.8356,-17.5 17.501,-17.499 9.6654,0.001 17.5,7.8356 17.499,17.501"
       transform="matrix(-0.00298,-0.12692,-0.1031,0.00242,552.77,313.75)"
       inkscape:connector-curvature="0" />
    <path
       style="fill:#a02c2c"
       id="path1357"
       d="m 205,522.72 c -3.2e-4,9.665 -7.8356,17.5 -17.501,17.499 -9.6654,-0.001 -17.5,-7.8356 -17.499,-17.501 0.001,-9.6654 7.8356,-17.5 17.501,-17.499 9.6654,0.001 17.5,7.8356 17.499,17.501"
       transform="matrix(-0.00285,-0.12115,-0.09841,0.00231,550.99,296.85)"
       inkscape:connector-curvature="0" />
    <path
       style="fill:#a02c2c"
       id="path1359"
       d="m 205,522.72 c -3.2e-4,9.665 -7.8356,17.5 -17.501,17.499 -9.6654,-0.001 -17.5,-7.8356 -17.499,-17.501 0.001,-9.6654 7.8356,-17.5 17.501,-17.499 9.6654,0.001 17.5,7.8356 17.499,17.501"
       transform="matrix(-0.00366,-0.15576,-0.12653,0.00297,569.94,316.63)"
       inkscape:connector-curvature="0" />
    <path
       style="fill:#a02c2c"
       id="path1361"
       d="m 205,522.72 c -3.2e-4,9.665 -7.8356,17.5 -17.501,17.499 -9.6654,-0.001 -17.5,-7.8356 -17.499,-17.501 0.001,-9.6654 7.8356,-17.5 17.501,-17.499 9.6654,0.001 17.5,7.8356 17.499,17.501"
       transform="matrix(-0.00529,-0.22499,-0.18276,0.0043,595.22,322.56)"
       inkscape:connector-curvature="0" />
    <path
       style="fill:#a02c2c"
       id="path1363"
       d="m 205,522.72 c -3.2e-4,9.665 -7.8356,17.5 -17.501,17.499 -9.6654,-0.001 -17.5,-7.8356 -17.499,-17.501 0.001,-9.6654 7.8356,-17.5 17.501,-17.499 9.6654,0.001 17.5,7.8356 17.499,17.501"
       transform="matrix(-0.00298,-0.12692,-0.1031,0.00242,552.77,313.75)"
       inkscape:connector-curvature="0" />
    <path
       style="fill:#a02c2c"
       id="path1365"
       d="m 205,522.72 c -3.2e-4,9.665 -7.8356,17.5 -17.501,17.499 -9.6654,-0.001 -17.5,-7.8356 -17.499,-17.501 0.001,-9.6654 7.8356,-17.5 17.501,-17.499 9.6654,0.001 17.5,7.8356 17.499,17.501"
       transform="matrix(-0.00285,-0.12115,-0.09841,0.00231,550.99,296.85)"
       inkscape:connector-curvature="0" />
    <path
       style="fill:#a02c2c"
       id="path1367"
       d="m 205,522.72 c -3.2e-4,9.665 -7.8356,17.5 -17.501,17.499 -9.6654,-0.001 -17.5,-7.8356 -17.499,-17.501 0.001,-9.6654 7.8356,-17.5 17.501,-17.499 9.6654,0.001 17.5,7.8356 17.499,17.501"
       transform="matrix(0.08656,0,0,0.07031,485.21,218.2)"
       inkscape:connector-curvature="0" />
    <path
       style="fill:#a02c2c"
       id="path1369"
       d="m 205,522.72 c -3.2e-4,9.665 -7.8356,17.5 -17.501,17.499 -9.6654,-0.001 -17.5,-7.8356 -17.499,-17.501 0.001,-9.6654 7.8356,-17.5 17.501,-17.499 9.6654,0.001 17.5,7.8356 17.499,17.501"
       transform="matrix(-0.00366,-0.15576,-0.12653,0.00297,581.3,298.78)"
       inkscape:connector-curvature="0" />
    <path
       style="fill:#a02c2c"
       id="path1371"
       d="m 205,522.72 c -3.2e-4,9.665 -7.8356,17.5 -17.501,17.499 -9.6654,-0.001 -17.5,-7.8356 -17.499,-17.501 0.001,-9.6654 7.8356,-17.5 17.501,-17.499 9.6654,0.001 17.5,7.8356 17.499,17.501"
       transform="matrix(-0.00529,-0.22499,-0.18276,0.0043,606.58,304.7)"
       inkscape:connector-curvature="0" />
    <path
       style="fill:#a02c2c"
       id="path1373"
       d="m 205,522.72 c -3.2e-4,9.665 -7.8356,17.5 -17.501,17.499 -9.6654,-0.001 -17.5,-7.8356 -17.499,-17.501 0.001,-9.6654 7.8356,-17.5 17.501,-17.499 9.6654,0.001 17.5,7.8356 17.499,17.501"
       transform="matrix(-0.00298,-0.12692,-0.1031,0.00242,564.13,295.89)"
       inkscape:connector-curvature="0" />
    <path
       style="fill:#a02c2c"
       id="path1375"
       d="m 205,522.72 c -3.2e-4,9.665 -7.8356,17.5 -17.501,17.499 -9.6654,-0.001 -17.5,-7.8356 -17.499,-17.501 0.001,-9.6654 7.8356,-17.5 17.501,-17.499 9.6654,0.001 17.5,7.8356 17.499,17.501"
       transform="matrix(0.08656,0,0,0.07031,492.71,221.06)"
       inkscape:connector-curvature="0" />
    <path
       style="fill:#a02c2c"
       id="path1377"
       d="m 205,522.72 c -3.2e-4,9.665 -7.8356,17.5 -17.501,17.499 -9.6654,-0.001 -17.5,-7.8356 -17.499,-17.501 0.001,-9.6654 7.8356,-17.5 17.501,-17.499 9.6654,0.001 17.5,7.8356 17.499,17.501"
       transform="matrix(-0.00366,-0.15576,-0.12653,0.00297,581.3,298.78)"
       inkscape:connector-curvature="0" />
    <path
       style="fill:#a02c2c"
       id="path1379"
       d="m 205,522.72 c -3.2e-4,9.665 -7.8356,17.5 -17.501,17.499 -9.6654,-0.001 -17.5,-7.8356 -17.499,-17.501 0.001,-9.6654 7.8356,-17.5 17.501,-17.499 9.6654,0.001 17.5,7.8356 17.499,17.501"
       transform="matrix(-0.00529,-0.22499,-0.18276,0.0043,606.58,304.7)"
       inkscape:connector-curvature="0" />
    <path
       style="fill:#a02c2c"
       id="path1381"
       d="m 205,522.72 c -3.2e-4,9.665 -7.8356,17.5 -17.501,17.499 -9.6654,-0.001 -17.5,-7.8356 -17.499,-17.501 0.001,-9.6654 7.8356,-17.5 17.501,-17.499 9.6654,0.001 17.5,7.8356 17.499,17.501"
       transform="matrix(-0.00298,-0.12692,-0.1031,0.00242,564.13,295.89)"
       inkscape:connector-curvature="0" />
    <path
       style="fill:#a02c2c"
       id="path1383"
       d="m 205,522.72 c -3.2e-4,9.665 -7.8356,17.5 -17.501,17.499 -9.6654,-0.001 -17.5,-7.8356 -17.499,-17.501 0.001,-9.6654 7.8356,-17.5 17.501,-17.499 9.6654,0.001 17.5,7.8356 17.499,17.501"
       transform="matrix(-0.00366,-0.15576,-0.12653,0.00297,613.08,305.2)"
       inkscape:connector-curvature="0" />
    <path
       style="fill:#a02c2c"
       id="path1385"
       d="m 205,522.72 c -3.2e-4,9.665 -7.8356,17.5 -17.501,17.499 -9.6654,-0.001 -17.5,-7.8356 -17.499,-17.501 0.001,-9.6654 7.8356,-17.5 17.501,-17.499 9.6654,0.001 17.5,7.8356 17.499,17.501"
       transform="matrix(-0.00529,-0.22499,-0.18276,0.0043,638.37,311.13)"
       inkscape:connector-curvature="0" />
    <path
       style="fill:#a02c2c"
       id="path1387"
       d="m 205,522.72 c -3.2e-4,9.665 -7.8356,17.5 -17.501,17.499 -9.6654,-0.001 -17.5,-7.8356 -17.499,-17.501 0.001,-9.6654 7.8356,-17.5 17.501,-17.499 9.6654,0.001 17.5,7.8356 17.499,17.501"
       transform="matrix(-0.00298,-0.12692,-0.1031,0.00242,595.92,302.32)"
       inkscape:connector-curvature="0" />
    <path
       style="fill:#a02c2c"
       id="path1389"
       d="m 205,522.72 c -3.2e-4,9.665 -7.8356,17.5 -17.501,17.499 -9.6654,-0.001 -17.5,-7.8356 -17.499,-17.501 0.001,-9.6654 7.8356,-17.5 17.501,-17.499 9.6654,0.001 17.5,7.8356 17.499,17.501"
       transform="matrix(-0.00366,-0.15576,-0.12653,0.00297,613.08,305.2)"
       inkscape:connector-curvature="0" />
    <path
       style="fill:#a02c2c"
       id="path1391"
       d="m 205,522.72 c -3.2e-4,9.665 -7.8356,17.5 -17.501,17.499 -9.6654,-0.001 -17.5,-7.8356 -17.499,-17.501 0.001,-9.6654 7.8356,-17.5 17.501,-17.499 9.6654,0.001 17.5,7.8356 17.499,17.501"
       transform="matrix(-0.00529,-0.22499,-0.18276,0.0043,638.37,311.13)"
       inkscape:connector-curvature="0" />
    <path
       style="fill:#a02c2c"
       id="path1393"
       d="m 205,522.72 c -3.2e-4,9.665 -7.8356,17.5 -17.501,17.499 -9.6654,-0.001 -17.5,-7.8356 -17.499,-17.501 0.001,-9.6654 7.8356,-17.5 17.501,-17.499 9.6654,0.001 17.5,7.8356 17.499,17.501"
       transform="matrix(-0.00298,-0.12692,-0.1031,0.00242,595.92,302.32)"
       inkscape:connector-curvature="0" />
    <path
       style="fill:#a02c2c"
       id="path1395"
       d="m 205,522.72 c -3.2e-4,9.665 -7.8356,17.5 -17.501,17.499 -9.6654,-0.001 -17.5,-7.8356 -17.499,-17.501 0.001,-9.6654 7.8356,-17.5 17.501,-17.499 9.6654,0.001 17.5,7.8356 17.499,17.501"
       transform="matrix(0.08656,0,0,0.07031,530.21,228.56)"
       inkscape:connector-curvature="0" />
    <path
       style="fill:#a02c2c"
       id="path1397"
       d="m 205,522.72 c -3.2e-4,9.665 -7.8356,17.5 -17.501,17.499 -9.6654,-0.001 -17.5,-7.8356 -17.499,-17.501 0.001,-9.6654 7.8356,-17.5 17.501,-17.499 9.6654,0.001 17.5,7.8356 17.499,17.501"
       transform="matrix(0.08656,0,0,0.07031,525,266.63)"
       inkscape:connector-curvature="0" />
    <path
       style="fill:#a02c2c"
       id="path1399"
       d="m 205,522.72 c -3.2e-4,9.665 -7.8356,17.5 -17.501,17.499 -9.6654,-0.001 -17.5,-7.8356 -17.499,-17.501 0.001,-9.6654 7.8356,-17.5 17.501,-17.499 9.6654,0.001 17.5,7.8356 17.499,17.501"
       transform="matrix(0.08656,0,0,0.07031,525,266.63)"
       inkscape:connector-curvature="0" />
    <path
       style="fill:#a02c2c"
       id="path1401"
       d="m 205,522.72 c -3.2e-4,9.665 -7.8356,17.5 -17.501,17.499 -9.6654,-0.001 -17.5,-7.8356 -17.499,-17.501 0.001,-9.6654 7.8356,-17.5 17.501,-17.499 9.6654,0.001 17.5,7.8356 17.499,17.501"
       transform="matrix(-0.00366,-0.15576,-0.12653,0.00297,608.8,324.85)"
       inkscape:connector-curvature="0" />
    <path
       style="fill:#a02c2c"
       id="path1403"
       d="m 205,522.72 c -3.2e-4,9.665 -7.8356,17.5 -17.501,17.499 -9.6654,-0.001 -17.5,-7.8356 -17.499,-17.501 0.001,-9.6654 7.8356,-17.5 17.501,-17.499 9.6654,0.001 17.5,7.8356 17.499,17.501"
       transform="matrix(-0.00298,-0.12692,-0.1031,0.00242,591.63,321.96)"
       inkscape:connector-curvature="0" />
    <path
       style="fill:#a02c2c"
       id="path1405"
       d="m 205,522.72 c -3.2e-4,9.665 -7.8356,17.5 -17.501,17.499 -9.6654,-0.001 -17.5,-7.8356 -17.499,-17.501 0.001,-9.6654 7.8356,-17.5 17.501,-17.499 9.6654,0.001 17.5,7.8356 17.499,17.501"
       transform="matrix(-0.00366,-0.15576,-0.12653,0.00297,608.8,324.85)"
       inkscape:connector-curvature="0" />
    <path
       style="fill:#a02c2c"
       id="path1407"
       d="m 205,522.72 c -3.2e-4,9.665 -7.8356,17.5 -17.501,17.499 -9.6654,-0.001 -17.5,-7.8356 -17.499,-17.501 0.001,-9.6654 7.8356,-17.5 17.501,-17.499 9.6654,0.001 17.5,7.8356 17.499,17.501"
       transform="matrix(-0.00298,-0.12692,-0.1031,0.00242,591.63,321.96)"
       inkscape:connector-curvature="0" />
    <path
       style="fill:#a02c2c"
       id="path1409"
       d="m 205,522.72 c -3.2e-4,9.665 -7.8356,17.5 -17.501,17.499 -9.6654,-0.001 -17.5,-7.8356 -17.499,-17.501 0.001,-9.6654 7.8356,-17.5 17.501,-17.499 9.6654,0.001 17.5,7.8356 17.499,17.501"
       transform="matrix(-0.00366,-0.15576,-0.12653,0.00297,568.08,294.85)"
       inkscape:connector-curvature="0" />
    <path
       style="fill:#a02c2c"
       id="path1411"
       d="m 205,522.72 c -3.2e-4,9.665 -7.8356,17.5 -17.501,17.499 -9.6654,-0.001 -17.5,-7.8356 -17.499,-17.501 0.001,-9.6654 7.8356,-17.5 17.501,-17.499 9.6654,0.001 17.5,7.8356 17.499,17.501"
       transform="matrix(-0.00298,-0.12692,-0.1031,0.00242,550.92,291.96)"
       inkscape:connector-curvature="0" />
    <path
       style="fill:#a02c2c"
       id="path1413"
       d="m 205,522.72 c -3.2e-4,9.665 -7.8356,17.5 -17.501,17.499 -9.6654,-0.001 -17.5,-7.8356 -17.499,-17.501 0.001,-9.6654 7.8356,-17.5 17.501,-17.499 9.6654,0.001 17.5,7.8356 17.499,17.501"
       transform="matrix(-0.00366,-0.15576,-0.12653,0.00297,568.08,294.85)"
       inkscape:connector-curvature="0" />
    <path
       style="fill:#a02c2c"
       id="path1415"
       d="m 205,522.72 c -3.2e-4,9.665 -7.8356,17.5 -17.501,17.499 -9.6654,-0.001 -17.5,-7.8356 -17.499,-17.501 0.001,-9.6654 7.8356,-17.5 17.501,-17.499 9.6654,0.001 17.5,7.8356 17.499,17.501"
       transform="matrix(-0.00298,-0.12692,-0.1031,0.00242,550.92,291.96)"
       inkscape:connector-curvature="0" />
    <path
       style="fill:#a02c2c"
       id="path1417"
       d="m 205,522.72 c -3.2e-4,9.665 -7.8356,17.5 -17.501,17.499 -9.6654,-0.001 -17.5,-7.8356 -17.499,-17.501 0.001,-9.6654 7.8356,-17.5 17.501,-17.499 9.6654,0.001 17.5,7.8356 17.499,17.501"
       transform="matrix(-0.00366,-0.15576,-0.12653,0.00297,581.3,298.78)"
       inkscape:connector-curvature="0" />
    <path
       style="fill:#a02c2c"
       id="path1419"
       d="m 205,522.72 c -3.2e-4,9.665 -7.8356,17.5 -17.501,17.499 -9.6654,-0.001 -17.5,-7.8356 -17.499,-17.501 0.001,-9.6654 7.8356,-17.5 17.501,-17.499 9.6654,0.001 17.5,7.8356 17.499,17.501"
       transform="matrix(-0.00298,-0.12692,-0.1031,0.00242,564.13,295.89)"
       inkscape:connector-curvature="0" />
    <path
       style="fill:#a02c2c"
       id="path1421"
       d="m 205,522.72 c -3.2e-4,9.665 -7.8356,17.5 -17.501,17.499 -9.6654,-0.001 -17.5,-7.8356 -17.499,-17.501 0.001,-9.6654 7.8356,-17.5 17.501,-17.499 9.6654,0.001 17.5,7.8356 17.499,17.501"
       transform="matrix(-0.00366,-0.15576,-0.12653,0.00297,581.3,298.78)"
       inkscape:connector-curvature="0" />
    <path
       style="fill:#a02c2c"
       id="path1423"
       d="m 205,522.72 c -3.2e-4,9.665 -7.8356,17.5 -17.501,17.499 -9.6654,-0.001 -17.5,-7.8356 -17.499,-17.501 0.001,-9.6654 7.8356,-17.5 17.501,-17.499 9.6654,0.001 17.5,7.8356 17.499,17.501"
       transform="matrix(-0.00298,-0.12692,-0.1031,0.00242,564.13,295.89)"
       inkscape:connector-curvature="0" />
  </g>
</svg>
