<?xml version="1.0" encoding="UTF-8" standalone="no"?>
<svg
   xmlns:dc="http://purl.org/dc/elements/1.1/"
   xmlns:cc="http://creativecommons.org/ns#"
   xmlns:rdf="http://www.w3.org/1999/02/22-rdf-syntax-ns#"
   xmlns:svg="http://www.w3.org/2000/svg"
   xmlns="http://www.w3.org/2000/svg"
   xmlns:sodipodi="http://sodipodi.sourceforge.net/DTD/sodipodi-0.dtd"
   xmlns:inkscape="http://www.inkscape.org/namespaces/inkscape"
   viewBox="0 0 69.999999 70"
   version="1.1"
   id="svg1749"
   sodipodi:docname="O.svg"
   inkscape:version="0.92.3 (2405546, 2018-03-11)"
   width="70"
   height="70">
  <metadata
     id="metadata1753">
    <rdf:RDF>
      <cc:Work
         rdf:about="">
        <dc:format>image/svg+xml</dc:format>
        <dc:type
           rdf:resource="http://purl.org/dc/dcmitype/StillImage" />
        <dc:title></dc:title>
        <dc:title></dc:title>
      </cc:Work>
    </rdf:RDF>
  </metadata>
  <sodipodi:namedview
     pagecolor="#ffffff"
     bordercolor="#666666"
     borderopacity="1"
     objecttolerance="10"
     gridtolerance="10"
     guidetolerance="10"
     inkscape:pageopacity="0"
     inkscape:pageshadow="2"
     inkscape:window-width="1920"
     inkscape:window-height="1052"
     id="namedview1751"
     showgrid="false"
     inkscape:zoom="4.4779145"
     inkscape:cx="22.30818"
     inkscape:cy="50.256837"
     inkscape:window-x="0"
     inkscape:window-y="360"
     inkscape:window-maximized="1"
     inkscape:current-layer="g1425" />
  <defs
     id="defs5">
    <filter
       id="a"
       x="-0.46415001"
       y="-0.46415001"
       width="1.9283"
       height="1.9283">
      <feGaussianBlur
         stdDeviation="3.0281"
         id="feGaussianBlur2" />
    </filter>
    <filter
       height="1.9283"
       width="1.9283"
       y="-0.46415001"
       x="-0.46415001"
       id="a-4">
      <feGaussianBlur
         id="feGaussianBlur2-6"
         stdDeviation="3.0281" />
    </filter>
    <filter
       height="1.9283"
       width="1.9283"
       y="-0.46415001"
       x="-0.46415001"
       id="filter11866">
      <feGaussianBlur
         id="feGaussianBlur11864"
         stdDeviation="3.0281" />
    </filter>
    <filter
       height="1.9283"
       width="1.9283"
       y="-0.46415001"
       x="-0.46415001"
       id="filter11870">
      <feGaussianBlur
         id="feGaussianBlur11868"
         stdDeviation="3.0281" />
    </filter>
    <filter
       height="1.9283"
       width="1.9283"
       y="-0.46415001"
       x="-0.46415001"
       id="filter11874">
      <feGaussianBlur
         id="feGaussianBlur11872"
         stdDeviation="3.0281" />
    </filter>
    <filter
       height="1.9283"
       width="1.9283"
       y="-0.46415001"
       x="-0.46415001"
       id="filter11878">
      <feGaussianBlur
         id="feGaussianBlur11876"
         stdDeviation="3.0281" />
    </filter>
    <filter
       height="1.9283"
       width="1.9283"
       y="-0.46415001"
       x="-0.46415001"
       id="filter11882">
      <feGaussianBlur
         id="feGaussianBlur11880"
         stdDeviation="3.0281" />
    </filter>
    <filter
       height="1.9283"
       width="1.9283"
       y="-0.46415001"
       x="-0.46415001"
       id="filter11886">
      <feGaussianBlur
         id="feGaussianBlur11884"
         stdDeviation="3.0281" />
    </filter>
    <filter
       height="1.9283"
       width="1.9283"
       y="-0.46415001"
       x="-0.46415001"
       id="filter11890">
      <feGaussianBlur
         id="feGaussianBlur11888"
         stdDeviation="3.0281" />
    </filter>
    <filter
       height="1.9283"
       width="1.9283"
       y="-0.46415001"
       x="-0.46415001"
       id="filter11894">
      <feGaussianBlur
         id="feGaussianBlur11892"
         stdDeviation="3.0281" />
    </filter>
    <filter
       height="1.9283"
       width="1.9283"
       y="-0.46415001"
       x="-0.46415001"
       id="filter11898">
      <feGaussianBlur
         id="feGaussianBlur11896"
         stdDeviation="3.0281" />
    </filter>
    <filter
       height="1.9283"
       width="1.9283"
       y="-0.46415001"
       x="-0.46415001"
       id="filter11902">
      <feGaussianBlur
         id="feGaussianBlur11900"
         stdDeviation="3.0281" />
    </filter>
  </defs>
  <g
     id="g1425"
     transform="translate(-485.43934,-247.68893)">
    <g
       id="g739"
       transform="translate(-141.57327,4.2948295)">
      <path
         style="fill:#ffccaa;stroke:#aa4400;stroke-width:3"
         id="path687"
         d="m 361.43,314.86 c -2.5e-4,7.6925 -6.2365,13.928 -13.929,13.928 -7.6925,0 -13.928,-6.2365 -13.928,-13.929 0,-7.6925 6.2365,-13.928 13.929,-13.928 7.6925,0 13.928,6.2365 13.928,13.929"
         transform="matrix(0.28275,0,0,0.22969,585.99,183.49)"
         inkscape:connector-curvature="0" />
      <path
         style="fill:#aa4400"
         id="path689"
         d="m 359.64,317.9 c -1.2e-4,3.649 -2.9583,6.607 -6.6074,6.6069 -3.6491,-10e-5 -6.607,-2.9583 -6.6069,-6.6074 10e-5,-3.6491 2.9583,-6.607 6.6074,-6.6069 3.6491,1e-4 6.607,2.9583 6.6069,6.6074"
         transform="matrix(0.25601,0,0,0.20796,595.36,189.89)"
         inkscape:connector-curvature="0" />
      <path
         style="fill:#552200"
         id="path691"
         d="m 359.64,317.9 c -1.2e-4,3.649 -2.9583,6.607 -6.6074,6.6069 -3.6491,-10e-5 -6.607,-2.9583 -6.6069,-6.6074 10e-5,-3.6491 2.9583,-6.607 6.6074,-6.6069 3.6491,1e-4 6.607,2.9583 6.6069,6.6074"
         transform="matrix(0.14792,0,0,0.12016,633.56,217.77)"
         inkscape:connector-curvature="0" />
      <path
         style="fill:#ffb380"
         id="path693"
         d="m 359.64,317.9 c -1.2e-4,3.649 -2.9583,6.607 -6.6074,6.6069 -3.6491,-10e-5 -6.607,-2.9583 -6.6069,-6.6074 10e-5,-3.6491 2.9583,-6.607 6.6074,-6.6069 3.6491,1e-4 6.607,2.9583 6.6069,6.6074"
         transform="matrix(0.06827,0,0,0.05546,662.2,237.91)"
         inkscape:connector-curvature="0" />
      <path
         style="fill:#ff6600;stroke:#b24700"
         id="path695"
         d="m 691.05,278.28 c 0.71252,12.423 -6.847,26.186 -19.815,28.571 -12.809,3.3495 -29.478,-0.69509 -34.789,-14.024 -5.7943,-13.65 -3.4449,-32.932 10.629,-40.55 11.319,-5.821 26.609,-4.5704 36.176,4.0543 5.6758,5.7189 7.9221,14.066 7.7991,21.949 z m -19.09,-0.73828 c 2.117,-8.9072 -9.5924,-17.501 -16.277,-9.7043 -4.6078,6.4375 -4.7898,18.705 2.7745,22.966 8.9884,3.9417 14.561,-5.3255 13.502,-13.262 z"
         inkscape:connector-curvature="0" />
      <g
         id="g705"
         transform="matrix(0.28275,0,0,0.22969,577.09,180.69)">
        <path
           style="fill:#ffccaa;stroke:#aa4400;stroke-width:3"
           id="path697"
           d="m 361.43,314.86 c -2.5e-4,7.6925 -6.2365,13.928 -13.929,13.928 -7.6925,0 -13.928,-6.2365 -13.928,-13.929 0,-7.6925 6.2365,-13.928 13.929,-13.928 7.6925,0 13.928,6.2365 13.928,13.929"
           transform="matrix(1.1157,0,0,1.1157,-42.006,-34.657)"
           inkscape:connector-curvature="0" />
        <path
           style="fill:#aa4400"
           id="path699"
           d="m 359.64,317.9 c -1.2e-4,3.649 -2.9583,6.607 -6.6074,6.6069 -3.6491,-10e-5 -6.607,-2.9583 -6.6069,-6.6074 10e-5,-3.6491 2.9583,-6.607 6.6074,-6.6069 3.6491,1e-4 6.607,2.9583 6.6069,6.6074"
           transform="matrix(1.2162,0,0,1.2162,-79.546,-69.449)"
           inkscape:connector-curvature="0" />
        <path
           style="fill:#552200"
           id="path701"
           d="m 359.64,317.9 c -1.2e-4,3.649 -2.9583,6.607 -6.6074,6.6069 -3.6491,-10e-5 -6.607,-2.9583 -6.6069,-6.6074 10e-5,-3.6491 2.9583,-6.607 6.6074,-6.6069 3.6491,1e-4 6.607,2.9583 6.6069,6.6074"
           transform="matrix(0.7027,0,0,0.7027,101.92,93.617)"
           inkscape:connector-curvature="0" />
        <path
           style="fill:#ffb380"
           id="path703"
           d="m 359.64,317.9 c -1.2e-4,3.649 -2.9583,6.607 -6.6074,6.6069 -3.6491,-10e-5 -6.607,-2.9583 -6.6069,-6.6074 10e-5,-3.6491 2.9583,-6.607 6.6074,-6.6069 3.6491,1e-4 6.607,2.9583 6.6069,6.6074"
           transform="matrix(0.32432,0,0,0.32432,238,211.4)"
           inkscape:connector-curvature="0" />
      </g>
      <path
         style="fill:none;stroke:#aa4400;stroke-width:0.50968999"
         id="path707"
         d="m 647.07,278.21 c 0,0 0.0691,3.0553 1.6509,2.2646 1.5818,-0.7907 1.3349,-3.799 2.2339,-3.8504 0.899,-0.0514 1.8554,0.99974 1.8554,0.99974"
         inkscape:connector-curvature="0" />
      <path
         style="fill:none;stroke:#aa4400;stroke-width:0.50968999"
         id="path709"
         d="m 656.12,261.04 c 0,0 -2.1735,2.1484 -0.51246,2.7552 1.66104,0.6068 3.6782,-1.6386 4.3329,-1.0204 0.6547,0.6182 0.54748,2.0353 0.54748,2.0353"
         inkscape:connector-curvature="0" />
      <path
         style="fill:none;stroke:#aa4400;stroke-width:0.50968999"
         id="path711"
         d="m 650.12,265.6 c 0,0 -1.6632,2.5639 0.0892,2.801 1.7524,0.2371 3.2422,-2.388 4.0141,-1.9242 0.7719,0.4638 0.97047,1.8709 0.97047,1.8709"
         inkscape:connector-curvature="0" />
      <path
         style="fill:none;stroke:#aa4400;stroke-width:0.50968999"
         id="path713"
         d="m 650.29,289.11 c 0,0 0.0691,3.0553 1.6509,2.2646 1.5818,-0.7907 1.3349,-3.799 2.2339,-3.8504 0.899,-0.0514 1.8554,0.99974 1.8554,0.99974"
         inkscape:connector-curvature="0" />
      <path
         style="fill:none;stroke:#aa4400;stroke-width:0.50968999"
         id="path715"
         d="m 671.18,285.86 c 0,0 0.0691,3.0553 1.6509,2.2646 1.5818,-0.7907 1.3349,-3.799 2.2339,-3.8504 0.899,-0.0514 1.8554,0.99974 1.8554,0.99974"
         inkscape:connector-curvature="0" />
      <path
         style="fill:none;stroke:#aa4400;stroke-width:0.50968999"
         id="path717"
         d="m 672.1,279.79 c 0,0 -1.3302,2.4572 0.74465,2.2986 2.07485,-0.1586 3.1912,-2.6314 4.1874,-2.4041 0.9962,0.2273 1.5476,1.3509 1.5476,1.3509"
         inkscape:connector-curvature="0" />
      <path
         style="fill:none;stroke:#aa4400;stroke-width:0.50968999"
         id="path719"
         d="m 672.04,276.07 c 0,0 2.1554,1.4561 3.5444,0.12693 1.389,-1.32917 -0.95092,-2.6564 0.10837,-3.2168 1.05929,-0.5604 2.9359,-0.61471 2.9359,-0.61471"
         inkscape:connector-curvature="0" />
      <path
         style="fill:none;stroke:#aa4400;stroke-width:0.50968999"
         id="path721"
         d="m 647.43,272.32 c 0,0 0.0691,3.0553 1.6509,2.2646 1.5818,-0.7907 1.3349,-3.799 2.2339,-3.8504 0.899,-0.0514 1.8554,0.99974 1.8554,0.99974"
         inkscape:connector-curvature="0" />
      <path
         style="fill:none;stroke:#aa4400;stroke-width:0.50968999"
         id="path723"
         d="m 647.43,283.75 c 0,0 0.0691,3.0553 1.6509,2.2646 1.5818,-0.7907 1.3349,-3.799 2.2339,-3.8504 0.899,-0.0514 1.8554,0.99974 1.8554,0.99974"
         inkscape:connector-curvature="0" />
      <path
         style="fill:none;stroke:#aa4400;stroke-width:0.50968999"
         id="path725"
         d="m 668.51,289.04 c 0,0 -2.6517,1.5193 -1.2018,2.5317 1.4499,1.0124 3.9754,-0.64071 4.4497,0.1247 0.4743,0.76541 0.007,2.1076 0.007,2.1076"
         inkscape:connector-curvature="0" />
      <path
         style="fill:none;stroke:#aa4400;stroke-width:0.50968999"
         id="path727"
         d="m 663.46,259.36 c 0,0 -2.9751,0.69876 -1.8747,2.0831 1.1004,1.38434 3.9928,0.52129 4.2288,1.3903 0.236,0.86901 -0.59489,2.022 -0.59489,2.022"
         inkscape:connector-curvature="0" />
      <path
         style="fill:none;stroke:#aa4400;stroke-width:0.50968999"
         id="path729"
         d="m 671.73,262.63 c 0,0 -2.387,-1.9084 -2.7962,-0.18801 -0.4092,1.72039 2.0559,3.4623 1.5182,4.1846 -0.5377,0.7223 -1.9577,0.78085 -1.9577,0.78085"
         inkscape:connector-curvature="0" />
      <path
         style="fill:none;stroke:#aa4400;stroke-width:0.50968999"
         id="path731"
         d="m 676,267.79 c 0,0 -1.3827,-2.7254 -2.4674,-1.3288 -1.0847,1.3966 0.43798,4.0028 -0.35054,4.4376 -0.78852,0.4348 -2.1053,-0.0997 -2.1053,-0.0997"
         inkscape:connector-curvature="0" />
      <path
         style="fill:none;stroke:#aa4400;stroke-width:0.50968999"
         id="path733"
         d="m 654.14,295.1 c 0,0 1.8025,2.468 2.6488,0.91524 0.8463,-1.55276 -1.0752,-3.8805 -0.36672,-4.4363 0.70848,-0.5558 2.094,-0.23971 2.094,-0.23971"
         inkscape:connector-curvature="0" />
      <path
         style="fill:none;stroke:#aa4400;stroke-width:0.50968999"
         id="path735"
         d="m 664.09,297.46 c 0,0 3.056,-0.0243 2.2886,-1.6175 -0.7674,-1.5932 -3.779,-1.3904 -3.8172,-2.29 -0.0382,-0.8996 1.0268,-1.8406 1.0268,-1.8406"
         inkscape:connector-curvature="0" />
      <path
         style="fill:#ffccaa;fill-rule:evenodd;stroke:#aa4400;stroke-width:0.34366"
         id="path737"
         d="m 686.23,260.58 c -2.4156,1.5434 -6.6459,0.80612 -6.6459,0.80612 0,0 1.4395,1.8378 2.9595,1.8406 2.5389,0.005 4.9468,-3.452 3.6864,-2.6467 z"
         inkscape:connector-curvature="0" />
    </g>
  </g>
</svg>
