<?xml version="1.0" encoding="UTF-8" standalone="no"?>
<svg
   xmlns:dc="http://purl.org/dc/elements/1.1/"
   xmlns:cc="http://creativecommons.org/ns#"
   xmlns:rdf="http://www.w3.org/1999/02/22-rdf-syntax-ns#"
   xmlns:svg="http://www.w3.org/2000/svg"
   xmlns="http://www.w3.org/2000/svg"
   xmlns:sodipodi="http://sodipodi.sourceforge.net/DTD/sodipodi-0.dtd"
   xmlns:inkscape="http://www.inkscape.org/namespaces/inkscape"
   viewBox="0 0 69.999999 70"
   version="1.1"
   id="svg1749"
   sodipodi:docname="P.svg"
   inkscape:version="0.92.3 (2405546, 2018-03-11)"
   width="70"
   height="70">
  <metadata
     id="metadata1753">
    <rdf:RDF>
      <cc:Work
         rdf:about="">
        <dc:format>image/svg+xml</dc:format>
        <dc:type
           rdf:resource="http://purl.org/dc/dcmitype/StillImage" />
        <dc:title></dc:title>
        <dc:title></dc:title>
      </cc:Work>
    </rdf:RDF>
  </metadata>
  <sodipodi:namedview
     pagecolor="#ffffff"
     bordercolor="#666666"
     borderopacity="1"
     objecttolerance="10"
     gridtolerance="10"
     guidetolerance="10"
     inkscape:pageopacity="0"
     inkscape:pageshadow="2"
     inkscape:window-width="1920"
     inkscape:window-height="1052"
     id="namedview1751"
     showgrid="false"
     inkscape:zoom="4.4779145"
     inkscape:cx="22.30818"
     inkscape:cy="50.256837"
     inkscape:window-x="0"
     inkscape:window-y="360"
     inkscape:window-maximized="1"
     inkscape:current-layer="g1425" />
  <defs
     id="defs5">
    <filter
       id="a"
       x="-0.46415001"
       y="-0.46415001"
       width="1.9283"
       height="1.9283">
      <feGaussianBlur
         stdDeviation="3.0281"
         id="feGaussianBlur2" />
    </filter>
    <filter
       height="1.9283"
       width="1.9283"
       y="-0.46415001"
       x="-0.46415001"
       id="a-4">
      <feGaussianBlur
         id="feGaussianBlur2-6"
         stdDeviation="3.0281" />
    </filter>
    <filter
       height="1.9283"
       width="1.9283"
       y="-0.46415001"
       x="-0.46415001"
       id="filter11866">
      <feGaussianBlur
         id="feGaussianBlur11864"
         stdDeviation="3.0281" />
    </filter>
    <filter
       height="1.9283"
       width="1.9283"
       y="-0.46415001"
       x="-0.46415001"
       id="filter11870">
      <feGaussianBlur
         id="feGaussianBlur11868"
         stdDeviation="3.0281" />
    </filter>
    <filter
       height="1.9283"
       width="1.9283"
       y="-0.46415001"
       x="-0.46415001"
       id="filter11874">
      <feGaussianBlur
         id="feGaussianBlur11872"
         stdDeviation="3.0281" />
    </filter>
    <filter
       height="1.9283"
       width="1.9283"
       y="-0.46415001"
       x="-0.46415001"
       id="filter11878">
      <feGaussianBlur
         id="feGaussianBlur11876"
         stdDeviation="3.0281" />
    </filter>
    <filter
       height="1.9283"
       width="1.9283"
       y="-0.46415001"
       x="-0.46415001"
       id="filter11882">
      <feGaussianBlur
         id="feGaussianBlur11880"
         stdDeviation="3.0281" />
    </filter>
    <filter
       height="1.9283"
       width="1.9283"
       y="-0.46415001"
       x="-0.46415001"
       id="filter11886">
      <feGaussianBlur
         id="feGaussianBlur11884"
         stdDeviation="3.0281" />
    </filter>
    <filter
       height="1.9283"
       width="1.9283"
       y="-0.46415001"
       x="-0.46415001"
       id="filter11890">
      <feGaussianBlur
         id="feGaussianBlur11888"
         stdDeviation="3.0281" />
    </filter>
    <filter
       height="1.9283"
       width="1.9283"
       y="-0.46415001"
       x="-0.46415001"
       id="filter11894">
      <feGaussianBlur
         id="feGaussianBlur11892"
         stdDeviation="3.0281" />
    </filter>
    <filter
       height="1.9283"
       width="1.9283"
       y="-0.46415001"
       x="-0.46415001"
       id="filter11898">
      <feGaussianBlur
         id="feGaussianBlur11896"
         stdDeviation="3.0281" />
    </filter>
    <filter
       height="1.9283"
       width="1.9283"
       y="-0.46415001"
       x="-0.46415001"
       id="filter11902">
      <feGaussianBlur
         id="feGaussianBlur11900"
         stdDeviation="3.0281" />
    </filter>
  </defs>
  <g
     id="g1425"
     transform="translate(-485.43934,-247.68893)">
    <g
       id="g943"
       transform="translate(-204.90852,5.9042802)">
      <path
         style="fill:#eeffaa;stroke:#445500;stroke-width:3"
         id="path857"
         d="m 447.14,337.72 c -2.4e-4,7.298 -5.9167,13.214 -13.215,13.214 -7.2983,0 -13.214,-5.9167 -13.214,-13.215 0,-7.2983 5.9167,-13.214 13.215,-13.214 7.2983,0 13.214,5.9167 13.214,13.215"
         transform="matrix(0.3308,0,0,0.26872,559.11,165.69)"
         inkscape:connector-curvature="0" />
      <path
         style="fill:#445500"
         id="path859"
         d="m 447.14,337.72 c -2.4e-4,7.298 -5.9167,13.214 -13.215,13.214 -7.2983,0 -13.214,-5.9167 -13.214,-13.215 0,-7.2983 5.9167,-13.214 13.215,-13.214 7.2983,0 13.214,5.9167 13.214,13.215"
         transform="matrix(0.17148,0,0,0.1393,628.91,209.76)"
         inkscape:connector-curvature="0" />
      <path
         style="fill:#222b00"
         id="path861"
         d="m 447.14,337.72 c -2.4e-4,7.298 -5.9167,13.214 -13.215,13.214 -7.2983,0 -13.214,-5.9167 -13.214,-13.215 0,-7.2983 5.9167,-13.214 13.215,-13.214 7.2983,0 13.214,5.9167 13.214,13.215"
         transform="matrix(0.09864,0,0,0.08013,660.67,229.7)"
         inkscape:connector-curvature="0" />
      <path
         style="fill:#eeffaa"
         id="path863"
         d="m 447.14,337.72 c -2.4e-4,7.298 -5.9167,13.214 -13.215,13.214 -7.2983,0 -13.214,-5.9167 -13.214,-13.215 0,-7.2983 5.9167,-13.214 13.215,-13.214 7.2983,0 13.214,5.9167 13.214,13.215"
         transform="matrix(0.04498,0,0,0.03654,684.67,243.84)"
         inkscape:connector-curvature="0" />
      <path
         style="fill:#aad400;stroke:#668000;stroke-opacity:0.63919995"
         id="path865"
         d="m 752.47,265.24 c 0.89322,10.035 -7.9581,19.192 -17.931,19.192 -5.4482,-0.13468 -13.091,-1.2796 -10.444,6.615 1.8929,7.9556 -5.9665,17.286 -14.056,12.456 -7.948,-4.5775 -3.8062,-14.974 -4.9365,-22.392 0.0573,-9.2394 -0.24577,-18.522 0.43846,-27.732 2.3882,-8.1688 12.438,-7.0102 19.123,-6.8043 8.7612,-0.31354 19.774,-0.63354 25.025,7.8699 2.0496,3.1855 2.8838,7.0384 2.7805,10.795 z m -18.914,0.28125 c -1.5385,-6.9133 -13.148,-4.4586 -9.3993,3.0933 2.2647,1.4226 9.5192,1.09 9.3993,-3.0933 z"
         inkscape:connector-curvature="0" />
      <path
         style="fill:#eeffaa;stroke:#445500;stroke-width:3"
         id="path867"
         d="m 447.14,337.72 c -2.4e-4,7.298 -5.9167,13.214 -13.215,13.214 -7.2983,0 -13.214,-5.9167 -13.214,-13.215 0,-7.2983 5.9167,-13.214 13.215,-13.214 7.2983,0 13.214,5.9167 13.214,13.215"
         transform="matrix(0.42688,0,0,0.34677,528.47,144.02)"
         inkscape:connector-curvature="0" />
      <path
         style="fill:#445500"
         id="path869"
         d="m 447.14,337.72 c -2.4e-4,7.298 -5.9167,13.214 -13.215,13.214 -7.2983,0 -13.214,-5.9167 -13.214,-13.215 0,-7.2983 5.9167,-13.214 13.215,-13.214 7.2983,0 13.214,5.9167 13.214,13.215"
         transform="matrix(0.24172,0,0,0.19636,609.42,194.98)"
         inkscape:connector-curvature="0" />
      <path
         style="fill:#222b00"
         id="path871"
         d="m 447.14,337.72 c -2.4e-4,7.298 -5.9167,13.214 -13.215,13.214 -7.2983,0 -13.214,-5.9167 -13.214,-13.215 0,-7.2983 5.9167,-13.214 13.215,-13.214 7.2983,0 13.214,5.9167 13.214,13.215"
         transform="matrix(0.13905,0,0,0.11296,654.19,223.09)"
         inkscape:connector-curvature="0" />
      <path
         style="fill:#eeffaa"
         id="path873"
         d="m 447.14,337.72 c -2.4e-4,7.298 -5.9167,13.214 -13.215,13.214 -7.2983,0 -13.214,-5.9167 -13.214,-13.215 0,-7.2983 5.9167,-13.214 13.215,-13.214 7.2983,0 13.214,5.9167 13.214,13.215"
         transform="matrix(0.0634,0,0,0.0515,688.01,243.03)"
         inkscape:connector-curvature="0" />
      <path
         style="fill:#eeffaa;fill-rule:evenodd;stroke:#445500;stroke-width:0.64346999"
         id="path875"
         d="m 699.59,265.12 10.277,4.3938 c 0,0 -2.8847,3.0757 -6.4907,2.9292 -3.606,-0.1465 -3.7862,-7.616 -3.7862,-7.323 z"
         inkscape:connector-curvature="0" />
      <path
         style="fill:none;stroke:#668000;stroke-width:0.76454002"
         id="path877"
         d="m 701.94,266.29 -1.4138,1.6406"
         inkscape:connector-curvature="0" />
      <path
         style="fill:none;stroke:#668000;stroke-width:0.76454002"
         id="path879"
         d="m 706.79,268.02 -2.0197,1.4766 v -0.16406"
         inkscape:connector-curvature="0" />
      <path
         style="fill:none;stroke:#668000;stroke-width:0.76454002"
         id="path881"
         d="m 701.54,271.3 1.6157,-2.7891"
         inkscape:connector-curvature="0" />
      <path
         style="fill:#638200;fill-opacity:0.19220001;stroke:#638200;stroke-opacity:0.19220001"
         id="path883"
         d="m 205,522.72 c -3.2e-4,9.665 -7.8356,17.5 -17.501,17.499 -9.6654,-0.001 -17.5,-7.8356 -17.499,-17.501 0.001,-9.6654 7.8356,-17.5 17.501,-17.499 9.6654,0.001 17.5,7.8356 17.499,17.501"
         transform="matrix(0.08656,0,0,0.07031,703.07,253.56)"
         inkscape:connector-curvature="0" />
      <path
         style="fill:#91b700"
         id="path885"
         d="m 205,522.72 c -3.2e-4,9.665 -7.8356,17.5 -17.501,17.499 -9.6654,-0.001 -17.5,-7.8356 -17.499,-17.501 0.001,-9.6654 7.8356,-17.5 17.501,-17.499 9.6654,0.001 17.5,7.8356 17.499,17.501"
         transform="matrix(0.28275,0,0,0.22969,687.82,154.13)"
         inkscape:connector-curvature="0" />
      <path
         style="fill:#91b700"
         id="path887"
         d="m 205,522.72 c -3.2e-4,9.665 -7.8356,17.5 -17.501,17.499 -9.6654,-0.001 -17.5,-7.8356 -17.499,-17.501 0.001,-9.6654 7.8356,-17.5 17.501,-17.499 9.6654,0.001 17.5,7.8356 17.499,17.501"
         transform="matrix(0.1558,0,0,0.12656,716.68,191.5)"
         inkscape:connector-curvature="0" />
      <path
         style="fill:#91b700"
         id="path889"
         d="m 205,522.72 c -3.2e-4,9.665 -7.8356,17.5 -17.501,17.499 -9.6654,-0.001 -17.5,-7.8356 -17.499,-17.501 0.001,-9.6654 7.8356,-17.5 17.501,-17.499 9.6654,0.001 17.5,7.8356 17.499,17.501"
         transform="matrix(0.22505,0,0,0.18282,688.73,182.43)"
         inkscape:connector-curvature="0" />
      <path
         style="fill:#91b700"
         id="path891"
         d="m 205,522.72 c -3.2e-4,9.665 -7.8356,17.5 -17.501,17.499 -9.6654,-0.001 -17.5,-7.8356 -17.499,-17.501 0.001,-9.6654 7.8356,-17.5 17.501,-17.499 9.6654,0.001 17.5,7.8356 17.499,17.501"
         transform="matrix(0.12695,0,0,0.10313,716.13,213.8)"
         inkscape:connector-curvature="0" />
      <path
         style="fill:#91b700"
         id="path893"
         d="m 205,522.72 c -3.2e-4,9.665 -7.8356,17.5 -17.501,17.499 -9.6654,-0.001 -17.5,-7.8356 -17.499,-17.501 0.001,-9.6654 7.8356,-17.5 17.501,-17.499 9.6654,0.001 17.5,7.8356 17.499,17.501"
         transform="matrix(-0.00366,-0.15576,-0.12653,0.00297,805.22,281.28)"
         inkscape:connector-curvature="0" />
      <path
         style="fill:#638200;fill-opacity:0.19220001;stroke:#638200;stroke-opacity:0.19220001"
         id="path895"
         d="m 205,522.72 c -3.2e-4,9.665 -7.8356,17.5 -17.501,17.499 -9.6654,-0.001 -17.5,-7.8356 -17.499,-17.501 0.001,-9.6654 7.8356,-17.5 17.501,-17.499 9.6654,0.001 17.5,7.8356 17.499,17.501"
         transform="matrix(-0.00529,-0.22499,-0.18276,0.0043,807.29,331.49)"
         inkscape:connector-curvature="0" />
      <path
         style="fill:#638200;fill-opacity:0.19220001;stroke:#638200;stroke-opacity:0.19220001"
         id="path897"
         d="m 205,522.72 c -3.2e-4,9.665 -7.8356,17.5 -17.501,17.499 -9.6654,-0.001 -17.5,-7.8356 -17.499,-17.501 0.001,-9.6654 7.8356,-17.5 17.501,-17.499 9.6654,0.001 17.5,7.8356 17.499,17.501"
         transform="matrix(-0.00529,-0.22499,-0.18276,0.0043,812.91,326.11)"
         inkscape:connector-curvature="0" />
      <path
         style="fill:#91b700"
         id="path899"
         d="m 205,522.72 c -3.2e-4,9.665 -7.8356,17.5 -17.501,17.499 -9.6654,-0.001 -17.5,-7.8356 -17.499,-17.501 0.001,-9.6654 7.8356,-17.5 17.501,-17.499 9.6654,0.001 17.5,7.8356 17.499,17.501"
         transform="matrix(-0.00298,-0.12692,-0.1031,0.00242,788.06,278.39)"
         inkscape:connector-curvature="0" />
      <path
         style="fill:#91b700"
         id="path901"
         d="m 205,522.72 c -3.2e-4,9.665 -7.8356,17.5 -17.501,17.499 -9.6654,-0.001 -17.5,-7.8356 -17.499,-17.501 0.001,-9.6654 7.8356,-17.5 17.501,-17.499 9.6654,0.001 17.5,7.8356 17.499,17.501"
         transform="matrix(-0.00298,-0.12692,-0.1031,0.00242,798.76,286.62)"
         inkscape:connector-curvature="0" />
      <path
         style="fill:#638200;fill-opacity:0.19220001;stroke:#638200;stroke-opacity:0.19220001"
         id="path903"
         d="m 205,522.72 c -3.2e-4,9.665 -7.8356,17.5 -17.501,17.499 -9.6654,-0.001 -17.5,-7.8356 -17.499,-17.501 0.001,-9.6654 7.8356,-17.5 17.501,-17.499 9.6654,0.001 17.5,7.8356 17.499,17.501"
         transform="matrix(-0.00285,-0.12115,-0.09841,0.00231,763.06,305.78)"
         inkscape:connector-curvature="0" />
      <path
         style="fill:#638200;fill-opacity:0.19220001;stroke:#638200;stroke-opacity:0.19220001"
         id="path905"
         d="m 205,522.72 c -3.2e-4,9.665 -7.8356,17.5 -17.501,17.499 -9.6654,-0.001 -17.5,-7.8356 -17.499,-17.501 0.001,-9.6654 7.8356,-17.5 17.501,-17.499 9.6654,0.001 17.5,7.8356 17.499,17.501"
         transform="matrix(-0.00502,-0.21345,-0.17339,0.00408,810.56,315.71)"
         inkscape:connector-curvature="0" />
      <path
         style="fill:#638200;fill-opacity:0.19220001;stroke:#638200;stroke-opacity:0.19220001"
         id="path907"
         d="m 205,522.72 c -3.2e-4,9.665 -7.8356,17.5 -17.501,17.499 -9.6654,-0.001 -17.5,-7.8356 -17.499,-17.501 0.001,-9.6654 7.8356,-17.5 17.501,-17.499 9.6654,0.001 17.5,7.8356 17.499,17.501"
         transform="matrix(0.05382,0.06779,-0.05507,0.04372,745.4,247.24)"
         inkscape:connector-curvature="0" />
      <path
         style="fill:#638200;fill-opacity:0.19220001;stroke:#638200;stroke-opacity:0.19220001"
         id="path909"
         d="m 205,522.72 c -3.2e-4,9.665 -7.8356,17.5 -17.501,17.499 -9.6654,-0.001 -17.5,-7.8356 -17.499,-17.501 0.001,-9.6654 7.8356,-17.5 17.501,-17.499 9.6654,0.001 17.5,7.8356 17.499,17.501"
         transform="matrix(0.09311,-0.07756,-0.063,-0.07564,741.81,326.7)"
         inkscape:connector-curvature="0" />
      <path
         style="fill:#91b700"
         id="path911"
         d="m 205,522.72 c -3.2e-4,9.665 -7.8356,17.5 -17.501,17.499 -9.6654,-0.001 -17.5,-7.8356 -17.499,-17.501 0.001,-9.6654 7.8356,-17.5 17.501,-17.499 9.6654,0.001 17.5,7.8356 17.499,17.501"
         transform="matrix(0.28275,0,0,0.22969,687.82,154.13)"
         inkscape:connector-curvature="0" />
      <path
         style="fill:#638200;fill-opacity:0.19220001;stroke:#638200;stroke-opacity:0.19220001"
         id="path913"
         d="m 205,522.72 c -3.2e-4,9.665 -7.8356,17.5 -17.501,17.499 -9.6654,-0.001 -17.5,-7.8356 -17.499,-17.501 0.001,-9.6654 7.8356,-17.5 17.501,-17.499 9.6654,0.001 17.5,7.8356 17.499,17.501"
         transform="matrix(0.08656,0,0,0.07031,703.07,253.56)"
         inkscape:connector-curvature="0" />
      <path
         style="fill:#91b700"
         id="path915"
         d="m 205,522.72 c -3.2e-4,9.665 -7.8356,17.5 -17.501,17.499 -9.6654,-0.001 -17.5,-7.8356 -17.499,-17.501 0.001,-9.6654 7.8356,-17.5 17.501,-17.499 9.6654,0.001 17.5,7.8356 17.499,17.501"
         transform="matrix(0.28275,0,0,0.22969,687.82,154.13)"
         inkscape:connector-curvature="0" />
      <path
         style="fill:#91b700"
         id="path917"
         d="m 205,522.72 c -3.2e-4,9.665 -7.8356,17.5 -17.501,17.499 -9.6654,-0.001 -17.5,-7.8356 -17.499,-17.501 0.001,-9.6654 7.8356,-17.5 17.501,-17.499 9.6654,0.001 17.5,7.8356 17.499,17.501"
         transform="matrix(0.1558,0,0,0.12656,685.61,186.5)"
         inkscape:connector-curvature="0" />
      <path
         style="fill:#91b700"
         id="path919"
         d="m 205,522.72 c -3.2e-4,9.665 -7.8356,17.5 -17.501,17.499 -9.6654,-0.001 -17.5,-7.8356 -17.499,-17.501 0.001,-9.6654 7.8356,-17.5 17.501,-17.499 9.6654,0.001 17.5,7.8356 17.499,17.501"
         transform="matrix(0.12695,0,0,0.10313,692.47,244.66)"
         inkscape:connector-curvature="0" />
      <path
         style="fill:#91b700"
         id="path921"
         d="m 205,522.72 c -3.2e-4,9.665 -7.8356,17.5 -17.501,17.499 -9.6654,-0.001 -17.5,-7.8356 -17.499,-17.501 0.001,-9.6654 7.8356,-17.5 17.501,-17.499 9.6654,0.001 17.5,7.8356 17.499,17.501"
         transform="matrix(0.12695,0,0,0.10313,693.27,217.02)"
         inkscape:connector-curvature="0" />
      <path
         style="fill:#91b700"
         id="path923"
         d="m 205,522.72 c -3.2e-4,9.665 -7.8356,17.5 -17.501,17.499 -9.6654,-0.001 -17.5,-7.8356 -17.499,-17.501 0.001,-9.6654 7.8356,-17.5 17.501,-17.499 9.6654,0.001 17.5,7.8356 17.499,17.501"
         transform="matrix(-0.00366,-0.15576,-0.12653,0.00297,805.22,281.28)"
         inkscape:connector-curvature="0" />
      <path
         style="fill:#638200;fill-opacity:0.19220001;stroke:#638200;stroke-opacity:0.19220001"
         id="path925"
         d="m 205,522.72 c -3.2e-4,9.665 -7.8356,17.5 -17.501,17.499 -9.6654,-0.001 -17.5,-7.8356 -17.499,-17.501 0.001,-9.6654 7.8356,-17.5 17.501,-17.499 9.6654,0.001 17.5,7.8356 17.499,17.501"
         transform="matrix(-0.00529,-0.22499,-0.18276,0.0043,807.29,331.49)"
         inkscape:connector-curvature="0" />
      <path
         style="fill:#638200;fill-opacity:0.19220001;stroke:#638200;stroke-opacity:0.19220001"
         id="path927"
         d="m 205,522.72 c -3.2e-4,9.665 -7.8356,17.5 -17.501,17.499 -9.6654,-0.001 -17.5,-7.8356 -17.499,-17.501 0.001,-9.6654 7.8356,-17.5 17.501,-17.499 9.6654,0.001 17.5,7.8356 17.499,17.501"
         transform="matrix(-0.00529,-0.22499,-0.18276,0.0043,812.91,326.11)"
         inkscape:connector-curvature="0" />
      <path
         style="fill:#91b700"
         id="path929"
         d="m 205,522.72 c -3.2e-4,9.665 -7.8356,17.5 -17.501,17.499 -9.6654,-0.001 -17.5,-7.8356 -17.499,-17.501 0.001,-9.6654 7.8356,-17.5 17.501,-17.499 9.6654,0.001 17.5,7.8356 17.499,17.501"
         transform="matrix(-0.00298,-0.12692,-0.1031,0.00242,765.92,297.68)"
         inkscape:connector-curvature="0" />
      <path
         style="fill:#91b700"
         id="path931"
         d="m 205,522.72 c -3.2e-4,9.665 -7.8356,17.5 -17.501,17.499 -9.6654,-0.001 -17.5,-7.8356 -17.499,-17.501 0.001,-9.6654 7.8356,-17.5 17.501,-17.499 9.6654,0.001 17.5,7.8356 17.499,17.501"
         transform="matrix(-0.00298,-0.12692,-0.1031,0.00242,791.97,284.12)"
         inkscape:connector-curvature="0" />
      <path
         style="fill:#638200;fill-opacity:0.19220001;stroke:#638200;stroke-opacity:0.19220001"
         id="path933"
         d="m 205,522.72 c -3.2e-4,9.665 -7.8356,17.5 -17.501,17.499 -9.6654,-0.001 -17.5,-7.8356 -17.499,-17.501 0.001,-9.6654 7.8356,-17.5 17.501,-17.499 9.6654,0.001 17.5,7.8356 17.499,17.501"
         transform="matrix(-0.00285,-0.12115,-0.09841,0.00231,763.06,305.78)"
         inkscape:connector-curvature="0" />
      <path
         style="fill:#638200;fill-opacity:0.19220001;stroke:#638200;stroke-opacity:0.19220001"
         id="path935"
         d="m 205,522.72 c -3.2e-4,9.665 -7.8356,17.5 -17.501,17.499 -9.6654,-0.001 -17.5,-7.8356 -17.499,-17.501 0.001,-9.6654 7.8356,-17.5 17.501,-17.499 9.6654,0.001 17.5,7.8356 17.499,17.501"
         transform="matrix(-0.00502,-0.21345,-0.17339,0.00408,810.56,315.71)"
         inkscape:connector-curvature="0" />
      <path
         style="fill:#638200;fill-opacity:0.19220001;stroke:#638200;stroke-opacity:0.19220001"
         id="path937"
         d="m 205,522.72 c -3.2e-4,9.665 -7.8356,17.5 -17.501,17.499 -9.6654,-0.001 -17.5,-7.8356 -17.499,-17.501 0.001,-9.6654 7.8356,-17.5 17.501,-17.499 9.6654,0.001 17.5,7.8356 17.499,17.501"
         transform="matrix(0.05382,0.06779,-0.05507,0.04372,745.4,247.24)"
         inkscape:connector-curvature="0" />
      <path
         style="fill:#638200;fill-opacity:0.19220001;stroke:#638200;stroke-opacity:0.19220001"
         id="path939"
         d="m 205,522.72 c -3.2e-4,9.665 -7.8356,17.5 -17.501,17.499 -9.6654,-0.001 -17.5,-7.8356 -17.499,-17.501 0.001,-9.6654 7.8356,-17.5 17.501,-17.499 9.6654,0.001 17.5,7.8356 17.499,17.501"
         transform="matrix(0.09311,-0.07756,-0.063,-0.07564,741.81,326.7)"
         inkscape:connector-curvature="0" />
      <path
         style="fill:#91b700"
         id="path941"
         d="m 205,522.72 c -3.2e-4,9.665 -7.8356,17.5 -17.501,17.499 -9.6654,-0.001 -17.5,-7.8356 -17.499,-17.501 0.001,-9.6654 7.8356,-17.5 17.501,-17.499 9.6654,0.001 17.5,7.8356 17.499,17.501"
         transform="matrix(0.28275,0,0,0.22969,671.75,133.41)"
         inkscape:connector-curvature="0" />
    </g>
  </g>
</svg>
