<?xml version="1.0" encoding="UTF-8" standalone="no"?>
<svg
   xmlns:dc="http://purl.org/dc/elements/1.1/"
   xmlns:cc="http://creativecommons.org/ns#"
   xmlns:rdf="http://www.w3.org/1999/02/22-rdf-syntax-ns#"
   xmlns:svg="http://www.w3.org/2000/svg"
   xmlns="http://www.w3.org/2000/svg"
   xmlns:sodipodi="http://sodipodi.sourceforge.net/DTD/sodipodi-0.dtd"
   xmlns:inkscape="http://www.inkscape.org/namespaces/inkscape"
   viewBox="0 0 69.999999 70"
   version="1.1"
   id="svg1749"
   sodipodi:docname="Q.svg"
   inkscape:version="0.92.3 (2405546, 2018-03-11)"
   width="70"
   height="70">
  <metadata
     id="metadata1753">
    <rdf:RDF>
      <cc:Work
         rdf:about="">
        <dc:format>image/svg+xml</dc:format>
        <dc:type
           rdf:resource="http://purl.org/dc/dcmitype/StillImage" />
        <dc:title></dc:title>
        <dc:title></dc:title>
      </cc:Work>
    </rdf:RDF>
  </metadata>
  <sodipodi:namedview
     pagecolor="#ffffff"
     bordercolor="#666666"
     borderopacity="1"
     objecttolerance="10"
     gridtolerance="10"
     guidetolerance="10"
     inkscape:pageopacity="0"
     inkscape:pageshadow="2"
     inkscape:window-width="1920"
     inkscape:window-height="1052"
     id="namedview1751"
     showgrid="false"
     inkscape:zoom="4.4779145"
     inkscape:cx="22.30818"
     inkscape:cy="50.256837"
     inkscape:window-x="0"
     inkscape:window-y="360"
     inkscape:window-maximized="1"
     inkscape:current-layer="g1425" />
  <defs
     id="defs5">
    <filter
       id="a"
       x="-0.46415001"
       y="-0.46415001"
       width="1.9283"
       height="1.9283">
      <feGaussianBlur
         stdDeviation="3.0281"
         id="feGaussianBlur2" />
    </filter>
    <filter
       height="1.9283"
       width="1.9283"
       y="-0.46415001"
       x="-0.46415001"
       id="a-4">
      <feGaussianBlur
         id="feGaussianBlur2-6"
         stdDeviation="3.0281" />
    </filter>
    <filter
       height="1.9283"
       width="1.9283"
       y="-0.46415001"
       x="-0.46415001"
       id="filter11866">
      <feGaussianBlur
         id="feGaussianBlur11864"
         stdDeviation="3.0281" />
    </filter>
    <filter
       height="1.9283"
       width="1.9283"
       y="-0.46415001"
       x="-0.46415001"
       id="filter11870">
      <feGaussianBlur
         id="feGaussianBlur11868"
         stdDeviation="3.0281" />
    </filter>
    <filter
       height="1.9283"
       width="1.9283"
       y="-0.46415001"
       x="-0.46415001"
       id="filter11874">
      <feGaussianBlur
         id="feGaussianBlur11872"
         stdDeviation="3.0281" />
    </filter>
    <filter
       height="1.9283"
       width="1.9283"
       y="-0.46415001"
       x="-0.46415001"
       id="filter11878">
      <feGaussianBlur
         id="feGaussianBlur11876"
         stdDeviation="3.0281" />
    </filter>
    <filter
       height="1.9283"
       width="1.9283"
       y="-0.46415001"
       x="-0.46415001"
       id="filter11882">
      <feGaussianBlur
         id="feGaussianBlur11880"
         stdDeviation="3.0281" />
    </filter>
    <filter
       height="1.9283"
       width="1.9283"
       y="-0.46415001"
       x="-0.46415001"
       id="filter11886">
      <feGaussianBlur
         id="feGaussianBlur11884"
         stdDeviation="3.0281" />
    </filter>
    <filter
       height="1.9283"
       width="1.9283"
       y="-0.46415001"
       x="-0.46415001"
       id="filter11890">
      <feGaussianBlur
         id="feGaussianBlur11888"
         stdDeviation="3.0281" />
    </filter>
    <filter
       height="1.9283"
       width="1.9283"
       y="-0.46415001"
       x="-0.46415001"
       id="filter11894">
      <feGaussianBlur
         id="feGaussianBlur11892"
         stdDeviation="3.0281" />
    </filter>
    <filter
       height="1.9283"
       width="1.9283"
       y="-0.46415001"
       x="-0.46415001"
       id="filter11898">
      <feGaussianBlur
         id="feGaussianBlur11896"
         stdDeviation="3.0281" />
    </filter>
    <filter
       height="1.9283"
       width="1.9283"
       y="-0.46415001"
       x="-0.46415001"
       id="filter11902">
      <feGaussianBlur
         id="feGaussianBlur11900"
         stdDeviation="3.0281" />
    </filter>
  </defs>
  <g
     id="g1425"
     transform="translate(-485.43934,-247.68893)">
    <g
       id="g1719"
       transform="translate(119.89853,-229.77284)">
      <path
         style="fill:#ffcc00;stroke:#af8b00;stroke-opacity:0.69800002"
         id="path1677"
         d="m 431.17,535.69 c -6e-5,1.3359 -0.42779,2.625 -1.2832,3.8672 -0.85541,1.2422 -1.9161,2.2207 -3.1816,2.9355 -1.2655,0.7148 -2.461,1.0723 -3.5859,1.0723 -1.5469,-1e-5 -3.3868,-0.54493 -5.5195,-1.6348 -2.1327,-1.08987 -4.6407,-2.6426 -7.5234,-4.6582 -3.3282,1.125 -7.0782,1.6875 -11.25,1.6875 -4.711,0 -8.8946,-0.7207 -12.551,-2.1621 -3.6564,-1.4414 -6.6797,-3.4922 -9.0703,-6.1523 -2.3906,-2.6601 -4.1836,-5.8066 -5.3789,-9.4395 -1.1953,-3.6329 -1.793,-7.6289 -1.793,-11.988 0,-5.4843 1.0254,-10.436 3.0762,-14.854 2.0508,-4.418 5.2148,-7.9335 9.4922,-10.547 4.2774,-2.6135 9.5683,-3.9199 15.873,-3.9199 4.9218,6e-5 9.2343,0.73834 12.938,2.2148 3.7037,1.47646 6.7382,3.5333 9.1055,6.1699 2.3673,2.6366 4.1249,5.7188 5.2734,9.2461 1.1485,3.5273 1.7226,7.4707 1.7226,11.83 -6e-5,6.8203 -1.4415,12.621 -4.3242,17.402 0.89057,0.51564 1.6113,0.93165 2.1621,1.248 0.5508,0.31635 0.98432,0.56251 1.3008,0.73828 l 0.72071,0.4043 c 1.3828,0.77344 2.3613,1.6289 2.9355,2.5664 0.5742,0.9375 0.86127,2.2617 0.86133,3.9727 z m -22.746,-27.07 c -4e-5,-3.0234 -0.60942,-5.8652 -1.8281,-8.5254 -1.21868,-2.6602 -3.8321,-3.9902 -7.8398,-3.9902 -3.1875,4e-5 -5.5899,1.1426 -7.207,3.4277 -1.6171,2.2851 -2.4258,5.5137 -2.4258,9.6855 -2e-5,1.7813 0.12888,3.3574 0.38672,4.7285 0.25784,1.3711 0.60935,2.5078 1.0547,3.4102 0.44535,0.9024 0.92576,1.67 1.4414,2.3027 1.6172,2.0625 3.8437,3.0938 6.6797,3.0938 1.7343,10e-6 3.2929,-0.40428 4.6758,-1.2129 1.3829,-0.80862 2.4726,-1.8926 3.2695,-3.252 1.1953,-2.0625 1.7929,-5.0859 1.793,-9.0703 z"
         inkscape:connector-curvature="0" />
      <g
         id="g1687"
         transform="matrix(0.28275,0,0,0.22969,367.88,450.23)">
        <path
           style="fill:#ffeeaa;stroke:#aa8800;stroke-width:3"
           id="path1679"
           d="m 221.22,333.13 c -3.8e-4,11.158 -9.0459,20.203 -20.204,20.202 -11.1581,-10e-4 -20.203,-9.0459 -20.202,-20.204 0.001,-11.1581 9.0459,-20.203 20.204,-20.202 11.1581,0.001 20.203,9.0459 20.202,20.204"
           inkscape:connector-curvature="0" />
        <path
           style="fill:#554400"
           id="path1681"
           d="m 216.17,332.63 c -1.8e-4,5.3 -4.2968,9.5963 -9.5968,9.5961 -5.3,-2e-4 -9.5963,-4.2968 -9.5961,-9.5968 2e-4,-5.3 4.2968,-9.5963 9.5968,-9.5961 5.3,2e-4 9.5963,4.2968 9.5961,9.5968"
           inkscape:connector-curvature="0" />
        <path
           style="fill:#2b2200"
           id="path1683"
           d="m 214.4,333.51 c -7e-5,2.1618 -1.7526,3.9143 -3.9145,3.9142 -2.1619,-10e-5 -3.9143,-1.7526 -3.9142,-3.9145 1e-4,-2.1619 1.7526,-3.9143 3.9145,-3.9142 2.1619,10e-5 3.9143,1.7526 3.9142,3.9145"
           inkscape:connector-curvature="0" />
        <path
           style="fill:#ffeeaa"
           id="path1685"
           d="m 210.11,330.36 c -3e-5,0.97631 -0.79151,1.7677 -1.7678,1.7677 -0.97629,0 -1.7677,-0.79152 -1.7677,-1.7678 0,-0.97628 0.79151,-1.7677 1.7678,-1.7677 0.97629,0 1.7677,0.79152 1.7677,1.7678"
           inkscape:connector-curvature="0" />
      </g>
      <path
         style="fill:none;stroke:#aa8800;stroke-width:0.50968999"
         id="path1689"
         d="m 383.42,510.04 c 0,0 0.0691,3.0553 1.6509,2.2646 1.5818,-0.7907 1.3349,-3.799 2.2339,-3.8504 0.899,-0.0514 1.8554,0.99974 1.8554,0.99974"
         inkscape:connector-curvature="0" />
      <path
         style="fill:none;stroke:#aa8800;stroke-width:0.50968999"
         id="path1691"
         d="m 392.47,492.87 c 0,0 -2.1735,2.1484 -0.51246,2.7552 1.66104,0.6068 3.6782,-1.6386 4.3329,-1.0204 0.6547,0.6182 0.54748,2.0353 0.54748,2.0353"
         inkscape:connector-curvature="0" />
      <path
         style="fill:none;stroke:#aa8800;stroke-width:0.50968999"
         id="path1693"
         d="m 386.47,497.43 c 0,0 -1.6632,2.5639 0.0892,2.801 1.7524,0.2371 3.2422,-2.388 4.0141,-1.9242 0.7719,0.4638 0.97047,1.8709 0.97047,1.8709"
         inkscape:connector-curvature="0" />
      <path
         style="fill:none;stroke:#aa8800;stroke-width:0.50968999"
         id="path1695"
         d="m 386.64,520.94 c 0,0 0.0691,3.0553 1.6509,2.2646 1.5818,-0.7907 1.3349,-3.799 2.2339,-3.8504 0.899,-0.0514 1.8554,0.99974 1.8554,0.99974"
         inkscape:connector-curvature="0" />
      <path
         style="fill:none;stroke:#aa8800;stroke-width:0.50968999"
         id="path1697"
         d="m 407.53,517.69 c 0,0 0.0691,3.0553 1.6509,2.2646 1.5818,-0.7907 1.3349,-3.799 2.2339,-3.8504 0.899,-0.0514 1.8554,0.99974 1.8554,0.99974"
         inkscape:connector-curvature="0" />
      <path
         style="fill:none;stroke:#aa8800;stroke-width:0.50968999"
         id="path1699"
         d="m 408.45,511.62 c 0,0 -1.3302,2.4572 0.74465,2.2986 2.07485,-0.1586 3.1912,-2.6314 4.1874,-2.4041 0.9962,0.2273 1.5476,1.3509 1.5476,1.3509"
         inkscape:connector-curvature="0" />
      <path
         style="fill:none;stroke:#aa8800;stroke-width:0.50968999"
         id="path1701"
         d="m 408.39,507.9 c 0,0 2.1554,1.4561 3.5444,0.12693 1.389,-1.32917 -0.95092,-2.6564 0.10837,-3.2168 1.05929,-0.5604 2.9359,-0.61471 2.9359,-0.61471"
         inkscape:connector-curvature="0" />
      <path
         style="fill:none;stroke:#aa8800;stroke-width:0.50968999"
         id="path1703"
         d="m 383.78,504.15 c 0,0 0.0691,3.0553 1.6509,2.2646 1.5818,-0.7907 1.3349,-3.799 2.2339,-3.8504 0.899,-0.0514 1.8554,0.99974 1.8554,0.99974"
         inkscape:connector-curvature="0" />
      <path
         style="fill:none;stroke:#aa8800;stroke-width:0.50968999"
         id="path1705"
         d="m 383.78,515.58 c 0,0 0.0691,3.0553 1.6509,2.2646 1.5818,-0.7907 1.3349,-3.799 2.2339,-3.8504 0.899,-0.0514 1.8554,0.99974 1.8554,0.99974"
         inkscape:connector-curvature="0" />
      <path
         style="fill:none;stroke:#aa8800;stroke-width:0.50968999"
         id="path1707"
         d="m 404.86,520.87 c 0,0 -2.6517,1.5193 -1.2018,2.5317 1.4499,1.0124 3.9754,-0.64071 4.4497,0.1247 0.4743,0.76541 0.007,2.1076 0.007,2.1076"
         inkscape:connector-curvature="0" />
      <path
         style="fill:none;stroke:#aa8800;stroke-width:0.50968999"
         id="path1709"
         d="m 399.81,491.19 c 0,0 -2.9751,0.69876 -1.8747,2.0831 1.1004,1.38434 3.9928,0.52129 4.2288,1.3903 0.236,0.86901 -0.59489,2.022 -0.59489,2.022"
         inkscape:connector-curvature="0" />
      <path
         style="fill:none;stroke:#aa8800;stroke-width:0.50968999"
         id="path1711"
         d="m 408.44,493.93 c 0,0 -2.387,-1.9084 -2.7962,-0.18801 -0.4092,1.72039 2.0559,3.4623 1.5182,4.1846 -0.5377,0.7223 -1.9577,0.78085 -1.9577,0.78085"
         inkscape:connector-curvature="0" />
      <path
         style="fill:none;stroke:#aa8800;stroke-width:0.50968999"
         id="path1713"
         d="m 412.35,499.62 c 0,0 -1.3827,-2.7254 -2.4674,-1.3288 -1.0847,1.3966 0.43798,4.0028 -0.35054,4.4376 -0.78852,0.4348 -2.1053,-0.0997 -2.1053,-0.0997"
         inkscape:connector-curvature="0" />
      <path
         style="fill:none;stroke:#aa8800;stroke-width:0.50968999"
         id="path1715"
         d="m 390.85,526.22 c 0,0 1.8025,2.468 2.6488,0.91524 0.8463,-1.55276 -1.0752,-3.8805 -0.36672,-4.4363 0.70848,-0.5558 2.094,-0.23971 2.094,-0.23971"
         inkscape:connector-curvature="0" />
      <path
         style="fill:none;stroke:#aa8800;stroke-width:0.50968999"
         id="path1717"
         d="m 400.44,529.29 c 0,0 3.056,-0.0243 2.2886,-1.6175 -0.7674,-1.5932 -3.779,-1.3904 -3.8172,-2.29 -0.0382,-0.8996 1.0268,-1.8406 1.0268,-1.8406"
         inkscape:connector-curvature="0" />
    </g>
  </g>
</svg>
