<?xml version="1.0" encoding="UTF-8" standalone="no"?>
<svg
   xmlns:dc="http://purl.org/dc/elements/1.1/"
   xmlns:cc="http://creativecommons.org/ns#"
   xmlns:rdf="http://www.w3.org/1999/02/22-rdf-syntax-ns#"
   xmlns:svg="http://www.w3.org/2000/svg"
   xmlns="http://www.w3.org/2000/svg"
   xmlns:sodipodi="http://sodipodi.sourceforge.net/DTD/sodipodi-0.dtd"
   xmlns:inkscape="http://www.inkscape.org/namespaces/inkscape"
   viewBox="0 0 69.999999 70"
   version="1.1"
   id="svg1749"
   sodipodi:docname="R.svg"
   inkscape:version="0.92.3 (2405546, 2018-03-11)"
   width="70"
   height="70">
  <metadata
     id="metadata1753">
    <rdf:RDF>
      <cc:Work
         rdf:about="">
        <dc:format>image/svg+xml</dc:format>
        <dc:type
           rdf:resource="http://purl.org/dc/dcmitype/StillImage" />
        <dc:title></dc:title>
        <dc:title></dc:title>
      </cc:Work>
    </rdf:RDF>
  </metadata>
  <sodipodi:namedview
     pagecolor="#ffffff"
     bordercolor="#666666"
     borderopacity="1"
     objecttolerance="10"
     gridtolerance="10"
     guidetolerance="10"
     inkscape:pageopacity="0"
     inkscape:pageshadow="2"
     inkscape:window-width="1920"
     inkscape:window-height="1052"
     id="namedview1751"
     showgrid="false"
     inkscape:zoom="4.4779145"
     inkscape:cx="22.30818"
     inkscape:cy="50.256837"
     inkscape:window-x="0"
     inkscape:window-y="360"
     inkscape:window-maximized="1"
     inkscape:current-layer="g1425" />
  <defs
     id="defs5">
    <filter
       id="a"
       x="-0.46415001"
       y="-0.46415001"
       width="1.9283"
       height="1.9283">
      <feGaussianBlur
         stdDeviation="3.0281"
         id="feGaussianBlur2" />
    </filter>
    <filter
       height="1.9283"
       width="1.9283"
       y="-0.46415001"
       x="-0.46415001"
       id="a-4">
      <feGaussianBlur
         id="feGaussianBlur2-6"
         stdDeviation="3.0281" />
    </filter>
    <filter
       height="1.9283"
       width="1.9283"
       y="-0.46415001"
       x="-0.46415001"
       id="filter11866">
      <feGaussianBlur
         id="feGaussianBlur11864"
         stdDeviation="3.0281" />
    </filter>
    <filter
       height="1.9283"
       width="1.9283"
       y="-0.46415001"
       x="-0.46415001"
       id="filter11870">
      <feGaussianBlur
         id="feGaussianBlur11868"
         stdDeviation="3.0281" />
    </filter>
    <filter
       height="1.9283"
       width="1.9283"
       y="-0.46415001"
       x="-0.46415001"
       id="filter11874">
      <feGaussianBlur
         id="feGaussianBlur11872"
         stdDeviation="3.0281" />
    </filter>
    <filter
       height="1.9283"
       width="1.9283"
       y="-0.46415001"
       x="-0.46415001"
       id="filter11878">
      <feGaussianBlur
         id="feGaussianBlur11876"
         stdDeviation="3.0281" />
    </filter>
    <filter
       height="1.9283"
       width="1.9283"
       y="-0.46415001"
       x="-0.46415001"
       id="filter11882">
      <feGaussianBlur
         id="feGaussianBlur11880"
         stdDeviation="3.0281" />
    </filter>
    <filter
       height="1.9283"
       width="1.9283"
       y="-0.46415001"
       x="-0.46415001"
       id="filter11886">
      <feGaussianBlur
         id="feGaussianBlur11884"
         stdDeviation="3.0281" />
    </filter>
    <filter
       height="1.9283"
       width="1.9283"
       y="-0.46415001"
       x="-0.46415001"
       id="filter11890">
      <feGaussianBlur
         id="feGaussianBlur11888"
         stdDeviation="3.0281" />
    </filter>
    <filter
       height="1.9283"
       width="1.9283"
       y="-0.46415001"
       x="-0.46415001"
       id="filter11894">
      <feGaussianBlur
         id="feGaussianBlur11892"
         stdDeviation="3.0281" />
    </filter>
    <filter
       height="1.9283"
       width="1.9283"
       y="-0.46415001"
       x="-0.46415001"
       id="filter11898">
      <feGaussianBlur
         id="feGaussianBlur11896"
         stdDeviation="3.0281" />
    </filter>
    <filter
       height="1.9283"
       width="1.9283"
       y="-0.46415001"
       x="-0.46415001"
       id="filter11902">
      <feGaussianBlur
         id="feGaussianBlur11900"
         stdDeviation="3.0281" />
    </filter>
  </defs>
  <g
     id="g1425"
     transform="translate(-485.43934,-247.68893)">
    <g
       id="g1675"
       transform="translate(53.18051,-230.80918)">
      <path
         style="fill:#bc5fd3;stroke:#ab37c8;stroke-opacity:0.99220001"
         id="path1561"
         d="m 492.87,534.29 c -6e-5,1.5 -0.39263,2.877 -1.1777,4.1309 -0.78507,1.2539 -1.8633,2.2383 -3.2344,2.9531 -1.3711,0.7148 -2.9004,1.0723 -4.5879,1.0723 -1.7813,0 -3.3692,-0.32227 -4.7637,-0.9668 -1.3945,-0.64453 -2.6543,-1.6699 -3.7793,-3.0762 -1.125,-1.4062 -2.2032,-3.2578 -3.2344,-5.5547 l -3.6211,-7.9102 c -0.9844,-2.2031 -1.8809,-3.7031 -2.6894,-4.5 -0.8085,-0.7969 -1.377,-1.2187 -1.7051,-1.2656 h -1.125 v 9.1406 c -3e-5,3.1172 -0.17581,5.4551 -0.52735,7.0137 -0.35154,1.5586 -1.043,2.8535 -2.0742,3.8848 -1.9688,1.9688 -4.2539,2.9531 -6.8555,2.9531 -2.7188,0 -5.0391,-0.96094 -6.9609,-2.8828 -1.0313,-1.0312 -1.7109,-2.3555 -2.0391,-3.9727 -0.3282,-1.6172 -0.4922,-3.9492 -0.49219,-6.9961 v -30.375 c -1e-5,-2.6015 0.0703,-4.5058 0.21094,-5.7129 0.14064,-1.2071 0.39257,-2.1738 0.75586,-2.9004 0.36329,-0.7266 0.95507,-1.5468 1.7754,-2.4609 0.72655,-0.79682 1.5058,-1.4003 2.3379,-1.8106 0.8321,-0.4103 1.9453,-0.69135 3.3398,-0.84375 1.3945,-0.1524 3.2168,-0.22846 5.4668,-0.22851 h 11.742 c 2.5547,5e-5 4.916,0.11724 7.084,0.35156 2.168,0.23432 4.0839,0.66802 5.748,1.3008 2.3671,0.89068 4.3183,2.1797 5.8535,3.8672 1.5352,1.6875 2.6425,3.5508 3.3223,5.5898 0.6798,2.039 1.0195,4.0899 1.0195,6.1524 -5e-5,2.7422 -0.56841,5.3262 -1.7051,7.752 -1.13669,2.4258 -2.7012,4.3301 -4.6934,5.7129 -0.84379,0.6094 -1.8282,1.2071 -2.9531,1.793 1.2187,1.2188 2.4726,2.8594 3.7617,4.9219 1.4296,2.2032 2.7539,4.5469 3.9727,7.0312 1.2188,2.4843 1.8281,4.4297 1.8281,5.8359 z m -19.266,-31.957 c -3e-5,-1.2656 -0.50394,-2.0859 -1.5117,-2.4609 -1.0078,-0.37496 -2.4961,-0.56246 -4.4648,-0.5625 h -4.6758 v 6.2578 h 4.2891 c 2.1094,4e-5 3.6972,-0.1816 4.7637,-0.54492 1.0665,-0.36332 1.5996,-1.2597 1.5996,-2.6894 z"
         inkscape:connector-curvature="0" />
      <path
         style="fill:#f6d5ff;stroke:#672178;stroke-width:3"
         id="path1563"
         d="m 327.14,662.01 c -2.9e-4,8.4815 -6.8761,15.357 -15.358,15.357 -8.4819,0 -15.357,-6.8761 -15.357,-15.358 0,-8.4819 6.8761,-15.357 15.358,-15.357 8.4819,0 15.357,6.8761 15.357,15.358"
         transform="matrix(0.28275,0,0,0.22969,374.63,350.33)"
         inkscape:connector-curvature="0" />
      <path
         style="fill:#f6d5ff;stroke:#672178;stroke-width:2.12109995"
         id="path1565"
         d="m 365,655.93 c -2.1e-4,6.3118 -5.1171,11.428 -11.429,11.428 -6.3119,0 -11.428,-5.1171 -11.428,-11.429 0,-6.3119 5.1171,-11.428 11.429,-11.428 6.3119,0 11.428,5.1171 11.428,11.429"
         transform="matrix(0.39992,0,0,0.32487,332.09,288.15)"
         inkscape:connector-curvature="0" />
      <path
         style="fill:#672178"
         id="path1567"
         d="m 361.79,656.47 c -1.5e-4,4.6352 -3.7579,8.3927 -8.3931,8.3926 -4.6352,-1e-4 -8.3927,-3.7579 -8.3926,-8.3931 10e-5,-4.6352 3.7579,-8.3927 8.3931,-8.3926 4.6352,10e-5 8.3927,3.7579 8.3926,8.3931"
         transform="matrix(0.28275,0,0,0.22969,374.63,350.33)"
         inkscape:connector-curvature="0" />
      <path
         style="fill:#672178"
         id="path1569"
         d="m 323.57,662.72 c -1.6e-4,4.9311 -3.9978,8.9284 -8.9289,8.9283 -4.9311,-10e-5 -8.9284,-3.9978 -8.9283,-8.9289 10e-5,-4.9311 3.9978,-8.9284 8.9289,-8.9283 4.9311,10e-5 8.9284,3.9978 8.9283,8.9289"
         transform="matrix(0.28275,0,0,0.22969,374.63,350.33)"
         inkscape:connector-curvature="0" />
      <path
         style="fill:#441650"
         id="path1571"
         d="m 357.86,655.58 c -8e-5,2.3669 -1.9189,4.2856 -4.2859,4.2856 -2.367,0 -4.2856,-1.9189 -4.2856,-4.2859 0,-2.367 1.9189,-4.2856 4.2858,-4.2856 2.3669,0 4.2856,1.9189 4.2856,4.2859"
         transform="matrix(0.28275,0,0,0.22969,374.63,350.33)"
         inkscape:connector-curvature="0" />
      <path
         style="fill:#441650"
         id="path1573"
         d="m 320,663.26 c -9e-5,2.6628 -2.1588,4.8214 -4.8216,4.8213 -2.6628,-1e-4 -4.8214,-2.1588 -4.8213,-4.8216 10e-5,-2.6628 2.1588,-4.8214 4.8216,-4.8213 2.6628,10e-5 4.8214,2.1588 4.8213,4.8216"
         transform="matrix(0.28275,0,0,0.22969,374.63,350.33)"
         inkscape:connector-curvature="0" />
      <path
         style="fill:#ddafe9"
         id="path1575"
         d="m 357.86,653.43 c -4e-5,1.1835 -0.95946,2.1428 -2.1429,2.1428 -1.18344,0 -2.1428,-0.95946 -2.1428,-2.1429 0,-1.18344 0.95946,-2.1428 2.1429,-2.1428 1.18344,0 2.1428,0.95946 2.1428,2.1429"
         transform="matrix(0.28275,0,0,0.22969,374.63,350.33)"
         inkscape:connector-curvature="0" />
      <path
         style="fill:#ddafe9"
         id="path1577"
         d="m 319.29,659.33 c -4e-5,1.2821 -1.0394,2.3214 -2.3215,2.3214 -1.2821,0 -2.3214,-1.0394 -2.3214,-2.3215 0,-1.2821 1.0394,-2.3214 2.3215,-2.3214 1.2821,0 2.3214,1.0394 2.3214,2.3215"
         transform="matrix(0.28275,0,0,0.22969,374.63,350.33)"
         inkscape:connector-curvature="0" />
      <path
         style="fill:#f6d5ff;stroke:#672178;stroke-width:2.12109995"
         id="path1579"
         d="m 365,655.93 c -2.1e-4,6.3118 -5.1171,11.428 -11.429,11.428 -6.3119,0 -11.428,-5.1171 -11.428,-11.429 0,-6.3119 5.1171,-11.428 11.429,-11.428 6.3119,0 11.428,5.1171 11.428,11.429"
         transform="matrix(0.39992,0,0,0.32487,332.09,288.15)"
         inkscape:connector-curvature="0" />
      <path
         style="fill:#672178"
         id="path1581"
         d="m 361.79,656.47 c -1.5e-4,4.6352 -3.7579,8.3927 -8.3931,8.3926 -4.6352,-1e-4 -8.3927,-3.7579 -8.3926,-8.3931 10e-5,-4.6352 3.7579,-8.3927 8.3931,-8.3926 4.6352,10e-5 8.3927,3.7579 8.3926,8.3931"
         transform="matrix(0.28275,0,0,0.22969,374.63,350.33)"
         inkscape:connector-curvature="0" />
      <path
         style="fill:#672178"
         id="path1583"
         d="m 323.57,662.72 c -1.6e-4,4.9311 -3.9978,8.9284 -8.9289,8.9283 -4.9311,-10e-5 -8.9284,-3.9978 -8.9283,-8.9289 10e-5,-4.9311 3.9978,-8.9284 8.9289,-8.9283 4.9311,10e-5 8.9284,3.9978 8.9283,8.9289"
         transform="matrix(0.28275,0,0,0.22969,374.63,350.33)"
         inkscape:connector-curvature="0" />
      <path
         style="fill:#441650"
         id="path1585"
         d="m 357.86,655.58 c -8e-5,2.3669 -1.9189,4.2856 -4.2859,4.2856 -2.367,0 -4.2856,-1.9189 -4.2856,-4.2859 0,-2.367 1.9189,-4.2856 4.2858,-4.2856 2.3669,0 4.2856,1.9189 4.2856,4.2859"
         transform="matrix(0.28275,0,0,0.22969,374.63,350.33)"
         inkscape:connector-curvature="0" />
      <path
         style="fill:#441650"
         id="path1587"
         d="m 320,663.26 c -9e-5,2.6628 -2.1588,4.8214 -4.8216,4.8213 -2.6628,-1e-4 -4.8214,-2.1588 -4.8213,-4.8216 10e-5,-2.6628 2.1588,-4.8214 4.8216,-4.8213 2.6628,10e-5 4.8214,2.1588 4.8213,4.8216"
         transform="matrix(0.28275,0,0,0.22969,374.63,350.33)"
         inkscape:connector-curvature="0" />
      <path
         style="fill:#ddafe9"
         id="path1589"
         d="m 357.86,653.43 c -4e-5,1.1835 -0.95946,2.1428 -2.1429,2.1428 -1.18344,0 -2.1428,-0.95946 -2.1428,-2.1429 0,-1.18344 0.95946,-2.1428 2.1429,-2.1428 1.18344,0 2.1428,0.95946 2.1428,2.1429"
         transform="matrix(0.28275,0,0,0.22969,374.63,350.33)"
         inkscape:connector-curvature="0" />
      <path
         style="fill:#ddafe9"
         id="path1591"
         d="m 319.29,659.33 c -4e-5,1.2821 -1.0394,2.3214 -2.3215,2.3214 -1.2821,0 -2.3214,-1.0394 -2.3214,-2.3215 0,-1.2821 1.0394,-2.3214 2.3215,-2.3214 1.2821,0 2.3214,1.0394 2.3214,2.3215"
         transform="matrix(0.28275,0,0,0.22969,374.63,350.33)"
         inkscape:connector-curvature="0" />
      <path
         style="fill:#ddafe9"
         id="path1593"
         d="m 205,522.72 c -3.2e-4,9.665 -7.8356,17.5 -17.501,17.499 -9.6654,-0.001 -17.5,-7.8356 -17.499,-17.501 0.001,-9.6654 7.8356,-17.5 17.501,-17.499 9.6654,0.001 17.5,7.8356 17.499,17.501"
         transform="matrix(-0.00366,-0.15576,-0.12653,0.00297,514.22,548.4)"
         inkscape:connector-curvature="0" />
      <path
         style="fill:#ddafe9"
         id="path1595"
         d="m 205,522.72 c -3.2e-4,9.665 -7.8356,17.5 -17.501,17.499 -9.6654,-0.001 -17.5,-7.8356 -17.499,-17.501 0.001,-9.6654 7.8356,-17.5 17.501,-17.499 9.6654,0.001 17.5,7.8356 17.499,17.501"
         transform="matrix(0.15003,0,0,0.12188,425.06,470.25)"
         inkscape:connector-curvature="0" />
      <path
         style="fill:#ddafe9"
         id="path1597"
         d="m 205,522.72 c -3.2e-4,9.665 -7.8356,17.5 -17.501,17.499 -9.6654,-0.001 -17.5,-7.8356 -17.499,-17.501 0.001,-9.6654 7.8356,-17.5 17.501,-17.499 9.6654,0.001 17.5,7.8356 17.499,17.501"
         transform="matrix(0.08656,0,0,0.07031,442.95,459.18)"
         inkscape:connector-curvature="0" />
      <path
         style="fill:#ddafe9"
         id="path1599"
         d="m 205,522.72 c -3.2e-4,9.665 -7.8356,17.5 -17.501,17.499 -9.6654,-0.001 -17.5,-7.8356 -17.499,-17.501 0.001,-9.6654 7.8356,-17.5 17.501,-17.499 9.6654,0.001 17.5,7.8356 17.499,17.501"
         transform="matrix(-0.00366,-0.15576,-0.12653,0.00297,521.89,531.18)"
         inkscape:connector-curvature="0" />
      <path
         style="fill:#ddafe9"
         id="path1601"
         d="m 205,522.72 c -3.2e-4,9.665 -7.8356,17.5 -17.501,17.499 -9.6654,-0.001 -17.5,-7.8356 -17.499,-17.501 0.001,-9.6654 7.8356,-17.5 17.501,-17.499 9.6654,0.001 17.5,7.8356 17.499,17.501"
         transform="matrix(-0.00529,-0.22499,-0.18276,0.0043,547.18,537.11)"
         inkscape:connector-curvature="0" />
      <path
         style="fill:#ddafe9"
         id="path1603"
         d="m 205,522.72 c -3.2e-4,9.665 -7.8356,17.5 -17.501,17.499 -9.6654,-0.001 -17.5,-7.8356 -17.499,-17.501 0.001,-9.6654 7.8356,-17.5 17.501,-17.499 9.6654,0.001 17.5,7.8356 17.499,17.501"
         transform="matrix(-0.00298,-0.12692,-0.1031,0.00242,504.73,528.3)"
         inkscape:connector-curvature="0" />
      <path
         style="fill:#ddafe9"
         id="path1605"
         d="m 205,522.72 c -3.2e-4,9.665 -7.8356,17.5 -17.501,17.499 -9.6654,-0.001 -17.5,-7.8356 -17.499,-17.501 0.001,-9.6654 7.8356,-17.5 17.501,-17.499 9.6654,0.001 17.5,7.8356 17.499,17.501"
         transform="matrix(0.08656,0,0,0.07031,442.95,459.18)"
         inkscape:connector-curvature="0" />
      <path
         style="fill:#ddafe9"
         id="path1607"
         d="m 205,522.72 c -3.2e-4,9.665 -7.8356,17.5 -17.501,17.499 -9.6654,-0.001 -17.5,-7.8356 -17.499,-17.501 0.001,-9.6654 7.8356,-17.5 17.501,-17.499 9.6654,0.001 17.5,7.8356 17.499,17.501"
         transform="matrix(-0.00366,-0.15576,-0.12653,0.00297,521.89,531.18)"
         inkscape:connector-curvature="0" />
      <path
         style="fill:#ddafe9"
         id="path1609"
         d="m 205,522.72 c -3.2e-4,9.665 -7.8356,17.5 -17.501,17.499 -9.6654,-0.001 -17.5,-7.8356 -17.499,-17.501 0.001,-9.6654 7.8356,-17.5 17.501,-17.499 9.6654,0.001 17.5,7.8356 17.499,17.501"
         transform="matrix(-0.00529,-0.22499,-0.18276,0.0043,547.18,537.11)"
         inkscape:connector-curvature="0" />
      <path
         style="fill:#ddafe9"
         id="path1611"
         d="m 205,522.72 c -3.2e-4,9.665 -7.8356,17.5 -17.501,17.499 -9.6654,-0.001 -17.5,-7.8356 -17.499,-17.501 0.001,-9.6654 7.8356,-17.5 17.501,-17.499 9.6654,0.001 17.5,7.8356 17.499,17.501"
         transform="matrix(-0.00298,-0.12692,-0.1031,0.00242,504.73,528.3)"
         inkscape:connector-curvature="0" />
      <path
         style="fill:#ddafe9"
         id="path1613"
         d="m 205,522.72 c -3.2e-4,9.665 -7.8356,17.5 -17.501,17.499 -9.6654,-0.001 -17.5,-7.8356 -17.499,-17.501 0.001,-9.6654 7.8356,-17.5 17.501,-17.499 9.6654,0.001 17.5,7.8356 17.499,17.501"
         transform="matrix(-0.00366,-0.15576,-0.12653,0.00297,523.75,552.97)"
         inkscape:connector-curvature="0" />
      <path
         style="fill:#ddafe9"
         id="path1615"
         d="m 205,522.72 c -3.2e-4,9.665 -7.8356,17.5 -17.501,17.499 -9.6654,-0.001 -17.5,-7.8356 -17.499,-17.501 0.001,-9.6654 7.8356,-17.5 17.501,-17.499 9.6654,0.001 17.5,7.8356 17.499,17.501"
         transform="matrix(-0.00529,-0.22499,-0.18276,0.0043,573.03,559.91)"
         inkscape:connector-curvature="0" />
      <path
         style="fill:#ddafe9"
         id="path1617"
         d="m 205,522.72 c -3.2e-4,9.665 -7.8356,17.5 -17.501,17.499 -9.6654,-0.001 -17.5,-7.8356 -17.499,-17.501 0.001,-9.6654 7.8356,-17.5 17.501,-17.499 9.6654,0.001 17.5,7.8356 17.499,17.501"
         transform="matrix(-0.00298,-0.12692,-0.1031,0.00242,506.59,550.08)"
         inkscape:connector-curvature="0" />
      <path
         style="fill:#ddafe9"
         id="path1619"
         d="m 205,522.72 c -3.2e-4,9.665 -7.8356,17.5 -17.501,17.499 -9.6654,-0.001 -17.5,-7.8356 -17.499,-17.501 0.001,-9.6654 7.8356,-17.5 17.501,-17.499 9.6654,0.001 17.5,7.8356 17.499,17.501"
         transform="matrix(-0.00285,-0.12115,-0.09841,0.00231,504.81,533.18)"
         inkscape:connector-curvature="0" />
      <path
         style="fill:#ddafe9"
         id="path1621"
         d="m 205,522.72 c -3.2e-4,9.665 -7.8356,17.5 -17.501,17.499 -9.6654,-0.001 -17.5,-7.8356 -17.499,-17.501 0.001,-9.6654 7.8356,-17.5 17.501,-17.499 9.6654,0.001 17.5,7.8356 17.499,17.501"
         transform="matrix(-0.00366,-0.15576,-0.12653,0.00297,523.75,552.97)"
         inkscape:connector-curvature="0" />
      <path
         style="fill:#ddafe9"
         id="path1623"
         d="m 205,522.72 c -3.2e-4,9.665 -7.8356,17.5 -17.501,17.499 -9.6654,-0.001 -17.5,-7.8356 -17.499,-17.501 0.001,-9.6654 7.8356,-17.5 17.501,-17.499 9.6654,0.001 17.5,7.8356 17.499,17.501"
         transform="matrix(-0.00529,-0.22499,-0.18276,0.0043,557.37,554.35)"
         inkscape:connector-curvature="0" />
      <path
         style="fill:#ddafe9"
         id="path1625"
         d="m 205,522.72 c -3.2e-4,9.665 -7.8356,17.5 -17.501,17.499 -9.6654,-0.001 -17.5,-7.8356 -17.499,-17.501 0.001,-9.6654 7.8356,-17.5 17.501,-17.499 9.6654,0.001 17.5,7.8356 17.499,17.501"
         transform="matrix(-0.00298,-0.12692,-0.1031,0.00242,507.85,540.23)"
         inkscape:connector-curvature="0" />
      <path
         style="fill:#ddafe9"
         id="path1627"
         d="m 205,522.72 c -3.2e-4,9.665 -7.8356,17.5 -17.501,17.499 -9.6654,-0.001 -17.5,-7.8356 -17.499,-17.501 0.001,-9.6654 7.8356,-17.5 17.501,-17.499 9.6654,0.001 17.5,7.8356 17.499,17.501"
         transform="matrix(-0.00285,-0.12115,-0.09841,0.00231,504.81,533.18)"
         inkscape:connector-curvature="0" />
      <path
         style="fill:#ddafe9"
         id="path1629"
         d="m 205,522.72 c -3.2e-4,9.665 -7.8356,17.5 -17.501,17.499 -9.6654,-0.001 -17.5,-7.8356 -17.499,-17.501 0.001,-9.6654 7.8356,-17.5 17.501,-17.499 9.6654,0.001 17.5,7.8356 17.499,17.501"
         transform="matrix(0.08656,0,0,0.07031,439.02,454.54)"
         inkscape:connector-curvature="0" />
      <path
         style="fill:#ddafe9"
         id="path1631"
         d="m 205,522.72 c -3.2e-4,9.665 -7.8356,17.5 -17.501,17.499 -9.6654,-0.001 -17.5,-7.8356 -17.499,-17.501 0.001,-9.6654 7.8356,-17.5 17.501,-17.499 9.6654,0.001 17.5,7.8356 17.499,17.501"
         transform="matrix(0.08656,0,0,0.07031,443.01,451.78)"
         inkscape:connector-curvature="0" />
      <path
         style="fill:#ddafe9"
         id="path1633"
         d="m 205,522.72 c -3.2e-4,9.665 -7.8356,17.5 -17.501,17.499 -9.6654,-0.001 -17.5,-7.8356 -17.499,-17.501 0.001,-9.6654 7.8356,-17.5 17.501,-17.499 9.6654,0.001 17.5,7.8356 17.499,17.501"
         transform="matrix(-0.00366,-0.15576,-0.12653,0.00297,540.64,519.74)"
         inkscape:connector-curvature="0" />
      <path
         style="fill:#ddafe9"
         id="path1635"
         d="m 205,522.72 c -3.2e-4,9.665 -7.8356,17.5 -17.501,17.499 -9.6654,-0.001 -17.5,-7.8356 -17.499,-17.501 0.001,-9.6654 7.8356,-17.5 17.501,-17.499 9.6654,0.001 17.5,7.8356 17.499,17.501"
         transform="matrix(-0.00529,-0.22499,-0.18276,0.0043,582.08,577.19)"
         inkscape:connector-curvature="0" />
      <path
         style="fill:#ddafe9"
         id="path1637"
         d="m 205,522.72 c -3.2e-4,9.665 -7.8356,17.5 -17.501,17.499 -9.6654,-0.001 -17.5,-7.8356 -17.499,-17.501 0.001,-9.6654 7.8356,-17.5 17.501,-17.499 9.6654,0.001 17.5,7.8356 17.499,17.501"
         transform="matrix(-0.00298,-0.12692,-0.1031,0.00242,533.83,517.87)"
         inkscape:connector-curvature="0" />
      <path
         style="fill:#ddafe9"
         id="path1639"
         d="m 205,522.72 c -3.2e-4,9.665 -7.8356,17.5 -17.501,17.499 -9.6654,-0.001 -17.5,-7.8356 -17.499,-17.501 0.001,-9.6654 7.8356,-17.5 17.501,-17.499 9.6654,0.001 17.5,7.8356 17.499,17.501"
         transform="matrix(-0.00298,-0.12692,-0.1031,0.00242,544.52,526.1)"
         inkscape:connector-curvature="0" />
      <path
         style="fill:#ddafe9"
         id="path1641"
         d="m 205,522.72 c -3.2e-4,9.665 -7.8356,17.5 -17.501,17.499 -9.6654,-0.001 -17.5,-7.8356 -17.499,-17.501 0.001,-9.6654 7.8356,-17.5 17.501,-17.499 9.6654,0.001 17.5,7.8356 17.499,17.501"
         transform="matrix(0.08656,0,0,0.07031,459.93,450.52)"
         inkscape:connector-curvature="0" />
      <path
         style="fill:#ddafe9"
         id="path1643"
         d="m 205,522.72 c -3.2e-4,9.665 -7.8356,17.5 -17.501,17.499 -9.6654,-0.001 -17.5,-7.8356 -17.499,-17.501 0.001,-9.6654 7.8356,-17.5 17.501,-17.499 9.6654,0.001 17.5,7.8356 17.499,17.501"
         transform="matrix(-0.00529,-0.22499,-0.18276,0.0043,562.89,529.71)"
         inkscape:connector-curvature="0" />
      <path
         style="fill:#ddafe9"
         id="path1645"
         d="m 205,522.72 c -3.2e-4,9.665 -7.8356,17.5 -17.501,17.499 -9.6654,-0.001 -17.5,-7.8356 -17.499,-17.501 0.001,-9.6654 7.8356,-17.5 17.501,-17.499 9.6654,0.001 17.5,7.8356 17.499,17.501"
         transform="matrix(-0.00298,-0.12692,-0.1031,0.00242,533.83,517.87)"
         inkscape:connector-curvature="0" />
      <path
         style="fill:#ddafe9"
         id="path1647"
         d="m 205,522.72 c -3.2e-4,9.665 -7.8356,17.5 -17.501,17.499 -9.6654,-0.001 -17.5,-7.8356 -17.499,-17.501 0.001,-9.6654 7.8356,-17.5 17.501,-17.499 9.6654,0.001 17.5,7.8356 17.499,17.501"
         transform="matrix(-0.00298,-0.12692,-0.1031,0.00242,544.52,526.1)"
         inkscape:connector-curvature="0" />
      <path
         style="fill:#ddafe9"
         id="path1649"
         d="m 205,522.72 c -3.2e-4,9.665 -7.8356,17.5 -17.501,17.499 -9.6654,-0.001 -17.5,-7.8356 -17.499,-17.501 0.001,-9.6654 7.8356,-17.5 17.501,-17.499 9.6654,0.001 17.5,7.8356 17.499,17.501"
         transform="matrix(0.12118,0,0,0.09844,463.12,476.88)"
         inkscape:connector-curvature="0" />
      <path
         style="fill:#ddafe9"
         id="path1651"
         d="m 205,522.72 c -3.2e-4,9.665 -7.8356,17.5 -17.501,17.499 -9.6654,-0.001 -17.5,-7.8356 -17.499,-17.501 0.001,-9.6654 7.8356,-17.5 17.501,-17.499 9.6654,0.001 17.5,7.8356 17.499,17.501"
         transform="matrix(-0.00529,-0.22499,-0.18276,0.0043,580.37,531.33)"
         inkscape:connector-curvature="0" />
      <path
         style="fill:#ddafe9"
         id="path1653"
         d="m 205,522.72 c -3.2e-4,9.665 -7.8356,17.5 -17.501,17.499 -9.6654,-0.001 -17.5,-7.8356 -17.499,-17.501 0.001,-9.6654 7.8356,-17.5 17.501,-17.499 9.6654,0.001 17.5,7.8356 17.499,17.501"
         transform="matrix(-0.00298,-0.12692,-0.1031,0.00242,537.17,542.47)"
         inkscape:connector-curvature="0" />
      <path
         style="fill:#ddafe9"
         id="path1655"
         d="m 205,522.72 c -3.2e-4,9.665 -7.8356,17.5 -17.501,17.499 -9.6654,-0.001 -17.5,-7.8356 -17.499,-17.501 0.001,-9.6654 7.8356,-17.5 17.501,-17.499 9.6654,0.001 17.5,7.8356 17.499,17.501"
         transform="matrix(-0.00366,-0.15576,-0.12653,0.00297,542.97,557.48)"
         inkscape:connector-curvature="0" />
      <path
         style="fill:#ddafe9"
         id="path1657"
         d="m 205,522.72 c -3.2e-4,9.665 -7.8356,17.5 -17.501,17.499 -9.6654,-0.001 -17.5,-7.8356 -17.499,-17.501 0.001,-9.6654 7.8356,-17.5 17.501,-17.499 9.6654,0.001 17.5,7.8356 17.499,17.501"
         transform="matrix(-0.00529,-0.22499,-0.18276,0.0043,565.98,551.79)"
         inkscape:connector-curvature="0" />
      <path
         style="fill:#ddafe9"
         id="path1659"
         d="m 205,522.72 c -3.2e-4,9.665 -7.8356,17.5 -17.501,17.499 -9.6654,-0.001 -17.5,-7.8356 -17.499,-17.501 0.001,-9.6654 7.8356,-17.5 17.501,-17.499 9.6654,0.001 17.5,7.8356 17.499,17.501"
         transform="matrix(-0.00298,-0.12692,-0.1031,0.00242,524.29,541.96)"
         inkscape:connector-curvature="0" />
      <path
         style="fill:#ddafe9"
         id="path1661"
         d="m 205,522.72 c -3.2e-4,9.665 -7.8356,17.5 -17.501,17.499 -9.6654,-0.001 -17.5,-7.8356 -17.499,-17.501 0.001,-9.6654 7.8356,-17.5 17.501,-17.499 9.6654,0.001 17.5,7.8356 17.499,17.501"
         transform="matrix(0.08656,0,0,0.07031,464.9,490.43)"
         inkscape:connector-curvature="0" />
      <path
         style="fill:#ddafe9"
         id="path1663"
         d="m 205,522.72 c -3.2e-4,9.665 -7.8356,17.5 -17.501,17.499 -9.6654,-0.001 -17.5,-7.8356 -17.499,-17.501 0.001,-9.6654 7.8356,-17.5 17.501,-17.499 9.6654,0.001 17.5,7.8356 17.499,17.501"
         transform="matrix(0.08656,0,0,0.07031,461.96,471.43)"
         inkscape:connector-curvature="0" />
      <path
         style="fill:#ddafe9"
         id="path1665"
         d="m 205,522.72 c -3.2e-4,9.665 -7.8356,17.5 -17.501,17.499 -9.6654,-0.001 -17.5,-7.8356 -17.499,-17.501 0.001,-9.6654 7.8356,-17.5 17.501,-17.499 9.6654,0.001 17.5,7.8356 17.499,17.501"
         transform="matrix(0.08656,0,0,0.07031,463.22,498.95)"
         inkscape:connector-curvature="0" />
      <path
         style="fill:#ddafe9"
         id="path1667"
         d="m 205,522.72 c -3.2e-4,9.665 -7.8356,17.5 -17.501,17.499 -9.6654,-0.001 -17.5,-7.8356 -17.499,-17.501 0.001,-9.6654 7.8356,-17.5 17.501,-17.499 9.6654,0.001 17.5,7.8356 17.499,17.501"
         transform="matrix(-0.00366,-0.15576,-0.12653,0.00297,551.81,528.13)"
         inkscape:connector-curvature="0" />
      <path
         style="fill:#ddafe9"
         id="path1669"
         d="m 205,522.72 c -3.2e-4,9.665 -7.8356,17.5 -17.501,17.499 -9.6654,-0.001 -17.5,-7.8356 -17.499,-17.501 0.001,-9.6654 7.8356,-17.5 17.501,-17.499 9.6654,0.001 17.5,7.8356 17.499,17.501"
         transform="matrix(-0.00298,-0.12692,-0.1031,0.00242,532.63,536.1)"
         inkscape:connector-curvature="0" />
      <path
         style="fill:#ddafe9"
         id="path1671"
         d="m 205,522.72 c -3.2e-4,9.665 -7.8356,17.5 -17.501,17.499 -9.6654,-0.001 -17.5,-7.8356 -17.499,-17.501 0.001,-9.6654 7.8356,-17.5 17.501,-17.499 9.6654,0.001 17.5,7.8356 17.499,17.501"
         transform="matrix(-0.00366,-0.15576,-0.12653,0.00297,550.3,536.71)"
         inkscape:connector-curvature="0" />
      <path
         style="fill:#ddafe9"
         id="path1673"
         d="m 205,522.72 c -3.2e-4,9.665 -7.8356,17.5 -17.501,17.499 -9.6654,-0.001 -17.5,-7.8356 -17.499,-17.501 0.001,-9.6654 7.8356,-17.5 17.501,-17.499 9.6654,0.001 17.5,7.8356 17.499,17.501"
         transform="matrix(-0.00298,-0.12692,-0.1031,0.00242,506.11,510.59)"
         inkscape:connector-curvature="0" />
    </g>
  </g>
</svg>
