<?xml version="1.0" encoding="UTF-8" standalone="no"?>
<svg
   xmlns:dc="http://purl.org/dc/elements/1.1/"
   xmlns:cc="http://creativecommons.org/ns#"
   xmlns:rdf="http://www.w3.org/1999/02/22-rdf-syntax-ns#"
   xmlns:svg="http://www.w3.org/2000/svg"
   xmlns="http://www.w3.org/2000/svg"
   xmlns:sodipodi="http://sodipodi.sourceforge.net/DTD/sodipodi-0.dtd"
   xmlns:inkscape="http://www.inkscape.org/namespaces/inkscape"
   viewBox="0 0 69.999999 70"
   version="1.1"
   id="svg1749"
   sodipodi:docname="T.svg"
   inkscape:version="0.92.3 (2405546, 2018-03-11)"
   width="70"
   height="70">
  <metadata
     id="metadata1753">
    <rdf:RDF>
      <cc:Work
         rdf:about="">
        <dc:format>image/svg+xml</dc:format>
        <dc:type
           rdf:resource="http://purl.org/dc/dcmitype/StillImage" />
        <dc:title></dc:title>
        <dc:title></dc:title>
      </cc:Work>
    </rdf:RDF>
  </metadata>
  <sodipodi:namedview
     pagecolor="#ffffff"
     bordercolor="#666666"
     borderopacity="1"
     objecttolerance="10"
     gridtolerance="10"
     guidetolerance="10"
     inkscape:pageopacity="0"
     inkscape:pageshadow="2"
     inkscape:window-width="1920"
     inkscape:window-height="1052"
     id="namedview1751"
     showgrid="false"
     inkscape:zoom="4.4779145"
     inkscape:cx="22.30818"
     inkscape:cy="50.256837"
     inkscape:window-x="0"
     inkscape:window-y="360"
     inkscape:window-maximized="1"
     inkscape:current-layer="g1425" />
  <defs
     id="defs5">
    <filter
       id="a"
       x="-0.46415001"
       y="-0.46415001"
       width="1.9283"
       height="1.9283">
      <feGaussianBlur
         stdDeviation="3.0281"
         id="feGaussianBlur2" />
    </filter>
    <filter
       height="1.9283"
       width="1.9283"
       y="-0.46415001"
       x="-0.46415001"
       id="a-4">
      <feGaussianBlur
         id="feGaussianBlur2-6"
         stdDeviation="3.0281" />
    </filter>
    <filter
       height="1.9283"
       width="1.9283"
       y="-0.46415001"
       x="-0.46415001"
       id="filter11866">
      <feGaussianBlur
         id="feGaussianBlur11864"
         stdDeviation="3.0281" />
    </filter>
    <filter
       height="1.9283"
       width="1.9283"
       y="-0.46415001"
       x="-0.46415001"
       id="filter11870">
      <feGaussianBlur
         id="feGaussianBlur11868"
         stdDeviation="3.0281" />
    </filter>
    <filter
       height="1.9283"
       width="1.9283"
       y="-0.46415001"
       x="-0.46415001"
       id="filter11874">
      <feGaussianBlur
         id="feGaussianBlur11872"
         stdDeviation="3.0281" />
    </filter>
    <filter
       height="1.9283"
       width="1.9283"
       y="-0.46415001"
       x="-0.46415001"
       id="filter11878">
      <feGaussianBlur
         id="feGaussianBlur11876"
         stdDeviation="3.0281" />
    </filter>
    <filter
       height="1.9283"
       width="1.9283"
       y="-0.46415001"
       x="-0.46415001"
       id="filter11882">
      <feGaussianBlur
         id="feGaussianBlur11880"
         stdDeviation="3.0281" />
    </filter>
    <filter
       height="1.9283"
       width="1.9283"
       y="-0.46415001"
       x="-0.46415001"
       id="filter11886">
      <feGaussianBlur
         id="feGaussianBlur11884"
         stdDeviation="3.0281" />
    </filter>
    <filter
       height="1.9283"
       width="1.9283"
       y="-0.46415001"
       x="-0.46415001"
       id="filter11890">
      <feGaussianBlur
         id="feGaussianBlur11888"
         stdDeviation="3.0281" />
    </filter>
    <filter
       height="1.9283"
       width="1.9283"
       y="-0.46415001"
       x="-0.46415001"
       id="filter11894">
      <feGaussianBlur
         id="feGaussianBlur11892"
         stdDeviation="3.0281" />
    </filter>
    <filter
       height="1.9283"
       width="1.9283"
       y="-0.46415001"
       x="-0.46415001"
       id="filter11898">
      <feGaussianBlur
         id="feGaussianBlur11896"
         stdDeviation="3.0281" />
    </filter>
    <filter
       height="1.9283"
       width="1.9283"
       y="-0.46415001"
       x="-0.46415001"
       id="filter11902">
      <feGaussianBlur
         id="feGaussianBlur11900"
         stdDeviation="3.0281" />
    </filter>
    <filter
       height="1.9283"
       width="1.9283"
       y="-0.46415001"
       x="-0.46415001"
       id="a-1">
      <feGaussianBlur
         id="feGaussianBlur2-5"
         stdDeviation="3.0281" />
    </filter>
    <filter
       height="1.9283"
       width="1.9283"
       y="-0.46415001"
       x="-0.46415001"
       id="filter13363">
      <feGaussianBlur
         id="feGaussianBlur13361"
         stdDeviation="3.0281" />
    </filter>
    <filter
       height="1.9283"
       width="1.9283"
       y="-0.46415001"
       x="-0.46415001"
       id="filter13367">
      <feGaussianBlur
         id="feGaussianBlur13365"
         stdDeviation="3.0281" />
    </filter>
    <filter
       height="1.9283"
       width="1.9283"
       y="-0.46415001"
       x="-0.46415001"
       id="filter13371">
      <feGaussianBlur
         id="feGaussianBlur13369"
         stdDeviation="3.0281" />
    </filter>
    <filter
       height="1.9283"
       width="1.9283"
       y="-0.46415001"
       x="-0.46415001"
       id="filter13375">
      <feGaussianBlur
         id="feGaussianBlur13373"
         stdDeviation="3.0281" />
    </filter>
    <filter
       height="1.9283"
       width="1.9283"
       y="-0.46415001"
       x="-0.46415001"
       id="filter13379">
      <feGaussianBlur
         id="feGaussianBlur13377"
         stdDeviation="3.0281" />
    </filter>
    <filter
       height="1.9283"
       width="1.9283"
       y="-0.46415001"
       x="-0.46415001"
       id="filter13383">
      <feGaussianBlur
         id="feGaussianBlur13381"
         stdDeviation="3.0281" />
    </filter>
    <filter
       height="1.9283"
       width="1.9283"
       y="-0.46415001"
       x="-0.46415001"
       id="filter13387">
      <feGaussianBlur
         id="feGaussianBlur13385"
         stdDeviation="3.0281" />
    </filter>
    <filter
       height="1.9283"
       width="1.9283"
       y="-0.46415001"
       x="-0.46415001"
       id="filter13391">
      <feGaussianBlur
         id="feGaussianBlur13389"
         stdDeviation="3.0281" />
    </filter>
    <filter
       height="1.9283"
       width="1.9283"
       y="-0.46415001"
       x="-0.46415001"
       id="filter13395">
      <feGaussianBlur
         id="feGaussianBlur13393"
         stdDeviation="3.0281" />
    </filter>
    <filter
       height="1.9283"
       width="1.9283"
       y="-0.46415001"
       x="-0.46415001"
       id="filter13399">
      <feGaussianBlur
         id="feGaussianBlur13397"
         stdDeviation="3.0281" />
    </filter>
    <filter
       height="1.9283"
       width="1.9283"
       y="-0.46415001"
       x="-0.46415001"
       id="filter13403">
      <feGaussianBlur
         id="feGaussianBlur13401"
         stdDeviation="3.0281" />
    </filter>
    <filter
       height="1.9283"
       width="1.9283"
       y="-0.46415001"
       x="-0.46415001"
       id="filter13407">
      <feGaussianBlur
         id="feGaussianBlur13405"
         stdDeviation="3.0281" />
    </filter>
    <filter
       height="1.9283"
       width="1.9283"
       y="-0.46415001"
       x="-0.46415001"
       id="filter13411">
      <feGaussianBlur
         id="feGaussianBlur13409"
         stdDeviation="3.0281" />
    </filter>
    <filter
       height="1.9283"
       width="1.9283"
       y="-0.46415001"
       x="-0.46415001"
       id="filter13415">
      <feGaussianBlur
         id="feGaussianBlur13413"
         stdDeviation="3.0281" />
    </filter>
    <filter
       height="1.9283"
       width="1.9283"
       y="-0.46415001"
       x="-0.46415001"
       id="filter13419">
      <feGaussianBlur
         id="feGaussianBlur13417"
         stdDeviation="3.0281" />
    </filter>
    <filter
       height="1.9283"
       width="1.9283"
       y="-0.46415001"
       x="-0.46415001"
       id="filter13423">
      <feGaussianBlur
         id="feGaussianBlur13421"
         stdDeviation="3.0281" />
    </filter>
    <filter
       height="1.9283"
       width="1.9283"
       y="-0.46415001"
       x="-0.46415001"
       id="filter13427">
      <feGaussianBlur
         id="feGaussianBlur13425"
         stdDeviation="3.0281" />
    </filter>
    <filter
       height="1.9283"
       width="1.9283"
       y="-0.46415001"
       x="-0.46415001"
       id="filter13431">
      <feGaussianBlur
         id="feGaussianBlur13429"
         stdDeviation="3.0281" />
    </filter>
    <filter
       height="1.9283"
       width="1.9283"
       y="-0.46415001"
       x="-0.46415001"
       id="filter13435">
      <feGaussianBlur
         id="feGaussianBlur13433"
         stdDeviation="3.0281" />
    </filter>
    <filter
       height="1.9283"
       width="1.9283"
       y="-0.46415001"
       x="-0.46415001"
       id="filter13439">
      <feGaussianBlur
         id="feGaussianBlur13437"
         stdDeviation="3.0281" />
    </filter>
    <filter
       height="1.9283"
       width="1.9283"
       y="-0.46415001"
       x="-0.46415001"
       id="filter13443">
      <feGaussianBlur
         id="feGaussianBlur13441"
         stdDeviation="3.0281" />
    </filter>
    <filter
       height="1.9283"
       width="1.9283"
       y="-0.46415001"
       x="-0.46415001"
       id="filter13447">
      <feGaussianBlur
         id="feGaussianBlur13445"
         stdDeviation="3.0281" />
    </filter>
    <filter
       height="1.9283"
       width="1.9283"
       y="-0.46415001"
       x="-0.46415001"
       id="filter13451">
      <feGaussianBlur
         id="feGaussianBlur13449"
         stdDeviation="3.0281" />
    </filter>
    <filter
       height="1.9283"
       width="1.9283"
       y="-0.46415001"
       x="-0.46415001"
       id="filter13455">
      <feGaussianBlur
         id="feGaussianBlur13453"
         stdDeviation="3.0281" />
    </filter>
    <filter
       height="1.9283"
       width="1.9283"
       y="-0.46415001"
       x="-0.46415001"
       id="filter13459">
      <feGaussianBlur
         id="feGaussianBlur13457"
         stdDeviation="3.0281" />
    </filter>
    <filter
       height="1.9283"
       width="1.9283"
       y="-0.46415001"
       x="-0.46415001"
       id="filter13463">
      <feGaussianBlur
         id="feGaussianBlur13461"
         stdDeviation="3.0281" />
    </filter>
    <filter
       height="1.9283"
       width="1.9283"
       y="-0.46415001"
       x="-0.46415001"
       id="filter13467">
      <feGaussianBlur
         id="feGaussianBlur13465"
         stdDeviation="3.0281" />
    </filter>
    <filter
       height="1.9283"
       width="1.9283"
       y="-0.46415001"
       x="-0.46415001"
       id="filter13471">
      <feGaussianBlur
         id="feGaussianBlur13469"
         stdDeviation="3.0281" />
    </filter>
    <filter
       height="1.9283"
       width="1.9283"
       y="-0.46415001"
       x="-0.46415001"
       id="filter13475">
      <feGaussianBlur
         id="feGaussianBlur13473"
         stdDeviation="3.0281" />
    </filter>
  </defs>
  <g
     id="g1425"
     transform="translate(-485.43934,-247.68893)">
    <g
       id="g1157"
       transform="translate(-66.471,-224.05233)">
      <path
         style="fill:#ff5555;stroke:#c83737"
         id="path1131"
         d="m 612.44,487.18 c 0,2.2969 -0.8438,4.2891 -2.5312,5.9766 -0.9142,0.9141 -2.045,1.5293 -3.3926,1.8457 -1.3476,0.3164 -3.3106,0.47465 -5.8887,0.47461 h -4.9219 v 27.844 c 0,3.1172 -0.1699,5.4551 -0.5097,7.0137 -0.3398,1.5586 -1.0255,2.8535 -2.0567,3.8848 -1.9688,1.9688 -4.2539,2.9531 -6.8554,2.9531 -1.2188,0 -2.4317,-0.25195 -3.6387,-0.75586 -1.207,-0.50391 -2.2911,-1.2129 -3.252,-2.127 -1.0078,-1.0312 -1.6933,-2.373 -2.0566,-4.0254 -0.3633,-1.6524 -0.5449,-3.9668 -0.5449,-6.9434 v -27.844 h -4.8164 c -1.5938,4e-5 -2.9707,-0.0703 -4.1309,-0.21094 -1.1602,-0.14064 -2.127,-0.36324 -2.9004,-0.66797 -0.7734,-0.30473 -1.4766,-0.76167 -2.1094,-1.3711 -1.7812,-1.7343 -2.6718,-3.7265 -2.6718,-5.9766 0,-2.2968 0.7851,-4.2656 2.3554,-5.9062 0.8438,-0.93745 1.9512,-1.5644 3.3223,-1.8809 1.3711,-0.3165 3.416,-0.47456 6.1348,-0.47461 h 28.652 c 2.5547,5e-5 4.5117,0.16412 5.8711,0.49218 1.3594,0.32806 2.4492,0.9024 3.2695,1.7227 1.7812,1.7813 2.6719,3.7735 2.6719,5.9766 z"
         inkscape:connector-curvature="0" />
      <path
         style="fill:#ffd5d5;stroke:#a02c2c;stroke-width:3"
         id="path1133"
         d="m 356.43,979.51 c -2.8e-4,8.2843 -6.7162,15 -15,15 -8.2838,0 -15,-6.7162 -15,-15 0,-8.2838 6.7162,-15 15,-15 8.2838,0 15,6.7162 15,15"
         transform="matrix(0.23059,0,0,0.18731,503.37,296.26)"
         inkscape:connector-curvature="0" />
      <path
         style="fill:#782121"
         id="path1135"
         d="m 355.71,985.93 c -1.4e-4,4.3394 -3.518,7.857 -7.8574,7.8569 -4.3394,-10e-5 -7.857,-3.518 -7.8569,-7.8574 10e-5,-4.3394 3.518,-7.857 7.8574,-7.8569 4.3394,1e-4 7.857,3.518 7.8569,7.8574"
         transform="matrix(0.23777,0,0,0.19315,498.48,289.58)"
         inkscape:connector-curvature="0" />
      <path
         style="fill:#280b0b"
         id="path1137"
         d="m 355.71,985.93 c -1.4e-4,4.3394 -3.518,7.857 -7.8574,7.8569 -4.3394,-10e-5 -7.857,-3.518 -7.8569,-7.8574 10e-5,-4.3394 3.518,-7.857 7.8574,-7.8569 4.3394,1e-4 7.857,3.518 7.8569,7.8574"
         transform="matrix(0.11348,0,0,0.09218,541.72,389.13)"
         inkscape:connector-curvature="0" />
      <path
         style="fill:#ffd5d5;stroke:#a02c2c;stroke-width:3"
         id="path1139"
         d="m 356.43,979.51 c -2.8e-4,8.2843 -6.7162,15 -15,15 -8.2838,0 -15,-6.7162 -15,-15 0,-8.2838 6.7162,-15 15,-15 8.2838,0 15,6.7162 15,15"
         transform="matrix(0.27051,0,0,0.21975,497.26,263.62)"
         inkscape:connector-curvature="0" />
      <path
         style="fill:#782121"
         id="path1141"
         d="m 355.71,985.93 c -1.4e-4,4.3394 -3.518,7.857 -7.8574,7.8569 -4.3394,-10e-5 -7.857,-3.518 -7.8569,-7.8574 10e-5,-4.3394 3.518,-7.857 7.8574,-7.8569 4.3394,1e-4 7.857,3.518 7.8569,7.8574"
         transform="matrix(0.28275,0,0,0.22969,492.07,252.82)"
         inkscape:connector-curvature="0" />
      <path
         style="fill:#280b0b"
         id="path1143"
         d="m 355.71,985.93 c -1.4e-4,4.3394 -3.518,7.857 -7.8574,7.8569 -4.3394,-10e-5 -7.857,-3.518 -7.8569,-7.8574 10e-5,-4.3394 3.518,-7.857 7.8574,-7.8569 4.3394,1e-4 7.857,3.518 7.8569,7.8574"
         transform="matrix(0.13495,0,0,0.10963,543.49,371.19)"
         inkscape:connector-curvature="0" />
      <path
         style="fill:none;stroke:#501616;stroke-width:0.76454002"
         id="path1145"
         d="m 582.8,487.09 c 0,0 3.5246,2.7253 6.0238,2.6082 2.4992,-0.1171 4.7622,-3.5378 4.7622,-3.5378 l 0.3495,-0.16222"
         inkscape:connector-curvature="0" />
      <path
         style="fill:none;stroke:#c83737;stroke-width:0.76454002"
         id="path1147"
         d="m 596.01,518.45 c 0,0 -6.261,0.65626 -8.6846,0.16406 -2.4236,-0.4922 -3.4334,-1.1484 -3.4334,-1.1484"
         inkscape:connector-curvature="0" />
      <path
         style="fill:none;stroke:#c83737;stroke-width:0.76454002"
         id="path1149"
         d="m 595.21,522.88 c 0,0 -6.6649,0.98438 -8.8866,0.49219 -2.2217,-0.49219 -3.2315,-1.3125 -3.2315,-1.3125"
         inkscape:connector-curvature="0" />
      <path
         style="fill:none;stroke:#c83737;stroke-width:0.76454002"
         id="path1151"
         d="m 594.55,527.96 c 0,0 -7.0689,1.1484 -9.0885,0.49219 -2.0196,-0.65621 -2.4236,-1.1485 -2.4236,-1.1485"
         inkscape:connector-curvature="0" />
      <path
         style="fill:none;stroke:#c83737;stroke-width:0.76454002"
         id="path1153"
         d="m 593.29,533.05 c 0,0 -5.0492,1.3125 -6.8669,1.1485 -1.8177,-0.164 -4.4433,-2.1328 -4.4433,-2.1328"
         inkscape:connector-curvature="0" />
      <path
         style="fill:none;stroke:#c83737;stroke-width:0.76454002"
         id="path1155"
         d="m 595.81,513.03 c 0,0 -6.463,1.6406 -8.4826,1.6406 -2.0196,0 -3.8374,-1.6406 -3.8374,-1.6406"
         inkscape:connector-curvature="0" />
    </g>
  </g>
</svg>
