<?xml version="1.0" encoding="UTF-8" standalone="no"?>
<svg
   xmlns:dc="http://purl.org/dc/elements/1.1/"
   xmlns:cc="http://creativecommons.org/ns#"
   xmlns:rdf="http://www.w3.org/1999/02/22-rdf-syntax-ns#"
   xmlns:svg="http://www.w3.org/2000/svg"
   xmlns="http://www.w3.org/2000/svg"
   xmlns:sodipodi="http://sodipodi.sourceforge.net/DTD/sodipodi-0.dtd"
   xmlns:inkscape="http://www.inkscape.org/namespaces/inkscape"
   viewBox="0 0 69.999999 70"
   version="1.1"
   id="svg1749"
   sodipodi:docname="U.svg"
   inkscape:version="0.92.3 (2405546, 2018-03-11)"
   width="70"
   height="70">
  <metadata
     id="metadata1753">
    <rdf:RDF>
      <cc:Work
         rdf:about="">
        <dc:format>image/svg+xml</dc:format>
        <dc:type
           rdf:resource="http://purl.org/dc/dcmitype/StillImage" />
        <dc:title></dc:title>
        <dc:title></dc:title>
      </cc:Work>
    </rdf:RDF>
  </metadata>
  <sodipodi:namedview
     pagecolor="#ffffff"
     bordercolor="#666666"
     borderopacity="1"
     objecttolerance="10"
     gridtolerance="10"
     guidetolerance="10"
     inkscape:pageopacity="0"
     inkscape:pageshadow="2"
     inkscape:window-width="1920"
     inkscape:window-height="1052"
     id="namedview1751"
     showgrid="false"
     inkscape:zoom="4.4779145"
     inkscape:cx="22.30818"
     inkscape:cy="50.256837"
     inkscape:window-x="0"
     inkscape:window-y="360"
     inkscape:window-maximized="1"
     inkscape:current-layer="g1425" />
  <defs
     id="defs5">
    <filter
       id="a"
       x="-0.46415001"
       y="-0.46415001"
       width="1.9283"
       height="1.9283">
      <feGaussianBlur
         stdDeviation="3.0281"
         id="feGaussianBlur2" />
    </filter>
    <filter
       height="1.9283"
       width="1.9283"
       y="-0.46415001"
       x="-0.46415001"
       id="a-4">
      <feGaussianBlur
         id="feGaussianBlur2-6"
         stdDeviation="3.0281" />
    </filter>
    <filter
       height="1.9283"
       width="1.9283"
       y="-0.46415001"
       x="-0.46415001"
       id="filter11866">
      <feGaussianBlur
         id="feGaussianBlur11864"
         stdDeviation="3.0281" />
    </filter>
    <filter
       height="1.9283"
       width="1.9283"
       y="-0.46415001"
       x="-0.46415001"
       id="filter11870">
      <feGaussianBlur
         id="feGaussianBlur11868"
         stdDeviation="3.0281" />
    </filter>
    <filter
       height="1.9283"
       width="1.9283"
       y="-0.46415001"
       x="-0.46415001"
       id="filter11874">
      <feGaussianBlur
         id="feGaussianBlur11872"
         stdDeviation="3.0281" />
    </filter>
    <filter
       height="1.9283"
       width="1.9283"
       y="-0.46415001"
       x="-0.46415001"
       id="filter11878">
      <feGaussianBlur
         id="feGaussianBlur11876"
         stdDeviation="3.0281" />
    </filter>
    <filter
       height="1.9283"
       width="1.9283"
       y="-0.46415001"
       x="-0.46415001"
       id="filter11882">
      <feGaussianBlur
         id="feGaussianBlur11880"
         stdDeviation="3.0281" />
    </filter>
    <filter
       height="1.9283"
       width="1.9283"
       y="-0.46415001"
       x="-0.46415001"
       id="filter11886">
      <feGaussianBlur
         id="feGaussianBlur11884"
         stdDeviation="3.0281" />
    </filter>
    <filter
       height="1.9283"
       width="1.9283"
       y="-0.46415001"
       x="-0.46415001"
       id="filter11890">
      <feGaussianBlur
         id="feGaussianBlur11888"
         stdDeviation="3.0281" />
    </filter>
    <filter
       height="1.9283"
       width="1.9283"
       y="-0.46415001"
       x="-0.46415001"
       id="filter11894">
      <feGaussianBlur
         id="feGaussianBlur11892"
         stdDeviation="3.0281" />
    </filter>
    <filter
       height="1.9283"
       width="1.9283"
       y="-0.46415001"
       x="-0.46415001"
       id="filter11898">
      <feGaussianBlur
         id="feGaussianBlur11896"
         stdDeviation="3.0281" />
    </filter>
    <filter
       height="1.9283"
       width="1.9283"
       y="-0.46415001"
       x="-0.46415001"
       id="filter11902">
      <feGaussianBlur
         id="feGaussianBlur11900"
         stdDeviation="3.0281" />
    </filter>
    <filter
       height="1.9283"
       width="1.9283"
       y="-0.46415001"
       x="-0.46415001"
       id="a-1">
      <feGaussianBlur
         id="feGaussianBlur2-5"
         stdDeviation="3.0281" />
    </filter>
    <filter
       height="1.9283"
       width="1.9283"
       y="-0.46415001"
       x="-0.46415001"
       id="filter13363">
      <feGaussianBlur
         id="feGaussianBlur13361"
         stdDeviation="3.0281" />
    </filter>
    <filter
       height="1.9283"
       width="1.9283"
       y="-0.46415001"
       x="-0.46415001"
       id="filter13367">
      <feGaussianBlur
         id="feGaussianBlur13365"
         stdDeviation="3.0281" />
    </filter>
    <filter
       height="1.9283"
       width="1.9283"
       y="-0.46415001"
       x="-0.46415001"
       id="filter13371">
      <feGaussianBlur
         id="feGaussianBlur13369"
         stdDeviation="3.0281" />
    </filter>
    <filter
       height="1.9283"
       width="1.9283"
       y="-0.46415001"
       x="-0.46415001"
       id="filter13375">
      <feGaussianBlur
         id="feGaussianBlur13373"
         stdDeviation="3.0281" />
    </filter>
    <filter
       height="1.9283"
       width="1.9283"
       y="-0.46415001"
       x="-0.46415001"
       id="filter13379">
      <feGaussianBlur
         id="feGaussianBlur13377"
         stdDeviation="3.0281" />
    </filter>
    <filter
       height="1.9283"
       width="1.9283"
       y="-0.46415001"
       x="-0.46415001"
       id="filter13383">
      <feGaussianBlur
         id="feGaussianBlur13381"
         stdDeviation="3.0281" />
    </filter>
    <filter
       height="1.9283"
       width="1.9283"
       y="-0.46415001"
       x="-0.46415001"
       id="filter13387">
      <feGaussianBlur
         id="feGaussianBlur13385"
         stdDeviation="3.0281" />
    </filter>
    <filter
       height="1.9283"
       width="1.9283"
       y="-0.46415001"
       x="-0.46415001"
       id="filter13391">
      <feGaussianBlur
         id="feGaussianBlur13389"
         stdDeviation="3.0281" />
    </filter>
    <filter
       height="1.9283"
       width="1.9283"
       y="-0.46415001"
       x="-0.46415001"
       id="filter13395">
      <feGaussianBlur
         id="feGaussianBlur13393"
         stdDeviation="3.0281" />
    </filter>
    <filter
       height="1.9283"
       width="1.9283"
       y="-0.46415001"
       x="-0.46415001"
       id="filter13399">
      <feGaussianBlur
         id="feGaussianBlur13397"
         stdDeviation="3.0281" />
    </filter>
    <filter
       height="1.9283"
       width="1.9283"
       y="-0.46415001"
       x="-0.46415001"
       id="filter13403">
      <feGaussianBlur
         id="feGaussianBlur13401"
         stdDeviation="3.0281" />
    </filter>
    <filter
       height="1.9283"
       width="1.9283"
       y="-0.46415001"
       x="-0.46415001"
       id="filter13407">
      <feGaussianBlur
         id="feGaussianBlur13405"
         stdDeviation="3.0281" />
    </filter>
    <filter
       height="1.9283"
       width="1.9283"
       y="-0.46415001"
       x="-0.46415001"
       id="filter13411">
      <feGaussianBlur
         id="feGaussianBlur13409"
         stdDeviation="3.0281" />
    </filter>
    <filter
       height="1.9283"
       width="1.9283"
       y="-0.46415001"
       x="-0.46415001"
       id="filter13415">
      <feGaussianBlur
         id="feGaussianBlur13413"
         stdDeviation="3.0281" />
    </filter>
    <filter
       height="1.9283"
       width="1.9283"
       y="-0.46415001"
       x="-0.46415001"
       id="filter13419">
      <feGaussianBlur
         id="feGaussianBlur13417"
         stdDeviation="3.0281" />
    </filter>
    <filter
       height="1.9283"
       width="1.9283"
       y="-0.46415001"
       x="-0.46415001"
       id="filter13423">
      <feGaussianBlur
         id="feGaussianBlur13421"
         stdDeviation="3.0281" />
    </filter>
    <filter
       height="1.9283"
       width="1.9283"
       y="-0.46415001"
       x="-0.46415001"
       id="filter13427">
      <feGaussianBlur
         id="feGaussianBlur13425"
         stdDeviation="3.0281" />
    </filter>
    <filter
       height="1.9283"
       width="1.9283"
       y="-0.46415001"
       x="-0.46415001"
       id="filter13431">
      <feGaussianBlur
         id="feGaussianBlur13429"
         stdDeviation="3.0281" />
    </filter>
    <filter
       height="1.9283"
       width="1.9283"
       y="-0.46415001"
       x="-0.46415001"
       id="filter13435">
      <feGaussianBlur
         id="feGaussianBlur13433"
         stdDeviation="3.0281" />
    </filter>
    <filter
       height="1.9283"
       width="1.9283"
       y="-0.46415001"
       x="-0.46415001"
       id="filter13439">
      <feGaussianBlur
         id="feGaussianBlur13437"
         stdDeviation="3.0281" />
    </filter>
    <filter
       height="1.9283"
       width="1.9283"
       y="-0.46415001"
       x="-0.46415001"
       id="filter13443">
      <feGaussianBlur
         id="feGaussianBlur13441"
         stdDeviation="3.0281" />
    </filter>
    <filter
       height="1.9283"
       width="1.9283"
       y="-0.46415001"
       x="-0.46415001"
       id="filter13447">
      <feGaussianBlur
         id="feGaussianBlur13445"
         stdDeviation="3.0281" />
    </filter>
    <filter
       height="1.9283"
       width="1.9283"
       y="-0.46415001"
       x="-0.46415001"
       id="filter13451">
      <feGaussianBlur
         id="feGaussianBlur13449"
         stdDeviation="3.0281" />
    </filter>
    <filter
       height="1.9283"
       width="1.9283"
       y="-0.46415001"
       x="-0.46415001"
       id="filter13455">
      <feGaussianBlur
         id="feGaussianBlur13453"
         stdDeviation="3.0281" />
    </filter>
    <filter
       height="1.9283"
       width="1.9283"
       y="-0.46415001"
       x="-0.46415001"
       id="filter13459">
      <feGaussianBlur
         id="feGaussianBlur13457"
         stdDeviation="3.0281" />
    </filter>
    <filter
       height="1.9283"
       width="1.9283"
       y="-0.46415001"
       x="-0.46415001"
       id="filter13463">
      <feGaussianBlur
         id="feGaussianBlur13461"
         stdDeviation="3.0281" />
    </filter>
    <filter
       height="1.9283"
       width="1.9283"
       y="-0.46415001"
       x="-0.46415001"
       id="filter13467">
      <feGaussianBlur
         id="feGaussianBlur13465"
         stdDeviation="3.0281" />
    </filter>
    <filter
       height="1.9283"
       width="1.9283"
       y="-0.46415001"
       x="-0.46415001"
       id="filter13471">
      <feGaussianBlur
         id="feGaussianBlur13469"
         stdDeviation="3.0281" />
    </filter>
    <filter
       height="1.9283"
       width="1.9283"
       y="-0.46415001"
       x="-0.46415001"
       id="filter13475">
      <feGaussianBlur
         id="feGaussianBlur13473"
         stdDeviation="3.0281" />
    </filter>
  </defs>
  <g
     id="g1425"
     transform="translate(-485.43934,-247.68893)">
    <g
       id="g107"
       transform="translate(133.3195,-70.635392)">
      <path
         style="fill:#ffb200;stroke:#b88f00"
         id="path55"
         d="m 410.63,357.61 c -5e-5,3.6797 -0.25786,6.8672 -0.77343,9.5625 -0.51557,2.6953 -1.4063,5.0508 -2.6719,7.0664 -1.5235,2.4141 -3.4043,4.3594 -5.6426,5.8359 -2.2383,1.4765 -4.6407,2.5078 -7.207,3.0938 -2.5663,0.586 -5.2676,0.87891 -8.1035,0.87891 -3.3047,0 -6.3457,-0.23438 -9.123,-0.70313 -2.7773,-0.46875 -5.4492,-1.4648 -8.0156,-2.9883 -2.5664,-1.5235 -4.7051,-3.7266 -6.416,-6.6094 -2.0625,-3.4922 -3.0938,-8.7773 -3.0938,-15.855 v -19.09 c 0,-3.0703 0.16406,-5.4023 0.49219,-6.9961 0.32813,-1.5938 1.0078,-2.9062 2.0391,-3.9375 0.46874,-0.46869 1.0488,-0.92572 1.7402,-1.3711 0.6914,-0.44538 1.4824,-0.80854 2.373,-1.0898 0.8906,-0.28126 1.8164,-0.42181 2.7773,-0.42187 1.3594,6e-5 2.6367,0.24029 3.832,0.7207 1.1953,0.48041 2.2265,1.1778 3.0938,2.0918 1.0312,1.0313 1.7226,2.3555 2.0742,3.9727 0.3516,1.6172 0.52733,3.961 0.52735,7.0312 v 19.688 c -2e-5,6.2344 2.25,9.3516 6.75,9.3516 2.5078,10e-6 4.2011,-0.90819 5.0801,-2.7246 0.879,-1.81641 1.3183,-3.9316 1.3184,-6.3457 v -19.969 c -4e-5,-3.0703 0.16988,-5.4023 0.50976,-6.9961 0.33988,-1.5938 1.0136,-2.9062 2.0215,-3.9375 1.9218,-1.9218 4.2304,-2.8828 6.9258,-2.8828 1.289,6e-5 2.5605,0.25787 3.8144,0.77344 1.2539,0.51557 2.2792,1.2188 3.0762,2.1094 1.0781,1.1016 1.7812,2.4434 2.1094,4.0254 0.3282,1.582 0.49213,3.8848 0.49218,6.9082 z"
         inkscape:connector-curvature="0" />
      <path
         style="fill:#ffeeaa;stroke:#aa8800;stroke-width:3"
         id="path57"
         d="m 170,603.08 c -4.3e-4,13.018 -10.554,23.571 -23.572,23.571 -13.018,0 -23.571,-10.554 -23.571,-23.572 0,-13.018 10.554,-23.571 23.572,-23.571 13.018,0 23.571,10.554 23.571,23.572"
         transform="matrix(0.22636,0,0,0.18388,364.63,217.55)"
         inkscape:connector-curvature="0" />
      <path
         style="fill:#806600"
         id="path59"
         d="m 161.43,559.15 c -1.8e-4,5.3256 -4.3176,9.6427 -9.6432,9.6425 -5.3256,-2e-4 -9.6427,-4.3176 -9.6425,-9.6432 2e-4,-5.3256 4.3176,-9.6427 9.6432,-9.6425 5.3256,2e-4 9.6427,4.3176 9.6425,9.6432"
         transform="matrix(0.28275,0,0,0.22969,355.37,199.93)"
         inkscape:connector-curvature="0" />
      <path
         style="fill:#2b2200"
         id="path61"
         d="m 156.43,558.79 c -8e-5,2.3669 -1.9189,4.2856 -4.2859,4.2856 -2.367,0 -4.2856,-1.9189 -4.2856,-4.2859 0,-2.367 1.9189,-4.2856 4.2859,-4.2856 2.367,0 4.2856,1.9189 4.2856,4.2858"
         transform="matrix(0.28275,0,0,0.22969,355.37,199.93)"
         inkscape:connector-curvature="0" />
      <path
         style="fill:#ffeeaa"
         id="path63"
         d="m 156.43,555.22 c -4e-5,1.1835 -0.95946,2.1428 -2.1429,2.1428 -1.18344,0 -2.1428,-0.95946 -2.1428,-2.1429 0,-1.18344 0.95947,-2.1428 2.1429,-2.1428 1.18343,0 2.1428,0.95946 2.1428,2.1429"
         transform="matrix(0.28275,0,0,0.22969,355.37,199.93)"
         inkscape:connector-curvature="0" />
      <path
         style="fill:#ffeeaa;stroke:#aa8800;stroke-width:3"
         id="path65"
         d="m 170,603.08 c -4.3e-4,13.018 -10.554,23.571 -23.572,23.571 -13.018,0 -23.571,-10.554 -23.571,-23.572 0,-13.018 10.554,-23.571 23.572,-23.571 13.018,0 23.571,10.554 23.571,23.572"
         transform="matrix(0.22636,0,0,0.18388,364.63,217.55)"
         inkscape:connector-curvature="0" />
      <path
         style="fill:#806600"
         id="path67"
         d="m 161.43,559.15 c -1.8e-4,5.3256 -4.3176,9.6427 -9.6432,9.6425 -5.3256,-2e-4 -9.6427,-4.3176 -9.6425,-9.6432 2e-4,-5.3256 4.3176,-9.6427 9.6432,-9.6425 5.3256,2e-4 9.6427,4.3176 9.6425,9.6432"
         transform="matrix(0.28275,0,0,0.22969,355.37,199.93)"
         inkscape:connector-curvature="0" />
      <path
         style="fill:#2b2200"
         id="path69"
         d="m 156.43,558.79 c -8e-5,2.3669 -1.9189,4.2856 -4.2859,4.2856 -2.367,0 -4.2856,-1.9189 -4.2856,-4.2859 0,-2.367 1.9189,-4.2856 4.2859,-4.2856 2.367,0 4.2856,1.9189 4.2856,4.2858"
         transform="matrix(0.28275,0,0,0.22969,355.37,199.93)"
         inkscape:connector-curvature="0" />
      <path
         style="fill:#ffeeaa"
         id="path71"
         d="m 156.43,555.22 c -4e-5,1.1835 -0.95946,2.1428 -2.1429,2.1428 -1.18344,0 -2.1428,-0.95946 -2.1428,-2.1429 0,-1.18344 0.95947,-2.1428 2.1429,-2.1428 1.18343,0 2.1428,0.95946 2.1428,2.1429"
         transform="matrix(0.28275,0,0,0.22969,355.37,199.93)"
         inkscape:connector-curvature="0" />
      <path
         style="fill:#ffeeaa;stroke:#aa8800;stroke-width:3"
         id="path73"
         d="m 170,603.08 c -4.3e-4,13.018 -10.554,23.571 -23.572,23.571 -13.018,0 -23.571,-10.554 -23.571,-23.572 0,-13.018 10.554,-23.571 23.572,-23.571 13.018,0 23.571,10.554 23.571,23.572"
         transform="matrix(0.28275,0,0,0.22969,369.02,187.43)"
         inkscape:connector-curvature="0" />
      <path
         style="fill:#806600"
         id="path75"
         d="m 207.86,588.79 c -2.3e-4,7.1008 -5.7568,12.857 -12.858,12.857 -7.1012,0 -12.857,-5.7568 -12.857,-12.858 0,-7.1012 5.7568,-12.857 12.858,-12.857 7.1012,0 12.857,5.7568 12.857,12.858"
         transform="matrix(0.28275,0,0,0.22969,355.69,191.36)"
         inkscape:connector-curvature="0" />
      <path
         style="fill:#2b2200"
         id="path77"
         d="m 200.71,587.36 c -9e-5,2.7614 -2.2387,4.9999 -5.0002,4.9998 -2.7615,-10e-5 -4.9999,-2.2387 -4.9998,-5.0002 1e-4,-2.7615 2.2387,-4.9999 5.0002,-4.9998 2.7615,1e-4 4.9999,2.2388 4.9998,5.0002"
         transform="matrix(0.28275,0,0,0.22969,355.69,191.36)"
         inkscape:connector-curvature="0" />
      <path
         style="fill:#ffeeaa"
         id="path79"
         d="m 199.64,583.43 c -3e-5,0.78898 -0.63964,1.4286 -1.4286,1.4285 -0.78896,-1e-4 -1.4286,-0.63965 -1.4285,-1.4286 10e-5,-0.78895 0.63964,-1.4286 1.4286,-1.4285 0.78896,10e-5 1.4286,0.63964 1.4285,1.4286"
         transform="matrix(0.49482,0,0,0.40196,313.96,91.102)"
         inkscape:connector-curvature="0" />
      <path
         style="fill:none;stroke:#806600;stroke-width:0.76454002"
         id="path81"
         d="m 410.53,335.57 c 0,0 -0.61488,6.2732 -6.1701,3.347"
         inkscape:connector-curvature="0" />
      <path
         style="fill:none;stroke:#b88f00;stroke-width:0.50968999"
         id="path83"
         d="m 373.69,365.73 5.0492,-1.9688"
         inkscape:connector-curvature="0" />
      <path
         style="fill:none;stroke:#b88f00;stroke-width:0.50968999"
         id="path85"
         d="m 375.38,368.2 4.4433,-2.461"
         inkscape:connector-curvature="0" />
      <path
         style="fill:none;stroke:#b88f00;stroke-width:0.50968999"
         id="path87"
         d="m 379.42,370.83 2.8275,-3.6094"
         inkscape:connector-curvature="0" />
      <path
         style="fill:none;stroke:#b88f00;stroke-width:0.50968999"
         id="path89"
         d="m 383.86,371.81 0.80787,-3.7735"
         inkscape:connector-curvature="0" />
      <path
         style="fill:none;stroke:#b88f00;stroke-width:0.50968999"
         id="path91"
         d="m 387.9,371.6 -0.80787,-3.7735"
         inkscape:connector-curvature="0" />
      <path
         style="fill:none;stroke:#b88f00;stroke-width:0.50968999"
         id="path93"
         d="m 390.57,370.95 -1.6157,-3.4454"
         inkscape:connector-curvature="0" />
      <path
         style="fill:none;stroke:#b88f00;stroke-width:0.50968999"
         id="path95"
         d="m 392.89,368.96 -2.8275,-2.625"
         inkscape:connector-curvature="0" />
      <path
         style="fill:none;stroke:#b88f00;stroke-width:0.50968999"
         id="path97"
         d="m 394.32,366.68 -3.4334,-1.4766"
         inkscape:connector-curvature="0" />
      <path
         style="fill:none;stroke:#b88f00;stroke-width:0.50968999"
         id="path99"
         d="m 394.21,364.22 -3.2315,-0.16407"
         inkscape:connector-curvature="0" />
      <path
         style="fill:none;stroke:#b88f00;stroke-width:0.50968999"
         id="path101"
         d="m 393.37,362.62 -2.0197,0.65626"
         inkscape:connector-curvature="0" />
      <path
         style="fill:none;stroke:#b88f00;stroke-width:0.50968999"
         id="path103"
         d="m 375.19,362.61 3.8374,-0.16406"
         inkscape:connector-curvature="0" />
      <path
         style="fill:none;stroke:#b88f00;stroke-width:0.50968999"
         id="path105"
         d="m 374.72,360.8 3.8374,0.32813"
         inkscape:connector-curvature="0" />
    </g>
  </g>
</svg>
