<?xml version="1.0" encoding="UTF-8" standalone="no"?>
<svg
   xmlns:dc="http://purl.org/dc/elements/1.1/"
   xmlns:cc="http://creativecommons.org/ns#"
   xmlns:rdf="http://www.w3.org/1999/02/22-rdf-syntax-ns#"
   xmlns:svg="http://www.w3.org/2000/svg"
   xmlns="http://www.w3.org/2000/svg"
   xmlns:sodipodi="http://sodipodi.sourceforge.net/DTD/sodipodi-0.dtd"
   xmlns:inkscape="http://www.inkscape.org/namespaces/inkscape"
   viewBox="0 0 69.999999 70"
   version="1.1"
   id="svg1749"
   sodipodi:docname="W.svg"
   inkscape:version="0.92.3 (2405546, 2018-03-11)"
   width="70"
   height="70">
  <metadata
     id="metadata1753">
    <rdf:RDF>
      <cc:Work
         rdf:about="">
        <dc:format>image/svg+xml</dc:format>
        <dc:type
           rdf:resource="http://purl.org/dc/dcmitype/StillImage" />
        <dc:title></dc:title>
        <dc:title></dc:title>
      </cc:Work>
    </rdf:RDF>
  </metadata>
  <sodipodi:namedview
     pagecolor="#ffffff"
     bordercolor="#666666"
     borderopacity="1"
     objecttolerance="10"
     gridtolerance="10"
     guidetolerance="10"
     inkscape:pageopacity="0"
     inkscape:pageshadow="2"
     inkscape:window-width="1920"
     inkscape:window-height="1052"
     id="namedview1751"
     showgrid="false"
     inkscape:zoom="4.4779145"
     inkscape:cx="22.30818"
     inkscape:cy="50.256837"
     inkscape:window-x="0"
     inkscape:window-y="360"
     inkscape:window-maximized="1"
     inkscape:current-layer="g1425" />
  <defs
     id="defs5">
    <filter
       id="a"
       x="-0.46415001"
       y="-0.46415001"
       width="1.9283"
       height="1.9283">
      <feGaussianBlur
         stdDeviation="3.0281"
         id="feGaussianBlur2" />
    </filter>
    <filter
       height="1.9283"
       width="1.9283"
       y="-0.46415001"
       x="-0.46415001"
       id="a-4">
      <feGaussianBlur
         id="feGaussianBlur2-6"
         stdDeviation="3.0281" />
    </filter>
    <filter
       height="1.9283"
       width="1.9283"
       y="-0.46415001"
       x="-0.46415001"
       id="filter11866">
      <feGaussianBlur
         id="feGaussianBlur11864"
         stdDeviation="3.0281" />
    </filter>
    <filter
       height="1.9283"
       width="1.9283"
       y="-0.46415001"
       x="-0.46415001"
       id="filter11870">
      <feGaussianBlur
         id="feGaussianBlur11868"
         stdDeviation="3.0281" />
    </filter>
    <filter
       height="1.9283"
       width="1.9283"
       y="-0.46415001"
       x="-0.46415001"
       id="filter11874">
      <feGaussianBlur
         id="feGaussianBlur11872"
         stdDeviation="3.0281" />
    </filter>
    <filter
       height="1.9283"
       width="1.9283"
       y="-0.46415001"
       x="-0.46415001"
       id="filter11878">
      <feGaussianBlur
         id="feGaussianBlur11876"
         stdDeviation="3.0281" />
    </filter>
    <filter
       height="1.9283"
       width="1.9283"
       y="-0.46415001"
       x="-0.46415001"
       id="filter11882">
      <feGaussianBlur
         id="feGaussianBlur11880"
         stdDeviation="3.0281" />
    </filter>
    <filter
       height="1.9283"
       width="1.9283"
       y="-0.46415001"
       x="-0.46415001"
       id="filter11886">
      <feGaussianBlur
         id="feGaussianBlur11884"
         stdDeviation="3.0281" />
    </filter>
    <filter
       height="1.9283"
       width="1.9283"
       y="-0.46415001"
       x="-0.46415001"
       id="filter11890">
      <feGaussianBlur
         id="feGaussianBlur11888"
         stdDeviation="3.0281" />
    </filter>
    <filter
       height="1.9283"
       width="1.9283"
       y="-0.46415001"
       x="-0.46415001"
       id="filter11894">
      <feGaussianBlur
         id="feGaussianBlur11892"
         stdDeviation="3.0281" />
    </filter>
    <filter
       height="1.9283"
       width="1.9283"
       y="-0.46415001"
       x="-0.46415001"
       id="filter11898">
      <feGaussianBlur
         id="feGaussianBlur11896"
         stdDeviation="3.0281" />
    </filter>
    <filter
       height="1.9283"
       width="1.9283"
       y="-0.46415001"
       x="-0.46415001"
       id="filter11902">
      <feGaussianBlur
         id="feGaussianBlur11900"
         stdDeviation="3.0281" />
    </filter>
    <filter
       height="1.9283"
       width="1.9283"
       y="-0.46415001"
       x="-0.46415001"
       id="a-1">
      <feGaussianBlur
         id="feGaussianBlur2-5"
         stdDeviation="3.0281" />
    </filter>
    <filter
       height="1.9283"
       width="1.9283"
       y="-0.46415001"
       x="-0.46415001"
       id="filter13363">
      <feGaussianBlur
         id="feGaussianBlur13361"
         stdDeviation="3.0281" />
    </filter>
    <filter
       height="1.9283"
       width="1.9283"
       y="-0.46415001"
       x="-0.46415001"
       id="filter13367">
      <feGaussianBlur
         id="feGaussianBlur13365"
         stdDeviation="3.0281" />
    </filter>
    <filter
       height="1.9283"
       width="1.9283"
       y="-0.46415001"
       x="-0.46415001"
       id="filter13371">
      <feGaussianBlur
         id="feGaussianBlur13369"
         stdDeviation="3.0281" />
    </filter>
    <filter
       height="1.9283"
       width="1.9283"
       y="-0.46415001"
       x="-0.46415001"
       id="filter13375">
      <feGaussianBlur
         id="feGaussianBlur13373"
         stdDeviation="3.0281" />
    </filter>
    <filter
       height="1.9283"
       width="1.9283"
       y="-0.46415001"
       x="-0.46415001"
       id="filter13379">
      <feGaussianBlur
         id="feGaussianBlur13377"
         stdDeviation="3.0281" />
    </filter>
    <filter
       height="1.9283"
       width="1.9283"
       y="-0.46415001"
       x="-0.46415001"
       id="filter13383">
      <feGaussianBlur
         id="feGaussianBlur13381"
         stdDeviation="3.0281" />
    </filter>
    <filter
       height="1.9283"
       width="1.9283"
       y="-0.46415001"
       x="-0.46415001"
       id="filter13387">
      <feGaussianBlur
         id="feGaussianBlur13385"
         stdDeviation="3.0281" />
    </filter>
    <filter
       height="1.9283"
       width="1.9283"
       y="-0.46415001"
       x="-0.46415001"
       id="filter13391">
      <feGaussianBlur
         id="feGaussianBlur13389"
         stdDeviation="3.0281" />
    </filter>
    <filter
       height="1.9283"
       width="1.9283"
       y="-0.46415001"
       x="-0.46415001"
       id="filter13395">
      <feGaussianBlur
         id="feGaussianBlur13393"
         stdDeviation="3.0281" />
    </filter>
    <filter
       height="1.9283"
       width="1.9283"
       y="-0.46415001"
       x="-0.46415001"
       id="filter13399">
      <feGaussianBlur
         id="feGaussianBlur13397"
         stdDeviation="3.0281" />
    </filter>
    <filter
       height="1.9283"
       width="1.9283"
       y="-0.46415001"
       x="-0.46415001"
       id="filter13403">
      <feGaussianBlur
         id="feGaussianBlur13401"
         stdDeviation="3.0281" />
    </filter>
    <filter
       height="1.9283"
       width="1.9283"
       y="-0.46415001"
       x="-0.46415001"
       id="filter13407">
      <feGaussianBlur
         id="feGaussianBlur13405"
         stdDeviation="3.0281" />
    </filter>
    <filter
       height="1.9283"
       width="1.9283"
       y="-0.46415001"
       x="-0.46415001"
       id="filter13411">
      <feGaussianBlur
         id="feGaussianBlur13409"
         stdDeviation="3.0281" />
    </filter>
    <filter
       height="1.9283"
       width="1.9283"
       y="-0.46415001"
       x="-0.46415001"
       id="filter13415">
      <feGaussianBlur
         id="feGaussianBlur13413"
         stdDeviation="3.0281" />
    </filter>
    <filter
       height="1.9283"
       width="1.9283"
       y="-0.46415001"
       x="-0.46415001"
       id="filter13419">
      <feGaussianBlur
         id="feGaussianBlur13417"
         stdDeviation="3.0281" />
    </filter>
    <filter
       height="1.9283"
       width="1.9283"
       y="-0.46415001"
       x="-0.46415001"
       id="filter13423">
      <feGaussianBlur
         id="feGaussianBlur13421"
         stdDeviation="3.0281" />
    </filter>
    <filter
       height="1.9283"
       width="1.9283"
       y="-0.46415001"
       x="-0.46415001"
       id="filter13427">
      <feGaussianBlur
         id="feGaussianBlur13425"
         stdDeviation="3.0281" />
    </filter>
    <filter
       height="1.9283"
       width="1.9283"
       y="-0.46415001"
       x="-0.46415001"
       id="filter13431">
      <feGaussianBlur
         id="feGaussianBlur13429"
         stdDeviation="3.0281" />
    </filter>
    <filter
       height="1.9283"
       width="1.9283"
       y="-0.46415001"
       x="-0.46415001"
       id="filter13435">
      <feGaussianBlur
         id="feGaussianBlur13433"
         stdDeviation="3.0281" />
    </filter>
    <filter
       height="1.9283"
       width="1.9283"
       y="-0.46415001"
       x="-0.46415001"
       id="filter13439">
      <feGaussianBlur
         id="feGaussianBlur13437"
         stdDeviation="3.0281" />
    </filter>
    <filter
       height="1.9283"
       width="1.9283"
       y="-0.46415001"
       x="-0.46415001"
       id="filter13443">
      <feGaussianBlur
         id="feGaussianBlur13441"
         stdDeviation="3.0281" />
    </filter>
    <filter
       height="1.9283"
       width="1.9283"
       y="-0.46415001"
       x="-0.46415001"
       id="filter13447">
      <feGaussianBlur
         id="feGaussianBlur13445"
         stdDeviation="3.0281" />
    </filter>
    <filter
       height="1.9283"
       width="1.9283"
       y="-0.46415001"
       x="-0.46415001"
       id="filter13451">
      <feGaussianBlur
         id="feGaussianBlur13449"
         stdDeviation="3.0281" />
    </filter>
    <filter
       height="1.9283"
       width="1.9283"
       y="-0.46415001"
       x="-0.46415001"
       id="filter13455">
      <feGaussianBlur
         id="feGaussianBlur13453"
         stdDeviation="3.0281" />
    </filter>
    <filter
       height="1.9283"
       width="1.9283"
       y="-0.46415001"
       x="-0.46415001"
       id="filter13459">
      <feGaussianBlur
         id="feGaussianBlur13457"
         stdDeviation="3.0281" />
    </filter>
    <filter
       height="1.9283"
       width="1.9283"
       y="-0.46415001"
       x="-0.46415001"
       id="filter13463">
      <feGaussianBlur
         id="feGaussianBlur13461"
         stdDeviation="3.0281" />
    </filter>
    <filter
       height="1.9283"
       width="1.9283"
       y="-0.46415001"
       x="-0.46415001"
       id="filter13467">
      <feGaussianBlur
         id="feGaussianBlur13465"
         stdDeviation="3.0281" />
    </filter>
    <filter
       height="1.9283"
       width="1.9283"
       y="-0.46415001"
       x="-0.46415001"
       id="filter13471">
      <feGaussianBlur
         id="feGaussianBlur13469"
         stdDeviation="3.0281" />
    </filter>
    <filter
       height="1.9283"
       width="1.9283"
       y="-0.46415001"
       x="-0.46415001"
       id="filter13475">
      <feGaussianBlur
         id="feGaussianBlur13473"
         stdDeviation="3.0281" />
    </filter>
  </defs>
  <g
     id="g1425"
     transform="translate(-485.43934,-247.68893)">
    <g
       id="g579"
       transform="matrix(0.84139048,0,0,0.83732661,76.916789,-8.5592342)">
      <path
         style="fill:#c83737;stroke:#a02c2c"
         id="path459"
         d="m 562.25,330.4 c -7e-5,1.336 -0.33992,3.4688 -1.0195,6.3984 l -6.9961,29.883 c -0.72662,3.1875 -1.3946,5.5488 -2.0039,7.084 -0.6093,1.5352 -1.4063,2.8301 -2.3906,3.8848 -1.9922,2.0625 -4.5352,3.0937 -7.6289,3.0938 -1.2891,-1e-5 -2.3555,-0.16993 -3.1992,-0.50977 -0.8437,-0.33984 -1.8399,-0.94336 -2.9883,-1.8106 -1.2188,-1.0312 -2.2266,-2.3965 -3.0234,-4.0957 -0.7968,-1.6992 -1.5586,-4.0957 -2.2852,-7.1894 l -4.7812,-21.199 -4.6758,21.199 c -0.60941,2.8125 -1.2715,5.0098 -1.9863,6.5918 -0.7148,1.582 -1.5879,2.9356 -2.6191,4.0606 -1.7344,1.9688 -4.0313,2.9531 -6.8906,2.9531 -2.9063,-1e-5 -5.3789,-0.91407 -7.418,-2.7422 -1.125,-0.98437 -2.0098,-2.291 -2.6543,-3.9199 -0.6445,-1.6289 -1.3418,-4.1191 -2.0918,-7.4707 l -6.9258,-29.742 c -0.67969,-2.7656 -1.0195,-4.875 -1.0195,-6.3281 0,-1.5937 0.39258,-3.0585 1.1777,-4.3945 0.78512,-1.336 1.8691,-2.414 3.252,-3.2344 1.3829,-0.8204 2.9062,-1.2304 4.5703,-1.2305 1.6875,5e-5 3.375,0.50396 5.0625,1.5117 1.1719,0.65631 2.0156,1.6817 2.5312,3.0762 0.5156,1.3945 1.0312,3.6622 1.5469,6.8027 l 3.0938,18.844 3.6211,-16.242 c 0.65622,-2.9296 1.2949,-5.291 1.916,-7.084 0.6211,-1.793 1.7168,-3.3925 3.2871,-4.7988 1.5703,-1.4063 3.7265,-2.1093 6.4688,-2.1094 2.039,5e-5 3.7148,0.32232 5.0273,0.96679 1.3125,0.64447 2.3671,1.5586 3.1641,2.7422 0.797,1.1836 1.4121,2.4903 1.8457,3.9199 0.4336,1.4296 0.91987,3.4454 1.459,6.0469 l 3.4805,16.066 3.0234,-18.492 c 0.46869,-2.9765 0.96674,-5.1562 1.4941,-6.5391 0.52736,-1.3829 1.3652,-2.4492 2.5137,-3.1992 1.6874,-1.0078 3.3984,-1.5117 5.1328,-1.5117 1.6406,5e-5 3.1347,0.39263 4.4824,1.1777 1.3477,0.78507 2.4257,1.8516 3.2344,3.1992 0.8087,1.3476 1.2128,2.795 1.2129,4.3418 z"
         inkscape:connector-curvature="0" />
      <path
         style="fill:#f4d7d7;stroke:#a02c2c;stroke-width:3"
         id="path461"
         d="m 279.81,401.82 c -3e-4,8.9263 -7.2367,16.162 -16.163,16.162 -8.9263,0 -16.162,-7.2367 -16.162,-16.163 0,-8.9263 7.2367,-16.162 16.163,-16.162 8.9263,0 16.162,7.2367 16.162,16.163"
         transform="matrix(0.28275,0,0,0.22969,487.04,234.06)"
         inkscape:connector-curvature="0" />
      <path
         style="fill:#f4d7d7;stroke:#a02c2c;stroke-width:3"
         id="path463"
         d="m 216.17,363.44 c -5.1e-4,15.063 -12.212,27.274 -27.275,27.273 -15.063,-0.001 -27.274,-12.212 -27.273,-27.275 10e-4,-15.063 12.212,-27.274 27.275,-27.273 15.063,10e-4 27.274,12.212 27.273,27.275"
         transform="matrix(0.28275,0,0,0.22969,495.03,238.47)"
         inkscape:connector-curvature="0" />
      <path
         style="fill:#501616"
         id="path465"
         d="m 226.27,364.95 c -2.3e-4,6.9736 -5.6537,12.627 -12.627,12.626 -6.9733,-0.001 -12.627,-5.6537 -12.626,-12.627 0.001,-6.9733 5.6537,-12.627 12.627,-12.626 6.9733,0.001 12.627,5.6537 12.626,12.627"
         transform="matrix(0.28275,0,0,0.22969,489.61,238.47)"
         inkscape:connector-curvature="0" />
      <path
         style="fill:#501616"
         id="path467"
         d="m 226.27,364.95 c -2.3e-4,6.9736 -5.6537,12.627 -12.627,12.626 -6.9733,-0.001 -12.627,-5.6537 -12.626,-12.627 0.001,-6.9733 5.6537,-12.627 12.627,-12.626 6.9733,0.001 12.627,5.6537 12.626,12.627"
         transform="matrix(0.21489,0,0,0.17456,514.82,262.3)"
         inkscape:connector-curvature="0" />
      <path
         style="fill:#280b0b"
         id="path469"
         d="m 219.46,364.51 c -8e-5,2.2683 -1.839,4.1071 -4.1073,4.107 -2.2683,-1e-4 -4.1071,-1.839 -4.107,-4.1073 1e-4,-2.2683 1.839,-4.1071 4.1073,-4.107 2.2683,1e-4 4.1071,1.839 4.107,4.1073"
         transform="matrix(0.39954,0,0,0.32456,464.33,204.11)"
         inkscape:connector-curvature="0" />
      <path
         style="fill:#280b0b"
         id="path471"
         d="m 219.46,364.51 c -8e-5,2.2683 -1.839,4.1071 -4.1073,4.107 -2.2683,-1e-4 -4.1071,-1.839 -4.107,-4.1073 1e-4,-2.2683 1.839,-4.1071 4.1073,-4.107 2.2683,1e-4 4.1071,1.839 4.107,4.1073"
         transform="matrix(0.39954,0,0,0.32456,474.18,207.64)"
         inkscape:connector-curvature="0" />
      <path
         style="fill:#e9afaf"
         id="path473"
         d="m 221.79,362.9 c -4e-5,1.1835 -0.95946,2.1428 -2.1429,2.1428 -1.18344,0 -2.1428,-0.95947 -2.1428,-2.1429 0,-1.18343 0.95946,-2.1428 2.1429,-2.1428 1.18344,0 2.1428,0.95946 2.1428,2.1429"
         transform="matrix(0.28275,0,0,0.22969,489.61,238.47)"
         inkscape:connector-curvature="0" />
      <path
         style="fill:#ffd5d5"
         id="path475"
         d="m 221.79,362.9 c -4e-5,1.1835 -0.95946,2.1428 -2.1429,2.1428 -1.18344,0 -2.1428,-0.95947 -2.1428,-2.1429 0,-1.18343 0.95946,-2.1428 2.1429,-2.1428 1.18344,0 2.1428,0.95946 2.1428,2.1429"
         transform="matrix(0.28275,0,0,0.22969,499.61,242.24)"
         inkscape:connector-curvature="0" />
      <path
         style="fill:#a02c2c"
         id="path477"
         d="m 205,522.72 c -3.2e-4,9.665 -7.8356,17.5 -17.501,17.499 -9.6654,-0.001 -17.5,-7.8356 -17.499,-17.501 0.001,-9.6654 7.8356,-17.5 17.501,-17.499 9.6654,0.001 17.5,7.8356 17.499,17.501"
         transform="matrix(0.15003,0,0,0.12188,523.39,275.34)"
         inkscape:connector-curvature="0" />
      <path
         style="fill:#a02c2c"
         id="path479"
         d="m 205,522.72 c -3.2e-4,9.665 -7.8356,17.5 -17.501,17.499 -9.6654,-0.001 -17.5,-7.8356 -17.499,-17.501 0.001,-9.6654 7.8356,-17.5 17.501,-17.499 9.6654,0.001 17.5,7.8356 17.499,17.501"
         transform="matrix(0.08656,0,0,-0.07031,495.28,402.45)"
         inkscape:connector-curvature="0" />
      <path
         style="fill:#a02c2c"
         id="path481"
         d="m 205,522.72 c -3.2e-4,9.665 -7.8356,17.5 -17.501,17.499 -9.6654,-0.001 -17.5,-7.8356 -17.499,-17.501 0.001,-9.6654 7.8356,-17.5 17.501,-17.499 9.6654,0.001 17.5,7.8356 17.499,17.501"
         transform="matrix(-0.00366,0.15576,-0.12653,-0.00297,574.22,330.45)"
         inkscape:connector-curvature="0" />
      <path
         style="fill:#a02c2c"
         id="path483"
         d="m 205,522.72 c -3.2e-4,9.665 -7.8356,17.5 -17.501,17.499 -9.6654,-0.001 -17.5,-7.8356 -17.499,-17.501 0.001,-9.6654 7.8356,-17.5 17.501,-17.499 9.6654,0.001 17.5,7.8356 17.499,17.501"
         transform="matrix(-0.00529,0.22499,-0.18276,-0.0043,599.51,324.52)"
         inkscape:connector-curvature="0" />
      <path
         style="fill:#a02c2c"
         id="path485"
         d="m 205,522.72 c -3.2e-4,9.665 -7.8356,17.5 -17.501,17.499 -9.6654,-0.001 -17.5,-7.8356 -17.499,-17.501 0.001,-9.6654 7.8356,-17.5 17.501,-17.499 9.6654,0.001 17.5,7.8356 17.499,17.501"
         transform="matrix(-0.00298,0.12692,-0.1031,-0.00242,557.06,333.33)"
         inkscape:connector-curvature="0" />
      <path
         style="fill:#a02c2c"
         id="path487"
         d="m 205,522.72 c -3.2e-4,9.665 -7.8356,17.5 -17.501,17.499 -9.6654,-0.001 -17.5,-7.8356 -17.499,-17.501 0.001,-9.6654 7.8356,-17.5 17.501,-17.499 9.6654,0.001 17.5,7.8356 17.499,17.501"
         transform="matrix(-0.00298,0.12692,-0.1031,-0.00242,567.76,325.1)"
         inkscape:connector-curvature="0" />
      <path
         style="fill:#a02c2c"
         id="path489"
         d="m 205,522.72 c -3.2e-4,9.665 -7.8356,17.5 -17.501,17.499 -9.6654,-0.001 -17.5,-7.8356 -17.499,-17.501 0.001,-9.6654 7.8356,-17.5 17.501,-17.499 9.6654,0.001 17.5,7.8356 17.499,17.501"
         transform="matrix(0.08656,0,0,-0.07031,495.28,402.45)"
         inkscape:connector-curvature="0" />
      <path
         style="fill:#a02c2c"
         id="path491"
         d="m 205,522.72 c -3.2e-4,9.665 -7.8356,17.5 -17.501,17.499 -9.6654,-0.001 -17.5,-7.8356 -17.499,-17.501 0.001,-9.6654 7.8356,-17.5 17.501,-17.499 9.6654,0.001 17.5,7.8356 17.499,17.501"
         transform="matrix(-0.00366,0.15576,-0.12653,-0.00297,574.22,330.45)"
         inkscape:connector-curvature="0" />
      <path
         style="fill:#a02c2c"
         id="path493"
         d="m 205,522.72 c -3.2e-4,9.665 -7.8356,17.5 -17.501,17.499 -9.6654,-0.001 -17.5,-7.8356 -17.499,-17.501 0.001,-9.6654 7.8356,-17.5 17.501,-17.499 9.6654,0.001 17.5,7.8356 17.499,17.501"
         transform="matrix(-0.00529,0.22499,-0.18276,-0.0043,599.51,324.52)"
         inkscape:connector-curvature="0" />
      <path
         style="fill:#a02c2c"
         id="path495"
         d="m 205,522.72 c -3.2e-4,9.665 -7.8356,17.5 -17.501,17.499 -9.6654,-0.001 -17.5,-7.8356 -17.499,-17.501 0.001,-9.6654 7.8356,-17.5 17.501,-17.499 9.6654,0.001 17.5,7.8356 17.499,17.501"
         transform="matrix(-0.00298,0.12692,-0.1031,-0.00242,557.06,333.33)"
         inkscape:connector-curvature="0" />
      <path
         style="fill:#a02c2c"
         id="path497"
         d="m 205,522.72 c -3.2e-4,9.665 -7.8356,17.5 -17.501,17.499 -9.6654,-0.001 -17.5,-7.8356 -17.499,-17.501 0.001,-9.6654 7.8356,-17.5 17.501,-17.499 9.6654,0.001 17.5,7.8356 17.499,17.501"
         transform="matrix(-0.00298,0.12692,-0.1031,-0.00242,567.76,325.1)"
         inkscape:connector-curvature="0" />
      <path
         style="fill:#a02c2c"
         id="path499"
         d="m 205,522.72 c -3.2e-4,9.665 -7.8356,17.5 -17.501,17.499 -9.6654,-0.001 -17.5,-7.8356 -17.499,-17.501 0.001,-9.6654 7.8356,-17.5 17.501,-17.499 9.6654,0.001 17.5,7.8356 17.499,17.501"
         transform="matrix(0.08656,0,0,-0.07031,536.14,371.16)"
         inkscape:connector-curvature="0" />
      <path
         style="fill:#a02c2c"
         id="path501"
         d="m 205,522.72 c -3.2e-4,9.665 -7.8356,17.5 -17.501,17.499 -9.6654,-0.001 -17.5,-7.8356 -17.499,-17.501 0.001,-9.6654 7.8356,-17.5 17.501,-17.499 9.6654,0.001 17.5,7.8356 17.499,17.501"
         transform="matrix(-0.00366,0.15576,-0.12653,-0.00297,614.37,306.3)"
         inkscape:connector-curvature="0" />
      <path
         style="fill:#a02c2c"
         id="path503"
         d="m 205,522.72 c -3.2e-4,9.665 -7.8356,17.5 -17.501,17.499 -9.6654,-0.001 -17.5,-7.8356 -17.499,-17.501 0.001,-9.6654 7.8356,-17.5 17.501,-17.499 9.6654,0.001 17.5,7.8356 17.499,17.501"
         transform="matrix(-0.00529,0.22499,-0.18276,-0.0043,615.72,304.66)"
         inkscape:connector-curvature="0" />
      <path
         style="fill:#a02c2c"
         id="path505"
         d="m 205,522.72 c -3.2e-4,9.665 -7.8356,17.5 -17.501,17.499 -9.6654,-0.001 -17.5,-7.8356 -17.499,-17.501 0.001,-9.6654 7.8356,-17.5 17.501,-17.499 9.6654,0.001 17.5,7.8356 17.499,17.501"
         transform="matrix(0.08656,0,0,-0.24378,540.43,465.59)"
         inkscape:connector-curvature="0" />
      <path
         style="fill:#a02c2c"
         id="path507"
         d="m 205,522.72 c -3.2e-4,9.665 -7.8356,17.5 -17.501,17.499 -9.6654,-0.001 -17.5,-7.8356 -17.499,-17.501 0.001,-9.6654 7.8356,-17.5 17.501,-17.499 9.6654,0.001 17.5,7.8356 17.499,17.501"
         transform="matrix(-0.00366,0.15576,-0.12653,-0.00297,614.37,306.3)"
         inkscape:connector-curvature="0" />
      <path
         style="fill:#a02c2c"
         id="path509"
         d="m 205,522.72 c -3.2e-4,9.665 -7.8356,17.5 -17.501,17.499 -9.6654,-0.001 -17.5,-7.8356 -17.499,-17.501 0.001,-9.6654 7.8356,-17.5 17.501,-17.499 9.6654,0.001 17.5,7.8356 17.499,17.501"
         transform="matrix(-0.00529,0.22499,-0.18276,-0.0043,623.22,289.66)"
         inkscape:connector-curvature="0" />
      <path
         style="fill:#a02c2c"
         id="path511"
         d="m 205,522.72 c -3.2e-4,9.665 -7.8356,17.5 -17.501,17.499 -9.6654,-0.001 -17.5,-7.8356 -17.499,-17.501 0.001,-9.6654 7.8356,-17.5 17.501,-17.499 9.6654,0.001 17.5,7.8356 17.499,17.501"
         transform="matrix(0.22505,0,0,-0.18282,496.91,462.89)"
         inkscape:connector-curvature="0" />
      <path
         style="fill:#a02c2c"
         id="path513"
         d="m 205,522.72 c -3.2e-4,9.665 -7.8356,17.5 -17.501,17.499 -9.6654,-0.001 -17.5,-7.8356 -17.499,-17.501 0.001,-9.6654 7.8356,-17.5 17.501,-17.499 9.6654,0.001 17.5,7.8356 17.499,17.501"
         transform="matrix(0.12118,0,0,-0.09844,520.19,411.04)"
         inkscape:connector-curvature="0" />
      <path
         style="fill:#a02c2c"
         id="path515"
         d="m 205,522.72 c -3.2e-4,9.665 -7.8356,17.5 -17.501,17.499 -9.6654,-0.001 -17.5,-7.8356 -17.499,-17.501 0.001,-9.6654 7.8356,-17.5 17.501,-17.499 9.6654,0.001 17.5,7.8356 17.499,17.501"
         transform="matrix(0.21351,0,0,-0.17344,509.14,458.28)"
         inkscape:connector-curvature="0" />
      <path
         style="fill:#a02c2c"
         id="path517"
         d="m 205,522.72 c -3.2e-4,9.665 -7.8356,17.5 -17.501,17.499 -9.6654,-0.001 -17.5,-7.8356 -17.499,-17.501 0.001,-9.6654 7.8356,-17.5 17.501,-17.499 9.6654,0.001 17.5,7.8356 17.499,17.501"
         transform="matrix(-0.00298,0.12692,-0.1031,-0.00242,575.26,314.74)"
         inkscape:connector-curvature="0" />
      <path
         style="fill:#a02c2c"
         id="path519"
         d="m 205,522.72 c -3.2e-4,9.665 -7.8356,17.5 -17.501,17.499 -9.6654,-0.001 -17.5,-7.8356 -17.499,-17.501 0.001,-9.6654 7.8356,-17.5 17.501,-17.499 9.6654,0.001 17.5,7.8356 17.499,17.501"
         transform="matrix(-0.00298,0.12692,-0.1031,-0.00242,575.26,314.74)"
         inkscape:connector-curvature="0" />
      <path
         style="fill:#a02c2c"
         id="path521"
         d="m 205,522.72 c -3.2e-4,9.665 -7.8356,17.5 -17.501,17.499 -9.6654,-0.001 -17.5,-7.8356 -17.499,-17.501 0.001,-9.6654 7.8356,-17.5 17.501,-17.499 9.6654,0.001 17.5,7.8356 17.499,17.501"
         transform="matrix(0.13941,-0.06956,-0.05651,-0.11325,539.42,416.45)"
         inkscape:connector-curvature="0" />
      <path
         style="fill:#a02c2c"
         id="path523"
         d="m 205,522.72 c -3.2e-4,9.665 -7.8356,17.5 -17.501,17.499 -9.6654,-0.001 -17.5,-7.8356 -17.499,-17.501 0.001,-9.6654 7.8356,-17.5 17.501,-17.499 9.6654,0.001 17.5,7.8356 17.499,17.501"
         transform="matrix(0.1136,-0.05668,-0.04604,-0.09228,534.74,399.69)"
         inkscape:connector-curvature="0" />
      <path
         style="fill:#a02c2c"
         id="path525"
         d="m 205,522.72 c -3.2e-4,9.665 -7.8356,17.5 -17.501,17.499 -9.6654,-0.001 -17.5,-7.8356 -17.499,-17.501 0.001,-9.6654 7.8356,-17.5 17.501,-17.499 9.6654,0.001 17.5,7.8356 17.499,17.501"
         transform="matrix(0.05399,0.1149,-0.09333,0.04386,573.26,310.82)"
         inkscape:connector-curvature="0" />
      <path
         style="fill:#a02c2c"
         id="path527"
         d="m 205,522.72 c -3.2e-4,9.665 -7.8356,17.5 -17.501,17.499 -9.6654,-0.001 -17.5,-7.8356 -17.499,-17.501 0.001,-9.6654 7.8356,-17.5 17.501,-17.499 9.6654,0.001 17.5,7.8356 17.499,17.501"
         transform="matrix(0.13941,-0.06956,-0.05651,-0.11325,539.42,416.45)"
         inkscape:connector-curvature="0" />
      <path
         style="fill:#a02c2c"
         id="path529"
         d="m 205,522.72 c -3.2e-4,9.665 -7.8356,17.5 -17.501,17.499 -9.6654,-0.001 -17.5,-7.8356 -17.499,-17.501 0.001,-9.6654 7.8356,-17.5 17.501,-17.499 9.6654,0.001 17.5,7.8356 17.499,17.501"
         transform="matrix(0.1136,-0.05668,-0.04604,-0.09228,534.74,399.69)"
         inkscape:connector-curvature="0" />
      <path
         style="fill:#a02c2c"
         id="path531"
         d="m 205,522.72 c -3.2e-4,9.665 -7.8356,17.5 -17.501,17.499 -9.6654,-0.001 -17.5,-7.8356 -17.499,-17.501 0.001,-9.6654 7.8356,-17.5 17.501,-17.499 9.6654,0.001 17.5,7.8356 17.499,17.501"
         transform="matrix(0.05399,0.1149,-0.09333,0.04386,573.26,310.82)"
         inkscape:connector-curvature="0" />
      <path
         style="fill:#a02c2c"
         id="path533"
         d="m 205,522.72 c -3.2e-4,9.665 -7.8356,17.5 -17.501,17.499 -9.6654,-0.001 -17.5,-7.8356 -17.499,-17.501 0.001,-9.6654 7.8356,-17.5 17.501,-17.499 9.6654,0.001 17.5,7.8356 17.499,17.501"
         transform="matrix(-0.00366,0.15576,-0.12653,-0.00297,566.8,299.73)"
         inkscape:connector-curvature="0" />
      <path
         style="fill:#a02c2c"
         id="path535"
         d="m 205,522.72 c -3.2e-4,9.665 -7.8356,17.5 -17.501,17.499 -9.6654,-0.001 -17.5,-7.8356 -17.499,-17.501 0.001,-9.6654 7.8356,-17.5 17.501,-17.499 9.6654,0.001 17.5,7.8356 17.499,17.501"
         transform="matrix(-0.00529,0.22499,-0.18276,-0.0043,601.37,302.73)"
         inkscape:connector-curvature="0" />
      <path
         style="fill:#a02c2c"
         id="path537"
         d="m 205,522.72 c -3.2e-4,9.665 -7.8356,17.5 -17.501,17.499 -9.6654,-0.001 -17.5,-7.8356 -17.499,-17.501 0.001,-9.6654 7.8356,-17.5 17.501,-17.499 9.6654,0.001 17.5,7.8356 17.499,17.501"
         transform="matrix(-0.00298,0.12692,-0.1031,-0.00242,558.92,311.55)"
         inkscape:connector-curvature="0" />
      <path
         style="fill:#a02c2c"
         id="path539"
         d="m 205,522.72 c -3.2e-4,9.665 -7.8356,17.5 -17.501,17.499 -9.6654,-0.001 -17.5,-7.8356 -17.499,-17.501 0.001,-9.6654 7.8356,-17.5 17.501,-17.499 9.6654,0.001 17.5,7.8356 17.499,17.501"
         transform="matrix(-0.00285,0.12115,-0.09841,-0.00231,557.14,328.45)"
         inkscape:connector-curvature="0" />
      <path
         style="fill:#a02c2c"
         id="path541"
         d="m 205,522.72 c -3.2e-4,9.665 -7.8356,17.5 -17.501,17.499 -9.6654,-0.001 -17.5,-7.8356 -17.499,-17.501 0.001,-9.6654 7.8356,-17.5 17.501,-17.499 9.6654,0.001 17.5,7.8356 17.499,17.501"
         transform="matrix(-0.00366,0.15576,-0.12653,-0.00297,562.51,310.45)"
         inkscape:connector-curvature="0" />
      <path
         style="fill:#a02c2c"
         id="path543"
         d="m 205,522.72 c -3.2e-4,9.665 -7.8356,17.5 -17.501,17.499 -9.6654,-0.001 -17.5,-7.8356 -17.499,-17.501 0.001,-9.6654 7.8356,-17.5 17.501,-17.499 9.6654,0.001 17.5,7.8356 17.499,17.501"
         transform="matrix(-0.00529,0.22499,-0.18276,-0.0043,601.37,302.73)"
         inkscape:connector-curvature="0" />
      <path
         style="fill:#a02c2c"
         id="path545"
         d="m 205,522.72 c -3.2e-4,9.665 -7.8356,17.5 -17.501,17.499 -9.6654,-0.001 -17.5,-7.8356 -17.499,-17.501 0.001,-9.6654 7.8356,-17.5 17.501,-17.499 9.6654,0.001 17.5,7.8356 17.499,17.501"
         transform="matrix(-0.00298,0.12692,-0.1031,-0.00242,558.92,311.55)"
         inkscape:connector-curvature="0" />
      <path
         style="fill:#a02c2c"
         id="path547"
         d="m 205,522.72 c -3.2e-4,9.665 -7.8356,17.5 -17.501,17.499 -9.6654,-0.001 -17.5,-7.8356 -17.499,-17.501 0.001,-9.6654 7.8356,-17.5 17.501,-17.499 9.6654,0.001 17.5,7.8356 17.499,17.501"
         transform="matrix(-0.00285,0.12115,-0.09841,-0.00231,557.14,328.45)"
         inkscape:connector-curvature="0" />
      <path
         style="fill:#a02c2c"
         id="path549"
         d="m 205,522.72 c -3.2e-4,9.665 -7.8356,17.5 -17.501,17.499 -9.6654,-0.001 -17.5,-7.8356 -17.499,-17.501 0.001,-9.6654 7.8356,-17.5 17.501,-17.499 9.6654,0.001 17.5,7.8356 17.499,17.501"
         transform="matrix(0.08656,0,0,-0.07031,491.36,407.09)"
         inkscape:connector-curvature="0" />
      <path
         style="fill:#a02c2c"
         id="path551"
         d="m 205,522.72 c -3.2e-4,9.665 -7.8356,17.5 -17.501,17.499 -9.6654,-0.001 -17.5,-7.8356 -17.499,-17.501 0.001,-9.6654 7.8356,-17.5 17.501,-17.499 9.6654,0.001 17.5,7.8356 17.499,17.501"
         transform="matrix(-0.00366,0.15576,-0.12653,-0.00297,587.44,326.52)"
         inkscape:connector-curvature="0" />
      <path
         style="fill:#a02c2c"
         id="path553"
         d="m 205,522.72 c -3.2e-4,9.665 -7.8356,17.5 -17.501,17.499 -9.6654,-0.001 -17.5,-7.8356 -17.499,-17.501 0.001,-9.6654 7.8356,-17.5 17.501,-17.499 9.6654,0.001 17.5,7.8356 17.499,17.501"
         transform="matrix(-0.00529,0.22499,-0.18276,-0.0043,612.72,320.59)"
         inkscape:connector-curvature="0" />
      <path
         style="fill:#a02c2c"
         id="path555"
         d="m 205,522.72 c -3.2e-4,9.665 -7.8356,17.5 -17.501,17.499 -9.6654,-0.001 -17.5,-7.8356 -17.499,-17.501 0.001,-9.6654 7.8356,-17.5 17.501,-17.499 9.6654,0.001 17.5,7.8356 17.499,17.501"
         transform="matrix(-0.00298,0.12692,-0.1031,-0.00242,570.27,329.4)"
         inkscape:connector-curvature="0" />
      <path
         style="fill:#a02c2c"
         id="path557"
         d="m 205,522.72 c -3.2e-4,9.665 -7.8356,17.5 -17.501,17.499 -9.6654,-0.001 -17.5,-7.8356 -17.499,-17.501 0.001,-9.6654 7.8356,-17.5 17.501,-17.499 9.6654,0.001 17.5,7.8356 17.499,17.501"
         transform="matrix(0.08656,0,0,-0.07031,498.86,404.23)"
         inkscape:connector-curvature="0" />
      <path
         style="fill:#a02c2c"
         id="path559"
         d="m 205,522.72 c -3.2e-4,9.665 -7.8356,17.5 -17.501,17.499 -9.6654,-0.001 -17.5,-7.8356 -17.499,-17.501 0.001,-9.6654 7.8356,-17.5 17.501,-17.499 9.6654,0.001 17.5,7.8356 17.499,17.501"
         transform="matrix(-0.00366,0.15576,-0.12653,-0.00297,587.44,326.52)"
         inkscape:connector-curvature="0" />
      <path
         style="fill:#a02c2c"
         id="path561"
         d="m 205,522.72 c -3.2e-4,9.665 -7.8356,17.5 -17.501,17.499 -9.6654,-0.001 -17.5,-7.8356 -17.499,-17.501 0.001,-9.6654 7.8356,-17.5 17.501,-17.499 9.6654,0.001 17.5,7.8356 17.499,17.501"
         transform="matrix(-0.00529,0.22499,-0.18276,-0.0043,612.72,320.59)"
         inkscape:connector-curvature="0" />
      <path
         style="fill:#a02c2c"
         id="path563"
         d="m 205,522.72 c -3.2e-4,9.665 -7.8356,17.5 -17.501,17.499 -9.6654,-0.001 -17.5,-7.8356 -17.499,-17.501 0.001,-9.6654 7.8356,-17.5 17.501,-17.499 9.6654,0.001 17.5,7.8356 17.499,17.501"
         transform="matrix(-0.00298,0.12692,-0.1031,-0.00242,570.27,329.4)"
         inkscape:connector-curvature="0" />
      <path
         style="fill:#a02c2c"
         id="path565"
         d="m 205,522.72 c -3.2e-4,9.665 -7.8356,17.5 -17.501,17.499 -9.6654,-0.001 -17.5,-7.8356 -17.499,-17.501 0.001,-9.6654 7.8356,-17.5 17.501,-17.499 9.6654,0.001 17.5,7.8356 17.499,17.501"
         transform="matrix(-0.00366,0.15576,-0.12653,-0.00297,619.22,320.09)"
         inkscape:connector-curvature="0" />
      <path
         style="fill:#a02c2c"
         id="path567"
         d="m 205,522.72 c -3.2e-4,9.665 -7.8356,17.5 -17.501,17.499 -9.6654,-0.001 -17.5,-7.8356 -17.499,-17.501 0.001,-9.6654 7.8356,-17.5 17.501,-17.499 9.6654,0.001 17.5,7.8356 17.499,17.501"
         transform="matrix(-0.00529,0.22499,-0.18276,-0.0043,644.51,314.16)"
         inkscape:connector-curvature="0" />
      <path
         style="fill:#a02c2c"
         id="path569"
         d="m 205,522.72 c -3.2e-4,9.665 -7.8356,17.5 -17.501,17.499 -9.6654,-0.001 -17.5,-7.8356 -17.499,-17.501 0.001,-9.6654 7.8356,-17.5 17.501,-17.499 9.6654,0.001 17.5,7.8356 17.499,17.501"
         transform="matrix(-0.00298,0.12692,-0.1031,-0.00242,602.06,322.98)"
         inkscape:connector-curvature="0" />
      <path
         style="fill:#a02c2c"
         id="path571"
         d="m 205,522.72 c -3.2e-4,9.665 -7.8356,17.5 -17.501,17.499 -9.6654,-0.001 -17.5,-7.8356 -17.499,-17.501 0.001,-9.6654 7.8356,-17.5 17.501,-17.499 9.6654,0.001 17.5,7.8356 17.499,17.501"
         transform="matrix(-0.00366,0.15576,-0.12653,-0.00297,619.22,320.09)"
         inkscape:connector-curvature="0" />
      <path
         style="fill:#a02c2c"
         id="path573"
         d="m 205,522.72 c -3.2e-4,9.665 -7.8356,17.5 -17.501,17.499 -9.6654,-0.001 -17.5,-7.8356 -17.499,-17.501 0.001,-9.6654 7.8356,-17.5 17.501,-17.499 9.6654,0.001 17.5,7.8356 17.499,17.501"
         transform="matrix(-0.00529,0.22499,-0.18276,-0.0043,644.51,314.16)"
         inkscape:connector-curvature="0" />
      <path
         style="fill:#a02c2c"
         id="path575"
         d="m 205,522.72 c -3.2e-4,9.665 -7.8356,17.5 -17.501,17.499 -9.6654,-0.001 -17.5,-7.8356 -17.499,-17.501 0.001,-9.6654 7.8356,-17.5 17.501,-17.499 9.6654,0.001 17.5,7.8356 17.499,17.501"
         transform="matrix(-0.00298,0.12692,-0.1031,-0.00242,602.06,322.98)"
         inkscape:connector-curvature="0" />
      <path
         style="fill:#a02c2c"
         id="path577"
         d="m 205,522.72 c -3.2e-4,9.665 -7.8356,17.5 -17.501,17.499 -9.6654,-0.001 -17.5,-7.8356 -17.499,-17.501 0.001,-9.6654 7.8356,-17.5 17.501,-17.499 9.6654,0.001 17.5,7.8356 17.499,17.501"
         transform="matrix(0.08656,0,0,-0.07031,536.36,396.73)"
         inkscape:connector-curvature="0" />
    </g>
  </g>
</svg>
