<?xml version="1.0" encoding="UTF-8" standalone="no"?>
<svg
   xmlns:dc="http://purl.org/dc/elements/1.1/"
   xmlns:cc="http://creativecommons.org/ns#"
   xmlns:rdf="http://www.w3.org/1999/02/22-rdf-syntax-ns#"
   xmlns:svg="http://www.w3.org/2000/svg"
   xmlns="http://www.w3.org/2000/svg"
   xmlns:sodipodi="http://sodipodi.sourceforge.net/DTD/sodipodi-0.dtd"
   xmlns:inkscape="http://www.inkscape.org/namespaces/inkscape"
   viewBox="0 0 69.999999 70"
   version="1.1"
   id="svg1749"
   sodipodi:docname="Z.svg"
   inkscape:version="0.92.3 (2405546, 2018-03-11)"
   width="70"
   height="70">
  <metadata
     id="metadata1753">
    <rdf:RDF>
      <cc:Work
         rdf:about="">
        <dc:format>image/svg+xml</dc:format>
        <dc:type
           rdf:resource="http://purl.org/dc/dcmitype/StillImage" />
        <dc:title></dc:title>
        <dc:title></dc:title>
      </cc:Work>
    </rdf:RDF>
  </metadata>
  <sodipodi:namedview
     pagecolor="#ffffff"
     bordercolor="#666666"
     borderopacity="1"
     objecttolerance="10"
     gridtolerance="10"
     guidetolerance="10"
     inkscape:pageopacity="0"
     inkscape:pageshadow="2"
     inkscape:window-width="1920"
     inkscape:window-height="1052"
     id="namedview1751"
     showgrid="false"
     inkscape:zoom="4.4779145"
     inkscape:cx="22.30818"
     inkscape:cy="50.256837"
     inkscape:window-x="0"
     inkscape:window-y="360"
     inkscape:window-maximized="1"
     inkscape:current-layer="g1425" />
  <defs
     id="defs5">
    <filter
       id="a"
       x="-0.46415001"
       y="-0.46415001"
       width="1.9283"
       height="1.9283">
      <feGaussianBlur
         stdDeviation="3.0281"
         id="feGaussianBlur2" />
    </filter>
    <filter
       height="1.9283"
       width="1.9283"
       y="-0.46415001"
       x="-0.46415001"
       id="a-4">
      <feGaussianBlur
         id="feGaussianBlur2-6"
         stdDeviation="3.0281" />
    </filter>
    <filter
       height="1.9283"
       width="1.9283"
       y="-0.46415001"
       x="-0.46415001"
       id="filter11866">
      <feGaussianBlur
         id="feGaussianBlur11864"
         stdDeviation="3.0281" />
    </filter>
    <filter
       height="1.9283"
       width="1.9283"
       y="-0.46415001"
       x="-0.46415001"
       id="filter11870">
      <feGaussianBlur
         id="feGaussianBlur11868"
         stdDeviation="3.0281" />
    </filter>
    <filter
       height="1.9283"
       width="1.9283"
       y="-0.46415001"
       x="-0.46415001"
       id="filter11874">
      <feGaussianBlur
         id="feGaussianBlur11872"
         stdDeviation="3.0281" />
    </filter>
    <filter
       height="1.9283"
       width="1.9283"
       y="-0.46415001"
       x="-0.46415001"
       id="filter11878">
      <feGaussianBlur
         id="feGaussianBlur11876"
         stdDeviation="3.0281" />
    </filter>
    <filter
       height="1.9283"
       width="1.9283"
       y="-0.46415001"
       x="-0.46415001"
       id="filter11882">
      <feGaussianBlur
         id="feGaussianBlur11880"
         stdDeviation="3.0281" />
    </filter>
    <filter
       height="1.9283"
       width="1.9283"
       y="-0.46415001"
       x="-0.46415001"
       id="filter11886">
      <feGaussianBlur
         id="feGaussianBlur11884"
         stdDeviation="3.0281" />
    </filter>
    <filter
       height="1.9283"
       width="1.9283"
       y="-0.46415001"
       x="-0.46415001"
       id="filter11890">
      <feGaussianBlur
         id="feGaussianBlur11888"
         stdDeviation="3.0281" />
    </filter>
    <filter
       height="1.9283"
       width="1.9283"
       y="-0.46415001"
       x="-0.46415001"
       id="filter11894">
      <feGaussianBlur
         id="feGaussianBlur11892"
         stdDeviation="3.0281" />
    </filter>
    <filter
       height="1.9283"
       width="1.9283"
       y="-0.46415001"
       x="-0.46415001"
       id="filter11898">
      <feGaussianBlur
         id="feGaussianBlur11896"
         stdDeviation="3.0281" />
    </filter>
    <filter
       height="1.9283"
       width="1.9283"
       y="-0.46415001"
       x="-0.46415001"
       id="filter11902">
      <feGaussianBlur
         id="feGaussianBlur11900"
         stdDeviation="3.0281" />
    </filter>
    <filter
       height="1.9283"
       width="1.9283"
       y="-0.46415001"
       x="-0.46415001"
       id="a-1">
      <feGaussianBlur
         id="feGaussianBlur2-5"
         stdDeviation="3.0281" />
    </filter>
    <filter
       height="1.9283"
       width="1.9283"
       y="-0.46415001"
       x="-0.46415001"
       id="filter13363">
      <feGaussianBlur
         id="feGaussianBlur13361"
         stdDeviation="3.0281" />
    </filter>
    <filter
       height="1.9283"
       width="1.9283"
       y="-0.46415001"
       x="-0.46415001"
       id="filter13367">
      <feGaussianBlur
         id="feGaussianBlur13365"
         stdDeviation="3.0281" />
    </filter>
    <filter
       height="1.9283"
       width="1.9283"
       y="-0.46415001"
       x="-0.46415001"
       id="filter13371">
      <feGaussianBlur
         id="feGaussianBlur13369"
         stdDeviation="3.0281" />
    </filter>
    <filter
       height="1.9283"
       width="1.9283"
       y="-0.46415001"
       x="-0.46415001"
       id="filter13375">
      <feGaussianBlur
         id="feGaussianBlur13373"
         stdDeviation="3.0281" />
    </filter>
    <filter
       height="1.9283"
       width="1.9283"
       y="-0.46415001"
       x="-0.46415001"
       id="filter13379">
      <feGaussianBlur
         id="feGaussianBlur13377"
         stdDeviation="3.0281" />
    </filter>
    <filter
       height="1.9283"
       width="1.9283"
       y="-0.46415001"
       x="-0.46415001"
       id="filter13383">
      <feGaussianBlur
         id="feGaussianBlur13381"
         stdDeviation="3.0281" />
    </filter>
    <filter
       height="1.9283"
       width="1.9283"
       y="-0.46415001"
       x="-0.46415001"
       id="filter13387">
      <feGaussianBlur
         id="feGaussianBlur13385"
         stdDeviation="3.0281" />
    </filter>
    <filter
       height="1.9283"
       width="1.9283"
       y="-0.46415001"
       x="-0.46415001"
       id="filter13391">
      <feGaussianBlur
         id="feGaussianBlur13389"
         stdDeviation="3.0281" />
    </filter>
    <filter
       height="1.9283"
       width="1.9283"
       y="-0.46415001"
       x="-0.46415001"
       id="filter13395">
      <feGaussianBlur
         id="feGaussianBlur13393"
         stdDeviation="3.0281" />
    </filter>
    <filter
       height="1.9283"
       width="1.9283"
       y="-0.46415001"
       x="-0.46415001"
       id="filter13399">
      <feGaussianBlur
         id="feGaussianBlur13397"
         stdDeviation="3.0281" />
    </filter>
    <filter
       height="1.9283"
       width="1.9283"
       y="-0.46415001"
       x="-0.46415001"
       id="filter13403">
      <feGaussianBlur
         id="feGaussianBlur13401"
         stdDeviation="3.0281" />
    </filter>
    <filter
       height="1.9283"
       width="1.9283"
       y="-0.46415001"
       x="-0.46415001"
       id="filter13407">
      <feGaussianBlur
         id="feGaussianBlur13405"
         stdDeviation="3.0281" />
    </filter>
    <filter
       height="1.9283"
       width="1.9283"
       y="-0.46415001"
       x="-0.46415001"
       id="filter13411">
      <feGaussianBlur
         id="feGaussianBlur13409"
         stdDeviation="3.0281" />
    </filter>
    <filter
       height="1.9283"
       width="1.9283"
       y="-0.46415001"
       x="-0.46415001"
       id="filter13415">
      <feGaussianBlur
         id="feGaussianBlur13413"
         stdDeviation="3.0281" />
    </filter>
    <filter
       height="1.9283"
       width="1.9283"
       y="-0.46415001"
       x="-0.46415001"
       id="filter13419">
      <feGaussianBlur
         id="feGaussianBlur13417"
         stdDeviation="3.0281" />
    </filter>
    <filter
       height="1.9283"
       width="1.9283"
       y="-0.46415001"
       x="-0.46415001"
       id="filter13423">
      <feGaussianBlur
         id="feGaussianBlur13421"
         stdDeviation="3.0281" />
    </filter>
    <filter
       height="1.9283"
       width="1.9283"
       y="-0.46415001"
       x="-0.46415001"
       id="filter13427">
      <feGaussianBlur
         id="feGaussianBlur13425"
         stdDeviation="3.0281" />
    </filter>
    <filter
       height="1.9283"
       width="1.9283"
       y="-0.46415001"
       x="-0.46415001"
       id="filter13431">
      <feGaussianBlur
         id="feGaussianBlur13429"
         stdDeviation="3.0281" />
    </filter>
    <filter
       height="1.9283"
       width="1.9283"
       y="-0.46415001"
       x="-0.46415001"
       id="filter13435">
      <feGaussianBlur
         id="feGaussianBlur13433"
         stdDeviation="3.0281" />
    </filter>
    <filter
       height="1.9283"
       width="1.9283"
       y="-0.46415001"
       x="-0.46415001"
       id="filter13439">
      <feGaussianBlur
         id="feGaussianBlur13437"
         stdDeviation="3.0281" />
    </filter>
    <filter
       height="1.9283"
       width="1.9283"
       y="-0.46415001"
       x="-0.46415001"
       id="filter13443">
      <feGaussianBlur
         id="feGaussianBlur13441"
         stdDeviation="3.0281" />
    </filter>
    <filter
       height="1.9283"
       width="1.9283"
       y="-0.46415001"
       x="-0.46415001"
       id="filter13447">
      <feGaussianBlur
         id="feGaussianBlur13445"
         stdDeviation="3.0281" />
    </filter>
    <filter
       height="1.9283"
       width="1.9283"
       y="-0.46415001"
       x="-0.46415001"
       id="filter13451">
      <feGaussianBlur
         id="feGaussianBlur13449"
         stdDeviation="3.0281" />
    </filter>
    <filter
       height="1.9283"
       width="1.9283"
       y="-0.46415001"
       x="-0.46415001"
       id="filter13455">
      <feGaussianBlur
         id="feGaussianBlur13453"
         stdDeviation="3.0281" />
    </filter>
    <filter
       height="1.9283"
       width="1.9283"
       y="-0.46415001"
       x="-0.46415001"
       id="filter13459">
      <feGaussianBlur
         id="feGaussianBlur13457"
         stdDeviation="3.0281" />
    </filter>
    <filter
       height="1.9283"
       width="1.9283"
       y="-0.46415001"
       x="-0.46415001"
       id="filter13463">
      <feGaussianBlur
         id="feGaussianBlur13461"
         stdDeviation="3.0281" />
    </filter>
    <filter
       height="1.9283"
       width="1.9283"
       y="-0.46415001"
       x="-0.46415001"
       id="filter13467">
      <feGaussianBlur
         id="feGaussianBlur13465"
         stdDeviation="3.0281" />
    </filter>
    <filter
       height="1.9283"
       width="1.9283"
       y="-0.46415001"
       x="-0.46415001"
       id="filter13471">
      <feGaussianBlur
         id="feGaussianBlur13469"
         stdDeviation="3.0281" />
    </filter>
    <filter
       height="1.9283"
       width="1.9283"
       y="-0.46415001"
       x="-0.46415001"
       id="filter13475">
      <feGaussianBlur
         id="feGaussianBlur13473"
         stdDeviation="3.0281" />
    </filter>
  </defs>
  <g
     id="g1425"
     transform="translate(-485.43934,-247.68893)">
    <g
       id="g1021"
       transform="translate(-211.04418,-62.900477)"
       inkscape:transform-center-x="7.3712054"
       inkscape:transform-center-y="-0.66789538">
      <path
         style="fill:#aad400;stroke:#668000;stroke-opacity:0.63919995"
         id="path945"
         d="m 757.58,367.22 c 0.12343,8.659 -10.514,8.2866 -16.637,7.8066 -10.193,-0.27475 -20.61,0.88963 -30.649,-0.92589 -8.6313,-4.2059 -5.4153,-15.592 1.1777,-20.076 6.0902,-6.9161 12.26,-13.762 18.37,-20.66 -6.8289,-0.70534 -15.251,2.0502 -20.76,-3.2004 -5.5936,-8.7829 5.9357,-15.048 13.547,-12.372 9.5585,0.22922 19.333,-0.82772 28.744,0.86337 7.9968,4.0465 4.6944,14.476 -1.3444,18.669 -6.4649,7.3911 -12.973,14.744 -19.449,22.126 8.2348,1.0246 18.205,-2.446 25.233,2.7395 1.1438,1.4056 1.79,3.2157 1.7666,5.03 z"
         inkscape:connector-curvature="0" />
      <path
         style="fill:#eeffaa;stroke:#445500;stroke-width:3"
         id="path947"
         d="m 447.14,337.72 c -2.4e-4,7.298 -5.9167,13.214 -13.215,13.214 -7.2983,0 -13.214,-5.9167 -13.214,-13.215 0,-7.2983 5.9167,-13.214 13.215,-13.214 7.2983,0 13.214,5.9167 13.214,13.215"
         transform="matrix(0.3308,0,0,0.26872,584.71,240.79)"
         inkscape:connector-curvature="0" />
      <path
         style="fill:#eeffaa;stroke:#445500;stroke-width:3"
         id="path949"
         d="m 447.14,337.72 c -2.4e-4,7.298 -5.9167,13.214 -13.215,13.214 -7.2983,0 -13.214,-5.9167 -13.214,-13.215 0,-7.2983 5.9167,-13.214 13.215,-13.214 7.2983,0 13.214,5.9167 13.214,13.215"
         transform="matrix(0.42688,0,0,0.34677,554.08,219.12)"
         inkscape:connector-curvature="0" />
      <path
         style="fill:#445500"
         id="path951"
         d="m 447.14,337.72 c -2.4e-4,7.298 -5.9167,13.214 -13.215,13.214 -7.2983,0 -13.214,-5.9167 -13.214,-13.215 0,-7.2983 5.9167,-13.214 13.215,-13.214 7.2983,0 13.214,5.9167 13.214,13.215"
         transform="matrix(0.24172,0,0,0.19636,635.03,270.08)"
         inkscape:connector-curvature="0" />
      <path
         style="fill:#222b00"
         id="path953"
         d="m 447.14,337.72 c -2.4e-4,7.298 -5.9167,13.214 -13.215,13.214 -7.2983,0 -13.214,-5.9167 -13.214,-13.215 0,-7.2983 5.9167,-13.214 13.215,-13.214 7.2983,0 13.214,5.9167 13.214,13.215"
         transform="matrix(0.13905,0,0,0.11296,679.79,298.19)"
         inkscape:connector-curvature="0" />
      <path
         style="fill:#eeffaa"
         id="path955"
         d="m 447.14,337.72 c -2.4e-4,7.298 -5.9167,13.214 -13.215,13.214 -7.2983,0 -13.214,-5.9167 -13.214,-13.215 0,-7.2983 5.9167,-13.214 13.215,-13.214 7.2983,0 13.214,5.9167 13.214,13.215"
         transform="matrix(0.0634,0,0,0.0515,713.62,318.13)"
         inkscape:connector-curvature="0" />
      <path
         style="fill:#445500"
         id="path957"
         d="m 447.14,337.72 c -2.4e-4,7.298 -5.9167,13.214 -13.215,13.214 -7.2983,0 -13.214,-5.9167 -13.214,-13.215 0,-7.2983 5.9167,-13.214 13.215,-13.214 7.2983,0 13.214,5.9167 13.214,13.215"
         transform="matrix(0.17148,0,0,0.1393,654.52,284.86)"
         inkscape:connector-curvature="0" />
      <path
         style="fill:#222b00"
         id="path959"
         d="m 447.14,337.72 c -2.4e-4,7.298 -5.9167,13.214 -13.215,13.214 -7.2983,0 -13.214,-5.9167 -13.214,-13.215 0,-7.2983 5.9167,-13.214 13.215,-13.214 7.2983,0 13.214,5.9167 13.214,13.215"
         transform="matrix(0.09864,0,0,0.08013,686.28,304.8)"
         inkscape:connector-curvature="0" />
      <path
         style="fill:#eeffaa"
         id="path961"
         d="m 447.14,337.72 c -2.4e-4,7.298 -5.9167,13.214 -13.215,13.214 -7.2983,0 -13.214,-5.9167 -13.214,-13.215 0,-7.2983 5.9167,-13.214 13.215,-13.214 7.2983,0 13.214,5.9167 13.214,13.215"
         transform="matrix(0.04498,0,0,0.03654,710.27,318.95)"
         inkscape:connector-curvature="0" />
      <path
         style="fill:#eeffaa;fill-rule:evenodd;stroke:#445500;stroke-width:0.64346999"
         id="path963"
         d="m 721.02,339.4 10.277,4.3938 c 0,0 -2.8847,3.0757 -6.4907,2.9292 -3.606,-0.1465 -3.7862,-7.616 -3.7862,-7.323 z"
         inkscape:connector-curvature="0" />
      <path
         style="fill:none;stroke:#668000;stroke-width:0.76454002"
         id="path965"
         d="m 723.37,340.58 -1.4138,1.6406"
         inkscape:connector-curvature="0" />
      <path
         style="fill:none;stroke:#668000;stroke-width:0.76454002"
         id="path967"
         d="m 728.22,342.31 -2.0197,1.4766 v -0.16406"
         inkscape:connector-curvature="0" />
      <path
         style="fill:none;stroke:#668000;stroke-width:0.76454002"
         id="path969"
         d="m 722.97,345.59 1.6157,-2.7891"
         inkscape:connector-curvature="0" />
      <path
         style="fill:#91b700"
         id="path971"
         d="m 205,522.72 c -3.2e-4,9.665 -7.8356,17.5 -17.501,17.499 -9.6654,-0.001 -17.5,-7.8356 -17.499,-17.501 0.001,-9.6654 7.8356,-17.5 17.501,-17.499 9.6654,0.001 17.5,7.8356 17.499,17.501"
         transform="matrix(0.12695,0,0,0.10313,727.82,272.87)"
         inkscape:connector-curvature="0" />
      <path
         style="fill:#91b700"
         id="path973"
         d="m 205,522.72 c -3.2e-4,9.665 -7.8356,17.5 -17.501,17.499 -9.6654,-0.001 -17.5,-7.8356 -17.499,-17.501 0.001,-9.6654 7.8356,-17.5 17.501,-17.499 9.6654,0.001 17.5,7.8356 17.499,17.501"
         transform="matrix(-0.00665,-0.28268,-0.22963,0.0054,866.94,374.59)"
         inkscape:connector-curvature="0" />
      <path
         style="fill:#91b700"
         id="path975"
         d="m 205,522.72 c -3.2e-4,9.665 -7.8356,17.5 -17.501,17.499 -9.6654,-0.001 -17.5,-7.8356 -17.499,-17.501 0.001,-9.6654 7.8356,-17.5 17.501,-17.499 9.6654,0.001 17.5,7.8356 17.499,17.501"
         transform="matrix(-0.00665,-0.28268,-0.22963,0.0054,869.8,417.09)"
         inkscape:connector-curvature="0" />
      <path
         style="fill:#91b700"
         id="path977"
         d="m 205,522.72 c -3.2e-4,9.665 -7.8356,17.5 -17.501,17.499 -9.6654,-0.001 -17.5,-7.8356 -17.499,-17.501 0.001,-9.6654 7.8356,-17.5 17.501,-17.499 9.6654,0.001 17.5,7.8356 17.499,17.501"
         transform="matrix(0.28275,0,0,0.22969,659.97,248.05)"
         inkscape:connector-curvature="0" />
      <path
         style="fill:#91b700"
         id="path979"
         d="m 205,522.72 c -3.2e-4,9.665 -7.8356,17.5 -17.501,17.499 -9.6654,-0.001 -17.5,-7.8356 -17.499,-17.501 0.001,-9.6654 7.8356,-17.5 17.501,-17.499 9.6654,0.001 17.5,7.8356 17.499,17.501"
         transform="matrix(0.1558,0,0,0.12656,688.82,285.43)"
         inkscape:connector-curvature="0" />
      <path
         style="fill:#91b700"
         id="path981"
         d="m 205,522.72 c -3.2e-4,9.665 -7.8356,17.5 -17.501,17.499 -9.6654,-0.001 -17.5,-7.8356 -17.499,-17.501 0.001,-9.6654 7.8356,-17.5 17.501,-17.499 9.6654,0.001 17.5,7.8356 17.499,17.501"
         transform="matrix(0.12695,0,0,0.10313,697.11,311.8)"
         inkscape:connector-curvature="0" />
      <path
         style="fill:#91b700"
         id="path983"
         d="m 205,522.72 c -3.2e-4,9.665 -7.8356,17.5 -17.501,17.499 -9.6654,-0.001 -17.5,-7.8356 -17.499,-17.501 0.001,-9.6654 7.8356,-17.5 17.501,-17.499 9.6654,0.001 17.5,7.8356 17.499,17.501"
         transform="matrix(0.12695,0,0,0.10313,688.27,307.73)"
         inkscape:connector-curvature="0" />
      <path
         style="fill:#91b700"
         id="path985"
         d="m 205,522.72 c -3.2e-4,9.665 -7.8356,17.5 -17.501,17.499 -9.6654,-0.001 -17.5,-7.8356 -17.499,-17.501 0.001,-9.6654 7.8356,-17.5 17.501,-17.499 9.6654,0.001 17.5,7.8356 17.499,17.501"
         transform="matrix(-0.00366,-0.15576,-0.12653,0.00297,797.72,391.99)"
         inkscape:connector-curvature="0" />
      <path
         style="fill:#91b700"
         id="path987"
         d="m 205,522.72 c -3.2e-4,9.665 -7.8356,17.5 -17.501,17.499 -9.6654,-0.001 -17.5,-7.8356 -17.499,-17.501 0.001,-9.6654 7.8356,-17.5 17.501,-17.499 9.6654,0.001 17.5,7.8356 17.499,17.501"
         transform="matrix(-0.00298,-0.12692,-0.1031,0.00242,794.13,392.32)"
         inkscape:connector-curvature="0" />
      <path
         style="fill:#91b700"
         id="path989"
         d="m 205,522.72 c -3.2e-4,9.665 -7.8356,17.5 -17.501,17.499 -9.6654,-0.001 -17.5,-7.8356 -17.499,-17.501 0.001,-9.6654 7.8356,-17.5 17.501,-17.499 9.6654,0.001 17.5,7.8356 17.499,17.501"
         transform="matrix(-0.00298,-0.12692,-0.1031,0.00242,770.9,380.55)"
         inkscape:connector-curvature="0" />
      <path
         style="fill:#91b700"
         id="path991"
         d="m 205,522.72 c -3.2e-4,9.665 -7.8356,17.5 -17.501,17.499 -9.6654,-0.001 -17.5,-7.8356 -17.499,-17.501 0.001,-9.6654 7.8356,-17.5 17.501,-17.499 9.6654,0.001 17.5,7.8356 17.499,17.501"
         transform="matrix(0.28275,0,0,0.22969,659.97,248.05)"
         inkscape:connector-curvature="0" />
      <path
         style="fill:#91b700"
         id="path993"
         d="m 205,522.72 c -3.2e-4,9.665 -7.8356,17.5 -17.501,17.499 -9.6654,-0.001 -17.5,-7.8356 -17.499,-17.501 0.001,-9.6654 7.8356,-17.5 17.501,-17.499 9.6654,0.001 17.5,7.8356 17.499,17.501"
         transform="matrix(0.28275,0,0,0.22969,659.97,248.05)"
         inkscape:connector-curvature="0" />
      <path
         style="fill:#91b700"
         id="path995"
         d="m 205,522.72 c -3.2e-4,9.665 -7.8356,17.5 -17.501,17.499 -9.6654,-0.001 -17.5,-7.8356 -17.499,-17.501 0.001,-9.6654 7.8356,-17.5 17.501,-17.499 9.6654,0.001 17.5,7.8356 17.499,17.501"
         transform="matrix(-0.00366,-0.15576,-0.12653,0.00297,796.3,397.7)"
         inkscape:connector-curvature="0" />
      <path
         style="fill:#91b700"
         id="path997"
         d="m 205,522.72 c -3.2e-4,9.665 -7.8356,17.5 -17.501,17.499 -9.6654,-0.001 -17.5,-7.8356 -17.499,-17.501 0.001,-9.6654 7.8356,-17.5 17.501,-17.499 9.6654,0.001 17.5,7.8356 17.499,17.501"
         transform="matrix(-0.00298,-0.12692,-0.1031,0.00242,780.54,380.19)"
         inkscape:connector-curvature="0" />
      <path
         style="fill:#91b700"
         id="path999"
         d="m 205,522.72 c -3.2e-4,9.665 -7.8356,17.5 -17.501,17.499 -9.6654,-0.001 -17.5,-7.8356 -17.499,-17.501 0.001,-9.6654 7.8356,-17.5 17.501,-17.499 9.6654,0.001 17.5,7.8356 17.499,17.501"
         transform="matrix(0.1558,0,0,0.12656,697.03,255.43)"
         inkscape:connector-curvature="0" />
      <path
         style="fill:#91b700"
         id="path1001"
         d="m 205,522.72 c -3.2e-4,9.665 -7.8356,17.5 -17.501,17.499 -9.6654,-0.001 -17.5,-7.8356 -17.499,-17.501 0.001,-9.6654 7.8356,-17.5 17.501,-17.499 9.6654,0.001 17.5,7.8356 17.499,17.501"
         transform="matrix(0.12695,0,0,0.10313,709.97,267.52)"
         inkscape:connector-curvature="0" />
      <path
         style="fill:#91b700"
         id="path1003"
         d="m 205,522.72 c -3.2e-4,9.665 -7.8356,17.5 -17.501,17.499 -9.6654,-0.001 -17.5,-7.8356 -17.499,-17.501 0.001,-9.6654 7.8356,-17.5 17.501,-17.499 9.6654,0.001 17.5,7.8356 17.499,17.501"
         transform="matrix(0.12695,0,0,0.10313,692.91,274.52)"
         inkscape:connector-curvature="0" />
      <path
         style="fill:#91b700"
         id="path1005"
         d="m 205,522.72 c -3.2e-4,9.665 -7.8356,17.5 -17.501,17.499 -9.6654,-0.001 -17.5,-7.8356 -17.499,-17.501 0.001,-9.6654 7.8356,-17.5 17.501,-17.499 9.6654,0.001 17.5,7.8356 17.499,17.501"
         transform="matrix(-0.00298,-0.12692,-0.1031,0.00242,790.2,350.18)"
         inkscape:connector-curvature="0" />
      <path
         style="fill:#91b700"
         id="path1007"
         d="m 205,522.72 c -3.2e-4,9.665 -7.8356,17.5 -17.501,17.499 -9.6654,-0.001 -17.5,-7.8356 -17.499,-17.501 0.001,-9.6654 7.8356,-17.5 17.501,-17.499 9.6654,0.001 17.5,7.8356 17.499,17.501"
         transform="matrix(-0.00298,-0.12692,-0.1031,0.00242,775.54,347.34)"
         inkscape:connector-curvature="0" />
      <path
         style="fill:#91b700"
         id="path1009"
         d="m 205,522.72 c -3.2e-4,9.665 -7.8356,17.5 -17.501,17.499 -9.6654,-0.001 -17.5,-7.8356 -17.499,-17.501 0.001,-9.6654 7.8356,-17.5 17.501,-17.499 9.6654,0.001 17.5,7.8356 17.499,17.501"
         transform="matrix(-0.00298,-0.12692,-0.1031,0.00242,768.76,344.84)"
         inkscape:connector-curvature="0" />
      <path
         style="fill:#638200;fill-opacity:0.19220001;stroke:#638200;stroke-opacity:0.19220001"
         id="path1011"
         d="m 205,522.72 c -3.2e-4,9.665 -7.8356,17.5 -17.501,17.499 -9.6654,-0.001 -17.5,-7.8356 -17.499,-17.501 0.001,-9.6654 7.8356,-17.5 17.501,-17.499 9.6654,0.001 17.5,7.8356 17.499,17.501"
         transform="matrix(0.08656,0,0,0.07031,707,332.85)"
         inkscape:connector-curvature="0" />
      <path
         style="fill:#638200;fill-opacity:0.19220001;stroke:#638200;stroke-opacity:0.19220001"
         id="path1013"
         d="m 205,522.72 c -3.2e-4,9.665 -7.8356,17.5 -17.501,17.499 -9.6654,-0.001 -17.5,-7.8356 -17.499,-17.501 0.001,-9.6654 7.8356,-17.5 17.501,-17.499 9.6654,0.001 17.5,7.8356 17.499,17.501"
         transform="matrix(-0.00529,-0.22499,-0.18276,0.0043,831.13,387.53)"
         inkscape:connector-curvature="0" />
      <path
         style="fill:#638200;fill-opacity:0.19220001;stroke:#638200;stroke-opacity:0.19220001"
         id="path1015"
         d="m 205,522.72 c -3.2e-4,9.665 -7.8356,17.5 -17.501,17.499 -9.6654,-0.001 -17.5,-7.8356 -17.499,-17.501 0.001,-9.6654 7.8356,-17.5 17.501,-17.499 9.6654,0.001 17.5,7.8356 17.499,17.501"
         transform="matrix(-0.00285,-0.12115,-0.09841,0.00231,781.64,360.42)"
         inkscape:connector-curvature="0" />
      <path
         style="fill:#638200;fill-opacity:0.19220001;stroke:#638200;stroke-opacity:0.19220001"
         id="path1017"
         d="m 205,522.72 c -3.2e-4,9.665 -7.8356,17.5 -17.501,17.499 -9.6654,-0.001 -17.5,-7.8356 -17.499,-17.501 0.001,-9.6654 7.8356,-17.5 17.501,-17.499 9.6654,0.001 17.5,7.8356 17.499,17.501"
         transform="matrix(0.08656,0,0,0.07031,731.64,296.06)"
         inkscape:connector-curvature="0" />
      <path
         style="fill:#638200;fill-opacity:0.19220001;stroke:#638200;stroke-opacity:0.19220001"
         id="path1019"
         d="m 205,522.72 c -3.2e-4,9.665 -7.8356,17.5 -17.501,17.499 -9.6654,-0.001 -17.5,-7.8356 -17.499,-17.501 0.001,-9.6654 7.8356,-17.5 17.501,-17.499 9.6654,0.001 17.5,7.8356 17.499,17.501"
         transform="matrix(-0.00285,-0.12115,-0.09841,0.00231,778.42,372.2)"
         inkscape:connector-curvature="0" />
    </g>
  </g>
</svg>
