<?xml version="1.0" encoding="UTF-8" standalone="no"?>
<svg
   xmlns:dc="http://purl.org/dc/elements/1.1/"
   xmlns:cc="http://creativecommons.org/ns#"
   xmlns:rdf="http://www.w3.org/1999/02/22-rdf-syntax-ns#"
   xmlns:svg="http://www.w3.org/2000/svg"
   xmlns="http://www.w3.org/2000/svg"
   xmlns:sodipodi="http://sodipodi.sourceforge.net/DTD/sodipodi-0.dtd"
   xmlns:inkscape="http://www.inkscape.org/namespaces/inkscape"
   width="400mm"
   height="200mm"
   version="1.1"
   viewBox="0 0 1417.3228 708.6614"
   id="svg150"
   sodipodi:docname="ambulance1.svg"
   inkscape:version="0.92.3 (2405546, 2018-03-11)">
  <metadata
     id="metadata154">
    <rdf:RDF>
      <cc:Work
         rdf:about="">
        <dc:format>image/svg+xml</dc:format>
        <dc:type
           rdf:resource="http://purl.org/dc/dcmitype/StillImage" />
        <dc:title></dc:title>
      </cc:Work>
    </rdf:RDF>
  </metadata>
  <sodipodi:namedview
     pagecolor="#ffffff"
     bordercolor="#666666"
     borderopacity="1"
     objecttolerance="10"
     gridtolerance="10"
     guidetolerance="10"
     inkscape:pageopacity="0"
     inkscape:pageshadow="2"
     inkscape:window-width="1677"
     inkscape:window-height="813"
     id="namedview152"
     showgrid="false"
     inkscape:zoom="0.2102413"
     inkscape:cx="396.85039"
     inkscape:cy="561.25984"
     inkscape:window-x="0"
     inkscape:window-y="360"
     inkscape:window-maximized="0"
     inkscape:current-layer="svg150" />
  <defs
     id="defs4">
    <style
       type="text/css"
       id="style2">.fil0 {fill:black}</style>
  </defs>
  <path
     d="m 942.78729,41.320679 c 41.19528,24.87466 124.57581,105.064501 118.93081,146.697991 l -14.8664,0.0744 -14.8663,0.0744 -14.8664,0.0744 -14.8663,0.0744 -14.86635,0.0744 -14.86635,0.0744 -14.86635,0.0744 -14.86636,0.0744 v -55.2343 -18.41142 -55.234261 z"
     id="path6"
     inkscape:connector-curvature="0"
     style="fill:#cccccc;fill-rule:evenodd;stroke-width:0.61664623" />
  <path
     d="m 985.4174,199.84302 180.6977,0.57112 43.8162,149.3767 -224.20807,-0.57112 z"
     id="path8"
     inkscape:connector-curvature="0"
     style="fill:#aaeeff;fill-rule:evenodd;stroke-width:0.61664623" />
  <rect
     transform="rotate(90)"
     x="343.36703"
     y="-1212.5901"
     width="5.8498368"
     height="226.86929"
     style="color:#000000;opacity:0.13699999;isolation:auto;mix-blend-mode:normal;solid-color:#000000;stroke-width:0.61664623;color-rendering:auto;image-rendering:auto;shape-rendering:auto"
     id="rect10" />
  <rect
     x="985.41742"
     y="199.843"
     width="185.04004"
     height="15.371047"
     ry="0"
     style="color:#000000;opacity:0.13699999;isolation:auto;mix-blend-mode:normal;solid-color:#000000;stroke-width:0.61664623;color-rendering:auto;image-rendering:auto;shape-rendering:auto"
     id="rect12" />
  <rect
     x="45.967545"
     y="590.48187"
     width="8.1617603"
     height="21.62833"
     style="color:#000000;isolation:auto;mix-blend-mode:normal;solid-color:#000000;fill:#666666;stroke-width:0.61664623;color-rendering:auto;image-rendering:auto;shape-rendering:auto"
     id="rect14" />
  <path
     d="m 32.940471,66.072749 c 0,1.45931 -4.44316,2.88406 -4.15811,4.26013 0.28492,1.37614 0.70532,2.70361 1.24662,3.96806 0.54125,1.26451 1.20346,2.46601 1.97236,3.59064 0.76885,1.12457 1.64433,2.17215 2.61218,3.12852 0.96778,0.95637 2.02794,1.82141 3.16607,2.58119 1.13806,0.75973 2.35417,1.41427 3.63386,1.94909 1.27969,0.53485 2.62297,0.95012 4.01556,1.23172 0.55427,0.11204 5.11188,0.20256 10.47562,0.27138 v -41.96144 c -5.36355,0.0688 -9.92104,0.15929 -10.47562,0.27138 -1.39259,0.28157 -2.73587,0.69683 -4.01556,1.23172 -1.27969,0.53484 -2.4958,1.1893 -3.63386,1.94908 -1.13813,0.75973 -2.19829,1.62489 -3.16607,2.58119 -0.96785,0.95637 -1.84333,2.00395 -2.61218,3.12852 -0.7689,1.12463 -1.43111,2.32613 -1.97236,3.59065 -0.5413,1.26451 -0.9617,2.59198 -1.24662,3.96805 -0.28505,1.37608 4.15811,2.80094 4.15811,4.26026 z"
     style="color:#000000;isolation:auto;mix-blend-mode:normal;solid-color:#000000;fill:#0066ff;stroke-width:0.61664623;color-rendering:auto;image-rendering:auto;shape-rendering:auto"
     id="path16"
     inkscape:connector-curvature="0" />
  <g
     transform="matrix(0.62033601,0,0,0.6129784,981.0217,395.29364)"
     id="g24"
     style="shape-rendering:auto">
    <rect
       x="-628.63"
       y="331.10999"
       width="13.157"
       height="35.284"
       style="color:#000000;isolation:auto;mix-blend-mode:normal;solid-color:#000000;fill:#666666;color-rendering:auto;image-rendering:auto"
       id="rect18" />
    <rect
       x="-366.09"
       y="331.10999"
       width="13.157"
       height="35.284"
       style="color:#000000;isolation:auto;mix-blend-mode:normal;solid-color:#000000;fill:#666666;color-rendering:auto;image-rendering:auto"
       id="rect20" />
    <rect
       x="-628.63"
       y="355.23001"
       width="275.70001"
       height="20.298"
       style="color:#000000;isolation:auto;mix-blend-mode:normal;solid-color:#000000;fill:#1a1a1a;color-rendering:auto;image-rendering:auto"
       id="rect22" />
  </g>
  <rect
     x="42.369568"
     y="41.320683"
     width="900.35571"
     height="556.93378"
     ry="1.0675632"
     style="color:#000000;isolation:auto;mix-blend-mode:normal;solid-color:#000000;fill:#f9f9f9;stroke-width:0.61664623;color-rendering:auto;image-rendering:auto;shape-rendering:auto"
     id="rect26" />
  <rect
     x="795.14728"
     y="417.19168"
     width="141.72197"
     height="61.64724"
     ry="0"
     style="color:#000000;isolation:auto;mix-blend-mode:normal;solid-color:#000000;fill:#ff0000;stroke-width:0.61664623;color-rendering:auto;image-rendering:auto;shape-rendering:auto"
     id="rect28" />
  <path
     d="m 1110.6254,141.29133 c -2.6993,0 -5.3346,0.2702 -7.8801,0.78486 -2.5455,0.51467 -5.0009,1.27401 -7.3399,2.25159 -2.3389,0.97758 -4.5614,2.17356 -6.6413,3.5622 -2.0801,1.38864 -4.0179,2.96988 -5.7869,4.71785 -1.7689,1.74797 -3.3691,3.66273 -4.7745,5.71823 -1.4053,2.0555 -2.6159,4.25186 -3.6052,6.56316 -0.9893,2.31123 -1.7575,4.73728 -2.2784,7.25276 -0.2072,1.00105 -0.3746,9.23268 -0.5019,18.91958 h 77.6164 c -0.1273,-9.6869 -0.2946,-17.91859 -0.502,-18.91958 -0.5208,-2.51517 -1.289,-4.94122 -2.2783,-7.25276 -0.9893,-2.31154 -2.1999,-4.5076 -3.6052,-6.56316 -1.4053,-2.0555 -3.0056,-3.97026 -4.7745,-5.71823 -1.769,-1.74797 -3.7067,-3.32921 -5.7869,-4.71785 -2.0802,-1.3887 -4.3026,-2.58462 -6.6419,-3.5622 -2.339,-0.97758 -4.7944,-1.73688 -7.3398,-2.25159 -2.5455,-0.51472 -5.181,-0.78486 -7.8802,-0.78486 z"
     style="color:#000000;isolation:auto;mix-blend-mode:normal;solid-color:#000000;fill:#0066ff;stroke-width:0.61664623;color-rendering:auto;image-rendering:auto;shape-rendering:auto"
     id="path30"
     inkscape:connector-curvature="0" />
  <path
     d="M 942.78729,172.67582 V 595.77803 H 1384.0819 V 417.49327 c 0,0 6e-4,-0.004 0,-0.006 -0.1166,-0.24818 -0.6346,-0.52975 -0.6346,-0.52975 -45.7814,-26.37769 -91.8221,-52.51141 -137.7456,-78.71256 l -40.351,-151.06805 c -1.2354,-3.15573 -2.1215,-6.83042 -4.7507,-8.9973 -4.5727,-3.7684 -11.184,-4.29232 -17.0642,-5.21987 -0.041,-0.006 -0.082,-0.006 -0.1236,-0.007 l -46.5469,-0.0539 -64.6948,-0.0754 -64.6949,-0.0754 z m 42.63011,27.1672 180.6977,0.57108 43.8162,149.37671 -224.20807,-0.57108 z"
     id="path32"
     inkscape:connector-curvature="0"
     style="fill:#f9f9f9;fill-rule:evenodd;stroke-width:0.61664623" />
  <rect
     transform="rotate(90)"
     x="592.33307"
     y="-1384.0819"
     width="5.9396381"
     height="1335.7075"
     style="color:#000000;opacity:0.13699999;isolation:auto;mix-blend-mode:normal;solid-color:#000000;stroke-width:0.61664623;color-rendering:auto;image-rendering:auto;shape-rendering:auto"
     id="rect34" />
  <path
     d="M 292.73719,486.16524 A 117.86384,116.4659 0 0 0 175.09667,598.25447 H 410.44595 A 117.86384,116.4659 0 0 0 292.73719,486.16524 Z"
     style="color:#000000;isolation:auto;mix-blend-mode:normal;solid-color:#000000;fill:#666666;stroke:#000000;stroke-width:1.92701948;stroke-linecap:round;color-rendering:auto;image-rendering:auto;shape-rendering:auto"
     id="path36"
     inkscape:connector-curvature="0" />
  <ellipse
     cx="292.79919"
     cy="603.50763"
     style="color:#000000;isolation:auto;mix-blend-mode:normal;solid-color:#000000;stroke-width:0.61664623;color-rendering:auto;image-rendering:auto;shape-rendering:auto"
     id="circle38"
     rx="88.621201"
     ry="87.570091" />
  <ellipse
     cx="292.79919"
     cy="603.50763"
     style="color:#000000;isolation:auto;mix-blend-mode:normal;solid-color:#000000;fill:#ffffff;stroke-width:0.61664623;color-rendering:auto;image-rendering:auto;shape-rendering:auto"
     id="circle40"
     rx="58.489002"
     ry="57.795284" />
  <ellipse
     cx="292.79919"
     cy="603.50763"
     style="color:#000000;isolation:auto;mix-blend-mode:normal;solid-color:#000000;stroke-width:0.61664623;color-rendering:auto;image-rendering:auto;shape-rendering:auto"
     id="circle42"
     rx="15.06548"
     ry="14.886793" />
  <rect
     x="212.5898"
     y="201.45515"
     width="142.75793"
     height="59.674671"
     ry="1.3607507"
     style="color:#000000;isolation:auto;mix-blend-mode:normal;solid-color:#000000;fill:#ff0000;stroke-width:0.61664623;color-rendering:auto;image-rendering:auto;shape-rendering:auto"
     id="rect44" />
  <rect
     transform="rotate(90)"
     x="160.75951"
     y="-314.20078"
     width="141.06473"
     height="60.390949"
     ry="1.3770839"
     style="color:#000000;isolation:auto;mix-blend-mode:normal;solid-color:#000000;fill:#ff0000;stroke-width:0.61664623;color-rendering:auto;image-rendering:auto;shape-rendering:auto"
     id="rect46" />
  <rect
     x="42.369568"
     y="41.320683"
     width="5.9711061"
     height="556.93378"
     style="color:#000000;opacity:0.13699999;isolation:auto;mix-blend-mode:normal;solid-color:#000000;stroke-width:0.61664623;color-rendering:auto;image-rendering:auto;shape-rendering:auto"
     id="rect48" />
  <rect
     x="48.386795"
     y="417.19168"
     width="746.7605"
     height="61.64724"
     ry="0.42858225"
     style="color:#000000;isolation:auto;mix-blend-mode:normal;solid-color:#000000;fill:#ff0000;stroke-width:0.61664623;color-rendering:auto;image-rendering:auto;shape-rendering:auto"
     id="rect50" />
  <path
     d="m 1225.4372,486.16524 a 117.86384,116.4659 0 0 0 -117.6405,112.08923 h 235.3492 A 117.86384,116.4659 0 0 0 1225.4372,486.16524 Z"
     style="color:#000000;isolation:auto;mix-blend-mode:normal;solid-color:#000000;fill:#666666;stroke:#000000;stroke-width:1.92701948;stroke-linecap:round;color-rendering:auto;image-rendering:auto;shape-rendering:auto"
     id="path52"
     inkscape:connector-curvature="0" />
  <ellipse
     cx="1225.4745"
     cy="603.50763"
     style="color:#000000;isolation:auto;mix-blend-mode:normal;solid-color:#000000;stroke-width:0.61664623;color-rendering:auto;image-rendering:auto;shape-rendering:auto"
     id="circle54"
     rx="88.621201"
     ry="87.570091" />
  <ellipse
     cx="1225.4745"
     cy="603.50763"
     style="color:#000000;isolation:auto;mix-blend-mode:normal;solid-color:#000000;fill:#ffffff;stroke-width:0.61664623;color-rendering:auto;image-rendering:auto;shape-rendering:auto"
     id="circle56"
     rx="58.489002"
     ry="57.795284" />
  <ellipse
     cx="1225.4745"
     cy="603.50763"
     style="color:#000000;isolation:auto;mix-blend-mode:normal;solid-color:#000000;stroke-width:0.61664623;color-rendering:auto;image-rendering:auto;shape-rendering:auto"
     id="circle58"
     rx="15.06548"
     ry="14.886793" />
  <rect
     x="936.86743"
     y="41.320683"
     width="5.9200525"
     height="551.01239"
     style="color:#000000;opacity:0.13699999;isolation:auto;mix-blend-mode:normal;solid-color:#000000;stroke-width:0.61664623;color-rendering:auto;image-rendering:auto;shape-rendering:auto"
     id="rect60" />
  <rect
     x="48.386795"
     y="54.493626"
     width="888.50732"
     height="24.081469"
     ry="0.16741054"
     style="color:#000000;isolation:auto;mix-blend-mode:normal;solid-color:#000000;fill:#ff0000;stroke-width:0.61664623;color-rendering:auto;image-rendering:auto;shape-rendering:auto"
     id="rect62" />
  <rect
     x="1357.5067"
     y="522.94391"
     width="46.968117"
     height="47.286991"
     ry="14.599306"
     style="color:#000000;isolation:auto;mix-blend-mode:normal;solid-color:#000000;fill:#4d4d4d;stroke-width:0.61664623;color-rendering:auto;image-rendering:auto;shape-rendering:auto"
     id="rect64" />
  <rect
     x="1375.9866"
     y="488.72748"
     width="15.65418"
     height="25.962088"
     ry="0"
     style="color:#000000;isolation:auto;mix-blend-mode:normal;solid-color:#000000;fill:#ffcc00;stroke-width:0.61664623;color-rendering:auto;image-rendering:auto;shape-rendering:auto"
     id="rect66" />
  <rect
     x="20.161497"
     y="605.26691"
     width="33.955952"
     height="12.442236"
     style="color:#000000;isolation:auto;mix-blend-mode:normal;solid-color:#000000;fill:#1a1a1a;stroke-width:0.61664623;color-rendering:auto;image-rendering:auto;shape-rendering:auto"
     id="rect68" />
  <rect
     x="991.74518"
     y="366.94278"
     width="17.838383"
     height="32.14275"
     ry="8.8134041"
     style="color:#000000;isolation:auto;mix-blend-mode:normal;solid-color:#000000;fill:#b3b3b3;stroke:#808080;stroke-width:2.45240211;stroke-linecap:round;color-rendering:auto;image-rendering:auto;shape-rendering:auto"
     id="rect70" />
  <rect
     x="1000.4594"
     y="373.68246"
     width="10.357751"
     height="18.663353"
     ry="5.1173892"
     style="color:#000000;isolation:auto;mix-blend-mode:normal;solid-color:#000000;stroke-width:0.61664623;color-rendering:auto;image-rendering:auto;shape-rendering:auto"
     id="rect72" />
  <ellipse
     cx="1002.3152"
     cy="339.33298"
     rx="3.8161211"
     ry="2.8513916"
     style="color:#000000;isolation:auto;mix-blend-mode:normal;solid-color:#000000;fill:#666666;stroke-width:0.61664623;color-rendering:auto;image-rendering:auto;shape-rendering:auto"
     id="ellipse74" />
  <rect
     transform="matrix(0.9998405,-0.01785964,0.0331903,0.99944905,0,0)"
     x="989.11621"
     y="356.03653"
     width="2.7133484"
     height="11.087062"
     ry="0"
     style="color:#000000;isolation:auto;mix-blend-mode:normal;solid-color:#000000;fill:#666666;stroke-width:0.61664903;color-rendering:auto;image-rendering:auto;shape-rendering:auto"
     id="rect76" />
  <rect
     x="438.90073"
     y="341.8793"
     width="29.678734"
     height="47.451885"
     ry="14.66367"
     style="color:#000000;opacity:0.13699999;isolation:auto;mix-blend-mode:normal;solid-color:#000000;stroke-width:0.61664623;color-rendering:auto;image-rendering:auto;shape-rendering:auto"
     id="rect78" />
  <rect
     transform="rotate(90)"
     x="369.06979"
     y="-463.18692"
     width="10.2349"
     height="18.887371"
     ry="5.178813"
     style="color:#000000;isolation:auto;mix-blend-mode:normal;solid-color:#000000;stroke-width:0.61664623;color-rendering:auto;image-rendering:auto;shape-rendering:auto"
     id="rect80" />
  <g
     transform="matrix(0.62033601,0,0,0.6129784,1350.3294,395.29364)"
     id="g90">
    <g
       transform="translate(-99.371,-38.766)"
       id="g88"
       style="shape-rendering:auto">
      <rect
         x="-420.14999"
         y="331.10999"
         width="13.157"
         height="35.284"
         style="color:#000000;isolation:auto;mix-blend-mode:normal;solid-color:#000000;fill:#666666;color-rendering:auto;image-rendering:auto"
         id="rect82" />
      <rect
         x="-366.09"
         y="331.10999"
         width="13.157"
         height="35.284"
         style="color:#000000;isolation:auto;mix-blend-mode:normal;solid-color:#000000;fill:#666666;color-rendering:auto;image-rendering:auto"
         id="rect84" />
      <rect
         x="-420.14999"
         y="355.23001"
         width="67.214996"
         height="20.298"
         style="color:#000000;isolation:auto;mix-blend-mode:normal;solid-color:#000000;fill:#1a1a1a;color-rendering:auto;image-rendering:auto"
         id="rect86" />
    </g>
  </g>
  <rect
     x="1375.4282"
     y="417.19168"
     width="7.6909256"
     height="67.642166"
     rx="0"
     ry="0.66937244"
     style="color:#000000;isolation:auto;mix-blend-mode:normal;solid-color:#000000;fill:#4d4d4d;stroke-width:0.61664623;color-rendering:auto;image-rendering:auto;shape-rendering:auto"
     id="rect92" />
  <g
     transform="matrix(0.62033601,0,0,0.6129784,1001.0362,387.51862)"
     id="g108">
    <flowRoot
       transform="matrix(3.3438,0,0,3.3438,4708.1,3932.5)"
       font-size="40px"
       letter-spacing="0px"
       word-spacing="0px"
       style="font-size:40px;line-height:125%;font-family:sans-serif;letter-spacing:0px;word-spacing:0px;fill:#000000;stroke-width:1px"
       id="flowRoot100">
      <flowRegion
         id="flowRegion96">
        <rect
           x="-1772.9"
           y="-1217.8"
           width="1633.9"
           height="364.45999"
           id="rect94" />
      </flowRegion>
      <flowPara
         font-weight="bold"
         id="flowPara98"
         style="font-weight:bold;font-family:sans-serif">112</flowPara>
    </flowRoot>
    <g
       transform="matrix(0.042943,0,0,0.042943,-1370.4,-106.88)"
       id="g106"
       style="clip-rule:evenodd;fill-rule:evenodd;image-rendering:optimizeQuality;shape-rendering:geometricPrecision">
      <path
         class="fil0"
         d="M 1680,2460 H 135 c 0,-296 83,-573 228,-808 62,19 128,29 197,29 378,0 685,-307 685,-685 v -18 c 138,-40 284,-62 435,-62 152,0 298,22 437,63 -1,16 -2,31 -2,47 0,378 307,685 685,685 74,0 145,-12 212,-33 135,230 213,497 213,783 H 1680 Z m 0,-1213 c 256,0 463,207 463,463 0,256 -207,463 -463,463 -256,0 -463,-207 -463,-463 0,-256 207,-463 463,-463 z"
         id="path102"
         inkscape:connector-curvature="0"
         style="fill:#000000" />
      <path
         class="fil0"
         d="m 1058,740 c 40,77 62,164 62,257 0,309 -251,560 -560,560 C 251,1557 0,1306 0,997 0,898 26,806 70,725 269,307 914,1 1680,1 c 861,0 1570,387 1662,885 12,45 18,92 18,140 0,309 -251,560 -560,560 -309,0 -560,-251 -560,-560 0,-101 27,-195 73,-276 -135,-123 -368,-204 -633,-204 -258,0 -486,77 -622,194 z"
         id="path104"
         inkscape:connector-curvature="0"
         style="fill:#000000" />
    </g>
  </g>
  <path
     d="m 942.78729,172.67582 c 33.08438,573.28189 16.5425,286.64096 0,0 z"
     id="path110"
     inkscape:connector-curvature="0"
     style="fill:#808080;fill-rule:evenodd;stroke-width:0.61664623" />
  <rect
     x="42.43158"
     y="488.4884"
     width="15.65418"
     height="25.962088"
     ry="0"
     style="color:#000000;isolation:auto;mix-blend-mode:normal;solid-color:#000000;fill:#ff2a2a;stroke-width:0.61664623;color-rendering:auto;image-rendering:auto;shape-rendering:auto"
     id="rect112" />
  <rect
     x="34.42923"
     y="522.94391"
     width="46.968117"
     height="47.286991"
     ry="14.599306"
     style="color:#000000;isolation:auto;mix-blend-mode:normal;solid-color:#000000;fill:#4d4d4d;stroke-width:0.61664623;color-rendering:auto;image-rendering:auto;shape-rendering:auto"
     id="rect114" />
  <rect
     transform="rotate(90)"
     x="41.320683"
     y="-936.86743"
     width="5.9002848"
     height="888.50732"
     style="color:#000000;opacity:0.13699999;isolation:auto;mix-blend-mode:normal;solid-color:#000000;stroke-width:0.61664623;color-rendering:auto;image-rendering:auto;shape-rendering:auto"
     id="rect116" />
  <rect
     x="1375.9866"
     y="452.88052"
     width="15.65418"
     height="25.962088"
     ry="0"
     style="color:#000000;isolation:auto;mix-blend-mode:normal;solid-color:#000000;fill:#0066ff;stroke-width:0.61664623;color-rendering:auto;image-rendering:auto;shape-rendering:auto"
     id="rect118" />
  <rect
     x="1375.9866"
     y="417.19168"
     width="15.65418"
     height="25.962088"
     ry="0"
     style="color:#000000;isolation:auto;mix-blend-mode:normal;solid-color:#000000;fill:#0066ff;stroke-width:0.61664623;color-rendering:auto;image-rendering:auto;shape-rendering:auto"
     id="rect120" />
  <rect
     x="942.78729"
     y="417.19168"
     width="433.19925"
     height="61.64724"
     ry="0"
     style="color:#000000;isolation:auto;mix-blend-mode:normal;solid-color:#000000;fill:#ff0000;stroke-width:0.61664623;color-rendering:auto;image-rendering:auto;shape-rendering:auto"
     id="rect122" />
  <rect
     x="559.70502"
     y="417.19168"
     width="235.83315"
     height="61.64724"
     ry="0.42858225"
     style="color:#000000;isolation:auto;mix-blend-mode:normal;solid-color:#000000;fill:#ff0000;stroke-width:0.61664623;color-rendering:auto;image-rendering:auto;shape-rendering:auto"
     id="rect124" />
  <rect
     x="549.6059"
     y="148.62865"
     width="17.838383"
     height="32.14275"
     ry="8.8134041"
     style="color:#000000;isolation:auto;mix-blend-mode:normal;solid-color:#000000;stroke-width:0.61664623;color-rendering:auto;image-rendering:auto;shape-rendering:auto"
     id="rect126" />
  <rect
     x="549.6059"
     y="460.0217"
     width="17.838383"
     height="32.14275"
     ry="8.8134041"
     style="color:#000000;isolation:auto;mix-blend-mode:normal;solid-color:#000000;stroke-width:0.61664623;color-rendering:auto;image-rendering:auto;shape-rendering:auto"
     id="rect128" />
  <rect
     x="557.99908"
     y="88.538376"
     width="237.14204"
     height="467.10181"
     ry="41.421402"
     style="color:#000000;isolation:auto;mix-blend-mode:normal;solid-color:#000000;fill:#f9f9f9;stroke:#808080;stroke-width:3.50070071;stroke-linecap:round;color-rendering:auto;image-rendering:auto;shape-rendering:auto"
     id="rect130" />
  <rect
     x="751.73621"
     y="334.95023"
     width="17.838383"
     height="32.14275"
     ry="8.8134041"
     style="color:#000000;isolation:auto;mix-blend-mode:normal;solid-color:#000000;fill:#b3b3b3;stroke:#808080;stroke-width:2.45240211;stroke-linecap:round;color-rendering:auto;image-rendering:auto;shape-rendering:auto"
     id="rect132" />
  <rect
     x="760.44574"
     y="341.6893"
     width="10.357751"
     height="18.663353"
     ry="5.1173892"
     style="color:#000000;isolation:auto;mix-blend-mode:normal;solid-color:#000000;stroke-width:0.61664623;color-rendering:auto;image-rendering:auto;shape-rendering:auto"
     id="rect134" />
  <rect
     transform="rotate(90)"
     x="351.9064"
     y="-463.18692"
     width="10.2349"
     height="18.887371"
     ry="5.178813"
     style="color:#000000;isolation:auto;mix-blend-mode:normal;solid-color:#000000;stroke-width:0.61664623;color-rendering:auto;image-rendering:auto;shape-rendering:auto"
     id="rect136" />
  <rect
     x="953.18665"
     y="158.84703"
     width="78.553146"
     height="3.7864902"
     ry="1.8932451"
     style="color:#000000;isolation:auto;mix-blend-mode:normal;solid-color:#000000;fill:#4d4d4d;stroke-width:0.61664623;color-rendering:auto;image-rendering:auto;shape-rendering:auto"
     id="rect138" />
  <rect
     x="953.18665"
     y="150.26534"
     width="78.553146"
     height="3.7864902"
     ry="1.8932451"
     style="color:#000000;isolation:auto;mix-blend-mode:normal;solid-color:#000000;fill:#4d4d4d;stroke-width:0.61664623;color-rendering:auto;image-rendering:auto;shape-rendering:auto"
     id="rect140" />
  <rect
     x="953.18665"
     y="141.68361"
     width="78.553146"
     height="3.7864902"
     ry="1.8932451"
     style="color:#000000;isolation:auto;mix-blend-mode:normal;solid-color:#000000;fill:#4d4d4d;stroke-width:0.61664623;color-rendering:auto;image-rendering:auto;shape-rendering:auto"
     id="rect142" />
  <rect
     x="826.72864"
     y="524.0473"
     width="78.553146"
     height="3.7864902"
     ry="1.8932451"
     style="color:#000000;isolation:auto;mix-blend-mode:normal;solid-color:#000000;fill:#4d4d4d;stroke-width:0.61664623;color-rendering:auto;image-rendering:auto;shape-rendering:auto"
     id="rect144" />
  <rect
     x="826.72864"
     y="515.46558"
     width="78.553146"
     height="3.7864902"
     ry="1.8932451"
     style="color:#000000;isolation:auto;mix-blend-mode:normal;solid-color:#000000;fill:#4d4d4d;stroke-width:0.61664623;color-rendering:auto;image-rendering:auto;shape-rendering:auto"
     id="rect146" />
  <rect
     x="826.72864"
     y="506.88391"
     width="78.553146"
     height="3.7864902"
     ry="1.8932451"
     style="color:#000000;isolation:auto;mix-blend-mode:normal;solid-color:#000000;fill:#4d4d4d;stroke-width:0.61664623;color-rendering:auto;image-rendering:auto;shape-rendering:auto"
     id="rect148" />
</svg>
