<?xml version="1.0" encoding="UTF-8"?>
<svg viewBox="0 0 547.18768 500.00769" xmlns="http://www.w3.org/2000/svg" xmlns:xlink="http://www.w3.org/1999/xlink">
 <defs>
  <linearGradient id="d">
   <stop stop-color="#333" offset="0"/>
   <stop stop-color="#4d4d4d" offset="1"/>
  </linearGradient>
  <linearGradient id="b">
   <stop stop-color="#ffb142" offset="0"/>
   <stop stop-color="#c87600" offset="1"/>
  </linearGradient>
  <linearGradient id="h" x1="-559.92" x2="-478.36" gradientUnits="userSpaceOnUse">
   <stop stop-color="#46474a" offset="0"/>
   <stop stop-color="#2f2f2f" offset="1"/>
  </linearGradient>
  <linearGradient id="e" x1="161.97" x2="161.97" y1="538.14" y2="546.48" gradientUnits="userSpaceOnUse" xlink:href="#b"/>
  <linearGradient id="c" x1="161.97" x2="161.97" y1="538.14" y2="546.48" gradientUnits="userSpaceOnUse" xlink:href="#b"/>
  <linearGradient id="j" x1="161.97" x2="161.97" y1="538.14" y2="546.48" gradientUnits="userSpaceOnUse" xlink:href="#b"/>
  <linearGradient id="i" x1="156.82" x2="161.85" gradientUnits="userSpaceOnUse" xlink:href="#b"/>
  <linearGradient id="g" x2="0" y1="142.77" y2="129.49" gradientUnits="userSpaceOnUse" xlink:href="#d"/>
  <linearGradient id="f" x2="0" y1="141.66" y2="129.59" gradientUnits="userSpaceOnUse" xlink:href="#d"/>
  <linearGradient id="a" x1="284.61" x2="263.9" y1="674.82" y2="663.96" gradientUnits="userSpaceOnUse" xlink:href="#d"/>
 </defs>
 <g transform="matrix(2.2822 0 0 2.2822 -107.24 -760.6)">
  <path d="m156.05 537.24a8.4453 13.645 0 0 1 -16.891 0 8.4453 13.645 0 1 1 16.891 0z" fill="url(#e)" stroke="#000" stroke-linecap="round" stroke-linejoin="round" stroke-width="2.9633"/>
  <path d="m135.6 537.24a8.4453 13.645 0 0 1 -16.891 0 8.4453 13.645 0 1 1 16.891 0z" fill="url(#e)" stroke="#000" stroke-linecap="round" stroke-linejoin="round" stroke-width="2.9633"/>
  <path d="m145.68 537.24a8.4453 13.645 0 0 1 -16.891 0 8.4453 13.645 0 1 1 16.891 0z" fill="url(#c)" stroke="#000" stroke-linecap="round" stroke-linejoin="round" stroke-width="2.9633"/>
  <path d="m201.68 537.24a8.4453 13.645 0 0 1 -16.891 0 8.4453 13.645 0 1 1 16.891 0z" fill="url(#c)" stroke="#000" stroke-linecap="round" stroke-linejoin="round" stroke-width="2.9633"/>
  <path d="m181.24 537.24a8.4453 13.645 0 0 1 -16.891 0 8.4453 13.645 0 1 1 16.891 0z" fill="url(#j)" stroke="#000" stroke-linecap="round" stroke-linejoin="round" stroke-width="2.9633"/>
  <path d="m191.31 537.24a8.4453 13.645 0 0 1 -16.891 0 8.4453 13.645 0 1 1 16.891 0z" fill="url(#c)" stroke="#000" stroke-linecap="round" stroke-linejoin="round" stroke-width="2.9633"/>
  <path d="m127.16 523.59c-3.4412 0-6.389 3.3368-7.7045 8.112 11.243 3.0073 23.596 4.7615 36.578 5.0005-0.17683-7.2806-3.8777-13.112-8.4268-13.112-1.9563 0-3.7535 1.0831-5.1857 2.8892-1.4323-1.8061-3.2294-2.8892-5.1857-2.8892-1.8881 0-3.6306 1.0104-5.0376 2.704-1.4069-1.6936-3.1495-2.704-5.0376-2.704zm45.634 0c-4.5375 0-8.2324 5.8024-8.4268 13.057 12.968-0.41743 25.256-2.3609 36.411-5.5376-1.3911-4.4542-4.2417-7.5193-7.5378-7.5193-1.9563 0-3.7535 1.0831-5.1857 2.8892-1.4323-1.8061-3.2294-2.8892-5.1857-2.8892-1.8881 0-3.6306 1.0104-5.0376 2.704-1.4069-1.6936-3.1495-2.704-5.0376-2.704z" fill-opacity=".3137"/>
  <path d="m257.19 432.88a98.122 98.122 0 0 1 -196.24 0 98.122 98.122 0 1 1 196.24 0z" fill="#784421" stroke="#000" stroke-linecap="round" stroke-width="2.9633"/>
  <path d="m207.57 481.94c-15.705-2.918-1.3319 12.82-3.7401 18.51-9.52-4.681-5.8926 10.816-10.198 15.121-8.1572-0.43626-9.4305 7.7894-15.121 10.198-6.8757-3.8147-11.946 3.7401-18.51 3.7401s-10.449-7.2584-18.51-3.7401c-5.6904-2.4082-6.9637-10.337-15.121-10.198-4.305-4.305-3.6408-20.691-10.198-15.121-2.4082-5.6904 8.7056-22.613-3.7401-18.51 0-6.5645 13.185-18.746 3.7401-18.51 2.4082-5.6904 14.486-9.9269 10.198-15.121 8.6099-8.6099 20.502-13.938 33.631-13.938s25.021 5.3277 33.631 13.938c-6.3628 3.1196 7.7894 9.4305 10.198 15.121-10.63-0.53245 3.7401 11.946 3.7401 18.51z" fill="#fff" stroke="#000" stroke-linecap="round" stroke-linejoin="round" stroke-width="2.9633"/>
  <path d="m245.76 386.91c1.1738 6.0643 1.7964 12.319 1.7964 18.724 0 2.2105-0.0781 4.4005-0.22225 6.5748-2.1766-0.10834-4.4913 0.0113-6.9637 0.37041-20.871 4.4441-11.956 30.619-17.391 58.006-12.566 20.231-19.211 22.566-51.438 30.668-7.1059 1.6369-14.506 2.5018-22.106 2.5018-18.001 0-34.867-4.8641-49.375-13.335-14.034-32.858 4.7864-68.549-19.946-74.711-27.328-4.9341-37.912 20.421-20.243 58.413 9.7557 20.977 25.913 31.28 37.8 35.281 16.81 13.513 38.162 21.595 61.395 21.595 27.232 0 51.891-11.106 69.674-29.04 10.344-5.1664 21.846-14.576 29.836-30.318 14.942-29.438 12.081-51.607-3.2411-57.747-1.8786-9.5631-5.1359-18.634-9.575-26.984z" fill-opacity=".3137" fill-rule="evenodd"/>
  <path d="m131.83 357.13c-18.511 0-33.546 17.383-33.546 38.802s15.035 38.802 33.546 38.802c10.879 0 20.532-6.01 26.66-15.308 6.1278 9.3046 15.802 15.308 26.686 15.308 18.511 0 33.546-17.383 33.546-38.802s-15.035-38.802-33.546-38.802c-10.882 0-20.558 6.0052-26.686 15.308-6.1284-9.2959-15.783-15.308-26.66-15.308z" fill="#fff" stroke="#000" stroke-linecap="round" stroke-width="2.9633"/>
  <path d="m159.51 422.87c-5.5046 0-11.488 6.1205-11.248 9.986s9.8125 19.972 11.966 19.972 10.53-15.784 10.291-20.294-7.4192-9.986-11.009-9.6639z" fill-opacity=".3137" fill-rule="evenodd"/>
  <path d="m158.25 416.58c-5.5046 0-11.488 5.5154-11.248 8.9987s9.8125 17.997 11.966 17.997 10.53-14.224 10.291-18.288-7.4192-8.9987-11.009-8.7084z" fill="url(#i)" fill-rule="evenodd" stroke="#000" stroke-width="2.9633"/>
  <path d="m156.38 398.56a9.7119 9.7119 0 1 1 -19.424 0 9.7119 9.7119 0 1 1 19.424 0z" stroke="#000" stroke-linecap="round" stroke-width="2.9633"/>
  <path d="m166.7 363.66c7.868-19.06 21.137-21.64 21.137-21.64s-7.3805 9.942-0.69576 7.1763c10.351-4.2824 43.262 9.1377 43.262 9.1377s-43.604-10.15-63.703 5.3257z" fill="#fff" fill-rule="evenodd" stroke="#000" stroke-linejoin="round" stroke-width="2.9633"/>
  <path d="m148.66 361.89c-7.868-19.06-21.137-21.64-21.137-21.64s7.3805 9.942 0.69576 7.1763c-10.351-4.2824-43.262 9.1377-43.262 9.1377s43.604-10.15 63.703 5.3257z" fill="#fff" fill-rule="evenodd" stroke="#000" stroke-linejoin="round" stroke-width="2.9633"/>
  <path d="m180.97 398.56a9.7119 9.7119 0 1 1 -19.424 0 9.7119 9.7119 0 1 1 19.424 0z" stroke="#000" stroke-linecap="round" stroke-width="2.9633"/>
  <path d="m145.68 395.16a2.5188 2.5188 0 0 1 -5.0376 0 2.5188 2.5188 0 1 1 5.0376 0z" fill="#fff"/>
  <path d="m170.27 395.16a2.5188 2.5188 0 0 1 -5.0376 0 2.5188 2.5188 0 1 1 5.0376 0z" fill="#fff"/>
  <path d="m49.408 428.6c-2.0457 9.7822-0.76958 22.92 4.6116 38.411 14.138 40.701 54.125 46.812 48.431 39.467-2.4352-3.141-4.457-6.3263-6.1118-9.5195-11.232-2.6915-32.032-14.447-41.43-41.504-3.4845-10.032-5.2473-19.072-5.5006-26.855zm42.245 3.7596c-0.52323 5.0589-1.1001 10.438-1.352 16.076 0.58868-5.8025 1.2324-11.226 1.352-16.076z" fill-opacity=".3137" fill-rule="evenodd"/>
  <path transform="matrix(-.34378,-.93905,.93905,-.34378,0,0)" d="m-550.44-11.535h62.596a9.3446 8.9252 0 0 1 9.3446 8.9252v95.317a9.3446 8.9252 0 0 1 -9.3446 8.9252h-62.596a9.3446 8.9252 0 0 1 -9.3446 -8.9252v-95.317a9.3446 8.9252 0 0 1 9.3446 -8.9252" fill="url(#h)" stroke="#000" stroke-miterlimit="0" stroke-width="2.9633"/>
  <path d="m188 516.07-20.7-56.543 70.014-25.632 20.7 56.543-70.014 25.632z" fill="#c9c9c9" stroke="#000" stroke-linejoin="round" stroke-miterlimit="0" stroke-width="2.8536"/>
  <g transform="matrix(-.24092 -.65808 .65808 -.24092 144.86 402.03)" stroke="#000">
   <path d="m-153.37 133.53h36.253a3.1088 3.3745 0 0 1 3.1088 3.3745 3.1088 3.3745 0 0 1 -3.1088 3.3745h-36.253a3.1088 3.3745 0 0 1 -3.1088 -3.3745 3.1088 3.3745 0 0 1 3.1088 -3.3745" fill="url(#g)" stroke-width="1.3"/>
   <path d="m-99.308 133.44h8.7603a3.5573 3.4599 0 0 1 3.5573 3.4599 3.5573 3.4599 0 0 1 -3.5573 3.4599h-8.7603a3.5573 3.4599 0 0 1 -3.5573 -3.4599 3.5573 3.4599 0 0 1 3.5573 -3.4599" fill="url(#f)" stroke-width="1.3"/>
   <path transform="matrix(.3752 0 0 .3752 -272.35 -136.85)" d="m278.8 682.02c0 4.9513-4.0138 8.9651-8.9651 8.9651s-8.9651-4.0138-8.9651-8.9651 4.0138-8.9651 8.9651-8.9651 8.9651 4.0138 8.9651 8.9651z" fill="url(#a)" stroke-width="3.4648"/>
   <path transform="matrix(.3752 0 0 .3752 -263.49 -136.85)" d="m278.8 682.02c0 4.9513-4.0138 8.9651-8.9651 8.9651s-8.9651-4.0138-8.9651-8.9651 4.0138-8.9651 8.9651-8.9651 8.9651 4.0138 8.9651 8.9651z" fill="url(#a)" stroke-width="3.4648"/>
   <path transform="matrix(.3752 0 0 .3752 -254.4 -136.85)" d="m278.8 682.02c0 4.9513-4.0138 8.9651-8.9651 8.9651s-8.9651-4.0138-8.9651-8.9651 4.0138-8.9651 8.9651-8.9651 8.9651 4.0138 8.9651 8.9651z" fill="url(#a)" stroke-width="3.4648"/>
   <path transform="matrix(.3752 0 0 .3752 -245.54 -136.85)" d="m278.8 682.02c0 4.9513-4.0138 8.9651-8.9651 8.9651s-8.9651-4.0138-8.9651-8.9651 4.0138-8.9651 8.9651-8.9651 8.9651 4.0138 8.9651 8.9651z" fill="url(#a)" stroke-width="3.4648"/>
   <path transform="matrix(.3752 0 0 .3752 -200.48 -136.8)" d="m278.8 682.02c0 4.9513-4.0138 8.9651-8.9651 8.9651s-8.9651-4.0138-8.9651-8.9651 4.0138-8.9651 8.9651-8.9651 8.9651 4.0138 8.9651 8.9651z" fill="url(#a)" stroke-width="3.4648"/>
   <path transform="matrix(.3752 0 0 .3752 -191.62 -136.8)" d="m278.8 682.02c0 4.9513-4.0138 8.9651-8.9651 8.9651s-8.9651-4.0138-8.9651-8.9651 4.0138-8.9651 8.9651-8.9651 8.9651 4.0138 8.9651 8.9651z" fill="url(#a)" stroke-width="3.4648"/>
   <path transform="matrix(.3752 0 0 .3752 -236.49 -136.85)" d="m278.8 682.02c0 4.9513-4.0138 8.9651-8.9651 8.9651s-8.9651-4.0138-8.9651-8.9651 4.0138-8.9651 8.9651-8.9651 8.9651 4.0138 8.9651 8.9651z" fill="url(#a)" stroke-width="3.4648"/>
   <path transform="matrix(.3752 0 0 .3752 -227.63 -136.85)" d="m278.8 682.02c0 4.9513-4.0138 8.9651-8.9651 8.9651s-8.9651-4.0138-8.9651-8.9651 4.0138-8.9651 8.9651-8.9651 8.9651 4.0138 8.9651 8.9651z" fill="url(#a)" stroke-width="3.4648"/>
   <path transform="matrix(.3752 0 0 .3752 -218.53 -136.85)" d="m278.8 682.02c0 4.9513-4.0138 8.9651-8.9651 8.9651s-8.9651-4.0138-8.9651-8.9651 4.0138-8.9651 8.9651-8.9651 8.9651 4.0138 8.9651 8.9651z" fill="url(#a)" stroke-width="3.4648"/>
   <path transform="matrix(.3752 0 0 .3752 -209.67 -136.85)" d="m278.8 682.02c0 4.9513-4.0138 8.9651-8.9651 8.9651s-8.9651-4.0138-8.9651-8.9651 4.0138-8.9651 8.9651-8.9651 8.9651 4.0138 8.9651 8.9651z" fill="url(#a)" stroke-width="3.4648"/>
   <path transform="matrix(.3752 0 0 .3752 -272.35 -128.01)" d="m278.8 682.02c0 4.9513-4.0138 8.9651-8.9651 8.9651s-8.9651-4.0138-8.9651-8.9651 4.0138-8.9651 8.9651-8.9651 8.9651 4.0138 8.9651 8.9651z" fill="url(#a)" stroke-width="3.4648"/>
   <path transform="matrix(.3752 0 0 .3752 -263.49 -128.01)" d="m278.8 682.02c0 4.9513-4.0138 8.9651-8.9651 8.9651s-8.9651-4.0138-8.9651-8.9651 4.0138-8.9651 8.9651-8.9651 8.9651 4.0138 8.9651 8.9651z" fill="url(#a)" stroke-width="3.4648"/>
   <path transform="matrix(.3752 0 0 .3752 -254.4 -128.01)" d="m278.8 682.02c0 4.9513-4.0138 8.9651-8.9651 8.9651s-8.9651-4.0138-8.9651-8.9651 4.0138-8.9651 8.9651-8.9651 8.9651 4.0138 8.9651 8.9651z" fill="url(#a)" stroke-width="3.4648"/>
   <path transform="matrix(.3752 0 0 .3752 -245.54 -128.01)" d="m278.8 682.02c0 4.9513-4.0138 8.9651-8.9651 8.9651s-8.9651-4.0138-8.9651-8.9651 4.0138-8.9651 8.9651-8.9651 8.9651 4.0138 8.9651 8.9651z" fill="url(#a)" stroke-width="3.4648"/>
   <path transform="matrix(.3752 0 0 .3752 -200.48 -127.97)" d="m278.8 682.02c0 4.9513-4.0138 8.9651-8.9651 8.9651s-8.9651-4.0138-8.9651-8.9651 4.0138-8.9651 8.9651-8.9651 8.9651 4.0138 8.9651 8.9651z" fill="url(#a)" stroke-width="3.4648"/>
   <path transform="matrix(.3752 0 0 .3752 -191.62 -127.97)" d="m278.8 682.02c0 4.9513-4.0138 8.9651-8.9651 8.9651s-8.9651-4.0138-8.9651-8.9651 4.0138-8.9651 8.9651-8.9651 8.9651 4.0138 8.9651 8.9651z" fill="url(#a)" stroke-width="3.4648"/>
   <path transform="matrix(.3752 0 0 .3752 -236.49 -128.01)" d="m278.8 682.02c0 4.9513-4.0138 8.9651-8.9651 8.9651s-8.9651-4.0138-8.9651-8.9651 4.0138-8.9651 8.9651-8.9651 8.9651 4.0138 8.9651 8.9651z" fill="url(#a)" stroke-width="3.4648"/>
   <path transform="matrix(.3752 0 0 .3752 -227.63 -128.01)" d="m278.8 682.02c0 4.9513-4.0138 8.9651-8.9651 8.9651s-8.9651-4.0138-8.9651-8.9651 4.0138-8.9651 8.9651-8.9651 8.9651 4.0138 8.9651 8.9651z" fill="url(#a)" stroke-width="3.4648"/>
   <path transform="matrix(.3752 0 0 .3752 -218.53 -128.01)" d="m278.8 682.02c0 4.9513-4.0138 8.9651-8.9651 8.9651s-8.9651-4.0138-8.9651-8.9651 4.0138-8.9651 8.9651-8.9651 8.9651 4.0138 8.9651 8.9651z" fill="url(#a)" stroke-width="3.4648"/>
   <path transform="matrix(.3752 0 0 .3752 -209.67 -128.01)" d="m278.8 682.02c0 4.9513-4.0138 8.9651-8.9651 8.9651s-8.9651-4.0138-8.9651-8.9651 4.0138-8.9651 8.9651-8.9651 8.9651 4.0138 8.9651 8.9651z" fill="url(#a)" stroke-width="3.4648"/>
   <path transform="matrix(.3752 0 0 .3752 -272.3 -118.92)" d="m278.8 682.02c0 4.9513-4.0138 8.9651-8.9651 8.9651s-8.9651-4.0138-8.9651-8.9651 4.0138-8.9651 8.9651-8.9651 8.9651 4.0138 8.9651 8.9651z" fill="url(#a)" stroke-width="3.4648"/>
   <path transform="matrix(.3752 0 0 .3752 -263.44 -118.92)" d="m278.8 682.02c0 4.9513-4.0138 8.9651-8.9651 8.9651s-8.9651-4.0138-8.9651-8.9651 4.0138-8.9651 8.9651-8.9651 8.9651 4.0138 8.9651 8.9651z" fill="url(#a)" stroke-width="3.4648"/>
   <path transform="matrix(.3752 0 0 .3752 -209.7 -118.89)" d="m278.8 682.02c0 4.9513-4.0138 8.9651-8.9651 8.9651s-8.9651-4.0138-8.9651-8.9651 4.0138-8.9651 8.9651-8.9651 8.9651 4.0138 8.9651 8.9651z" fill="url(#a)" stroke-width="3.4648"/>
  </g>
  <path d="m200.83 506.1-8.705-3.7304 4.2907-7.857-8.173-3.971 3.9878-8.4313-8.0937-3.7017 3.7062-7.5218c-2.5632-1.1947-5.457-2.3521-7.8178-3.3076l3.4986-8.5544" fill="none" opacity=".057" stroke="#2d2d2d" stroke-linejoin="round" stroke-width="2.5798"/>
  <path d="m195.91 453.83-4.2387 8.4691 8.3494 3.2295-3.6771 8.3093 8.4889 3.8636-3.7905 8.0525 7.6867 3.3508c-1.186 2.5672-2.6484 5.3195-3.8343 7.5734l8.1948 4.2734" fill="none" opacity=".057" stroke="#2d2d2d" stroke-linejoin="round" stroke-width="2.58"/>
  <path d="m225.33 496.96-8.705-3.7304 4.2907-7.857-8.173-3.971 3.9878-8.4313-8.0937-3.7017 3.7062-7.5218c-2.5632-1.1947-5.457-2.3521-7.8178-3.3076l3.4986-8.5544" fill="none" opacity=".057" stroke="#2d2d2d" stroke-linejoin="round" stroke-width="2.58"/>
  <path d="m237.51 492.98-8.705-3.7304 4.2907-7.857-8.173-3.971 3.9878-8.4313-8.0937-3.7017 3.7062-7.5217c-2.5632-1.1947-5.457-2.3521-7.8178-3.3076l3.4986-8.5544" fill="none" opacity=".057" stroke="#2d2d2d" stroke-linejoin="round" stroke-width="2.58"/>
  <path d="m248.96 488.79-8.705-3.7304 4.2907-7.857-8.173-3.971 3.9878-8.4313-8.0937-3.7017 3.7062-7.5218c-2.5632-1.1947-5.457-2.3521-7.8178-3.3076l3.4986-8.5544" fill="none" opacity=".057" stroke="#2d2d2d" stroke-linejoin="round" stroke-width="2.58"/>
  <path d="m222.59 426.15c-2.6906 42.048 6.0953 38.158 1.3268 64.887-6.5329 36.619-3.0331 25.01-11.414 25.844 2.7215 4.2757 5.9383 10.431 18.605-29.88 10.041-31.954 5.7652-54.814-7.6656-61.52l-0.85177 0.66891z" fill-opacity=".3137" fill-rule="evenodd"/>
  <path d="m80.032 410.94c28.513 10.253-8.394 55.794 22.414 95.531 5.6944 7.3449-34.296 1.2391-48.433-39.462-13.749-39.581-0.6711-63.733 26.02-56.069z" fill="#784421" fill-rule="evenodd" stroke="#000" stroke-width="2.9633"/>
  <path d="m90.349 405.57c-7.9348-2.7316-16.133 4.4946-17.7 8.4038 8.0081-2.046 11.687-2.623 13.76-0.81829-0.89297 1.9981-10.317 3.9956-13.238 17.111 7.366-5.1067 13.218-11.009 15.57-8.5835-1.7078 2.9833-3.6742 8.5919-2.349 14.153 4.2324-5.5854 8.5572-11.485 12.53-11.644" fill="#784421" fill-rule="evenodd" stroke="#000" stroke-linecap="round" stroke-linejoin="round" stroke-width="2.9633"/>
  <path d="m237.95 411.14c-28.442 11.242 8.3731 61.177-22.358 104.75-5.6803 8.0536 34.21 1.3587 48.313-43.269 13.714-43.4 0.6694-69.883-25.955-61.479z" fill="#784421" fill-rule="evenodd" stroke="#000" stroke-width="3.0991"/>
  <path d="m227.47 405.57c7.9349-2.7316 16.133 4.4946 17.7 8.4038-8.0081-2.046-11.687-2.623-13.76-0.81829 0.89295 1.9981 10.317 3.9956 13.238 17.111-7.366-5.1067-13.218-11.009-15.57-8.5835 1.7078 2.9833 3.6742 8.5919 2.349 14.153-4.2324-5.5854-8.5572-11.485-12.53-11.644" fill="#784421" fill-rule="evenodd" stroke="#000" stroke-linecap="round" stroke-linejoin="round" stroke-width="2.9633"/>
  <path d="m247.28 409.52c-0.24453-4e-4 -0.49285 0.0134-0.74082 0.0204 9.6082 8.5591 13.674 28.366 8.7601 55.912-6.5328 36.619-31.752 52.417-40.134 53.251 2.7215 4.2757 36.135-5.3235 48.801-45.635 12.03-38.285 3.509-63.516-16.687-63.549z" fill-opacity=".3137" fill-rule="evenodd"/>
 </g>
</svg>
