<?xml version="1.0" encoding="UTF-8"?>
<svg viewBox="0 0 879.32 1046.8" xmlns="http://www.w3.org/2000/svg">
 <defs>
  <radialGradient id="a" cx="275.77" cy="65.661" r="32.937" gradientTransform="matrix(3.4127 0 0 2.6045 -160.05 -82.092)" gradientUnits="userSpaceOnUse">
   <stop stop-color="#fff" offset="0"/>
   <stop stop-color="#fff" stop-opacity=".498" offset="0"/>
   <stop stop-color="#fff" stop-opacity="0" offset="1"/>
  </radialGradient>
 </defs>
 <g transform="matrix(.41463 .073051 .42122 -.071907 261.47 984.78)" fill="#4d4d4d" opacity=".35" stroke="#4d4d4d">
  <g stroke-linecap="round" stroke-linejoin="round">
   <path d="m596.92 216.02" stroke-width="9"/>
   <path d="m596.92 216.02" stroke-width="3"/>
   <g fill-rule="evenodd">
    <path d="m516.51 364.69s-0.33069 0-113.96-0.66046c1.1408-14.2 2.9225-22.707 0.99213-31.845-0.85938-4.0684-1.6535-17.019-1.6535-21.464 0-11.464 5.9527-32.591 5.9527-44.58 0-7.0372 1.0422-19.003-1.6535-30.711-2.4569-10.67-1.6535-21.856-1.6535-32.805h117.6c0.8819 8.5134-1.5545 17.648-0.99213 26.2 0.54572 8.2983 0.4342 22.126 4.2992 28.069 3.4976 5.3779 3.2039 21.956 0.66144 27.078-4.3234 8.7103-8.9291 24.69-8.9291 34.673 0 3.0522 2.1351 11.647 1.6535 16.511-0.61383 6.2 4.3258 17.216-2.3149 29.534z" stroke-width="8.123"/>
    <path d="m516.51 364.69s-0.33069 0-113.96-0.66046c1.1408-14.2 2.9225-22.707 0.99213-31.845-0.85938-4.0684-1.6535-17.019-1.6535-21.464 0-11.464 5.9527-32.591 5.9527-44.58 0-7.0372 1.0422-19.003-1.6535-30.711-2.4569-10.67-1.6535-21.856-1.6535-32.805h117.6c0.8819 8.5134-1.5545 17.648-0.99213 26.2 0.54572 8.2983 0.4342 22.126 4.2992 28.069 3.4976 5.3779 3.2039 21.956 0.66144 27.078-4.3234 8.7103-8.9291 24.69-8.9291 34.673 0 3.0522 2.1351 11.647 1.6535 16.511-0.61383 6.2 4.3258 17.216-2.3149 29.534z" stroke-width="2.708"/>
    <g stroke-width="5.416">
     <path d="m518.82 285.62c-1.2977 0.74597-4.1307 3.053-5.9527 3.9627-2.3884 1.1924-2.72-3.6733-2.9764-4.9534-0.44132-2.2034 0.33072-4.5626 0.33072-6.6044 0-2.0646 0.80185-5.2338 1.6535-6.9347 0.81522-1.628 1.366-3.3453 2.315-4.2929 0.8205-0.81934 1.7149-3.1638 2.3149-3.9627 1.1415-1.5197-1.3582-3.3022 1.3229-3.3022 2.0156 0 2.5848 0.9097 3.6378 2.3116 1.0444 1.3905 1.5198 2.7682 1.9842 4.6231 0.36047 1.44 0 3.4602 0 4.9533 0 1.7136 0.33069 3.4264 0.33069 5.2835 0 1.7531-0.66095 2.9711-1.3228 4.2929-0.84802 1.6935-2.2547 2.8968-3.6378 4.6231z"/>
     <path d="m515.85 279.02c-0.84381 1.6852 0.2038-3.7859 0.66144-5.6138 0.70056-2.798 1.9999-2.4728 2.6456-2.3115 0.70508 0.17596 0.33075 4.3147 0.33075 4.9533 0 2.972 0.22046-0.44028-0.33075 0.66043"/>
     <path d="m497.33 256.23c-1.2192-2.3286-0.33072-7.1621-0.33072-10.567 0-4.8595-3.9685-5.728-3.9685-9.2462 0-2.8731-1.0934-5.4589-1.6536-8.2556 1.6536-2.0914-0.22046-0.66046-0.33069-0.99066"/>
     <path d="m490.38 300.81c-0.21365-1.0666-1.9055 5.8653-7.2756 11.228-2.9971 2.9927-4.6299 11.235-4.6299 15.19 0 1.5912-0.66144 2.7745-0.66144 4.2929"/>
     <path d="m465.91 294.87c0 2.2692-0.93491-4.4517-1.6536-6.6045-1.7986-5.3879-3.1734-5.4873-1.9842-10.237 1.0928-4.365 2.5184-6.6892-2.315-9.9067-2.7908-1.8578-3.3071-2.8356-3.3071-5.944 0-0.34808-0.22046-0.66043-0.33069-0.99069"/>
     <path d="m434.82 240.71c-1.5427-3.0839-4.1136-8.9968-2.9764-13.539 0.98361-3.9287-0.61716-6.5307-2.6457-9.9066-0.0802-0.13348-0.22046-0.22015-0.33069-0.33023"/>
     <path d="m437.47 219.91c-1.0595-1.7633 1.154-3.9491 1.6535-5.944 0.44486-1.7769-0.18784-3.6774-0.66141-4.6231-0.74341-1.4846-1.5721-1.9861-1.9842-3.6324"/>
     <path d="m415.31 347.04c-5.2525-10.49 6.7238-32.139 9.2598-42.268 1.8529-7.401-5.2678-15.237-2.315-21.134 1.7039-3.4027 2.9764-7.4274 2.9764-11.228"/>
     <path d="m433.17 307.09c1.1904-2.3773 0.32257 8.7387 5.2913 16.181 2.1924 3.2838 0.38248 6.5177-2.315 7.5951"/>
     <path d="m505.26 266.47c-0.71668 0.28626 3.0846-13.203 3.3071-13.869 0.44092-1.3209 0.88187-2.6418 1.3228-3.9626 1.0461-3.1338 1.231-6.99 2.315-10.237 1.0419-3.1209-0.99213-6.3948-0.99213-9.5764 0-2.1411-0.2215-4.1808 0.66141-5.944"/>
     <path d="m518.82 253.59c0-0.69678-0.99206-4.2839-0.99206-6.6044 0-3.1094 0.77411-3.9871-1.3229-6.6045"/>
     <path d="m505.59 281.99c-0.047485-0.059265-1.2081 8.8888-2.3149 15.52-0.48386 2.8989 1.6535 7.0635 1.6535 10.237 0 2.725-0.33072 5.3657-0.33072 7.9253v11.228c0 2.9762-2.6058 4.6801-4.2992 6.9347"/>
     <path d="m516.84 290.91c0 2.4869-4.2216 9.4215-5.622 12.218-0.89456 1.7865 0 6.1865 0 8.2555 0 2.3571-1.3228 4.1294-1.3228 6.6045 0 1.3156-0.046631 2.4978-0.33069 3.6324"/>
     <path d="m513.2 256.89c0 1.3818-0.65137 3.6224-2.315 5.2836-0.17432 0.17404-0.22049 0.44031-0.33072 0.66043"/>
     <path d="m509.56 297.84c-0.29379 0.29336 0.14056-2.7408-0.66144-5.944-0.037811-0.15103-0.22046-0.22015-0.33069-0.33023"/>
    </g>
    <g stroke-width="2.708">
     <path d="m518.82 285.62c-1.2977 0.74597-4.1307 3.053-5.9527 3.9627-2.3884 1.1924-2.72-3.6733-2.9764-4.9534-0.44132-2.2034 0.33072-4.5626 0.33072-6.6044 0-2.0646 0.80185-5.2338 1.6535-6.9347 0.81522-1.628 1.366-3.3453 2.315-4.2929 0.8205-0.81934 1.7149-3.1638 2.3149-3.9627 1.1415-1.5197-1.3582-3.3022 1.3229-3.3022 2.0156 0 2.5848 0.9097 3.6378 2.3116 1.0444 1.3905 1.5198 2.7682 1.9842 4.6231 0.36047 1.44 0 3.4602 0 4.9533 0 1.7136 0.33069 3.4264 0.33069 5.2835 0 1.7531-0.66095 2.9711-1.3228 4.2929-0.84802 1.6935-2.2547 2.8968-3.6378 4.6231z"/>
     <path d="m515.85 279.02c-0.84381 1.6852 0.2038-3.7859 0.66144-5.6138 0.70056-2.798 1.9999-2.4728 2.6456-2.3115 0.70508 0.17596 0.33075 4.3147 0.33075 4.9533 0 2.972 0.22046-0.44028-0.33075 0.66043"/>
     <path d="m497.33 256.23c-1.2192-2.3286-0.33072-7.1621-0.33072-10.567 0-4.8595-3.9685-5.728-3.9685-9.2462 0-2.8731-1.0934-5.4589-1.6536-8.2556 1.6536-2.0914-0.22046-0.66046-0.33069-0.99066"/>
     <path d="m490.38 300.81c-0.21365-1.0666-1.9055 5.8653-7.2756 11.228-2.9971 2.9927-4.6299 11.235-4.6299 15.19 0 1.5912-0.66144 2.7745-0.66144 4.2929"/>
     <path d="m465.91 294.87c0 2.2692-0.93491-4.4517-1.6536-6.6045-1.7986-5.3879-3.1734-5.4873-1.9842-10.237 1.0928-4.365 2.5184-6.6892-2.315-9.9067-2.7908-1.8578-3.3071-2.8356-3.3071-5.944 0-0.34808-0.22046-0.66043-0.33069-0.99069"/>
     <path d="m434.82 240.71c-1.5427-3.0839-4.1136-8.9968-2.9764-13.539 0.98361-3.9287-0.61716-6.5307-2.6457-9.9066-0.0802-0.13348-0.22046-0.22015-0.33069-0.33023"/>
     <path d="m437.47 219.91c-1.0595-1.7633 1.154-3.9491 1.6535-5.944 0.44486-1.7769-0.18784-3.6774-0.66141-4.6231-0.74341-1.4846-1.5721-1.9861-1.9842-3.6324"/>
     <path d="m415.31 347.04c-5.2525-10.49 6.7238-32.139 9.2598-42.268 1.8529-7.401-5.2678-15.237-2.315-21.134 1.7039-3.4027 2.9764-7.4274 2.9764-11.228"/>
     <path d="m433.17 307.09c1.1904-2.3773 0.32257 8.7387 5.2913 16.181 2.1924 3.2838 0.38248 6.5177-2.315 7.5951"/>
     <path d="m505.26 266.47c-0.71668 0.28626 3.0846-13.203 3.3071-13.869 0.44092-1.3209 0.88187-2.6418 1.3228-3.9626 1.0461-3.1338 1.231-6.99 2.315-10.237 1.0419-3.1209-0.99213-6.3948-0.99213-9.5764 0-2.1411-0.2215-4.1808 0.66141-5.944"/>
     <path d="m518.82 253.59c0-0.69678-0.99206-4.2839-0.99206-6.6044 0-3.1094 0.77411-3.9871-1.3229-6.6045"/>
     <path d="m505.59 281.99c-0.047485-0.059265-1.2081 8.8888-2.3149 15.52-0.48386 2.8989 1.6535 7.0635 1.6535 10.237 0 2.725-0.33072 5.3657-0.33072 7.9253v11.228c0 2.9762-2.6058 4.6801-4.2992 6.9347"/>
     <path d="m516.84 290.91c0 2.4869-4.2216 9.4215-5.622 12.218-0.89456 1.7865 0 6.1865 0 8.2555 0 2.3571-1.3228 4.1294-1.3228 6.6045 0 1.3156-0.046631 2.4978-0.33069 3.6324"/>
     <path d="m513.2 256.89c0 1.3818-0.65137 3.6224-2.315 5.2836-0.17432 0.17404-0.22049 0.44031-0.33072 0.66043"/>
     <path d="m509.56 297.84c-0.29379 0.29336 0.14056-2.7408-0.66144-5.944-0.037811-0.15103-0.22046-0.22015-0.33069-0.33023"/>
    </g>
   </g>
  </g>
  <path d="m404.95 197.54s13.961 89.037 47.286 89.037 63.048-64.754 70.253-99.829c7.2055-35.075 0.45038-15.289 0.45038-15.289" fill-rule="evenodd" opacity=".05" stroke-width=".926"/>
  <g stroke-linecap="round" stroke-linejoin="round">
   <path d="m596.92 216.02c0-3.7393-59.367-6.7741-132.52-6.7741-73.148 0-132.52 3.0348-132.52 6.7741l46.132-188.32c57.89-6.4629 115.78-6.7448 173.67 0l45.227 188.32z" stroke-width="8.332"/>
   <path d="m596.92 216.02c0-3.7393-59.367-6.7741-132.52-6.7741-73.148 0-132.52 3.0348-132.52 6.7741l46.132-188.32c58.172-6.7439 116.07-7.0381 173.67 0l45.227 188.32z" stroke-width="2.777"/>
   <g transform="matrix(.92645 0 0 -.92509 25.606 991.18)" fill-rule="evenodd" stroke-width="8">
    <path d="m472.09 21.585s-26.264 61.619-55.558 80.812 30.305 0 30.305 0-29.294 30.305-59.599 49.498 29.294 0 29.294 0-29.294 30.305-59.599 49.498 30.305 0 30.305 0 0.36017 5.7968-60.609 50.508c-30.305 22.223 30.305 0 30.305 0s-31.315 40.406-60.609 59.599 30.305 0 30.305 0-30.305 40.406-59.599 59.599 29.294 0 29.294 0-28.284 38.386-58.589 59.599 29.294 0 29.294 0-29.294 49.498-59.599 69.7c-30.305 20.203 30.305 0 30.305 0s-30.305 48.487-60.609 69.701c-30.305 21.213 30.305 0 30.305 0s-29.294 59.599-59.599 79.802 29.294 0 29.294 0-27.284 61.798-59.599 79.802c-35.355 19.698 200.26 39.143 355.57-77.782"/>
    <path d="m472.97 21.585s26.264 61.619 55.558 80.812-30.305 0-30.305 0 29.294 30.305 59.599 49.498-29.294 0-29.294 0 29.294 30.305 59.599 49.498-30.305 0-30.305 0-0.36017 5.7968 60.609 50.508c30.305 22.223-30.305 0-30.305 0s31.315 40.406 60.609 59.599-30.305 0-30.305 0 30.305 40.406 59.599 59.599-29.294 0-29.294 0 28.284 38.386 58.589 59.599-29.294 0-29.294 0 29.294 49.498 59.599 69.7c30.305 20.203-30.305 0-30.305 0s30.305 48.487 60.609 69.701c30.305 21.213-30.305 0-30.305 0s29.294 59.599 59.599 79.802c7.5762 5.0507 9.5333 7.5761 8.2075 8.5231-1.3259 0.94702-5.9347 0.31567-11.49-0.94702-5.5558-1.2627-12.059-3.1567-17.173-4.7351-5.1139-1.5784-8.8389-2.841-8.8389-2.841s27.284 61.798 59.599 79.802c35.355 19.698-200.26 39.143-355.57-77.782"/>
   </g>
  </g>
  <path d="m462.97 969.37v-581.25" fill-rule="evenodd" stroke-width="2.777"/>
  <g stroke-linecap="round" stroke-linejoin="round">
   <g fill-rule="evenodd">
    <g transform="matrix(.92645 0 0 -.92509 25.606 991.18)" stroke-width="3">
     <path d="m472.09 21.585s-26.264 61.619-55.558 80.812 30.305 0 30.305 0-29.294 30.305-59.599 49.498 29.294 0 29.294 0-29.294 30.305-59.599 49.498 30.305 0 30.305 0 0.36017 5.7968-60.609 50.508c-30.305 22.223 30.305 0 30.305 0s-31.315 40.406-60.609 59.599 30.305 0 30.305 0-30.305 40.406-59.599 59.599 29.294 0 29.294 0-28.284 38.386-58.589 59.599 29.294 0 29.294 0-29.294 49.498-59.599 69.7c-30.305 20.203 30.305 0 30.305 0s-30.305 48.487-60.609 69.701c-30.305 21.213 30.305 0 30.305 0s-29.294 59.599-59.599 79.802 29.294 0 29.294 0-27.284 61.798-59.599 79.802c-35.355 19.698 200.26 39.143 355.57-77.782"/>
     <path d="m472.97 21.585s26.264 61.619 55.558 80.812-30.305 0-30.305 0 29.294 30.305 59.599 49.498-29.294 0-29.294 0 29.294 30.305 59.599 49.498-30.305 0-30.305 0-0.36017 5.7968 60.609 50.508c30.305 22.223-30.305 0-30.305 0s31.315 40.406 60.609 59.599-30.305 0-30.305 0 30.305 40.406 59.599 59.599-29.294 0-29.294 0 28.284 38.386 58.589 59.599-29.294 0-29.294 0 29.294 49.498 59.599 69.7c30.305 20.203-30.305 0-30.305 0s30.305 48.487 60.609 69.701c30.305 21.213-30.305 0-30.305 0s29.294 59.599 59.599 79.802-29.294 0-29.294 0 27.284 61.798 59.599 79.802c35.355 19.698-200.26 39.143-355.57-77.782"/>
    </g>
    <g transform="matrix(.92645 0 0 -.92509 25.606 991.18)">
     <path d="m357.94 570.1s-39.014 112.67-119.2 197.99c-54.045 57.509 234.36-65.18 288.9-156.57" stroke-width="8"/>
     <g stroke-width="3">
      <path d="m357.94 570.1s-39.014 112.67-119.2 197.99c-54.045 57.509 234.36-65.18 288.9-156.57"/>
      <path d="m357.94 570.1s-39.014 112.67-119.2 197.99c-54.045 57.509 234.36-65.18 288.9-156.57"/>
     </g>
    </g>
    <path d="m496.96 827.64s2.7728-28.376 21.202-53.6c12.422-17.001-69.898 32.033-79.532 56.74" stroke-width="7.406"/>
   </g>
   <g transform="matrix(.92645 0 0 -.92509 30.238 1023.6)" fill-rule="evenodd">
    <g transform="matrix(-1 0 0 1 736.07 49)">
     <path d="m167.34 570.1s-39.014 112.67-119.2 197.99c-54.045 57.509 234.36-65.18 288.9-156.57" stroke-width="8"/>
     <path d="m167.34 570.1s-39.014 112.67-119.2 197.99c-54.045 57.509 234.36-65.18 288.9-156.57" stroke-width="3"/>
    </g>
    <path d="m372.63 503.54s-21.242 64.992-74.464 112.26c-35.872 31.857 167.6-29.426 201.62-81.263" stroke-width="8"/>
    <path d="m372.63 503.54s-21.242 64.992-74.464 112.26c-35.872 31.857 167.6-29.426 201.62-81.263" stroke-width="3"/>
    <g transform="matrix(-1 0 0 1 759.02 -58.438)">
     <path d="m187.03 468.54s-21.242 64.992-74.464 112.26c-35.872 31.857 167.6-29.426 201.62-81.263" stroke-width="8"/>
     <path d="m187.03 468.54s-21.242 64.992-74.464 112.26c-35.872 31.857 167.6-29.426 201.62-81.263" stroke-width="3"/>
    </g>
    <path d="m394.18 320.27s-6.4259 41.859-37.407 77.995c-20.881 24.356 112.93-42.768 129.96-78.73" stroke-width="8"/>
    <path d="m394.18 320.27s-6.4259 41.859-37.407 77.995c-20.881 24.356 112.93-42.768 129.96-78.73" stroke-width="3"/>
    <path d="m503.77 211.78s2.993 30.674 22.886 57.94c13.408 18.378-75.448-34.627-85.847-61.335" stroke-width="3"/>
   </g>
   <path d="m596.92 216.02c0-3.7393-59.367-6.7741-132.52-6.7741-73.148 0-131.58 3.218-132.52 6.7741 23.606-99.586 121.52-99.302 132.96-99.38 12.14 0.17682 109.42 0.26118 132.06 99.38z" opacity=".05" stroke-width="8.332"/>
  </g>
  <g fill-rule="evenodd">
   <path d="m607.47 395.92c-6.9534 15.621-33.443 73.809-31.711 76.799 2.538 4.6774 4.8519 5.7896 12.894 5.1566 6.9293-0.54547 21.446-5.6041 34.312-8.1096s28.343-6.0931 45.735-10.383c4.3479-1.0724 43.261-10.403 47.837-11.557 4.8414-8.3083 25.714-47.659 50.457-61.331 1.8597-1.0276 4.0478-3.2824 3.5087-3.3745-3.9709-0.67853-28.609 5.993-30.698 7.7431-11.27 4.63 6.3694-20.838 4.027-18.162-1.7194 1.9638 21.885-36.152 40.814-53.307 23.376-10.519 1.6372-11.378-21.817-14.759-9.8481-0.29547-23.834-1.393-51.65 0.24121-15.854 1.3139-39.965 4.1782-48.546 5.3034-8.5809 1.1252-48.922 71.718-55.163 85.74z" opacity=".1"/>
   <path d="m685.77 586.07c-12.293-2.9219-28.608 11.213-33.584 6.8478 2.2003-5.3442 15.478-23.391 21.434-30.519 25.982-31.093 39.183-38.762 40.71-41.088-8.1528 0.42718-38.02 12.03-34.731 6.0153 42.885-57.021 60.091-67.357 65.303-71.489-11.888 1.8111-24.668 6.2983-33.668 9.1566-7.042 7.7513-39.48 45.658-46.683 54.002-28.815 33.374-58.078 70.97-81.037 108.67-22.959 37.697-39.613 75.494-43.207 109.27-0.70428 6.6174 8.4526 7.028 46.923-0.80334 4.1756-4.461 14.286-16.008 38.769-33.852 14.955-10.9 1.7784-6.1134-29.179 2.4539 14.267-24.178 49.627-53.867 55.776-57.67 11.126-6.8828 14.772-9.5256-27.616 2.4796 27.634-41.737 61.406-60.828 60.791-63.471z" opacity=".1"/>
   <path d="m191.13 391.34c-21.451-49.998-39.644-64.725-51.764-73.242-6.912-4.8574-4.1126-8.255 3.5246-9.9438 32.851-7.264 86.99-2.3624 105.3 0.17328 8.868 9.8326 16.192 18.783 21.349 28.361 41.26 76.625-67.047-23.209-39.786 36.839s117.88 159.14 120.83 209.25c3.986 67.763-79.363-46.964-58.943-4.4206 22.104 46.049 88.414 167.99 94.308 213.67 0.67084 5.1992-0.14325 6.8677-2.0816 5.8068-1.9383-1.0608-8.3394-4.0844-10.544-6.2767-7.6719-7.6301-33.311-27.099-50.322-39.735 7.4556-2.763 36.399 11.375 34.396 6.3026-5.4368-10.224-50.405-52.535-62.432-60.461 10.292 0.65875 22.192 5.2279 34.77 6.3534-11.888-19.907-36.831-42.399-60.305-61.094 13.011 0.61981 32.213 6.3236 32.213 6.3236-23.548-33.514-39.47-45.541-61.781-63.805 11.082 1.2125 23.484 6.11 35.226 9.1651-25.3-45.304-48.627-60.421-63.927-73.248 7.6502 0.18109 24.199 5.3946 35.655 7.4481-24.963-41.248-42.046-54.698-63.068-72.389 7.3111 0.87665 23.484 5.8239 35.226 8.7358-5.7135-13.542-15.939-34.82-42.036-65.092-17.086-15.053-22.015-16.639-16.282-16.589" opacity=".1"/>
   <path d="m487.8 924.16c13.733-18.452 19.802-24.113 33.738-34.079-5.9171-0.4519-16.416 3.0577-24.97 5.4354-8.5545 2.3776-13.182 4.1897-9.34-1.0734 3.8077-5.2157 54.743-44.798 61.222-50.063-4.4543 0.12769-9.5502 0.48987-15.233 3.0601-11.366 5.1405-20.607 7.7272-32.165 10.737-11.558 3.0093-23.168 5.0255-34.74 6.193s-23.108 1.4864-34.517 1.1014c-11.409-0.38507-16.462-1.1909-27.53-2.8392 10.454 9.1128 35.523 30.173 36.344 34.867-15.434-3.1737-22.457-5.9338-34.252-7.3433 6.5178 5.5759 17.36 11.148 34.846 37.117 7.1798 12.413 13.509 22.27 22.106 41.486 8.4476-17.981 12.054-23.975 24.493-44.599z" opacity=".1"/>
  </g>
  <g stroke-linecap="round" stroke-linejoin="round">
   <path d="m367.8 74.972l11.345-45.955c58.172-6.7439 113.64-7.2256 171.23-0.1875l11.494 45.955c-65.504-61.214-128.57-58.578-194.07 0.1875z" opacity=".1" stroke-width="2.777"/>
   <g transform="matrix(1 0 0 -1 -2 1019)">
    <path d="m435.43 88.111l27.14-25.088 31.027 20.29-15.983-33.02 29.283-22.633-36.996 4.6792-12.93-34.27-6.8935 35.911-37.274 1.4452 32.745 17.508-10.119 35.179zm7.7661-10.326l7.3774-25.652-23.88-12.758 27.176-1.0613 5.0293-26.183 9.4216 25.003 26.969-3.4187-21.359 16.497 11.656 24.077-22.627-14.798-19.763 18.295z" stroke-width="8"/>
    <path d="m435.43 88.111l27.14-25.088 31.027 20.29-15.983-33.02 29.283-22.633-36.996 4.6792-12.93-34.27-6.8935 35.911-37.274 1.4452 32.745 17.508-10.119 35.179zm7.7661-10.326l7.3774-25.652-23.88-12.758 27.176-1.0613 5.0293-26.183 9.4216 25.003 26.969-3.4187-21.359 16.497 11.656 24.077-22.627-14.798-19.763 18.295z" stroke-width="1.551"/>
   </g>
  </g>
 </g>
 <g stroke-linecap="round" stroke-linejoin="round">
  <path d="m550.58 833.68a131.04 6.6996 0 1 1 -0.004089 -0.052917" fill="#901414" stroke="#732626" stroke-width="9"/>
  <path d="m550.58 833.68a131.04 6.6996 0 1 1 -0.004089 -0.052917" fill="#611d1d" stroke="#980000" stroke-width="3"/>
  <g fill-rule="evenodd">
   <g fill="#6e4522">
    <path d="m471.06 686.64s-0.32703 0-112.69 0.6532c1.1281 14.043 2.8899 22.457 0.98108 31.495-0.84979 4.0236-1.6351 16.832-1.6351 21.228 0 11.338 5.8864 32.233 5.8864 44.09 0 6.9598 1.0306 18.794-1.6351 30.373-2.4295 10.553-1.6351 21.616-1.6351 32.444h116.29c0.87207-8.4197-1.5372-17.454-0.98105-25.912 0.53961-8.207 0.42935-21.882 4.2512-27.76 3.4586-5.3187 3.1682-21.714 0.65408-26.78-4.2752-8.6145-8.8296-24.418-8.8296-34.292 0-3.0187 2.1113-11.519 1.6351-16.329-0.60702-6.1317 4.2776-17.026-2.2891-29.209z" stroke="#50371f" stroke-width="8.123"/>
    <path d="m471.06 686.64s-0.32703 0-112.69 0.6532c1.1281 14.043 2.8899 22.457 0.98108 31.495-0.84979 4.0236-1.6351 16.832-1.6351 21.228 0 11.338 5.8864 32.233 5.8864 44.09 0 6.9598 1.0306 18.794-1.6351 30.373-2.4295 10.553-1.6351 21.616-1.6351 32.444h116.29c0.87207-8.4197-1.5372-17.454-0.98105-25.912 0.53961-8.207 0.42935-21.882 4.2512-27.76 3.4586-5.3187 3.1682-21.714 0.65408-26.78-4.2752-8.6145-8.8296-24.418-8.8296-34.292 0-3.0187 2.1113-11.519 1.6351-16.329-0.60702-6.1317 4.2776-17.026-2.2891-29.209z" stroke="#a56c3a" stroke-width="2.708"/>
   </g>
   <g fill="none">
    <g stroke="#835832" stroke-width="5.416">
     <path d="m473.35 764.84c-1.2832-0.73779-4.0847-3.0194-5.8864-3.9191-2.3618-1.1793-2.6897 3.6329-2.9432 4.8989-0.4364 2.1791 0.32703 4.5124 0.32703 6.5317 0 2.0418 0.79291 5.1762 1.6351 6.8584 0.80609 1.61 1.3507 3.3085 2.2891 4.2457 0.8114 0.81024 1.6958 3.129 2.2892 3.9191 1.1287 1.503-1.3431 3.2659 1.3081 3.2659 1.9931 0 2.556-0.89972 3.5972-2.2861 1.0328-1.3752 1.5029-2.7377 1.9621-4.5723 0.35648-1.4241 0-3.4221 0-4.8988 0-1.6948 0.327-3.3887 0.327-5.2255 0-1.7338-0.65356-2.9384-1.3081-4.2457-0.83856-1.6749-2.2295-2.8649-3.5972-4.5722z"/>
     <path d="m470.41 771.37c-0.83441-1.6666 0.20151 3.7443 0.65408 5.5521 0.69272 2.7673 1.9776 2.4456 2.6161 2.2861 0.6972-0.17407 0.32706-4.2673 0.32706-4.8989 0-2.9393 0.21802 0.43542-0.32706-0.6532"/>
     <path d="m452.1 793.91c-1.2055 2.303-0.32703 7.0832-0.32703 10.451 0 4.806-3.9242 5.6649-3.9242 9.1444 0 2.8416-1.0812 5.3988-1.6351 8.1647 1.6351 2.0684-0.21802 0.6532-0.32703 0.97986"/>
     <path d="m445.23 749.82c-0.21127 1.0548-1.8842-5.8008-7.1945-11.104-2.9638-2.9598-4.5783-11.112-4.5783-15.023 0-1.5736-0.65408-2.7439-0.65408-4.2456"/>
     <path d="m421.03 755.7c0-2.2443-0.92447 4.4027-1.6351 6.5319-1.7786 5.3286-3.138 5.4269-1.9621 10.124 1.0807 4.317 2.4904 6.6155-2.2892 9.7977-2.7597 1.8374-3.2702 2.8045-3.2702 5.8787 0 0.34424-0.21802 0.65314-0.32703 0.97974"/>
     <path d="m390.29 809.26c-1.5255 3.0499-4.0678 8.8978-2.9432 13.39 0.97263 3.8855-0.61029 6.4589-2.6162 9.7976-0.079315 0.13202-0.21799 0.21771-0.327 0.32666"/>
     <path d="m392.9 829.83c-1.0477 1.7439 1.1412 3.9056 1.6351 5.8787 0.43991 1.7573-0.18573 3.6368-0.65402 4.5723-0.73514 1.4682-1.5546 1.9642-1.9622 3.5925"/>
     <path d="m370.99 704.1c-5.194 10.374 6.6488 31.786 9.1566 41.803 1.8323 7.3196-5.2091 15.07-2.2892 20.902 1.6849 3.3653 2.9432 7.3457 2.9432 11.104"/>
     <path d="m388.65 743.61c1.1772 2.3512 0.319-8.6426 5.2324-16.003 2.1679-3.2477 0.3782-6.446-2.2892-7.5116"/>
     <path d="m459.94 783.78c-0.70868-0.28308 3.0502 13.058 3.2702 13.717 0.436 1.3063 0.87204 2.6127 1.3081 3.919 1.0345 3.0994 1.2173 6.9131 2.2891 10.124 1.0303 3.0867-0.98102 6.3245-0.98102 9.4711 0 2.1175-0.21902 4.1348 0.65402 5.8786"/>
     <path d="m473.35 796.52c0 0.68915-0.98102 4.2368-0.98102 6.5318 0 3.0752 0.7655 3.9432-1.3081 6.5317"/>
     <path d="m460.27 768.43c-0.046936 0.058594-1.1946-8.7911-2.2891-15.35-0.47846-2.8669 1.6351-6.9858 1.6351-10.124 0-2.695-0.32703-5.3066-0.32703-7.8381v-11.104c0-2.9434-2.5768-4.6286-4.2513-6.8584"/>
     <path d="m471.39 759.62c0-2.4595-4.1745-9.3178-5.5593-12.084-0.88461-1.7668 0-6.1184 0-8.1647 0-2.3311-1.3081-4.084-1.3081-6.5319 0-1.3011-0.046112-2.4703-0.327-3.5925"/>
     <path d="m467.79 793.25c0-1.3665-0.64407-3.5825-2.2892-5.2253-0.17236-0.17218-0.21802-0.43549-0.32703-0.6532"/>
     <path d="m464.2 752.76c-0.29053-0.2901 0.13898 2.7106-0.65408 5.8785-0.037384 0.14941-0.21799 0.21783-0.327 0.32666"/>
    </g>
    <g stroke="#4e351b" stroke-width="2.708">
     <path d="m473.35 764.84c-1.2832-0.73779-4.0847-3.0194-5.8864-3.9191-2.3618-1.1793-2.6897 3.6329-2.9432 4.8989-0.4364 2.1791 0.32703 4.5124 0.32703 6.5317 0 2.0418 0.79291 5.1762 1.6351 6.8584 0.80609 1.61 1.3507 3.3085 2.2891 4.2457 0.8114 0.81024 1.6958 3.129 2.2892 3.9191 1.1287 1.503-1.3431 3.2659 1.3081 3.2659 1.9931 0 2.556-0.89972 3.5972-2.2861 1.0328-1.3752 1.5029-2.7377 1.9621-4.5723 0.35648-1.4241 0-3.4221 0-4.8988 0-1.6948 0.327-3.3887 0.327-5.2255 0-1.7338-0.65356-2.9384-1.3081-4.2457-0.83856-1.6749-2.2295-2.8649-3.5972-4.5722z"/>
     <path d="m470.41 771.37c-0.83441-1.6666 0.20151 3.7443 0.65408 5.5521 0.69272 2.7673 1.9776 2.4456 2.6161 2.2861 0.6972-0.17407 0.32706-4.2673 0.32706-4.8989 0-2.9393 0.21802 0.43542-0.32706-0.6532"/>
     <path d="m452.1 793.91c-1.2055 2.303-0.32703 7.0832-0.32703 10.451 0 4.806-3.9242 5.6649-3.9242 9.1444 0 2.8416-1.0812 5.3988-1.6351 8.1647 1.6351 2.0684-0.21802 0.6532-0.32703 0.97986"/>
     <path d="m445.23 749.82c-0.21127 1.0548-1.8842-5.8008-7.1945-11.104-2.9638-2.9598-4.5783-11.112-4.5783-15.023 0-1.5736-0.65408-2.7439-0.65408-4.2456"/>
     <path d="m421.03 755.7c0-2.2443-0.92447 4.4027-1.6351 6.5319-1.7786 5.3286-3.138 5.4269-1.9621 10.124 1.0807 4.317 2.4904 6.6155-2.2892 9.7977-2.7597 1.8374-3.2702 2.8045-3.2702 5.8787 0 0.34424-0.21802 0.65314-0.32703 0.97974"/>
     <path d="m390.29 809.26c-1.5255 3.0499-4.0678 8.8978-2.9432 13.39 0.97263 3.8855-0.61029 6.4589-2.6162 9.7976-0.079315 0.13202-0.21799 0.21771-0.327 0.32666"/>
     <path d="m392.9 829.83c-1.0477 1.7439 1.1412 3.9056 1.6351 5.8787 0.43991 1.7573-0.18573 3.6368-0.65402 4.5723-0.73514 1.4682-1.5546 1.9642-1.9622 3.5925"/>
     <path d="m370.99 704.1c-5.194 10.374 6.6488 31.786 9.1566 41.803 1.8323 7.3196-5.2091 15.07-2.2892 20.902 1.6849 3.3653 2.9432 7.3457 2.9432 11.104"/>
     <path d="m388.65 743.61c1.1772 2.3512 0.319-8.6426 5.2324-16.003 2.1679-3.2477 0.3782-6.446-2.2892-7.5116"/>
     <path d="m459.94 783.78c-0.70868-0.28308 3.0502 13.058 3.2702 13.717 0.436 1.3063 0.87204 2.6127 1.3081 3.919 1.0345 3.0994 1.2173 6.9131 2.2891 10.124 1.0303 3.0867-0.98102 6.3245-0.98102 9.4711 0 2.1175-0.21902 4.1348 0.65402 5.8786"/>
     <path d="m473.35 796.52c0 0.68915-0.98102 4.2368-0.98102 6.5318 0 3.0752 0.7655 3.9432-1.3081 6.5317"/>
     <path d="m460.27 768.43c-0.046936 0.058594-1.1946-8.7911-2.2891-15.35-0.47846-2.8669 1.6351-6.9858 1.6351-10.124 0-2.695-0.32703-5.3066-0.32703-7.8381v-11.104c0-2.9434-2.5768-4.6286-4.2513-6.8584"/>
     <path d="m471.39 759.62c0-2.4595-4.1745-9.3178-5.5593-12.084-0.88461-1.7668 0-6.1184 0-8.1647 0-2.3311-1.3081-4.084-1.3081-6.5319 0-1.3011-0.046112-2.4703-0.327-3.5925"/>
     <path d="m467.79 793.25c0-1.3665-0.64407-3.5825-2.2892-5.2253-0.17236-0.17218-0.21802-0.43549-0.32703-0.6532"/>
     <path d="m464.2 752.76c-0.29053-0.2901 0.13898 2.7106-0.65408 5.8785-0.037384 0.14941-0.21799 0.21783-0.327 0.32666"/>
    </g>
   </g>
  </g>
 </g>
 <path d="m360.74 851.96s13.805-88.057 46.759-88.057 62.345 64.042 69.47 98.731c7.1252 34.689 0.44531 15.121 0.44531 15.121" fill="#fff" fill-rule="evenodd" opacity=".05" stroke="#fff" stroke-width=".926"/>
 <g stroke-linecap="round" stroke-linejoin="round">
  <g fill="#901414">
   <path d="m550.58 833.67c0 3.6982-58.705 6.6996-131.04 6.6996-72.333 0-131.04-3.0014-131.04-6.6996l45.617 186.25c57.245 6.3918 114.49 6.6706 171.74 0l44.723-186.25z" stroke="#732626" stroke-width="8.332"/>
   <path d="m550.58 833.67c0 3.6982-58.705 6.6996-131.04 6.6996-72.333 0-131.04-3.0014-131.04-6.6996l45.617 186.25c57.523 6.6697 114.78 6.9606 171.74 0l44.723-186.25z" stroke="#c60000" stroke-width="2.777"/>
  </g>
  <g transform="matrix(.91612 0 0 .91491 35.38 58.522)" fill="#007b00" fill-rule="evenodd" stroke="#005600" stroke-width="8">
   <path d="m417.78 30.899s-26.264 61.619-55.558 80.812 30.305 0 30.305 0-29.294 30.305-59.599 49.498 29.294 0 29.294 0-29.294 30.305-59.599 49.498 30.305 0 30.305 0 0.36023 5.7967-60.609 50.508c-30.305 22.223 30.305 0 30.305 0s-31.315 40.406-60.609 59.599 30.304 0 30.304 0-30.305 40.406-59.599 59.599 29.294 0 29.294 0-28.284 38.386-58.589 59.599 29.294 0 29.294 0-29.294 49.498-59.599 69.7c-30.305 20.203 30.305 0 30.305 0s-30.305 48.487-60.609 69.7c-30.305 21.213 30.305 0 30.305 0s-29.294 59.599-59.599 79.802 29.294 0 29.294 0-27.284 61.798-59.599 79.802c-35.355 19.698 200.26 39.143 355.57-77.782"/>
   <path d="m418.67 30.899s26.264 61.619 55.558 80.812-30.305 0-30.305 0 29.294 30.305 59.599 49.498-29.294 0-29.294 0 29.294 30.305 59.599 49.498-30.305 0-30.305 0-0.36017 5.7967 60.609 50.508c30.305 22.223-30.305 0-30.305 0s31.315 40.406 60.609 59.599-30.305 0-30.305 0 30.305 40.406 59.599 59.599-29.294 0-29.294 0 28.284 38.386 58.589 59.599-29.294 0-29.294 0 29.294 49.498 59.599 69.7c30.305 20.203-30.305 0-30.305 0s30.305 48.487 60.609 69.7c30.305 21.213-30.305 0-30.305 0s29.294 59.599 59.599 79.802c7.5762 5.0507 9.5333 7.5761 8.2075 8.5231-1.3259 0.94702-5.9347 0.31567-11.49-0.94702-5.5558-1.2627-12.059-3.1567-17.173-4.7351-5.1139-1.5784-8.8389-2.841-8.8389-2.841s27.284 61.798 59.599 79.802c35.355 19.698-200.26 39.143-355.57-77.782"/>
  </g>
 </g>
 <path d="m418.12 88.622v574.85" fill="#fff" fill-rule="evenodd" stroke="#007b00" stroke-width="2.777"/>
 <g stroke-linecap="round" stroke-linejoin="round">
  <g fill="#007b00" fill-rule="evenodd">
   <g transform="matrix(.91612 0 0 .91491 35.38 58.522)" stroke="#00b805" stroke-width="3">
    <path d="m417.78 30.899s-26.264 61.619-55.558 80.812 30.305 0 30.305 0-29.294 30.305-59.599 49.498 29.294 0 29.294 0-29.294 30.305-59.599 49.498 30.305 0 30.305 0 0.36023 5.7967-60.609 50.508c-30.305 22.223 30.305 0 30.305 0s-31.315 40.406-60.609 59.599 30.304 0 30.304 0-30.305 40.406-59.599 59.599 29.294 0 29.294 0-28.284 38.386-58.589 59.599 29.294 0 29.294 0-29.294 49.498-59.599 69.7c-30.305 20.203 30.305 0 30.305 0s-30.305 48.487-60.609 69.7c-30.305 21.213 30.305 0 30.305 0s-29.294 59.599-59.599 79.802 29.294 0 29.294 0-27.284 61.798-59.599 79.802c-35.355 19.698 200.26 39.143 355.57-77.782"/>
    <path d="m418.67 30.899s26.264 61.619 55.558 80.812-30.305 0-30.305 0 29.294 30.305 59.599 49.498-29.294 0-29.294 0 29.294 30.305 59.599 49.498-30.305 0-30.305 0-0.36017 5.7967 60.609 50.508c30.305 22.223-30.305 0-30.305 0s31.315 40.406 60.609 59.599-30.305 0-30.305 0 30.305 40.406 59.599 59.599-29.294 0-29.294 0 28.284 38.386 58.589 59.599-29.294 0-29.294 0 29.294 49.498 59.599 69.7c30.305 20.203-30.305 0-30.305 0s30.305 48.487 60.609 69.7c30.305 21.213-30.305 0-30.305 0s29.294 59.599 59.599 79.802-29.294 0-29.294 0 27.284 61.798 59.599 79.802c35.355 19.698-200.26 39.143-355.57-77.782"/>
   </g>
   <g transform="matrix(.91612 0 0 .91491 35.38 58.522)">
    <path d="m303.64 579.41s-39.014 112.67-119.2 197.99c-54.045 57.509 234.36-65.18 288.9-156.57" stroke="#005600" stroke-width="8"/>
    <g stroke="#00b805" stroke-width="3">
     <path d="m303.64 579.41s-39.014 112.67-119.2 197.99c-54.045 57.509 234.36-65.18 288.9-156.57"/>
     <path d="m303.64 579.41s-39.014 112.67-119.2 197.99c-54.045 57.509 234.36-65.18 288.9-156.57"/>
    </g>
   </g>
   <path d="m451.73 228.78s2.7419 28.064 20.966 53.01c12.283 16.814-69.119-31.681-78.646-56.116" stroke="#005600" stroke-width="7.406"/>
  </g>
  <g transform="matrix(.91612 0 0 .91491 39.96 26.5)" fill="#007b00" fill-rule="evenodd">
   <g transform="matrix(-1 0 0 1 736.07 49)">
    <path d="m221.64 579.41s-39.014 112.67-119.2 197.99c-54.045 57.509 234.36-65.18 288.9-156.57" stroke="#005600" stroke-width="8"/>
    <path d="m221.64 579.41s-39.014 112.67-119.2 197.99c-54.045 57.509 234.36-65.18 288.9-156.57" stroke="#00b805" stroke-width="3"/>
   </g>
   <path d="m318.33 512.85s-21.242 64.992-74.464 112.26c-35.872 31.857 167.6-29.426 201.62-81.263" stroke="#005600" stroke-width="8"/>
   <path d="m318.33 512.85s-21.242 64.992-74.464 112.26c-35.872 31.857 167.6-29.426 201.62-81.263" stroke="#00b805" stroke-width="3"/>
   <g transform="matrix(-1 0 0 1 759.02 -58.438)">
    <path d="m241.33 477.85s-21.242 64.992-74.464 112.26c-35.872 31.857 167.6-29.426 201.62-81.263" stroke="#005600" stroke-width="8"/>
    <path d="m241.33 477.85s-21.242 64.992-74.464 112.26c-35.872 31.857 167.6-29.426 201.62-81.263" stroke="#00b805" stroke-width="3"/>
   </g>
   <path d="m339.87 329.58s-6.426 41.859-37.407 77.995c-20.881 24.356 112.93-42.768 129.96-78.73" stroke="#005600" stroke-width="8"/>
   <path d="m339.87 329.58s-6.426 41.859-37.407 77.995c-20.881 24.356 112.93-42.768 129.96-78.73" stroke="#00b805" stroke-width="3"/>
   <path d="m449.47 221.1s2.993 30.674 22.886 57.94c13.408 18.378-75.448-34.627-85.847-61.335" stroke="#00b805" stroke-width="3"/>
  </g>
  <path d="m550.58 833.67c0 3.6982-58.705 6.6996-131.04 6.6996-72.333 0-130.11-3.1826-131.04-6.6996 23.343 98.49 120.16 98.21 131.48 98.286 12.005-0.17487 108.2-0.2583 130.59-98.286z" fill="#fff" opacity=".05" stroke="#fff" stroke-width="8.332"/>
 </g>
 <g fill="#fff" fill-rule="evenodd">
  <path d="m561.01 655.75c-6.8758-15.45-33.07-72.997-31.358-75.954 2.5098-4.6259 4.7978-5.7259 12.75-5.0998 6.8519 0.53949 21.207 5.5424 33.93 8.0204s28.027 6.0261 45.225 10.269c4.2994 1.0607 42.778 10.288 47.304 11.43 4.7875 8.2169 25.427 47.135 49.895 60.656 1.839 1.0164 4.0026 3.2463 3.4695 3.3374-3.9266 0.67108-28.29-5.9271-30.356-7.658-11.144-4.579 6.2984 20.608 3.9821 17.962-1.7002-1.9422 21.641 35.755 40.359 52.721 23.115 10.404 1.6189 11.252-21.574 14.597-9.7383 0.29224-23.568 1.3776-51.074-0.23859-15.677-1.2995-39.52-4.1323-48.005-5.2451-8.4853-1.1128-48.376-70.929-54.548-84.797z" opacity=".1"/>
  <path d="m638.43 467.71c-12.156 2.8897-28.289-11.09-33.21-6.7724 2.1757 5.2854 15.305 23.134 21.195 30.183 25.693 30.751 38.746 38.335 40.256 40.636-8.0619-0.42248-37.597-11.897-34.344-5.9492 42.407 56.394 59.421 66.616 64.575 70.703-11.756-1.7912-24.394-6.2291-33.292-9.0558-6.9634-7.6661-39.039-45.156-46.163-53.408-28.494-33.007-57.431-70.189-80.134-107.47-22.703-37.282-39.171-74.663-42.726-108.07-0.69641-6.5446 8.3584-6.9506 46.4 0.7945 4.129 4.412 14.126 15.832 38.336 33.479 14.788 10.78 1.7586 6.0462-28.853-2.4269 14.108 23.912 49.074 53.274 55.154 57.036 11.002 6.807 14.607 9.4208-27.308-2.4523 27.326 41.278 60.722 60.159 60.114 62.773z" opacity=".1"/>
  <path d="m149.31 660.29c-21.212 49.448-39.202 64.013-51.187 72.436-6.835 4.8039-4.0667 8.1642 3.4853 9.8344 32.485 7.1841 86.02 2.3364 104.13-0.17133 8.7691-9.7245 16.011-18.577 21.111-28.049 40.8-75.782-66.3 22.953-39.343-36.434s116.57-157.39 119.48-206.94c3.9416-67.017-78.478 46.447-58.286 4.3721 21.857-45.542 87.428-166.14 93.257-211.32 0.66336-5.142-0.14166-6.7921-2.0584-5.7429s-8.2465 4.0394-10.426 6.2076c-7.5864 7.5462-32.94 26.801-49.761 39.298 7.3725 2.7326 35.994-11.25 34.013-6.2333-5.3762 10.111-49.843 51.957-61.736 59.796 10.178-0.65155 21.944-5.1704 34.383-6.2836-11.755 19.688-36.42 41.932-59.633 60.422 12.866-0.61295 31.854-6.254 31.854-6.254-23.285 33.145-39.03 45.04-61.092 63.103 10.958-1.1992 23.222-6.0428 34.833-9.0642-25.018 44.806-48.085 59.756-63.214 72.442 7.5649-0.17902 23.93-5.3353 35.258-7.3662-24.684 40.794-41.577 54.096-62.365 71.593 7.2296-0.867 23.222-5.7598 34.833-8.6397-5.6498 13.393-15.761 34.437-41.567 64.376-16.896 14.888-21.769 16.456-16.101 16.406" opacity=".1"/>
  <path d="m442.67 133.33c13.58 18.249 19.582 23.848 33.362 33.704-5.8511 0.44698-16.233-3.024-24.692-5.3756-8.4591-2.3515-13.035-4.1437-9.2359 1.0615 3.7653 5.1583 54.133 44.306 60.539 49.512-4.4046-0.12627-9.4438-0.48447-15.063-3.0264-11.239-5.084-20.377-7.6422-31.806-10.618-11.429-2.9763-22.91-4.9702-34.353-6.1249-11.444-1.1547-22.85-1.4701-34.132-1.0892-11.282 0.38081-16.279 1.1778-27.224 2.808 10.338-9.0126 35.127-29.841 35.939-34.484-15.262 3.1388-22.207 5.8686-33.87 7.2625 6.4451-5.5146 17.166-11.026 34.457-36.709 7.0997-12.276 13.359-22.025 21.859-41.03 8.3534 17.784 11.92 23.712 24.22 44.108z" opacity=".1"/>
 </g>
 <g stroke-linecap="round" stroke-linejoin="round">
  <path d="m324.01 973.18l11.219 45.449c57.523 6.6698 112.37 7.1462 169.32 0.18542l11.366-45.449c-64.774 60.541-127.14 57.934-191.91-0.18542z" opacity=".1" stroke-width="2.777"/>
  <g fill="url(#a)" stroke-width="1.7">
   <path d="m468.11 81.092a49.219 44.983 0 1 1 -0.001587 -0.35551"/>
   <path d="m468.11 81.092a49.219 44.983 0 1 1 -0.001587 -0.35551"/>
   <path d="m468.11 81.092a49.219 44.983 0 1 1 -0.001587 -0.35551"/>
   <path d="m468.11 81.092a49.219 44.983 0 1 1 -0.001587 -0.35551"/>
  </g>
  <path d="m388.91 126.64l26.837-24.812 30.682 20.067-15.804-32.657 28.957-22.384-36.584 4.6277-12.786-33.893-6.8166 35.516-36.858 1.4293 32.38 17.315-10.006 34.792zm7.6795-10.212l7.2952-25.37-23.614-12.617 26.873-1.0496 4.9732-25.895 9.3166 24.728 26.669-3.3811-21.121 16.316 11.526 23.812-22.375-14.636-19.543 18.093z" fill="#ffe300" stroke="#ffe300" stroke-width="8"/>
  <path d="m388.91 126.64l26.837-24.812 30.682 20.067-15.804-32.657 28.957-22.384-36.584 4.6277-12.786-33.893-6.8166 35.516-36.858 1.4293 32.38 17.315-10.006 34.792zm7.6795-10.212l7.2952-25.37-23.614-12.617 26.873-1.0496 4.9732-25.895 9.3166 24.728 26.669-3.3811-21.121 16.316 11.526 23.812-22.375-14.636-19.543 18.093z" fill="#ff0" stroke="#ffffba" stroke-width="1.551"/>
 </g>
 <g stroke="#000" stroke-width="5">
  <ellipse cx="417.68" cy="507.22" rx="33" ry="41" fill="#f00"/>
  <ellipse cx="402.68" cy="202.72" rx="32" ry="39.5" fill="#f0f"/>
  <ellipse cx="298.18" cy="667.72" rx="33.5" ry="37.5" fill="#ffff56"/>
  <ellipse cx="255.18" cy="518.22" rx="35.5" ry="34" fill="#7f003f"/>
  <ellipse cx="584.18" cy="539.22" rx="31.5" ry="37" fill="#faa"/>
  <ellipse cx="480.68" cy="360.72" rx="33" ry="39.5" fill="#ff7f00"/>
  <ellipse cx="335.68" cy="351.72" rx="35" ry="40.5" fill="#aaf"/>
  <ellipse cx="467.18" cy="640.22" rx="36.5" ry="38" fill="#0ff"/>
 </g>
</svg>
