<?xml version="1.0" encoding="UTF-8"?>
<svg viewBox="0 0 422.88486 160.75505" xmlns="http://www.w3.org/2000/svg" xmlns:xlink="http://www.w3.org/1999/xlink">
 <defs>
  <linearGradient id="p">
   <stop stop-color="#fcfcff" offset="0"/>
   <stop stop-color="#fcfcff" stop-opacity="0" offset="1"/>
  </linearGradient>
  <linearGradient id="a">
   <stop stop-opacity=".6478" offset="0"/>
   <stop stop-opacity="0" offset="1"/>
  </linearGradient>
  <linearGradient id="o" x1="177.94" x2="199.03" y1="254.02" y2="233.84" gradientUnits="userSpaceOnUse">
   <stop stop-color="#1c161a" offset="0"/>
   <stop stop-color="#38383b" stop-opacity=".9872" offset="1"/>
  </linearGradient>
  <linearGradient id="q" x2="0" y1="149.02" y2="188.06" gradientTransform="matrix(2.7007 .55685 -2.0936 .71832 -134.61 106.5)" gradientUnits="userSpaceOnUse" xlink:href="#p"/>
  <linearGradient id="n" x2="0" y1="142.23" y2="148.3" gradientUnits="userSpaceOnUse" xlink:href="#a"/>
  <linearGradient id="m" x2="0" y1="148.88" y2="154.96" gradientUnits="userSpaceOnUse" xlink:href="#a"/>
  <linearGradient id="l" x2="0" y1="155.54" y2="161.61" gradientUnits="userSpaceOnUse" xlink:href="#a"/>
  <linearGradient id="k" x2="0" y1="162.2" y2="168.27" gradientUnits="userSpaceOnUse" xlink:href="#a"/>
  <linearGradient id="j" x2="0" y1="168.85" y2="174.92" gradientUnits="userSpaceOnUse" xlink:href="#a"/>
  <linearGradient id="i" x2="0" y1="175.51" y2="181.58" gradientUnits="userSpaceOnUse" xlink:href="#a"/>
  <linearGradient id="h" x2="0" y1="182.16" y2="188.23" gradientUnits="userSpaceOnUse" xlink:href="#a"/>
  <linearGradient id="g" x2="0" y1="188.82" y2="194.89" gradientUnits="userSpaceOnUse" xlink:href="#a"/>
  <linearGradient id="f" x2="0" y1="195.48" y2="201.55" gradientUnits="userSpaceOnUse" xlink:href="#a"/>
  <linearGradient id="e" x2="0" y1="202.13" y2="208.2" gradientUnits="userSpaceOnUse" xlink:href="#a"/>
  <linearGradient id="d" x2="0" y1="208.79" y2="214.86" gradientUnits="userSpaceOnUse" xlink:href="#a"/>
  <linearGradient id="r" x2="0" y1="424.6" y2="463.64" gradientUnits="userSpaceOnUse" xlink:href="#p"/>
  <radialGradient id="c" cx="183.57" cy="241.65" r="26.429" gradientUnits="userSpaceOnUse">
   <stop stop-color="#cacaca" offset="0"/>
   <stop stop-color="#575859" offset="1"/>
  </radialGradient>
  <radialGradient id="b" cx="186.34" cy="244.02" r="7.1562" gradientUnits="userSpaceOnUse">
   <stop offset="0"/>
   <stop stop-color="#878989" stop-opacity=".9521" offset="1"/>
  </radialGradient>
 </defs>
 <g transform="translate(-172.58 -386.13)">
  <path d="m179.96798,388.31372h389.87052a.15402,.15402 0 0,1 .15402.15402v6.47768a.15402,.15402 0 0,1 -.15402.15402h-389.87052a.15402,.15402 0 0,1 -.15402-.15402v-6.47768a.15402,.15402 0 0,1 .15402-.15402" fill="#383a39" fill-rule="evenodd"/>
  <path d="m193.92 403.49h19.643s-1.5394-9.7146-3.5714-14.107-11.891-4.5242-13.661 0.71429c-1.7523 5.1869-1.6964 13.393-2.4107 13.393z" fill="#808086" fill-rule="evenodd"/>
  <path d="m194.63 399.75c-0.10329 0.97482-0.18419 1.828-0.28125 2.4688h-5.9688c-6.9682 1.091-9.3935 3.202-9.4375 9.3438l0.3125 104.94h408.19s1.7448-39.458-2.1875-45.938c-9.127-15.038-11.906-59.906-11.906-59.906-2.3749-2.2171-4.4237-2.8231-10.406-2.7188h-100.25c-4.0789 0-6.8706-5.7188-10.969-5.7188h-238.38c-0.11089-0.62202-0.27384-1.4959-0.46875-2.4688h-18.25z" fill="#840007" fill-opacity=".9872" fill-rule="evenodd"/>
  <g transform="translate(86.579 275.58)">
   <path transform="matrix(.98688 0 0 .98688 5.1837 5.5387)" d="m210 241.65c0 14.589-11.84 26.429-26.429 26.429s-26.429-11.84-26.429-26.429 11.84-26.429 26.429-26.429 26.429 11.84 26.429 26.429z" fill="#212223"/>
   <path transform="matrix(.6085 0 0 .6085 74.643 96.973)" d="m210 241.65c0 14.596-11.832 26.429-26.429 26.429s-26.429-11.832-26.429-26.429 11.832-26.429 26.429-26.429 26.429 11.832 26.429 26.429z" fill="url(#c)"/>
   <path d="m186.34 236.88c-3.9486 0-7.1562 3.1764-7.1562 7.125s3.2077 7.1563 7.1562 7.1562 7.1562-3.2077 7.1562-7.1562-3.2077-7.125-7.1562-7.125zm0 1.9375c2.8643 0 5.1875 2.3232 5.1875 5.1875s-2.3232 5.2188-5.1875 5.2188-5.1875-2.3545-5.1875-5.2188 2.3232-5.1875 5.1875-5.1875z" fill="url(#b)"/>
   <path d="m186.34 231.31c-3.3033 0-6.3044 1.2659-8.5625 3.3438l2.4062 2.6875c1.6258-1.4961 3.777-2.4375 6.1562-2.4375 1.6128 0 3.1216 0.41948 4.4375 1.1562l1.8125-3.0938c-1.848-1.0559-3.9729-1.6562-6.25-1.6562zm9.9375 4.8125-2.7812 2.2812c1.2194 1.5516 1.9688 3.5023 1.9688 5.625 0 1.7177-0.48447 3.319-1.3125 4.6875l3.1562 1.6875c1.0953-1.8759 1.7188-4.0472 1.7188-6.375 0-2.979-1.0295-5.7343-2.75-7.9062zm-21.281 2.2188c-0.85747 1.7127-1.3438 3.6462-1.3438 5.6875 0 3.112 1.1388 5.9484 3 8.1562l2.75-2.25c-1.3619-1.5875-2.1875-3.6491-2.1875-5.9062 0-1.4206 0.32505-2.7689 0.90625-3.9688l-3.125-1.7188zm17.25 12.625c-1.5924 1.3475-3.656 2.1562-5.9062 2.1562-1.7978 0-3.4609-0.54196-4.875-1.4375l-1.8438 3.0938c1.9514 1.2244 4.2463 1.9375 6.7188 1.9375 3.168 0 6.0574-1.1722 8.2812-3.0938l-2.375-2.6562z" fill="url(#o)"/>
  </g>
  <g transform="translate(353 276.79)">
   <path transform="matrix(.98688 0 0 .98688 5.1837 5.5387)" d="m210 241.65c0 14.589-11.84 26.429-26.429 26.429s-26.429-11.84-26.429-26.429 11.84-26.429 26.429-26.429 26.429 11.84 26.429 26.429z" fill="#212223"/>
   <path transform="matrix(.6085 0 0 .6085 74.643 96.973)" d="m210 241.65c0 14.596-11.832 26.429-26.429 26.429s-26.429-11.832-26.429-26.429 11.832-26.429 26.429-26.429 26.429 11.832 26.429 26.429z" fill="url(#c)"/>
   <path d="m186.34 236.88c-3.9486 0-7.1562 3.1764-7.1562 7.125s3.2077 7.1563 7.1562 7.1562 7.1562-3.2077 7.1562-7.1562-3.2077-7.125-7.1562-7.125zm0 1.9375c2.8643 0 5.1875 2.3232 5.1875 5.1875s-2.3232 5.2188-5.1875 5.2188-5.1875-2.3545-5.1875-5.2188 2.3232-5.1875 5.1875-5.1875z" fill="url(#b)"/>
   <path d="m186.34 231.31c-3.3033 0-6.3044 1.2659-8.5625 3.3438l2.4062 2.6875c1.6258-1.4961 3.777-2.4375 6.1562-2.4375 1.6128 0 3.1216 0.41948 4.4375 1.1562l1.8125-3.0938c-1.848-1.0559-3.9729-1.6562-6.25-1.6562zm9.9375 4.8125-2.7812 2.2812c1.2194 1.5516 1.9688 3.5023 1.9688 5.625 0 1.7177-0.48447 3.319-1.3125 4.6875l3.1562 1.6875c1.0953-1.8759 1.7188-4.0472 1.7188-6.375 0-2.979-1.0295-5.7343-2.75-7.9062zm-21.281 2.2188c-0.85747 1.7127-1.3438 3.6462-1.3438 5.6875 0 3.112 1.1388 5.9484 3 8.1562l2.75-2.25c-1.3619-1.5875-2.1875-3.6491-2.1875-5.9062 0-1.4206 0.32505-2.7689 0.90625-3.9688l-3.125-1.7188zm17.25 12.625c-1.5924 1.3475-3.656 2.1562-5.9062 2.1562-1.7978 0-3.4609-0.54196-4.875-1.4375l-1.8438 3.0938c1.9514 1.2244 4.2463 1.9375 6.7188 1.9375 3.168 0 6.0574-1.1722 8.2812-3.0938l-2.375-2.6562z" fill="url(#o)"/>
  </g>
  <path d="m501.01 410.72c10.546-0.5575 63.934 0 63.934 0 1.3991 0 2.5254 1.1263 2.5254 2.5254l6.4286 47.982c0 1.3991-1.1263 2.5254-2.5254 2.5254h-46.077c-1.3991 0-2.5254-1.1263-2.5254-2.5254l-10-27.92-14.286-20.063c0-1.3991 1.1285-2.4515 2.5254-2.5254z" fill="#88b1bf" fill-opacity=".9872" fill-rule="evenodd"/>
  <path d="m584.33 500.88c-1.389 1.6415-1.1364 9.849-1.7678 11.364s-5.8084 1.1364-6.6923 2.3991-2.1466 5.5558-0.50507 6.6923 18.056 1.6415 18.94 0.12627 1.894-11.996 0.3788-13.385-3.6618-7.1973-4.7982-7.7024-5.5558 0.63134-5.5558 0.50507z" fill="#212223"/>
  <path d="m182.76 501.16c1.2699 1.6415 1.039 9.849 1.6163 11.364s5.3106 1.1364 6.1188 2.3991 1.9626 5.5558 0.46179 6.6923-16.509 1.6415-17.317 0.12627-1.7317-11.996-0.34635-13.385 3.348-7.1973 4.387-7.7024 5.0797 0.63134 5.0797 0.50507z" fill="#212223"/>
  <path d="m585.22 487.5 2.841 0.0631c1.0733 5.177 1.2627 9.0282 0.0631 13.321-0.85228-0.11574-2.8411-0.12626-2.8411-0.12626l-0.0631-13.258z" fill="#b6b8b8" fill-opacity=".8243" fill-rule="evenodd"/>
  <path d="m583.83 487.65c-0.70046 2.2775-1.0507 11.388-0.35022 13.458 1.0507 0.20705 2.8018 0 2.8018 0-0.87556-2.8987-0.70046-10.559 0.17512-13.665-2.4516-0.20704-2.8018 0.41409-2.6267 0.20705z" fill="#5e5f61" fill-rule="evenodd"/>
  <g transform="translate(173.99 275.58)">
   <path d="m352.9 122.01h11.607a1.0714 1.4286 0 0 1 1.0714 1.4286v6.25a1.0714 1.4286 0 0 1 -1.0714 1.4286h-11.607a1.0714 1.4286 0 0 1 -1.0714 -1.4286v-6.25a1.0714 1.4286 0 0 1 1.0714 -1.4286" fill="#ac5651"/>
   <path d="m356.02 129.86 0.0893-4.6525c1.25-1.6183 3.7054-1.1631 4.7768-0.10113 0.0893 1.1631 0 4.7537 0 4.7537h-4.8661z" fill="#f1f6f0" fill-opacity=".5783" fill-rule="evenodd"/>
   <path d="m358.75,122c-1.20833,2.20084-1.72647,8.05287.65625,9.0625l.1875.0625h4.90625c.59357,0 1.09375-.64607 1.09375-1.4375v-6.25c0-.79143-.50017-1.4375-1.09375-1.4375h-5.75z" fill="#f1f6f0" fill-opacity=".4345" fill-rule="evenodd"/>
   <path d="m351.79 129.51h13.929v3.0357h-13.929z" fill="#5e5f61"/>
  </g>
  <g transform="matrix(1.1414 0 0 1.0393 19.78 -6.5047)">
   <path d="m148.03 403.45h80.812v72.731h-80.812z" fill="#38383b" fill-opacity=".9872"/>
   <g transform="translate(2.5719 261.24)">
    <path d="m145.44 142.23h80.809v6.0714h-80.809z" fill="url(#n)"/>
    <path d="m145.47 148.88h80.714v6.0714h-80.714z" fill="url(#m)"/>
    <path d="m145.44 155.54h80.809v6.0714h-80.809z" fill="url(#l)"/>
    <path d="m145.47 162.2h80.714v6.0714h-80.714z" fill="url(#k)"/>
    <path d="m145.44 168.85h80.809v6.0714h-80.809z" fill="url(#j)"/>
    <path d="m145.47 175.51h80.714v6.0714h-80.714z" fill="url(#i)"/>
    <path d="m145.44 182.16h80.809v6.0714h-80.809z" fill="url(#h)"/>
    <path d="m145.47 188.82h80.714v6.0714h-80.714z" fill="url(#g)"/>
    <path d="m145.44 195.48h80.809v6.0714h-80.809z" fill="url(#f)"/>
    <path d="m145.47 202.13h80.714v6.0714h-80.714z" fill="url(#e)"/>
    <path d="m145.44 208.79h80.809v6.0714h-80.809z" fill="url(#d)"/>
   </g>
  </g>
  <g transform="matrix(1.4524 0 0 1.0393 -51.061 -6.5047)">
   <path d="m232.89 403.45h50.508v72.731h-50.508z" fill="#38383b" fill-opacity=".9872"/>
   <g transform="matrix(.62499 0 0 1 141.97 261.24)">
    <path d="m145.44 142.23h80.809v6.0714h-80.809z" fill="url(#n)"/>
    <path d="m145.47 148.88h80.714v6.0714h-80.714z" fill="url(#m)"/>
    <path d="m145.44 155.54h80.809v6.0714h-80.809z" fill="url(#l)"/>
    <path d="m145.47 162.2h80.714v6.0714h-80.714z" fill="url(#k)"/>
    <path d="m145.44 168.85h80.809v6.0714h-80.809z" fill="url(#j)"/>
    <path d="m145.47 175.51h80.714v6.0714h-80.714z" fill="url(#i)"/>
    <path d="m145.44 182.16h80.809v6.0714h-80.809z" fill="url(#h)"/>
    <path d="m145.47 188.82h80.714v6.0714h-80.714z" fill="url(#g)"/>
    <path d="m145.44 195.48h80.809v6.0714h-80.809z" fill="url(#f)"/>
    <path d="m145.47 202.13h80.714v6.0714h-80.714z" fill="url(#e)"/>
    <path d="m145.44 208.79h80.809v6.0714h-80.809z" fill="url(#d)"/>
   </g>
  </g>
  <path d="m542.47469,430.90689c-4.3167.0408-19.72071,2.63542-28.78125,4.96875l9.0625,25.34375v.0312c0,.69953.29207,1.32332.75,1.78125 .22823.22823.51016.4038.8125.53125 .15144.064.3039.12256.46875.15625s.32512.0312.5.0312h46.09375c1.39907,0 2.49999-1.13217 2.5-2.53125l-3.53125-26.40615c-10.38932-1.89046-23.90284-3.66019-27.125-3.875-.23673-.0158-.49723-.0336-.75-.0312z" fill="url(#r)" fill-rule="evenodd"/>
  <g transform="translate(33.546 275.58)">
   <path transform="matrix(.98688 0 0 .98688 5.1837 5.5387)" d="m210 241.65c0 14.589-11.84 26.429-26.429 26.429s-26.429-11.84-26.429-26.429 11.84-26.429 26.429-26.429 26.429 11.84 26.429 26.429z" fill="#212223"/>
   <path transform="matrix(.6085 0 0 .6085 74.643 96.973)" d="m210 241.65c0 14.596-11.832 26.429-26.429 26.429s-26.429-11.832-26.429-26.429 11.832-26.429 26.429-26.429 26.429 11.832 26.429 26.429z" fill="url(#c)"/>
   <path d="m186.34 236.88c-3.9486 0-7.1562 3.1764-7.1562 7.125s3.2077 7.1563 7.1562 7.1562 7.1562-3.2077 7.1562-7.1562-3.2077-7.125-7.1562-7.125zm0 1.9375c2.8643 0 5.1875 2.3232 5.1875 5.1875s-2.3232 5.2188-5.1875 5.2188-5.1875-2.3545-5.1875-5.2188 2.3232-5.1875 5.1875-5.1875z" fill="url(#b)"/>
   <path d="m186.34 231.31c-3.3033 0-6.3044 1.2659-8.5625 3.3438l2.4062 2.6875c1.6258-1.4961 3.777-2.4375 6.1562-2.4375 1.6128 0 3.1216 0.41948 4.4375 1.1562l1.8125-3.0938c-1.848-1.0559-3.9729-1.6562-6.25-1.6562zm9.9375 4.8125-2.7812 2.2812c1.2194 1.5516 1.9688 3.5023 1.9688 5.625 0 1.7177-0.48447 3.319-1.3125 4.6875l3.1562 1.6875c1.0953-1.8759 1.7188-4.0472 1.7188-6.375 0-2.979-1.0295-5.7343-2.75-7.9062zm-21.281 2.2188c-0.85747 1.7127-1.3438 3.6462-1.3438 5.6875 0 3.112 1.1388 5.9484 3 8.1562l2.75-2.25c-1.3619-1.5875-2.1875-3.6491-2.1875-5.9062 0-1.4206 0.32505-2.7689 0.90625-3.9688l-3.125-1.7188zm17.25 12.625c-1.5924 1.3475-3.656 2.1562-5.9062 2.1562-1.7978 0-3.4609-0.54196-4.875-1.4375l-1.8438 3.0938c1.9514 1.2244 4.2463 1.9375 6.7188 1.9375 3.168 0 6.0574-1.1722 8.2812-3.0938l-2.375-2.6562z" fill="url(#o)"/>
  </g>
  <g transform="matrix(1.4524 0 0 .63663 30.809 157.06)">
   <path d="m232.89 403.45h50.508v72.731h-50.508z" fill="#38383b" fill-opacity=".9872"/>
   <g transform="matrix(.62499 0 0 1 141.97 261.24)">
    <path d="m145.44 142.23h80.809v6.0714h-80.809z" fill="url(#n)"/>
    <path d="m145.47 148.88h80.714v6.0714h-80.714z" fill="url(#m)"/>
    <path d="m145.44 155.54h80.809v6.0714h-80.809z" fill="url(#l)"/>
    <path d="m145.47 162.2h80.714v6.0714h-80.714z" fill="url(#k)"/>
    <path d="m145.44 168.85h80.809v6.0714h-80.809z" fill="url(#j)"/>
    <path d="m145.47 175.51h80.714v6.0714h-80.714z" fill="url(#i)"/>
    <path d="m145.44 182.16h80.809v6.0714h-80.809z" fill="url(#h)"/>
    <path d="m145.47 188.82h80.714v6.0714h-80.714z" fill="url(#g)"/>
    <path d="m145.44 195.48h80.809v6.0714h-80.809z" fill="url(#f)"/>
    <path d="m145.47 202.13h80.714v6.0714h-80.714z" fill="url(#e)"/>
    <path d="m145.44 208.79h80.809v6.0714h-80.809z" fill="url(#d)"/>
   </g>
  </g>
  <path d="m573.66 411-0.28125 0.0312c0.13098 2.0444 2.9654 44.851 11.875 59.531 0.10501 0.17302 0.1842 0.37503 0.28125 0.59375 0.0493-2.4098 0.28135-19.5-2.875-32.125-3.3928-13.571-9-28.031-9-28.031z" fill="#88b1bf" fill-opacity=".9872" fill-rule="evenodd"/>
  <path d="m575.85 434.78c1.74 12.498 4.5312 26.774 8.7812 34.656 0.31468-0.72085 0.61883-1.4325 0.90625-2.1562-0.0409-6.2594-0.43811-18.502-2.875-28.25-0.29676-1.187-0.64334-2.3721-0.96875-3.5625l-5.8438-0.6875z" fill="url(#q)" fill-rule="evenodd"/>
  <path transform="translate(167.67 12.202)" d="m40 380.13c0 2.6135-2.1186 4.7321-4.7321 4.7321s-4.7321-2.1186-4.7321-4.7321 2.1186-4.7322 4.7321-4.7322 4.7321 2.1187 4.7321 4.7322z" fill="#383a39" fill-rule="evenodd"/>
 </g>
</svg>
