<?xml version="1.0" encoding="UTF-8"?>
<!DOCTYPE svg  PUBLIC '-//W3C//DTD SVG 1.1//EN'  'http://www.w3.org/Graphics/SVG/1.1/DTD/svg11.dtd'>
<svg width="291.46px" height="138.96px" enable-background="new -4.428 75.651 291.457 138.957" version="1.1" viewBox="-4.428 75.651 291.457 138.957" xml:space="preserve" xmlns="http://www.w3.org/2000/svg">
<path d="m258.75 139.39c0.772-14.018 13.186-23.096 16.519-36.323 2.724-0.424 5.558-0.629 8.521-0.54 0 0-9.934 12.945-12.537 22.252-2.604 9.307-4.063 11.386-6.765 12.748 0 0 4.109 2.13 5.843 4.409 1.73 2.277 8.533 15.773 16.701 19.243 0 0-4.357 1.94-10.896 3.53-6.797-8.486-19.152-13.557-17.386-25.319z" fill="#fff"/>
<linearGradient id="ak" x1="-133.2" x2="-186.45" y1="705.71" y2="703.17" gradientTransform="matrix(-.9981 .062 .062 .9981 69.23 -558.63)" gradientUnits="userSpaceOnUse">
	<stop stop-color="#fff" offset="0"/>
	<stop stop-color="#65B1BD" offset="1"/>
</linearGradient>
<path d="m222.65 128.84c2.618-0.349 6.891-1.601 13.125-5.44 9.908-6.102 22.438-17.68 39.493-20.336-3.333 13.227-15.744 22.305-16.517 36.323-1.768 11.763 10.588 16.833 17.381 25.32-8.426 2.049-20.465 3.516-31.463-0.504-9.709-3.549-14.412-5.639-19.354-6.479-1.39-9.563-2.717-19.215-2.665-28.884z" fill="url(#ak)"/>
<path d="m-4.428 167.33c4.53-3.384 7.751-7.836 9.98-13.007 1.294-3.005 3.102-5.923 4.238-8.911 4.86-12.76 6.657-32.257 19.686-39.814 11.515-6.679 16.295-12.942 18.944-15.094 2.652-2.152 44.246-24.047 109.9-10.405 51.565 10.717 62.049 45.06 62.049 45.06s0.521 1.956-0.967 3.638c0 0 1.035 0.345 3.242 0.05-0.053 9.669 1.275 19.319 2.666 28.883-4.998-0.854-10.239-0.437-21.146 1.044 0 0 12.774 0.796 17.528 0.5 0 0-5.729 23.021-47.18 40.707s-101.16 16.622-111.06 10.875c-9.903-5.748-24.185-11.623-33.863-20.168-6.906-6.1-12.953-15.447-22.867-16.075-2.024-0.128-9.274 1.037-6.959-2.252-2.553-1.583-3.163-2.097-4.19-5.031z" fill="#fff"/>
<linearGradient id="au" x1="-127.04" x2="-150.89" y1="705.01" y2="705.01" gradientTransform="matrix(-.9981 .062 .062 .9981 69.23 -558.63)" gradientUnits="userSpaceOnUse">
	<stop stop-color="#1A70B8" offset="0"/>
	<stop stop-color="#1D1652" offset="1"/>
</linearGradient>
<path d="m266.11 109.59c-1.396-0.439-7.925 4.597-21.18 14.894 0 0 14.525-10.166 20.299-10.419l-5.291 9.698s-10.277 4.004-16.393 7.227c0 0 12.826-5.322 16.318-5.014l-1.596 4.837s-7.805 1.431-11.54 2.294c0 0 10.865-1.306 11.835-0.945 0.971 0.36 0.137 7.254 0.137 7.254s-9.609 2.913-11.496 3.03c0 0 8.998-0.876 11.774-1.89l4.575 12.662s-14.771 1.127-21.375-0.146c0 0 8.779 2.403 22.385 1.136l2.646 5.311s-13.289 1.246-23.313-4.232c10.067 7.898 22.601 6.277 26.78 5.809 4.18-0.471-3.523-5.885-3.523-5.885s-8.117-18.863-7.736-22.889c0.384-4.023 6.625-15.357 6.625-15.357" enable-background="new    " fill="url(#au)" opacity=".27"/>
<linearGradient id="av" x1="-139.81" x2="-161.36" y1="704.23" y2="704.23" gradientTransform="matrix(-.9981 .062 .062 .9981 69.23 -558.63)" gradientUnits="userSpaceOnUse">
	<stop stop-color="#1A70B8" offset="0"/>
	<stop stop-color="#1D1652" offset="1"/>
</linearGradient>
<path d="m267.98 104.78c3.013-0.952 6.177-1.658 9.513-2.015-6.996 10.687-13.361 21.948-14.176 33.479-0.246 8.583 7.553 23.664 18.607 26.819-2.663 0.866-6.209 1.861-10.288 2.599-11.73-8.313-17.343-21.231-17.519-24.081 1.827-11.703 4.682-27.937 13.863-36.801z" fill="url(#av)"/>
<linearGradient id="aw" x1="-127.59" x2="-114.06" y1="709.58" y2="709.58" gradientTransform="matrix(-.9981 .062 .062 .9981 69.23 -558.63)" gradientUnits="userSpaceOnUse">
	<stop stop-color="#1A70B8" offset="0"/>
	<stop stop-color="#1D1652" offset="1"/>
</linearGradient>
<path d="m223.3 128.75c2.656-0.467 6.74-1.814 12.476-5.346 1.179-0.726 2.397-1.533 3.653-2.39-2.284 5.965-2.981 12.407-0.672 18.665 2.338 8.109-0.695 14.792 1.238 22.795-7.402-2.775-11.42-4.371-16.007-4.941-2.24-9.626-2.901-19.452-0.688-28.783z" fill="url(#aw)"/>
<path d="m230.99 159.19c-1.697-0.557-3.229-0.985-4.754-1.294 1.834-0.591 3.403 0.036 4.754 1.294z" fill="#fff"/>
<path d="m221.7 159.27s-0.021 0.076-0.055 0.191c-0.297-0.053-0.596-0.1-0.893-0.148 0.342-0.01 0.661-0.023 0.948-0.043z" fill="#fff"/>
<path d="m187.67 130.46c2.947 0.545 6.514 2.171 7.738 5.054-2.475 0.521-4.924 1.037-7.326 1.592 2.402-0.555 4.854-1.071 7.326-1.592 0.377 0.887 0.539 1.889 0.387 3.019 0.151-1.13-0.01-2.132-0.387-3.019 7.965-1.676 16.182-3.399 23.944-6.659 0.146 0.062 0.304 0.07 0.472 0.027 1.049 0.167 4.121 0.307 9.646-2.131-2.893 6.685-0.184 14.021 0.314 22.059 0.117 1.898-2.611 3.975-1.604 4.865 1.104 2.33 2.9 4.135 4.457 6.078-0.566-0.197-27.412-1.775-33.059 0.56l-36.916-14.914c5.079-8.763 14.553-15.036 25.008-14.939z" fill="#FEEC22"/>
<radialGradient id="ax" cx="-32.633" cy="890.68" r="128.36" gradientTransform="matrix(-.8146 .0506 .0506 .8146 43.702 -544.24)" gradientUnits="userSpaceOnUse">
	<stop stop-color="#EF4123" offset="0"/>
	<stop stop-color="#EF4523" offset=".1406"/>
	<stop stop-color="#F05123" offset=".2743"/>
	<stop stop-color="#F06224" offset=".4053"/>
	<stop stop-color="#F27724" offset=".5347"/>
	<stop stop-color="#F38F25" offset=".6629"/>
	<stop stop-color="#F6AD26" offset=".7902"/>
	<stop stop-color="#FAD025" offset=".9145"/>
	<stop stop-color="#FEEC22" offset="1"/>
</radialGradient>
<path d="m48.42 90.502c0.68-0.551 3.91-2.394 9.434-4.602 55.488-15.254 130.48-15.066 161.15 42.617 0.101 0.172 0.222 0.282 0.355 0.341-7.766 3.26-15.98 4.983-23.945 6.659-1.226-2.883-4.791-4.509-7.738-5.054-10.455-0.097-19.93 6.176-25.004 14.94l-118.77-47.985c2.408-4.908 3.602-6.167 4.523-6.916z" fill="url(#ax)"/>
<radialGradient id="ay" cx="-105" cy="887.21" r="205.34" gradientTransform="matrix(-.8146 .0506 .0506 .8146 43.702 -544.24)" gradientUnits="userSpaceOnUse">
	<stop stop-color="#fff" offset="0"/>
	<stop stop-color="#65B1BD" offset="1"/>
</radialGradient>
<path d="m142.8 159.93c22.299-2.937 63.932-1.513 61.364-1.162 0 0 11.273 0.702 16.582 0.543 0.297 0.052 0.595 0.097 0.892 0.147-0.63 2.162-7.793 23.733-47.125 40.517-41.451 17.685-101.16 16.622-111.06 10.875-2.074-1.205-4.345-2.415-6.719-3.651 17.991-13.013 36.698-23.806 55.155-38.679 8.129-7.176 20.47-7.942 30.914-8.59z" fill="url(#ay)"/>
<linearGradient id="az" x1="169.49" x2="218.66" y1="-172.35" y2="-172.35" gradientTransform="matrix(1 0 0 -1 -155.93 3.7705)" gradientUnits="userSpaceOnUse">
	<stop stop-color="#FEEC22" offset="0"/>
	<stop stop-color="#fff" offset=".9494"/>
</linearGradient>
<path d="m21.764 159.82c15.011-3.791 43.729-1.762 40.756 11.766-1.953 9.436-19.347 12.313-28.622 22.523-1.505-1.096-2.955-2.232-4.309-3.428-5.605-4.949-8.107-9.875-15.109-12.705 0.539-2.625-1.421-7.41-0.789-10.029 0.772-2.909 4.333-6.941 8.073-8.127z" fill="url(#az)"/>
<radialGradient id="ba" cx="-66.909" cy="799.65" r="170.17" gradientTransform="matrix(-.8146 .0506 .0506 .8146 43.702 -544.24)" gradientUnits="userSpaceOnUse">
	<stop stop-color="#4899D4" offset="0"/>
	<stop stop-color="#385AA9" offset="1"/>
</radialGradient>
<path d="m48.42 90.502c0.387-0.313 1.604-1.047 3.592-2.025 35.446-0.749 71.136-10.75 104.94 7.678 16.785 9.441 26.272 24.1 41.281 35.559 4.782 3.264 2.557 8.744 1.871 13.396-0.689 4.688 1.408 10.397 5.195 13.511-0.377 0.049-0.744 0.099-1.135 0.151 0 0 0.539 0.033 1.426 0.082 0.018 0.012 0.029 0.024 0.045 0.036-27.303 20.757-53.477 44.301-88.425 49.33-14.123 2.783-28.6-0.131-42.957-1.145-4.206-0.121-8.157 1.426-12.07 3.059-8.394-4.719-19.452-9.594-28.286-16.021 9.275-10.211 26.669-13.09 28.622-22.523 2.836-12.908-23.185-15.342-38.615-12.24l15.081-60.216c4.974-3.966 7.681-7.205 9.437-8.632z" fill="url(#ba)"/>
<linearGradient id="bd" x1="-30.138" x2="-13.385" y1="634.28" y2="673.05" gradientTransform="matrix(-.9981 .062 .062 .9981 69.23 -558.63)" gradientUnits="userSpaceOnUse">
	<stop stop-color="#25B784" offset="0"/>
	<stop stop-color="#010101" offset="1"/>
</linearGradient>
<path d="m162.33 136.8c-15.777-8.55-27.104-22.143-44.546-26.778-23.291-6.722-46.494-12.057-69.238-19.614 0.481-0.351 1.646-1.037 3.465-1.932 35.446-0.749 71.136-10.75 104.94 7.678 16.786 9.441 26.273 24.1 41.282 35.559 0.899 0.616 1.556 1.312 2.015 2.066-0.274 0.255-0.566 0.499-0.891 0.721-11.038 6.404-25.219 8.237-37.025 2.3z" fill="url(#bd)"/>
<linearGradient id="bb" x1="-4.873" x2="-4.3974" y1="736.19" y2="769.02" gradientTransform="matrix(-.9981 .062 .062 .9981 69.23 -558.63)" gradientUnits="userSpaceOnUse">
	<stop stop-color="#fff" offset="0"/>
	<stop stop-color="#253B95" offset="1"/>
</linearGradient>
<path d="m62.521 171.59c0.106-0.482 0.16-0.946 0.187-1.399 33.02 7.281 68.018 3.251 101.57-2.062 13.116-2.373 24.563-11.032 35.773-19.787 0.384 3.861 2.302 7.856 5.248 10.277-0.377 0.051-0.744 0.098-1.133 0.151 0 0 0.537 0.033 1.426 0.082 0.016 0.012 0.029 0.024 0.044 0.036-27.302 20.757-53.478 44.301-88.426 49.33-14.123 2.781-28.6-0.131-42.957-1.145-4.206-0.123-8.157 1.426-12.07 3.057-8.394-4.717-19.452-9.594-28.286-16.021 9.276-10.206 26.67-13.085 28.623-22.519z" fill="url(#bb)"/>
<radialGradient id="bc" cx="55.258" cy="917.59" r="32.179" gradientTransform="matrix(-.8146 .0506 .0506 .8146 43.702 -544.24)" gradientUnits="userSpaceOnUse">
	<stop stop-color="#253B95" offset="0"/>
	<stop stop-color="#fff" offset=".9494"/>
</radialGradient>
<path d="m56.671 179.08c7.462 10.506 16.138 19.901 25.445 28.688-2.623-0.264-5.244-0.512-7.862-0.695-4.206-0.123-8.157 1.426-12.07 3.058-8.394-4.718-19.452-9.595-28.286-16.021 6.308-6.946 16.365-10.5 22.773-15.03z" fill="url(#bc)"/>
<linearGradient id="ac" x1="110.68" x2="71.15" y1="683.47" y2="699.56" gradientTransform="matrix(-.9981 .062 .062 .9981 69.23 -558.63)" gradientUnits="userSpaceOnUse">
	<stop stop-color="#1A70B8" offset="0"/>
	<stop stop-color="#1D1652" offset="1"/>
</linearGradient>
<path d="m-4.428 167.33c4.53-3.384 7.751-7.836 9.98-13.007 1.294-3.005 3.102-5.923 4.238-8.911 4.86-12.76 6.657-32.257 19.686-39.814 4.03-2.337 7.219-4.619 9.795-6.693 1.445 3.796 4.072 7.298 6.958 9.847 5.291 4.146 6.445 10.87 6.834 17.193 0.196 3.197 0.319 6.431 0.121 9.608-0.18 2.905-1.108 6.507 1.517 8.667-1.79-1.476-8.496 10.278-9.136 11.62-2.078 4.349-4.361 8.787-9.091 10.695-4.63 2.194-10.441 0.648-14.063 3.732-2.454 1.865-7.237 3.113-7.974 6.789-0.085-0.049-0.167-0.098-0.254-0.145-0.997-6.939-4.354-10.385-9.064-14.541-2.342-2.299 5.844 9.449 1.798 12.262-0.067-4e-3 -0.128-0.02-0.196-0.022-2.024-0.128-9.274 1.037-6.959-2.252-2.553-1.58-3.163-2.094-4.19-5.028z" fill="url(#ac)"/>
<radialGradient id="ad" cx="38.675" cy="863.71" r="59.292" gradientTransform="matrix(-.8146 .0506 .0506 .8146 43.702 -544.24)" gradientUnits="userSpaceOnUse">
	<stop stop-color="#1D1652" offset="0"/>
	<stop stop-color="#fff" offset="1"/>
</radialGradient>
<path d="m43.965 133.67c7.955-10.024-4.364-21.417-13.638-20.119 2.469-5.02 6.044-8.584 10.285-11.781 1.479 2.672 3.475 5.09 5.618 6.981 5.291 4.146 6.445 10.87 6.834 17.193 0.196 3.197 0.319 6.431 0.121 9.608-0.18 2.905-1.108 6.507 1.517 8.667-1.79-1.475-8.496 10.279-9.136 11.621-2.078 4.348-4.361 8.787-9.091 10.695-4.63 2.193-10.441 0.647-14.063 3.731-2.454 1.864-7.237 3.112-7.974 6.789-0.085-0.05-0.167-0.099-0.254-0.146-0.473-3.287-1.479-5.783-2.901-7.949 8.541-13.09 22.514-21.572 32.682-35.29z" fill="url(#ad)"/>
<path d="m39.919 160.6c3.874-6.202 5.859-18.366 13.945-17.28 0.227 0.318 0.503 0.618 0.838 0.896-1.472 2.511-6.832 10.169-7.472 11.511-2.078 4.347-4.27 9.59-9 11.5-1.319 0.625-4.489 0.249-5.922 0.46 3.36-1.699 6.045-4.068 7.611-7.087z" fill="#FEEC22"/>
		<radialGradient id="ae" cx="66.04" cy="818.63" r="15.419" gradientTransform="matrix(-.8146 .0506 .0506 .8146 43.702 -544.24)" gradientUnits="userSpaceOnUse">
		<stop stop-color="#1A9197" offset=".2809"/>
		<stop stop-color="#010101" stop-opacity="0" offset="1"/>
	</radialGradient>
	<path d="m19.272 123.49c-0.979 7.292 4.144 14.002 11.44 14.979 7.294 0.974 14-4.147 14.975-11.441 0.98-7.296-4.144-14.002-11.438-14.978-7.294-0.98-14.001 4.142-14.977 11.44z" fill="url(#ae)"/>
		<radialGradient id="af" cx="-85.952" cy="881.81" r="14.796" gradientTransform="matrix(-.8089 -.1083 -.1083 .8089 56.153 -591.47)" gradientUnits="userSpaceOnUse">
		<stop stop-color="#1A9197" offset="0"/>
		<stop stop-color="#1D1652" offset="1"/>
	</radialGradient>
	<circle cx="34.637" cy="126.06" r="7.956" fill="url(#af)"/>
		<radialGradient id="ag" cx="-93.981" cy="880.08" r="13.389" gradientTransform="matrix(-.8089 -.1083 -.1083 .8089 56.153 -591.47)" gradientUnits="userSpaceOnUse">
		<stop stop-color="#DAEFEB" offset="0"/>
		<stop stop-color="#fff" offset="1"/>
	</radialGradient>
	<circle cx="34.636" cy="126.06" r="6.465" fill="url(#ag)"/>
		<radialGradient id="ah" cx="-87.442" cy="879.48" r="8.2616" gradientTransform="matrix(-.8089 -.1083 -.1083 .8089 56.153 -591.47)" gradientUnits="userSpaceOnUse">
		<stop stop-color="#1A9197" offset="0"/>
		<stop stop-color="#1D1652" offset="1"/>
	</radialGradient>
	<circle cx="34.124" cy="126.58" r="4.441" fill="url(#ah)"/>
	<path d="m34.21 125.32c-1.297-0.949-3.114-0.666-4.063 0.63-0.949 1.299-0.664 3.118 0.632 4.067 1.294 0.948 3.118 0.665 4.062-0.633 0.951-1.295 0.665-3.115-0.631-4.064z" fill="#231F20"/>
	<circle cx="32.818" cy="125.49" r="1.013" fill="#fff"/>
		<radialGradient id="ai" cx="125.92" cy="695.5" r="13.599" gradientTransform="matrix(-1.1919 .1584 .1584 1.1919 96.98 -705.82)" gradientUnits="userSpaceOnUse">
		<stop stop-color="#F9C7D6" offset="0"/>
		<stop stop-color="#fff" stop-opacity="0" offset="1"/>
	</radialGradient>
	<path d="m40.853 145.25c1.191 8.951 9.412 15.244 18.363 14.054 8.951-1.188 15.246-9.41 14.057-18.362s-9.414-15.243-18.365-14.054c-8.949 1.189-15.242 9.41-14.055 18.362z" enable-background="new    " fill="url(#ai)" opacity=".71"/>
		<radialGradient id="aj" cx="129.77" cy="693.15" r="6.8992" gradientTransform="matrix(-1.1919 .1584 .1584 1.1919 96.98 -705.82)" gradientUnits="userSpaceOnUse">
		<stop stop-color="#F9C7D6" offset="0"/>
		<stop stop-color="#fff" stop-opacity="0" offset="1"/>
	</radialGradient>
	<path d="m43.885 142c0.606 4.542 4.776 7.734 9.318 7.129 4.54-0.604 7.733-4.774 7.128-9.315-0.601-4.541-4.774-7.736-9.315-7.131-4.539 0.604-7.733 4.774-7.131 9.317z" enable-background="new    " fill="url(#aj)" opacity=".71"/>
<radialGradient id="al" cx="-97.772" cy="3724.6" r="14.652" gradientTransform="matrix(-1.0619 .0659 .0108 .1746 55.972 -496.11)" gradientUnits="userSpaceOnUse">
	<stop stop-color="#FAF396" offset="0"/>
	<stop stop-color="#FEEC22" offset="1"/>
</radialGradient>
<path d="m184.47 148.73c0.088 1.412 7.123 2.126 15.715 1.593s15.484-2.111 15.396-3.525c-0.089-1.411-7.123-2.125-15.716-1.592-8.591 0.533-15.483 2.111-15.395 3.524z" fill="url(#al)"/>
		<radialGradient id="am" cx="41.265" cy="861.23" r="50.952" gradientTransform="matrix(-.8146 .0506 .0506 .8146 43.702 -544.24)" gradientUnits="userSpaceOnUse">
		<stop stop-color="#7BD3F7" offset="0"/>
		<stop stop-color="#22418C" offset="1"/>
	</radialGradient>
	<path d="m74.359 114.56c5.677-6.814 11.531-10.767 10.385 11.196-1.147 21.964 1.443 28.98 2.67 31.416 1.227 2.438-5.706 17.939-16.611 21.488-5.324 1.732-19.873-16.808-26.435-20.234 3.501-5.253 24.313-37.055 29.991-43.866z" fill="url(#am)"/>
		<linearGradient id="an" x1="72.377" x2="21.167" y1="699.92" y2="699.92" gradientTransform="matrix(-.9981 .062 .062 .9981 69.23 -558.63)" gradientUnits="userSpaceOnUse">
		<stop stop-color="#1A70B8" offset="0"/>
		<stop stop-color="#1D1652" offset="1"/>
	</linearGradient>
	<path d="m44.369 158.42s34.173-24.958 40.111-26.193c0.321-0.706-0.329-4.069 0-4.75-3.631 1.328-35.076 28.29-40.111 30.943z" enable-background="new    " fill="url(#an)" opacity=".27"/>
		<linearGradient id="ao" x1="75.383" x2="29.889" y1="693.56" y2="693.56" gradientTransform="matrix(-.9981 .062 .062 .9981 69.23 -558.63)" gradientUnits="userSpaceOnUse">
		<stop stop-color="#1A70B8" offset="0"/>
		<stop stop-color="#1D1652" offset="1"/>
	</linearGradient>
	<path d="m44.369 158.42s32.579-35.667 40.361-37.693v-6c-1.397-0.439-22.361 20.944-40.361 43.693z" enable-background="new    " fill="url(#ao)" opacity=".27"/>
		<linearGradient id="ap" x1="82.548" x2="12.211" y1="710.4" y2="710.4" gradientTransform="matrix(-.9981 .062 .062 .9981 69.23 -558.63)" gradientUnits="userSpaceOnUse">
		<stop stop-color="#1A70B8" offset="0"/>
		<stop stop-color="#1D1652" offset="1"/>
	</linearGradient>
	<path d="m44.369 158.42c1.414-0.174 36.508-3.062 42.111-3.943-0.516-0.609-1.39-5.411-1.75-6-4.599 1.441-38.612 9.667-40.361 9.943z" enable-background="new    " fill="url(#ap)" opacity=".27"/>
		<linearGradient id="aq" x1="70.84" x2="62.429" y1="714.12" y2="714.12" gradientTransform="matrix(-.9981 .062 .062 .9981 69.23 -558.63)" gradientUnits="userSpaceOnUse">
		<stop stop-color="#1A70B8" offset="0"/>
		<stop stop-color="#1D1652" offset="1"/>
	</linearGradient>
	<path d="m44.369 158.42c-0.155 0.021 0 0 0 0 0.064-4e-3 -0.096 0.017 0 0z" enable-background="new    " fill="url(#aq)" opacity=".27"/>
			<linearGradient id="ar" x1="72.798" x2="28.324" y1="719.72" y2="719.72" gradientTransform="matrix(-.9981 .062 .062 .9981 69.23 -558.63)" gradientUnits="userSpaceOnUse">
			<stop stop-color="#1A70B8" offset="0"/>
			<stop stop-color="#1D1652" offset="1"/>
		</linearGradient>
		<path d="m83.48 167.23s-32.507-7.532-39.111-8.807c0 0 29.141 3.896 42.361 2.807-0.614-0.471-3.25 6-3.25 6z" enable-background="new    " fill="url(#ar)" opacity=".27"/>
			<linearGradient id="as" x1="73.618" x2="43.01" y1="724.01" y2="724.01" gradientTransform="matrix(-.9981 .062 .062 .9981 69.23 -558.63)" gradientUnits="userSpaceOnUse">
			<stop stop-color="#1A70B8" offset="0"/>
			<stop stop-color="#1D1652" offset="1"/>
		</linearGradient>
		<path d="m44.369 158.42c10.068 7.899 30.182 14.525 34.361 14.057 1.596-0.18-3.722 4.794-4.5 3.75-4.746 0.318-21.571-13.273-29.861-17.807z" enable-background="new    " fill="url(#as)" opacity=".27"/>
		<linearGradient id="at" x1="83.409" x2="7.5747" y1="705.05" y2="705.05" gradientTransform="matrix(-.9981 .062 .062 .9981 69.23 -558.63)" gradientUnits="userSpaceOnUse">
		<stop stop-color="#1A70B8" offset="0"/>
		<stop stop-color="#1D1652" offset="1"/>
	</linearGradient>
	<path d="m84.65 137.75c-3.334 0.654-37.485 20.028-40.281 20.673 0 0 39.734-14.289 40.111-14.193 2e-3 -0.027-0.252-4.559-0.249-4.587 0.05-0.521 0.199-1.166 0.419-1.893z" enable-background="new    " fill="url(#at)" opacity=".27"/>
</svg>
