<?xml version="1.0" encoding="UTF-8"?>
<svg viewBox="0 0 4986.6699 3532.675" xmlns="http://www.w3.org/2000/svg">
 <defs>
  <filter id="d">
   <feGaussianBlur stdDeviation="23.29048"/>
  </filter>
  <filter id="c">
   <feGaussianBlur stdDeviation="22.42131"/>
  </filter>
  <filter id="a" x="-.37472" y="-.37472" width="1.7494" height="1.7494">
   <feGaussianBlur stdDeviation="91.37843"/>
  </filter>
  <filter id="e" x="-.11572" y="-.1436" width="1.2314" height="1.2872">
   <feGaussianBlur stdDeviation="48.29204"/>
  </filter>
  <filter id="b" x="-.08262" y="-.10191" width="1.1652" height="1.2038">
   <feGaussianBlur stdDeviation="57.77581"/>
  </filter>
 </defs>
 <g transform="translate(2141.7 144.75)">
  <path d="m-824.54 1217.3c143.87-452.46 649.24-786.78 1242.2-783.69 554.25 2.894 1018.5 299.72 1177.4 709.07 24.776-77.956 38.944-159.4 40.858-243.25 13.019-570.56-540.72-1036.6-1235.9-1040.2s-1270 456.48-1283 1027c-2.6375 115.6 18.059 226.98 58.411 331.02z" fill="#2d5016" stroke="#112b00" stroke-width="7.8486"/>
  <path d="m933.44 524.96c-151.55 204.13-345.65 326.78-557.17 326.78-196.97 0-378.85-106.37-525.32-285.83-109.67 90.814-208.5 207.11-292.82 343.5 117.64 565.54 445.28 972.78 830.73 972.78 401.2 0 739.79-441.18 844.12-1042.9-87.649-126.75-188.65-233.24-299.55-314.37z" fill="#2d5016" filter="url(#b)" stroke="#000" stroke-width="3.4637"/>
  <g fill="#447821" stroke="#112b00" stroke-width="2.4">
   <path transform="matrix(.17344 .4866 -.49376 .21091 -141.85 1433.9)" d="m-1562 800.42a172.55 222.5 0 1 1 -345.1 0 172.55 222.5 0 1 1 345.1 0z"/>
   <path transform="matrix(.10692 .29997 -.23667 .10109 -636.53 1292.1)" d="m-1562 800.42a172.55 222.5 0 1 1 -345.1 0 172.55 222.5 0 1 1 345.1 0z"/>
   <path transform="matrix(.10692 .29997 -.23667 .10109 -302.26 1259.4)" d="m-1562 800.42a172.55 222.5 0 1 1 -345.1 0 172.55 222.5 0 1 1 345.1 0z"/>
   <path transform="matrix(.07163 .20095 -.15854 .06772 -601.17 905.11)" d="m-1562 800.42a172.55 222.5 0 1 1 -345.1 0 172.55 222.5 0 1 1 345.1 0z"/>
  </g>
  <path d="m12.597 571.92c382.84-395.59 995.69-478.34 1447.4-169.6 502.75 343.64 616.4 1042.9 253.72 1560.8-3.2439 4.6325-6.539 9.2233-9.8371 13.795 289.11 138.55 1109.9 16.307 1138.7 318.6 29.868 313.72-964.09-392.11-1076.2-135.17-113.28 259.72 844.19 972.86 637.19 1141.8-204.79 167.1-529.53-1029.6-806.24-1012.9-279.7 16.803 10.522 1184.5-277.79 1078.1-270.71-99.987 228.34-819.97 142.8-1111.5l4.6674-33.738c-0.0307 0.0237-0.0508 0.0614-0.0816 0.0851-3.6853-16.191-9.1793-32.533-16.412-48.718 71.072-413.61-89.388-842.07-449.42-1088.2-393.88-269.22-910.32-240.66-1289.9 33.354 33.198-139.05 93.12-275.13 180.94-400.54 36.834-52.599 77.161-101.34 120.44-146.06z" fill="#2d5016" stroke="#000" stroke-width="3.4706"/>
  <path d="m690.67 584.08c-382.84-395.59-995.69-478.34-1447.4-169.6-502.75 343.64-616.4 1042.9-253.72 1560.8 3.2439 4.6325 6.539 9.2233 9.8371 13.795-289.11 138.55-1109.9 16.307-1138.7 318.6-29.868 313.72 964.09-392.11 1076.2-135.17 113.28 259.72-844.19 972.86-637.19 1141.8 204.79 167.1 529.53-1029.6 806.24-1012.9 279.7 16.803-10.522 1184.5 277.79 1078.1 270.71-99.987-228.34-819.97-142.8-1111.5l-4.6674-33.738c0.03075 0.0237 0.0508 0.0614 0.08157 0.0851 3.6853-16.191 9.1794-32.533 16.412-48.718-71.072-413.61 89.388-842.07 449.42-1088.2 393.88-269.22 910.32-240.66 1289.9 33.354-33.198-139.05-93.12-275.13-180.94-400.54-36.835-52.599-77.161-101.34-120.44-146.06z" fill="#2d5016" stroke="#000" stroke-width="3.4706"/>
  <path d="m-125.84 592.36c-292.16-12.385-558.91 187.39-620.57 482.12-68.631 328.04 142.71 650.14 471.73 718.97 2.9429 0.6157 5.8904 1.1955 8.8321 1.7664-61.024 165.08-422.46 428.1-323.24 559.62 102.98 136.49 229-522.61 366.05-462.68 138.52 60.577 29.24 708.74 170.79 697.49 140.03-11.13-171.39-611.84-58.517-710.31 114.09-99.537 428.29 476.52 500.71 324.53 67.997-142.71-387.42-240.36-460.8-389.14l-14.116-11.686c0.02053-0.0022 0.042 0.0052 0.06253 3e-3 -4.4872-7.8587-8.3313-16.464-11.447-25.668-178.4-138-272.85-369.86-223.7-604.78 53.769-257.01 263.53-441.78 510.06-476.65-63.565-42.857-136.36-74.381-216.03-91.049-33.416-6.991-66.772-11.117-99.798-12.517z" fill="#2d5016" stroke="#000" stroke-width="1.8774"/>
  <path d="m904.31 611.22c291.98-15.973 561.17 180.51 626.45 474.46 72.656 327.18-134.71 651.84-462.86 724.71-2.9351 0.6519-5.8752 1.2678-8.8097 1.8749 63.048 164.32 427.69 422.88 330.09 555.6-101.29 137.74-235.41-519.76-371.7-458.15-137.77 62.274-20.531 709.04-162.2 699.53-140.16-9.4086 163.86-613.9 49.786-710.98-115.31-98.127-422.4 481.75-496.68 330.66-69.745-141.87 384.44-245.1 455.99-394.77l13.971-11.858c-0.02056-2e-3 -0.04193 0.0057-0.06249 0.0037 4.3903-7.9132 8.1284-16.566 11.131-25.807 176.69-140.18 268.28-373.19 216.25-607.48-56.922-256.33-268.94-438.51-515.88-470.35 63.034-43.635 135.44-76.051 214.9-93.696 33.327-7.401 66.63-11.937 99.637-13.742z" fill="#2d5016" stroke="#000" stroke-width="1.8774"/>
  <path d="m933.44 524.96c-151.55 204.13-345.65 326.78-557.17 326.78-196.97 0-378.85-106.37-525.32-285.83-109.67 90.814-208.5 207.11-292.82 343.5 117.64 565.54 445.28 972.78 830.73 972.78 401.2 0 739.79-441.18 844.12-1042.9-87.649-126.75-188.65-233.24-299.55-314.37z" fill="#2d5016" stroke="#000" stroke-width="3.4637"/>
  <path d="m923.65 937.31c-25.98-43.935-65.623-83.875-115.76-117.89-106.81 72.316-261.16 117.78-432.72 117.78-171.76 0-326.26-45.568-433.08-118.03-44.711 30.274-81.076 65.253-106.9 103.58-22.114-37.744-34.183-78.416-34.183-120.81-1e-4 -42.756 12.274-83.762 34.752-121.78 87.044 130.51 296.31 222.55 540.43 222.55 252.38 0 467.5-98.369 548.84-235.92 27.809 41.703 43.147 87.34 43.147 135.15 0 8.0182-0.437 15.973-1.2858 23.86-0.1436-2.9677-0.3288-5.9237-0.5877-8.8718-2.8181 42.445-17.719 82.997-42.651 120.38z" fill="#abc837" stroke="#000" stroke-width="1.4107"/>
  <path d="m397.04 259c-548.06 0-992.84 272.63-992.84 608.56 0 8.3562 0.2979 16.663 0.8437 24.938 5.3686-60.726 25.3-119.09 57.656-173.81 44.017 65.997 106.39 126.21 183.25 178.25 181.74-123.29 444.6-200.81 736.81-200.81 291.87 1e-4 554.47 77.341 736.19 200.38 85.292-57.864 152.74-125.81 196.94-200.56 42.417 63.609 67.768 132.6 72.562 204.81 0.9648-10.985 1.4688-22.056 1.4687-33.188 0-335.93-444.82-608.56-992.87-608.56z" fill="#2d5016" stroke="#000" stroke-width="2.4"/>
  <g transform="matrix(.47744 .87866 -.87866 .47744 1130.4 -250.19)" stroke-width="2.4">
   <path d="m349.05 197.21c160.87 0 291.44 130.57 291.44 291.44s-130.57 291.44-291.44 291.44c-54.581 0-105.66-15.044-149.34-41.188 119.47-36.39 206.5-147.49 206.5-278.81 0-106.29-57.011-199.34-142.09-250.25 26.88-8.1875 55.391-12.625 84.938-12.625z" fill="#002b11" stroke="#0ff"/>
   <path transform="matrix(.80473 0 0 .80473 303.43 361.25)" d="m411.43 138.08a291.43 291.43 0 1 1 -582.86 0 291.43 291.43 0 1 1 582.86 0z" stroke="#ffd5d5"/>
   <path d="m345.72 196.06c-160.87 0-291.44 130.57-291.44 291.44s130.57 291.44 291.44 291.44c54.581 0 105.66-15.044 149.34-41.188-119.47-36.39-206.5-147.49-206.5-278.81 0-106.29 57.011-199.34 142.09-250.25-26.88-8.1875-55.391-12.625-84.938-12.625z" fill="#0b280b" stroke="#000"/>
   <path transform="matrix(.21402 0 0 .21402 350.03 424.24)" d="m411.43 138.08a291.43 291.43 0 1 1 -582.86 0 291.43 291.43 0 1 1 582.86 0z" fill="#e6e6e6" filter="url(#a)" stroke="#ffd5d5"/>
  </g>
  <g transform="matrix(-.48384 .87516 -.87516 -.48384 534.03 225.92)" stroke-width="2.4">
   <path d="m349.05 197.21c160.87 0 291.44 130.57 291.44 291.44s-130.57 291.44-291.44 291.44c-54.581 0-105.66-15.044-149.34-41.188 119.47-36.39 206.5-147.49 206.5-278.81 0-106.29-57.011-199.34-142.09-250.25 26.88-8.1875 55.391-12.625 84.938-12.625z" fill="#002b11" stroke="#0ff"/>
   <path transform="matrix(.80473 0 0 .80473 303.43 361.25)" d="m411.43 138.08a291.43 291.43 0 1 1 -582.86 0 291.43 291.43 0 1 1 582.86 0z" stroke="#ffd5d5"/>
   <path d="m345.72 196.06c-160.87 0-291.44 130.57-291.44 291.44s130.57 291.44 291.44 291.44c54.581 0 105.66-15.044 149.34-41.188-119.47-36.39-206.5-147.49-206.5-278.81 0-106.29 57.011-199.34 142.09-250.25-26.88-8.1875-55.391-12.625-84.938-12.625z" fill="#0b280b" stroke="#000"/>
   <path transform="matrix(.21402 0 0 .21402 350.03 424.24)" d="m411.43 138.08a291.43 291.43 0 1 1 -582.86 0 291.43 291.43 0 1 1 582.86 0z" fill="#e6e6e6" filter="url(#a)" stroke="#ffd5d5"/>
  </g>
  <path d="m1314 674.85c-44.199 74.748-111.65 142.7-196.94 200.56-181.71-123.03-444.32-200.37-736.19-200.38-292.21 0-555.08 77.525-736.81 200.81-76.067-51.505-137.94-111.02-181.88-176.22-37.622 64.214-58.156 133.41-58.156 205.53-3e-4 72.741 20.881 142.51 59.125 207.19 148.09-222.04 504.11-378.63 919.44-378.63 429.38 1e-4 795.37 167.36 933.75 401.38 47.312-70.95 73.406-148.59 73.406-229.94 0-13.641-0.7434-27.175-2.1875-40.594-0.2443 5.0489-0.5595 10.078-1 15.094-4.7944-72.212-30.146-141.2-72.562-204.81z" fill="#abc837" stroke="#000" stroke-width="2.4"/>
  <g transform="matrix(.14999 .4208 -.38439 .16419 -23.551 2279.8)" fill="#0b280b" filter="url(#c)" stroke="#112b00" stroke-width="2.4">
   <path transform="matrix(1.1564 0 0 1.2845 -1870.5 -314.78)" d="m-1562 800.42a172.55 222.5 0 1 1 -345.1 0 172.55 222.5 0 1 1 345.1 0z"/>
   <path transform="matrix(.71287 0 0 .61569 -2598.9 687.91)" d="m-1562 800.42a172.55 222.5 0 1 1 -345.1 0 172.55 222.5 0 1 1 345.1 0z"/>
   <path transform="matrix(.71287 0 0 .61569 -2371.8 -93.107)" d="m-1562 800.42a172.55 222.5 0 1 1 -345.1 0 172.55 222.5 0 1 1 345.1 0z"/>
   <path transform="matrix(.47755 0 0 .41245 -3365.8 296.69)" d="m-1562 800.42a172.55 222.5 0 1 1 -345.1 0 172.55 222.5 0 1 1 345.1 0z"/>
  </g>
  <g fill="#447821" stroke="#112b00" stroke-width="2.4">
   <path transform="matrix(.17344 .4866 -.49376 .21091 -183.09 1441)" d="m-1562 800.42a172.55 222.5 0 1 1 -345.1 0 172.55 222.5 0 1 1 345.1 0z"/>
   <path transform="matrix(.10692 .29997 -.23667 .10109 -677.77 1299.1)" d="m-1562 800.42a172.55 222.5 0 1 1 -345.1 0 172.55 222.5 0 1 1 345.1 0z"/>
   <path transform="matrix(.10692 .29997 -.23667 .10109 -343.5 1266.4)" d="m-1562 800.42a172.55 222.5 0 1 1 -345.1 0 172.55 222.5 0 1 1 345.1 0z"/>
   <path transform="matrix(.07163 .20095 -.15854 .06772 -642.41 912.19)" d="m-1562 800.42a172.55 222.5 0 1 1 -345.1 0 172.55 222.5 0 1 1 345.1 0z"/>
  </g>
  <g fill="#447821" stroke="#112b00" stroke-width="2.4">
   <path transform="matrix(.07053 .19788 -.20079 .08577 1379.5 868.44)" d="m-1562 800.42a172.55 222.5 0 1 1 -345.1 0 172.55 222.5 0 1 1 345.1 0z"/>
   <path transform="matrix(.04348 .12199 -.09624 .04111 1178.3 810.74)" d="m-1562 800.42a172.55 222.5 0 1 1 -345.1 0 172.55 222.5 0 1 1 345.1 0z"/>
   <path transform="matrix(.04348 .12199 -.09624 .04111 1314.3 797.45)" d="m-1562 800.42a172.55 222.5 0 1 1 -345.1 0 172.55 222.5 0 1 1 345.1 0z"/>
   <path transform="matrix(.02913 .08172 -.06447 .02754 1192.7 653.39)" d="m-1562 800.42a172.55 222.5 0 1 1 -345.1 0 172.55 222.5 0 1 1 345.1 0z"/>
  </g>
  <g fill="#447821" stroke="#112b00" stroke-width="2.4">
   <path transform="matrix(.05182 .14538 -.14752 .06301 -.88732 385.02)" d="m-1562 800.42a172.55 222.5 0 1 1 -345.1 0 172.55 222.5 0 1 1 345.1 0z"/>
   <path transform="matrix(.03195 .08963 -.07071 .0302 -148.69 342.63)" d="m-1562 800.42a172.55 222.5 0 1 1 -345.1 0 172.55 222.5 0 1 1 345.1 0z"/>
   <path transform="matrix(.03195 .08963 -.07071 .0302 -48.814 332.86)" d="m-1562 800.42a172.55 222.5 0 1 1 -345.1 0 172.55 222.5 0 1 1 345.1 0z"/>
   <path transform="matrix(.0214 .06004 -.04737 .02023 -138.12 227.02)" d="m-1562 800.42a172.55 222.5 0 1 1 -345.1 0 172.55 222.5 0 1 1 345.1 0z"/>
  </g>
  <g transform="matrix(.11948 .33522 -.30622 .1308 2344.1 2839.6)" fill="#0b280b" filter="url(#e)" stroke="#112b00" stroke-width="2.4">
   <path transform="matrix(1.1564 0 0 1.2845 -1870.5 -314.78)" d="m-1562 800.42a172.55 222.5 0 1 1 -345.1 0 172.55 222.5 0 1 1 345.1 0z"/>
   <path transform="matrix(.71287 0 0 .61569 -2598.9 687.91)" d="m-1562 800.42a172.55 222.5 0 1 1 -345.1 0 172.55 222.5 0 1 1 345.1 0z"/>
   <path transform="matrix(.71287 0 0 .61569 -2371.8 -93.107)" d="m-1562 800.42a172.55 222.5 0 1 1 -345.1 0 172.55 222.5 0 1 1 345.1 0z"/>
   <path transform="matrix(.47755 0 0 .41245 -3365.8 296.69)" d="m-1562 800.42a172.55 222.5 0 1 1 -345.1 0 172.55 222.5 0 1 1 345.1 0z"/>
  </g>
  <g fill="#447821" stroke="#112b00" stroke-width="2.4">
   <path transform="matrix(.13817 .38764 -.39335 .16802 2231 2157.4)" d="m-1562 800.42a172.55 222.5 0 1 1 -345.1 0 172.55 222.5 0 1 1 345.1 0z"/>
   <path transform="matrix(.08518 .23897 -.18854 .08053 1836.9 2044.4)" d="m-1562 800.42a172.55 222.5 0 1 1 -345.1 0 172.55 222.5 0 1 1 345.1 0z"/>
   <path transform="matrix(.08518 .23897 -.18854 .08053 2103.2 2018.4)" d="m-1562 800.42a172.55 222.5 0 1 1 -345.1 0 172.55 222.5 0 1 1 345.1 0z"/>
   <path transform="matrix(.05706 .16009 -.1263 .05395 1865.1 1736.2)" d="m-1562 800.42a172.55 222.5 0 1 1 -345.1 0 172.55 222.5 0 1 1 345.1 0z"/>
  </g>
  <g fill="#447821" stroke="#112b00" stroke-width="2.4">
   <path transform="matrix(.05182 .14538 -.14752 .06301 -91.704 1284.1)" d="m-1562 800.42a172.55 222.5 0 1 1 -345.1 0 172.55 222.5 0 1 1 345.1 0z"/>
   <path transform="matrix(.03195 .08963 -.07071 .0302 -239.5 1241.7)" d="m-1562 800.42a172.55 222.5 0 1 1 -345.1 0 172.55 222.5 0 1 1 345.1 0z"/>
   <path transform="matrix(.03195 .08963 -.07071 .0302 -139.63 1231.9)" d="m-1562 800.42a172.55 222.5 0 1 1 -345.1 0 172.55 222.5 0 1 1 345.1 0z"/>
   <path transform="matrix(.0214 .06004 -.04737 .02023 -228.94 1126.1)" d="m-1562 800.42a172.55 222.5 0 1 1 -345.1 0 172.55 222.5 0 1 1 345.1 0z"/>
  </g>
  <g fill="#447821" stroke="#112b00" stroke-width="2.4">
   <path transform="matrix(.05182 .14538 -.14752 .06301 1579.3 1674.6)" d="m-1562 800.42a172.55 222.5 0 1 1 -345.1 0 172.55 222.5 0 1 1 345.1 0z"/>
   <path transform="matrix(.03195 .08963 -.07071 .0302 1431.5 1632.2)" d="m-1562 800.42a172.55 222.5 0 1 1 -345.1 0 172.55 222.5 0 1 1 345.1 0z"/>
   <path transform="matrix(.03195 .08963 -.07071 .0302 1531.4 1622.5)" d="m-1562 800.42a172.55 222.5 0 1 1 -345.1 0 172.55 222.5 0 1 1 345.1 0z"/>
   <path transform="matrix(.0214 .06004 -.04737 .02023 1442.1 1516.6)" d="m-1562 800.42a172.55 222.5 0 1 1 -345.1 0 172.55 222.5 0 1 1 345.1 0z"/>
  </g>
  <g transform="matrix(.35867 .26631 -.22815 .35023 1772.5 2286.4)" fill="#0b280b" filter="url(#d)" stroke="#112b00" stroke-width="2.4">
   <path transform="matrix(1.1564 0 0 1.2845 -1870.5 -314.78)" d="m-1562 800.42a172.55 222.5 0 1 1 -345.1 0 172.55 222.5 0 1 1 345.1 0z"/>
   <path transform="matrix(.71287 0 0 .61569 -2598.9 687.91)" d="m-1562 800.42a172.55 222.5 0 1 1 -345.1 0 172.55 222.5 0 1 1 345.1 0z"/>
   <path transform="matrix(.71287 0 0 .61569 -2371.8 -93.107)" d="m-1562 800.42a172.55 222.5 0 1 1 -345.1 0 172.55 222.5 0 1 1 345.1 0z"/>
   <path transform="matrix(.47755 0 0 .41245 -3365.8 296.69)" d="m-1562 800.42a172.55 222.5 0 1 1 -345.1 0 172.55 222.5 0 1 1 345.1 0z"/>
  </g>
  <g fill="#447821" stroke="#112b00" stroke-width="2.4">
   <path transform="matrix(.41476 .30795 -.29307 .44988 1173.4 1678)" d="m-1562 800.42a172.55 222.5 0 1 1 -345.1 0 172.55 222.5 0 1 1 345.1 0z"/>
   <path transform="matrix(.25569 .18984 -.14047 .21563 683.36 1835.2)" d="m-1562 800.42a172.55 222.5 0 1 1 -345.1 0 172.55 222.5 0 1 1 345.1 0z"/>
   <path transform="matrix(.25569 .18984 -.14047 .21563 942.98 1622.1)" d="m-1562 800.42a172.55 222.5 0 1 1 -345.1 0 172.55 222.5 0 1 1 345.1 0z"/>
   <path transform="matrix(.17128 .12718 -.0941 .14445 497.55 1494)" d="m-1562 800.42a172.55 222.5 0 1 1 -345.1 0 172.55 222.5 0 1 1 345.1 0z"/>
  </g>
  <g fill="#447821" stroke="#112b00" stroke-width="2.4">
   <path transform="matrix(.24138 .1113 -.10009 .2575 839.58 94.303)" d="m-1562 800.42a172.55 222.5 0 1 1 -345.1 0 172.55 222.5 0 1 1 345.1 0z"/>
   <path transform="matrix(.1488 .06861 -.04797 .12342 609.4 225.2)" d="m-1562 800.42a172.55 222.5 0 1 1 -345.1 0 172.55 222.5 0 1 1 345.1 0z"/>
   <path transform="matrix(.1488 .06861 -.04797 .12342 717.65 90.484)" d="m-1562 800.42a172.55 222.5 0 1 1 -345.1 0 172.55 222.5 0 1 1 345.1 0z"/>
   <path transform="matrix(.09968 .04596 -.03214 .08268 479.8 72.959)" d="m-1562 800.42a172.55 222.5 0 1 1 -345.1 0 172.55 222.5 0 1 1 345.1 0z"/>
  </g>
 </g>
</svg>
