<?xml version="1.0" encoding="UTF-8"?>
<svg width="700" height="747.71" clip-rule="evenodd" fill-rule="evenodd" image-rendering="optimizeQuality" shape-rendering="geometricPrecision" text-rendering="geometricPrecision" version="1.1" viewBox="0 0 19755555 21102078" xmlns="http://www.w3.org/2000/svg">
 <g transform="translate(4629748,8975274.4)">
  <g transform="matrix(986.82 -261.72 261.72 986.82 -9.4874e7 -2.9732e6)" image-rendering="optimizeQuality" shape-rendering="geometricPrecision">
   <path class="fil6" d="m86177 19971c538-130 1071-159 1585 157 226 92 396 212 501 365 240-184 483-358 734-506 353-262 714-494 1104-623 555-282 1110-449 1666-501 589-100 1179-106 1767-71 490 29 965 165 1418 425 410 204 820 408 1230 613 434 243 868 461 1301 643 550 217 1170 290 1828 314 323 12 641 12 952-71 253-67 408 94 131 263-2039 1249-3635 139-4997-359 499 337 940 687 1310 1044 518 499 1097 1006 2123 1473 622 283 1298 505 2167 513 295 3 611-9 955-65 173-28 247-12 251 78 2 62-14 184-116 252-525 352-1021 445-1571 480-1051 68-2175-278-3202-829-823-442-1377-981-2033-1464-654-481-1219-749-1826-879-598-127-1246-113-1791 56 163 33 301 110 386 207 281 166 642 238 1164 299 272 32 188 220-231 446-252 324-579 499-1015 456-600 398-814 158-1015-102-25 165-73 326-144 482 26 84 30 178-9 261 97 149 143 293 111 451 16 84 44 166 133 241 125 114 205 246 220 405 1 106 60 193 144 272 123 101 246 189 369 338 362 131 530 409 590 769 274 89 387 287 441 523 155 65 298 143 379 282 558 2 1104 1 1616 55 479 50 868 350 1218 737 236 36 474 48 719-7 252-111 518-196 807-220 479-41 959-65 1417 44 310 74 552 238 749 463 285 324 726 280 1100 120 509-217 932-210 1454 19 223-86 445-127 668-103 190-207 393-257 602-264 340-11 585 41 522 476-17 119-88 231-177 273-156 335-453 435-829 404-40 231-136 402-286 514 173 535 7 748-389 741-83 154-207 250-418 220-154 188-336 284-536 316 24 140 83 205 182 354 269 408-135 572-505 578 95 269 107 538 73 807 377 228 429 469 80 706 255 445 156 773-322 1011-7 248-32 499-198 639-114 95-277 113-169 294 193 321 151 726-135 736-62-5-117 2-121 101 0 33-28 67-86 101-342 185-664 396-961 639-44 29-87 50-131 10-216 468-616 945-1061 1424-68 353-268 591-599 714-23 109-93 172-196 201 185 205 254 404 75 599-220 240-510 474-799 548-616 158-1002 128-1249-108-219-208-132-366 5-430-381 31-457-171-448-438 21-133 67-116 201-112 206 6 392-106 589-170 76-128 175-239 297-332 69-431 341-669 709-810 298-114 584-401 860-775 171-294 342-587 513-881-120-156-151-312-156-468-157-88-266-195-342-317-268-18-379-139-418-307-62 2-128-5-201-25-130 84-263 159-428 151-217 222-441 405-669 558-80 222-238 310-433 337-551 65-879 751-1182 1031-123 90-198 250-252 443-26 361-89 644-287 649-178-8-206-26-211-45-77-7-154-6-231 10 149 163 172 369 34 549-137 178-334 234-523 246-392 26-709-9-1003-128-280-115-314-282-305-445-202-96-243-192-221-287 27-122 140-186 282-146 123-57 245-98 367-121 355-383 721-711 1122-865 118-142 254-270 418-377 47-343 272-614 548-865 25-124 65-248 136-372-15-74 4-109 6-178-113-208-179-459-97-667-33-101-43-231-30-332-661 392-865 258-941-60-242 202-467 296-629 5-235 70-470 149-704 55-152 59-308 113-483 126-72 141-168 282-297 423-8 297-111 594-302 891-111 317-248 634-428 951 3 102-11 204-65 307 51 366-71 543-272 634-53 148-134 295-257 443-5 49-10 97-15 146 79 215 93 429-126 644-176 111-363 227-550 319-220 108-424 57-609-9-324-116-299-230-257-341-102 42-218 46-320-4-79-50-128-101-206-151-70-126-95-241 76-332 214-95 359-164 528-337 59-131 132-229 236-257 102-239 227-400 397-444 125-295 258-621 418-905 55-86 96-174 71-272-2-80 4-156 70-201 37-32 105-61 20-106-78-263-29-515 100-709 171-258 365-885 182-1193-33-172-66-368-45-530-62-4-109 6-171-39-140-85-256-5-362 151-77 196-154 367-231 367-73 504-321 895-578 996-59 231-98 463-66 694 26 251 0 424-116 453-127 32-247 106-322 312-20 56-43 125-45 206 177 184 123 412-47 581-384 379-861 323-1367 174-365-144-454-297-418-453-519-44-415-441 15-561 462-129 835-425 1142-847 28-501 143-842 413-896 26-308 123-584 252-845 136-237 218-498 171-815-287-179-298-363-35-553 87-52 77-104-30-156-176-18-152-184-141-342-8-82-50-124-126-126-387-57-291-215-126-387 70-78 116-196 43-242-60-38-101-170-114-287-238-179-135-362 0-538-134-113-197-279-216-473-441-19-606-243-367-569 100-138 230-271 388-398 102-164 199-329 151-493-126-322 278-564 624-815-48-84-73-168-76-252-196-188-146-363 71-528-47-85-71-171-81-257-485 96-482-194-256-659-281-162-203-449 307-885 7-100 25-177 55-231-242 6-440 77-614 186-193 126-386 110-579 30-60-97-151-178-257-252-133-117-163-248-136-387-570 32-680-390-337-639 190-151 330-309 382-483 154-391 482-657 800-931 1-112 25-225 60-337-141-94-289-163-453-176-58-146-168-303-352-392-106-63-142-124-76-267-304-271-227-435-150-591z"/>
   <path class="fil0" d="m99217 20935c364 16 717 2 1017-48-321 231-729 388-1170 460 86-68 141-137 165-208 24-69 20-137-12-204z" fill="#f00"/>
   <path class="fil0" d="m98345 20845c236 39 483 67 727 82 3 5 7 10 11 16 40 54 51 106 33 157-20 58-75 119-166 182-25 17-49 34-15 83-161 20-327 29-493 26-85-1-168-6-251-14 9-5 17-13 25-21 89-93 145-189 161-289 12-74 3-148-31-223z" fill="#f00"/>
   <path class="fil0" d="m91902 18993c410-53 828-67 1254-56 140 57 243 139 307 249 71 122 94 282 66 481-4 30-8 59 51 68 59 8 64-21 68-51 32-227 3-412-81-558-40-70-93-130-157-181 38 2 76 3 114 5 489 26 869 166 1295 378 3 4 7 7 10 11 90 94 121 192 106 293-16 107-81 221-182 339-19 23-39 46 7 84 45 39 65 16 84-7 116-135 191-269 209-400 10-73 4-144-22-214 359 178 722 348 1076 535 7 4 15 8 22 11 1 8 3 16 5 24 29 101 18 188-32 260-53 78-151 144-293 197-28 10-56 21-35 77s49 45 77 35c166-62 283-143 350-241 56-82 78-175 65-278 235 127 469 258 709 373 0 1 1 1 1 2 42 84 49 161 16 229-35 75-116 144-246 209-27 13-54 27-27 80 26 54 53 40 80 27 155-77 254-166 301-264 32-68 41-139 26-213 83 37 168 72 253 103 232 86 511 159 811 215l6 9c55 77 74 150 62 222-12 75-58 150-130 226-21 22-41 43 2 84 7 7 13 11 19 15-909-93-1719-528-2567-855-101-39-202-77-303-116-313-119-629-277-943-406-10-10-26-16-41-21-22-7-43-14-65-21-14-5-27-10-41-16 2 2 4 3 6 5-287-92-577-163-871-204-326-45-658-53-998-9-19-3-37-5-55-8 29-179 6-337-82-474-63-97-157-182-289-255z" fill="#f00"/>
   <path class="fil0" d="m90414 19394c418-181 842-299 1274-369 199 78 329 174 403 289 72 111 89 243 64 395-184-18-365-17-543 3-199 22-395 67-586 136-97-203-226-324-377-392-74-33-152-52-234-62z" fill="#f00"/>
   <path class="fil7" d="m96529 34669c-33 4-69 5-108 4-147 150-324 300-486 428-140-163-351 16-145 115-34 25-69 49-105 73-67 177-127 253-325 283-31 5-61 11-91 18-2-75 1-148 8-220 9-88 24-175 43-259 4-16 7-31-24-38s-35 9-38 24c-20 88-35 176-44 267-8 80-11 161-8 244-499 159-787 680-1129 1049-147 127-221 302-275 485-29 98-40 544-140 551-48 1-99 0-153 0-54-81-127-83-218-5-208-5-430-6-615 23-127 136 221 86 405 199 84 51 121 151 87 291-171 406-1121 275-1437 108-146-77-153-166-147-293 65-1 132-4 199-14 113-16 226-50 336-113 31-18 63-35 27-98-35-63-67-45-98-27-93 53-189 81-286 95-99 15-200 14-298 10-8 0-17-1-25 0-55-32-97-70-73-103 23-32 115 3 133 8 147-68 275-113 433-143 335-358 674-695 1137-879 139-166 288-297 468-417 64-399 258-612 547-877 34-164 75-282 157-427-17-92-4-150 0-243-111-209-177-391-89-626-54-170-46-284-26-443 5-41 4-70-2-89 91-71 182-138 272-199 83-56 166-107 250-153-14 157-8 322 23 494 0 1-1 1-2 2-50 53-92 107-121 161-30 56-47 113-46 170 0 16 1 32 33 31s31-17 31-33c-1-46 13-92 38-138 26-49 65-98 111-148 5-5 9-10 11-16 152-4 303-85 453-207 136-110 270-254 404-402-2 218-4 437-6 655-131 117-243 259-331 433-7 14-14 28 14 43 28 14 36 0 43-14 80-159 182-290 300-399h5c32 0 32-16 32-32v-2c21-18 42-35 63-52 148-114 318-202 500-273-27 192-40 381-7 560 37 199 129 384 319 547 3 3 8 5 12 6z" fill="#f7db17"/>
   <path class="fil0" d="m94995 21711c-112-72-226-141-343-206-567-311-1215-503-1867-528 5-4 10-9 16-15 231-235 282-458 203-667-61-162-202-311-398-447 218-11 421 1 648 33 321 44 734 152 1113 305 94 204 120 383 79 534-43 158-161 292-354 401-26 15-52 29-23 82 29 52 55 37 81 23 222-125 359-283 411-474 40-149 27-315-38-499 257 115 488 251 649 402 211 145 420 293 624 448 2 258-74 406-199 482-131 81-321 90-537 69-30-3-60-6-66 54v3z" fill="#f00"/>
   <path class="fil0" d="m96240 22648c-378-296-747-603-1145-871 220 18 417 1 564-90 145-89 238-243 254-495 236 184 465 377 682 585 108 104 218 206 330 306 0 2 1 4 2 6 26 93 35 173 28 241-7 66-30 120-68 161-39 43-96 75-168 95-106 30-245 36-415 18-28-3-56-6-65 44z" fill="#f00"/>
   <path class="fil0" d="m97546 23508c-130-67-256-136-377-207-290-171-562-368-828-573 163 14 300 5 410-26 95-27 170-70 224-129 55-61 89-137 99-230 4-40 4-84-1-130 261 223 534 429 829 611 155 95 310 184 465 266-2 10 0 21 2 32 19 120-48 195-170 243-142 56-355 80-598 95-27 2-54 3-56 49z" fill="#f00"/>
   <path class="fil0" d="m98940 24055c-442-121-870-289-1261-480 225-16 422-42 565-99 161-64 255-163 249-321 258 131 519 244 782 338 47 103 49 188 6 259-53 87-168 159-310 223-27 12-55 24-30 79v1z" fill="#f00"/>
   <path class="fil0" d="m1.0184e5 23761c38-5 270-67 150 22-855 561-1942 559-2965 296 158-72 288-158 353-265 49-81 58-171 35-273 326 106 657 183 997 226 2 52-13 104-54 156-53 66-146 132-296 198-27 12-55 24-31 79s51 43 79 31c169-74 277-152 341-233 56-71 80-143 80-217 421 44 855 39 1310-20z" fill="#f00"/>
   <path class="fil7" d="m87022 29133c24-45 87-104 108-99 4-1 8-2 11-2 68-128 139-247 214-356 96-140 198-263 306-368 11-11 23-22 45 1s11 34-1 45c-105 102-204 222-298 358-73 107-143 223-210 349 22 29 31 74 20 106 23 200 48 312 137 427 10-9 20-16 30-21 36-88 86-167 148-237 75-84 168-156 277-215 75-63 137-127 187-193s88-133 116-201c6-15 12-29 42-17s23 27 17 42c-30 74-71 146-124 216s-119 138-200 205l-5 3c-104 56-192 124-263 203-53 60-97 127-129 201 46 34 66 125 24 184-132 190-290 302-43 465-8 128 32 226 117 314 56 59 52 268-89 418-130 132-31 97 105 113 11 3 21 7 30 10l1-1c50-96 108-182 171-262 63-79 130-153 201-223 97-96 175-200 230-306 54-104 86-210 92-312 1-16 2-32 34-30s31 18 30 34c-7 111-41 225-100 338-58 111-140 221-242 322-69 68-135 139-196 217-61 77-116 160-165 252 164 99 110 276 136 439 31 4 59 12 84 23 2-3 3-6 5-8 32-50 64-101 96-151l151-240c8-14 17-27 44-10s18 30 10 44l-151 240c-32 50-64 101-95 151-2 2-3 5-5 7 100 81 107 231-15 343-243 183-174 240 53 386 30 214 31 385-16 568 2 5 2 10 2 15 5 60 10 121 15 181l15 181c1 16 3 32-29 34s-33-14-34-29l-15-181c-1-16-2-31-4-47-11 28-23 57-37 87-163 357-332 648-369 1048-391 93-333 479-354 820-308 416-666 750-1163 916-94 31-319 86-340 203-3 42 151 134 250 80 273-262 411-117 97 151-25 51-5 108 49 156 284 255 987 337 1307 135 237-150 361-313 155-538 14-320 139-633 476-723 40-73 28-208 10-283-33-277 12-525 80-793 12-33 37-61 92-75 128-26 373-398 451-754 19-78 30-157 44-236 21-123 69-146 131-73 60-80 58-128 95-220 132-190 321-343 542-236-57-156-95-331-108-511-15-213 5-432 70-633 10-30 19-60 67-52 64-151 127-302 191-453 64-152 128-304 192-455 6-15 12-29 42-17 29 12 23 27 17 42-64 152-128 304-192 455-63 150-127 301-190 451 27 21 18 47 10 73-59 181-76 383-62 579 15 213 68 418 146 585 8 16 15 32 13 48 105 61 102 76 98 216-3 110 12 217 37 348 208 385-8 1028-210 1350-98 155-123 332-83 511 126 121 44 247-67 330-9 29-1 62 2 91 11 125-33 230-98 333-170 307-302 634-438 957-247 68-298 213-398 443-144 41-159 83-220 216-166 167-324 268-538 364-177 80-5 157 118 242 113 83 259-97 351-235 101-151 202-107 136 12-73 130-125 315-133 413-38 105 361 184 429 188 243 12 549-226 740-347 158-160 134-303 64-499l1-13c-101 3-198-8-293-29-115-26-228-66-344-113-15-6-30-12-18-42 12-29 27-24 42-18 114 46 223 85 334 110 92 21 186 31 286 27l16-153c127-155 215-308 283-495 269-127 271-258 234-547 60-117 73-184 69-318 178-316 323-639 444-981 213-283 314-548 289-884 19-130 68-205 164-200 70-97 132-198 189-310 12 1 23 2 35 3-3-7-2-15 0-23 17-78 38-145 63-202 25-56 54-102 88-138 40-96 53-189 44-280-10-92-43-183-95-273-32-37-61-74-72-114-13-46-5-91 41-135 11-11 23-22 45 1s11 34-1 45c-26 25-31 49-24 72 8 29 32 60 60 92 0 0 3 5 4 5 57 98 94 198 104 301 11 103-4 209-51 316 0 1-6 9-6 9-30 32-57 73-80 124-24 53-43 116-59 189-1 4-2 9-3 13 149 0 282-46 426-118 3-3 6-5 9-8 73-58 150-147 214-263 54-98 98-217 123-354 3-16 6-31 37-26s29 21 26 37c-26 145-73 270-129 373-50 91-108 167-166 225 233 69 434 1 657-68-33-312-27-549 6-735 36-203 105-344 190-453 10-13 20-25 45-5s15 32 5 45c-80 101-143 234-177 425-32 178-38 405-7 705 4-1 7-2 11-3 93 159 144 275 334 150 70-46 143-93 201-155 22-24 14-36 32-55 182-194 365-374 548-534 184-161 367-301 550-412 14-8 27-17 44 11 17 27 3 35-11 44-181 110-361 247-541 405-156 136-311 288-468 451 8 27 13 75 18 148 16 216 55 345 362 227 172-66 189-73 348-168 78-46 143-86 188-96 100-79 200-153 300-220 98-66 196-125 294-177 16-117 43-229 80-339 95-280 254-538 453-783 1-1 8-7 9-8 166-90 301-197 410-318 108-121 191-256 251-402 6-15 12-30 42-17 29 12 23 27 17 42-64 153-150 295-263 421-112 125-251 235-421 329-193 238-347 489-438 758-32 94-56 191-72 291 6 2 12 8 18 19 14 29 0 36-14 43-4 2-9 4-13 7-18 158-15 323 14 496 135-5 272-80 410-192 147-120 297-284 446-451 1-4 2-8 5-11 36-120 83-224 144-309 65-90 146-158 244-201 15-6 29-13 42 17 13 29-2 36-17 42-88 38-160 99-218 180-59 81-104 183-138 300l-6 681c8-6 16-13 23-19 168-129 360-225 567-301 22-8 46 11 43 35-31 205-50 406-15 593 32 174 111 338 268 484 60-107 129-204 205-291 26-30 53-59 81-88 2-3 4-5 7-7 59-59 121-115 185-167 47-43 93-86 140-129s93-86 140-130c12-11 23-22 45 2 22 23 10 34-2 45-47 43-93 86-140 129s-93 86-140 130l-2 1c-60 49-117 100-172 154 2 59 4 119 6 178l3 96c135 36 215 38 351 34 45 270 68 312 302 317-3-96-1-190 8-281 11-105 34-207 70-302 6-15 11-30 41-18 30 11 24 26 18 41-35 90-56 186-67 286-10 88-11 180-8 275h19c94 192 203 287 402 373 55-88 96-175 123-263 30-97 41-195 35-292-1-16-2-32 30-34s33 14 34 30c7 105-6 210-38 315-32 104-82 208-152 312-6 9-12 18-23 17 9 111 28 195 68 279 29-63 60-125 95-184 49-83 104-160 170-227 11-11 23-23 45 0s11 34 0 45c-62 62-114 134-160 213-41 70-77 145-112 223 22 37 49 76 81 119-373 640-772 1524-1506 1815-379 150-546 344-622 750-143 111-244 222-337 377-248 82-468 206-737 195 0 173 56 249 230 251 330-166 405-197 434-173 42 34-46 272-320 465-43 26-41 42-16 85 231 362 838 233 1164 147 233-61 654-338 770-571 46-107-57-246-158-360-465 71-377-375 23-189 135-42 153-42 191-193 356-139 505-288 586-672 359-388 721-786 980-1249 71-87 113-242 93-322 64-77 100-172 123-260 24-92 38-185 34-277-1-16-1-32 31-33s32 15 33 31c4 98-11 197-37 296-20 76-46 152-74 227 24 58 35 97 85 83 312-250 626-426 962-635 23-142 115-212 256-218 56 2 78-16 98-68 79-197-20-332-115-495-87-244 68-302 225-418 164-120 152-441 157-625 0 0 1 0 1-1-5-31-11-62-18-95-14-63-32-128-56-196-5-15-11-30 19-41s35 4 41 19c25 71 44 139 58 204 6 26 11 52 15 78 156-81 319-173 380-347 53-192-52-373-145-537-40 19-80 37-122 56-76 34-157 68-243 102-15 6-30 12-42-18s3-35 18-42c83-33 164-67 241-101 64-28 124-56 182-85 70-48 141-97 193-163 111-161-189-307-295-373 1-4 1-8 2-13-151-139-302-277-453-416-12-11-24-22-2-45 22-24 33-13 45-2 140 128 279 256 419 384 24-237 26-464-48-699-24-76-51-150-77-225-6 0-12-3-18-6-128-66-218-146-277-238-60-92-89-194-97-304-1-16-2-32 30-34s33 14 34 30c7 99 33 192 86 273 54 82 135 155 253 216 126 65 393 33 546-43 214-121-65-365-130-509-47-103-58-209-79-321 19-3 39-6 58-10-28-34-56-65-85-90-37-32-75-56-115-70-15-5-30-10-20-41 10-30 26-25 41-20 48 17 93 45 136 82 41 35 79 78 115 127 21-4 42-8 63-12 211-42 327-160 455-311-70-84-148-163-230-237-85-78-173-151-262-222-13-10-25-20-5-45s32-15 45-5c91 73 181 147 265 224 85 78 167 161 242 252 7 9 14 17 9 29 194 18 225-21 323-196-25-88-65-172-117-251-54-82-120-161-194-237-11-11-22-23 1-45s34-11 45 1c76 79 145 161 201 247 55 84 98 172 124 265 90 2 188 6 265-40 169-101 26-462-17-601 2-2 5-3 7-5-23-14-45-28-68-43l-120-75c-14-8-27-17-10-44s30-18 44-10c40 25 80 50 119 75 29 19 59 37 88 55 14-10 27-20 40-31 124-99 167-230 205-367 58-210 70-116 314-153 264-40 406-71 562-379 82-41 124-75 138-177 25-181 12-275-197-292-292-23-469 35-665 227 26 40 52 80 78 120 9 13 17 27-9 44-27 18-35 4-44-9-25-38-50-76-74-114-265-26-478 15-725 109-25-11-49-21-73-31 53 70 93 137 123 202 43 93 64 182 67 267 1 16 1 32-31 33s-33-15-33-31c-3-78-22-158-61-243-39-86-99-176-183-272-1-1-1-2-2-3-207-74-396-112-590-108 32 32 65 63 97 95l126 123c11 11 23 22 1 45s-33 12-45 1l-126-123-126-123c-4-4-9-9-11-14-164 14-334 58-523 136-118 49-238 87-356 110 88 83 161 179 220 286 61 110 107 233 139 369 4 16 7 31-24 38s-35-8-38-24c-30-130-74-247-133-353-58-105-130-198-216-279-8-8-17-16-13-28-110 16-218 18-323 2l129 215c7 14 14 29-15 43s-36-1-43-15l-120-250c-101-20-199-58-292-116 31 116 54 240 72 370 24 173 37 358 42 553 0 16 1 32-31 33s-32-15-33-31c-5-193-18-376-41-546-21-156-51-303-92-437-45-35-89-76-131-123-104-115-222-204-349-272 7 53 7 105 0 159-13 97-53 193-128 289-10 13-20 25-45 5s-15-32-5-45c68-86 103-172 115-258 8-61 5-123-7-185-199-92-420-138-646-156 62 79 119 160 172 243 61 96 117 193 166 292 90 74 138 165 165 264 27 98 32 203 36 309 1 16 1 32-31 33s-32-15-33-31c-4-102-9-203-34-294-24-89-68-170-149-235-1-1-8-10-9-11-49-100-104-197-165-292-61-96-128-189-202-280-1-1-2-2-2-3-77-4-154-5-232-4 14 17 27 34 38 53 27 45 46 95 52 151 2 16 3 32-28 35-32 3-33-13-35-28-5-46-20-87-43-125-18-30-41-58-68-84-160 5-319 17-472 31 160 205 288 418 388 637 110 243 185 494 227 752 3 16 5 31-26 37-31 5-34-11-37-26-42-253-115-499-222-736-103-226-237-445-405-656-8 1-16 1-23 2-125 11-248 37-369 72 54 34 101 68 142 101 55 45 99 91 137 136 10 12 20 25-4 45-25 20-35 8-45-4-35-43-77-85-128-128-50-42-110-83-183-125-64 21-127 44-189 69-34 14-68 26-103 36 107 77 211 161 309 256 120 115 231 245 332 394 9 13 18 27-9 44-27 18-35 4-44-9-97-146-206-272-323-384-109-104-225-197-346-281-130 29-263 36-396 31 81 162 152 325 207 489 59 177 99 357 113 539 1 16 2 32-30 34s-33-14-34-30c-14-177-52-351-109-523-57-173-133-344-220-513-81-6-162-15-243-27 47 149 87 301 122 457 41 183 74 371 98 562 2 16 4 32-28 36s-34-12-36-28c-24-190-57-375-97-556-38-169-83-335-136-498-229-249-485-493-796-621 64 81 115 166 151 255 57 137 82 283 78 436 0 16-1 32-33 31s-32-17-31-33c4-145-20-281-73-410-47-114-118-222-215-323-71-21-144-36-220-44-204-21-409-34-615-41 157 142 281 273 270 432-1 16-2 32-34 30s-31-18-30-34c11-147-135-279-305-431-123-4-245-6-368-7 67 68 125 137 172 205 64 93 109 186 131 279l1 4c13 145 49 271 112 375 63 103 153 184 276 240 15 7 29 13 16 42s-28 22-42 16c-135-61-235-151-304-265-68-112-107-246-121-399-20-85-62-170-121-256-56-80-127-161-211-242-136-1-273-1-409-1 57 161 96 327 123 496 33 207 47 418 50 631 0 16 1 32-31 32-32 1-32-15-32-31-4-211-17-420-50-623-27-173-68-342-128-506h-38c-88-145-172-208-299-270-2 14-4 29-7 43-10 44-28 87-58 130-9 13-18 26-44 8s-17-31-8-44c25-36 40-72 48-108 4-19 7-38 7-57-21-9-42-18-65-28-65-274-127-387-344-480-2 77-6 155-20 234-17 99-49 199-109 295-8 14-17 27-44 10s-19-30-10-44c55-88 84-180 100-272 15-83 18-167 19-249-12-4-24-9-37-13-59-382-129-597-525-748 4 50 5 101 3 152-5 86-21 174-55 264-6 15-11 30-41 19s-24-26-19-41c32-83 47-164 51-245 4-76-1-151-11-226-84-96-205-188-309-290 2 140-16 281-56 422-48 171-127 342-237 512-9 13-17 27-44 9-27-17-18-31-9-44 106-165 183-330 229-495 45-158 61-316 50-474-44-50-82-103-109-160-3 7-6 14-9 21-15 35-31 70-46 105-6 15-13 29-42 17-29-13-23-27-16-42 15-35 31-70 46-105 13-28 25-57 37-85-4-17-6-35-8-54-13-122-79-217-168-297-1 0-1-1-2-1-11 38-26 77-44 115-28 59-64 118-111 177-10 13-20 25-45 5s-15-32-5-45c44-55 77-110 103-165 22-47 39-94 50-140-41-48-70-97-92-152-15 35-35 70-61 105-30 40-70 80-119 121-12 10-25 20-45-5s-8-35 5-45c45-37 81-73 108-110 27-36 46-71 59-107 21-57 27-21 9-112 34-180-33-288-129-438 2-4 4-8 5-12-57 1-122 20-193 52-86 38-180 94-279 162-13 9-26 18-44-8s-5-35 8-44c103-70 200-128 290-168s173-61 245-57c17-48 19-84 7-140-291 108-520 159-706 171-194 12-343-19-466-72-15-6-29-13-17-42 13-29 27-23 42-17 115 50 254 78 437 67 182-11 406-62 694-169l-3-9c52-117 94-229 123-343-103 28-205 26-306 24h-21c-16 0-32 0-31-32s17-32 32-31h21c108 2 216 4 322-31 8-37 14-75 19-113 17-127 164-157 270-44 87 94 167 192 253 232 175 83 371 8 513-104l-129-42c-15-5-30-10-21-40 10-30 25-25 40-21 55 18 111 36 166 53 14-13 26-26 38-40 361 30 595-46 827-278-205 4-389-2-547-20-175-20-319-55-425-108-14-7-29-14-15-43s29-22 43-14c99 50 236 83 404 102 170 19 372 24 599 18h3c21-23 42-48 63-74 99-41 198-86 271-168-421-45-821-127-1198-325-98-109-252-171-417-212-304-38-576 38-825 167-65-61-116-116-180-177-96-11-186-62-282-73-127-15-262 10-390-5-16-2-32-4-28-35 4-32 20-30 35-28 128 15 262-10 390 5 124 14 242 69 366 83 414-156 756-241 1051-228h1c345-101 703-143 1060-134-4-3-9-7-14-12-43-42-22-63-1-85 193-197 238-377 177-541-64-169-239-328-482-473-259 29-508-41-783-11-172 19-341 56-507 113 139 49 260 131 358 248 122 145 210 341 256 588 5 29 11 59-48 70s-64-19-70-48c-42-226-121-404-230-532-115-165-379-228-462-262-275 28-546 59-781 119-178 46-333 109-453 200 178-37 362-30 522 50 153 76 283 218 363 450 10 28 20 57-37 76s-66-9-76-37c-69-199-177-318-303-381-251-125-772-16-992 147-129 95-256 220-383 364-24 27-47 54-101 7-54-48-30-74-6-101 132-150 267-282 405-384 134-99 272-171 414-204 146-161 360-259 611-323 243-63 521-94 803-123-83-167-190-267-312-322-130-58-282-67-444-51-339 116-640 299-930 505 27-1 52 0 77 1 85 5 163-6 235 21 28 10 56 21 36 77-25 69-213 27-278 23-74-5-155 2-246 24-14 3-28 7-41 3-354 219-607 440-901 689l-49 17c-261-11-442 27-550 108-98 74-104 191-85 348-46 147-102 309-117 480-307 264-650 526-808 911-35 111-95 211-168 300 63 10 114 30 153 59 15 11 28 24 40 38 7-65 18-130 33-193 22-90 53-173 97-240 9-13 18-27 44-9 27 17 18 31 9 44-39 60-68 138-88 221-25 101-37 211-41 313-1 31-59 34-64 3-7-54-30-96-69-125s-94-46-166-52c-66 71-140 136-215 196-61 49-120 102-132 184-8 140 163 165 327 175 371 22 75 233 279 418 98 69 190 149 261 246 141 51 228 39 324-4 19-252-3-380 108-379h11c5-32 14-63 26-95 19-47 46-95 84-142 10-12 20-25 45-5s15 32 5 45c-34 42-58 83-75 125-14 35-22 70-26 105 19 38 14 113 14 244 211-103 403-129 619-140 403-472 575-352 221-8-21 39-39 74-57 107-61 118-100 209-113 370-103 90-610 507-420 661 133-19 216-13 165 86-63 133-252 408-189 559 23 55 104 50 185 31 5-5 12-11 18-16 133-108 272-232 402-375 129-142 250-303 349-487 13-25 27-51 64-43 40-145 86-290 138-434 54-150 115-301 181-453 10-22 42-25 55-5 55 79 109 138 163 176 48 34 96 51 142 52 47 0 95-16 142-49 52-36 105-92 158-167 9-13 18-26 44-8 26 19 17 32 7 45-57 81-116 142-174 182-59 41-119 61-179 60s-120-22-179-64c-49-34-97-83-145-146-56 132-109 264-157 397-53 148-100 295-140 442 33 28 19 54 5 81-104 196-232 367-369 517-111 122-228 230-343 327 15 107 44 210 94 314 220-189 425-381 606-579 181-199 338-405 461-618 8-14 16-28 44-12s20 30 12 44c-64 110-136 219-216 325 15 22 3 31-9 40-23 19-37 95-43 193-8 132 0 296 15 416 2 16 4 32-28 36-31 4-33-12-35-28-16-124-24-293-16-427 2-34 5-66 10-96-47 57-97 114-148 171-184 202-393 398-617 590-2 2-4 3-6 5 6 11 13 23 20 34-194 141-353 191-136 379 73-52 145-104 218-156l234-168c13-9 26-19 45 7s6 35-7 45l-233 168c-75 54-151 108-226 162-4 89 16 153 55 222 19-3 35-4 49-5 163-119 326-237 489-356 13-9 26-19 45 7s6 35-7 45l-474 345c-10 19-31 43-57 73-160 115-718 460-660 698v1c135-37 268-84 396-150 133-69 262-160 384-284 11-11 22-23 45 0 23 22 11 34 0 45-127 129-261 224-399 295v6l-3 66-3 66c-1 16-2 32-33 30-32-2-31-18-30-33l3-66c1-12 1-25 2-37-113 53-228 92-345 124 48 225-70 419-190 613-68 55-627 508-394 643 63 31 132 45 203 52z" fill="#f7db17"/>
   <path class="fil6" d="m96824 34551c-94 58-171 98-270 115 5-3 9-7 11-12 62-118 135-221 217-315 11-13 22-25 33-37 1 39 3 77 4 116 2 44 3 88 5 133z"/>
   <path class="fil6" d="m98028 37128c-65 96-143 183-232 263-88 80-187 153-293 223-13 9-27 18-44-9-18-27-4-35 9-44 102-68 199-139 285-217 86-77 161-160 222-251 9-13 18-27 44-9s18 31 9 44z"/>
   <path class="fil6" d="m98824 36179c-40 61-81 123-121 184-9 13-18 27-44 9-27-18-18-31-9-44 40-61 81-123 121-185 9-13 18-27 44-9 27 18 18 31 9 44z"/>
   <path class="fil6" d="m98389 36118c-21 91-54 179-112 259-59 80-144 151-268 208-15 7-29 13-42-16s1-35 16-42c114-52 191-116 244-188s82-152 101-236c4-16 7-31 38-24s27 23 24 38z"/>
   <path class="fil6" d="m99170 35166c-32 32-60 69-84 109s-45 85-61 133c-5 15-10 30-40 20s-25-25-20-41c18-53 40-101 67-146s58-85 94-121c11-11 22-23 45 0 23 22 11 34 0 45z"/>
   <path class="fil6" d="m99808 35229c-27 91-53 181-87 272-34 92-74 184-126 276-8 14-16 28-44 12s-20-30-12-44c51-89 89-177 122-266 32-89 59-179 85-269 5-15 9-31 40-22 30 9 26 24 21 40z"/>
   <path class="fil6" d="m99517 31497c198 292 241 591 248 893 23-110 47-219 77-329 0-1 4-9 5-10 83-116 135-232 161-348s26-231 5-347c-3-16-6-31 26-37 31-6 34 10 37 26 22 124 22 248-6 372-27 122-82 245-168 366-54 203-93 407-131 610l-7 38c-6 31-64 26-63-6 0-23 1-45 1-68 4-381 8-761-237-1123-9-13-18-26 8-44s35-5 44 8z"/>
   <path class="fil6" d="m99033 32123c-2 24-4 49-6 73s-4 49-6 73c-1 16-3 32-35 29s-30-19-29-35c2-24 4-49 6-73s4-49 6-73c1-16 3-32 35-29s30 19 29 34z"/>
   <path class="fil6" d="m98898 32970c49 161 88 325 114 495 18 115 30 232 36 351 13-22 27-43 44-63 52-65 122-122 205-171 14-8 27-16 44 11 16 27 2 35-11 44-77 45-140 97-188 156-46 58-77 123-90 198-5 31-64 26-64-6 1-175-13-345-39-510s-64-327-113-486c-5-15-9-31 21-40 31-9 35 6 40 21z"/>
   <path class="fil6" d="m99573 33272c28 130 45 256 51 377s2 239-12 353c-2 16-4 32-36 28s-30-20-28-36c14-109 18-223 12-342s-23-241-49-367c-3-16-7-31 25-38 31-7 34 9 38 25z"/>
   <path class="fil6" d="m1.0015e5 33164c22 119 33 235 28 348s-28 222-74 325c-40 119-43 239-22 359 21 122 67 245 123 368 7 15 13 29-16 42s-36-1-42-16c-58-128-106-255-128-383-23-130-19-260 25-391l1-3c43-96 64-198 69-304 5-108-6-219-27-333-3-16-6-31 26-37 31-6 34 10 37 26z"/>
   <path class="fil6" d="m1.0043e5 32204c-15 60-30 121-45 181s-30 121-45 181c-4 16-8 31-39 23s-27-23-23-39c15-60 30-121 45-181s30-121 45-181c4-16 8-31 39-23s27 23 23 39z"/>
   <path class="fil6" d="m1.0014e5 30609c17 55 34 110 51 166 5 15 9 30-21 40-30 9-35-6-40-21-17-55-34-110-51-166-5-15-9-31 21-40s35 6 40 21z"/>
   <path class="fil6" d="m1.0029e5 29395c1 75 2 151-4 476-68 61-118 138-144 234-27 98-30 217-5 360 3 16 6 31-26 37-31 5-34-10-37-26-27-153-23-280 6-388 30-109 86-196 164-265l-14-202c-1-75-2-151-3-226 0-16-1-32 31-32s32 16 32 32z"/>
   <path class="fil6" d="m99088 28974c187 122 346 258 457 418 112 161 175 346 169 565-1 22-25 37-45 28-105-45-210-91-316-136 70 452 52 813-47 1090-105 293-299 492-574 605-24 10-50-14-43-39 53-171 86-343 99-515s5-344-23-515c-3-16-5-32 26-37s34 11 37 26c29 177 37 353 24 529-11 154-39 308-82 462 225-110 386-288 476-540 100-278 114-648 34-1116-4-24 22-44 44-35 108 47 217 93 325 140-4-183-61-340-157-479-106-152-259-283-439-401-14-9-27-18-9-44 18-27 31-18 44-9z"/>
   <path class="fil6" d="m1.0224e5 28354c-8 21-17 42-25 63s-17 42-25 63c-6 15-12 30-41 18-30-12-24-27-18-41 8-21 17-42 25-63s17-42 25-63c6-15 12-30 42-18 29 12 24 27 18 42z"/>
   <path class="fil6" d="m1.015e5 28338c61 24 111 58 152 99 40 40 72 86 97 137 7 14 15 28-14 43-28 15-36 0-43-14-23-45-50-86-85-121-35-34-77-63-130-84-15-6-30-12-18-42s27-24 42-18z"/>
   <path class="fil6" d="m1.004e5 28654c80 89 132 193 160 310 28 115 32 243 17 381-2 16-3 32-35 28-32-3-30-19-28-35 14-131 10-251-16-360-26-106-73-201-146-282-11-12-21-24 2-45 24-22 34-10 45 2z"/>
   <path class="fil6" d="m96680 29012c-4 42-8 84-13 126-4 42-8 84-13 126-2 16-3 32-35 29s-30-19-28-35c4-42 8-84 13-126 4-42 8-84 13-126 2-16 3-32 35-29s30 19 29 35z"/>
   <path class="fil6" d="m97370 28648c18 60 36 120 53 179l16 53c5 15 9 31-21 40-31 9-35-6-40-22l-16-53c-18-60-35-120-53-179-4-15-9-31 22-40 30-9 35 6 40 22z"/>
   <path class="fil6" d="m98784 29598c7 27 11 53 14 78 2 26 2 52 0 78-1 16-3 32-35 29s-31-19-29-34c2-22 2-45 0-67-2-23-6-46-11-67-4-15-8-31 23-39s35 8 39 23z"/>
   <path class="fil6" d="m99273 28521c31 32 51 64 58 97 8 35 3 70-15 104-7 14-15 28-43 13s-21-29-13-43c11-20 14-40 9-60-5-21-19-44-41-66-11-11-23-23 0-45 23-23 34-11 45 0z"/>
   <path class="fil6" d="m95895 28692c0 76 11 148 36 216s64 132 119 192c74 84 112 168 132 252 20 83 23 164 26 245 1 16 1 32-31 33s-32-15-33-31c-3-78-5-157-24-232-18-75-52-150-118-225l1 1c-61-66-104-137-132-213s-40-155-40-238c0-16 0-32 32-32s32 16 32 32z"/>
   <path class="fil6" d="m97261 29611c76 141 118 279 135 419 17 139 9 279-15 427-28 170 9 335 102 492 86 145 221 284 396 412-54-188-86-372-78-551 9-209 73-411 220-602 62-82 105-166 134-251 30-86 46-173 57-258 2-16 4-32 36-28 31 4 29 20 27 36-11 90-29 181-60 271-31 91-77 182-144 269-138 180-198 370-206 567-9 199 34 406 102 618 9 27-25 52-48 36-220-148-387-312-491-486-101-170-141-349-110-535 23-142 31-276 15-409-16-132-56-263-127-396-8-14-15-28 13-43s36-1 43 13z"/>
   <path class="fil6" d="m96713 30451c0 152-43 303-118 454-59 119-139 238-231 356 48-18 97-38 145-61 84-39 168-86 254-150 58-44 117-95 176-155 59-61 120-133 181-217 9-13 19-26 45-7s17 32 7 45c-63 86-125 160-186 224-56 57-111 106-165 148 8 40 14 70 20 99 7 36 15 73 23 111 3 16 7 31-25 38-31 6-34-9-38-25-10-45-16-78-23-111-5-23-9-47-14-70-76 53-152 95-228 130-87 41-173 72-259 103-28 10-54-28-35-51 122-145 225-290 297-433 71-142 112-284 112-426 0-16 0-32 32-32s32 16 32 32z"/>
   <path class="fil6" d="m96045 30397v143c0 16 0 32-32 32s-32-16-32-32v-143c0-16 0-32 32-32s32 16 32 32z"/>
   <path class="fil6" d="m95626 29580c88 214 111 414 78 600-33 187-121 360-253 523l-4 4c-127 108-221 239-291 386-47 99-83 205-112 318 34-48 71-94 112-135 83-84 182-150 313-186 133-73 260-155 379-248s231-196 332-310c10-12 21-24 45-3s13 33 3 45c-105 118-219 223-341 318s-253 179-391 255l-7 3c-120 32-212 93-288 170-77 78-139 174-198 272-16 27-64 9-59-22 32-181 80-351 153-505s172-291 305-406c125-154 207-317 238-492s9-363-74-565c-6-15-12-29 17-42 29-12 35 3 42 17z"/>
   <path class="fil6" d="m96984 31758c-20 57 22 112 108 223 19 24 39 51 58 75 115 153 157 326 160 507 3 178-30 363-66 541-6 30-58 29-63-2-29-198-113-372-238-528-126-157-293-297-485-425-13-9-27-18-9-44 18-27 31-18 44-9 198 132 370 276 500 439 98 123 173 257 217 405 22-126 38-253 35-376-3-169-42-330-147-470-23-30-41-54-57-75-100-129-149-193-118-282 5-15 10-30 41-20 30 10 25 25 20 40z"/>
   <path class="fil6" d="m97564 31719c24 25 48 50 72 75s48 50 72 75c11 11 22 23-1 45s-34 10-45-1c-24-25-48-50-72-75s-48-50-72-75c-11-12-22-23 1-45s34-10 45 1z"/>
   <path class="fil6" d="m98273 31948c-44 142-89 284-133 426s-89 284-133 426c-5 15-9 31-40 21-30-9-26-25-21-40 44-142 89-284 133-426s89-284 133-426c5-15 9-30 40-21s26 25 21 40z"/>
   <path class="fil6" d="m98675 34330c-14 36-14 71 0 107 6 15 11 30-18 41-30 11-35-3-41-18-19-51-19-102 0-152 6-15 11-30 41-18 30 11 24 26 18 41z"/>
   <path class="fil6" d="m98253 33631c-19 75-39 150-58 225s-39 150-58 225c-4 16-8 31-39 23s-27-23-23-39c19-75 39-150 58-225s39-150 58-225c4-15 8-31 39-23s27 23 23 39z"/>
   <path class="fil6" d="m97645 33628 55 54c11 11 23 23 0 45-23 23-34 11-45 0l-55-54c-11-11-23-23 0-45 23-23 34-11 45 0z"/>
   <path class="fil6" d="m96929 33286c-15 42-29 84-44 126s-29 84-44 126c-5 15-11 30-41 20s-25-26-20-41c15-42 30-84 44-126 15-42 30-84 44-126 5-15 11-30 41-20s25 25 19 41z"/>
   <path class="fil6" d="m95906 34367c-39 43-65 89-83 137-19 49-29 101-38 154-3 16-5 31-37 26-31-5-29-21-26-37 9-56 21-111 42-166s51-108 96-158c11-12 22-24 45-2 24 22 13 33 2 45z"/>
   <path class="fil6" d="m92977 37236c-14 33-35 65-62 97-26 31-59 63-98 94-12 10-25 20-45-5s-7-35 5-45c35-29 65-57 89-85 23-28 41-55 53-82 6-15 13-29 42-17 29 13 23 27 16 42z"/>
   <path class="fil6" d="m93437 36992c-14 32-35 59-62 83-27 23-60 42-99 56-15 6-30 11-41-19s4-35 19-41c32-12 59-27 80-45 20-17 35-37 45-60 6-15 13-29 42-17 29 13 23 27 16 42z"/>
   <path class="fil6" d="m94045 36622c-10 17-22 34-38 52s-37 35-66 52c-14 8-27 17-44-11-16-27-3-35 11-44 23-14 40-27 52-41 13-14 22-27 30-41s16-27 44-11c27 16 19 30 11 44z"/>
   <path class="fil6" d="m94960 34240c-29 85-49 170-57 255-8 84-4 168 15 252 3 16 7 31-24 38s-35-9-38-24c-20-91-25-181-16-272 8-90 30-180 60-270 5-15 10-30 41-20 30 10 25 25 20 41z"/>
   <path class="fil6" d="m95583 27904c-3 71-21 141-55 212-33 69-81 138-144 207-11 12-21 24-45 2s-13-33-2-45c59-64 103-128 133-191s46-125 49-187c1-16 1-32 33-31s31 17 31 33z"/>
   <path class="fil6" d="m94947 27342c54 97 88 194 107 291s23 193 18 289c-1 16-2 32-34 30s-31-18-30-33c5-92 1-183-17-274s-50-181-100-272c-8-14-16-28 12-43 28-16 36-2 44 12z"/>
   <path class="fil6" d="m94104 28387c-114-85-197-170-248-256-53-89-73-178-58-268 3-16 5-31 36-27 31 5 29 21 26 36-12 75 5 150 50 225 47 79 124 158 232 238 13 9 26 19 7 45s-32 16-45 7z"/>
   <path class="fil6" d="m95038 29972v138c0 16 0 32-32 32s-32-16-32-32v-138c0-16 0-32 32-32s32 16 32 32z"/>
   <path class="fil6" d="m93846 28771c188 178 301 392 360 629 37 147 54 303 56 466 2-1 4-2 7-2 85-29 150-104 196-226 48-128 73-305 77-532 0-2 3-14 4-16 66-109 108-219 135-329s41-221 51-333c3-28 42-39 58-16 110 154 206 315 279 486 73 172 123 354 142 551 1 16 3 32-29 35s-33-13-35-29c-18-190-66-366-137-532-60-141-136-274-223-403-9 85-23 170-44 256-28 113-71 226-138 339-4 230-31 411-81 545-53 141-131 229-235 264-9 3-19 6-27 1-1 79-5 159-12 240-1 16-3 32-35 29s-31-19-29-34c22-265 15-517-42-744-57-226-164-429-343-598-11-11-23-22-1-45s34-12 45-1z"/>
   <path class="fil6" d="m94544 31760c-13 84-26 167-39 251s-26 167-39 251c-2 16-5 32-36 27s-29-21-27-36c13-84 26-167 39-251s26-167 39-251c3-16 5-32 36-27s29 21 26 36z"/>
   <path class="fil6" d="m93202 32330c11 64 23 127 35 191 3 16 6 31-26 37-31 6-34-10-37-26-11-64-23-127-34-190-3-16-6-31 26-37 31-6 34 10 37 26z"/>
   <path class="fil6" d="m94362 30790c-16 126-47 249-98 367-50 119-120 233-212 342l-1 1c-114 125-170 255-188 390-18 136 2 277 39 420 4 16 8 31-23 39s-35-7-39-23c-39-150-60-299-41-445 19-147 80-289 203-424 88-104 154-213 202-325 48-113 78-230 94-350 2-16 4-32 36-28 31 4 29 20 27 36z"/>
   <path class="fil6" d="m94059 30338c23 122 4 244-48 365-50 119-132 237-237 355l-3 3c-109 92-186 192-247 295-61 105-107 214-151 324-6 15-12 30-42 18-29-12-24-27-18-41 45-112 92-224 155-333 64-109 145-214 259-310 99-112 177-224 224-336 47-110 64-219 44-328-3-16-6-31 25-37s34 10 37 26z"/>
   <path class="fil6" d="m92579 31041c35 244-3 454-95 638-91 183-234 341-410 482-13 10-25 20-45-5s-7-35 5-45c169-136 307-286 393-460 86-173 122-370 89-601-2-16-5-32 27-36s34 11 36 27z"/>
   <path class="fil6" d="m90689 32088c18 38 36 75 54 113 19 40 39 81 58 121 7 14 14 29-15 43s-36-1-43-15c-20-40-39-81-58-121-18-38-36-75-54-113-7-14-14-29 15-43s36 0 43 15z"/>
   <path class="fil6" d="m89939 32102c-2 145 10 287 46 424 35 137 95 270 190 396 0 0 3 5 3 5 47 98 76 196 94 294 14 73 21 146 26 218 91-97 162-197 212-300 58-120 89-244 92-371 0-16 1-32 33-31s32 17 31 33c-3 137-35 270-98 398-62 127-154 250-275 369-19 19-53 5-54-21-5-95-12-189-29-281s-44-183-88-275c-99-133-162-273-199-416-37-144-49-291-48-441 0-16 0-32 32-32s32 16 32 32z"/>
   <path class="fil6" d="m90041 34663c6-78 18-156 36-235 18-78 43-157 74-235 6-15 12-30 41-18 30 12 24 27 18 42-30 75-53 151-71 226s-29 150-34 225c-1 16-2 32-34 30s-31-18-30-34z"/>
   <path class="fil6" d="m89953 35375c13-95 26-189 39-284 2-16 4-32 36-27 32 4 29 20 27 36-13 95-26 189-39 284-2 16-4 32-36 27-32-4-29-20-27-36z"/>
   <path class="fil6" d="m89463 36571c47-46 92-101 134-163 44-63 85-131 124-202 8-14 16-28 43-13 28 16 20 29 12 43-41 75-84 145-128 208-45 64-92 122-142 172-11 11-23 22-45 0-22-23-11-34 0-45z"/>
   <path class="fil6" d="m88754 32560v118c0 16 0 32-32 32s-32-16-32-32v-118c0-16 0-32 32-32s32 16 32 32z"/>
   <path class="fil6" d="m87554 35323c-2-29-3-59-5-88l-5-88c-1-16-2-32 30-33 32-2 33 14 34 30l5 88c2 29 3 59 5 88 1 16 2 32-30 34s-33-14-34-30z"/>
   <path class="fil6" d="m90566 30409c-62 211-109 430-105 618 3 181 54 333 186 418 153 99 220 248 284 392 4 9 8 18 12 26 19-71 34-147 42-223 10-92 10-184-4-265-3-16-5-31 26-37 31-5 34 10 37 26 15 87 15 184 4 282-12 109-37 219-69 316-8 26-47 29-59 4-17-33-32-69-48-104-60-135-123-275-260-365-152-98-211-268-215-470-4-195 44-421 108-638 4-15 9-31 40-22s26 24 22 40z"/>
   <path class="fil6" d="m90354 29604c21 164 15 316-13 468s-77 304-142 467c-78 196-112 405-102 614 10 207 63 415 160 612 7 14 14 29-14 43-29 14-36 0-43-15-101-205-157-421-167-637-10-218 25-435 106-640 64-161 112-309 139-455s33-292 13-449c-2-16-4-32 28-36 31-4 33 12 36 28z"/>
   <path class="fil6" d="m88956 31596c-43 96-52 192-36 288 17 98 60 197 119 296 8 14 16 27-11 44-27 16-36 3-44-11-63-105-109-211-127-318-19-108-9-217 41-325 6-15 13-29 42-16s23 28 16 42z"/>
   <path class="fil6" d="m88346 31376c10 57 13 125 6 191-6 58-20 115-44 166l-1 1c-28 54-34 108-23 162 11 56 40 114 80 171 9 13 18 26-8 45-26 18-35 5-45-8-45-64-77-129-91-195-14-68-7-136 29-203 21-44 33-94 38-144 6-60 3-121-6-174-3-16-5-31 26-37 31-5 34 10 37 26z"/>
   <path class="fil6" d="m91912 26096c-20 167-10 325 23 474s91 291 169 426c8 14 16 28-12 44s-36 2-44-12c-80-140-141-288-176-444s-45-321-24-495c2-16 4-32 35-28 32 4 30 19 28 35z"/>
   <path class="fil6" d="m91466 26528c82 148 154 305 208 478 54 174 91 363 103 574 1 16 2 32-30 34s-33-14-34-30c-12-206-48-390-100-559-53-169-122-322-202-466-8-14-16-28 12-43 28-16 36-2 43 12z"/>
   <path class="fil6" d="m89250 26596c-214 304-307 552-325 766-18 212 39 390 123 554l2 4c58 168 84 337 81 505-4 168-37 336-98 504-5 15-11 30-41 19s-25-26-19-41c58-161 90-323 94-484 4-160-21-321-76-481-89-173-148-362-130-586 19-224 115-483 337-797 9-13 18-26 44-8s17 31 8 45z"/>
   <path class="fil6" d="m91316 25720c19 92 10 187-32 281-38 85-104 169-201 245-99 77-157 178-184 298-27 123-22 267 8 429 3 16 6 31-26 37-31 6-34-10-37-26-31-170-37-322-7-454 30-134 95-247 206-334 89-69 148-144 182-220 36-81 44-163 28-242-3-16-6-31 25-38 31-6 34 9 38 25z"/>
   <path class="fil6" d="m89128 25907c42 135 44 269 5 401-39 131-117 260-236 387l-3 2c-114 97-185 218-228 354-44 138-62 292-70 452-1 16-2 32-34 30-32-1-31-17-30-33 8-164 26-324 73-469 47-146 123-277 246-382 112-119 185-240 220-360s33-242-4-364c-5-15-9-30 21-40 30-9 35 6 40 21z"/>
   <path class="fil6" d="m90379 25973c-7 49-8 96 0 143 8 45 25 89 54 131 9 13 18 26-8 44s-35 5-44-8c-34-50-54-103-64-156-9-53-8-107-1-162 2-16 4-32 36-27 32 4 29 20 27 36z"/>
   <path class="fil6" d="m90321 25643c-115 48-203 130-265 246-61 115-98 263-109 446 8 9 11 16 11 22 61 83 103 181 130 293 29 121 40 258 35 407 0 16-1 32-33 31s-31-17-31-33c4-144-5-275-33-390-23-98-60-184-111-258-238 221-353 466-361 731-8 278 100 581 310 904 9 14 17 27-9 44-27 17-35 4-44-9-217-334-329-649-321-940 9-286 134-549 391-785v-1c10-200 50-363 118-490 69-129 168-221 296-275 15-6 29-12 42 17 12 29-2 36-17 42z"/>
   <path class="fil6" d="m89965 25183c-3 25-5 47-8 69-15 151-33 322-148 425-63 56-105 123-133 195-29 74-44 155-54 239-2 16-4 32-35 28-32-4-30-20-28-35 10-88 27-175 58-255 32-81 79-156 150-220 97-86 113-245 127-383 3-26 5-51 7-70 2-16 4-32 35-28 32 4 30 20 28 35z"/>
   <path class="fil6" d="m93442 28893c38 79 69 159 90 242 21 84 31 169 26 258-1 16-2 32-34 30s-31-18-30-33c4-82-5-162-24-240-20-78-49-154-85-230-7-14-14-29 15-43s36 1 43 15z"/>
   <path class="fil6" d="m93453 30035c27 131 29 265 5 400-24 134-72 270-146 408l-147 345c-6 15-13 29-42 17-29-13-23-27-17-42 49-115 98-231 147-346l1-3c71-132 118-263 140-391 22-127 21-253-5-376-3-16-6-31 25-38 31-6 34 9 38 25z"/>
   <path class="fil6" d="m92727 28972c207 231 344 476 408 734 65 258 58 528-20 811-4 15-9 31-39 22-31-8-26-24-22-39 76-272 82-531 20-778s-193-483-394-707c-11-12-21-24 3-45s34-9 45 2z"/>
   <path class="fil6" d="m92663 30254c-64 135-136 271-223 406s-189 271-310 407c-70 77-134 163-190 258-56 96-103 201-141 319-10 30-64 20-62-11 5-96-5-192-31-289-27-97-69-193-128-291l1 1c-116-172-167-345-157-517 9-172 78-343 200-513 69-120 120-240 154-360s52-240 57-360c1-16 1-32 33-31s31 17 31 33c-5 125-24 250-60 376-36 125-88 250-161 375l-2 3c-116 161-180 321-189 481-9 159 39 319 146 478l1 1c62 102 107 204 135 307 13 48 23 96 28 145 27-63 57-123 90-179 58-100 125-189 198-269 119-133 219-266 304-398 85-133 157-266 219-399 7-15 14-29 42-16 29 14 22 28 15 43z"/>
   <path class="fil6" d="m90763 29643c-4 158 10 308 42 447 33 139 84 268 157 387 8 14 17 27-10 44s-35 3-44-11c-76-125-131-260-165-406-34-145-48-300-44-463 0-16 1-32 33-31s31 17 31 33z"/>
   <path class="fil6" d="m89682 30221v188c0 16 0 32-32 32s-32-16-32-32v-188c0-16 0-32 32-32s32 16 32 32z"/>
   <path class="fil6" d="m90040 29233c3 109-11 215-45 317s-89 199-167 292c-10 12-21 24-45 3s-14-33-3-45c73-86 124-176 155-271 32-94 44-193 42-295 0-16-1-32 31-33s32 15 33 31z"/>
   <path class="fil6" d="m89067 31152c-175-435-218-781-174-1062 44-283 175-500 346-675 115-118 215-235 280-381 65-145 95-320 73-556-1-16-3-32 29-35s33 13 35 29c23 248-10 433-79 588-69 154-173 277-293 399-163 166-287 372-329 640-42 270-1 605 170 1029 6 15 12 30-18 42s-36-3-42-18z"/>
   <path class="fil6" d="m88505 30437c-27 70-36 141-28 211s34 141 77 213c8 14 17 27-11 44-27 17-36 3-44-11-48-79-77-159-86-239s2-160 32-241c6-15 11-30 41-18 30 11 24 26 19 41z"/>
   <path class="fil6" d="m91268 28474c115 161 182 329 195 504 14 174-26 355-125 542-7 14-15 28-43 14-28-15-21-29-14-43 92-176 130-345 118-508-13-163-75-320-183-472-9-13-19-26 7-44 26-19 35-6 45 7z"/>
   <path class="fil6" d="m92131 27799c70 168 107 338 113 509s-18 343-69 517c-9 30-61 23-63-8-6-161-39-304-100-431-60-126-148-236-263-329-12-10-25-20-5-45s32-15 45-5c123 99 216 216 281 351 40 83 69 173 86 270 20-107 28-213 24-319-6-164-41-326-108-486-6-15-12-29 17-42 29-12 36 3 42 17z"/>
   <path class="fil6" d="m92644 27099c114 112 194 261 243 443 48 180 66 393 56 636v2c-11 103-16 203-5 297 11 92 36 177 85 253 9 14 17 27-10 44s-35 4-44-10c-54-85-83-179-95-280-11-99-7-204 4-311v2c9-237-8-444-54-617-46-171-120-311-226-415-11-11-23-22 0-45 22-23 34-11 45 0z"/>
   <path class="fil6" d="m91284 26964c-74 91-120 196-142 314-22 119-19 251 4 393 2 16 5 32-26 36-31 5-34-11-36-26-24-149-26-288-3-415 23-128 73-243 155-343 10-12 20-25 45-4 25 20 15 33 4 45z"/>
   <path class="fil6" d="m88618 28758c-12 265-89 480-213 657-123 177-293 317-492 433-14 8-27 16-44-11-16-27-2-35 11-44 191-112 354-246 472-415 117-168 190-371 202-623 1-16 2-32 33-31 32 1 31 17 30 33z"/>
   <path class="fil6" d="m88550 27841c14 99 8 195-14 291-22 95-59 189-107 286-7 14-14 29-43 14-29-14-21-28-14-43 47-93 82-183 103-272 20-88 26-176 13-267-2-16-5-32 27-36 31-5 34 11 36 27z"/>
   <path class="fil6" d="m90355 27710v91c10 156 21 313 31 469l3 43c1 16 2 32-30 34h-9c-4 5-12 9-27 9-32 0-32-16-32-32v-518c-3-43-6-85-8-127-1-16-2-32 30-34s33 14 34 30c0 3 0 7 1 10 8 6 8 16 8 26z"/>
   <path class="fil6" d="m90790 26904c-128 155-180 305-183 453s42 294 109 440c150 243 200 485 185 728-15 241-94 482-201 722-6 15-13 29-42 16s-23-28-16-42c104-234 181-467 195-700 14-231-33-461-176-692l-2-3c-71-154-120-310-116-470 3-161 59-324 197-492 10-12 20-25 45-4 25 20 15 32 4 45z"/>
   <path class="fil7" d="m87275 21259c-117-71-267-155-411-184-74-142-175-258-310-345-108-70-107-65-67-141 122-14 174-46 175-79 64 1 120 10 166 26 53 19 94 47 124 86 10 13 19 25 45 6 25-20 16-32 6-45-37-48-89-84-154-107-63-22-139-32-227-30-7 0-13 0-19 3-46-21-117-35-203-34-83-79-153-170-120-283 5 4 11 6 18 8 65 18 127 38 179 62 50 23 93 50 122 82 11 12 21 24 45 2 24-21 13-33 2-45-35-39-85-70-143-97-42-19-89-36-139-51 481-98 910-91 1339 164 226 94 332 201 454 367-41 34-82 69-123 104-281-8-488 32-618 130-116 88-140 245-144 401z" fill="#f7db17"/>
   <path class="fil6" d="m87991 21913c211-161 418-253 635-276 215-22 438 24 679 139l240-3 246-3c16 0 32 0 32 31 0 32-16 32-32 32l-246 3c-74 1-148 2-222 3-1 2-3 3-4 5-259 229-481 354-678 395-202 42-376-3-536-116-16-11-33-23-10-56s39-21 55-10c142 100 296 140 474 103 172-36 367-143 595-336-209-92-401-128-586-109-201 21-396 107-595 260-16 12-32 24-56-7-24-32-8-44 7-56z"/>
   <path class="fil6" d="m88618 21790c88 0 160 72 160 160s-72 160-160 160-160-72-160-160 72-160 160-160z"/>
   <path class="fil6" d="m89719 22759c115-60 204-123 278-188 73-65 130-132 180-200 9-13 19-26 45-7s16 32 7 45c-52 71-113 142-189 210-77 68-171 134-291 197-14 7-28 15-43-14-15-28-1-36 14-43z"/>
   <path class="fil6" d="m91991 21818c59-16 118-15 177 1 58 16 115 47 172 94 12 10 25 20 5 45s-32 15-45 4c-50-41-100-68-149-82-48-13-96-14-144-1-16 4-31 8-39-23s7-35 23-39z"/>
   <path class="fil6" d="m90692 21870c52-117 129-206 234-262 105-55 237-78 399-65 16 1 32 3 29 35s-19 30-34 29c-150-13-270 7-364 57-93 49-160 127-206 231-6 15-13 29-42 16s-23-27-16-42z"/>
   <path class="fil6" d="m90840 22083c9-57 32-107 71-148 39-40 92-71 164-90 15-4 31-8 39 23s-7 35-23 39c-60 16-104 41-135 72-30 31-47 69-54 114-3 16-5 32-37 27-31-5-29-21-26-36z"/>
   <path class="fil6" d="m88676 22803c-35 55-67 111-90 173-22 61-33 127-28 204 1 16 2 32-30 34s-33-14-34-30c-6-86 8-161 32-230 24-67 59-127 96-186 9-14 17-27 44-10s18 31 10 44z"/>
   <path class="fil6" d="m89297 23079v96c0 16 0 32-32 32s-32-16-32-32v-96c0-16 0-32 32-32s32 16 32 32z"/>
   <path class="fil6" d="m88893 22387c64 24 127 35 191 36 65 1 129-8 194-23 16-4 31-7 38 24s-8 35-24 38c-70 16-139 26-209 25-71-1-142-13-213-40-15-6-30-11-19-41s26-24 41-19z"/>
   <path class="fil6" d="m89292 21225c-54-1-96 15-128 39-42 31-69 77-80 116-5 15-9 31-40 21-30-9-26-25-21-40 15-51 49-108 104-149 43-32 98-53 167-52 16 0 32 1 31 32 0 32-16 32-32 31z"/>
   <path class="fil6" d="m88648 21290c-48 21-87 43-115 67-26 22-44 46-52 70-5 15-10 30-41 20-30-10-25-25-20-40 12-36 36-69 71-99 33-28 77-54 131-78 15-6 29-13 42 17 13 29-2 36-17 42z"/>
   <path class="fil6" d="m88251 21301c-39 27-73 57-101 91s-50 71-65 112c-5 15-11 30-41 19s-25-26-19-41c18-49 44-93 76-131 32-39 70-73 114-103 13-9 26-18 44 8s5 35-8 44z"/>
   <path class="fil6" d="m87739 21710c-43 32-83 68-122 107-39 40-76 84-110 132-9 13-19 26-45 7s-17-32-7-45c37-51 76-97 117-139s84-80 130-114c13-10 25-19 45 6 19 25 6 35-6 45z"/>
   <path class="fil6" d="m87791 22274c-31 33-61 66-92 99l-92 99c-11 12-22 23-45 2-23-22-12-33-2-45l92-99c31-33 61-66 92-99 11-11 22-23 45-2 23 22 12 33 1 45z"/>
   <path class="fil6" d="m87273 22423v198c0 16 0 32-32 32s-32-16-32-32v-198c0-16 0-32 32-32s32 16 32 32z"/>
   <path class="fil6" d="m87936 23294c-10 108-21 216-31 324-1 10-2 21-3 31-2 16-3 32-35 29s-30-19-29-35c1-10 2-21 3-31 10-108 21-216 31-324 1-16 3-32 35-29s30 19 29 35z"/>
   <path class="fil6" d="m87547 23005c-2 71-5 141-7 212-1 16-1 32-33 31s-31-17-31-33c2-71 4-141 7-212 0-16 1-32 33-31s31 17 31 33z"/>
   <path class="fil6" d="m87186 20248c67 25 127 60 175 107 49 47 87 107 112 181 5 15 10 30-20 41-30 10-35-5-40-20-22-64-55-115-96-156-42-41-94-71-153-93-15-6-30-11-19-41s26-24 41-19z"/>
   <path class="fil6" d="m90357 24383c62 138 94 276 96 414s-25 276-83 414c-6 15-12 29-42 17-29-12-23-27-17-42 54-129 80-259 78-389s-32-259-90-389c-7-15-13-29 16-42s36 1 42 16z"/>
   <path class="fil6" d="m89323 25578c45-155 110-291 186-415 75-123 161-236 247-346 100-128 165-268 199-411 37-155 39-314 12-465-3-16-6-31 26-37 31-5 34 10 37 26 29 161 27 328-12 491-36 151-105 299-211 435-85 109-169 219-243 340-73 120-136 250-179 399-4 15-9 31-40 22s-26-24-22-40z"/>
   <path class="fil6" d="m87995 25227c22-58 54-110 98-155 43-44 97-82 162-113 15-7 29-14 43 15s-1 36-15 43c-58 28-106 61-144 100-37 38-65 82-84 132-5 15-11 30-41 19s-24-26-19-41z"/>
   <path class="fil6" d="m87736 25133c49-63 99-124 156-177 58-54 123-99 200-130 15-6 30-12 41 18 12 30-3 35-18 41-68 27-127 68-180 117-54 50-102 108-149 169-10 13-20 25-45 6-25-20-15-32-6-45z"/>
   <path class="fil6" d="m89114 23768c55 25 108 36 158 38 51 2 100-6 148-19 15-4 31-9 39 22 9 31-6 35-22 40-54 16-110 24-168 22s-119-16-182-44c-15-6-29-13-16-42s28-22 42-16z"/>
   <path class="fil6" d="m88427 23680c16-18 32-36 49-55l6-7c11-12 21-24 45-3s13 33 3 45l-6 7c-16 18-32 36-49 55-11 12-21 24-45 3s-13-33-3-45z"/>
   <path class="fil6" d="m1.0325e5 27956c31 33 57 69 79 106 22 38 40 78 53 120 5 15 10 30-21 40-30 9-35-6-40-21-12-38-28-73-47-106-20-33-43-65-71-95-11-12-22-24 2-45 23-22 34-10 45 2z"/>
   <path class="fil0" d="m95927 38504c-64 67-118 141-171 228-248 82-468 206-737 195 0 173 56 249 230 251 330-166 405-197 434-173 42 34-46 272-320 464-43 26-41 42-16 85 231 362 838 233 1164 147 233-61 654-338 770-571 46-107-56-246-158-360-258 40-346-80-305-163-273-95-575-117-890-104z" fill="#f00"/>
   <line class="fil8" x1="88351" x2="88772" y1="37454" y2="37549" fill="none"/>
   <path class="fil0" d="m86621 35571c-189 154-400 277-646 358-94 31-319 86-340 203-3 42 151 134 250 80 273-262 410-116 97 151-25 51-5 108 49 156 284 255 987 337 1307 135 237-150 361-313 155-538 2-50 7-101 15-150l-391-39-241-140-256-217z" fill="#f00"/>
   <path class="fil0" d="m92747 37702c-24 3-48 6-71 10-127 136 221 86 405 199 84 51 121 151 87 291-171 406-1121 275-1437 108-146-77-153-166-147-293 65-1 132-4 199-14 113-16 226-50 336-113 31-18 63-35 27-98-35-63-67-45-98-27-93 53-189 81-286 95-99 14-200 14-298 10-8 0-17-1-25 0-55-32-97-70-73-103 24-32 115 4 133 8 147-68 275-113 433-143 21-23 42-45 64-68 291 25 566 69 750 136z" fill="#f00"/>
   <path class="fil0" d="m88352 37453c-58 35-78 83-121 177-165 167-324 268-537 364-176 80-5 157 118 242 113 83 259-98 351-235 101-151 202-107 136 12-73 130-125 315-133 413-38 105 361 184 429 188 243 12 549-226 740-347 158-160 134-303 64-499l1-13c-101 3-198-8-293-29-115-26-228-66-344-113-15-6-30-12-18-42 8-19 16-23 25-23l-419-96z" fill="#f00"/>
   <path class="fil6" d="m86795 35679c70 65 143 122 223 162 79 40 166 64 265 64 16 0 32 0 32 32s-16 32-32 32c-110 0-206-27-294-71-87-44-164-104-237-172-12-11-23-22-2-45 22-23 33-13 45-2z"/>
   <path class="fil0" d="m90053 21252c67-3 134-5 200 2 124 14 242 69 366 83 414-156 756-241 1051-228h1c345-101 703-143 1060-134-4-3-9-7-14-12-43-42-22-63-1-85 193-197 238-377 176-541-64-169-239-328-482-473-259 29-508-41-783-11-172 19-341 56-507 113 139 49 260 131 358 248 122 144 210 340 256 588 5 29 11 59-48 70s-64-18-70-48c-42-226-121-404-230-532-115-165-379-228-462-262-275 28-546 59-781 119-178 46-333 109-452 200 178-37 361-30 522 50 153 76 283 218 363 450 10 28 20 57-37 76-56 19-66-9-76-37-69-199-177-318-303-381-251-125-772-16-992 147-129 95-256 220-383 364-14 15-27 30-46 32 472 32 947 57 1313 204zm-1398-267c-11-26 6-46 23-65 132-150 267-282 405-384 134-99 272-171 414-204 146-161 360-259 611-323 243-63 521-94 803-123-83-167-190-267-312-322-130-58-282-67-444-51-339 116-640 299-930 505 27-1 52 0 77 1 85 5 163-6 235 21 28 10 56 21 35 77-25 68-213 27-278 23-74-5-155 2-246 24-14 3-28 7-41 3-305 188-534 378-780 586 187 65 332 142 426 234z" fill="#f00"/>
  </g>
 </g>
</svg>
