<?xml version="1.0" encoding="UTF-8" standalone="no"?>
<svg
   xmlns:dc="http://purl.org/dc/elements/1.1/"
   xmlns:cc="http://creativecommons.org/ns#"
   xmlns:rdf="http://www.w3.org/1999/02/22-rdf-syntax-ns#"
   xmlns:svg="http://www.w3.org/2000/svg"
   xmlns="http://www.w3.org/2000/svg"
   xmlns:sodipodi="http://sodipodi.sourceforge.net/DTD/sodipodi-0.dtd"
   xmlns:inkscape="http://www.inkscape.org/namespaces/inkscape"
   viewBox="0 0 440 480"
   version="1.1"
   id="svg38"
   sodipodi:docname="goat1.svg"
   width="440"
   height="480"
   inkscape:version="0.92.3 (2405546, 2018-03-11)">
  <metadata
     id="metadata44">
    <rdf:RDF>
      <cc:Work
         rdf:about="">
        <dc:format>image/svg+xml</dc:format>
        <dc:type
           rdf:resource="http://purl.org/dc/dcmitype/StillImage" />
        <dc:title></dc:title>
      </cc:Work>
    </rdf:RDF>
  </metadata>
  <defs
     id="defs42" />
  <sodipodi:namedview
     pagecolor="#ffffff"
     bordercolor="#666666"
     borderopacity="1"
     objecttolerance="10"
     gridtolerance="10"
     guidetolerance="10"
     inkscape:pageopacity="0"
     inkscape:pageshadow="2"
     inkscape:window-width="1920"
     inkscape:window-height="1052"
     id="namedview40"
     showgrid="false"
     inkscape:zoom="0.49166667"
     inkscape:cx="320"
     inkscape:cy="240"
     inkscape:window-x="0"
     inkscape:window-y="360"
     inkscape:window-maximized="1"
     inkscape:current-layer="svg38" />
  <path
     d="m 407.8778,278.23 c 0.0315,99.896 -85.569,180.89 -191.17,180.89 C 111.1068,459.12 25.507796,378.122 25.537796,278.23 25.506296,178.334 111.1068,97.34 216.7078,97.34 c 105.601,0 191.2,80.998 191.17,180.89 z"
     id="path2"
     inkscape:connector-curvature="0"
     style="fill:#c8beb7;stroke:#000000;stroke-width:3.28740001;stroke-linecap:round;stroke-linejoin:round" />
  <path
     d="m 396.3278,216.19 c 0.134,2.7762 0.21817,5.6022 0.21817,8.4095 0,99.824 -85.636,180.83 -191.16,180.83 -82.486,0 -152.870004,-49.527 -179.660004,-118.82 4.6311,95.941 88.440004,172.47 191.000004,172.47 105.53,0 191.16,-81.007 191.16,-180.83 0,-21.796 -4.0807,-42.71 -11.563,-62.066 z"
     id="path4"
     inkscape:connector-curvature="0"
     style="fill-opacity:0.31371999" />
  <path
     d="m 230.9878,460.78 c 0,15.008 25.595,15.488 57.132,15.488 31.537,0 57.132,1.1449 57.132,-15.488 0,-29.248 -25.595,-52.986 -57.132,-52.986 -31.537,0 -57.132,23.738 -57.132,52.986 z"
     id="path6"
     inkscape:connector-curvature="0"
     style="fill:#6c5d53;stroke:#000000;stroke-width:4;stroke-linecap:round;stroke-linejoin:round" />
  <path
     d="m 364.4278,219.98 c 0,74.581 -96.203,135.11 -142.83,135.11 -44.886,0 -142.830004,-60.529 -142.830004,-135.11 0,-74.581 42.978004,-135.11 142.830004,-135.11 99.87,0 142.83,60.529 142.83,135.11 z"
     id="path8"
     inkscape:connector-curvature="0"
     style="fill-opacity:0.31371999" />
  <path
     d="m 134.79379,295.26495 c 7.5064,31.67389 11.95651,41.63561 8.2651,58.17239 -1.68109,7.53296 18.17828,-9.24552 21.25779,-18.98947 -3.66552,14.22866 -1.58369,18.72793 -2.85513,33.94857 -1.27144,15.22063 -0.81449,42.15676 1.95529,36.6883 5.75144,-11.35571 12.27373,-35.97199 23.03171,-41.84636 1.22292,15.7146 17.61826,44.94698 15.9873,34.71176 -3.96225,-24.85053 -4.90579,-36.57442 5.45036,-49.49986 10.35497,18.06914 16.76296,25.96851 15.89695,16.84138 -1.46181,-15.40212 8.6894,-34.14573 21.63056,-40.33926 16.42727,-7.86086 -110.50363,-30.25966 -110.61726,-29.68702 z"
     id="path10"
     inkscape:connector-curvature="0"
     style="fill:#6c5d53;fill-rule:evenodd;stroke:#000000;stroke-width:4;stroke-linejoin:round" />
  <path
     d="m 310.0978,475.28 c 0,-27.022 -16.48,-43.651 -16.48,-43.651 0,0 6.5922,22.865 5.4935,43.651 h 10.987 z"
     id="path12"
     inkscape:connector-curvature="0"
     style="fill-opacity:0.31371999;fill-rule:evenodd;stroke:#000000;stroke-width:4;stroke-linejoin:round" />
  <path
     d="M 242.83373,65.59962 C 191.39239,54.650585 151.89583,64.168462 123.92029,86.632972 83.985959,72.942871 21.174504,113.17116 12.174768,132.17174 3.1750322,151.17232 53.746772,147.84092 94.100303,122.3301 134.45384,96.819274 81.26268,150.03183 77.591611,165.78986 c -16.92163,72.63597 64.743109,153.82109 108.457539,164.00501 45.41196,10.57939 152.85046,-26.55131 169.77209,-99.18728 3.67107,-15.75803 -3.0261,-81.22386 4.39779,-46.28117 7.42389,34.94268 74.02045,104.22251 66.01941,55.22226 -8.00103,-49.00025 -35.13107,-95.04252 -76.99426,-100.42213 -15.61058,-33.46358 -48.22594,-59.970955 -101.89383,-72.473689 -1.51951,-0.353993 -3.0158,-0.732742 -4.515,-1.051836 z"
     id="path14"
     inkscape:connector-curvature="0"
     style="fill:#c8beb7;stroke:#000000;stroke-width:4;stroke-linecap:round;stroke-linejoin:round" />
  <path
     d="m 210.5379,171.05877 c -6.24052,23.08539 -31.08813,36.44841 -55.49095,29.843 -24.40282,-6.60541 -39.11678,-30.67601 -32.86152,-53.75845 6.24051,-23.08539 31.08812,-36.44841 55.49094,-29.843 24.40282,6.60541 39.11678,30.67601 32.86153,53.75845 z"
     id="path16"
     inkscape:connector-curvature="0"
     style="fill:#ffffff;stroke:#000000;stroke-width:5.8888998;stroke-linecap:round;stroke-linejoin:round" />
  <path
     d="m 317.4078,171.31 c 0.008,24.587 -21.061,44.523 -47.053,44.523 -25.992,0 -47.061,-19.936 -47.053,-44.523 -0.008,-24.587 21.061,-44.523 47.053,-44.523 25.992,0 47.061,19.936 47.053,44.523 z"
     id="path18"
     inkscape:connector-curvature="0"
     style="fill:#ffffff;stroke:#000000;stroke-width:5.8888998;stroke-linecap:round;stroke-linejoin:round" />
  <path
     d="m 267.2478,186.01 c 0.002,6.8893 -5.9013,12.475 -13.184,12.475 -7.2827,0 -13.187,-5.5861 -13.184,-12.475 0.003,-6.8889 5.9013,-12.476 13.184,-12.476 7.2827,0 13.187,5.5861 13.184,12.476 z"
     id="path20"
     inkscape:connector-curvature="0" />
  <path
     d="m 189.8978,176.01 c 0.002,6.8893 -5.9013,12.475 -13.184,12.475 -7.2827,0 -13.187,-5.5861 -13.184,-12.475 0.003,-6.8889 5.9013,-12.476 13.184,-12.476 7.2827,0 13.187,5.5861 13.184,12.476 z"
     id="path22"
     inkscape:connector-curvature="0" />
  <path
     d="m 251.00064,93.687002 c 0.35256,-12.618291 22.33653,-39.87107 57.14806,-44.566193 23.94936,-3.230212 49.20621,-7.437851 43.18702,40.161802 -8.99087,-29.983376 -22.57009,-20.43318 -36.10867,-16.515891 -27.16723,7.860578 -21.75907,37.62228 -34.98412,42.45317 -12.31112,4.49692 -29.60846,-8.4534 -29.24311,-21.533872 z"
     id="path24"
     inkscape:connector-curvature="0"
     style="fill:#6c5d53;fill-rule:evenodd;stroke:#000000;stroke-width:4;stroke-linejoin:round" />
  <path
     d="m 358.66406,180.24323 -3.8895,3.84865 c -0.32727,5.08553 -0.93305,10.21504 -1.71379,15.39453 -11.11646,73.74788 -115.27816,119.26986 -161.38431,112.32001 -35.73431,-5.38641 -99.593197,-54.67433 -117.340558,-112.17695 3.239751,67.68397 81.103068,131.39637 122.008958,137.56236 46.10714,6.95 150.26785,-38.57214 161.38431,-112.32002 2.31105,-15.3318 2.67461,-30.33521 0.93521,-44.62509 z"
     id="path26"
     inkscape:connector-curvature="0"
     style="fill-opacity:0.31371999" />
  <path
     d="m 204.8078,460.78 c 0,15.008 -25.595,15.488 -57.132,15.488 -31.537,0 -57.132004,1.1449 -57.132004,-15.488 0,-29.248 25.595004,-52.986 57.132004,-52.986 31.537,0 57.132,23.738 57.132,52.986 z"
     id="path28"
     inkscape:connector-curvature="0"
     style="fill:#6c5d53;stroke:#000000;stroke-width:4;stroke-linecap:round;stroke-linejoin:round" />
  <path
     d="m 125.7078,475.28 c 0,-27.022 16.48,-43.651 16.48,-43.651 0,0 -6.5922,22.865 -5.4935,43.651 h -10.987 z"
     id="path30"
     inkscape:connector-curvature="0"
     style="fill-opacity:0.31371999;fill-rule:evenodd;stroke:#000000;stroke-width:4;stroke-linejoin:round" />
  <path
     d="m 230.6778,249.11 c -4.0015,6.5594 -11.345,9.6392 -16.4,6.8783 -5.055,-2.7609 -5.9073,-10.317 -1.9029,-16.874 4.0044,-6.557 11.345,-9.6392 16.4,-6.8783 5.055,2.7609 5.9073,10.317 1.9028,16.874 z"
     id="path32"
     inkscape:connector-curvature="0" />
  <path
     d="m 182.5378,246.11 c 4.0015,6.5594 11.345,9.6392 16.4,6.8783 5.055,-2.7609 5.9073,-10.317 1.9028,-16.874 -4.0045,-6.557 -11.345,-9.6392 -16.4,-6.8783 -5.055,2.7609 -5.9073,10.317 -1.9028,16.874 z"
     id="path34"
     inkscape:connector-curvature="0" />
  <path
     d="m 226.77667,86.990794 c 4.06443,-15.017728 -6.75239,-55.259497 -37.25971,-73.602866 -20.98812,-12.61975109 -60.2855,-5.7546754 -71.28823,52.62355 18.73188,-32.071019 45.38996,-36.926779 56.52611,-27.325423 22.34791,19.266663 7.00053,52.394039 17.53058,62.958185 9.80261,9.83398 30.27804,0.91551 34.49112,-14.652454 z"
     id="path36"
     inkscape:connector-curvature="0"
     style="fill:#6c5d53;fill-rule:evenodd;stroke:#000000;stroke-width:4;stroke-linejoin:round" />
</svg>
