<?xml version="1.0" encoding="UTF-8"?>
<svg viewBox="0 0 175.80408 193.63416" xmlns="http://www.w3.org/2000/svg" xmlns:xlink="http://www.w3.org/1999/xlink">
 <defs>
  <linearGradient id="a">
   <stop stop-color="#ad0000" offset="0"/>
   <stop offset=".43977"/>
   <stop stop-color="#f99" offset="1"/>
  </linearGradient>
  <linearGradient id="b">
   <stop offset="0"/>
   <stop offset=".50324"/>
   <stop stop-color="#fff" offset="1"/>
  </linearGradient>
  <linearGradient id="c">
   <stop stop-color="#898989" offset="0"/>
   <stop offset="1"/>
  </linearGradient>
  <linearGradient id="aa" x1="419.87" x2="424.21" y1="465.5" y2="463.68" gradientUnits="userSpaceOnUse">
   <stop stop-color="#4e3d00" offset="0"/>
   <stop stop-color="#81670c" offset=".5"/>
   <stop stop-color="#d6ae1e" offset="1"/>
  </linearGradient>
  <linearGradient id="e">
   <stop stop-color="#001db1" offset="0"/>
   <stop stop-color="#ec0020" offset="1"/>
  </linearGradient>
  <linearGradient id="d">
   <stop offset="0"/>
   <stop offset=".34648"/>
   <stop stop-color="#fff" offset="1"/>
  </linearGradient>
  <linearGradient id="q" x1="79.309" x2="76.274" y1="50.64" y2="46.824" gradientUnits="userSpaceOnUse">
   <stop stop-color="#3b2e00" offset="0"/>
   <stop stop-color="#5a4708" offset=".54706"/>
   <stop stop-color="#d6ae1e" offset="1"/>
  </linearGradient>
  <linearGradient id="p" x1="77.397" x2="72.392" y1="55.631" y2="49.026" gradientUnits="userSpaceOnUse">
   <stop stop-color="#3b2e00" offset="0"/>
   <stop stop-color="#5a4708" offset=".68604"/>
   <stop stop-color="#d6ae1e" offset="1"/>
  </linearGradient>
  <linearGradient id="z" x1="433.72" x2="430.62" y1="496.63" y2="485.04" gradientUnits="userSpaceOnUse" xlink:href="#d"/>
  <linearGradient id="y" x1="545.39" x2="554.95" y1="497.87" y2="482.87" gradientUnits="userSpaceOnUse" xlink:href="#b"/>
  <linearGradient id="x" x1="73.344" x2="60.809" y1="173.49" y2="157.73" gradientTransform="matrix(-1.1758 0 0 .9933 606.18 386.41)" gradientUnits="userSpaceOnUse" xlink:href="#a"/>
  <linearGradient id="w" x1="527.51" x2="515.25" y1="537.74" y2="531.8" gradientUnits="userSpaceOnUse" xlink:href="#a"/>
  <linearGradient id="v" x1="82.244" x2="67.261" y1="163.17" y2="138.51" gradientTransform="matrix(-1 0 0 1 589.56 388.31)" gradientUnits="userSpaceOnUse" xlink:href="#a"/>
  <linearGradient id="u" x1="69.679" x2="52.226" y1="158.58" y2="143.36" gradientTransform="matrix(-1 0 0 1 589.56 388.31)" gradientUnits="userSpaceOnUse" xlink:href="#a"/>
  <linearGradient id="t" x1="468.53" x2="456.44" y1="531.97" y2="525.42" gradientUnits="userSpaceOnUse" xlink:href="#a"/>
  <linearGradient id="s" x1="68.607" x2="87.286" y1="158.81" y2="146.85" gradientUnits="userSpaceOnUse" xlink:href="#a"/>
  <linearGradient id="r" x1="59.321" x2="71.214" y1="154.79" y2="150.69" gradientUnits="userSpaceOnUse" xlink:href="#a"/>
  <linearGradient id="o" x1="517.75" x2="503.32" y1="522.95" y2="533.62" gradientUnits="userSpaceOnUse" xlink:href="#b"/>
  <radialGradient id="n" cx="117.39" cy="107.5" r="76.218" gradientTransform="matrix(1 -.0019776 .0013082 .66151 375.87 385.97)" gradientUnits="userSpaceOnUse">
   <stop stop-color="#890000" offset="0"/>
   <stop stop-color="#ec4700" offset=".80272"/>
   <stop stop-color="#ec8e00" offset="1"/>
  </radialGradient>
  <radialGradient id="m" cx="71.31" cy="130.79" r="53.433" gradientTransform="matrix(2.2886 -.040991 .041133 2.5786 -97.271 -195.37)" gradientUnits="userSpaceOnUse">
   <stop offset="0"/>
   <stop offset=".67569"/>
   <stop stop-color="#fff" offset="1"/>
  </radialGradient>
  <radialGradient id="j" cx="439.73" cy="497.05" r="9.6102" gradientTransform="matrix(.65199 -2.3232 1.6799 .47146 -681.96 1285.3)" gradientUnits="userSpaceOnUse">
   <stop offset="0"/>
   <stop offset=".51024"/>
   <stop stop-color="#fff" offset="1"/>
  </radialGradient>
  <radialGradient id="g" cx="56.581" cy="181.33" r="13.075" gradientTransform="matrix(1.6187 2.139 -1.5367 1.7271 247.99 -256.43)" gradientUnits="userSpaceOnUse">
   <stop stop-color="#ad0000" offset="0"/>
   <stop offset=".48483"/>
   <stop stop-color="#f99" offset="1"/>
  </radialGradient>
  <radialGradient id="l" cx="114.97" cy="27.546" r="16.497" gradientTransform="matrix(2.0338 -1.3915 .48497 1.0468 -132.44 165.4)" gradientUnits="userSpaceOnUse" xlink:href="#c"/>
  <radialGradient id="k" cx="131.28" cy="32.256" r="16.497" gradientTransform="matrix(1.733 -.99217 .38456 .83611 -107.58 129.12)" gradientUnits="userSpaceOnUse" xlink:href="#c"/>
  <radialGradient id="i" cx="118.73" cy="77.243" r="4.6763" gradientTransform="matrix(.61062 -5.4781e-7 5.0414e-7 .56195 47.297 33.837)" gradientUnits="userSpaceOnUse" xlink:href="#e"/>
  <radialGradient id="h" cx="104.26" cy="78.688" r="4.6763" gradientTransform="matrix(.57817 -1.2211e-8 1.461e-8 .69174 45.414 23.67)" gradientUnits="userSpaceOnUse" xlink:href="#e"/>
  <radialGradient id="f" cx="506.14" cy="530.63" r="6.6582" gradientTransform="matrix(2.2245 .19171 -.10001 1.1604 -566.72 -183.38)" gradientUnits="userSpaceOnUse" xlink:href="#d"/>
 </defs>
 <g transform="translate(-392.1 -387.24)">
  <path d="m541.41 475.13 22.532 21.03-24.464 2.7897 1.9313-23.82z" fill="url(#y)" fill-rule="evenodd"/>
  <path d="m449.05 458.4c-5.0743 0.76545-13.248-1.0448-16.843-5.0074 3.3848-0.92781 4.9761-2.4766 6.0696-4.097-3.4587-1.6204-14.33 0.77195-22.306-2.883 11.599-2.1376 18.027-3.6703 26.858-4.097-4.219-2.551-7.5303-2.0163-15.933-2.5796 6.4682-3.2946 9.1868-2.0235 13.505-3.49-6.1521-1.0113-17.829-2.2478-25.189-7.1318 12.215-2.7596 8.2179 2.6746 27.01-0.7587-13.832-9.6547-8.9976-17.737-15.022-18.36 8.0871-1.3821 19.526 18.275 16.236 5.7661 4.2972 1.7543 8.316 4.7094 12.443 5.7661 2.3058-2.8886-3.2699-4.0471-6.6766-8.6492 1.6007-0.50513 2.8522-0.79428 4.097 0-2.8521-4.8201-1.3186-10.046-3.9452-14.112 5.8708 4.8865 6.842 8.7485 9.7113 11.229 6.9663 1.7216 7.2658 5.3084 8.8009 5.6144-0.58929-5.4602-1.6834-12.148-0.91044-15.477 2.5938 1.6777 1.8943 6.2101 5.6144 6.5248 0.23009-4.8444 0.37909-12.433-1.5174-17.147 4.3248 13.04 7.2248 7.1527 10.015 26.099 2.183-11.25 6.8057-13.012 5.4626-19.271 4.1195 4.818-0.53483 14.665 3.6418 19.271 3.2661-5.5602 5.3016-8.6026 7.1318-10.774 0.76802 2.0778-1.6083 3.8498 1.6691 4.097 0.39437-6.1259 4.0702-11.034 8.9526-15.022-1.3389 22.111 3.721 13.019 4.8557 23.216 3.1073-5.129 3.626-8.5487 5.3109-11.229 1.2296 1.7204 2.3482 2.5646 2.4278 4.2487 2.9626-3.6268 9.2389-2.3846 15.781-11.38 2.9002 6.1781-11.312 18.451-11.987 24.278 6.3047-2.9733 11.459-7.0067 14.112-10.167s-2.2038-2.44 4.4004-9.1044c-2.6519 14.124 4.2269 11.737-3.9452 28.224 14.134-10.068 11.837 1.6146 27.768-7.1318-4.705 8.8554-24.065 4.5498-25.644 20.333 1.4559 5.7684 4.2098 1.3187 6.8283 1.2139-2.2372 4.7509-3.9265 13.361-9.4664 12.844 0.07449-2.9448-4.7377-8.1524-5.558-11.677-1.7307-1.5524-3.4034-1.7395-5.7141-1.9726 1.1794-1.9022-0.94794-4.2364-2.0214-6.3221-1.8322 0.19033-2.9914 2.5808-5.9189 3.1833 0.41077-2.584-0.2369-5.8424-2.1244-6.3731-0.37006 3.8698-2.4057 4.8234-4.8557 4.097 2.8609-2.0921-0.35176-6.5333-2.2761-7.1318-1.9243 0.31194-3.8193 1.7279-4.7039 3.6418-1.4916-1.8796 0.63206-5.0952-1.3657-6.6765-3.3634 4.4882-3.6981-0.72862-7.4352 3.3383-1.0058-1.6992-0.82064-4.1409-1.2139-5.6144-1.4554 1.1061-2.2124 2.6856-3.3383 4.7039-1.4294-1.3199-2.864-4.0056-4.2487-3.1865s-1.5201 2.9069 0.75869 6.98c-2.1216 1.19-5.5566-6.7346-7.2835-5.6144 0.85266 2.0307-2.1135 2.037 0.30348 5.9178-1.2248 1.1496-4.1558-2.2455-5.6144-3.49-1.3069 0.5764-0.33006 3.3514-1.2139 3.49s-1.2068-1.9117-2.1244-3.1865c-1.221 0.24253-3.4949 1.4785-1.8209 4.8557-1.5125 0.64583-3.7701-1.5141-5.3109-2.2761-1.0855 0.75538 0.89597 3.0193-0.45521 4.2487-2.4134-4.8401-5.2341-2.4801-6.3731-1.3656 3.1098 0.81099 1.6462 3.1798 0 3.6418-1.6462-3.3315-3.2811-0.26915-4.097 0.91044 0.09455 1.9383-0.46445 3.4168 0.7587 5.3109-1.9634-0.53373-3.9396 0.26135-4.2487 1.6691 1.8152 0.80083 3.0347 2.1123 3.49 3.6418-2.8829-0.89837-5.1733-0.78736-5.9178 0.30348s-0.54005 2.4211 0.60696 4.097z" fill="url(#n)" fill-rule="evenodd" stroke="#a00"/>
  <path transform="matrix(1.0001 0 0 .94383 374.87 392.67)" d="m169.96 102.15c0 37.906-22.508 49.446-51.648 50.128-32.701 0.75657-55.219-12.223-55.219-50.128s23.938-68.67 53.433-68.67 53.433 30.764 53.433 68.67z" fill="url(#m)"/>
  <path transform="matrix(-.57435 -.58819 .73954 -.68331 469.27 664.87)" d="m160.94 131.33c0 22.27-20.189 40.343-45.064 40.343s-45.064-18.074-45.064-40.343c14.982-17.395 27.527-28.366 45.064-40.343 24.876 0 45.064 18.074 45.064 40.343z" fill="#fff" stroke="#000" stroke-width=".4"/>
  <g transform="matrix(.39614 0 0 .43009 298.41 281.39)">
   <g transform="matrix(-1 0 0 1 601.73 469.95)" fill-rule="evenodd" stroke="#000">
    <path d="m118.64 14.101c-24.71 19.864-89.086 65.37-97.479 80.079 2.8332 6.2893 6.2594 8.3714 9.355 7.484 0.47618-2.7585 0.77478-6.0424 0.7484-10.478 11.012-15.1 74.668-60.105 89.434-73.717 0.7331-1.2637 0.38708-3.2119-2.0581-3.3678z" fill="url(#q)"/>
    <path d="m109.89 20.156c2.4014 1.0155 3.1256 2.4503 2.5967 4.324-0.57238 0.56076-1.5291 1.3697-2.4323 2.3227 7.133 6.3667 9.9246 11.973 10.258 17.742 6.6842 1.6015 20.493-7.4947 21.704-14.407-6.8599-4.3321-10.89-10.394-12.349-16.652-1.2729-3.4328-0.68094-5.6615-4.8646-6.5485-3.8562 3.7437-15.908 13.57-14.913 13.218z" fill="url(#l)" stroke-linejoin="round"/>
   </g>
   <g transform="translate(454.7 469.68)" fill-rule="evenodd" stroke="#000">
    <path d="m118.64 14.101c-24.71 19.864-89.086 65.37-97.479 80.079 2.8332 6.2893 6.2594 8.3714 9.355 7.484 0.47618-2.7585 0.77478-6.0424 0.7484-10.478 11.012-15.1 74.668-60.105 89.434-73.717 0.7331-1.2637 0.38708-3.2119-2.0581-3.3678z" fill="url(#p)"/>
    <path d="m110.02 20.222c2.4014 1.0155 2.9933 2.3841 2.4644 4.2579-0.57238 0.56076-1.5291 1.3697-2.4323 2.3227 7.133 6.3667 9.9246 11.973 10.258 17.742 6.6842 1.6015 20.493-7.4947 21.704-14.407-6.8599-4.3321-10.89-10.394-12.349-16.652-1.2729-3.4328-0.68094-5.6615-4.8646-6.5485-3.8562 3.7437-15.842 13.52-14.781 13.284z" fill="url(#k)" stroke-linejoin="round"/>
   </g>
   <path transform="translate(454.97 469.42)" d="m93.932 48.524a22.755 23.549 0 1 1 -45.511 0 22.755 23.549 0 1 1 45.511 0z" fill="#030303"/>
   <g transform="matrix(.131 0 0 .13722 478.15 459.25)" fill="#095000" stroke="#000" stroke-width="2.9095">
    <g fill="#095000" stroke="#000" stroke-width="2.9095">
     <path d="m133.17 548.56s-7.6795-8.6527-18.098-11.891-11.408 2.0195-23.444 0.11895c-11.576-1.8279-13.244-4.4934-24.033-13.573-10.58-8.9032-12.75-13.28-21.933-20.406s-7.1599-6.172-14.332-9.2759-14.357-3.1398-14.357-3.1398 13.864-0.1668 28.367 1.0857 16.419 0.19998 29.645 3.9242 13.506 3.0175 23.261 10.973 14.521 19.425 18.688 25.582 13.588 11.16 12.922 10.567c3.5147 7.8058 3.3146 6.0348 3.3146 6.0348z" fill-rule="evenodd"/>
     <path d="m252.8 193.57c-89.663 41.305-152.44 128.67-152.44 233.79 0 110.4 78.495 222.53 161.97 242.25 24.38 3.8736 102.87-4.0077 114.78 1.1287 28.334 12.806 63.122 73.508 63.122 73.508l5.1128-3.2276s-37.965-62.672-67.286-75.872c-10.754-5.701-84.309 2.3048-111.98-1.3936-78.191-14.095-159.58-129.37-159.58-236.4 0-70.35 28.525-134.04 74.643-180.15 21.247-21.247 46.63-39.256 74.274-51.964-0.96684-1.7731-1.817 0.19387-2.6065-1.671z" stroke-linecap="round" stroke-linejoin="round"/>
     <path d="m201.26 631.05s-5.9516-12.234-3.9677-25.129 8.7565-11.695 13.226-25.79c4.2984-13.556 2.0753-16.556-2.6451-32.403-4.629-15.54-8.5967-19.839-11.903-33.064s-3.3064-10.581-2.9758-19.839 4.2984-17.193 4.2984-17.193-7.9354 15.21-14.548 31.742-8.9274 18.185-11.903 34.387-3.9677 16.202 0 30.419 14.879 24.468 19.839 31.742 5.6209 19.839 5.2903 18.847c7.2741 7.2742 5.2903 6.2822 5.2903 6.2822z" fill-rule="evenodd"/>
     <path d="m134.86 546.25s-1.0691-11.529 4.2807-21.306 10.309-6.8664 17.961-16.892c7.3598-9.6422 6.4985-12.688 7.4582-26.762 0.94105-13.801-0.90658-18.392 0.39094-29.955s0.51931-9.4412 3.5024-16.775 8.4299-12.561 8.4299-12.561-10.699 9.9229-20.75 21.287-12.353 12.026-19.453 24.171-7.8787 11.86-8.9493 24.41 4.4724 23.913 6.2225 31.176-1.4276 17.536-1.3951 16.645c3.5656 7.929 2.3014 6.5625 2.3014 6.5625z" fill-rule="evenodd"/>
     <path d="m104.72 434.63s3.116-9.2546 10.931-14.767 10.905-1.4248 20.709-6.2682c9.4297-4.6582 9.7745-7.3196 15.451-17.772 5.5663-10.25 5.6314-14.466 10.716-22.864s3.7049-7.0581 8.7155-11.578 11.327-6.5005 11.327-6.5005-12.288 3.6269-24.54 8.6032-14.384 4.6246-24.468 11.302-10.628 6.1679-15.867 15.408-4.5992 20.038-5.6723 26.271-7.2642 12.937-6.9282 12.264c0.19678 7.4219-0.37431 5.9002-0.37431 5.9002z" fill-rule="evenodd"/>
     <path d="m121.9 336.63s7.136-10.4 15.425-13.342 10.029 1.3949 19.92-0.47776c9.5131-1.801 10.472-4.0534 18.075-11.851 7.4556-7.6462 8.5476-11.331 15.121-17.468s5.0202-5.2963 10.577-8.0477 11.649-2.9578 11.649-2.9578-11.797 0.20252-23.893 1.5982-13.903 0.56963-24.492 3.9844-10.947 2.8354-17.865 9.6748-8.9984 16.472-11.48 21.682-9.6218 9.5926-9.1586 9.084c-1.6462 6.5621-3.8794 8.1208-3.8794 8.1208z" fill-rule="evenodd"/>
     <path d="m165.27 261.79s6.9375-4.3629 15.728-4.7122 9.2187 3.2637 19.24 4.0659c9.6381 0.77155 11.202-0.69122 20.724-4.8046 9.3373-4.0336 11.439-6.5323 19.499-9.6393s6.3296-2.826 12.445-3.6396 12.017 0.38508 12.017 0.38508-11.371-2.4677-23.37-4.1142-13.495-2.6619-24.627-2.4718-11.309-0.32033-19.9 3.2324-13.342 10.257-17.213 13.583-11.972 5.0009-11.382 4.7253c-3.4561 4.5165-3.1624 3.3902-3.1624 3.3902z" fill-rule="evenodd"/>
     <path d="m224.01 211.96s7.6175-3.0228 16.324-1.761 8.4678 4.8921 18.174 7.5107c9.3352 2.5185 11.14 1.3659 21.253-0.93969 9.9168-2.2609 12.439-4.3338 20.931-5.9169s6.7392-1.6227 12.901-1.3059 11.745 2.5729 11.745 2.5729-10.729-4.5025-22.226-8.3123-12.782-5.0813-23.762-6.9269-11.061-2.38-20.155-0.45552-14.991 7.6487-19.403 10.211-12.683 2.7308-12.053 2.5676c-4.2227 3.8095-3.7283 2.7557-3.7283 2.7557z" fill-rule="evenodd"/>
     <path d="m190.32 622.93s-11.877-6.5981-24.863-5.367-12.172 8.0138-26.497 11.64c-13.778 3.488-16.646 1.113-32.2-4.4708-15.253-5.4756-19.319-9.6543-32.336-13.687s-10.376-3.8815-19.638-4.0818-17.409 3.2805-17.409 3.2805 15.634-6.9994 32.514-12.612 18.661-7.813 35.005-9.8389 16.4-3.0093 30.37 1.7353 23.585 16.146 30.566 21.478 19.488 6.7042 18.516 6.3198c6.8503 7.6264 5.9723 5.603 5.9723 5.603z" fill-rule="evenodd"/>
     <path d="m104.77 447.07s-3.5369-8.866-10.077-13.558-8.3006-0.33463-16.233-4.1668c-7.6289-3.6856-8.2359-6.2898-13.835-16.09-5.491-9.6104-6.0946-13.783-10.983-21.605s-3.6858-6.6305-8.0088-10.615-9.283-5.3244-9.283-5.3244 9.6194 2.3809 19.39 6.103 11.31 3.1627 19.692 8.7854 8.7193 5.0638 13.834 13.706 6.0604 19.409 7.6796 25.481 7.108 12.106 6.7695 11.473c0.83097 7.3767 1.0555 5.8118 1.0555 5.8118z" fill-rule="evenodd"/>
     <path d="m115.23 341.95s-1.1882-8.3415-6.4233-13.493-8.1036-1.605-14.936-6.2219c-6.5708-4.4405-6.4937-6.8223-9.4746-16.31-2.9231-9.3036-2.4354-13.062-5.2286-20.701s-1.9156-6.4026-5.1466-10.584-7.7776-6.1403-7.7776-6.1403 8.8736 3.6096 17.548 8.4203 10.339 4.563 17.15 10.823 7.289 5.8224 10.092 14.216 0.94114 17.995 0.96232 23.581 5.9704 13.616 5.8008 13.007c-1.0952 6.6067-2.567 3.4021-2.567 3.4021z" fill-rule="evenodd"/>
     <path d="m149.28 279.41s3.766-9.3965 2.8362-17.212-4.557-7.6075-6.8015-16.322c-2.1587-8.3816-0.94199-9.9992 1.7365-19.07 2.6266-8.895 4.7876-11.155 6.685-18.772s1.8709-6.0446 1.7872-11.574-2.1222-10.544-2.1222-10.544 4.0836 9.6361 7.4479 19.96 4.5832 11.48 6.0094 21.335 1.9557 9.9298-0.30466 18.088-8.1874 13.438-10.908 17.394-3.1991 11.377-3.0127 10.812c-3.9558 3.7825-3.3534 5.907-3.3534 5.907z" fill-rule="evenodd"/>
     <path d="m251.81 194.28s7.6982-3.3762 13.487-8.5707 3.9045-6.0785 9.7054-12.891c5.5791-6.5517 7.5403-6.4366 16.294-9.2917 8.5838-2.7998 11.573-2.2495 18.734-4.9444s5.8797-1.8299 10.286-5.0202 7.34-7.741 7.34-7.741-5.5467 8.8851-12.037 17.551-6.7603 10.347-13.923 17.112-6.9354 7.2536-14.727 9.9469-15.253 0.99635-19.91 0.93018-13.366 5.1186-13.388 3.8849c-1.2072-0.59473-1.8609-0.96593-1.8609-0.96593z" fill-rule="evenodd"/>
     <path d="m202.16 225.41s6.7566-7.1258 8.8766-14.609-1.2557-8.8355 0.01053-17.693c1.2179-8.5187 2.9374-9.4688 8.8131-16.557 5.7619-6.9513 8.5833-8.0827 13.198-14.185s3.9937-4.6872 6.0154-9.7378 2.0714-10.465 2.0714-10.465 0.05578 10.474-0.80308 21.266-0.18947 12.358-2.6323 21.903-1.9896 9.8365-7.139 16.275-12.54 8.7095-16.513 11.141-7.2238 8.959-6.84 8.5256c-5.0304 1.7499-5.0577 4.1363-5.0577 4.1363z" fill-rule="evenodd"/>
     <path d="m600.56 550.56s7.9279-8.6527 18.684-11.891 11.777 2.0195 24.202 0.11895c11.951-1.8279 13.672-4.4934 24.81-13.573 10.922-8.9032 13.162-13.28 22.642-20.406s7.3915-6.172 14.796-9.2759 14.822-3.1398 14.822-3.1398-14.312-0.1668-29.285 1.0857-16.95 0.19998-30.604 3.9242-13.942 3.0175-24.013 10.973-14.991 19.425-19.292 25.582-14.027 11.16-13.34 10.567c-3.6284 7.8059-3.4219 6.0348-3.4219 6.0348z" fill-rule="evenodd"/>
     <path d="m477.07 195.57c92.563 41.305 157.37 128.67 157.37 233.79 0 110.4-79.573 219.12-171.08 242.94-34.708 6.1761-116.32-7.712-134.55-3.0488-32.517 9.4354-64.173 40.348-82.9 59.397-1.7958-1.9378-3.4848 0.43719-4.9989-6.6779 0 0 48.971-48.558 82.482-57.845s85.374 7.729 139.97 1.6366c86.43-25.519 164.75-129.37 164.75-236.4 0-70.35-29.448-134.04-77.057-180.15-21.934-21.247-48.139-39.256-76.676-51.964 0.99811-1.7731 1.8758 0.19388 2.6908-1.671z" stroke-linecap="round" stroke-linejoin="round"/>
     <path d="m530.27 633.05s6.1441-12.234 4.096-25.129-9.0397-11.695-13.653-25.79c-4.4374-13.556-2.1425-16.556 2.7307-32.403 4.7787-15.54 8.8748-19.839 12.288-33.064s3.4134-10.581 3.072-19.839-4.4374-17.193-4.4374-17.193 8.1921 15.21 15.019 31.742 9.2161 18.185 12.288 34.387 4.096 16.202 0 30.419-15.36 24.468-20.48 31.742-5.8028 19.839-5.4614 18.847c-7.5094 7.2742-5.4614 6.2822-5.4614 6.2822z" fill-rule="evenodd"/>
     <path d="m598.82 548.25s1.1037-11.529-4.4192-21.306-10.643-6.8664-18.542-16.892c-7.5979-9.6422-6.7087-12.688-7.6994-26.762-0.97149-13.801 0.9359-18.392-0.40359-29.955s-0.5361-9.4412-3.6156-16.775-8.7025-12.561-8.7025-12.561 11.045 9.9229 21.421 21.287 12.752 12.026 20.082 24.171 8.1335 11.86 9.2388 24.41-4.617 23.913-6.4238 31.176 1.4737 17.536 1.4402 16.645c-3.681 7.929-2.3758 6.5625-2.3758 6.5625z" fill-rule="evenodd"/>
     <path d="m629.94 436.62s-3.2167-9.2546-11.284-14.767-11.258-1.4248-21.379-6.2682c-9.7347-4.6582-10.091-7.3196-15.951-17.772-5.7464-10.25-5.8136-14.466-11.063-22.864s-3.8247-7.0581-8.9974-11.578-11.693-6.5005-11.693-6.5005 12.685 3.6269 25.333 8.6032 14.849 4.6246 25.259 11.302 10.972 6.1679 16.381 15.408 4.7479 20.038 5.8557 26.271 7.4992 12.937 7.1523 12.264c-0.20314 7.4219 0.38642 5.9002 0.38642 5.9002z" fill-rule="evenodd"/>
     <path d="m612.2 338.63s-7.3668-10.4-15.924-13.342-10.354 1.3948-20.565-0.47776c-9.8208-1.801-10.811-4.0534-18.66-11.851-7.6967-7.6462-8.8241-11.331-15.61-17.468s-5.1826-5.2963-10.919-8.0477-12.026-2.9578-12.026-2.9578 12.178 0.20252 24.666 1.5982 14.352 0.56963 25.284 3.9844 11.301 2.8354 18.442 9.6747 9.2895 16.472 11.851 21.682 9.933 9.5926 9.4548 9.084c1.6994 6.5621 4.0049 8.1208 4.0049 8.1208z" fill-rule="evenodd"/>
     <path d="m567.43 263.79s-7.1618-4.3629-16.237-4.7122-9.5168 3.2637-19.862 4.0659c-9.9498 0.77155-11.564-0.69122-21.394-4.8046-9.6393-4.0336-11.809-6.5323-20.129-9.6393s-6.5343-2.826-12.848-3.6396-12.406 0.38507-12.406 0.38507 11.739-2.4677 24.126-4.1141 13.932-2.6619 25.423-2.4718 11.675-0.32033 20.543 3.2324 13.774 10.257 17.769 13.583 12.359 5.0009 11.75 4.7253c3.5679 4.5165 3.2647 3.3902 3.2647 3.3902z" fill-rule="evenodd"/>
     <path d="m506.79 213.96s-7.8639-3.0228-16.852-1.761-8.7416 4.8921-18.762 7.5107c-9.6371 2.5184-11.5 1.3659-21.94-0.93969-10.238-2.2609-12.842-4.3338-21.608-5.9169s-6.9571-1.6227-13.318-1.3059-12.125 2.5729-12.125 2.5729 11.076-4.5025 22.945-8.3123 13.196-5.0813 24.53-6.9269 11.418-2.38 20.807-0.45552 15.476 7.6486 20.031 10.211 13.094 2.7308 12.443 2.5676c4.3592 3.8095 3.8489 2.7557 3.8489 2.7557z" fill-rule="evenodd"/>
     <path d="m541.57 624.93s12.261-6.5981 25.667-5.367 12.566 8.0138 27.354 11.64c14.223 3.488 17.185 1.113 33.242-4.4708 15.746-5.4756 19.944-9.6543 33.382-13.687s10.712-3.8815 20.273-4.0818 17.972 3.2805 17.972 3.2805-16.14-6.9994-33.566-12.612-19.265-7.813-36.137-9.8389-16.93-3.0093-31.352 1.7353-24.348 16.146-31.555 21.478-20.118 6.7042-19.115 6.3198c-7.0718 7.6264-6.1655 5.603-6.1655 5.603z" fill-rule="evenodd"/>
     <path d="m629.89 449.06s3.6513-8.866 10.403-13.558 8.569-0.33463 16.758-4.1668c7.8757-3.6856 8.5023-6.2898 14.283-16.09 5.6686-9.6104 6.2917-13.783 11.339-21.605s3.805-6.6305 8.2678-10.615 9.5833-5.3244 9.5833-5.3244-9.9305 2.3809-20.017 6.103-11.676 3.1627-20.329 8.7854-9.0013 5.0638-14.281 13.706-6.2564 19.409-7.928 25.481-7.3379 12.106-6.9884 11.473c-0.85784 7.3767-1.0896 5.8118-1.0896 5.8118z" fill-rule="evenodd"/>
     <path d="m619.08 343.95s1.2267-8.3415 6.6311-13.493 8.3657-1.605 15.419-6.2219c6.7834-4.4405 6.7038-6.8223 9.781-16.31 3.0177-9.3036 2.5142-13.062 5.3977-20.701s1.9775-6.4026 5.313-10.584 8.0291-6.1403 8.0291-6.1403-9.1606 3.6096-18.116 8.4203-10.674 4.563-17.705 10.823-7.5247 5.8224-10.419 14.216-0.97157 17.995-0.99343 23.581-6.1635 13.616-5.9884 13.007c1.1306 6.6067 2.6501 3.4021 2.6501 3.4021z" fill-rule="evenodd"/>
     <path d="m583.93 281.41s-3.8878-9.3965-2.9279-17.212 4.7044-7.6075 7.0215-16.322c2.2285-8.3816 0.97245-9.9991-1.7927-19.07-2.7115-8.895-4.9424-11.155-6.9012-18.772s-1.9315-6.0446-1.845-11.574 2.1909-10.544 2.1909-10.544-4.2157 9.6361-7.6888 19.96-4.7315 11.48-6.2038 21.335-2.019 9.9298 0.31452 18.088 8.4522 13.438 11.26 17.394 3.3026 11.377 3.1102 10.812c4.0837 3.7824 3.4619 5.907 3.4619 5.907z" fill-rule="evenodd"/>
     <path d="m478.09 196.28s-7.9472-3.3762-13.923-8.5707-4.0308-6.0785-10.019-12.891c-5.7596-6.5517-7.7842-6.4366-16.821-9.2917-8.8614-2.7998-11.948-2.2495-19.34-4.9444s-6.0699-1.8299-10.619-5.0202-7.5774-7.741-7.5774-7.741 5.7261 8.8851 12.426 17.551 6.979 10.347 14.373 17.112 7.1598 7.2536 15.204 9.9469 15.746 0.99635 20.554 0.93018 13.799 5.1186 13.821 3.8849c1.2462-0.59472 1.9211-0.96592 1.9211-0.96592z" fill-rule="evenodd"/>
     <path d="m529.35 227.4s-6.9751-7.1258-9.1637-14.609 1.2963-8.8355-0.01088-17.693c-1.2572-8.5187-3.0324-9.4688-9.0981-16.557-5.9482-6.9513-8.8609-8.0827-13.625-14.185s-4.1228-4.6872-6.2099-9.7378-2.1384-10.465-2.1384-10.465-0.05758 10.474 0.82905 21.266 0.1956 12.358 2.7175 21.903 2.054 9.8365 7.3699 16.275 12.945 8.7095 17.047 11.141 7.4575 8.959 7.0612 8.5256c5.193 1.7499 5.2213 4.1363 5.2213 4.1363z" fill-rule="evenodd"/>
    </g>
   </g>
   <path d="m531.35 497.57 2.1049 2.3387-18.149 17.634 2.0113 2.1049-11.6 5.0517 5.0049-12.115 2.1984 2.5726 18.429-17.587z" fill="#d70000" fill-rule="evenodd"/>
   <path d="m542.99 510.15 2.1049 2.3387-18.149 17.634 2.0113 2.1049-11.6 5.0517 5.0049-12.115 2.1984 2.5726 18.429-17.587z" fill="#d70000" fill-rule="evenodd"/>
   <path d="m537.89 502.53 2.0113 2.0113-19.599 19.645 2.0113 2.1049-11.6 5.0517 5.0049-12.115 2.1984 2.5726 19.973-19.271z" fill="#d70000" fill-rule="evenodd"/>
  </g>
  <g transform="translate(-8.9286 11.071)" fill-rule="evenodd">
   <g transform="translate(9.1964 -9.9107)">
    <path transform="translate(392.1 387.24)" d="m49.497 127.47c-6.6564-7.2195 24.901 7.7723 50.508 8.3338 34.636-0.71978 54.499-16.617 48.487-8.5863 0.89607 15.583 0.36937 18.736 1.3875 28.191-9.8889-0.26772-33.892-0.20602-39.536-2.2495-6.3933 2.4604-9.7249 2.9297-16.526 0.02095-17.062 1.6371-21.864 2.9166-37.612 5.0178-0.94947-7.0734-2.0893-15.376-6.7087-30.728z" fill="#203c0e"/>
    <path transform="translate(392.1 387.24)" d="m89.64286,145.33058c-.31721-.09549-.78618-.78038-1.07143-1.16071-.32698-.43597-.39136-.84528-.26786-1.33929 .1366-.5464.75966-.36812 1.16071-.26785 .48438.12109.81404.35714 1.33929.35714 .65834,0 .71864.07186.89286-.625 .11147-.44589.07368-.91974.17857-1.33929 .14412-.57649.24438-.80357.89286-.80357 .48215,0 .94893.3992 1.25.625 .41301.30976-.23834,1.10168-.35714,1.33929-.21456.42912.08702,1.06917.35714,1.33928s.86213.17858 1.25.17858c.46254,0 1.078-.1579 1.51786-.26786 .65056-.16264.79961-.0972 1.07143.44643 .19911.39822.17857.88562.17857,1.33928 0,.55857-.66377.79094-1.07143.89286-.47953.11988-.88721-.00282-1.25.17857-.45513.22757.37478,1.17835.53571,1.33929 .40073.40073.86239.44643 1.42857.44643 .5178,0 .95977-.23995 1.42857-.35715 .48171-.12042.86112-.32688 1.33929-.44643s1.22989.48794 1.60714.71429c.46703.28021.71429.84351.71429,1.33929 0,.65793-.06583.77532.35714,1.33928 .41405.55207 1.0399-.05776 1.33929-.35714 .33807-.33807.42633-.94196.625-1.33929 .2178-.43562.91629-.35714 1.33928-.35714 .4429,0 .75552.97532.89286,1.25 .19368.38737.08928.99796.08928,1.42857 0,.62268-.55535,1.425-.89285,1.875-.36696.48928-.75215.80357-1.33929.80357-.54637,0-.94748-.39707-1.07143-.89285s-.07903-.87236-.26785-1.25c-.18167-.36333-1.3089.53524-1.42858.625-.45635.34226-.80057.66889-1.33928.80357-.62153.15538-.96418-.05336-1.25-.625-.19836-.39672-.10189-1.11029 0-1.51786 .14974-.59898.26298-.80845-.17857-1.25-.34666-.34666-1.11444-.27943-1.51786-.17857-.50288.12572-.71223.88874-.89286,1.25-.2705.54101-1.18445.00452-1.42857-.17857-.395-.29625-.35714-.78449-.35714-1.25 0-.51025.03152-.91911-.17857-1.33929-.2609-.5218-.71895-.53571-1.25-.53571-.61223,0-.90863.37291-1.33929.80357-.54887.54887-.72757-.32101-.80357-.625-.11338-.45353.26786-.87154.26786-1.33929 0-.58368-.23279-.83944-.80357-.98214-.53947-.13487-1.12597-.08929-1.69643-.08929z" fill="#3c761a"/>
    <path d="m516.15703,529.68691c-.08982-.27253-.54836-.81839-.93161-1.21156-.4006-.41098-.91685.0209-1.26743.36264-.47267.46074-.26396.89226-.27189,1.51188-.0071.55573-.41819.93664-.89672.99876s-.72823-.90557-.86929-1.14762c-.33728-.57878-.58201-.5757-1.19219-.5835-.58533-.00748-.46785.96056-.33098,1.19543 .29075.49892.63938.91176 1.05625,1.33943s.3037,1.00102-.1424,1.26097c-.42858.24976-.94243-.45519-1.19057-.70975-.35776-.36702-.67425-.59452-1.06272-.8344-.47846-.29546-.65788-.60558-1.13471-.14079-.34612.33739-.06345,1.24567.04296,1.57905 .15016.47045.19165,1.06008.23476,1.39207 .1079.83109-.35937.78255-.82472.30516-.35365-.36282-.47183-.82165-.61515-1.27067-.16898-.52939-.21122-.92436-.36103-1.39368-.20159-.63159-.85621-.48117-1.32167-.33259-.58936.18811-.91752.04328-1.27066.61515-.2127.34443.00797.85261-.20472,1.19704-.01341.02172-1.55107-.44065-1.69885-.46369-.57892-.09027-.36134-.69253-1.01491.36586-.31196.50517-.21843,1.23019-.14885,1.76601 .04105.31614 1.33489.22622 1.63813.2735 .62339.0972.67834.86538.61516,1.27065-.04549.29173-1.10648.54454-1.3346.67749-.51429.29969-.27258.98442-.144,1.38722 .31972,1.0017.45614.17879.88703-.24122 .41795-.4074 1.13059-.36589 1.58227-.29547 .75702.11805.60739-.62965 1.02137-.8709 .32981-.1922.88305.77802 1.06109.96067 .67212.68952 1.29567.0862 1.64782-.48406 .48659-.78798.68352.50781 1.24644,1.27872 .03169.0434.39772-.60985.95583-.68231 .54908-.0713.97249.72258 1.18573,1.08853 .14965.25679.77106,1.62776.49535.764-.20335-.63709-.13578-1.33139-.03811-1.95782 .09015-.57819.80751-1.16117 1.21964-1.56289 .49307-.48062.63406-.6265.01291-1.01008-.76123-.47007-1.71183.55194-1.69885-.46369 .00606-.47396 1.45863-.45948 1.64783-.48405 .61717-.08013.95234-.17544 1.26258.01614 .42957.26527.85607-.31471 1.08207-.6807 .11711-.18963-.33779-1.19497-.29708-1.45602 .09181-.58881 1.17916-.05513 1.38885.01776 .52138.18123 1.00638,1.25386 1.2416,1.6575 .16715.28682.93142-.85535.95905-.93484 .20962-.60303.28279-.762-.04619-1.32652-.19953-.3424-.79753-.69028-.93644-.83279-.29158-.29913.69563-.54187.83279-.93644 .08337-.23988-1.01763-.73418-1.12665-.77208-.33448-.11626-.55792-.15353-.94452-.2015z" fill="#2a5312"/>
    <path d="m471.38368,524.44756c-.25785-.12591-.9688-.17857-1.51786-.17857-.57392,0-.625.67113-.625,1.16072 0,.66007.45469.81182.89286,1.25 .39299.39299.37881.95325.08928,1.33928s-1.15678-.11062-1.42857-.17857c-.64988-.16247-.8185.01493-1.25.44643-.41392.41392.36128,1.0055.625,1.07143 .56022.14005 1.0992.17857 1.69643.17857s.9288.48124.80357.98214c-.12031.48124-.98379.35714-1.33928.35714-.51254,0-.89636.06784-1.33929.17858-.54555.13638-.89286.0484-.89286.71428 0,.48335.84772.91493 1.16072,1.07143 .4417.22085.89289.60271 1.16071.80357 .67045.50284.30953.80357-.35714.80357-.50666,0-.91772-.23564-1.33929-.44643-.49704-.24852-.80936-.49396-1.25-.71428-.59299-.2965-.9422.27726-1.16071.71428-.27667.55334-.60944.68723-.44643,1.33929 .09818.39272.61611.58942.71429.98214 .00619.02476-1.39821.80312-1.51786.89286-.46873.35155-.74813-.22464-.44643.98214 .144.57601.72846,1.0151 1.16072,1.33929 .25503.19127 1.09376-.798 1.33928-.98214 .50474-.37856 1.09318.11829 1.33929.44642 .17715.2362-.3824,1.17243-.44643,1.42858-.14437.57747.51467.88233.89286,1.07142 .94047.47024.44642-.20185.44642-.80357 0-.58366.52716-1.065.89286-1.33928 .61294-.4597-.02692-.87445.08929-1.33929 .09258-.37033 1.17351-.08928 1.42857-.08928 .96291,0 .96612-.86764.80357-1.51786-.22462-.89846.84074-.135 1.78571,0 .05319.0076-.1591-.71048.17858-1.16072 .33221-.44295 1.19624-.19201 1.60714-.08928 .28834.07208 1.70382.58405.89285.17857-.59815-.29908-1.04817-.83209-1.42857-1.33929-.35111-.46814-.26785-1.38876-.26785-1.96428 0-.68856-.00605-.89135-.71429-.71429-.86796.21699-.79964,1.61107-1.51786.89286-.33517-.33517.68911-1.36523.80358-1.51786 .37341-.49788.53912-.80442.89285-.89285 .4898-.12245.37219-.83269.26786-1.25-.05405-.21622-1.09148-.59221-1.25-.80358-.35756-.47674.78358-.88286.98214-.98214 .49371-.24685 1.60034.15455 2.05357.26786 .32206.08051.03764-1.26402 0-1.33929-.28551-.57103-.34827-.73439-.98214-.89285-.38447-.09612-1.05099.08928-1.25.08928-.41773,0 .09753-.87637-.08928-1.25-.11358-.22714-1.23605.21624-1.33929.26786-.31672.15836-.49937.29235-.80357.53571z" fill="#2a5312"/>
    <path d="m514.89866,526.57685c-.09687.2701-.07124.98254-.01103,1.52829 .06294.57045.73563.54762 1.22226.49393 .65609-.07239.75706-.54098 1.14454-1.02456 .34752-.43372.90596-.48107 1.32141-.23562s.01691,1.16194-.02082,1.43954c-.09022.66378.10461.81192.58082,1.1935 .45682.36603.95982-.46937.99643-.73873 .07777-.5722.05694-1.11216-.00855-1.70579s.37647-.97597.88808-.90643c.49154.06681.46288.93869.50187,1.29204 .05621.50944.16573.88351.32438,1.31162 .19539.5273.14603.88217.80789.80914 .48043-.05301.81644-.94294.93767-1.27122 .17108-.46326.50115-.9536.67143-1.24184 .42628-.72155.76478-.39578.83789.26686 .05557.50361-.13357.93803-.29686,1.38018-.19251.52129-.40222.85865-.57288,1.32079-.22968.62193.37892.90611.83726,1.07537 .58035.21432.74993.5304 1.38018.29686 .37958-.14065.51829-.67703.89788-.81769 .02393-.00887.95161,1.3017 1.05393,1.41079 .40084.42734-.14124.76825 1.02518.33602 .55674-.2063.92909-.83539 1.20391-1.30059 .16215-.27447-.91313-.99965-1.12309-1.2235-.43163-.46018-.00231-1.09956.29685-1.38017 .21535-.20198 1.20729.25152 1.46892.28707 .58982.08017.82057-.60833.96704-1.00498 .36426-.98636-.24959-.42159-.84768-.3556-.58014.06401-1.11639-.40718-1.42912-.74059-.52415-.55883-.86623.12265-1.34101.05812-.37825-.0514-.21744-1.15664-.24541-1.41016-.1056-.9571-.96836-.86514-1.59683-.63226-.86841.3218-.22639-.82086-.19584-1.77494 .00172-.0537-.68874.23606-1.1733-.0502-.47671-.28163-.32204-1.16797-.265-1.58766 .04003-.29451.39368-1.75759.07958-.90705-.23168.62734-.71212,1.1331-1.17454,1.56683-.42681.40034-1.35101.41854-1.92306.48166-.68441.07551-.88531.10377-.63164.78832 .31086.83892 1.68904.61813 1.05393,1.41078-.29639.36991-1.43257-.53523-1.59683-.63227-.53583-.31655-.85869-.44765-.98538-.78955-.17543-.47341-.86849-.27862-1.27184-.12915-.20899.07743-.46894,1.14984-.66165,1.33059-.43465.40768-.96346-.68204-1.08392-.86851-.29951-.46366-.02189-1.60764.04103-2.07056 .0447-.32895-1.26052.10121-1.33121.14688-.53628.34641-.69177.42671-.77976,1.07413-.05337.3927.20401,1.03486.22583,1.23267 .04581.41521-.88178-.00083-1.23267.22583-.21331.13781.35049,1.20488.41313,1.30184 .19213.29744.34535.46429.6206.73997z" fill="#2a5312"/>
    <path d="m496.74081,525.07256c-.25785-.12591-.9688-.17857-1.51786-.17857-.57392,0-.625.67113-.625,1.16072 0,.66007.45469.81182.89286,1.25 .39299.39299.37881.95325.08928,1.33928s-1.15678-.11062-1.42857-.17857c-.64988-.16247-.8185.01493-1.25.44643-.41392.41392.36128,1.0055.625,1.07143 .56022.14005 1.0992.17857 1.69643.17857s.9288.48124.80357.98214c-.12031.48124-.98379.35714-1.33928.35714-.51254,0-.89636.06784-1.33929.17858-.54555.13638-.89286.0484-.89286.71428 0,.48335.84772.91493 1.16072,1.07143 .4417.22085.89289.60271 1.16071.80357 .67045.50284.30953.80357-.35714.80357-.50666,0-.91772-.23564-1.33929-.44643-.49704-.24852-.80936-.49396-1.25-.71428-.59299-.2965-.9422.27726-1.16071.71428-.27667.55334-.60944.68723-.44643,1.33929 .09818.39272.61611.58942.71429.98214 .00619.02476-1.39821.80312-1.51786.89286-.46873.35155-.74813-.22464-.44643.98214 .144.57601.72846,1.0151 1.16072,1.33929 .25503.19127 1.09376-.798 1.33928-.98214 .50474-.37856 1.09318.11829 1.33929.44642 .17715.2362-.3824,1.17243-.44643,1.42858-.14437.57747.51467.88233.89286,1.07142 .94047.47024.44642-.20185.44642-.80357 0-.58366.52716-1.065.89286-1.33928 .61294-.4597-.02692-.87445.08929-1.33929 .09258-.37033 1.17351-.08928 1.42857-.08928 .96291,0 .96612-.86764.80357-1.51786-.22462-.89846.84074-.135 1.78571,0 .05319.0076-.1591-.71048.17858-1.16072 .33221-.44295 1.19624-.19201 1.60714-.08928 .28834.07208 1.70382.58405.89285.17857-.59815-.29908-1.04817-.83209-1.42857-1.33929-.35111-.46814-.26785-1.38876-.26785-1.96428 0-.68856-.00605-.89135-.71429-.71429-.86796.21699-.79964,1.61107-1.51786.89286-.33517-.33517.68911-1.36523.80358-1.51786 .37341-.49788.53912-.80442.89285-.89285 .4898-.12245.37219-.83269.26786-1.25-.05405-.21622-1.09148-.59221-1.25-.80358-.35756-.47674.78358-.88286.98214-.98214 .49371-.24685 1.60034.15455 2.05357.26786 .32206.08051.03764-1.26402 0-1.33929-.28551-.57103-.34827-.73439-.98214-.89285-.38447-.09612-1.05099.08928-1.25.08928-.41773,0 .09753-.87637-.08928-1.25-.11358-.22714-1.23605.21624-1.33929.26786-.31672.15836-.49937.29235-.80357.53571z" fill="#2a5312"/>
    <path d="m513.04374,538.72473c-.28192-.26104-.57863-1.0435-.68982-1.63251-.14156-.7499.03879-.90117.71038-1.24264 .3699-.18807.95395-.20607 1.39617-.20905 .47432-.0032 1.11603-.48144 1.39214-.80799 .32019-.37869.18798-1.02577.1101-1.43824-.13345-.7069-.38668-.98485.02998-1.47764 .30516-.3609 1.0896-.45926 1.43557-.28919 .42668.20976.6203.60343 1.08372.83125 .53692.26396 1.0053.03806 1.43556-.28918 .3906-.29709.68548-1.39435.906-1.84291 .25368-.51604.41491-.76708.83123-1.08373 .54923-.41772.94782.40633 1.12313.75112 .28659.56367.18696,1.08664.29052,1.6352 .1276.67588.2535.95663.92482.95211 .65458-.0044.92011-.35034 1.27261-.76725 .34297-.40562.27113-1.3694.30707-1.83888 .05247-.68548-.39399-1.2881.51342-.84201 .66986.32931 1.2599.52648 1.80353.98613 .55225.46694.41846,1.24655.29186,1.83485-.14719.68413-.6165,1.02074-1.06893,1.36484-.55999.42591-1.35706.08652-1.3514.92751 .00353.52347.68017,1.03082 1.08642,1.23053 .3787.18618.8226.30491 1.24129.51074 .95557.46977-.34041.91971-.87198.96421-.6261.0524-1.24791-.31501-1.80084-.58683-.5241-.25766-.96152-.47271-1.3241-.94942-.27322-.35924-.7646-.57487-1.20324-.79051-.66558-.32721-.63239.96765-.63026,1.28202 .00397.59036.0218,1.06729.24978,1.51568 .27243.5358-1.23833.12415-1.51702.05015-.40839-.10843-.87533-.42818-1.16251-.67099-.45212-.38228-.74003-.43426-1.28068-.43062-.6564.00442-.5795.87708-.51074,1.24129 .11099.58793.41057,1.13345.7292,1.55239 .36329.47766.67767.57695-.0734.95883-.51958.26418-1.1784.27807-1.67594.17101-.5713-.12293-.78119-.55142-1.00494-.9915-.26157-.51447-.18864-.75741-.92348-.75246-.54793.00368-.86397.54314-1.07163.96554-.25862.52607-.18516,1.00977-.5555.52285-.15543-.20437-.36598-.94374-.44809-1.3147z" fill="#122308"/>
    <path d="m521.80598,534.13664c-.37521-.08264-1.02687-.60765-1.42064-1.05957-.50135-.57537-.42224-.79708-.01552-1.43127 .22402-.34931.71878-.66018 1.0988-.88637 .40758-.24261.71936-.97971.79244-1.40105 .08473-.48861-.35654-.98001-.63231-1.29648-.47259-.54237-.83161-.65412-.72134-1.28995 .08076-.46566.70778-.94721 1.09226-.97542 .47417-.0348.84028.20691 1.35529.16912 .59669-.04379.88654-.47553 1.09226-.97542 .18674-.45383-.11372-1.54957-.15031-2.04806-.04208-.57348-.02994-.87159.16911-1.35529 .26259-.63812 1.02318-.12875 1.34877.08006 .53228.34136.71079.84292 1.07753,1.26381 .45186.51857.70245.69712 1.27932.35374 .5625-.3348.61664-.76753.70993-1.30546 .09077-.52337-.45857-1.31851-.66497-1.74171-.30137-.61792-.99127-.91204.01716-.98605 .74442-.05463 1.35317-.1829 2.0546-.06125 .71256.12358.99136.86382 1.17964,1.43537 .21897.66465-.0157,1.19237-.23202,1.71802-.26774.65061-1.12701.76088-.69686,1.48355 .26776.44983 1.10806.54536 1.55954.51223 .42086-.03088.86385-.15292 1.32915-.18707 1.06194-.07793.1714.96559-.26469,1.27279-.51365.36181-1.23589.35927-1.85037.40437-.58244.04274-1.06857.07841-1.62243-.14952-.41737-.17175-.95034-.1093-1.43781-.07353-.73967.05428-.05625,1.1546.10455,1.42474 .30196.50731.55852.90975.98195,1.1813 .50596.32449-1.00556.7333-1.28341.8104-.40717.11296-.97169.07323-1.34223.00897-.58336-.10118-.85804-.00042-1.32262.27611-.56406.33575-.05643,1.04972.18706,1.32917 .39306.45109.92737.77023 1.41412.97053 .55495.22837.87639.15506.42153.86432-.31467.49065-.87602.83578-1.35939.99502-.55504.18284-.95279-.08069-1.36837-.34721-.48582-.31157-.54575-.55805-1.17721-.18218-.47085.28025-.47071.90547-.43626,1.3749 .04291.58462.35088.96477-.21485.73198-.23744-.09772-.79297-.62912-1.0514-.90764z" fill="#122308"/>
    <path d="m473.98089,524.93376c.24748-.2939 1.01511-.62712 1.59822-.76592 .74241-.17673.90199-.0037 1.27471.65107 .20528.36063.25077.94318.27457,1.38478 .02553.47364.53347,1.09211.87265,1.35254 .39335.30199 1.03348.13946 1.44184.04225 .69983-.16659.96555-.43263 1.47741-.03964 .37486.28782.51006,1.06676.35646,1.42035-.18943.43609-.57354.64803-.77929,1.12167-.23838.54876.00933,1.00598.35647,1.42035 .31514.37617 1.42508.61905 1.88353.8182 .52741.22911.78576.37833 1.12167.77928 .44312.52895-.36125.9659-.6974,1.15725-.54954.31282-1.07663.23793-1.6197.36721-.66912.15928-.94363.29827-.9075.96863 .03522.65364.39328.90259.82633,1.23507 .42132.32348 1.38065.20633 1.85129.22013 .68719.02013 1.26812-.45422.86525.4732-.2974.68462-.46656,1.2833-.9001,1.84797-.44041.57362-1.22546.47668-1.81906.37794-.69031-.11481-1.04864-.56775-1.41367-1.00348-.45181-.53931-.15033-1.35148-.99012-1.30621-.52272.02817-.99764.72795-1.17801,1.14316-.16813.38704-.26582.83604-.45171,1.26396-.42425.97663-.93473-.29673-1.0042-.82561-.08183-.62293.25589-1.26136.50137-1.82647 .23269-.53565.42691-.98272.88602-1.36734 .34595-.28984.53822-.79083.73297-1.23914 .29549-.68025-.99637-.58611-1.31029-.56918-.58952.03176-1.06508.07203-1.50223.32088-.52238.29735-.18233-1.23111-.12154-1.51298 .08908-.41305.38648-.89452.61551-1.19282 .36055-.46962.39892-.75966.36982-1.29953-.03532-.65547-.90339-.53756-1.26396-.45173-.58205.13856-1.11286.46349-1.51633.80151-.46001.38537-.5444.70408-.96123-.02818-.28834-.50656-.33324-1.16399-.24973-1.66602 .09588-.57646.51401-.80629.94308-1.05052 .50156-.28551.74768-.2241.70813-.95788-.02948-.54715-.58322-.83744-1.01494-1.02498-.53766-.23356-1.01737-.1374-.54842-.53026 .19682-.16488.92545-.41002 1.29213-.50951z" fill="#122308"/>
    <path d="m525.01722,535.34813c-.24963.21777-1.07906.25044-1.55285.28959-.54312.04489-.92393-.11838-1.2765-.4858-.38995-.40638.09251-.83908.3908-1.1253 .36025-.34569.73552-.49921 1.01499-.94394 .35029-.55742.44321-.57023-.05412-1.08852-.31822-.33163-.73954-.55176-1.03896-.8638-.41143-.42876-.55036-.63448-.20532-1.18354 .25654-.40824.84291-.59106 1.19428-.72583 .48203-.18488.80598.78798.94395,1.015 .24917.40999.95157.49519 1.32399.4102 .37406-.08535.60992-.63495.8163-.96336 .2461-.39163.43988-.99675.58081-1.42768 .20844-.63736.34316-.72875.94807-.66964 .44312.04329.84487.32002 1.22898.5614 .47294.2972.31652.98284.18591,1.38224-.15365.4698-.47446.7497-.5139,1.15338-.04949.50645 1.19711.30965 1.41901.25902 .55252-.12608.83684-.49264 1.1381-.97203 .27551-.43843.3075-.94031.4577-1.3996 .15435-.47194.18142-.90303.33461-1.37151s1.06753-.78172 1.45991-.98071c.48575-.24634 1.09425-.15597 1.51403.10782 .55707.35007.62143.46826 1.32399.4102 .68774-.05683.5044-.91121.41021-1.32399-.10636-.46613-.57072-.86217-.80143-1.24179-.25295-.41619.18515-.96585.41021-1.32399 .23566-.375 1.22779-.12076 1.53344-.09089 .43104.04212.89247.45539 1.25707.68451 .52722.33131.91106,1.22842 1.1125,1.75361 .21902.57104.28018,1.06441-.03222,1.56154-.29071.46261-.84033.59095-1.32606.43211s-.78067-.39724-1.20089-.4383c-.40429-.0395-.24324,1.39303-.23092,1.54212 .04698.5685.14038,1.03374-.03222,1.56152-.19914.60892-.55819.78798-1.19427.72583-.44145-.04314-.9943-.50449-1.28517-.80762-.42749-.44548-.54459-.65282-1.15339-.51389-.47796.10906-.82956.79491-.95881,1.19015-.16112.49268.37354,1.07592.58331,1.42108 .31414.51689-.62639,1.00527-.9113,1.11455-.46101.17682-.85425-.11501-1.2484-.3627-.43203-.27149-.76144-.51572-1.22899-.56141-.58062-.05673-.83611.3237-1.11867.77334-.32575.51837-.16772.96775-.03222,1.56153 .17268.75677-.65892.44523-.95675.34783-.44433-.14531-.59541-.69052-.99145-.93939-.4942-.31056-.83461-.24954-1.25914.15781-.40123.38501-.6747.90585-.97822,1.38885z" fill="#3c761a"/>
    <path d="m459.68725,532.57255c-.31721-.09549-.78619-.78038-1.07143-1.16071-.32698-.43597-.39136-.84528-.26786-1.33929 .1366-.5464.75966-.36812 1.16071-.26785 .48438.12109.81404.35714 1.33929.35714 .65834,0 .71864.07186.89286-.625 .11147-.44589.07368-.91974.17857-1.33929 .14412-.57649.24437-.80357.89286-.80357 .48215,0 .94892.3992 1.25.625 .413.30976-.23834,1.10168-.35715,1.33929-.21456.42912.08703,1.06917.35715,1.33928s.86213.17858 1.25.17858c.46253,0 1.07799-.1579 1.51785-.26786 .65056-.16264.79962-.0972 1.07143.44643 .19911.39822.17857.88562.17857,1.33928 0,.55857-.66376.79094-1.07143.89286-.47953.11988-.88721-.00282-1.25.17857-.45513.22757.37478,1.17835.53572,1.33929 .40073.40073.86238.44643 1.42857.44643 .5178,0 .95977-.23995 1.42857-.35715 .48171-.12042.86112-.32688 1.33929-.44643s1.22989.48794 1.60714.71429c.46703.28021.71429.84351.71429,1.33929 0,.65793-.06583.77532.35714,1.33928 .41405.55207 1.0399-.05776 1.33929-.35714 .33807-.33807.42633-.94196.625-1.33929 .2178-.43562.91629-.35714 1.33928-.35714 .4429,0 .75552.97532.89286,1.25 .19368.38737.08928.99796.08928,1.42857 0,.62268-.55535,1.425-.89285,1.875-.36696.48928-.75215.80357-1.33929.80357-.54637,0-.94748-.39707-1.07143-.89285s-.07903-.87236-.26785-1.25c-.18167-.36333-1.3089.53524-1.42858.625-.45635.34226-.80057.66889-1.33928.80357-.62153.15538-.96418-.05336-1.25-.625-.19836-.39672-.1019-1.11029 0-1.51786 .14974-.59898.26298-.80845-.17857-1.25-.34666-.34666-1.11444-.27943-1.51786-.17857-.50288.12572-.71223.88874-.89286,1.25-.2705.54101-1.18445.00452-1.42857-.17857-.395-.29625-.35714-.78449-.35714-1.25 0-.51025.03152-.91911-.17857-1.33929-.2609-.5218-.71895-.53571-1.25-.53571-.61223,0-.90864.37291-1.33929.80357-.54887.54887-.72757-.32101-.80357-.625-.11338-.45353.26786-.87154.26786-1.33929 0-.58368-.2328-.83944-.80358-.98214-.53947-.13487-1.12597-.08929-1.69642-.08929z" fill="#3c761a"/>
    <path d="m510.33485,533.31768c-.31307.10825-1.09421-.17256-1.5481-.31396-.52029-.1621-.81208-.45628-1.0011-.92911-.20906-.52298.40046-.74312.78432-.89657 .46362-.18534.86907-.18691 1.29494-.49436 .53378-.38534.62473-.36237.35809-1.02935-.1706-.42678-.4786-.78886-.63914-1.19042-.22057-.55178-.27221-.79457.25358-1.17415 .39093-.28221 1.00305-.23176 1.37933-.22491 .51617.00941.45159,1.03275.49435,1.29494 .07721.47352.69637.81595 1.07349.87684s.80354-.35984 1.11802-.58686c.37503-.27074.78162-.75901 1.07389-1.10563 .43228-.51266.59143-.54684 1.13002-.26517 .39453.20633.66316.61354.9287.98136 .32695.45289-.07522,1.02982-.3461,1.35107-.31863.37788-.72099.51702-.90897.87644-.23582.45091.99359.73603 1.21827.77233 .55948.09034.96054-.14282 1.4196-.47422 .41983-.30309.63773-.75633.94923-1.12576 .32008-.37959.50686-.76907.82458-1.14588s1.2828-.32427 1.72116-.36156c.54268-.04617 1.07287.26582 1.36306.6678 .38511.53345.40045.66716 1.07349.87684 .65885.20526.80934-.65551.87685-1.07349 .07622-.47199-.20569-1.01328-.27718-1.45172-.07838-.48069.53389-.8259.87685-1.07349 .3591-.25924 1.18345.34856 1.45558.49089 .38378.20071.65652.75688.90857,1.10602 .36447.50487.38382,1.48045.37357,2.04285-.01114.6115-.13949,1.09179-.61554,1.43546-.443.3198-1.00063.23264-1.39133-.09679s-.57469-.66105-.94883-.85671c-.35996-.18825-.74796,1.2001-.79246,1.34293-.16967.54462-.25758,1.01093-.61553,1.43545-.41299.48978-.81299.5211-1.37933.22491-.39304-.20555-.73249-.84058-.88844-1.23068-.22918-.5733-.25998-.80942-.87644-.90897-.48398-.07816-1.06715.42575-1.3352.74366-.33414.39628-.05726,1.13747.00774,1.5361 .09734.59699-.95771.69696-1.26281.6914-.49366-.00899-.74875-.42701-1.02123-.80445-.29866-.41371-.51242-.76366-.92871-.98137-.51696-.27036-.89649-.01353-1.32706.29731-.49639.35835-.51844.8342-.61553,1.43545-.12376.76629-.77782.1656-1.01737-.03639-.35739-.30136-.29296-.86343-.56674-1.24268-.34165-.47325-.6801-.54436-1.22641-.32597-.51634.20642-.9652.58667-1.42773.92057z" fill="#3c761a"/>
    <path d="m459.42034,524.05054c-.15053-.2951.01947-1.10756.0967-1.57666 .08854-.53772.33951-.86741.78163-1.12005 .48901-.27942.79139.29377.99649.65271 .24771.4335.30538.83483.66879,1.21405 .45551.47533.44535.56858 1.06902.2122 .39905-.22803.71503-.58316 1.09051-.79773 .51594-.29481.74926-.37955 1.19794.08865 .3336.34811.36835.96133.41363,1.33493 .06212.51251-.96031.59017-1.21406.6688-.45828.142-.71173.80259-.71985,1.1845s.46758.74602.73594,1.02605c.32003.33396.85987.66906 1.2436.91056 .56754.35716.62343.51006.41901,1.08245-.14975.41928-.51586.74168-.8434,1.05557-.40328.38648-1.03032.06802-1.38596-.15579-.41834-.26328-.61183-.64252-.9938-.77894-.47921-.17115-.59145,1.08589-.5963,1.31343-.01206.5666.27436.93153.6661,1.3403 .35828.37386.83732.52694 1.2463.78432 .42023.26446.83181.39554 1.24897.65806s.49867,1.22558.59627,1.65456c.12082.53107-.1148,1.09934-.47275,1.44237-.47502.45522-.60532.48892-.71984,1.1845-.11211.68092.76121.71084 1.18451.71986 .47799.01017.97506-.34394 1.39939-.47541 .46521-.14416.89184.41445 1.1845.71984 .30645.31977-.18143,1.22031-.28472,1.50952-.14567.40785-.65874.75494-.96964,1.05288-.44957.43084-1.41309.585-1.9715.65268-.60716.0736-1.10059.01295-1.50683-.41096-.37803-.39448-.36888-.95881-.09669-1.39133 .27378-.43503.57516-.66065.71716-1.05826 .13663-.38255-1.29206-.57469-1.43968-.59899-.56285-.09267-1.03684-.1152-1.50682-.41096-.54222-.34123-.62859-.73305-.41363-1.33493 .14919-.4177.73113-.84177 1.09589-1.05021 .53607-.30631.76565-.36949.77894-.9938 .01043-.49014-.56934-.99795-.92128-1.21944-.43871-.27608-1.13445.10071-1.52026.22025-.57777.17902-.82278-.85204-.85951-1.15498-.05941-.49016.31929-.80064.65539-1.12273 .3684-.35304.6854-.61317.8434-1.05558 .19622-.5494-.11066-.88973-.47809-1.27315-.4236-.44202-.89792-.39801-1.50683-.41097-.77604-.01651-.27164-.7474-.10474-1.0126 .24899-.39566.81457-.40963 1.15229-.73327 .42141-.40385.445-.74888.1531-1.25971-.27588-.48281-.71459-.87472-1.10929-1.28659z" fill="#3c761a"/>
    <path d="m446.93407,528.02686c-.31721-.09549-.78619-.78038-1.07143-1.16071-.32698-.43597-.39136-.84528-.26786-1.33929 .1366-.5464.75966-.36812 1.16071-.26785 .48438.12109.81404.35714 1.33929.35714 .65834,0 .71864.07186.89286-.625 .11147-.44589.07368-.91974.17857-1.33929 .14412-.57649.24437-.80357.89286-.80357 .48215,0 .94892.3992 1.25.625 .413.30976-.23834,1.10168-.35715,1.33929-.21456.42912.08703,1.06917.35715,1.33928s.86213.17858 1.25.17858c.46253,0 1.07799-.1579 1.51785-.26786 .65056-.16264.79962-.0972 1.07143.44643 .19911.39822.17857.88562.17857,1.33928 0,.55857-.66376.79094-1.07143.89286-.47953.11988-.88721-.00282-1.25.17857-.45513.22757.37478,1.17835.53572,1.33929 .40073.40073.86238.44643 1.42857.44643 .5178,0 .95977-.23995 1.42857-.35715 .48171-.12042.86112-.32688 1.33929-.44643s1.22989.48794 1.60714.71429c.46703.28021.71429.84351.71429,1.33929 0,.65793-.06583.77532.35714,1.33928 .41405.55207 1.0399-.05776 1.33929-.35714 .33807-.33807.42633-.94196.625-1.33929 .2178-.43562.91629-.35714 1.33928-.35714 .4429,0 .75552.97532.89286,1.25 .19368.38737.08928.99796.08928,1.42857 0,.62268-.55535,1.425-.89285,1.875-.36696.48928-.75215.80357-1.33929.80357-.54637,0-.94748-.39707-1.07143-.89285s-.07903-.87236-.26785-1.25c-.18167-.36333-1.3089.53524-1.42858.625-.45635.34226-.80057.66889-1.33928.80357-.62153.15538-.96418-.05336-1.25-.625-.19836-.39672-.1019-1.11029 0-1.51786 .14974-.59898.26298-.80845-.17857-1.25-.34666-.34666-1.11444-.27943-1.51786-.17857-.50288.12572-.71223.88874-.89286,1.25-.2705.54101-1.18445.00452-1.42857-.17857-.395-.29625-.35714-.78449-.35714-1.25 0-.51025.03152-.91911-.17857-1.33929-.2609-.5218-.71895-.53571-1.25-.53571-.61223,0-.90864.37291-1.33929.80357-.54887.54887-.72757-.32101-.80357-.625-.11338-.45353.26786-.87154.26786-1.33929 0-.58368-.2328-.83944-.80358-.98214-.53947-.13487-1.12597-.08929-1.69642-.08929z" fill="#3c761a"/>
   </g>
   <path d="m458.16939,510.96541c.10989-.36816.68119-.97964 1.16072-1.33928 .61052-.45789.82583-.36277 1.42857.08928 .33197.24898.60579.76517.80357,1.16072 .21213.42425.92442.78914 1.33929.89286 .4811.12027 1.00347-.28386 1.33928-.53572 .57551-.43163.71323-.78151 1.33929-.625 .45849.11463.89285.77521.89285,1.16072 0,.47545-.26785.82289-.26785,1.33928 0,.5983.40937.91897.89285,1.16072 .43894.21946 1.55374,0 2.05358,0 .57501,0 .87143.03393 1.33928.26785 .61718.30859.05351,1.02985-.17857,1.33929-.3794.50587-.89268.64719-1.33929.98214-.55024.41269-.74666.64954-.44642,1.25 .29274.58549.72034.67116 1.25.80357 .51532.12883 1.34854-.36084 1.78571-.53571 .63831-.25533.98214-.92186.98214.08928 0,.74643.08338,1.36293-.08928,2.05358-.17541.7016-.93407.92548-1.51786,1.07142-.67889.16973-1.18802-.10293-1.69643-.35714-.62928-.31464-.67636-1.17968-1.42857-.80357-.46822.23411-.625,1.06517-.625,1.51786 0,.42199.08929.87273.08929,1.33928 0,1.0648-.97556.10027-1.25-.35714-.32326-.53875-.26786-1.25887-.26786-1.875 0-.58401 0-1.07144.26786-1.60714 .20183-.40368.17857-.93979.17857-1.42857 0-.74166-1.14739-.1406-1.42857,0-.52805.26402-.94819.49043-1.25.89285-.36065.48086-.65774-1.05653-.71429-1.33928-.08287-.41434-.00193-.97444.08929-1.33929 .14359-.57439.06322-.8557-.17858-1.33928-.29355-.58712-1.04276-.13311-1.33928.08928-.47865.35899-.83604.86851-1.07143,1.33929-.26838.53675-.21879.86269-.89286.35714-.4663-.34973-.76942-.93484-.89285-1.42857-.14174-.56693.1502-.94433.44642-1.33929 .34629-.46171.5965-.50344.26786-1.16071-.24505-.4901-.86859-.53572-1.33928-.53572-.5862,0-.98788.27932-.71429-.26785 .11482-.22965.68546-.7448.98214-.98215z" fill="#122308"/>
  </g>
  <g transform="translate(8.4309 -.50508)">
   <path d="m469.97 444.33c9.4928 3.0528 20.843 6.6204 27.617 9.2561 0.24884 7.1879-0.21185 10.44-0.15174 17.298-32.716 17.481-39.082-15.192-27.465-26.554z" fill="#d4d4d4" fill-rule="evenodd"/>
   <path d="m470.33 445.86c7.1667 1.8335 18.474 5.8578 26.251 8.4974 0.18949 7.0401-0.18506 10.34-0.30348 16.388-20.452 3.0132-30.838-16.704-25.947-24.885z" fill="#fff" fill-opacity=".39088" fill-rule="evenodd"/>
   <path transform="translate(385.1 383.44)" d="m112.14 76.787a4.4763 6.5248 0 1 1 -8.9526 0 4.4763 6.5248 0 1 1 8.9526 0z" fill="url(#h)"/>
  </g>
  <g transform="matrix(.88184 0 0 1 67.762 .1046)">
   <path d="m498.75 453.43c-0.03052 6.0066 0.37177 13.845 0.30348 18.36 26.941 12.254 42.804-12.052 26.099-24.278-7.6007 1.4305-19.544 4.16-26.403 5.9178z" fill="#dcdcdc" fill-rule="evenodd"/>
   <path d="m500.17 453.75c12.011-2.771 18.855-3.5064 25.037-5.1591 7.8514 9.2725 6.3984 13.725 2.4278 19.574-6.3984-12.511-5.9416-12.706-27.465-14.415z" fill="#fff" fill-rule="evenodd" opacity=".3441"/>
   <path transform="translate(382.57 383.69)" d="m125.94 77.243a4.4763 5.4626 0 1 1 -8.9526 0 4.4763 5.4626 0 1 1 8.9526 0z" fill="url(#i)"/>
  </g>
  <g transform="translate(6.7065 .46175)" fill-rule="evenodd">
   <path d="m487.27 470.54c6.2017-3.9189 21.949-4.1105 26.403-0.45522 3.2395 6.3866-12.898 16.995-12.898 16.995s-16.947-10.094-13.505-16.54z" fill="#e7ac00"/>
   <path d="m491.77 470.18c5.3878-2.0949 14.773-1.7072 20.788 0.45522 0.70481 5.0455-2.4384 7.7457-6.6766 10.774-1.8104-8.0492-3.7187-9.4373-14.112-11.229z" fill="#fff" opacity=".51282"/>
  </g>
  <path d="m440.55 476.81c-6.3203 3.7175-11.45 9.5545-15.477 13.657 1.1317 3.1916 1.5526 4.745 2.7313 6.98 3.303 0.56587 6.6939 0.88856 13.201 0.30348 3.6244-3.6199 5.2581-18.436-0.45522-20.94z" fill="url(#j)" fill-rule="evenodd"/>
  <path d="m392.6 411.57c3.5094-3.6453 7.3223-4.7993 13.05-4.2487 3.1477 3.5854 13.957 23.486 14.567 35.507 1.2171 19.305 13.055 47.258 20.94 63.124 5.3051-2.0396 8.2565 1.7382-1.5174 5.4626-6.5873 3.2692-11.294 0.60655-4.2487-2.1244-4.639-17.905-16.816-45.951-29.437-62.213-8.828-10.496-12.766-28.827-13.353-35.507z" fill="url(#aa)" fill-rule="evenodd" stroke="#765b00"/>
  <path d="m424.92 490.62c1.3363-2.2138 6.2486-2.2732 9.4079-0.60696-1.2412 3.4871-3.1269 7.1692-6.2213 7.7387-1.1218-2.3135-2.702-4.918-3.1865-7.1318z" fill="url(#z)" fill-rule="evenodd"/>
  <path transform="translate(392.1 387.24)" d="m49.876 128.98c34.727 9.9657 59.319 15.712 98.742 0 0.15333 1.587 0.73121 2.3554-1.2627 4.7982-24.975 18.984-84.872 8.9302-96.596-0.63135-0.86484-1.1015-1.5182-2.2633-0.88388-4.1669z" fill="#533f12" fill-rule="evenodd" stroke="#000"/>
  <g transform="matrix(.97239 0 0 1.0997 6.219 -48.506)">
   <g transform="matrix(1.484 0 0 1 -223.31 1.0714)">
    <path d="m458.47 548.97-0.26099-17.195 0.9375 0.53571-1.0714-3.7946 1.4732-0.17857 3.2042-1.1161s-0.55864-2.4041 1.6798-3.624 3.5603-1.2769 5.5376-0.85587c2.0464 0.43577 3.9071 0.63504 2.7034 2.3816-1.231 1.7861-3.1911 5.4272-3.1911 5.4272l-3.3251 18.812-7.6871-0.3928z" fill="url(#t)" fill-rule="evenodd" stroke="#000"/>
    <path transform="translate(392.1 387.24)" d="m77.143 162.56 3.0357-10.536-3.9286 0.35714 4.8214-4.6429-4.6429 1.0714 7.5-7.1428-9.8214-0.17858-2.8571 18.929 5.8929 2.1428z" fill="url(#s)" fill-rule="evenodd" stroke="#000"/>
    <path transform="translate(392.1 387.24)" d="m68.036 160.06-3.2143-19.643-7.6786 5.1786 4.2857 2.6786-2.8571 4.1071 3.9286 0.53572 0.89286 8.0357 4.6429-0.89286z" fill="url(#r)" fill-rule="evenodd" stroke="#000"/>
    <path transform="translate(392.1 387.24)" d="m55.536 173.28c-1.1394-9.9885 7.7625-13.152 12.679-13.036s14.454 2.3965 11.964 12.5c-6.061 2.4249-15.825 2.8457-24.643 0.53571z" fill="url(#g)" fill-rule="evenodd" stroke="#000"/>
    <path transform="translate(392.1 387.24)" d="m64.107 144.24a0.64732 0.82589 0 1 1 -1.2946 0 0.64732 0.82589 0 1 1 1.2946 0z" stroke="#e1e1e1" stroke-width=".2"/>
    <path transform="translate(392.1 387.24)" d="m64.821 147.38a0.625 0.80357 0 1 1 -1.25 0 0.625 0.80357 0 1 1 1.25 0z" stroke="#e1e1e1" stroke-width=".2"/>
    <path transform="translate(392.1 387.24)" d="m65.312 150.37a0.58036 0.71429 0 1 1 -1.1607 0 0.58036 0.71429 0 1 1 1.1607 0z" stroke="#e1e1e1" stroke-width=".2"/>
    <path transform="translate(392.1 387.24)" d="m65.71429,153.23148a.49107,.75893 0 1,1 -.98214,0 .49107,.75893 0 1,1 .98214,0z" stroke="#e1e1e1" stroke-width=".2"/>
    <path transform="translate(392.1 387.24)" d="m66.161 155.69a0.53571 0.9375 0 1 1 -1.0714 0 0.53571 0.9375 0 1 1 1.0714 0z" stroke="#e1e1e1" stroke-width=".2"/>
    <path transform="translate(392.1 387.24)" d="m66.652 158.43a0.58036 0.64732 0 1 1 -1.1607 0 0.58036 0.64732 0 1 1 1.1607 0z" stroke="#e1e1e1" stroke-width=".2"/>
    <path transform="translate(392.41 387.42)" d="m75.312 143.21a0.51339 0.73661 0 1 1 -1.0268 0 0.51339 0.73661 0 1 1 1.0268 0z" stroke="#e1e1e1" stroke-width=".2"/>
    <path transform="translate(392.28 387.73)" d="m74.95535,145.35201a.44643,.73661 0 1,1 -.89286,0 .44643,.73661 0 1,1 .89286,0z" stroke="#e1e1e1" stroke-width=".2"/>
    <path transform="translate(392.37 387.51)" d="m74.50893,148.3654a.46875,.75893 0 1,1 -.9375,0 .46875,.75893 0 1,1 .9375,0z" stroke="#e1e1e1" stroke-width=".2"/>
    <path transform="translate(392.5 387.29)" d="m73.97321,151.35648a.46875,.71429 0 1,1 -.9375,0 .46875,.71429 0 1,1 .9375,0z" stroke="#e1e1e1" stroke-width=".2"/>
    <path transform="translate(392.5 387.42)" d="m73.661 153.72a0.53571 0.71429 0 1 1 -1.0714 0 0.53571 0.71429 0 1 1 1.0714 0z" stroke="#e1e1e1" stroke-width=".2"/>
    <path transform="translate(392.5 387.38)" d="m73.348 156.33a0.58036 0.64732 0 1 1 -1.1607 0 0.58036 0.64732 0 1 1 1.1607 0z" stroke="#e1e1e1" stroke-width=".2"/>
    <path transform="translate(392.59 387.51)" d="m72.991 158.54a0.60268 0.58036 0 1 1 -1.2054 0 0.60268 0.58036 0 1 1 1.2054 0z" stroke="#e1e1e1" stroke-width=".2"/>
   </g>
   <path transform="translate(392.1 387.24)" d="m46.593 173.84c9.9658 1.662 31.832 1.6567 41.416-0.88388 0.11364 3.0153-0.12627 6.0609-0.12627 6.0609l-5.5558 1.6415-1.0102-1.894-1.894 0.3788-0.25254 2.1466-4.7982 0.37881-0.25254-1.894h-1.7678l-0.50508 1.894-3.5355 0.12626-0.63134-1.7678-1.6415 0.12627-0.88388 1.5152-4.1669-0.63135 0.12627-1.6415-1.7678-0.25254-0.50508 1.6415-3.0305-0.25254-0.12627-1.894-1.6415-0.25254-0.37881 1.6415-2.9042-0.37881v-1.7678l-1.389-0.25253-0.37881 1.5152-3.283-0.3788s0.51452-2.2934 0.88388-4.9245z" fill="#232323" fill-rule="evenodd" stroke="#000"/>
   <path transform="translate(392.1 387.24)" d="m64.05492,159.72737c.19291-.15526.38927-.30597.58757-.45428 .18863-.14258.37936-.28106.57808-.40925 .0784-.04224.15027-.09587.22718-.14045l1.34878-.77746c.39802-.22968-1.59697.91003-1.19442.68839 .45393-.24993.89905-.51551 1.34858-.77327 .17167-.0814.34897-.14926.52219-.22692 .16705-.06905.33806-.12674.5094-.18368 .1627-.0629.33179-.1076.50289-.14056l.70841-.18925c.26553-.08532.53629-.15448.80124-.24137 .20727-.05384.40484-.13769.61138-.19401 .1773-.0602.36332-.08967.54731-.12189 .19049-.03295.38392-.04105.57679-.04616l.49896-.00296 .44596.00028 .39657-.00069c.1258.03138.25384.04854.38298.05735s.25151.04682.37996.05953c.12943.00016.25246.03973.38008.05715 .14193.01951.2812.058.41966.09546 .13609.02358.26544.07022.40183.09277 .11192.03226.22093.07193.32555.12322l-1.243.8262c-.10036-.03929-.20186-.07642-.30829-.09592l-.40432-.10181c-.13613-.03561-.27473-.06129-.41402-.08092l-.3775-.05331c-.12566-.01966-.24957-.05032-.37713-.05538-.12497-.0149-.2487-.04458-.37468-.04603l-.3946-.00088-.44515-.00096-.49167.00434c-.18797.00825-.37591.0237-.56036.06265s-.36499.07305-.54118.13514c-.19988.06346-.39791.13284-.60042.18788l-.8008.234c-.24102.0674-.48164.13688-.72528.19432-.16829.04265-.33336.09628-.49624.15631-.16727.05907-.33592.11431-.49729.18894-.17537.07311-.3503.14915-.51766.23929 3.08039-1.78072-.01968.0118-.15211.08652l1.19546-.69178-.07408.04156-.07611.05148-.08215.04957c-.20901.11615-.40443.25393-.59241.40145-.19526.13546-.38605.28007-.56443.43698l-1.39146.55841z" fill="#e70000"/>
   <path transform="translate(392.1 387.24)" d="m64.22885,156.24419c.22385-.03637.45091-.05644.67446-.09472l.71365-.10353c.20222-.04311.40641-.07254.60887-.11422 .16965-.0188.33507-.05392.50277-.08441 .15187-.03715.30991-.05153.46113-.09033 .19746-.04497.39719-.07934.5907-.14019 .23931-.06612.47701-.1405.71059-.22495 .25096-.07726.49898-.16321.74571-.25294 .16657-.04669.32375-.12377.48865-.17475s.33176-.08906.49766-.13347c.45911-.12504.91122-.27381 1.36479-.41717 .2208-.06738.41904-.18568.62492-.28625 .18431-.10717-.03944.02029.14136-.07471l.06454-.03747c-2.11157,1.21444-1.50222.88158-1.06445.60573 .16398-.10013.31471-.21899.46998-.33151l.46056-.33829c.18699-.13203.37065-.2686.55509-.40415l.50265-.34214 .38917-.26597c.52724-.36239 1.09808-.65385 1.65296-.97233l.06208-.03601-1.21231.69857 .06206-.03858c2.34879-1.34184.8015-.52157 1.47187-.8099 .08273-.03979.17539-.03807.26277-.05656l.12304-.03496c.08458-.01188.17281-.03721.25911-.03213l.13585.02382c.08747.0137.04352.00314.13159.03275l-1.22985.84793-.12095-.01665c-.12301-.00665-.24396.02084-.36265.05139-.1257.03051-.25472.04855-.37182.10789-.04171.01604-.16145.07624-.12282.05378 2.58978-1.5057.50857-.2835-.25055.14343 2.2173-1.28232 1.36481-.81806.89783-.50475-.13153.08798-.26571.17193-.39355.26524-.17013.11665-.33795.23685-.51529.34266-.18469.13127-.36133.27297-.5489.40012-.15173.11318-.30475.22449-.4561.33808-.15583.11246-.30634.232-.46776.33657-.53041.37531-1.10846.68087-1.68663.97669-.19872.10111-.40343.19081-.61878.25068-.44443.13273-.88872.26599-1.3355.39065-.34475.10345-.68146.22833-1.02093.34766-.24736.08823-.49754.1683-.7466.25156-.23851.07965-.47816.1564-.7209.22221l-.60444.13765-.46523.0891-.49681.08199c-.20253.03838-.40678.06741-.60942.10527l-.70767.1002c-.23273.03101-.4643.06812-.69554.10884l1.19903-.89742z" fill="#e70000"/>
   <path transform="translate(392.1 387.24)" d="m62.67904,154.28939c.18242-.17798.37602-.34382.56373-.51609 .17155-.15204.34502-.30227.52374-.44587 .15001-.11342.28584-.24383.43144-.36247 .14175-.10873.27533-.22723.40546-.34946 .14725-.14085.29017-.2861.43651-.42789l.5035-.44824c.18747-.16686.38991-.31542.5926-.46295 .21615-.15232.43611-.29868.66098-.43774 .18653-.10963.36517-.23144.54555-.35063 .1477-.10549.30498-.19616.45681-.29529l.50962-.33986c.16975-.10737.34008-.21377.50884-.32268 .60823-.38637 1.22159-.76993 1.87009-1.08555l.59872-.2982c.18506-.082.36997-.16807.56563-.22152 .18456-.05671.36536-.1276.55646-.15956 .16275-.03117.3234-.06362.48907-.07891 .1819-.00312.36097-.01126.54139-.03313 .24475-.02615.49155-.01812.73609-.04376 .23182-.02472.46625-.05035.69246-.10833 .1957-.03527.37839-.11236.5636-.18147 .19395-.08413.39222-.15701.58969-.23224 .17591-.07941.35324-.15628.53233-.22807 .15213-.06963.31335-.11718.4665-.18346 .02307-.00811.04666-.01486.06921-.02434 .11317-.04755.01389-.01743.12991-.05767 .06506-.02257.13052-.03311.1949-.05795 .10665-.02709.21158-.05398.31743-.08372l-1.18387.91083c-.10437.02949-.21146.04915-.31293.08887-.13305.03741-.2573.09706-.38697.14435-.15634.05482-.30833.1213-.4618.18358-.17588.07531-.35285.14834-.53003.22051-.19855.07482-.39419.15678-.5921.2332-.1873.06996-.3789.12685-.57585.16296-.23111.03861-.46288.07328-.69694.08829-.24732.0145-.49552.01961-.74138.05307-.18178.01834-.36487.01469-.5463.03754-.16067.02231-.31836.05996-.47788.08894-.18308.04946-.3629.11028-.54354.16788-.18844.07031-.37356.15013-.55369.23967-.1967.09968-.39565.1949-.5921.29512-.49952.2633-.14639.07898 1.05125-.61515l-.10714.06241-.2792.18113c-.17418.10022-.33792.21782-.5105.32089s-.33829.22406-.50682.33675c-.15355.09894-.30684.19713-.46257.29265-.17683.12851-.36245.24477-.5475.36118-.22788.13509-.4508.27683-.66794.42856-.20351.14222-.40424.28897-.59452.44855-.17059.14311-.32729.30226-.49957.44368-.15574.13047-.29002.28425-.43788.42347-.12726.12479-.25411.25055-.39492.36034-.15089.11631-.2914.24346-.43824.36495-.18139.14272-.35787.29096-.53501.439-.18179.16751-.37001.32867-.5459.50204l-1.38042.57179z" fill="#e70000"/>
   <path transform="translate(392.1 387.24)" d="m62.95076,151.10567c.23102.00952.46229.0074.69344.0083l.73668-.00287c.20048-.01069.39873.02101.59774.03965 .22752.03196.45342.0735.68065.10726 .20176.03097.40499.05842.60542.09748 .17858.03526.35495.0814.5296.13254l.51254.17524 .5789.21669c.18736.07286.36961.15707.55181.24176l.4737.24201c.16516.09512.33188.18752.49772.28154 .19573.1047.40087.18905.60414.27749l.66253.23619 .71349.22878c.22974.06763.4578.14191.69162.19436 .20545.04171.41067.08039.61944.10109 .18331.03453.36801.05712.55408.06893 .1606-.00155.31802.03003.47683.04937 .15195.00891.2998.04437.45073.06273 .18329.02981.36414.07033.546.10733 .14375.03539.28302.08527.42532.12534 .13262.04157.25793.101.38466.15716l.12663.0614-.45938.81177-.12523-.06047c-.12265-.05499-.24487-.11124-.3737-.15074-.13919-.04177-.27643-.0898-.41753-.12529-.17875-.03958-.35743-.07833-.53891-.10371-.15095-.0192-.30039-.0478-.45205-.06108-.15663-.02129-.31268-.0464-.47115-.0492-.18642-.01548-.3715-.03996-.55581-.07215-.21131-.02385-.41948-.06611-.6275-.10965-.23589-.05558-.46651-.131-.69876-.19991l-.71294-.22827c-.2256-.07372-.44934-.15313-.67051-.23921-.20683-.08806-.41451-.17485-.6131-.28072-.16692-.09128-.33419-.18201-.49896-.27705l-.46751-.24104c-.18035-.08257-.35908-.1684-.54442-.23957s-.38269-.14819-.57743-.2132c-.17059-.05695-.34047-.11604-.51156-.17149-.17079-.05209-.34388-.09729-.51938-.13066-.19996-.03536-.40019-.0702-.60103-.09981-.22541-.0364-.45057-.07388-.67724-.10184-.19619-.0186-.39198-.04519-.58963-.0364l-.73376-.00288c-.23397.00091-.46806-.00111-.7019.0083l.42571-.8355z" fill="#e70000"/>
   <path transform="translate(392.1 387.24)" d="m76.48972,150.38169c-.22241-.16435-.45733-.30988-.69169-.45632-.2553-.15565-.51622-.30243-.78122-.4409-.17691-.08657-.34489-.19028-.5202-.27956-.22413-.10903-.45176-.21045-.68112-.30791-.27177-.10051-.54519-.19608-.82273-.27942-.2066-.06575-.4149-.12825-.6272-.17279-.21121-.05079-.42485-.09294-.63918-.1286l-.66013-.07252c-.20631-.02352-.41401-.028-.62142-.03148l-.54776-8e-005-.49972.00129c-.17365.00701-.34935.0256-.5211.05449-.1774.03658-.35753.05424-.53806.06549-.15465.03381-.3116.04929-.46928.05942-.19641.00931-.39307.00778-.58963.00728-.2393-.00228-.47742-.03266-.71625-.04786-.20768-.0126-.41577-.01294-.62374-.01428l-.5194.00146-.40363.00141c-.13785.01739-.27104.05376-.40631.08398-.13423.04512-.27142.08131-.40894.11443-.13722.05961-.28666.07493-.42912.11468l-.38666.08229c-.12811.0187-.25277.04983-.37936.07614-.12879.01466-.25241.05259-.38015.07378s-.2568.02121-.38555.02302c-.14449.02262-.28897.04359-.43502.05238-.14774-.00307-.29116.03112-.43656.05153-.0895.00996-.0449.00562-.13379.01303l.41623-.83565 .12915-.01462c.14663-.02175.29267-.04617.44142-.04721 .14759-.01367.2937-.03752.44109-.05247 .12443-.00283.24931-.0071.37206-.02951 .12585-.02464.25026-.05602.3772-.07512l.37761-.07687 .3854-.08188c.1444-.03192.28798-.06489.42777-.11422 .13699-.03847.27519-.07224.41147-.11323 .14049-.03288.28124-.06962.42604-.07663l.40238.00091 .51842.00223c.20902.00189.41805.00782.6267.02063 .23676.01695.47322.04785.71089.0441 .19552-.00155.39124-.00258.58642-.01507 .15794-.01247.31343-.03916.47034-.05977 .17754-.01129.35381-.03289.5287-.066 .1774-.02593.35666-.05074.53609-.05223l.49876.00047 .54792.00371c.21009.00415.42031.01264.62917.03692l.66378.07533c.21563.0376.43095.07894.6441.12864s.42356.11179.63108.18226c.27821.08958.55448.18468.8283.287 .23318.09524.46491.19405.69273.30158 .176.08943.34503.19265.51892.2862 .26309.14602.52589.29297.78229.45054l.70562.43816-.47312.80742z" fill="#e70000"/>
   <path transform="translate(392.1 387.24)" d="m60.15438,145.7533c-.03672-.00869-.17801-.04051-.20579-.05451-.08055-.04057-.1542-.09359-.23115-.14062-.36348-.22215-.71498-.4601-1.06809-.69838-.97093-.66291-1.96664-1.28863-2.9647-1.90968-.41406-.25587-.82934-.51056-1.26732-.72364-.23317-.10349-.45701-.22661-.68945-.33141-.22947-.10967-.47024-.18926-.71331-.2621-.26326-.07292-.53083-.12669-.79903-.17759-.24614-.03858-.49602-.06645-.74527-.05298-.2088.00995-.40598.07757-.602.14379-.19116.07785-.37459.17598-.5516.28187-.20433.11892-.39976.25091-.58406.39886-.2108.15443-.35977.36326-.51213.57101-.17354.2725-.50498.79728.25963-.45866 .02174-.03571-.03691.07504-.05403.11318-.03261.07265-.05862.14252-.08742.21671-.07593.21218-.12957.43162-.1648.654-.02118.2219-.04854.44316-.07124.66493-.01875.19471-.02385.39031-.02598.5858 .0086.17214-.01572.34197-.03546.51231-.02959.20439-.0095.40952.0064.61398 .01014.1988.04567.39498.06913.59241 .01747.15588.02075.3129.0232.4696 .01063.14085-.02114.27478-.06679.40657-.20495.41349-.39216.85949-.72508,1.18488-.13451.12274-.26967.24471-.40187.36995-.15343.14001-.29525.29039-.43245.446-.02585.03253-.05252.06443-.07755.0976-.06173.08181-.08986.12419-.14164.21176l-.06042.10731c.39698-.67307.5135-.90935.33458-.55559-.11862.23103-.21972.47143-.29763.71916s-.12175.51261-.1723.77104-.08564.51814-.12379.7779c-.02052.17809-.05376.35452-.08818.53038l-.56542.74075c.04985-.17291.07124-.35566.10093-.53271 .03633-.262.07789-.52346.12203-.78419 .05328-.25836.08891-.52095.16474-.77419 .06831-.25235.16886-.49554.28452-.72974 .25079-.49787.50959-1.00386.86807-1.43403 .13976-.15696.28897-.30462.44247-.44816 .1325-.12363.2695-.24269.39626-.37229 .05718-.06747.05992-.06665.10887-.14076 .01382-.02091.05159-.08596.03916-.06419-.74554,1.30566-.51447.89108-.3525.61202 .05721-.12014.10101-.25024.09678-.3848-.00049-.15565-.00142-.31149-.0143-.46671-.0185-.2-.05511-.39769-.06862-.59796-.01502-.20657-.04664-.41374-.02179-.6207 .01501-.1693.05071-.33633.04193-.50699 .00252-.19803.00493-.3963.02218-.59372 .01994-.22325.05389-.44481.06878-.66849 .028-.2269.07919-.44877.14839-.66675 .19464-.51752.47012-1.00041.78997-1.45175 .1556-.21068.32333-.40854.53647-.56438 .19001-.14518.39002-.27593.59684-.39606 .18358-.10326.369-.20671.5691-.27475s.4092-.12715.62501-.13052c.25542-.00419.5101.02439.76192.06598 .27056.05308.54054.10867.8064.18239 .24812.07163.49208.15575.72613.26582s.45867.22817.68997.33825c.43405.22887.83824.50802 1.2443.78243 .97355.65936 1.96187,1.29607 2.95651,1.92312 .34687.21338.47584.29642.81217.49083 .21525.12443.43924.27752.69528.29229l-.425.83412z" fill="#e70000"/>
   <path transform="translate(392.1 387.24)" d="m78.31131,144.00491c.17356.09875.33341.21808.48712.34493 .15866.13623.2745.30765.38434.48327 .1199.18882.20568.39514.28136.60475 .07343.20032.14566.40018.20716.60458s.10988.39975.15712.60149c.04461.19804.09776.39393.15291.58926 .06265.21193.1349.42142.22375.62383 .08852.2101.23158.38529.3865.54934 .19042.19729.43499.31985.68095.43252 .32913.14654.67273.25374 1.02105.3434 .3171.07518.63999.10406.9649.11021l.84821-.00636c.25602.01159.51092.03399.7648.06826 .23746.02743.47167.07797.70313.13686 .21223.06369.41569.15633.6069.26786 .18985.11714.32839.29266.45327.47375 .47892.7746.93967,1.5594 1.39384,2.34871 .09322.1653.18917.32909.27966.4959 .19025.35073.36915.70751.55577,1.06019 .2584.48832.52349.97266.7911,1.45597 .37374.6974.78531,1.37295 1.184,2.05601 .35277.62125.75675,1.21108 1.13448,1.81673l.62426,1.04629c.68998,1.15257 1.433,2.27215 2.1683,3.39603 .60291.92195 1.22922,1.82815 1.84295,2.74281l.34439.51419-.49606.76863c-.1053-.18326-.21624-.36302-.32286-.54552-.57052-.95497-1.1901-1.87917-1.7971-2.81104-.74697-1.1137-1.4954-2.22799-2.18247-3.37993-.58603-.94609-1.16978-1.89363-1.78725-2.81969-.26737-.43362-.51402-.87847-.76503-1.32172-.07193-.12702-.14774-.25186-.2174-.38013-.0671-.12355-.12851-.2501-.19277-.37515-.25671-.49274-.52355-.97986-.7825-1.47134-.27446-.5209-.53738-1.048-.82833-1.5602-.44739-.77417-.91991-1.53484-1.44201-2.26121-.11637-.17004-.24745-.33368-.42284-.44643s-.3761-.20092-.58084-.25957c-.22894-.05571-.45972-.10473-.69397-.13227-.24944-.03303-.50011-.05545-.75159-.06557-.28317.00245-.56638.00754-.84955.00232-.33083-.01024-.65969-.04482-.98195-.12378-.35161-.09611-.70015-.20411-1.03552-.34822-.25792-.11458-.51442-.24016-.71601-.44288-.16293-.16974-.31678-.34788-.41322-.56541-.09425-.20402-.16841-.41611-.23648-.63015-.05371-.19665-.11203-.39189-.15818-.5905-.04152-.20166-.09095-.40243-.15122-.59923s-.12683-.40457-.20242-.60317c-.06822-.2056-.14987-.40782-.2647-.59233-.10434-.1676-.20944-.33579-.35956-.46723-.14686-.12337-.29919-.24311-.47382-.32514l.46343-.81392z" fill="#e70000"/>
  </g>
  <path d="m504.41 525.18c-0.44772 2.629-0.25434 4.1731 0.5811 5.9075 3.424 1.0084 8.9087 0.54757 11.564-1.1321 0.38268-1.9954 0.60932-2.9819 0.17112-5.9977-2.9952-0.67982-9.2486-0.04931-12.316 1.2223z" fill="url(#f)" fill-rule="evenodd" stroke="url(#o)" stroke-linejoin="round" stroke-width=".6"/>
  <g transform="translate(12.054 3.3036)">
   <g transform="matrix(1.4629 0 0 1 -236.52 -.71429)">
    <path d="m518.63 547.89-1.0268-8.4821 0.9375 0.53571-1.0714-3.7946 1.4732-0.17857-1.4286-3.2589s2.6277-4.8069 4.8661-6.0268 7.3202-2.5543 9.1964-0.98214 1.6948 5.307 0.49107 7.0536c-1.231 1.7861-6.9196 2.0982-6.9196 2.0982l-1.7857 12.812-4.7322 0.22322z" fill="url(#w)" fill-rule="evenodd" stroke="#000"/>
    <path d="m512.42 550.88-3.0357-10.536 3.9286 0.35714-4.8214-4.6429 4.6429 1.0714-7.5-7.1428 9.8214-0.17858 2.8571 18.929-5.8929 2.1428z" fill="url(#v)" fill-rule="evenodd" stroke="#000"/>
    <path d="m521.53 548.38 3.2143-19.643 7.6786 5.1786-4.2857 2.6786 2.8571 4.1071-3.9286 0.53572-0.89286 8.0357-4.6428-0.89286z" fill="url(#u)" fill-rule="evenodd" stroke="#000"/>
    <path transform="matrix(-1 0 0 1 589.56 388.31)" d="m64.107 144.24a0.64732 0.82589 0 1 1 -1.2946 0 0.64732 0.82589 0 1 1 1.2946 0z" stroke="#e1e1e1" stroke-width=".2"/>
    <path transform="matrix(-1 0 0 1 589.56 388.31)" d="m64.821 147.38a0.625 0.80357 0 1 1 -1.25 0 0.625 0.80357 0 1 1 1.25 0z" stroke="#e1e1e1" stroke-width=".2"/>
    <path transform="matrix(-1 0 0 1 589.56 388.31)" d="m65.312 150.37a0.58036 0.71429 0 1 1 -1.1607 0 0.58036 0.71429 0 1 1 1.1607 0z" stroke="#e1e1e1" stroke-width=".2"/>
    <path transform="matrix(-1 0 0 1 589.56 388.31)" d="m65.71429,153.23148a.49107,.75893 0 1,1 -.98214,0 .49107,.75893 0 1,1 .98214,0z" stroke="#e1e1e1" stroke-width=".2"/>
    <path transform="matrix(-1 0 0 1 589.56 388.31)" d="m66.161 155.69a0.53571 0.9375 0 1 1 -1.0714 0 0.53571 0.9375 0 1 1 1.0714 0z" stroke="#e1e1e1" stroke-width=".2"/>
    <path transform="matrix(-1 0 0 1 589.56 388.31)" d="m66.652 158.43a0.58036 0.64732 0 1 1 -1.1607 0 0.58036 0.64732 0 1 1 1.1607 0z" stroke="#e1e1e1" stroke-width=".2"/>
    <path d="m540.88 558.52c1.3397-9.9216-9.1272-13.064-14.908-12.948s-16.995 2.3805-14.068 12.416c7.1265 2.4086 18.607 2.8266 28.975 0.53212z" fill="url(#x)" fill-rule="evenodd" stroke="#000" stroke-width="1.0807"/>
    <path transform="matrix(-1 0 0 1 589.25 388.49)" d="m75.312 143.21a0.51339 0.73661 0 1 1 -1.0268 0 0.51339 0.73661 0 1 1 1.0268 0z" stroke="#e1e1e1" stroke-width=".2"/>
    <path transform="matrix(-1 0 0 1 589.38 388.8)" d="m74.95535,145.35201a.44643,.73661 0 1,1 -.89286,0 .44643,.73661 0 1,1 .89286,0z" stroke="#e1e1e1" stroke-width=".2"/>
    <path transform="matrix(-1 0 0 1 589.29 388.58)" d="m74.50893,148.3654a.46875,.75893 0 1,1 -.9375,0 .46875,.75893 0 1,1 .9375,0z" stroke="#e1e1e1" stroke-width=".2"/>
    <path transform="matrix(-1 0 0 1 589.16 388.36)" d="m73.97321,151.35648a.46875,.71429 0 1,1 -.9375,0 .46875,.71429 0 1,1 .9375,0z" stroke="#e1e1e1" stroke-width=".2"/>
    <path transform="matrix(-1 0 0 1 589.16 388.49)" d="m73.661 153.72a0.53571 0.71429 0 1 1 -1.0714 0 0.53571 0.71429 0 1 1 1.0714 0z" stroke="#e1e1e1" stroke-width=".2"/>
    <path transform="matrix(-1 0 0 1 589.16 388.45)" d="m73.348 156.33a0.58036 0.64732 0 1 1 -1.1607 0 0.58036 0.64732 0 1 1 1.1607 0z" stroke="#e1e1e1" stroke-width=".2"/>
    <path transform="matrix(-1 0 0 1 589.07 388.58)" d="m72.991 158.54a0.60268 0.58036 0 1 1 -1.2054 0 0.60268 0.58036 0 1 1 1.2054 0z" stroke="#e1e1e1" stroke-width=".2"/>
   </g>
   <path d="m556.53 557.95c-11.142 1.6519-35.59 1.6466-46.305-0.87846-0.12705 2.9968 0.14118 6.0238 0.14118 6.0238l6.2116 1.6314 1.1294-1.8824 2.1176 0.37648 0.28235 2.1334 5.3646 0.37649 0.28235-1.8824h1.9764l0.56468 1.8824 3.9529 0.12548 0.70587-1.7569 1.8352 0.1255 0.98822 1.506 4.6587-0.62749-0.14118-1.6314 1.9764-0.251 0.56469 1.6314 3.3882-0.25099 0.14118-1.8824 1.8353-0.251 0.42352 1.6314 3.247-0.37649v-1.7569l1.5529-0.25099 0.42351 1.5059 3.6705-0.37648s-0.57526-2.2793-0.98821-4.8943z" fill="#2d2d2d" fill-rule="evenodd" stroke="#000" stroke-width="1.0541"/>
   <path transform="translate(392.1 387.24)" d="m126.62515,159.47464c.18196-.16733.3509-.34746.51558-.53157 .15449-.17743.31593-.34845.47916-.51779 .15669-.1562.29871-.32601.44608-.49083l.42894-.46953c.15482-.16487.30387-.33441.46787-.49038 .17592-.15814.34523-.32346.52455-.47778 .16362-.14449.33971-.27344.51766-.39945s.36254-.25107.55188-.36412l.17921-.10547c4.50656-2.60668-.82033.46995.25644-.15356l1.35757-.78295c.18481-.09922.36802-.20182.55652-.29395 .16541-.09274.33594-.17684.50782-.25685 .15196-.082.31173-.15014.47202-.21401l.50144-.20681c.19227-.08766.39045-.16298.59279-.22362 .19209-.07134.39207-.1181.58523-.18518 .14794-.03956.28881-.09721.43983-.12483 .12816-.02624.25308-.05961.38435-.07273 .12213-.04404.25109-.05828.37974-.06697 .15158-.00611.3034-.00354.45508-.00387l.48172-.00031 .39446-.00067 .37818-4e-005h.18919l-1.20907.87844-.1892,1e-005-.3781-5e-005-.39231-.00108-.47876-.00101c-.15049.00068-.30143.00153-.45108.01933l-.37633.07149c-.12611.02343-.24952.05869-.37555.08241l-.4265.1289c-.19527.05489-.38702.12106-.57993.18366-.19872.07143-.39554.14716-.58805.23425l-.5055.21084c-.15624.06946-.31285.13774-.46416.21774l-.50509.2584c-.18441.09769-.36988.19338-.55073.29766 3.93497-2.27623-3.06034,1.76176.91968-.52852 .06009-.03458-.23607.1466-.17859.10666-.19005.11267-.37976.22513-.55815.35627-.18031.1198-.35721.24596-.52268.38566-.18259.15094-.35648.31086-.52963.4726-.16679.14973-.32256.30891-.46662.48099-.15213.14824-.28376.31509-.43317.46614-.1504.16321-.29072.33533-.44389.49564-.16613.16843-.33046.33868-.48849.51478s-.31665.36033-.48774.52893l-1.38367.57313z" fill="#e70000"/>
   <path transform="translate(392.1 387.24)" d="m137.2777,156.71084c-.18193-.08363-.35073-.19203-.5291-.28238l-.4811-.27071c-.11704-.07721-.25056-.1099-.37923-.15875-.12509-.03449-.24487-.0818-.373-.10497-.1382-.03014-.27549-.05885-.41725-.07126-.1897-.01269-.37994-.01251-.56997-.01342l-.6648-.00063-.68317.00013-.64105.00179-.48009.00264c-.1251.03379-.25341.04924-.38234.05791-.13328,7e-005-.26007.03678-.39253.05099-.13411.05146-.28116.04759-.4167.08916l-.45061.10561c-.21161.04117-.41689.10688-.62777.15159-.16741.04185-.32914.10261-.49623.14472-.13849.03372-.27551.07184-.41337.10951-.15797.01982-.30889.06868-.4661.0932-.13451.0062-.26151.04818-.39456.0664-.12964-.00113-.25132.03217-.37759.0545-.15792.00913-.31141.04696-.4681.06734-.13031.02558-.28676.04434-.41167.08723-.13051.03542-.24608.1067-.37506.14707l1.17614-.91988c.12507-.05395.25033-.10809.38478-.1347 .13935-.02426.27667-.0593.41787-.07222 .15622-.02491.31235-.0501.46847-.07517l.3792-.05224c.13003-.02578.25978-.04854.39108-.06677 .15274-.03245.30566-.06494.45704-.10286l.41433-.11055c.16212-.04959.32596-.09311.49107-.13169 .2106-.05089.41908-.11047.63081-.15687 .15313-.03511.30473-.0762.45865-.1079 .14208-.02062.28088-.05625.42271-.07773 .13272-.02131.26402-.04469.39885-.04848 .12963-.01588.25808-.04696.38914-.04548l.47281.00265 .63614.00176 .68339-.00044 .66839-.00078c.19508.00127.3906.00223.58488.02198 .14526.01944.28782.05216.4312.082 .1289.03494.25551.0783.38237.11992 .13751.04547.26592.10942.39056.18315 .15721.08943.31047.18564.46955.27174 .17785.09655.35442.19642.54385.26919l-1.25189.8237z" fill="#e70000"/>
   <path transform="translate(392.1 387.24)" d="m138.48919,151.18905c-.22107-.0641-.44021-.13367-.65706-.21204-.25013-.07354-.49383-.16885-.74672-.23274-.16626-.05534-.33795-.09018-.50831-.12981-.17937-.03104-.3571-.06743-.53835-.08717-.24458-.01161-.48507-.05695-.73021-.05582-.27729.02068-.55295.00984-.82995-.00623-.26733-.0161-.53508-.02101-.80282-.02349-.28734.0024-.57404.03156-.86112.04638-.23628.01118-.47277.01623-.70927.01996-.10037.00904-.20316-.00742-.30335.00234-.04755.00463-.09395.01745-.14106.02542-.14955.01926-.29718.03176-.44502.06076-.17966.01754-.35809.03464-.53682.05946-.18987.01312-.37561.04748-.56354.07526-.15728.01652-.31275.02861-.46832.05624-.16951.0141-.33569.04782-.5042.06952-.18253.02711-.36239.0636-.54658.0805-.16014.04793-.33051.04234-.49106.08449-.13594.02082-.26529.06381-.39926.09256-.12351.04799-.2517.07709-.37072.13657-.12918.05113-.24679.12481-.3793.168-.12828.05042-.24954.11601-.37638.16956-.13205.08066-.28162.12036-.4268.16916-.15418.03789-.30187.09402-.45845.1222-.13175.01749-.25802.06152-.38449.10079-.12955.01951-.25362.05742-.38184.08288l1.18891-.90468c.1248-.03154.25232-.05035.37461-.09152 .12807-.03857.25959-.06397.39051-.09062l.44467-.13243c.1455-.05044.28368-.1161.42198-.18347 .12463-.0602.25288-.11248.3812-.16421 .12489-.05888.24835-.12088.3776-.16998 .12741-.04326.25531-.08619.38601-.11831l.40079-.08487 .4946-.0727c.1815-.02339.36049-.06223.54224-.08409 .1686-.02803.33815-.04703.50691-.0739 .15473-.02223.31157-.02582.4658-.0528 .18711-.02918.37504-.04788.5628-.07242 .1794-.02505.36111-.031.53893-.06766 .14898-.02322.29999-.03169.44882-.05685 .15005-.0164.3008-.00814.45151-.00906 .2305-7e-005 .46105-.00297.69128-.01507 .28958-.01601.57896-.04663.86923-.04025 .2693.00443.53867.0102.80749.02794 .27523.01487.54946.00933.82492.00363 .25023.01162.49939.04138.74911.06073l.55334.09696c.1696.04179.33931.08206.50453.13973 .24829.07758.49157.17079.74038.24695 .2196.07174.44157.13976.67085.17261l-1.22802.86159z" fill="#e70000"/>
   <path transform="translate(392.1 387.24)" d="m123.95132,146.57363c-.14858-.17211-.31354-.32933-.47544-.48874-.12744-.12966-.26263-.25326-.41273-.35633-.11192-.08966-.24428-.14077-.37247-.20032-.12685-.04738-.25197-.09219-.38604-.11388-.16749-.03001-.33441-.05872-.50453-.07233s-.34372-.01057-.51564-.01156c-.19481-.01387-.38609.01392-.57911.03374-.18315.0086-.36144.05079-.54271.07507-.17903.03823-.35351.09355-.53068.13939-.22669.06552-.45454.12851-.68441.18225-.25172.06124-.50831.0904-.76389.12902-.28956.03352-.57906.06874-.86954.09391-.33834.03297-.6762.06475-1.01595.08038-.38899.01794-.77714.04848-1.16648.06159-.3826.01324-.76529-.01691-1.14765-.03064-.32009-.00578-.63851-.04298-.95572-.08345-.27948-.03356-.55717-.08091-.83543-.12357-.28869-.05416-.57841-.10532-.8698-.14284-.3026-.04795-.60574-.09436-.91024-.12868-.3443-.03416-.69052-.03773-1.03618-.04104-.30687.00422-.61461-.01064-.92081.01299-.30168.01719-.59307.10531-.87846.19894-.05409.01845-.10974.03284-.16227.05535-.19336.08287-.37716.18647-.56502.28114-.41276.208-.82203.4199-1.22788.6411-1.10568.62633.25179-.15051.38013-.22145 .10623-.05872-.20869.12403-.31214.18752-.26238.161-.50787.33067-.75347.51618-.5563.46849-1.05767.99583-1.53939,1.53931-.29339.31615-.53045.67343-.74739,1.0442-.13546.23465-.25941.47551-.37233.72172-.09627.21088-.18308.42598-.26859.6414-.08463.22237-.15792.44825-.22237.67717-.07029.23962-.09112.48807-.1066.73597-.0093.23148-.00796.46314-.0074.69473-.00313.17989.0052.35819.02946.53634 .02395.13844.02732.27907.04212.41842l.0221.12547-1.31899.70168c-.01502-.0855-.00707-.04228-.02392-.12966-.0252-.1395-.01528-.28288-.03828-.42315-.02334-.18583-.04336-.36984-.02986-.55769 8e-005-.23446-.00042-.46903.00802-.70336 .00934-.25671.03168-.51404.09235-.7643 .06069-.23366.13335-.46256.21188-.6908 .08653-.21774.1727-.43581.26898-.64947 .11383-.25277.23805-.50063.37687-.74074 .22979-.38821.47653-.76606.78983-1.0936 .48918-.53968.98197-1.07852 1.52941-1.56045l.24904-.2106c.07332-.05556.1527-.10266.23005-.15245 .21458-.13812.38537-.24138.60851-.37092 .51323-.29794 1.02665-.59557 1.54158-.89055l.41386-.22961c.41418-.22509.83285-.43927 1.25172-.65544 .22484-.11604.40927-.22089.63937-.31298l.16525-.05413c.29614-.08839.59607-.16901.90732-.17503s.61181.00012.91766.00145c.35002.00544.70069.01258 1.04897.0507 .3056.03764.61046.08136.91469.12878 .29181.04195.58222.09334.87266.14377l.83089.12187c.31263.03842.62644.0693.94147.0784 .37751.01648.75548.04524 1.13347.02656l1.17209-.06811c.34023-.02094.67865-.05852 1.01801-.08987 .29079-.03177.58186-.06271.87143-.10427 .25462-.03675.50798-.07964.75777-.14224 .23016-.06046.45981-.12274.6884-.18889 .18066-.05038.36102-.10487.54751-.12956 .17959-.02709.35886-.05471.54033-.06646 .19734-.02111.39466-.02896.59317-.02364 .17427.00126.3488.00518.52224.02344s.34578.05113.51782.08192c.13951.03398.27517.08255.4065.14057 .13728.061.26711.13654.38634.22836 .1482.11624.28742.24263.4156.38083 .16046.16298.31884.32887.49192.47863l-1.27698.78254z" fill="#e70000"/>
   <path transform="translate(392.1 387.24)" d="m141.82576,144.58546c.14315.12916.28861.25526.43701.37829 .13854.11156.29199.20046.44578.28858 .12077.06177.25168.10577.38344.13776 .16972.03324.34352.03494.51582.0386l.66848.00119c.22718-.01877.45354-.04116.6794-.0717 .28818-.02734.57079-.08763.85446-.14248 .31621-.06699.63037-.14229.94344-.2225 .48778-.12908.98316-.23063 1.47768-.33071 .14978-.02557.43559-.07784.58901-.09048l.39765-.01722c.41731-.01707.83469-.02956 1.25219-.0411 .57625-.02083 1.1527-9e-005 1.72738.04242 .31893.10081.64764.17694.96149.29374 .39952.14868.78998.33037 1.18254.49644 .38854.20177.78793.38444 1.17165.59559 .36789.20243.72377.42859 1.0822.64712 .60515.44101 1.19123.90678 1.76008,1.39348 .28474.23871.54019.50745.7574.80854 .17042.23375.31965.48168.46954.72879 .12256.20108.24223.40287.34634.61415 .04566.09749.09199.19449.13225.29435l-.52066.77316c-.03437-.1008-.08046-.19573-.12219-.2936-.10078-.2117-.20937-.41764-.33512-.61604-.14731-.24688-.29259-.49555-.46194-.72828-.208-.30187-.45486-.57226-.7272-.81783-.54723-.50555-1.11743-.98847-1.73475-1.40713-.71952-.46031-1.46111-.88736-2.23967-1.24096-.69179-.30178-1.39241-.59986-2.13766-.74215-.56598-.0525-1.13475-.07847-1.70325-.06929-.7466.01066-1.4973.02526-2.23235.17103-.50028.10209-.9961.22105-1.48733.36041-.31462.07817-.62937.15554-.94722.21975-.28618.05873-.57267.11595-.8634.14782-.22962.03123-.46032.0554-.6917.06876l-.67044-.0012c-.17963-.00249-.36096-.0041-.53727-.04272-.13992-.03521-.27874-.0824-.40566-.15164-.15766-.09163-.31333-.1865-.45609-.3007-.14937-.12043-.28999-.2509-.44208-.36788l.48075-.80436z" fill="#e70000"/>
   <path transform="translate(392.1 387.24)" d="m139.97926,148.18398c-.13641-.10575-.27098-.21396-.40471-.32309-.13618-.10792-.25867-.23134-.38823-.34674-.10197-.09425-.21602-.17339-.32447-.25964-.08956-.06877-.18749-.12504-.28256-.18559-.11848-.06306-.23135-.13534-.3455-.20571-.13644-.09581-.28926-.16206-.43993-.23156-.15887-.07527-.32395-.13689-.49124-.19062-.15685-.05779-.31957-.09416-.48203-.13153l-.52857-.10725-.49957-.0911-.49486-.06318c-.16735-.02221-.33144-.05428-.49459-.09707-.12868-.03299-.25701-.06722-.38432-.10513-.11588-.02554-.22458-.07206-.33536-.11288l-.45686-.18328c-.17271-.07929-.35129-.14447-.5281-.21382l-.55792-.20348-.45903-.16617-.35812-.13666-.4158-.16094c-.15736-.05567-.31715-.10485-.47765-.15074-.16966-.04054-.33895-.08259-.51107-.11136-.20817-.03941-.41864-.06391-.62716-.10139l-.62737-.08591c-.20629-.0214-.41171-.04789-.61884-.06059-.16454-.01922-.32908-.03778-.49451-.0471-.11912-.01823-.2383-.03477-.35852-.04345-.11583-.00058-.2294-.02336-.34418-.03619-.11299-.00301-.22316-.02737-.33463-.04334-.1196-.01089-.23738-.0337-.35689-.04604-.15441-.02867-.3104-.04488-.46702-.05438-.12777.00265-.25328-.01861-.37953-.03431l-.28583-.0151-.3276-.00044-.31551.00035-.31246,2e-005c-.10409-.00685-.2059.01538-.30856.02879-.06371.0047-.12512.02372-.18754.03654l.28742-.59412c.06344-.01356.12677-.02857.19164-.03362 .10502-.01401.20993-.03102.31634-.02499l.31243-2e-005 .31532-.0001 .32862.00091c.09781.00153.19573.00418.29267.01865 .12386.01769.2473.03707.37286.03721 .1576.01038.31407.02999.47013.05426l.36172.04345c.11004.01772.21934.03972.33106.04438 .11442.01261.22807.03235.34349.03361 .11921.01123.23734.03003.35598.04597 .1645.01263.32783.03486.49181.05269l.62091.06306c.21074.02493.42151.05198.63061.08814s.41899.06169.62743.09934c.17497.02871.34774.06921.51983.11172l.48087.15298c.14011.05023.27762.10746.41778.15762 .11992.04389.23883.09067.35743.13792l.45534.17031c.18815.06423.37544.13131.55984.20569s.35687.13416.531.21185l.45608.17843c.11025.03943.21921.08195.3334.10937l.38002.10807c.15981.04316.32189.07201.48603.09363l.49807.06542 .49958.0921c.17746.03378.35463.06858.53097.10779 .16478.03681.3292.07543.48816.13341 .16856.05727.33535.11991.49652.19581 .15345.06952.30903.136.44804.23264 .11554.06882.22915.14063.34799.20373 .09772.06099.19854.11741.28888.18946 .10882.08782.22259.16947.32514.26489 .12957.1144.24999.23905.38444.34807s.26415.21495.40534.30941l-.33455.57094z" fill="#e70000"/>
   <path transform="translate(392.1 387.24)" d="m125.9899,154.4872c.19246-.13767.37562-.28723.56088-.43427 .22035-.18201.44446-.35941.67446-.52905 .38742-.27697.79222-.52845 1.19099-.78854 .68474-.45544 1.40963-.84505 2.12088-1.25671-2.17197,1.25679-1.24109.72948-.76404.422l.45231-.30425c.13273-.08659.27048-.16397.39973-.25583l.49575-.36112c.21457-.15245.42949-.30436.64238-.45919 .26599-.20112.53703-.39459.81433-.57976 .56851-.38932 1.1615-.74103 1.75113-1.09712l.25575-.15196c1.67654-.97267 2.00674-1.15521.40661-.23718l.16029-.09378c1.41495-.81715.9187-.55776 1.52547-.8718 .16528-.10209.34687-.16925.52224-.24934 .02231-.00804.04514-.01476.06693-.02411 .10261-.04403.01959-.01989.12553-.05621 .06387-.0219.12794-.03153.19112-.05582 .12492-.04326.25692-.05253.3879-.05817l.48642.00027c.15833-.0144.31018.01201.46537.03681 .13168.00879.25592.05188.38605.07162 .12864.03359.25295.08056.38181.11302 .12577.04352.25034.09247.37925.12624 .12694.01765.24761.05853.3745.07753l.06141.0064-1.22118.86113-.06486-.01157-.38312-.09097c-.12588-.04187-.25121-.08553-.37808-.1243-.12335-.03827-.24706-.07688-.37411-.10108-.12717-.02672-.25342-.05542-.38285-.06965-.14814-.02306-.29657-.02398-.44639-.02175-.16214.00021-.32472-.00031-.48634.01416-.12521.01449-.24745.04135-.3656.08626-.12923.03599-.2496.09415-.3735.14486-.17111.06903-.3324.15983-.49632.24403-.49934.27099-.13007.07205.97437-.56824l-.16973.09717-1.41988.81909 .71788-.41662c-.58153.34422-1.16293.69008-1.7185,1.07525-.26533.18562-.53329.36719-.79054.56396-.20694.15771-.41856.30953-.63331.45631-.16015.12218-.32789.23416-.48504.36042-.13026.09073-.25503.18764-.39608.26166-.1568.09261-.30357.20213-.45654.30096-.55573.40054-1.21883.63578-1.76574,1.04833-.49439.27524-.05956.03393 1.03408-.60151l-.13504.07659-.54343.33523c-.38769.25414-.78219.49827-1.15811.76995-.23434.15876-.45285.33998-.67242.51833-.17571.14386-.3498.29059-.5336.42392l-1.39147.5584z" fill="#e70000"/>
   <path transform="translate(392.1 387.24)" d="m124.5439,149.05122 .58977-.37817c.21238-.14275.43006-.27733.64742-.4123 .63383-.40754 1.28092-.79847 1.95899-1.12801 .19054-.10945.39198-.19782.58499-.30228 .16094-.08594.32746-.16114.48861-.24663 .16551-.0749.32833-.15479.49291-.23193 .19507-.08092.39336-.15269.58716-.23677 .22498-.10822.45108-.21177.67958-.31246 .24349-.11653.49544-.21461.75377-.29283 .26849-.0965.54309-.17056.81815-.24489 .26279-.06576.52972-.11396.7985-.14794 .20917-.02169.4158-.06083.62545-.08084 .16859-.01134.33757-.01105.50644-.012l.54332.00216 .65792.00173c.22405-.00917.45074-.02594.67262-.06051 .26095-.04059.51944-.10032.77668-.16053 .24795-.06443.49286-.13898.73841-.21186 .21502-.06976.43403-.12513.64638-.20336 .17496-.06428.35744-.10996.53001-.18012 .1322-.03627.2625-.07998.39655-.1093 .0217-.00342.04381-.00487.06511-.01025 .20325-.05127-.09884.00827.13029-.03646 .07478-.01459.14637-.02241.21948-.0445 .13366-.04005.27246-.05247.41112-.05899 .12655-.01215.25024-.04408.37808-.056s.25565-.00963.38353-.00997l.37928.00047 .37876.00019h.06313l-1.20906.87841-.06314-1e-005-.37886-.00031-.37826.00093c-.12474.00225-.24979.00559-.37348.02339-.12707.01962-.2527.04871-.3819.05027-.1336.01439-.26459.04127-.39446.07578l-.41574.09518c-.1288.03818-.2597.06888-.38521.11761-.17465.05358-.34704.11454-.52064.1714l-.65115.19832c-.24461.07202-.49047.13999-.73848.19938-.26222.05589-.52279.12267-.78955.15364-.22761.02427-.45619.05028-.68542.04607l-.66218.00118-.5469.00186c-.16568.00127-.33168.00449-.49654.02241-.20463.02259-.40773.05654-.61262.07698-.2634.03738-.52447.09104-.78164.15925-.27435.07404-.54458.16114-.81402.25136-.25495.08958-.50438.19265-.74891.30778l-.68349.31264c-.19606.08112-.396.15313-.58762.24469l-.49297.23745-.48794.24719c-.1938.09462-.38475.19476-.57673.29297-.45682.23195-1.11943.63354.91712-.54544l-.12118.07162-.11843.07334-.11479.07439c-.21158.1421-.43451.26681-.64614.40906-.18664.12758-.37722.24843-.56769.36998l-1.39439.54558z" fill="#e70000"/>
  </g>
  <path transform="translate(392.1 387.24)" d="m52.78 70.774c28.727-20.842 56.584-23.375 84.853-13.637 6.424 1.1513-15.724-23.463-45.204-20.329-26.576 4.9016-45.647 33.848-39.648 33.966z" fill="#162a0a" fill-rule="evenodd"/>
  <path d="m525.1 437.17s-27.957-4.5746-36.516-3.4753-19.577 7.1549-19.577 7.1549 12.828-4.2464 21.296-5.0693 34.797 1.3897 34.797 1.3897z" fill="#203c0e" fill-rule="evenodd"/>
  <path d="m521.27 434.91s-27.773-5.5862-36.365-4.7982-19.824 6.4397-19.824 6.4397 12.974-3.778 21.466-4.2931 34.724 2.6516 34.724 2.6516z" fill="#203c0e" fill-rule="evenodd"/>
  <path d="m445.69 453.29s14.825-13.228 20.218-15.694 13.924-2.7025 13.924-2.7025-8.9727 2.0508-14.218 4.6584-19.924 13.738-19.924 13.738z" fill="#203c0e" fill-rule="evenodd"/>
  <path d="m455.99 440.79s23.883-16.429 32.415-15.799c8.3982 0.62021 17.608 2.4391 17.608 2.4391s-12.795-0.29726-18.159-0.67407c-5.4799-0.3849-31.863 14.034-31.863 14.034z" fill="#203c0e" fill-rule="evenodd"/>
  <path d="m444.07 457.51s15.531-12.391 21.052-14.556 17.714-3.9515 17.714-3.9515-12.355 3.6998-17.736 6.0145-21.029 12.493-21.029 12.493z" fill="#203c0e" fill-rule="evenodd"/>
  <path d="m494.25 428.85s8.593-0.53841 11.743-0.12627 9.0914 2.5254 9.0914 2.5254-5.7141-0.89169-8.8388-1.2627-11.996-1.1364-11.996-1.1364z" fill="#203c0e" fill-rule="evenodd"/>
  <path d="m508.37 437.21s8.5889 0.60037 11.657 1.4246 8.6786 3.7032 8.6786 3.7032-5.5464-1.638-8.5949-2.4182-11.741-2.7096-11.741-2.7096z" fill="#203c0e" fill-rule="evenodd"/>
 </g>
</svg>
