<?xml version="1.0" encoding="UTF-8"?>
<svg version="1.1" viewBox="0 0 545.72419 579.22814" xmlns="http://www.w3.org/2000/svg" xmlns:xlink="http://www.w3.org/1999/xlink">
 <defs>
  <filter id="bx" color-interpolation-filters="sRGB">
   <feGaussianBlur stdDeviation="3.486"/>
  </filter>
  <filter id="bz" color-interpolation-filters="sRGB">
   <feGaussianBlur stdDeviation="7.51"/>
  </filter>
  <filter id="aw" color-interpolation-filters="sRGB">
   <feGaussianBlur stdDeviation="4.038"/>
  </filter>
  <filter id="ax" color-interpolation-filters="sRGB">
   <feGaussianBlur stdDeviation="3.2747"/>
  </filter>
  <filter id="ay" color-interpolation-filters="sRGB">
   <feGaussianBlur stdDeviation="2.458"/>
  </filter>
  <filter id="cd" color-interpolation-filters="sRGB">
   <feGaussianBlur stdDeviation="2.2333"/>
  </filter>
  <filter id="bw" x="-.09514" y="-.16246" width="1.1903" height="1.3249" color-interpolation-filters="sRGB">
   <feGaussianBlur stdDeviation="11.0529"/>
  </filter>
  <filter id="av" x="-.08814" y="-.18791" width="1.1763" height="1.3758" color-interpolation-filters="sRGB">
   <feGaussianBlur stdDeviation="12.5369"/>
  </filter>
  <filter id="cc" x="-.03273" y="-.36" width="1.0654" height="1.72" color-interpolation-filters="sRGB">
   <feGaussianBlur stdDeviation="10.9921"/>
  </filter>
  <linearGradient id="c">
   <stop stop-color="#dfbe00" offset="0"/>
   <stop stop-color="#deaf00" offset=".8"/>
   <stop stop-color="#dea101" offset="1"/>
  </linearGradient>
  <linearGradient id="a">
   <stop stop-color="#fff" offset="0"/>
   <stop stop-color="#fff" stop-opacity="0" offset="1"/>
  </linearGradient>
  <linearGradient id="ce" x1="516.67" x2="516.92" y1="917.33" y2="941.08" gradientTransform="translate(-240.99 -347.05)" gradientUnits="userSpaceOnUse">
   <stop stop-color="#3c3c3c" offset="0"/>
   <stop stop-color="#a0a0a0" stop-opacity="0" offset="1"/>
  </linearGradient>
  <linearGradient id="cj" x2="0" y1="457.32" y2="600.03" gradientTransform="translate(-240.99 -347.05)" gradientUnits="userSpaceOnUse">
   <stop stop-color="#fff" offset="0"/>
   <stop stop-color="#bebebe" offset="1"/>
  </linearGradient>
  <linearGradient id="ck" x2="0" y1="-9.6422" y2="360.62" gradientUnits="userSpaceOnUse" xlink:href="#a"/>
  <linearGradient id="az" x2="0" y1="806.09" y2="888.87" gradientUnits="userSpaceOnUse" xlink:href="#a"/>
  <linearGradient id="cf" x1="938.65" x2="1242.6" y1="638.37" y2="401.18" gradientTransform="matrix(-1 0 0 1 1804.7 -304.63)" gradientUnits="userSpaceOnUse" xlink:href="#a"/>
  <linearGradient id="cg" x1="-85.351" x2="218.62" y1="682.73" y2="445.53" gradientTransform="translate(-240.99 -347.05)" gradientUnits="userSpaceOnUse" xlink:href="#a"/>
  <radialGradient id="bg" cx="510.07" cy="418.72" r="90.912" gradientTransform="matrix(1 -9.7786e-8 7.8572e-8 .80351 -240.99 -264.78)" gradientUnits="userSpaceOnUse" xlink:href="#c"/>
  <radialGradient id="bh" cx="317.23" cy="898.07" r="170.68" gradientTransform="matrix(1 0 0 .46908 -240.99 110.11)" gradientUnits="userSpaceOnUse" xlink:href="#c"/>
  <radialGradient id="bi" cx="712.56" cy="902.18" r="170.68" gradientTransform="matrix(1 0 0 .46908 -240.99 110.11)" gradientUnits="userSpaceOnUse" xlink:href="#c"/>
  <linearGradient id="bs" x1="694.89" x2="1278.3" y1="-46.276" y2="-46.276" gradientTransform="matrix(.9986 -.0523 .0523 .9986 -7.1287 150.28)" gradientUnits="userSpaceOnUse">
   <stop stop-color="#9C420F" offset="0"/>
   <stop stop-color="#EE6321" offset=".1576"/>
   <stop stop-color="#EF6720" offset=".2028"/>
   <stop stop-color="#F0751D" offset=".2526"/>
   <stop stop-color="#F38B18" offset=".3045"/>
   <stop stop-color="#F6AA11" offset=".3579"/>
   <stop stop-color="#FBD108" offset=".412"/>
   <stop stop-color="#FFF101" offset=".45"/>
   <stop stop-color="#FFF101" offset=".55"/>
   <stop stop-color="#FEEC02" offset=".5578"/>
   <stop stop-color="#F9BB0D" offset=".6334"/>
   <stop stop-color="#F49516" offset=".705"/>
   <stop stop-color="#F1791C" offset=".7708"/>
   <stop stop-color="#EF6920" offset=".8288"/>
   <stop stop-color="#EE6321" offset=".8727"/>
   <stop stop-color="#A1420E" offset="1"/>
  </linearGradient>
  <linearGradient id="bt" x1="680.15" x2="1288.4" y1="6.9566" y2="6.9566" gradientTransform="matrix(.9986 -.0523 .0523 .9986 -7.1287 150.28)" gradientUnits="userSpaceOnUse">
   <stop stop-color="#9C420F" offset="0"/>
   <stop stop-color="#EE6321" offset=".1576"/>
   <stop stop-color="#EF6720" offset=".2028"/>
   <stop stop-color="#F0751D" offset=".2526"/>
   <stop stop-color="#F38B18" offset=".3045"/>
   <stop stop-color="#F6AA11" offset=".3579"/>
   <stop stop-color="#FBD108" offset=".412"/>
   <stop stop-color="#FFF101" offset=".45"/>
   <stop stop-color="#FFF101" offset=".55"/>
   <stop stop-color="#FEEC02" offset=".5578"/>
   <stop stop-color="#F9BB0D" offset=".6334"/>
   <stop stop-color="#F49516" offset=".705"/>
   <stop stop-color="#F1791C" offset=".7708"/>
   <stop stop-color="#EF6920" offset=".8288"/>
   <stop stop-color="#EE6321" offset=".8727"/>
   <stop stop-color="#A1420E" offset="1"/>
  </linearGradient>
  <linearGradient id="b">
   <stop stop-opacity="0" offset="0"/>
   <stop stop-opacity="0" offset=".5"/>
   <stop stop-opacity=".37069" offset="1"/>
  </linearGradient>
  <filter id="bu" x="-.11576" y="-.12456" width="1.2315" height="1.2491" color-interpolation-filters="sRGB">
   <feGaussianBlur stdDeviation="6.0922"/>
  </filter>
  <filter id="bv" x="-.11576" y="-.12456" width="1.2315" height="1.2491" color-interpolation-filters="sRGB">
   <feGaussianBlur stdDeviation="6.0922"/>
  </filter>
  <linearGradient id="ch" x1="-85.351" x2="218.62" y1="682.73" y2="445.53" gradientTransform="translate(1310.5 230.12)" gradientUnits="userSpaceOnUse">
   <stop stop-color="#fff" offset="0"/>
   <stop stop-color="#fff" stop-opacity="0" offset="1"/>
  </linearGradient>
  <filter id="ca" color-interpolation-filters="sRGB">
   <feGaussianBlur stdDeviation="4.038"/>
  </filter>
  <filter id="cb" color-interpolation-filters="sRGB">
   <feGaussianBlur stdDeviation="3.2747"/>
  </filter>
  <linearGradient id="ci" x1="437.25" x2="474.75" y1="208.29" y2="268.07" gradientTransform="translate(843.31 -579.55)" gradientUnits="userSpaceOnUse" xlink:href="#a"/>
  <linearGradient id="cl" x1="560.17" x2="529.29" y1="366.22" y2="418.5" gradientTransform="translate(-240.99 -347.05)" gradientUnits="userSpaceOnUse" xlink:href="#a"/>
  <filter id="by" color-interpolation-filters="sRGB">
   <feGaussianBlur stdDeviation="3.486"/>
  </filter>
  <radialGradient id="bj" cx="1619.9" cy="319.54" r="89.638" gradientTransform="matrix(-.75176 -.93075 .35943 -.24791 2560.4 1691.3)" gradientUnits="userSpaceOnUse" xlink:href="#a"/>
  <linearGradient id="cm" x1="437.25" x2="474.75" y1="208.29" y2="268.07" gradientTransform="translate(1035.7 -145.45)" gradientUnits="userSpaceOnUse" xlink:href="#a"/>
  <radialGradient id="bk" cx="1619.9" cy="319.54" r="89.638" gradientTransform="matrix(-.75176 -.93075 .35943 -.24791 2511.8 1778.3)" gradientUnits="userSpaceOnUse" xlink:href="#a"/>
  <linearGradient id="bb" x1="479.59" x2="487.35" y1="261.58" y2="289.72" gradientTransform="translate(1035.7 -145.45)" gradientUnits="userSpaceOnUse" xlink:href="#a"/>
  <linearGradient id="bc" x1="452.01" x2="469.79" y1="292.49" y2="325.83" gradientTransform="translate(1035.7 -145.45)" gradientUnits="userSpaceOnUse">
   <stop stop-color="#3c3c3c" offset="0"/>
   <stop stop-color="#3c3c3c" stop-opacity="0" offset="1"/>
  </linearGradient>
  <radialGradient id="bl" cx="515.86" cy="519.24" r="76.269" gradientTransform="matrix(2.2584 10.086 -5.5578 .96979 736.21 -5654.7)" gradientUnits="userSpaceOnUse" xlink:href="#b"/>
  <linearGradient id="ba" x1="554.99" x2="553.8" y1="504.5" y2="388.14" gradientUnits="userSpaceOnUse">
   <stop stop-opacity="0" offset="0"/>
   <stop stop-opacity=".37069" offset="1"/>
  </linearGradient>
  <radialGradient id="bm" cx="453.75" cy="542.71" r="77.982" gradientTransform="matrix(6.0897 -1.9352 1.019 2.4987 -4453.9 -339.16)" gradientUnits="userSpaceOnUse" xlink:href="#b"/>
  <radialGradient id="bn" cx="515.86" cy="519.24" r="76.269" gradientTransform="matrix(-2.2584 10.086 5.5578 .96979 -2502.3 -5408.2)" gradientUnits="userSpaceOnUse" xlink:href="#b"/>
  <radialGradient id="bo" cx="453.75" cy="542.71" r="77.982" gradientTransform="matrix(-6.0897 -1.9352 -1.019 2.4987 2687.8 -92.693)" gradientUnits="userSpaceOnUse" xlink:href="#b"/>
  <radialGradient id="bp" cx="430.04" cy="269.02" r="77.137" gradientTransform="matrix(1.2217 0 0 1.5467 -116.54 -134.53)" gradientUnits="userSpaceOnUse">
   <stop stop-color="#d2d2d2" offset="0"/>
   <stop stop-color="#d2d2d2" offset=".88"/>
   <stop stop-color="#808080" offset="1"/>
  </radialGradient>
  <linearGradient id="bd" x1="437.25" x2="474.75" y1="208.29" y2="268.07" gradientUnits="userSpaceOnUse" xlink:href="#a"/>
  <radialGradient id="bq" cx="1619.9" cy="319.54" r="89.638" gradientTransform="matrix(-.75176 -.93075 .35943 -.24791 1476.1 1923.8)" gradientUnits="userSpaceOnUse" xlink:href="#a"/>
  <linearGradient id="be" x1="479.59" x2="487.35" y1="261.58" y2="289.72" gradientUnits="userSpaceOnUse" xlink:href="#a"/>
  <linearGradient id="bf" x1="452.01" x2="469.79" y1="292.49" y2="325.83" gradientUnits="userSpaceOnUse">
   <stop stop-color="#3c3c3c" offset="0"/>
   <stop stop-color="#3c3c3c" stop-opacity="0" offset="1"/>
  </linearGradient>
  <radialGradient id="br" cx="430.04" cy="269.02" r="77.137" gradientTransform="matrix(1.2217 0 0 1.5467 919.18 -279.97)" gradientUnits="userSpaceOnUse">
   <stop stop-color="#d2d2d2" offset="0"/>
   <stop stop-color="#d2d2d2" offset=".88"/>
   <stop stop-color="#808080" offset="1"/>
  </radialGradient>
 </defs>
 <g transform="matrix(.83769 0 0 .90776 385.67 -322.83)" fill-rule="evenodd">
  <g transform="matrix(-2.8956 0 0 2.5561 687.67 -1003.9)">
   <path d="m503.03 358.19c-3.4203 0.2708-6.1851 1.1414-8.1562 2.5938-1.94 1.4295-3.6044 3.7677-5.5625 6.875s-4.1283 6.9967-6.6562 11.531c-5.0559 9.0691-11.52 20.647-20.188 33.062-22.527 31.244-45.194 50.673-85.953 73.734 49.358-19.118 74.233-51.656 89.234-71.453 8.8018-12.608 15.35-24.306 20.406-33.375 2.5279-4.5345 4.668-8.4182 6.5312-11.375s3.5123-4.9762 4.5625-5.75c2.0382-1.5018 8.4571-2.6727 17.156-0.90625s19.745 6.1634 31.656 14.594c23.822 16.861 51.121 49.827 70.219 109.94 19.116 60.167 23.674 118.36 23.125 161.88-0.27439 21.756-1.8358 39.837-3.4688 52.656-0.81645 6.4094-1.6389 11.504-2.3438 15.062-0.35244 1.7791-0.6793 3.1652-0.9375 4.125-0.0741 0.27525-0.12627 0.42728-0.1875 0.625-0.29416-0.10576-0.6069-0.22961-1.1562-0.59375-1.4531-0.9632-3.4376-2.7955-5.3438-5.1875-3.8122-4.7839-7.3691-11.771-7.6562-18.375-0.14313-3.2917 0.21042-14.979 0.0625-31.25s-0.82613-37.299-3.1562-59.969c-1.5201-15.708-9.7176-89.09-45.5-131.22 29.072 39.078 37.192 98.718 41.531 131.62 2.3126 22.499 2.9778 43.405 3.125 59.594s-0.23415 27.458-0.0625 31.406c0.34241 7.8754 4.317 15.368 8.5312 20.656 2.1071 2.6442 4.2604 4.7437 6.25 6.0625 0.9948 0.65941 1.9372 1.139 3 1.3438s2.5658-0.0432 3.4062-1.0938c0.43167-0.53959 0.45417-0.79796 0.59375-1.1875s0.29011-0.82714 0.4375-1.375c0.29478-1.0957 0.60437-2.5669 0.96875-4.4062 0.72875-3.6788 1.58-8.8578 2.4062-15.344 1.6524-12.972 3.2236-31.208 3.5-53.125 0.55287-43.835-4.0272-102.42-23.312-163.12-19.303-60.758-47.067-94.521-71.719-111.97-12.326-8.7241-23.867-13.357-33.188-15.25-4.6604-0.94633-8.736-1.302-12.156-1.0312z"/>
   <path d="m570.51 523.09c14.389 25.997 18.658 58.831 21.928 81.065 1.4871 11.858 2.2508 22.399 2.7812 30.719s0.7701 14.247 1.5 17.531c1.4088 6.3394 6.0016 12.47 10.25 16.469 2.1242 1.9992 4.0737 3.4598 6 4.125 0.96313 0.33259 2.1592 0.59403 3.3438-0.1875s1.4586-2.2581 1.3438-3.4062c-0.0938-0.93115-0.82081-1.6727-1.7499-1.7851s-1.8119 0.43448-2.1251 1.3164c-0.92904-0.45067-2.4249-1.4275-4.0625-2.9688-3.778-3.5558-7.9844-9.4143-9.0938-14.406-0.52914-2.3811-0.90562-8.5948-1.4375-16.938s-1.2782-18.984-2.7812-30.969c-0.77985-6.3172-6.7464-59.118-25.897-80.565z"/>
   <path d="m550.33 526.96c8.8185 14.965 13.752 31.553 18.136 47.7 3.1936 12.852 4.2794 22.742 5.5938 28.656 1.43 6.4352 6.5345 12.696 11.438 16.5 2.4515 1.902 4.7714 3.2736 7.2188 3.4062 1.2237 0.0663 2.638-0.32002 3.5625-1.3438s1.25-2.3946 1.25-3.875c0.0102-0.72127-0.36875-1.3922-0.99175-1.7558s-1.3935-0.36361-2.0165 0-1.002 1.0345-0.99175 1.7558c0 0.88035-0.20389 1.171-0.21875 1.1875-0.0149 0.0165 0.0341 0.0534-0.375 0.0312-0.8183-0.0444-2.8875-0.92347-5-2.5625-4.2251-3.2781-8.8807-9.3225-9.9688-14.219-1.2037-5.4169-2.3348-15.635-5.5938-28.75-1.6333-5.9499-8.5109-31.172-22.042-46.731z"/>
   <path d="m507.28 422.06c-4.6965 52.885 13.284 88.928 25.406 112.97 4.7039 8.9374 9.6478 18.973 13.688 27.562s7.2029 15.828 8.2188 18.875c2.4021 7.2063 7.5228 11.466 12.125 12.781 2.3011 0.65746 4.6251 0.67192 6.4375-0.625s2.4066-3.8973 1.625-6.4375c-0.32792-1.0614-1.4542-1.656-2.5156-1.3281s-1.656 1.4542-1.3281 2.5156c0.47744 1.5517 0.20694 1.7625-0.125 2s-1.4453 0.47545-3 0.0312c-3.1094-0.8884-7.4017-4.1738-9.4062-10.188-1.1875-3.5625-4.3408-10.7-8.4062-19.344s-9.0423-18.684-13.781-27.688c-2.537-5.7744-26.468-45.887-28.938-111.12z"/>
  </g>
  <g transform="matrix(-2.8956 0 0 2.5561 687.67 -1003.9)">
   <path d="m493.79 489.36c4.154 22.968 10.416 41.909 20.554 60.238 6.1035 9.8251 12.141 15.426 17.25 18.125 2.5545 1.3497 4.882 1.961 6.9375 1.9375s3.9723-0.78345 5.0312-2.375c1.1265-1.6932 1.1028-3.6122 0.9375-5.8438s-0.64693-4.7744-1.2812-7.4688c-1.2686-5.3886-3.1694-11.319-4.5312-15.562-0.33655-1.0528-1.4628-1.6334-2.5156-1.2969s-1.6334 1.4628-1.2969 2.5156c1.3618 4.2431 3.2553 10.096 4.4688 15.25 0.60673 2.5771 1.0172 4.9978 1.1562 6.875s-0.19138 3.1774-0.28125 3.3125c-0.15748 0.2367-0.56287 0.58054-1.7188 0.59375-1.1559 0.0132-2.9173-0.38308-5.0312-1.5-4.2279-2.2338-9.8846-7.2959-15.719-16.688-9.4882-18.741-15.135-31.691-23.961-58.113z"/>
   <path d="m483.58 515.28c4.381 19.473 12.943 36.275 21.073 51.935 4.9698 8.3179 9.9638 13.109 14.25 15.469 2.1431 1.1798 4.0883 1.7747 5.875 1.7812 1.7867 7e-3 3.5245-0.66766 4.5-2.0938 1.0443-1.5266 1.0172-3.1684 0.90625-5.0625s-0.47349-4.045-0.96875-6.3125c-0.99052-4.535-2.4842-9.5018-3.5625-13.062-0.31929-1.0614-1.4386-1.663-2.5-1.3438s-1.663 1.4386-1.3438 2.5c1.0783 3.5607 2.5606 8.4492 3.5 12.75 0.46968 2.1504 0.81599 4.1465 0.90625 5.6875 0.0903 1.541-0.22913 2.6089-0.21875 2.5938-0.0584 0.0854-0.30491 0.34701-1.1875 0.34375-0.88259-3e-3 -2.2945-0.34233-4-1.2812-3.411-1.8778-8.01-6.1504-12.719-14.031-3.8261-5.2724-16.817-30.204-24.51-49.873z"/>
   <path d="m478.73 534.76c3.149 23.416 8.867 36.118 13.24 44.8 4.0997 7.7348 8.3748 12.282 12.156 14.625 1.8907 1.1716 3.663 1.8183 5.3125 1.9062s3.2959-0.44474 4.2812-1.75c1.0586-1.4024 1.11-2.9288 1.0938-4.6562-0.0163-1.7275-0.24869-3.68-0.59375-5.75-0.69012-4.1399-1.8465-8.6823-2.6562-11.938-0.13964-0.7278-0.67022-1.3187-1.3788-1.5357s-1.4791-0.0243-2.0022 0.50056c-0.52315 0.52489-0.71322 1.296-0.49394 2.0039 0.80976 3.2552 1.9116 7.7204 2.5625 11.625 0.32544 1.9523 0.54953 3.7494 0.5625 5.125 0.013 1.3756-0.34684 2.3056-0.28125 2.2188-8e-3 0.0102-0.13279 0.19582-0.875 0.15625-0.74221-0.0396-1.9723-0.37333-3.4375-1.2812-2.9304-1.8158-6.8568-5.8387-10.719-13.125-2.0572-2.8499-8.5431-15.288-16.771-42.925z"/>
   <path d="m472.06 550.29c0.74287 7.4761 1.9232 13.861 3.3109 19.35 2.4956 9.8706 5.6621 16.842 8.1623 22.042 3.2834 6.7407 6.7804 10.794 9.9688 12.938 1.5942 1.0719 3.0999 1.6869 4.5625 1.8125s3.0032-0.31438 3.9375-1.5c1.0097-1.2813 1.0679-2.596 1.0938-4.0938 0.0259-1.4977-0.13101-3.2166-0.375-5-0.48798-3.5669-1.3311-7.4816-1.9375-10.281-0.24162-1.0873-1.3189-1.7729-2.4062-1.5312s-1.7729 1.3189-1.5312 2.4062c0.60643 2.7997 1.4501 6.6344 1.9062 9.9688 0.22808 1.6672 0.36363 3.1923 0.34375 4.3438-0.0199 1.1514-0.36444 1.9036-0.21875 1.7188 0.0703-0.0892 0.0749 0.0154-0.46875-0.0312-0.5436-0.0467-1.5097-0.33309-2.6875-1.125-2.3555-1.5838-5.5297-5.0847-8.5938-11.375-2.3589-3.1684-9.604-19.128-15.067-39.643z"/>
   <path d="m439.16 598.66c1.7988 8.1293 4.5351 13.411 7.375 16.531 1.42 1.5602 2.8497 2.5849 4.3438 3.0938s3.2205 0.45342 4.4688-0.53125c1.3447-1.0607 1.7182-2.4695 2.125-4.0625s0.68115-3.4518 0.875-5.4375c0.3877-3.9714 0.46629-8.4064 0.53125-11.594 0.0259-1.1046-0.84856-2.021-1.9531-2.0469-1.1046-0.0259-2.021 0.84856-2.0469 1.9531-0.065 3.1873-0.16624 7.5736-0.53125 11.312-0.1825 1.8695-0.42871 3.5857-0.75 4.8438s-0.88405 1.9807-0.75 1.875c0.0376-0.0297-0.0357 0.1176-0.65625-0.0937-0.62052-0.21135-1.6338-0.83913-2.7188-2.0312-2.17-2.3842-4.7147-7.043-6.4062-14.688-1.5168-7.1654-3.7234-29.417-2.9191-45.556-4.9669 14.267-2.3138 37.168-0.98715 46.431z"/>
   <path d="m424.31 542.56c-5.5158 20.036-3.4308 42.778-2.9688 51.094 0.99363 8.7091 3.2596 14.522 5.875 18.094 1.3077 1.7861 2.7032 3.0244 4.1875 3.7188s3.2094 0.80466 4.5938-0.0625c1.4891-0.93274 2.0586-2.3239 2.6562-3.9375s1.0803-3.5081 1.5-5.5625c0.83942-4.1088 1.427-8.763 1.8438-12.094 0.0984-0.71346-0.19429-1.4248-0.7664-1.8623s-1.3352-0.53365-1.998-0.25172-1.1228 0.8984-1.2044 1.614c-0.4167 3.3308-1.0199 7.9018-1.8125 11.781-0.39629 1.9398-0.83541 3.7118-1.3125 5s-1.1476 2.0104-1.0312 1.9375c0.0116-7e-3 -0.12905 0.11761-0.78125-0.1875s-1.6408-1.0818-2.6562-2.4688c-2.031-2.774-4.1876-7.9708-5.125-16.188-1.2913-8.9937-1.7569-36.404-1-50.625z"/>
   <path d="m410.37 538.56c-8.2119 16.17-7.738 38.062-7.9955 45.498 0.0819 9.1141 1.8084 15.368 4.125 19.344 1.1583 1.9879 2.4605 3.4363 3.9062 4.3125s3.2144 1.1923 4.7188 0.46875c1.6159-0.77718 2.3614-2.1546 3.1562-3.75s1.4963-3.5188 2.1562-5.5938c1.32-4.15 2.4219-8.8838 3.2188-12.281 0.25025-1.0787-0.42132-2.156-1.5-2.4062s-2.156 0.42132-2.4062 1.5c-0.79681 3.3975-1.8765 8.0434-3.125 11.969-0.62427 1.9627-1.2985 3.7488-1.9375 5.0312s-1.4076 1.952-1.3125 1.9062c-0.0165 8e-3 -0.20909 0.12235-0.875-0.28125s-1.6212-1.3131-2.5312-2.875c-1.8202-3.1237-3.5163-8.7586-3.5938-17.375-0.39493-8.8187 0.35181-28.548 3.9955-45.466z"/>
   <path d="m463.46 558.1c-0.52941 16.705 3.4929 26.524 7.6377 39.06 2.6002 6.6164 5.5143 10.709 8.2812 12.969 1.3835 1.1297 2.7206 1.8126 4.0938 2.0312s2.919-0.15941 3.8438-1.2812c1.002-1.2156 1.0944-2.4528 1.1875-3.875s8e-3 -3.0375-0.125-4.75c-0.26571-3.4251-0.81152-7.2026-1.2188-9.9062-0.16396-1.0959-1.1853-1.8515-2.2812-1.6875s-1.8515 1.1853-1.6875 2.2812c0.40723 2.7037 0.96995 6.4179 1.2188 9.625 0.1244 1.6036 0.16576 3.088 0.0937 4.1875-0.072 1.0996-0.43279 1.7843-0.25 1.5625 0.10551-0.12801 0.24504-0.0299-0.15625-0.0937-0.40129-0.0639-1.1957-0.40887-2.1875-1.2188-1.9836-1.6198-4.6667-5.1053-7.0938-11.281-2.5306-4.4428-7.4567-18.747-11.356-37.623z"/>
   <path d="m452.94 558.78c-2.4322 15.856 2.9508 35.585 4.375 41.75 1.9805 6.8276 4.5152 11.152 7.0625 13.656 1.2737 1.2522 2.559 2.0622 3.9062 2.4062s2.9135 0.12575 3.9375-0.90625c1.1096-1.1182 1.2764-2.3424 1.5-3.75s0.3185-3.0325 0.34375-4.75c0.0505-3.435-0.15571-7.2391-0.3125-9.9688-0.0604-1.1046-1.0048-1.951-2.1094-1.8906s-1.951 1.0048-1.8906 2.1094c0.15679 2.7297 0.35978 6.4711 0.3125 9.6875-0.0236 1.6082-0.10839 3.0992-0.28125 4.1875s-0.60867 1.7665-0.40625 1.5625c0.11684-0.11776 0.26871-0.0557-0.125-0.15625-0.39371-0.10054-1.1494-0.47732-2.0625-1.375-1.8261-1.7954-4.1826-5.5332-6.0312-11.906-1.8953-4.5051-6.0559-23.635-8.2188-40.656z"/>
   <path d="m388.75 542.28c-3.8162 11.383-3.4497 24.433-3.9375 30.719-0.72905 9.0853 0.45242 15.459 2.4062 19.625 0.97691 2.083 2.1379 3.6236 3.5 4.625s3.0623 1.4931 4.625 0.90625c1.6786-0.63038 2.5351-1.9504 3.4688-3.4688s1.8143-3.3669 2.6562-5.375c1.6839-4.0161 3.2167-8.6244 4.3125-11.938 0.28306-0.68889 0.15992-1.478-0.31956-2.0479s-1.2359-0.82621-1.963-0.66517-1.3046 0.71276-1.4986 1.4318c-1.0958 3.3131-2.626 7.8887-4.2188 11.688-0.79636 1.8994-1.6245 3.5919-2.375 4.8125s-1.5675 1.8496-1.4688 1.8125c-0.0172 6e-3 -0.21637 0.0862-0.84375-0.375-0.62738-0.46123-1.5137-1.4571-2.2812-3.0938-1.5351-3.2732-2.7228-10.596-2.9962-19.119-0.16592-5.1732 0.50926-17.055 0.93366-29.537z"/>
  </g>
  <path d="m-1095.1 707.69c1.8229-16.091 0 35.401-1.8228 72.411-1.8229 37.01-43.748 74.02-51.04 65.974-7.2913-8.0457-65.622-296.08 45.571-605.03 111.19-308.95 319-341.14 353.63-318.61 34.634 22.528-41.014 23.332-32.811 157.69 8.2028 134.36-53.817 239.99-78.382 281.2-27.343 45.86-57.419 102.58-63.799 119.48-12.76 33.792-54.685 38.619-47.394 17.7s-1.8229 9.6548-9.1142 38.619c-7.2914 28.964-56.508 62.756-56.508 38.619s-1.8228 57.929-9.1142 86.893-51.039 61.147-49.217 45.056z" fill="url(#bn)"/>
  <path transform="matrix(-2.8956 0 0 2.5561 844.03 -1003.9)" d="m436.52 514.92c-10.105-6.2898 35.974-26.357 66.415-56.027 30.597-29.823 46.585-62.952 52.565-61.064s2.8328 24.551 2.8328 44.381c1e-5 19.579 4.0919 36.827 2.8328 43.752s-30.847 1.8886-53.509 6.2952-67.063 25.198-71.136 22.663z" fill="url(#ba)" filter="url(#bu)"/>
  <path d="m-866.65 373.9c-7.8866 21.692-21.84 60.07-14.795 69.416 7.0443 9.3465 40.31 4.0138 74.877-45.106 34.567-49.12 59.562-148.29 59.562-148.29m-81.844 173.78c-6.2444 18.203-17.292 50.408-11.305 58.135s33.557 2.9032 61.582-38.503c28.025-41.406 60.97-127.37 60.97-127.37m-70.421 143.43c-4.6894 16.641-12.986 46.084-7.2352 52.809 5.751 6.7251 30.218 1.2985 53.272-37.097 23.054-38.396 48.296-117.12 48.296-117.12m-62.999 135.97c-3.512 14.313-9.7255 39.635-4.722 45.24 5.0036 5.605 25.417 0.4007 43.797-32.908 18.38-33.309 37.563-101.09 37.563-101.09m44.806 115.86c0.37616 16.294 1.0417 45.123 8.0526 50.005 7.0109 4.8822 27.465-5.5397 37.572-45.859 10.106-40.32 11.071-118.08 11.071-118.08m-7.8506 106.14c2.4132 17.028 6.6828 47.154 14.633 51.55 7.95 4.396 28.087-8.613 33.679-51.877s-3.0347-124.81-3.0347-124.81m7.6982 106.08c4.6144 17.369 12.778 48.098 21.586 51.837 8.8072 3.7394 28.13-11.764 28.591-57.085 0.46138-45.321-13.122-120.75-13.122-120.75m-220.8 142.71c-2.3584 13.822-6.5309 38.276-1.7868 43.357s22.605-0.94188 37.162-33.641c14.557-32.699 27.992-98.287 27.992-98.287m-24.511 100.55c-0.90802 13.955-2.5145 38.644 2.7389 43.318 5.2534 4.6738 22.411-2.7736 33.498-36.516s17.631-100.14 17.631-100.14m142.63 40.715c6.3461 16.937 17.574 46.904 26.723 49.937s26.833-13.926 22.726-59.104c-4.1068-45.178-5.9746-73.727-5.9746-73.727" fill="url(#bo)"/>
 </g>
 <g transform="matrix(.83769 0 0 .90776 1623.3 -100.8)" fill-rule="evenodd">
  <g transform="matrix(2.8956 0 0 2.5561 -2453.7 -1250.4)">
   <path d="m503.03 358.19c-3.4203 0.2708-6.1851 1.1414-8.1562 2.5938-1.94 1.4295-3.6044 3.7677-5.5625 6.875s-4.1283 6.9967-6.6562 11.531c-5.0559 9.0691-11.52 20.647-20.188 33.062-22.527 31.244-45.194 50.673-85.953 73.734 49.358-19.118 74.233-51.656 89.234-71.453 8.8018-12.608 15.35-24.306 20.406-33.375 2.5279-4.5345 4.668-8.4182 6.5312-11.375s3.5123-4.9762 4.5625-5.75c2.0382-1.5018 8.4571-2.6727 17.156-0.90625s19.745 6.1634 31.656 14.594c23.822 16.861 51.121 49.827 70.219 109.94 19.116 60.167 23.674 118.36 23.125 161.88-0.27439 21.756-1.8358 39.837-3.4688 52.656-0.81645 6.4094-1.6389 11.504-2.3438 15.062-0.35244 1.7791-0.6793 3.1652-0.9375 4.125-0.0741 0.27525-0.12627 0.42728-0.1875 0.625-0.29416-0.10576-0.6069-0.22961-1.1562-0.59375-1.4531-0.9632-3.4376-2.7955-5.3438-5.1875-3.8122-4.7839-7.3691-11.771-7.6562-18.375-0.14313-3.2917 0.21042-14.979 0.0625-31.25s-0.82613-37.299-3.1562-59.969c-1.5201-15.708-9.7176-89.09-45.5-131.22 29.072 39.078 37.192 98.718 41.531 131.62 2.3126 22.499 2.9778 43.405 3.125 59.594s-0.23415 27.458-0.0625 31.406c0.34241 7.8754 4.317 15.368 8.5312 20.656 2.1071 2.6442 4.2604 4.7437 6.25 6.0625 0.9948 0.65941 1.9372 1.139 3 1.3438s2.5658-0.0432 3.4062-1.0938c0.43167-0.53959 0.45417-0.79796 0.59375-1.1875s0.29011-0.82714 0.4375-1.375c0.29478-1.0957 0.60437-2.5669 0.96875-4.4062 0.72875-3.6788 1.58-8.8578 2.4062-15.344 1.6524-12.972 3.2236-31.208 3.5-53.125 0.55287-43.835-4.0272-102.42-23.312-163.12-19.303-60.758-47.067-94.521-71.719-111.97-12.326-8.7241-23.867-13.357-33.188-15.25-4.6604-0.94633-8.736-1.302-12.156-1.0312z"/>
   <path d="m570.51 523.09c14.389 25.997 18.658 58.831 21.928 81.065 1.4871 11.858 2.2508 22.399 2.7812 30.719s0.7701 14.247 1.5 17.531c1.4088 6.3394 6.0016 12.47 10.25 16.469 2.1242 1.9992 4.0737 3.4598 6 4.125 0.96313 0.33259 2.1592 0.59403 3.3438-0.1875s1.4586-2.2581 1.3438-3.4062c-0.0938-0.93115-0.82081-1.6727-1.7499-1.7851s-1.8119 0.43448-2.1251 1.3164c-0.92904-0.45067-2.4249-1.4275-4.0625-2.9688-3.778-3.5558-7.9844-9.4143-9.0938-14.406-0.52914-2.3811-0.90562-8.5948-1.4375-16.938s-1.2782-18.984-2.7812-30.969c-0.77985-6.3172-6.7464-59.118-25.897-80.565z"/>
   <path d="m550.33 526.96c8.8185 14.965 13.752 31.553 18.136 47.7 3.1936 12.852 4.2794 22.742 5.5938 28.656 1.43 6.4352 6.5345 12.696 11.438 16.5 2.4515 1.902 4.7714 3.2736 7.2188 3.4062 1.2237 0.0663 2.638-0.32002 3.5625-1.3438s1.25-2.3946 1.25-3.875c0.0102-0.72127-0.36875-1.3922-0.99175-1.7558s-1.3935-0.36361-2.0165 0-1.002 1.0345-0.99175 1.7558c0 0.88035-0.20389 1.171-0.21875 1.1875-0.0149 0.0165 0.0341 0.0534-0.375 0.0312-0.8183-0.0444-2.8875-0.92347-5-2.5625-4.2251-3.2781-8.8807-9.3225-9.9688-14.219-1.2037-5.4169-2.3348-15.635-5.5938-28.75-1.6333-5.9499-8.5109-31.172-22.042-46.731z"/>
   <path d="m507.28 422.06c-4.6965 52.885 13.284 88.928 25.406 112.97 4.7039 8.9374 9.6478 18.973 13.688 27.562s7.2029 15.828 8.2188 18.875c2.4021 7.2063 7.5228 11.466 12.125 12.781 2.3011 0.65746 4.6251 0.67192 6.4375-0.625s2.4066-3.8973 1.625-6.4375c-0.32792-1.0614-1.4542-1.656-2.5156-1.3281s-1.656 1.4542-1.3281 2.5156c0.47744 1.5517 0.20694 1.7625-0.125 2s-1.4453 0.47545-3 0.0312c-3.1094-0.8884-7.4017-4.1738-9.4062-10.188-1.1875-3.5625-4.3408-10.7-8.4062-19.344s-9.0423-18.684-13.781-27.688c-2.537-5.7744-26.468-45.887-28.938-111.12z"/>
  </g>
  <g transform="matrix(2.8956 0 0 2.5561 -2453.7 -1250.4)">
   <path d="m493.79 489.36c4.154 22.968 10.416 41.909 20.554 60.238 6.1035 9.8251 12.141 15.426 17.25 18.125 2.5545 1.3497 4.882 1.961 6.9375 1.9375s3.9723-0.78345 5.0312-2.375c1.1265-1.6932 1.1028-3.6122 0.9375-5.8438s-0.64693-4.7744-1.2812-7.4688c-1.2686-5.3886-3.1694-11.319-4.5312-15.562-0.33655-1.0528-1.4628-1.6334-2.5156-1.2969s-1.6334 1.4628-1.2969 2.5156c1.3618 4.2431 3.2553 10.096 4.4688 15.25 0.60673 2.5771 1.0172 4.9978 1.1562 6.875s-0.19138 3.1774-0.28125 3.3125c-0.15748 0.2367-0.56287 0.58054-1.7188 0.59375-1.1559 0.0132-2.9173-0.38308-5.0312-1.5-4.2279-2.2338-9.8846-7.2959-15.719-16.688-9.4882-18.741-15.135-31.691-23.961-58.113z"/>
   <path d="m483.58 515.28c4.381 19.473 12.943 36.275 21.073 51.935 4.9698 8.3179 9.9638 13.109 14.25 15.469 2.1431 1.1798 4.0883 1.7747 5.875 1.7812 1.7867 7e-3 3.5245-0.66766 4.5-2.0938 1.0443-1.5266 1.0172-3.1684 0.90625-5.0625s-0.47349-4.045-0.96875-6.3125c-0.99052-4.535-2.4842-9.5018-3.5625-13.062-0.31929-1.0614-1.4386-1.663-2.5-1.3438s-1.663 1.4386-1.3438 2.5c1.0783 3.5607 2.5606 8.4492 3.5 12.75 0.46968 2.1504 0.81599 4.1465 0.90625 5.6875 0.0903 1.541-0.22913 2.6089-0.21875 2.5938-0.0584 0.0854-0.30491 0.34701-1.1875 0.34375-0.88259-3e-3 -2.2945-0.34233-4-1.2812-3.411-1.8778-8.01-6.1504-12.719-14.031-3.8261-5.2724-16.817-30.204-24.51-49.873z"/>
   <path d="m478.73 534.76c3.149 23.416 8.867 36.118 13.24 44.8 4.0997 7.7348 8.3748 12.282 12.156 14.625 1.8907 1.1716 3.663 1.8183 5.3125 1.9062s3.2959-0.44474 4.2812-1.75c1.0586-1.4024 1.11-2.9288 1.0938-4.6562-0.0163-1.7275-0.24869-3.68-0.59375-5.75-0.69012-4.1399-1.8465-8.6823-2.6562-11.938-0.13964-0.7278-0.67022-1.3187-1.3788-1.5357s-1.4791-0.0243-2.0022 0.50056c-0.52315 0.52489-0.71322 1.296-0.49394 2.0039 0.80976 3.2552 1.9116 7.7204 2.5625 11.625 0.32544 1.9523 0.54953 3.7494 0.5625 5.125 0.013 1.3756-0.34684 2.3056-0.28125 2.2188-8e-3 0.0102-0.13279 0.19582-0.875 0.15625-0.74221-0.0396-1.9723-0.37333-3.4375-1.2812-2.9304-1.8158-6.8568-5.8387-10.719-13.125-2.0572-2.8499-8.5431-15.288-16.771-42.925z"/>
   <path d="m472.06 550.29c0.74287 7.4761 1.9232 13.861 3.3109 19.35 2.4956 9.8706 5.6621 16.842 8.1623 22.042 3.2834 6.7407 6.7804 10.794 9.9688 12.938 1.5942 1.0719 3.0999 1.6869 4.5625 1.8125s3.0032-0.31438 3.9375-1.5c1.0097-1.2813 1.0679-2.596 1.0938-4.0938 0.0259-1.4977-0.13101-3.2166-0.375-5-0.48798-3.5669-1.3311-7.4816-1.9375-10.281-0.24162-1.0873-1.3189-1.7729-2.4062-1.5312s-1.7729 1.3189-1.5312 2.4062c0.60643 2.7997 1.4501 6.6344 1.9062 9.9688 0.22808 1.6672 0.36363 3.1923 0.34375 4.3438-0.0199 1.1514-0.36444 1.9036-0.21875 1.7188 0.0703-0.0892 0.0749 0.0154-0.46875-0.0312-0.5436-0.0467-1.5097-0.33309-2.6875-1.125-2.3555-1.5838-5.5297-5.0847-8.5938-11.375-2.3589-3.1684-9.604-19.128-15.067-39.643z"/>
   <path d="m439.16 598.66c1.7988 8.1293 4.5351 13.411 7.375 16.531 1.42 1.5602 2.8497 2.5849 4.3438 3.0938s3.2205 0.45342 4.4688-0.53125c1.3447-1.0607 1.7182-2.4695 2.125-4.0625s0.68115-3.4518 0.875-5.4375c0.3877-3.9714 0.46629-8.4064 0.53125-11.594 0.0259-1.1046-0.84856-2.021-1.9531-2.0469-1.1046-0.0259-2.021 0.84856-2.0469 1.9531-0.065 3.1873-0.16624 7.5736-0.53125 11.312-0.1825 1.8695-0.42871 3.5857-0.75 4.8438s-0.88405 1.9807-0.75 1.875c0.0376-0.0297-0.0357 0.1176-0.65625-0.0937-0.62052-0.21135-1.6338-0.83913-2.7188-2.0312-2.17-2.3842-4.7147-7.043-6.4062-14.688-1.5168-7.1654-3.7234-29.417-2.9191-45.556-4.9669 14.267-2.3138 37.168-0.98715 46.431z"/>
   <path d="m424.31 542.56c-5.5158 20.036-3.4308 42.778-2.9688 51.094 0.99363 8.7091 3.2596 14.522 5.875 18.094 1.3077 1.7861 2.7032 3.0244 4.1875 3.7188s3.2094 0.80466 4.5938-0.0625c1.4891-0.93274 2.0586-2.3239 2.6562-3.9375s1.0803-3.5081 1.5-5.5625c0.83942-4.1088 1.427-8.763 1.8438-12.094 0.0984-0.71346-0.19429-1.4248-0.7664-1.8623s-1.3352-0.53365-1.998-0.25172-1.1228 0.8984-1.2044 1.614c-0.4167 3.3308-1.0199 7.9018-1.8125 11.781-0.39629 1.9398-0.83541 3.7118-1.3125 5s-1.1476 2.0104-1.0312 1.9375c0.0116-7e-3 -0.12905 0.11761-0.78125-0.1875s-1.6408-1.0818-2.6562-2.4688c-2.031-2.774-4.1876-7.9708-5.125-16.188-1.2913-8.9937-1.7569-36.404-1-50.625z"/>
   <path d="m410.37 538.56c-8.2119 16.17-7.738 38.062-7.9955 45.498 0.0819 9.1141 1.8084 15.368 4.125 19.344 1.1583 1.9879 2.4605 3.4363 3.9062 4.3125s3.2144 1.1923 4.7188 0.46875c1.6159-0.77718 2.3614-2.1546 3.1562-3.75s1.4963-3.5188 2.1562-5.5938c1.32-4.15 2.4219-8.8838 3.2188-12.281 0.25025-1.0787-0.42132-2.156-1.5-2.4062s-2.156 0.42132-2.4062 1.5c-0.79681 3.3975-1.8765 8.0434-3.125 11.969-0.62427 1.9627-1.2985 3.7488-1.9375 5.0312s-1.4076 1.952-1.3125 1.9062c-0.0165 8e-3 -0.20909 0.12235-0.875-0.28125s-1.6212-1.3131-2.5312-2.875c-1.8202-3.1237-3.5163-8.7586-3.5938-17.375-0.39493-8.8187 0.35181-28.548 3.9955-45.466z"/>
   <path d="m463.46 558.1c-0.52941 16.705 3.4929 26.524 7.6377 39.06 2.6002 6.6164 5.5143 10.709 8.2812 12.969 1.3835 1.1297 2.7206 1.8126 4.0938 2.0312s2.919-0.15941 3.8438-1.2812c1.002-1.2156 1.0944-2.4528 1.1875-3.875s8e-3 -3.0375-0.125-4.75c-0.26571-3.4251-0.81152-7.2026-1.2188-9.9062-0.16396-1.0959-1.1853-1.8515-2.2812-1.6875s-1.8515 1.1853-1.6875 2.2812c0.40723 2.7037 0.96995 6.4179 1.2188 9.625 0.1244 1.6036 0.16576 3.088 0.0937 4.1875-0.072 1.0996-0.43279 1.7843-0.25 1.5625 0.10551-0.12801 0.24504-0.0299-0.15625-0.0937-0.40129-0.0639-1.1957-0.40887-2.1875-1.2188-1.9836-1.6198-4.6667-5.1053-7.0938-11.281-2.5306-4.4428-7.4567-18.747-11.356-37.623z"/>
   <path d="m452.94 558.78c-2.4322 15.856 2.9508 35.585 4.375 41.75 1.9805 6.8276 4.5152 11.152 7.0625 13.656 1.2737 1.2522 2.559 2.0622 3.9062 2.4062s2.9135 0.12575 3.9375-0.90625c1.1096-1.1182 1.2764-2.3424 1.5-3.75s0.3185-3.0325 0.34375-4.75c0.0505-3.435-0.15571-7.2391-0.3125-9.9688-0.0604-1.1046-1.0048-1.951-2.1094-1.8906s-1.951 1.0048-1.8906 2.1094c0.15679 2.7297 0.35978 6.4711 0.3125 9.6875-0.0236 1.6082-0.10839 3.0992-0.28125 4.1875s-0.60867 1.7665-0.40625 1.5625c0.11684-0.11776 0.26871-0.0557-0.125-0.15625-0.39371-0.10054-1.1494-0.47732-2.0625-1.375-1.8261-1.7954-4.1826-5.5332-6.0312-11.906-1.8953-4.5051-6.0559-23.635-8.2188-40.656z"/>
   <path d="m388.75 542.28c-3.8162 11.383-3.4497 24.433-3.9375 30.719-0.72905 9.0853 0.45242 15.459 2.4062 19.625 0.97691 2.083 2.1379 3.6236 3.5 4.625s3.0623 1.4931 4.625 0.90625c1.6786-0.63038 2.5351-1.9504 3.4688-3.4688s1.8143-3.3669 2.6562-5.375c1.6839-4.0161 3.2167-8.6244 4.3125-11.938 0.28306-0.68889 0.15992-1.478-0.31956-2.0479s-1.2359-0.82621-1.963-0.66517-1.3046 0.71276-1.4986 1.4318c-1.0958 3.3131-2.626 7.8887-4.2188 11.688-0.79636 1.8994-1.6245 3.5919-2.375 4.8125s-1.5675 1.8496-1.4688 1.8125c-0.0172 6e-3 -0.21637 0.0862-0.84375-0.375-0.62738-0.46123-1.5137-1.4571-2.2812-3.0938-1.5351-3.2732-2.7228-10.596-2.9962-19.119-0.16592-5.1732 0.50926-17.055 0.93366-29.537z"/>
  </g>
  <path d="m-671.01 461.22c-1.8229-16.091 0 35.401 1.8228 72.411 1.8229 37.01 43.748 74.02 51.04 65.974 7.2913-8.0457 65.622-296.08-45.571-605.03-111.19-308.95-319-341.14-353.63-318.61-34.634 22.528 41.014 23.332 32.811 157.69-8.2028 134.36 53.817 239.99 78.382 281.2 27.343 45.86 57.419 102.58 63.799 119.48 12.76 33.792 54.685 38.619 47.394 17.7s1.8229 9.6548 9.1142 38.619c7.2914 28.964 56.508 62.756 56.508 38.619s1.8228 57.929 9.1142 86.893 51.039 61.147 49.217 45.056z" fill="url(#bl)"/>
  <path transform="matrix(2.8956 0 0 2.5561 -2610.1 -1250.4)" d="m436.52 514.92c-10.105-6.2898 35.974-26.357 66.415-56.027 30.597-29.823 46.585-62.952 52.565-61.064s2.8328 24.551 2.8328 44.381c1e-5 19.579 4.0919 36.827 2.8328 43.752s-30.847 1.8886-53.509 6.2952-67.063 25.198-71.136 22.663z" fill="url(#ba)" filter="url(#bv)"/>
  <path d="m-899.43 127.43c7.8866 21.692 21.84 60.07 14.795 69.416-7.0443 9.3465-40.31 4.0138-74.877-45.106-34.567-49.12-59.562-148.29-59.562-148.29m81.844 173.78c6.2444 18.203 17.292 50.408 11.305 58.135s-33.557 2.9032-61.582-38.503c-28.025-41.406-60.97-127.37-60.97-127.37m70.421 143.43c4.6894 16.641 12.986 46.084 7.2352 52.809-5.751 6.7251-30.218 1.2985-53.272-37.097-23.054-38.396-48.296-117.12-48.296-117.12m62.999 135.97c3.512 14.313 9.7255 39.635 4.7219 45.24-5.0035 5.605-25.417 0.4007-43.797-32.908-18.38-33.309-37.563-101.09-37.563-101.09m-44.806 115.86c-0.3761 16.294-1.0417 45.123-8.0526 50.005-7.0109 4.8822-27.465-5.5397-37.572-45.859-10.106-40.32-11.07-118.08-11.07-118.08m7.8506 106.14c-2.4132 17.028-6.6828 47.154-14.633 51.55-7.9499 4.396-28.087-8.613-33.679-51.877s3.0347-124.81 3.0347-124.81m-7.6982 106.08c-4.6144 17.369-12.778 48.098-21.586 51.837-8.8072 3.7394-28.13-11.764-28.591-57.085-0.4614-45.321 13.122-120.75 13.122-120.75m220.8 142.71c2.3584 13.822 6.5309 38.276 1.7869 43.357-4.7441 5.0806-22.605-0.94188-37.162-33.641-14.557-32.699-27.992-98.287-27.992-98.287m24.512 100.55c0.908 13.955 2.5144 38.644-2.739 43.318-5.2533 4.6738-22.411-2.7736-33.498-36.516-11.088-33.742-17.631-100.14-17.631-100.14m-142.63 40.715c-6.3461 16.937-17.574 46.904-26.723 49.937s-26.833-13.926-22.726-59.104c4.1068-45.178 5.9745-73.727 5.9745-73.727" fill="url(#bm)"/>
 </g>
 <g transform="matrix(.71299 -.043825 -.061351 -.99812 -414.74 -216.09)">
  <path d="m1232.5 64.181c-56.443-14.206-201.3-15.462-254.54-15.873-43.771-2.9083-213.02 25.22-262.93 42.642l-29.865-8.6392c58.527-25.734 166.28-43.32 289.69-55.049 137.45-0.8762 263.53 4.8777 293.11 28.407l-35.469 8.5116z" fill="url(#bs)"/>
  <path d="m686.96 81.367c109.11 42.161 422.16 38.704 566.41-26.07 8.5576-3.8428 18.899-0.851 23.438 7.3587 2.8129 5.0876 2.807 10.731-0.5544 17.036-2.8701 5.3837-7.5851 9.5319-13.091 12.159-132 62.978-478.02 71.781-574.82 27.26-21.712-13.33-23.251-25.949-1.3779-37.744z" fill="url(#bt)"/>
 </g>
 <path d="m673.09 594.02a403.04 36.64 0 1 1 0 -7e-4" fill="#a0a0a0" fill-rule="evenodd" filter="url(#cc)" opacity=".8"/>
 <path d="m-63.847 219.8s-3.3971 16.632-2.8572 34.286c5.3538 175.06 151.68 317.14 338.57 317.14s336.83-141.24 338.57-317.14c0.2067-20.9-6.9094-37.143-6.9094-37.143s40 8.5714 111.43 60c62.857 11.428 40-40 40-40s-14.286-40-105.71-111.43-88.968-95.546-98.929-139.66c-10.039-44.457-23.928-103.2-23.928-103.2s-21.127-92.299-69.141-140.01-114.01-77.131-186.81-77.131c-73.337 0-139.77 29.92-187.86 78.273-48.094 48.353-74.997 121.73-74.997 121.73s-15.356 58.208-15.001 104.99c0.3477 45.802-10.713 86.435-102.14 157.86-91.428 71.429-105.71 111.43-105.71 111.43s-21.786 48.216 41.071 36.788c71.428-47.146 110.36-56.788 110.36-56.788z" fill="#0089ff" fill-rule="evenodd" stroke="#000" stroke-width="2.3"/>
 <path transform="matrix(1.0863 0 0 1.0104 -1371.3 -319.96)" d="m1700.9 175.49a189.95 185.13 0 1 1 0 -3e-3" fill="url(#ck)" fill-rule="evenodd" filter="url(#bz)"/>
 <path d="m545.72 312.5c0 86.754-30.552 167.17-79.941 224.06s-336.44 56.893-385.83 0c-49.389-56.893-79.95-135.48-79.95-222.23 0-173.51 122.24-314.33 272.87-314.33 149.51 0 271.12 140.29 272.86 312.5z" fill="url(#cj)" fill-rule="evenodd"/>
 <path d="m21.416 200.35s-9.2245 86.711 1.8449 136.52 23.984 99.625 23.984 99.625l-26.751 8.3021s-14.759-16.604-27.674-36.898c-12.914-20.294-28.596-61.804-28.596-61.804l41.51 32.286s-8.3021-35.053-4.6123-73.796 7.3797-79.331 20.294-104.24z" fill="#fff" fill-opacity=".3857" fill-rule="evenodd" filter="url(#ax)"/>
 <path d="m127.68 58.219s12.058 18.473 20.3 18.727c13.635 1.4531 17.462 15.848 30.961 14.884 28.927 34.712 54.334 66.896 81.332 80.395 9.6204 6.3083 20.091 7.8445 28.927-7.4522 15.428-13.499 50.924-51.523 58.507-66.221 11.178-12.9 8.6507-31.792 8.6507-31.792s19.131-7.5964 28.593-8.268c10.687-0.7586 1.5703-19.335 11.044-21.094-2.3834-15.241 12.431-14.992-4.9246-16.92-17.356-1.9284-237.2-13.499-254.55-1.9284s-20.407 18.456-8.8359 39.669z" fill="#a0a0a0" fill-rule="evenodd" filter="url(#bw)"/>
 <path d="m523.31 204.92s9.2245 86.711-1.8449 136.52-23.984 99.625-23.984 99.625l26.751 8.3021s14.759-16.604 27.674-36.898c12.914-20.294 28.596-61.804 28.596-61.804l-41.51 32.286s8.3021-35.053 4.6123-73.796-7.3797-79.331-20.294-104.24z" fill="#fff" fill-opacity=".3857" fill-rule="evenodd" filter="url(#ax)"/>
 <path d="m621.18 550.7c0 16.9-4.779 23.005-13.42 37.655h-314.52c-8.6405-14.65-13.42-20.754-13.42-37.655 0-67.602 76.464-122.47 170.68-122.47s170.68 54.864 170.68 122.46" fill="#a0a0a0" fill-rule="evenodd" filter="url(#av)"/>
 <path d="m642.24 556.42c0 16.9-4.7789 23.005-13.42 37.655h-314.52c-8.6405-14.65-13.42-20.754-13.42-37.655 0-67.602 76.464-122.47 170.68-122.47s170.68 54.864 170.68 122.46" fill="url(#bi)" fill-rule="evenodd"/>
 <path d="m268.13 552.56c0 16.9-4.779 23.005-13.42 37.655h-314.52c-8.6405-14.65-13.42-20.754-13.42-37.655 0-67.602 76.463-122.47 170.68-122.47 94.214 0 170.68 54.864 170.68 122.46" fill="#a0a0a0" fill-rule="evenodd" filter="url(#av)"/>
 <path d="m246.92 556.42c0 16.9-4.779 23.005-13.42 37.655h-314.52c-8.6405-14.65-13.42-20.754-13.42-37.655 0-67.602 76.464-122.47 170.68-122.47 94.214 0 170.68 54.864 170.68 122.46" fill="url(#bh)" fill-rule="evenodd"/>
 <path d="m272.16 144.72 9.5069-0.1791s10.343-11.44 46.297-49.028c23.969-27.238 31.596-45.215 31.596-45.215s4.9028-17.977-18.522-36.499c-30.744-15.265-46.297-15.253-69.027-15.164-22.73 0.09-39.61 2.8133-69.027 15.343s-24.514 37.588-24.514 37.588 2.179 11.985 38.133 49.573 55.557 43.58 55.557 43.58z" fill="url(#bg)" fill-rule="evenodd"/>
 <path transform="matrix(1.3333 0 0 1.4792 -1691.2 -742.95)" d="m1382.7 852.37a78.102 46.282 0 1 1 0 -8.1e-4" fill="url(#az)" fill-rule="evenodd" filter="url(#ay)" opacity=".8"/>
 <path transform="matrix(1.3333 0 0 1.4792 -1241.9 -742.95)" d="m1382.7 852.37a78.102 46.282 0 1 1 0 -8.1e-4" fill="url(#az)" fill-rule="evenodd" filter="url(#ay)" opacity=".8"/>
 <path d="m-206.28 250.76s161.99-104.14 187.06-123.42c25.07-19.284 1.9285-80.994 1.9285-80.994s-23.141 32.783-55.925 65.567c-28.926 23.141-52.068 42.426-96.422 79.066-44.354 44.354-36.64 61.71-36.64 59.782z" fill="url(#cg)" fill-rule="evenodd" filter="url(#aw)"/>
 <path d="m745.95 248.83s-161.99-104.14-187.06-123.42-1.9285-80.994-1.9285-80.994 23.141 32.783 55.925 65.567c28.926 23.141 52.068 42.426 96.422 79.066 44.354 44.354 36.64 61.71 36.64 59.782z" fill="url(#cf)" fill-rule="evenodd" filter="url(#aw)"/>
 <path d="m245.08 570.46s20.796 1.7885 29.331 1.6273c9.6171-0.1816 22.178-1.0372 28.872-1.8159 2.0936 10.317 8.7127 19.704 10.895 22.517 2.7238 2.5422-80.442 0.3632-80.442 0.3632s10.439-14.448 11.344-22.691z" fill="url(#ce)" fill-rule="evenodd"/>
 <path d="m211.57 16.512s46.522 3.1015 77.094 21.71 41.648 44.307 41.648 44.307 19.052-20.824 21.71-28.799c2.6584-7.9753 7.9753-23.926-19.938-39.876-27.913-15.95-43.864-11.52-70.891-11.077s-49.624 14.178-49.624 13.735z" fill="url(#cl)" fill-rule="evenodd" filter="url(#cd)"/>
 <path transform="matrix(-1 0 0 1 2081 -570.79)" d="m1572.9 777.52s-9.2245 86.711 1.8449 136.52 23.984 99.625 23.984 99.625l-26.751 8.3021s-14.759-16.604-27.674-36.898c-12.914-20.294-28.596-61.804-28.596-61.804l41.51 32.286s-8.3021-35.053-4.6123-73.796 7.3797-79.331 20.294-104.24z" fill="#fff" fill-opacity=".3857" fill-rule="evenodd" filter="url(#cb)"/>
 <path transform="matrix(-1 0 0 1 2081 -570.79)" d="m1345.2 827.94s161.99-104.14 187.06-123.42 1.9285-80.994 1.9285-80.994-23.141 32.783-55.925 65.567c-28.926 23.141-52.068 42.426-96.422 79.066-44.354 44.354-36.64 61.71-36.64 59.782z" fill="url(#ch)" fill-rule="evenodd" filter="url(#ca)"/>
 <path d="m1192.4-377.07s26.998-50.139 79.066-32.783 55.561 47.512 69.06 116.94-47.847 6.484-47.847 6.484-7.7138-59.782-42.426-77.138c-34.712-17.356-57.853-11.571-57.853-13.499z" fill="url(#ci)" fill-rule="evenodd" opacity=".8"/>
 <g transform="translate(-1081.2 -215.46)" fill-rule="evenodd">
  <path d="m1411.5 15.257s-0.2723 65.372 38.832 102.68c39.104 37.31 62.591 29.496 93.525 34.077-24.358 10.295-80.21 10.272-109.67-22.507-29.465-32.779-24.602-112.93-22.682-114.25z" fill="url(#bj)" opacity=".8"/>
  <path transform="matrix(1.2835 0 0 1.2542 893.55 -204.2)" d="m507.18 269.02a77.137 97.386 0 1 1 0 -2e-3" filter="url(#by)" opacity=".85" stroke="#000" stroke-width="2.3645"/>
  <g transform="translate(840.18 -143.74)">
   <path transform="matrix(1.2835 0 0 1.2542 -142.16 -58.756)" d="m507.18 269.02a77.137 97.386 0 1 1 0 -2e-3" filter="url(#bx)" opacity=".85" stroke="#000" stroke-width="2.3645"/>
   <path d="m503.07 281.55a94.237 119.31 0 1 1 0 -2e-3" fill="url(#bp)"/>
   <path d="m349.05 202.49s26.998-50.139 79.066-32.783 55.561 47.512 69.06 116.94-47.847 6.484-47.847 6.484-7.7138-59.782-42.426-77.137-57.853-11.571-57.853-13.499z" fill="url(#bd)" opacity=".8"/>
   <path d="m501.32 292.16a26.998 39.533 0 1 1 0 -6.9e-4" stroke="#000" stroke-width="2.3"/>
   <path d="m327.23 247.76s-0.27224 65.372 38.832 102.68 62.591 29.496 93.525 34.077c-24.358 10.295-80.21 10.272-109.67-22.507s-24.602-112.93-22.682-114.25z" fill="url(#bq)" opacity=".8"/>
   <path d="m468.9 254.15s6.6678 19.263 7.1617 35.562c14.57-4.9391 22.226-9.8782 22.226-9.8782s-3.7044-25.683-29.388-25.683z" fill="url(#be)"/>
   <path d="m453.74 267.83s-2.4696 21.485 6.6678 36.056 19.51 19.263 27.412 20.991c-2.4696 2.2226-13.583 8.1496-23.955-0.24696s-15.558-16.546-15.558-27.659 1.9756-24.943 5.433-29.141z" fill="url(#bf)"/>
  </g>
  <path d="m1538.8 136.11a94.237 119.31 0 1 1 0 -2e-3" fill="url(#br)"/>
  <path d="m1384.8 57.04s26.998-50.139 79.066-32.783 55.561 47.512 69.06 116.94-47.847 6.484-47.847 6.484-7.7138-59.782-42.426-77.137-57.853-11.571-57.853-13.499z" fill="url(#cm)" opacity=".8"/>
  <path d="m1362.9 102.31s-0.2722 65.372 38.832 102.68 62.591 29.496 93.525 34.077c-24.358 10.295-80.21 10.272-109.67-22.507s-24.602-112.93-22.682-114.25z" fill="url(#bk)" opacity=".8"/>
  <g transform="translate(-127.54)">
   <path d="m1537 146.71a26.998 39.533 0 1 1 0 -6.9e-4" stroke="#000" stroke-width="2.3"/>
   <path d="m1504.6 108.71s6.6678 19.263 7.1617 35.562c14.57-4.9391 22.226-9.8782 22.226-9.8782s-3.7044-25.683-29.388-25.683z" fill="url(#bb)"/>
   <path d="m1489.5 122.39s-2.4696 21.485 6.6678 36.056 19.51 19.263 27.412 20.991c-2.4696 2.2226-13.583 8.1496-23.955-0.24696s-15.558-16.546-15.558-27.659 1.9756-24.943 5.433-29.141z" fill="url(#bc)"/>
  </g>
 </g>
</svg>
