<?xml version="1.0" encoding="UTF-8"?>
<svg viewBox="0 0 185.19554 142.90643" xmlns="http://www.w3.org/2000/svg" xmlns:xlink="http://www.w3.org/1999/xlink">
 <defs>
  <linearGradient id="b">
   <stop stop-color="#fff" offset="0"/>
   <stop stop-color="#97fa89" offset=".2895"/>
   <stop stop-color="#2fdf00" offset="1"/>
  </linearGradient>
  <linearGradient id="i" x1="263.88" x2="268.19" gradientUnits="userSpaceOnUse">
   <stop stop-color="#aeaeae" offset="0"/>
   <stop stop-color="#7fadb5" offset="1"/>
  </linearGradient>
  <linearGradient id="a">
   <stop stop-color="#1a1a1a" offset="0"/>
   <stop stop-color="#1a1a1a" stop-opacity="0" offset="1"/>
  </linearGradient>
  <linearGradient id="f" x1="-351.45" x2="-357.12" y1="550.93" y2="39.504" gradientTransform="matrix(.06821 -.00909 .00909 .06821 184.45 536.98)" gradientUnits="userSpaceOnUse">
   <stop stop-color="#1a1a1a" offset="0"/>
   <stop stop-color="#606060" offset="1"/>
  </linearGradient>
  <linearGradient id="h" x1="205.56" x2="205.09" y1="702.32" y2="798.8" gradientTransform="matrix(.18569 0 0 .12596 211.46 446.2)" gradientUnits="userSpaceOnUse" xlink:href="#a"/>
  <linearGradient id="g" x1="247.76" x2="247.55" y1="559.93" y2="548.29" gradientUnits="userSpaceOnUse" xlink:href="#a"/>
  <radialGradient id="c" cx="618.58" cy="536.66" r="110.9" gradientTransform="matrix(.01944 -.0029 .00309 .00952 233.79 531.67)" gradientUnits="userSpaceOnUse">
   <stop offset="0"/>
   <stop stop-opacity="0" offset="1"/>
  </radialGradient>
  <radialGradient id="e" cx="261.09" cy="476.42" r="5.75" gradientUnits="userSpaceOnUse" xlink:href="#b"/>
  <radialGradient id="d" cx="277.69" cy="476.42" r="5.75" gradientUnits="userSpaceOnUse" xlink:href="#b"/>
 </defs>
 <g transform="translate(-143.6 -435.98)" opacity=".77">
  <g transform="translate(172.09 161.74)" fill-rule="evenodd">
   <path d="m81.781 385.54c-15.668 1.6128-33.638 14.291-26.495 17.056s27.873 3.9181 31.79 0.69241c2.0127-1.6576 5.6138-5.8087 6.0382-9.704 0.42497 3.8949 4.0155 8.0466 6.0281 9.704 3.9169 3.2257 24.658 2.0724 31.8-0.69241s-10.827-15.443-26.495-17.056c-8.0678 0.77761-10.97 3.4884-11.333 6.5983-0.36356-3.1099-3.2654-5.8207-11.333-6.5983z" fill="#7fadb5" stroke="#000" stroke-width="1.5639"/>
   <path d="m81.784 385.55c-7.69 0.79161-15.927 4.249-21.485 7.8915 8.4173 3.8928 18.709 6.2918 29.865 6.5678 1.4296-1.8809 2.7102-4.1871 2.9529-6.415 0.24081 2.207 1.4914 4.4927 2.902 6.3641 10.973-0.4646 21.052-2.9801 29.254-6.9445-5.5378-3.4836-13.432-6.7029-20.823-7.4638-8.0678 0.77762-10.97 3.4884-11.333 6.5983-0.36356-3.1099-3.2654-5.8207-11.333-6.5983z" fill-opacity=".3137"/>
  </g>
  <path d="m223.53421,548.66175c-.14664.0116-.34756.0464-.5.0625l-2.75.34375c-.18441.0251-.36272.0725-.53125.0937l-.78125.0937-.375.0313c-.77866.17999-1.59228.68268-2.1875,1.46875-.0272.035-.0431.0673-.0625.0937-.12555.17511-.2423.36084-.34375.5625-.0473.0931-.0856.1869-.125.28125-.0344.0831-.0954.16362-.125.25-.0165.048-.0379.12931-.0625.1875l-1.53125-.0625c-.40305-1.17956-1.31408-2.11754-2.4375-2.5625l.125-.0625-.125-.0313h-.0313v-.0313h-.0625c-.41556-.14645-.8875-.24772-1.34375-.25l-4.0937-.0311c-.17318-.00087-.36417.0102-.53125.0313-1.96628.24868-3.45197,2.00974-3.40625,4.125 .00017.008-.00036.0183 0,.0313s-.00027.0189 0,.0313c.002.0706.0289.11653.0313.15625 .005.068.0221.12695.0313.1875 .001.01-.001.0215 0,.0313l-1.15625.5c-.69067-.79433-1.65899-1.29055-2.6875-1.34375-.32202-.0907-.63233-.14193-.9375-.0937-.26357.0416-.52412.15167-.78125.25l-3.875,1.46875c-1.36914.52355-2.07325,1.52692-2.1875,2.34375l-1.40625-.25c-.002-.1659-.009-.32988-.0313-.5-.0496-.37224-.17984-.71688-.3125-1.03125h.0313c-.0629-.18232-.16445-.33683-.25-.5-.01-.0163-.0253-.0265-.0313-.0313-.7539-1.39835-2.29476-2.11169-4-1.90625-1.61042.19401-3.37793-.20008-4.875.59375h-.0313v.0313c-1.6997.61019-2.79148,2.48542-2.53125,4.4375 .30371,2.27827 2.30993,3.8857 4.5,3.59375l4.09375-.53125c1.31349-.17509 2.35609-1.00931 2.9375-2.125l1.625.28125c-.002.0898-.0139.17909 0,.28125 .0163.0774.0653.2265.0937.375s.0341.32094.0625.40625c.0906.2726.24092.51418.375.75 .0105.0188.025.0263.0313.0313 .12909.22151.27358.43603.4375.625 .28299.33047.61007.56781.96875.78125 .0686.0403.12554.1102.21875.15625h.0313c.004.001-.003.0309 0,.0313h.0313c.0548.02.11529.014.15625.0313 .62862.27002 1.32533.41782 2.03125.3125h.0313c.25907-.0408.5508-.11868.8125-.21875v.0313l.5625-.21875h.0313l3.25-1.0625h.0313v-.0313c1.8834-.72019 2.95339-2.72414 2.59375-4.71875-.0205-.15966-.0918-.29764-.125-.4375l.9375-.40625c.074.11268.16753.20885.25.3125 .48013.83727.96797,1.23919 1.59375,1.4375 2.11243.42969 3.96101.15615 6.375.15615 .16058-.0466.3087-.11581.4375-.1875 .0141-.004.0173-.0267.0313-.0313 1.37347-.44717 2.41338-1.65572 2.65625-3.15625l1.3125.0625c.43248,2.11656 2.34515,3.59143 4.4375,3.3125l4.0622-.5315c2.19038-.29199 3.74125-2.37767 3.4375-4.65625-.21279-1.59619-1.29595-2.79903-2.65625-3.3125-.3157-.17761-.82524-.37624-1.375-.34375zm0,.125c.52502-.031 1.01248.11246 1.3125.28125 1.32812.50133 2.38596,1.69131 2.59375,3.25 .29689,2.2271-1.1777,4.24666-3.3125,4.53125l-4.0625.53125c-2.06227.27491-3.94929-1.14382-4.34375-3.25l-.0313-.0625h-.0313l-1.375-.0625h-.0313l-.0313.0625c-.21817,1.51364-1.21388,2.69333-2.59375,3.125l-.0313.0313c-.13613.0784-.23889.1077-.40625.15625-2.22146.0771-4.30202.16813-6.34375-.125-.60469-.19162-1.09079-.58366-1.5625-1.40625-.0864-.10853-.17503-.22755-.25-.34375v-.0313l-.0625.0313-1.031.4687h-.0313v.0313c.0368.1554.10743.30098.125.4375 .34876,1.93423-.68894,3.90896-2.5,4.625l-3.28125,1.0625h-.0313l-.59375.21875v.0313c-.25042.0957-.49261.11566-.75.15625h-.0313c-.68552.10228-1.35471.0138-1.96875-.25-.0688-.029-.139-.039-.1875-.0625h-.0313l-.0313-.0313-.1875-.125c-.35328-.21022-.6954-.46204-.96875-.78125-.15826-.18245-.31075-.40749-.4375-.625-.0106-.0186-.0251-.0264-.0313-.0313-.13202-.2322-.22463-.4857-.3125-.75-.0239-.072-.0655-.19627-.0937-.34375s-.0454-.29355-.0625-.375c-.0141-.10354.007-.22161 0-.34375v-.0313l-.0625-.0313-1.6875-.28125h-.0313v.0313c-.56318,1.10934-1.61106,1.92109-2.90625,2.09375l-4.09375.53125c-2.13513.28463-4.07807-1.24136-4.375-3.46875-.25646-1.92379.82525-3.76725 2.5-4.34375l.0313-.0313v-.0313c1.44953-.75174 3.15615-.33547 4.78125-.53125 1.67106-.20132 3.20422.48364 3.9375,1.84375 .01.016.0254.0266.0313.0313 .0839.15995.12646.3231.1875.5h.0313c.1302.30855.20174.60677.25.96875 .0246.18445.0306.37928.0313.5625v.0313l.0625.0313 1.5.25h.0625v-.0625-.0313c.0919-.77406.79667-1.7926 2.15625-2.3125l3.875-1.46875c.25499-.0975.46582-.14754.71875-.1875 .28289-.0447.62314.005.9375.0937 1.01512.0525 1.98149.5183 2.65625,1.3125l.0313.0313 .0313-.0313 1.21875-.5625h.0313v-.0313c-.01-.0763-.0262-.14994-.0313-.21875-.004-.0691-.0304-.11699-.0313-.15625-.00019-.009.00017-.0191 0-.0313s.00025-.0185 0-.0313c-.0447-2.06794 1.36671-3.75786 3.28125-4 .16182-.0204.36291-.0321.53125-.0313l4.09375.0313c.41277.002.80772.0659 1.1875.1875l-.0937.0313 .15625.0625h.0313c1.17204.42052 2.10402,1.36923 2.5,2.59375l.0313.0625h.0313l1.59375.0625h.0313l.0313-.0625c.0183-.0647.0653-.10499.0937-.1875s.0291-.16924.0625-.25c.0395-.0946.0802-.19291.125-.28125 .0986-.196.22072-.39089.34375-.5625 .0257-.035.043-.0686.0625-.0937 .58088-.76713 1.37034-1.2318 2.125-1.40625l.375-.0313 .78125-.0937c.17791-.0224.35516-.0698.53125-.0937l2.75-.34375 .5-.0625zm-.59375,1.90625-3.40625.46875c-.68106.0908-1.23493.50016-1.5625,1.0625l-.0313.0313-.0625.0625 .0937.0313 2.53125.125c.12816.006.23315.0105.34375.0625h.0313v.0313 .0313h.0313c.29231.1699.50415.49036.5.84375-.006.51228-.42339.86746-.9375.84375l-2.625-.125h-.0625l.0313.0937c.006.0144.0254.017.0313.0313 .37609.92013 1.25109,1.53941 2.25,1.40625l3.4375-.46875c1.19706-.15957 2.04081-1.28745 1.875-2.53125s-1.27083-2.15969-2.46875-2zm0,.125c1.1414-.15215 2.18472.68205 2.34375,1.875s-.60774,2.25398-1.75,2.40625l-3.4375.46875c-.92077.12274-1.74486-.44709-2.125-1.28125l2.5.125c.56487.0261 1.05584-.40097 1.0625-.96875 .004-.37909-.23136-.68537-.53125-.875l-.0313-.0313c-.00057-.008.004-.0213 0-.0313-.005-.006-.0112-.0212-.0313-.0313h-.0313v-.0313h-.0313v.0313c-.11414-.0502-.24337-.11893-.375-.125l-2.375-.125c.31937-.48297.79693-.85628 1.40625-.9375zm-16.40625.3125c-.94886-.005-1.71714.66044-2,1.53125-.005.0142-.0269.0169-.0313.0313l-.0313.0937 .125-.0625 .0313-.0313 2.0625-.90625c.46544-.20895.97201.053 1.15625.53125s-.064,1.00897-.53125,1.21875l-2.46875,1.125h-.0313l.0313.0625c.40779.56995 1.05166.9338 1.78125.9375l3.46875.0313c.99233.005 1.75474-.72182 2-1.65625 .008-.0289.056-.0331.0625-.0625v-.0313l-.0625-.0313-1.78125-.0937c-.51393-.0237-.91226-.42467-.90625-.9375s.42531-.89862.9375-.875l1.28125.0625h.125l-.0937-.0937-.0313-.0313h-.0313c-.40574-.46328-.94512-.80921-1.59375-.8125h-3.46875zm0,.125h3.46875c.55545.003.99861.31537 1.375.6875l-1.03125-.0625c-.56679-.0261-1.05585.43226-1.0625,1s.4662,1.03644 1.03125,1.0625l1.6875.0937c-.23115.90102-.95558,1.53602-1.90625,1.53125l-3.46875-.0313c-.67237-.003-1.26454-.33334-1.65625-.84375l2.40625-1.09375c.51412-.2308.73395-.81758.53125-1.34375s-.76529-.76288-1.28125-.53125l-1.9375.875c.28906-.7944.96614-1.34814 1.84375-1.34375zm-21.875,3.1875-3.4375.46875c-1.19705.15957-2.04081,1.28745-1.875,2.53125s1.27084,2.15969 2.46875,2l3.4375-.46875c.5185-.0691.95179-.35444 1.28125-.71875 .006-.007.0252.007.0313,0l.0313-.0313 .0625-.0625-.0937-.0313-2.3125-.375c-.50411-.0808-.83454-.55343-.78125-1.0625s.49546-.83084 1-.75l2.5625.40625h.0625v-.0625c-.006-.0305-.0556-.0325-.0625-.0625-.25899-1.12318-1.25092-1.93109-2.375-1.78125zm0,.125c1.06162-.14152 1.98989.56655 2.25,1.625l-2.4375-.375c-.55758-.0893-1.06619.31326-1.125.875s.34824,1.09809.90625,1.1875l2.15625.34375c-.3089.31792-.68778.56255-1.15625.625l-3.4375.46875c-1.14139.15215-2.18472-.68205-2.34375-1.875s.60775-2.25398 1.75-2.40625zm13.375.375c-.28018-.0145-.56025.0478-.84375.15625l-3.25,1.25c-.43784.16743-.77895.44105-1.03125.8125l-.0313.0313-.0625.0625 .0937.0313 1.65625.28125c.50443.0808.86559.55534.8125,1.0625s-.49545.83084-1,.75l-1.75-.28125h-.0625v.0625c.01.0348.0211.0945.0313.125 .39434,1.1861 1.64803,1.74584 2.78125,1.3125l3.25-1.21875c1.00211-.38321 1.58829-1.43911 1.4375-2.5l-.0313-.0625-.0625.0313-.0313.0313-1.96875.875c-.46472.20863-1.00391-.0547-1.1875-.53125-.0639-.16593-.0308-.32708 0-.5-.009-.064.00065-.11869.0313-.1875 .0281-.0632.049-.11947.0937-.15625l.0625-.0625c.096-.12387.22976-.2473.375-.3125l1.59375-.71875 .0937-.0313-.0935-.0314c-.0168-.009-.0453.009-.0625,0-.25624-.12858-.55642-.26637-.84375-.28125zm0,.125c.25642.0133.5145.0758.75.1875l-1.5.6875c-.16506.0741-.27268.18051-.375.3125-.009.0118-.0366.0223-.0625.0625-.0677.0557-.0701.10302-.0937.15625-.025.0562-.10901.14292-.0937.25-.0324.18224-.0101.37413.0625.5625 .20313.52728.79582.7632 1.3125.53125l1.90615-.84375c.0976.98466-.44894,1.98962-1.375,2.34375l-3.25,1.21875c-1.07461.41093-2.20704-.16133-2.59375-1.28125l1.65625.25c.55759.0893 1.06619-.31327 1.125-.875s-.37979-1.09814-.9375-1.1875l-1.53125-.25c.23881-.3272.57074-.62905.96875-.78125l3.25-1.25c.27046-.10343.51239-.10768.78125-.0937z" fill="none" stroke="#000" stroke-linecap="round" stroke-linejoin="round" stroke-width="1.7"/>
  <path d="m162.02 541.63c-5.7944 0.0684-11.451 2.8372-15.021 7.9094-5.9208 8.413-3.9085 20.024 4.5045 25.945s20.042 3.9085 25.963-4.5045 3.8908-20.042-4.5222-25.963l-0.78029-0.51429c-3.1471-1.9862-6.6673-2.914-10.144-2.8729z" fill-rule="evenodd"/>
  <g transform="matrix(.72073 -.09608 .10711 .80346 19.821 49.114)" fill-rule="evenodd">
   <path d="m163.05 641.89c-2.9777-0.3697-5.6514 1.5716-5.9969 4.3541s1.7721 5.3204 4.7498 5.69l5.6156 0.69722c2.9777 0.3697 5.6534-1.573 5.9988-4.3556s-1.7741-5.3189-4.7518-5.6886l-5.6156-0.69722zm0.114 2.4403 4.7206 0.5861c1.6105 0.19995 2.7558 1.5715 2.5689 3.0764s-1.6329 2.5564-3.2434 2.3564l-4.7206-0.58609c-1.6105-0.19996-2.7556-1.5731-2.5687-3.0781s1.6327-2.5548 3.2432-2.3548z" fill="#383838"/>
   <path d="m180.46 644.09c-3.0006 0-5.4147 2.2559-5.4147 5.0598s2.4141 5.0615 5.4147 5.0615h5.6587c3.0006 0 5.4165-2.2576 5.4165-5.0615s-2.4159-5.0598-5.4165-5.0598h-5.6587zm0.41379 2.4076h4.7569c1.6229 0 2.9284 1.22 2.9284 2.7365s-1.3055 2.7381-2.9284 2.7381h-4.7569c-1.6229 0-2.9284-1.2216-2.9284-2.7381s1.3055-2.7365 2.9284-2.7365z" fill="#333"/>
   <path d="m127.58 642.43c-2.997-0.14686-5.4147 2.2559-5.4147 5.0598s2.4141 5.0615 5.4147 5.0615h5.6587c3.0006 0 5.4165-2.2576 5.4165-5.0615s-2.4653-4.6379-5.4623-4.7848zm0.41379 2.4076h4.7569c1.6229 0 2.9284 1.22 2.9284 2.7365s-1.3055 2.7381-2.9284 2.7381h-4.7569c-1.6229 0-2.9284-1.2216-2.9284-2.7381s1.3055-2.7365 2.9284-2.7365z" fill="#333"/>
   <path d="m144.19 646.37c-2.935 0.62397-4.8272 3.3326-4.2441 6.0752s3.4139 4.4488 6.3489 3.8248l5.535-1.1767c2.935-0.62398 4.8286-3.3346 4.2455-6.0772s-3.4153-4.4468-6.3503-3.8228l-5.535 1.1767zm0.90542 2.2689 4.6529-0.98919c1.5874-0.33748 3.1181 0.58431 3.4334 2.0677s-0.70757 2.9497-2.295 3.2872l-4.6529 0.98919c-1.5874 0.33748-3.1184-0.58593-3.4338-2.0693s0.70792-2.9481 2.2953-3.2856z" fill="#4d4d4d"/>
   <path transform="rotate(15.06)" d="m295.53 589.93h14.208a1.2057 1.2057 0 0 1 1.2057 1.2057 1.2057 1.2057 0 0 1 -1.2057 1.2057h-14.208a1.2057 1.2057 0 0 1 -1.2057 -1.2057 1.2057 1.2057 0 0 1 1.2057 -1.2057" fill="#333"/>
   <path transform="matrix(.05288 0 0 .05288 161.37 598.34)" d="m18.665 821.37c-50.869-0.30656-94.29 34.677-100.31 83.188-0.58334 4.6984-0.794 9.37-0.65625 13.969l23.214-10.723c-9.6646-35.264 44.36-78.38 78.719-69.433l108.46 16.554 44.518-9.2411c-10.54-5.1635-22.199-8.7347-34.656-10.281l-106.19-13.188c-4.3994-0.54621-8.7828-0.81777-13.094-0.84375z" fill="#979797"/>
   <path transform="rotate(9.1987)" d="m269.18 610.68h14.208a1.2057 1.2057 0 0 1 1.2057 1.2057 1.2057 1.2057 0 0 1 -1.2057 1.2057h-14.208a1.2057 1.2057 0 0 1 -1.2057 -1.2057 1.2057 1.2057 0 0 1 1.2057 -1.2057" fill="#1a1a1a"/>
   <path transform="matrix(.05288 0 0 .05288 161.37 598.34)" d="m351.35 864.35c-32.599 2.7758-70.694 24.377-86.275 63.595-1.7464 4.3957 14.505-0.338 14.642 4.2607l15.15 1.7932c20.335-25.264 29.258-39.053 66.187-51.34l115.6-0.58929 44.518 2.1875c1.5745-5.2653-18.239-17.233-40.42-18.698-37.075-1.7748-93.777 0.81881-129.4-1.209z" fill="#979797"/>
   <path transform="matrix(.05288 0 0 -.05288 143.39 697.69)" d="m367.24 859.94c-49.441 9.6934-77.147 8.9626-96.027 54.616-1.8093 4.3751 12.063-0.62996 12.201 3.9688l11.786 2.1339c20.335-25.264 32.932-38.38 67.29-29.433l114.17-16.304 44.518 9.3304c-4.0338-4.2341-17.652-30.33-48.942-34.567l-91.902 11.098c-4.3994-0.54621-8.8633-1.6732-13.094-0.84375z" fill="#0b0b0b"/>
   <path transform="matrix(.12836 0 0 .12836 143.99 602.77)" d="m51.713 328.02c-2.8004 0.0605-5.6419 0.39236-8.5 1l-43.125 9.1562c-15.34 3.2613-24.481 11.881-26.618 19.367l-0.66156 2.3658c1.3805-0.31908 11.684 2.6222 12.685 1.701l14.032-11.403c2.0131-1.0966 9.5238-3.931 11.906-4.4375l28.688-6.7188c7.5484-5.7226 31.324 4.9353 32.502 11.706l12.755-3.3929c-7.7868-8.1606-21.435-19.608-33.663-19.344z" fill="#979797"/>
   <path transform="matrix(.96612,-.25808,.25808,.96612,0,0)" d="m-22.878 665.34h14.208a1.2057 1.2057 0 0 1 1.2057 1.2057 1.2057 1.2057 0 0 1 -1.2057 1.2057h-14.208a1.2057 1.2057 0 0 1 -1.2057 -1.2057 1.2057 1.2057 0 0 1 1.2057 -1.2057" fill="#333"/>
   <path transform="matrix(.12401 -.03313 .03313 .12401 143.99 602.77)" d="m-50.358 358.22 103.09 0.0618c5.2037 3e-3 8.1952 2.6108 9.6051 7.6198 0.31086 1.1044-2.7557 0.25112-7.9573 0.10482l-96.368-2.7105c-5.2016-0.1463-15.822 3.2422-15.986 0.60871-0.32301-5.1936 2.4145-5.6878 7.6181-5.6847z" fill="#979797"/>
   <path transform="matrix(.12836 0 0 .12836 143.99 602.77)" d="m94.089 363.42-20.412 5.3564c0.19106 0.60859 4.6579 1.239 4.7932 1.875 2.4568 11.556-5.2558 26.5-17.622 29.129l-41.048 10.244c-12.367 2.6292-28.586-10.63-31.043-22.186-0.32967-1.5506 1.0464-4.3631 1.0777-5.8877l-22.216-2.566c0.1302 1.5556 0.35485 5.9007 0.6875 7.4654 4.5425 21.367 26.572 34.642 49.438 29.781l43.378-6.8834c22.865-4.8611 37.636-25.977 33.094-47.344-0.03549-0.16693-0.33992 2.4438-0.125 1.0152z" fill="#1a1a1a"/>
   <path transform="matrix(.12666 .02081 .02081 -.12666 167.06 693.43)" d="m-50.358 358.22 103.09 0.0618c5.2037 3e-3 8.1952 2.6108 9.6051 7.6198 0.31086 1.1044-2.7557 0.25112-7.9573 0.10482l-96.368-2.7105c-5.2016-0.1463-15.822 3.2422-15.986 0.60871-0.32301-5.1936 2.4145-5.6878 7.6181-5.6847z" fill="#979797"/>
   <path transform="matrix(.05265 -.00486 -.00486 -.05265 166.58 700.97)" d="m367.24 859.94c-49.441 9.6934-77.147 8.9626-96.027 54.616-1.8093 4.3751 12.063-0.62996 12.201 3.9688l11.786 2.1339c20.335-25.264 32.932-38.38 67.29-29.433l114.17-16.304 44.518 9.3304c-4.0338-4.2341-17.652-30.33-48.942-34.567l-91.902 11.098c-4.3994-0.54621-8.8633-1.6732-13.094-0.84375z" fill="#0b0b0b"/>
   <path transform="matrix(.12836 0 0 .12836 143.99 602.77)" d="m-90.012 342.11 100.03 26.263c5.0285 1.3202 7.4168 2.8117 7.5944 8.0123 0.03915 1.1466-2.7363-0.4118-7.7537-1.7916l-92.955-25.562c-5.0174-1.3798-16.139-0.61555-15.671-3.2124 0.92203-5.1213 3.7234-5.029 8.752-3.7088z" fill="#979797"/>
   <path transform="matrix(.12836 0 0 .12836 143.99 602.77)" d="m-136.97 309.4 2.8098 10.411 49.491 1.1088c12.64 0.28319 26.21 10.019 28.17 21.67 0.35714 2.1233-0.37905 6.3051-1.9329 8.3102l15.104 3.9962c0.47514-2.3775 1.0875-6.167 1.0875-8.677 0-21.844-18.767-35.958-42.188-36.223-17.514-0.19844-35.756-6.1779-52.542-0.59531z" fill="#979797"/>
   <path transform="matrix(.12836 0 0 .12836 143.99 602.77)" d="m-64.967 372.83c-4.0874 3.6366-16.424 6.316-22.537 6.1275l-32.769-1.0102c-0.76861-0.0237-1.0272-1.0663-1.7762-1.1352l-2.1352 6.4569c-0.28033 2.6966 1.0184 1.7366-0.78712 3.4045 1.15 0.0872-2.2202-0.66067-1.0457-0.63261l42.295 1.0102c11.135 0.26594 22.929-6.1177 31.852-14.672z" fill="#1a1a1a"/>
  </g>
  <path d="m170.41 544.73c8.6174 4.4942 11.96 15.123 7.4657 23.741s-15.123 11.96-23.741 7.4657-11.96-15.123-7.4657-23.741c4.3353-8.3127 14.427-11.767 22.947-7.8548" fill="#666" fill-rule="evenodd"/>
  <path d="m170.41 544.73c8.6174 4.4942 11.96 15.123 7.4657 23.741s-15.123 11.96-23.741 7.4657-11.96-15.123-7.4657-23.741c4.3353-8.3127 14.427-11.767 22.947-7.8548" fill="url(#f)" fill-rule="evenodd"/>
  <path d="m160.1 545.55c2.8248 0.64322 4.3752 3.2332 3.4628 5.785s-3.9421 4.0989-6.7669 3.4557-4.3752-3.2332-3.4628-5.785c0.88016-2.4615 3.7421-4.0044 6.5079-3.5084" fill="#fff" fill-rule="evenodd" opacity=".1468"/>
  <g transform="translate(-2.8571)" fill-rule="evenodd">
   <path d="m227.96 538.55c13.661-4.0584 27.323-2.6654 40.984 0v11.961h-40.984z" fill="#999" stroke="#000" stroke-width=".16488"/>
   <path d="m227.96 538.55c13.661-4.0584 27.323-2.6654 40.984 0v11.961h-40.984z" fill="url(#h)" stroke="url(#c)" stroke-width=".16488"/>
   <path d="m228.34 539.06c15.483 5.027 28.369 3.0054 40.891 0v18.577c-13.631 2.8776-27.261 3.8771-40.891 0z" fill="#333" stroke="#000" stroke-width=".15294"/>
   <path d="m228.34 539.06c15.483 5.027 28.369 3.0054 40.891 0v18.577c-13.631 2.8776-27.261 3.8771-40.891 0z" fill="url(#g)"/>
  </g>
  <path d="m225.18 546.02c-0.13016 3.9286-0.24662 7.8571 0.0893 11.786 18.929 3.7559 31.123 2.4463 41.071-0.17859l0.17857-4.0178" fill="none" stroke="#000"/>
  <g transform="matrix(.87618 0 0 1 29.094 0)">
   <path d="m327.61 494.56c0 28.667 13.685 36.057 13.685 49.353 0 7.3743-13.535-9.0968-21.129-5.3687-7.0431 3.4578-15.719 6.7241-24.526 1.574-5.2448-3.067 2.0687-8.0595-8.0715-8.0595-8.0884 0-20.415 4.9487-28.128 6.0148-7.0114 0.9692-14.496-5.3611-26.866-1.7531-7.6927 2.2438-34.91 18.242-34.91 10.867 0-9.3916 12.722-19.623 12.722-52.628 0-31.974 26.258-57.924 58.611-57.924s58.611 25.95 58.611 57.924z" fill="#dbdbe3" fill-opacity=".6275"/>
   <path d="m327.61 494.56c0 7.1668 0.85532 13.004 2.1383 17.936s2.9936 8.9587 4.7043 12.505 3.4213 6.6125 4.7043 9.6229 2.1383 5.9652 2.1383 9.2891c0 7.3743-18.691 1.9945-26.285 5.7226-7.0431 3.4578-4.1579 8.6664-14.298 12.008-7.2856 2.4009-17-8.5452-27.14-8.5452-8.0884 0-23.017 9.2261-30.028 6.2937s-6.3463-12.702-17.187-13.646c-8.0904-0.70442-28.692 8.8155-28.692 1.4412 0-2.3479 0.79515-4.7483 1.9879-7.5438s2.783-5.9863 4.3733-9.915 3.1806-8.5952 4.3733-14.342 1.9879-12.575 1.9879-20.826c0-31.974 26.258-57.924 58.611-57.924s58.611 25.95 58.611 57.924z" fill="#ececf0" stroke="#000" stroke-linecap="round" stroke-linejoin="round" stroke-width="1.4104"/>
   <path d="m307.25 456.35c2.2569-0.67626 13.611 12.097 15.681 25.519 1.408 9.1295 0.8111 23.22 2.4333 31.267s15.644 28.934 10.004 28.738c-13.248-0.45981-21.7-18.581-18.675-44.5 3.4114-29.229-14.769-39.429-9.4437-41.025z" fill-opacity=".1176" fill-rule="evenodd"/>
   <path d="m312.65 547.17c-3.066 2.5541-8.6518 14.714-11.626 9.1962s-0.49199-15.343-2.7037-29.888c-1.6822-11.062-7.8717-24.263-3.318-22.252 4.5378 2.0046 7.8357 8.0473 11.97 18.573 3.6144 9.2026 9.351 21.31 5.6777 24.37z" fill-opacity=".1176" fill-rule="evenodd"/>
   <path d="m268.58 550.22c-2.9331 2.6646-10.111 5.8374-13.742 5.2368-4.7838-0.7912-5.5205-14.432-3.5996-23.299 1.8926-8.7364 5.5391-21.473 8.5862-23.383 3.7058-2.3234 0.26843 8.7049 3.7444 23.866 2.6598 11.601 7.8736 14.979 5.0114 17.58z" fill-opacity=".1176" fill-rule="evenodd"/>
   <path d="m229.38 542.8c-4.2471-0.52689-8.2647 0.37072-11.626 1.1495-4.702 1.0895-0.29868-4.9272 5.9481-15.404 4.7243-7.9231 5.8329-16.089 8.5726-18.311 3.2635-2.6466-0.91287 7.7049-1.6878 17.76-0.71872 9.326 1.9255 15.193-1.207 14.804z" fill-opacity=".1176" fill-rule="evenodd"/>
   <path d="m220.46 471.76c10.452-23.953 30.571-28.982 35.689-28.738 7.7722 0.3704 5.6298 9.9568-9.4629 13.334-15.383 3.4426-31.725 28.006-26.226 15.404z" fill="#fff" fill-opacity=".6275" fill-rule="evenodd"/>
  </g>
  <path d="m254.44 459.76c-7.4731 0-13.543 6.9841-13.543 15.589s6.0697 15.589 13.543 15.589c4.3917 0 8.2889-2.4146 10.763-6.1503 2.4738 3.7383 6.3795 6.1503 10.773 6.1503 7.4731 0 13.543-6.9841 13.543-15.589s-6.0697-15.589-13.543-15.589c-4.3931 0-8.2992 2.4127-10.773 6.1503-2.4741-3.7348-6.3718-6.1503-10.763-6.1503z" fill="#fff" stroke="#000" stroke-linecap="round" stroke-width="1.6292"/>
  <path d="m265.85 486.65c-4.7179 0-9.846 4.2966-9.6408 7.0102s8.4101 14.02 10.256 14.02 9.0255-11.081 8.8203-14.247-6.3588-7.0102-9.4357-6.7841z" fill-opacity=".3137" fill-rule="evenodd"/>
  <path d="m265.11 483.93c-4.7179 0-9.846 3.8974-9.6408 6.3588s8.4101 12.718 10.256 12.718 9.0255-10.051 8.8204-12.923-6.3589-6.3588-9.4357-6.1537z" fill="url(#i)" fill-rule="evenodd" stroke="#000" stroke-width="1.6292"/>
  <g transform="translate(-4.0893)" stroke="#83abba" stroke-linecap="round" stroke-width="2.2309">
   <path d="m265.64 476.54a4.6345 4.6345 0 0 1 -9.269 0 4.6345 4.6345 0 1 1 9.269 0z" fill="url(#e)"/>
   <path d="m282.23 476.54a4.6345 4.6345 0 1 1 -9.269 0 4.6345 4.6345 0 1 1 9.269 0z" fill="url(#d)"/>
  </g>
 </g>
</svg>
