<?xml version="1.0" encoding="UTF-8"?>
<svg viewBox="0 0 1056.9 579.87" xmlns="http://www.w3.org/2000/svg" xmlns:xlink="http://www.w3.org/1999/xlink">
 <defs>
  <filter id="r">
   <feGaussianBlur stdDeviation="6.0232"/>
  </filter>
  <filter id="t" x="-.09514" y="-.16246" width="1.1903" height="1.3249">
   <feGaussianBlur stdDeviation="11.0529"/>
  </filter>
  <filter id="c" x="-.08814" y="-.18791" width="1.1763" height="1.3758">
   <feGaussianBlur stdDeviation="12.5369"/>
  </filter>
  <filter id="s" x="-.03273" y="-.36" width="1.0654" height="1.72">
   <feGaussianBlur stdDeviation="10.9921"/>
  </filter>
  <linearGradient id="a">
   <stop stop-color="#fff" offset="0"/>
   <stop stop-color="#fff" stop-opacity="0" offset="1"/>
  </linearGradient>
  <linearGradient id="k">
   <stop stop-color="#f0f" offset="0"/>
   <stop stop-color="#fff" offset="1"/>
  </linearGradient>
  <linearGradient id="e">
   <stop stop-color="#3c3c3c" offset="0"/>
   <stop stop-color="#3c3c3c" stop-opacity="0" offset="1"/>
  </linearGradient>
  <linearGradient id="l">
   <stop stop-color="#3c3c3c" offset="0"/>
   <stop stop-color="#a0a0a0" stop-opacity="0" offset="1"/>
  </linearGradient>
  <linearGradient id="m">
   <stop stop-color="#fff" offset="0"/>
   <stop stop-color="#bebebe" offset="1"/>
  </linearGradient>
  <linearGradient id="n">
   <stop offset="0"/>
   <stop stop-color="#fff" offset="1"/>
  </linearGradient>
  <linearGradient id="o">
   <stop stop-color="#d2d2d2" offset="0"/>
   <stop stop-color="#d2d2d2" offset=".88"/>
   <stop stop-color="#808080" offset="1"/>
  </linearGradient>
  <linearGradient id="j" x1="-503.02" x2="-336.66" gradientUnits="userSpaceOnUse">
   <stop stop-color="#800080" offset="0"/>
   <stop stop-color="#800080" stop-opacity="0" offset="1"/>
  </linearGradient>
  <linearGradient id="q" x2="0" y1="-9.6422" y2="360.62" gradientUnits="userSpaceOnUse" xlink:href="#a"/>
  <linearGradient id="at" x2="0" y1="513.09" y2="576.19" gradientUnits="userSpaceOnUse" xlink:href="#m"/>
  <linearGradient id="f" x2="0" y1="295.8" y2="146.25" gradientUnits="userSpaceOnUse" xlink:href="#n"/>
  <linearGradient id="as" x1="-332.77" x2="-316.19" y1="402.96" y2="429.4" gradientUnits="userSpaceOnUse" xlink:href="#a"/>
  <linearGradient id="ar" x1="-249.2" x2="-235.34" y1="409.94" y2="432.99" gradientUnits="userSpaceOnUse" xlink:href="#a"/>
  <linearGradient id="aq" x1="-278.42" x2="-292.08" y1="472.8" y2="495.92" gradientUnits="userSpaceOnUse" xlink:href="#a"/>
  <linearGradient id="b" x2="0" y1="806.09" y2="888.87" gradientUnits="userSpaceOnUse" xlink:href="#a"/>
  <linearGradient id="ap" x1="-563.87" x2="-429.45" y1="612.76" y2="507.87" gradientUnits="userSpaceOnUse" xlink:href="#a"/>
  <linearGradient id="ao" x1="938.65" x2="1242.6" y1="638.37" y2="401.18" gradientTransform="matrix(-.4422 0 0 .4422 378.47 329.62)" gradientUnits="userSpaceOnUse" xlink:href="#a"/>
  <linearGradient id="an" x1="-297.65" x2="-297.54" y1="716.5" y2="727.01" gradientUnits="userSpaceOnUse" xlink:href="#l"/>
  <linearGradient id="am" x1="-288.93" x2="-284.4" y1="425.98" y2="439.52" gradientUnits="userSpaceOnUse" xlink:href="#a"/>
  <linearGradient id="al" x1="-300.02" x2="-292.16" y1="441.12" y2="455.86" gradientUnits="userSpaceOnUse" xlink:href="#e"/>
  <linearGradient id="p" x1="423.07" x2="419.81" y1="260.88" y2="143.59" gradientUnits="userSpaceOnUse" xlink:href="#n"/>
  <linearGradient id="i" x1="469.95" x2="477.7" y1="263.51" y2="291.64" gradientUnits="userSpaceOnUse" xlink:href="#a"/>
  <linearGradient id="h" x1="442.37" x2="460.15" y1="294.42" y2="327.75" gradientUnits="userSpaceOnUse" xlink:href="#e"/>
  <linearGradient id="ah" x2="0" y1="517.91" y2="581.02" gradientUnits="userSpaceOnUse" xlink:href="#m"/>
  <linearGradient id="ag" x1="-799.49" x2="-782.91" y1="407.79" y2="434.22" gradientUnits="userSpaceOnUse" xlink:href="#a"/>
  <linearGradient id="af" x1="-715.92" x2="-702.06" y1="414.76" y2="437.82" gradientUnits="userSpaceOnUse" xlink:href="#a"/>
  <linearGradient id="ae" x1="-745.14" x2="-758.8" y1="477.63" y2="500.74" gradientUnits="userSpaceOnUse" xlink:href="#a"/>
  <linearGradient id="ad" x1="-1030.6" x2="-896.17" y1="617.59" y2="512.7" gradientUnits="userSpaceOnUse" xlink:href="#a"/>
  <linearGradient id="ac" x1="938.65" x2="1242.6" y1="638.37" y2="401.18" gradientTransform="matrix(-.4422 0 0 .4422 -88.25 334.44)" gradientUnits="userSpaceOnUse" xlink:href="#a"/>
  <linearGradient id="ab" x1="-764.37" x2="-764.26" y1="721.33" y2="731.83" gradientUnits="userSpaceOnUse" xlink:href="#l"/>
  <linearGradient id="aa" x1="-755.65" x2="-751.12" y1="430.8" y2="444.35" gradientUnits="userSpaceOnUse" xlink:href="#a"/>
  <linearGradient id="z" x1="-766.74" x2="-758.88" y1="445.94" y2="460.69" gradientUnits="userSpaceOnUse" xlink:href="#e"/>
  <linearGradient id="ak" x1="-766.31" x2="-766.01" y1="302.02" y2="313.18" gradientUnits="userSpaceOnUse" xlink:href="#a"/>
  <linearGradient id="aj" x1="844.85" x2="748.48" y1="95.61" y2="-157.86" gradientUnits="userSpaceOnUse" xlink:href="#k"/>
  <linearGradient id="ai" x1="755.3" x2="847.55" y1="105.36" y2="-153.35" gradientUnits="userSpaceOnUse" xlink:href="#k"/>
  <radialGradient id="w" cx="-560.3" cy="4.2073" r="21.127" gradientTransform="matrix(.44238 .39957 -.38532 .42661 -520.14 533.76)" gradientUnits="userSpaceOnUse">
   <stop stop-color="#f0f" offset="0"/>
   <stop stop-color="#800080" offset="1"/>
  </radialGradient>
  <radialGradient id="g" cx="430.04" cy="269.02" r="77.137" gradientTransform="matrix(1 0 0 1.2625 0 -70.617)" gradientUnits="userSpaceOnUse" xlink:href="#o"/>
  <radialGradient id="d" cx="615.17" cy="306.62" r="77.137" gradientUnits="userSpaceOnUse" xlink:href="#o"/>
  <radialGradient id="y" cx="1619.9" cy="319.54" r="89.638" gradientTransform="matrix(-.4422 -4.057e-7 1.4645e-7 -.15963 460.18 514.72)" gradientUnits="userSpaceOnUse" xlink:href="#a"/>
  <radialGradient id="x" cx="1619.9" cy="319.54" r="89.638" gradientTransform="matrix(-.33243 -.41158 .15894 -.10963 126.59 1161.6)" gradientUnits="userSpaceOnUse" xlink:href="#a"/>
  <radialGradient id="v" cx="1619.9" cy="319.54" r="89.638" gradientTransform="matrix(-.4422 -2.2507e-7 1.4645e-7 -.08856 -6.5348 491.29)" gradientUnits="userSpaceOnUse" xlink:href="#a"/>
  <radialGradient id="u" cx="1619.9" cy="319.54" r="89.638" gradientTransform="matrix(-.33243 -.41158 .15894 -.10963 -340.13 1166.4)" gradientUnits="userSpaceOnUse" xlink:href="#a"/>
 </defs>
 <g transform="matrix(1.1354 0 0 1.1354 1116.2 -282.68)">
  <path d="m-795.79 395.87c5.58-9.8489 1.9663-13.573-0.9928-23.422 4.0809 8.0399 10.581 9.5289 8.5151 17.569 8.9142-8.7761 5.7354-15.851 5.1192-27.01 1.6956 7.8578 9.2311 11.989 6.3743 21.245 13.099-15.039 6.9706-17.077 8.6123-25.679 1.6188 9.3985 5.1101 13.246 1.3157 23.428 12.815-6.944 11.973-14.582 13.479-24.686 1.6625 7.7628 1.4737 14.466-1.5958 23.017 10.371-5.655 15.303-12.417 16.156-21.245 0.7515 9.2309-0.85239 15.592-5.7284 23.215 11.128-3.4538 15.985-8.3143 20.803-17.289-2.07 9.3869-5.0712 14.77-11.119 20.179 9.9679-0.41372 18.224-5.0996 24.214-12.9-4.1765 6.9943-7.5511 16.312-16.729 17.194 10.314 1.5577 20.693-0.30215 27.604-7.8175-5.6086 6.1909-11.227 14.263-20.861 12.465 16.454 3.8405 20.342 1.8491 27.141-3.5511-4.7513 6.3742-15.802 11.615-21.684 9.5079 9.835 5.0444 21.303 3.4128 27.757 1.1328-5.9345 2.1457-14.404 6.2319-22.47 5.7133 9.1115 6.8057 17.574 10.34 25.978 8.3385-4.3238 2.1972-18.182 4.321-24.742-0.28635-10.495-16.11-32.196-49.232-87.148-19.119z" stroke="#000" stroke-width=".4422"/>
  <path transform="matrix(.4422 0 0 .4422 -526.13 310.86)" d="m914.08 941.08c0 20.236-180.45 36.64-403.04 36.64s-403.04-16.404-403.04-36.64 180.45-36.64 403.04-36.64 403.04 16.404 403.04 36.64" fill="#a0a0a0" fill-rule="evenodd" filter="url(#s)" opacity=".8"/>
  <path d="m-447.8 561.52s-1.5022 7.3548-1.2635 15.161c2.3675 77.414 67.074 140.24 149.72 140.24s148.95-62.457 149.72-140.24c0.0914-9.2423-3.0554-16.425-3.0554-16.425s17.688 3.7903 49.274 26.532c27.796 5.0538 17.688-17.688 17.688-17.688s-6.3172-17.688-46.747-49.274-39.342-42.251-43.747-61.759c-4.4391-19.659-10.581-45.634-10.581-45.634s-9.3424-40.815-30.574-61.914-50.417-34.108-82.607-34.108c-32.43 0-61.805 13.231-83.073 34.613s-33.164 53.828-33.164 53.828-6.7907 25.74-6.6336 46.428c0.15375 20.254-4.7373 38.222-45.167 69.808s-46.747 49.274-46.747 49.274-9.634 21.321 18.162 16.268c31.586-20.848 48.801-25.112 48.801-25.112z" fill="#222b00" fill-rule="evenodd"/>
  <path transform="matrix(.48036 0 0 .44681 -1025.9 322.84)" d="m1700.9 175.49c0 102.24-85.044 185.13-189.95 185.13s-189.95-82.886-189.95-185.13 85.044-185.13 189.95-185.13 189.95 82.884 189.95 185.13" fill="url(#q)" fill-rule="evenodd"/>
  <path d="m-178.24 602.51c0 38.363-13.51 73.922-35.35 99.081s-148.78 25.159-170.62 0-35.354-59.908-35.354-98.271c0-76.727 54.057-139 120.66-139 66.112 0 119.89 62.035 120.66 138.19z" fill="url(#at)" fill-rule="evenodd"/>
  <path d="m-410.09 552.92s-4.0791 38.344 0.81582 60.371 10.606 44.055 10.606 44.055l-11.829 3.6712s-6.5266-7.3424-12.237-16.317-12.645-27.33-12.645-27.33l18.356 14.277s-3.6712-15.501-2.0396-32.633 3.2633-35.081 8.9741-46.094z" fill="#fff" fill-opacity=".3857" fill-rule="evenodd"/>
  <path transform="matrix(.4422 0 0 .4422 -521.86 310)" d="m359.03 407.2s12.058 18.473 20.3 18.727c13.635 1.4531 17.462 15.848 30.961 14.884 28.927 34.712 54.334 66.896 81.332 80.395 9.6204 6.3083 20.091 7.8445 28.927-7.4523 15.428-13.499 50.924-51.523 58.507-66.221 11.178-12.9 8.6507-31.792 8.6507-31.792s19.131-7.5964 28.593-8.268c10.687-0.75858 1.5703-19.335 11.044-21.094-2.3834-15.241 12.431-14.992-4.9246-16.92s-237.2-13.499-254.55-1.9284-20.407 18.456-8.8359 39.669z" fill="#a0a0a0" fill-rule="evenodd" filter="url(#t)"/>
  <path transform="matrix(.46146 0 0 .45047 -541.15 305.03)" d="m725.09 284.44c0 55.915-49.213 101.24-109.92 101.24s-109.92-45.328-109.92-101.24 49.213-101.24 109.92-101.24 109.92 45.327 109.92 101.24" fill="url(#f)" fill-rule="evenodd" stroke="#000" stroke-width="8.729"/>
  <path d="m-188.15 554.94s4.0791 38.344-0.81582 60.371-10.606 44.055-10.606 44.055l11.829 3.6712s6.5266-7.3424 12.237-16.317 12.645-27.33 12.645-27.33l-18.356 14.277s3.6712-15.501 2.0396-32.633-3.2633-35.081-8.9741-46.094z" fill="#fff" fill-opacity=".3857" fill-rule="evenodd"/>
  <path transform="matrix(.4422 0 0 .4422 -521.86 310)" d="m852.52 899.69c0 16.9-4.779 23.005-13.42 37.655h-314.52c-8.6405-14.65-13.42-20.754-13.42-37.655 0-67.602 76.464-122.47 170.68-122.47s170.68 54.864 170.68 122.46" fill="#a0a0a0" fill-rule="evenodd" filter="url(#c)"/>
  <path d="m-135.56 710.38c0 7.4734-2.1132 10.173-5.9342 16.651h-139.08c-3.8209-6.4783-5.9342-9.1777-5.9342-16.651 0-29.894 33.813-54.155 75.474-54.155s75.474 24.261 75.474 54.154" fill="#aad400" fill-rule="evenodd"/>
  <path transform="matrix(.4422 0 0 .4422 -521.86 310)" d="m499.48 901.54c0 16.9-4.779 23.005-13.42 37.655h-314.52c-8.6405-14.65-13.42-20.754-13.42-37.655 0-67.602 76.464-122.47 170.68-122.47s170.68 54.864 170.68 122.46" fill="#a0a0a0" fill-rule="evenodd" filter="url(#c)"/>
  <path d="m-310.37 710.38c0 7.4734-2.1133 10.173-5.9342 16.651h-139.08c-3.8209-6.4783-5.9342-9.1777-5.9342-16.651 0-29.894 33.813-54.155 75.474-54.155s75.474 24.261 75.474 54.154" fill="#aad400" fill-rule="evenodd"/>
  <path transform="matrix(.6211 0 0 .48689 -639.7 291)" d="m700.02 299.87c0 46.33-37.126 83.887-82.923 83.887s-82.923-37.558-82.923-83.887 37.126-83.887 82.923-83.887 82.922 37.557 82.923 83.886" fill-rule="evenodd"/>
  <path transform="matrix(.52258 0 0 .50168 -562.16 284.87)" d="m511.04 286.37c0 66.565-42.306 120.53-94.493 120.53s-94.493-53.962-94.493-120.53 42.306-120.53 94.493-120.53 94.492 53.961 94.493 120.53" fill="url(#p)" fill-rule="evenodd" stroke="#000" stroke-width="7.7728"/>
  <path transform="matrix(.56757 0 0 .55464 -588.99 284.87)" d="m507.18 269.02c0 53.785-34.536 97.386-77.137 97.386s-77.137-43.601-77.137-97.386 34.536-97.386 77.137-97.386 77.137 43.6 77.137 97.384" fill-rule="evenodd" stroke="#000" stroke-width="2.3645"/>
  <path transform="matrix(.54023 0 0 .54174 -577.66 289.62)" d="m507.18 269.02c0 53.785-34.536 97.386-77.137 97.386s-77.137-43.601-77.137-97.386 34.536-97.386 77.137-97.386 77.137 43.6 77.137 97.384" fill="url(#g)" fill-rule="evenodd"/>
  <path transform="matrix(.58454 0 0 .48939 -617.29 289.93)" d="m692.31 306.62c0 43.667-34.536 79.066-77.137 79.066s-77.137-35.399-77.137-79.066 34.536-79.066 77.137-79.066 77.137 35.398 77.137 79.065" fill="url(#d)" fill-rule="evenodd"/>
  <path transform="matrix(.4422 0 0 .4422 -503.92 309.51)" d="m509.11 296.02c0 21.833-12.087 39.533-26.998 39.533s-26.998-17.7-26.998-39.533 12.087-39.533 26.998-39.533 26.998 17.699 26.998 39.532" fill-rule="evenodd"/>
  <path d="m-371.78 400.4s11.939-22.172 34.963-14.497 27.288 20.466 33.258 51.166-23.877 3.411-23.877 3.411-3.4111-26.436-18.761-34.111-25.583-5.1166-25.583-5.9693z" fill="url(#as)" fill-rule="evenodd" opacity=".8"/>
  <path d="m-264.33 404.66s24.73-4.2638 38.374 12.791 9.3804 23.025 9.3804 23.025l-18.761 0.85277s-11.939-27.288-28.994-36.669z" fill="url(#ar)" fill-rule="evenodd" opacity=".8"/>
  <path d="m-295.55 458.17s22.451 13.249 42.065 10.691 28.862-9.8301 36.77-17.598c-1.985 9.3194-20.436 24.017-36.638 24.87s-42.197-17.11-42.197-17.963z" fill="url(#y)" fill-rule="evenodd" opacity=".8"/>
  <path d="m-385.23 419.33s3.6863 29.995 20.978 46.494 31.485 20.113 45.164 22.139c-10.771 4.5524-39.276-2.5274-52.305-17.022s-14.686-51.024-13.837-51.61z" fill="url(#x)" fill-rule="evenodd" opacity=".8"/>
  <path d="m-299.21 528.32 4.204-0.0792s4.5736-5.0588 20.473-21.68c10.599-12.045 13.972-19.994 13.972-19.994s2.168-7.9495-8.1904-16.14c-13.595-6.7501-20.473-6.745-30.524-6.7054s-17.516 1.244-30.524 6.7846-10.84 16.622-10.84 16.622 0.96357 5.2997 16.863 21.921 24.568 19.271 24.568 19.271z" fill="#aad400" fill-rule="evenodd"/>
  <path d="m-326.01 471.63s20.572 1.3715 34.091 9.6004 18.417 19.593 18.417 19.593 8.4248-9.2086 9.6004-12.735 3.5267-10.58-8.8167-17.633-19.397-5.0941-31.348-4.8982-21.944 6.2696-21.944 6.0737z" fill="url(#aq)" fill-rule="evenodd" opacity=".8"/>
  <path d="m-335.13 479.07s1.1748 4.2293 2.3496 5.2866-1.8797-0.23496-1.1748 2.8195 35.949 37.359 35.949 37.359-1.6447 1.4098-8.4585-3.5244-22.909-21.734-27.138-27.02c-3.9521-4.9402-5.2866-9.046-1.5272-14.92z" fill="#fff" fill-opacity=".4286" fill-rule="evenodd"/>
  <path transform="matrix(.58961 0 0 .65409 -1167.4 135.79)" d="m1382.7 852.37c0 25.561-34.967 46.282-78.102 46.282s-78.102-20.721-78.102-46.282 34.967-46.282 78.102-46.282 78.101 20.721 78.102 46.282" fill="url(#b)" fill-rule="evenodd" opacity=".8"/>
  <path transform="matrix(.58961 0 0 .65409 -968.71 135.79)" d="m1382.7 852.37c0 25.561-34.967 46.282-78.102 46.282s-78.102-20.721-78.102-46.282 34.967-46.282 78.102-46.282 78.101 20.721 78.102 46.282" fill="url(#b)" fill-rule="evenodd" opacity=".8"/>
  <path d="m-510.78 575.21s71.632-46.049 82.718-54.577 0.85278-35.816 0.85278-35.816-10.233 14.497-24.73 28.994c-12.791 10.233-23.025 18.761-42.638 34.963-19.614 19.614-16.203 27.288-16.203 26.436z" fill="url(#ap)" fill-rule="evenodd"/>
  <path d="m-503.21 584.65s25.554-16.911 30.815-18.79 10.146-4.8853 13.904-7.1401 11.274-1.879 11.274-1.879l-1.1274 2.6306s-5.2611-0.75159-11.274 2.6306-13.904 7.5159-18.414 10.898-14.28 8.6433-16.159 9.0191-6.7643 3.7579-6.7643 3.7579l-2.2548-1.1274z" fill="#fff" fill-opacity=".3857" fill-rule="evenodd"/>
  <path d="m-89.699 574.36s-71.632-46.049-82.718-54.577-0.85278-35.816-0.85278-35.816 10.233 14.497 24.73 28.994c12.791 10.233 23.025 18.761 42.638 34.963 19.614 19.614 16.203 27.288 16.203 26.436z" fill="url(#ao)" fill-rule="evenodd"/>
  <path d="m-97.273 583.8s-25.554-16.911-30.815-18.79-10.146-4.8853-13.904-7.1401-11.274-1.879-11.274-1.879l1.1274 2.6306s5.2611-0.75159 11.274 2.6306 13.904 7.5159 18.414 10.898 14.28 8.6433 16.159 9.0191 6.7643 3.7579 6.7643 3.7579l2.2548-1.1274z" fill="#fff" fill-opacity=".3857" fill-rule="evenodd"/>
  <path d="m-311.19 716.59s9.1962 0.79086 12.97 0.7196c4.2527-0.0803 9.8071-0.45866 12.767-0.80299 0.92578 4.5623 3.8528 8.7131 4.8179 9.9569 1.2045 1.1242-35.572 0.1606-35.572 0.1606s4.6164-6.3891 5.0163-10.034z" fill="url(#an)" fill-rule="evenodd"/>
  <g transform="matrix(.4422 0 0 .4422 -579 310.43)" fill-rule="evenodd">
   <path transform="translate(-17.427 -1.9284)" d="m509.11 296.02c0 21.833-12.087 39.533-26.998 39.533s-26.998-17.7-26.998-39.533 12.087-39.533 26.998-39.533 26.998 17.699 26.998 39.532" stroke="#000" stroke-width="2.3"/>
   <path d="m459.26 256.08s6.6678 19.263 7.1617 35.562c14.57-4.9391 22.226-9.8782 22.226-9.8782s-3.7044-25.683-29.388-25.683z" fill="url(#i)"/>
   <path d="m444.1 269.76s-2.4696 21.485 6.6678 36.056 19.51 19.263 27.412 20.991c-2.4696 2.2226-13.583 8.1496-23.955-0.24696s-15.558-16.546-15.558-27.659 1.9756-24.943 5.433-29.141z" fill="url(#h)"/>
  </g>
  <path d="m-293.48 423.8s2.9485 8.518 3.1669 15.726c6.4431-2.1841 9.8285-4.3682 9.8285-4.3682s-1.6381-11.357-12.995-11.357z" fill="url(#am)" fill-rule="evenodd"/>
  <path d="m-299.26 430.22s-1.0921 9.5008 2.9485 15.944 8.6272 8.518 12.122 9.2824c-1.0921 0.98285-6.0063 3.6038-10.593-0.1092s-6.8799-7.3167-6.8799-12.231 0.87362-11.03 2.4025-12.886z" fill="url(#al)" fill-rule="evenodd"/>
  <path transform="matrix(.4422 0 0 .4422 -992.85 315.68)" d="m914.08 941.08c0 20.236-180.45 36.64-403.04 36.64s-403.04-16.404-403.04-36.64 180.45-36.64 403.04-36.64 403.04 16.404 403.04 36.64" fill="#a0a0a0" fill-rule="evenodd" filter="url(#s)" opacity=".8"/>
  <path d="m-914.51 566.35s-1.5022 7.3548-1.2635 15.161c2.3675 77.414 67.074 140.24 149.72 140.24s148.95-62.457 149.72-140.24c0.0914-9.2423-3.0554-16.425-3.0554-16.425s17.688 3.7903 49.274 26.532c27.796 5.0538 17.688-17.688 17.688-17.688s-6.3172-17.688-46.747-49.274-39.342-42.251-43.747-61.759c-4.4391-19.659-10.581-45.634-10.581-45.634s-9.3424-40.815-30.574-61.914-50.417-34.108-82.607-34.108c-32.43 0-61.805 13.231-83.073 34.613s-33.164 53.828-33.164 53.828-6.7907 25.74-6.6336 46.428c0.15375 20.254-4.7373 38.222-45.167 69.808s-46.747 49.274-46.747 49.274-9.634 21.321 18.162 16.268c31.586-20.848 48.801-25.112 48.801-25.112z" fill="#ff8080" fill-rule="evenodd"/>
  <path transform="matrix(.48036 0 0 .44681 -1492.7 328.52)" d="m1700.9 175.49c0 102.24-85.044 185.13-189.95 185.13s-189.95-82.886-189.95-185.13 85.044-185.13 189.95-185.13 189.95 82.884 189.95 185.13" fill="url(#q)" fill-rule="evenodd"/>
  <path d="m-644.96 607.34c0 38.363-13.51 73.922-35.35 99.081s-148.78 25.159-170.62 0-35.354-59.908-35.354-98.271c0-76.727 54.057-139 120.66-139 66.112 0 119.89 62.035 120.66 138.19z" fill="url(#ah)" fill-rule="evenodd"/>
  <path d="m-876.81 557.74s-4.0791 38.344 0.81583 60.371 10.606 44.055 10.606 44.055l-11.829 3.6712s-6.5266-7.3424-12.237-16.317-12.645-27.33-12.645-27.33l18.356 14.277s-3.6712-15.501-2.0396-32.633 3.2633-35.081 8.9741-46.094z" fill="#fff" fill-opacity=".3857" fill-rule="evenodd"/>
  <path transform="matrix(.4422 0 0 .4422 -521.86 310)" d="m-696.41 418.11s12.058 18.473 20.3 18.727c13.635 1.4531 17.462 15.848 30.961 14.884 28.927 34.712 54.334 66.896 81.332 80.395 9.6204 6.3083 20.091 7.8445 28.927-7.4523 15.428-13.499 50.924-51.523 58.507-66.221 11.178-12.9 8.6507-31.792 8.6507-31.792s19.131-7.5964 28.593-8.268c10.687-0.75858 1.5703-19.335 11.044-21.094-2.3834-15.241 12.431-14.992-4.9246-16.92s-237.2-13.499-254.55-1.9284-20.407 18.456-8.8359 39.669z" fill="#a0a0a0" fill-rule="evenodd" filter="url(#t)"/>
  <path transform="matrix(.4633 0 0 .36193 -1009 335.68)" d="m725.09 284.44c0 55.915-49.213 101.24-109.92 101.24s-109.92-45.328-109.92-101.24 49.213-101.24 109.92-101.24 109.92 45.327 109.92 101.24" fill="url(#f)" fill-rule="evenodd" stroke="#000" stroke-width="8.729"/>
  <path d="m-654.87 559.77s4.0791 38.344-0.81582 60.371-10.606 44.055-10.606 44.055l11.829 3.6712s6.5266-7.3424 12.237-16.317 12.645-27.33 12.645-27.33l-18.356 14.277s3.6712-15.501 2.0396-32.633-3.2633-35.081-8.9741-46.094z" fill="#fff" fill-opacity=".3857" fill-rule="evenodd"/>
  <path transform="matrix(.4422 0 0 .4422 -521.86 310)" d="m-202.91 910.6c0 16.9-4.779 23.005-13.42 37.655h-314.52c-8.6405-14.65-13.42-20.754-13.42-37.655 0-67.602 76.464-122.47 170.68-122.47s170.68 54.864 170.68 122.46" fill="#a0a0a0" fill-rule="evenodd" filter="url(#c)"/>
  <path d="m-602.28 715.2c0 7.4734-2.1132 10.173-5.9342 16.651h-139.08c-3.8209-6.4783-5.9342-9.1777-5.9342-16.651 0-29.894 33.813-54.155 75.474-54.155s75.474 24.261 75.474 54.154" fill="#faa" fill-rule="evenodd"/>
  <path transform="matrix(.4422 0 0 .4422 -521.86 310)" d="m-555.96 912.45c0 16.9-4.779 23.005-13.42 37.655h-314.52c-8.6405-14.65-13.42-20.754-13.42-37.655 0-67.602 76.464-122.47 170.68-122.47s170.68 54.864 170.68 122.46" fill="#a0a0a0" fill-rule="evenodd" filter="url(#c)"/>
  <path d="m-777.09 715.2c0 7.4734-2.1133 10.173-5.9342 16.651h-139.08c-3.8209-6.4783-5.9342-9.1777-5.9342-16.651 0-29.894 33.813-54.155 75.474-54.155s75.474 24.261 75.474 54.154" fill="#faa" fill-rule="evenodd"/>
  <path transform="matrix(.6211 0 0 .41065 -1106.4 312.29)" d="m700.02 299.87c0 46.33-37.126 83.887-82.923 83.887s-82.923-37.558-82.923-83.887 37.126-83.887 82.923-83.887 82.922 37.557 82.923 83.886" fill-rule="evenodd"/>
  <path transform="matrix(.52258 0 0 .50168 -1028.9 289.7)" d="m511.04 286.37c0 66.565-42.306 120.53-94.493 120.53s-94.493-53.962-94.493-120.53 42.306-120.53 94.493-120.53 94.492 53.961 94.493 120.53" fill="url(#p)" fill-rule="evenodd" stroke="#000" stroke-width="7.7728"/>
  <path transform="matrix(.56757 0 0 .55464 -1055.7 289.7)" d="m507.18 269.02c0 53.785-34.536 97.386-77.137 97.386s-77.137-43.601-77.137-97.386 34.536-97.386 77.137-97.386 77.137 43.6 77.137 97.384" fill-rule="evenodd" stroke="#000" stroke-width="2.3645"/>
  <path transform="matrix(.58454 0 0 .38693 -1084 318.07)" d="m692.31 306.62c0 43.667-34.536 79.066-77.137 79.066s-77.137-35.399-77.137-79.066 34.536-79.066 77.137-79.066 77.137 35.398 77.137 79.065" fill="url(#d)" fill-rule="evenodd"/>
  <path transform="matrix(.4422 0 0 .4422 -970.63 314.34)" d="m509.11 296.02c0 21.833-12.087 39.533-26.998 39.533s-26.998-17.7-26.998-39.533 12.087-39.533 26.998-39.533 26.998 17.699 26.998 39.532" fill-rule="evenodd"/>
  <path d="m-731.05 409.49s24.73-4.2638 38.374 12.791 9.3804 23.025 9.3804 23.025l-18.761 0.85277s-11.939-27.288-28.994-36.669z" fill="url(#af)" fill-rule="evenodd" opacity=".8"/>
  <path d="m-762.27 459.92s22.451 7.3502 42.065 5.931 28.862-5.4534 36.77-9.7629c-1.985 5.1701-20.436 13.324-36.638 13.797s-42.197-9.492-42.197-9.9651z" fill="url(#v)" fill-rule="evenodd" opacity=".8"/>
  <path transform="matrix(.58961 0 0 .65409 -1634.1 140.62)" d="m1382.7 852.37c0 25.561-34.967 46.282-78.102 46.282s-78.102-20.721-78.102-46.282 34.967-46.282 78.102-46.282 78.101 20.721 78.102 46.282" fill="url(#b)" fill-rule="evenodd" opacity=".8"/>
  <path transform="matrix(.58961 0 0 .65409 -1435.4 140.62)" d="m1382.7 852.37c0 25.561-34.967 46.282-78.102 46.282s-78.102-20.721-78.102-46.282 34.967-46.282 78.102-46.282 78.101 20.721 78.102 46.282" fill="url(#b)" fill-rule="evenodd" opacity=".8"/>
  <path d="m-977.5 580.04s71.632-46.049 82.718-54.577 0.85278-35.816 0.85278-35.816-10.233 14.497-24.73 28.994c-12.791 10.233-23.025 18.761-42.638 34.963-19.614 19.614-16.203 27.288-16.203 26.436z" fill="url(#ad)" fill-rule="evenodd"/>
  <path d="m-969.92 589.47s25.554-16.911 30.815-18.79 10.146-4.8853 13.904-7.1401 11.274-1.879 11.274-1.879l-1.1274 2.6306s-5.2611-0.75159-11.274 2.6306-13.904 7.5159-18.414 10.898-14.28 8.6433-16.159 9.0191-6.7643 3.7579-6.7643 3.7579l-2.2548-1.1274z" fill="#fff" fill-opacity=".3857" fill-rule="evenodd"/>
  <path d="m-556.42 579.18s-71.632-46.049-82.718-54.577-0.85278-35.816-0.85278-35.816 10.233 14.497 24.73 28.994c12.791 10.233 23.025 18.761 42.638 34.963 19.614 19.614 16.203 27.288 16.203 26.436z" fill="url(#ac)" fill-rule="evenodd"/>
  <path d="m-563.99 588.62s-25.554-16.911-30.815-18.79-10.146-4.8853-13.904-7.1401-11.274-1.879-11.274-1.879l1.1274 2.6306s5.2611-0.75159 11.274 2.6306 13.904 7.5159 18.414 10.898 14.28 8.6433 16.159 9.0191 6.7643 3.7579 6.7643 3.7579l2.2548-1.1274z" fill="#fff" fill-opacity=".3857" fill-rule="evenodd"/>
  <path d="m-777.9 721.41s9.1962 0.79085 12.97 0.71959c4.2527-0.0803 9.8071-0.45866 12.767-0.80299 0.92578 4.5623 3.8528 8.7131 4.8179 9.9569 1.2045 1.1242-35.572 0.1606-35.572 0.1606s4.6164-6.3891 5.0163-10.034z" fill="url(#ab)" fill-rule="evenodd"/>
  <path d="m-760.2 428.62s2.9485 8.518 3.1669 15.726c6.4431-2.1841 9.8285-4.3682 9.8285-4.3682s-1.6381-11.357-12.995-11.357z" fill="url(#aa)" fill-rule="evenodd"/>
  <path d="m-765.97 435.04s-1.0921 9.5008 2.9485 15.944 8.6272 8.518 12.122 9.2824c-1.0921 0.98285-6.0063 3.6038-10.593-0.1092s-6.8799-7.3167-6.8799-12.231 0.87362-11.03 2.4025-12.886z" fill="url(#z)" fill-rule="evenodd"/>
  <path d="m-769.49 301.61c-30.244-5.455-55.032-40.89-74.741-19.308-11.354 12.807-10.64 59.596 2.18 71.004 23.615 14.689 37.157-24.263 72.561-30.831v-21.177" fill="#f0f"/>
  <path d="m-765.04 302.54c30.244-5.455 55.966-41.202 75.675-19.62 11.354 12.807 10.64 59.596-2.1799 71.004-23.615 14.689-36.222-24.574-71.627-31.142" fill="#f0f"/>
  <path transform="matrix(.24973 0 0 .24973 -632.24 320.19)" d="m-268.38-155.03c-24.932-0.77658-64.213 19.095-109.34 45.938-38.277 22.766-80.956 49.096-129.16 63.125l3.9062 42.344c75.079 20.642 126.71 69.997 167.72 104.28 22.453 18.769 41.897 32.699 57.219 37.906 14.539 4.941 24.973 5.19 42.969-5.3438 6.6536-6.7524 15.972-23.363 22.219-46.219 6.5826-24.085 10.54-54.15 11.281-84.375 1.4818-60.45-14.691-123.01-27.562-137.53-14.461-15.72-25.391-19.693-39.25-20.125z" fill="url(#j)" filter="url(#r)"/>
  <path transform="matrix(-.24147 0 0 .24147 -893.34 320.28)" d="m-268.38-155.03c-24.932-0.77658-64.213 19.095-109.34 45.938-38.277 22.766-80.956 49.096-129.16 63.125l3.9062 42.344c75.079 20.642 126.71 69.997 167.72 104.28 22.453 18.769 41.897 32.699 57.219 37.906 14.539 4.941 24.973 5.19 42.969-5.3438 6.6536-6.7524 15.972-23.363 22.219-46.219 6.5826-24.085 10.54-54.15 11.281-84.375 1.4818-60.45-14.691-123.01-27.562-137.53-14.461-15.72-25.391-19.693-39.25-20.125z" fill="url(#j)" filter="url(#r)"/>
  <path d="m-769.77 300.36h7.5955a5.5449 8.834 0 0 1 5.5449 8.834v6.6228a5.5449 8.834 0 0 1 -5.5449 8.834h-7.5955a5.5449 8.834 0 0 1 -5.5449 -8.834v-6.6228a5.5449 8.834 0 0 1 5.5449 -8.834" fill="url(#w)" fill-rule="evenodd"/>
  <path transform="matrix(.22838 0 0 .15122 -884.19 303.29)" d="m850.89-22.999c0 72.298-22.589 130.91-50.454 130.91s-50.454-58.609-50.454-130.91 22.589-130.91 50.454-130.91 50.453 58.608 50.454 130.9" fill="url(#aj)" fill-rule="evenodd"/>
  <path transform="matrix(.22838 0 0 .16159 -1012.8 303.64)" d="m850.89-22.999c0 72.298-22.589 130.91-50.454 130.91s-50.454-58.609-50.454-130.91 22.589-130.91 50.454-130.91 50.453 58.608 50.454 130.9" fill="url(#ai)" fill-rule="evenodd"/>
  <path d="m-772.88 394.5c-5.0495-9.5978-5.9086-17.677 2.5583-21.106-4.8519 0.72332-9.6741 2.2572-11.086 9.1672-7.7008-8.8509-3.5091-12.558 1.066-17.482-4.7134 3.1596-10.24 5.8316-10.02 11.726-5.7035-5.7562-4.5869-13.005-0.63958-18.761-3.5567 3.5106-8.9146 8.7329-8.5276 14.497-8.4293-4.4717-6.3866-12.693-5.1166-18.761-3.1295 4.7446-8.4706 11.746-4.2638 17.055-10.734-4.0379-10.005-10.985-8.954-18.334-1.3084 6.3247-6.4702 13.076-1.9187 19.4-11.448-0.56693-11.765-8.4474-12.578-16.842-0.54051 6.6089-2.0871 13.644 1.9187 20.253-6.4301-0.55632-9.7218-2.2502-14.497-14.497 0.53171 7.1067 1.4722 13.64 5.9694 19.614-6.7709-1.1444-12.441-2.951-16.416-11.939 1.8999 7.5516 3.857 13.34 9.1672 17.482-6.3997 0.7352-10.442-2.0171-16.842-9.8068 2.0088 7.2745 3.8262 12.833 11.512 17.268-6.9106 0.29942-10.912-3.8426-17.268-8.5276 3.9351 7.3373 7.0089 11.494 13.218 14.284-8.6572 1.4154-12.429-0.84968-18.334-3.8374 5.7562 6.9004 9.5936 10.698 15.35 11.939-4.6941 5.831-11.707 6.4687-20.253 4.0506 7.3497 3.6235 13.756 5.0452 19.4 4.6902 9.6587-34.98 47.224-64.728 86.556-21.532z" stroke="#000" stroke-width=".4422"/>
  <g transform="matrix(.4422 0 0 .34139 -232.14 338.62)">
   <path transform="matrix(1.3219 0 0 1.1067 -1919.2 -41.238)" d="m692.31 306.62c0 43.667-34.536 79.066-77.137 79.066s-77.137-35.399-77.137-79.066 34.536-79.066 77.137-79.066 77.137 35.398 77.137 79.065" fill="url(#d)" fill-rule="evenodd"/>
   <path transform="matrix(1.0435 0 0 1.0187 -1747 -8.051)" d="m725.09 284.44c0 55.915-49.213 101.24-109.92 101.24s-109.92-45.328-109.92-101.24 49.213-101.24 109.92-101.24 109.92 45.327 109.92 101.24" fill="url(#f)" fill-rule="evenodd" stroke="#000" stroke-width="8.729"/>
   <path d="m-1217.2 275.32c13.874-8.8094 4.8891-12.141-2.4687-20.95 10.147 7.1914 26.31 8.5232 21.173 15.715 22.165-7.8498 14.261-14.178 12.729-24.159 4.2161 7.0285 22.953 18.437 15.85 26.716 32.571-13.452 17.332-22.988 21.414-30.682 4.0255 8.4065 16.563 20.526 7.1285 29.634 31.864-6.2111 25.913-21.721 29.659-30.759 4.1338 6.9435 4.6286 21.617-3.0037 29.266 25.787-5.0581 37.087-19.785 39.208-27.681 1.8687 8.2566-1.1552 23.589-13.28 30.407 27.669-3.0893 38.783-17.079 50.763-25.106-5.1472 8.3961-10.681 18.996-25.719 23.834 24.785-0.37006 43.386-10.347 58.281-17.324-10.385 6.2561-18.776 14.591-41.596 15.379 25.645 1.3933 51.452-0.27027 68.637-6.9924-13.946 5.5375-25.987 7.9366-49.943 6.3282 40.912 3.4351 48.652 6.475 65.558 1.6448-11.814 5.7014-34.47 1.7108-49.096-0.1736 24.455 4.512 48.149 11.731 64.196 9.6912-14.756 1.9192-30.994-12.746-51.05-13.21 22.656 6.0874 38.876 27.569 59.773 25.779-10.751 1.9653-31.711-7.7057-48.021-11.827-19.836-24.845-90.014-3.9735-230.19-5.5306z" stroke="#000" stroke-width=".65947"/>
   <path transform="matrix(1.4046 0 0 .03783 -1971.8 266.99)" d="m700.02 299.87c0 46.33-37.126 83.887-82.923 83.887s-82.923-37.558-82.923-83.887 37.126-83.887 82.923-83.887 82.922 37.557 82.923 83.886" fill="#999" fill-rule="evenodd"/>
  </g>
  <path transform="matrix(.54023 0 0 .54174 -1044.4 294.45)" d="m507.18 269.02c0 53.785-34.536 97.386-77.137 97.386s-77.137-43.601-77.137-97.386 34.536-97.386 77.137-97.386 77.137 43.6 77.137 97.384" fill="url(#g)" fill-rule="evenodd"/>
  <g transform="matrix(.4422 0 0 .4422 -989.04 316.46)" fill-rule="evenodd">
   <path transform="translate(-17.427 -1.9284)" d="m509.11 296.02c0 21.833-12.087 39.533-26.998 39.533s-26.998-17.7-26.998-39.533 12.087-39.533 26.998-39.533 26.998 17.699 26.998 39.532" stroke="#000" stroke-width="2.3"/>
   <path d="m459.26 256.08s6.6678 19.263 7.1617 35.562c14.57-4.9391 22.226-9.8782 22.226-9.8782s-3.7044-25.683-29.388-25.683z" fill="url(#i)"/>
   <path d="m444.1 269.76s-2.4696 21.485 6.6678 36.056 19.51 19.263 27.412 20.991c-2.4696 2.2226-13.583 8.1496-23.955-0.24696s-15.558-16.546-15.558-27.659 1.9756-24.943 5.433-29.141z" fill="url(#h)"/>
  </g>
  <path d="m-838.5 405.22s11.939-22.172 34.963-14.497 27.288 20.466 33.258 51.166-23.877 3.411-23.877 3.411-3.4111-26.436-18.761-34.111-25.583-5.1166-25.583-5.9693z" fill="url(#ag)" fill-rule="evenodd" opacity=".8"/>
  <path d="m-851.95 424.15s3.6863 29.995 20.978 46.494 31.485 20.113 45.164 22.139c-10.771 4.5524-39.276-2.5274-52.305-17.022s-14.686-51.024-13.837-51.61z" fill="url(#u)" fill-rule="evenodd" opacity=".8"/>
  <path d="m-765.93 533.15 4.204-0.0792s4.5736-5.0588 20.473-21.68c10.599-12.045 13.972-19.994 13.972-19.994s2.168-7.9495-8.1904-16.14c-13.595-6.7501-20.473-6.745-30.524-6.7054s-17.516 1.244-30.524 6.7846-10.84 16.622-10.84 16.622 0.96356 5.2997 16.863 21.921 24.568 19.271 24.568 19.271z" fill="#e9afaf" fill-rule="evenodd"/>
  <path d="m-792.72 476.45s20.572 1.3715 34.091 9.6004 18.417 19.593 18.417 19.593 8.4248-9.2086 9.6004-12.735 3.5267-10.58-8.8167-17.633-19.397-5.0941-31.348-4.8982-21.944 6.2696-21.944 6.0737z" fill="url(#ae)" fill-rule="evenodd" opacity=".8"/>
  <path d="m-801.84 483.9s1.1748 4.2293 2.3496 5.2866-1.8797-0.23496-1.1748 2.8195 35.949 37.359 35.949 37.359-1.6447 1.4098-8.4585-3.5244-22.909-21.734-27.138-27.02c-3.9521-4.9402-5.2866-9.046-1.5272-14.92z" fill="#fff" fill-opacity=".4286" fill-rule="evenodd"/>
  <path d="m-768.51 301.09h5.3612a3.9138 3.3682 0 0 1 3.9138 3.3682v2.5251a3.9138 3.3682 0 0 1 -3.9138 3.3682h-5.3612a3.9138 3.3682 0 0 1 -3.9138 -3.3682v-2.5251a3.9138 3.3682 0 0 1 3.9138 -3.3682" fill="url(#ak)" fill-rule="evenodd"/>
 </g>
</svg>
