<?xml version="1.0" encoding="UTF-8"?>
<svg viewBox="0 0 250.65 332.95" xmlns="http://www.w3.org/2000/svg">
 <defs>
  <clipPath id="a">
   <path d="m0 1109.8v-1109.8h835.52v1109.8h-835.52z"/>
  </clipPath>
 </defs>
 <g transform="matrix(1.25,0,0,-1.25,0,332.95)">
  <g transform="scale(.24)">
   <g clip-path="url(#a)">
    <path d="m6.293 6.293h822.93v1097.2h-822.93v-1097.2z" fill="#fff"/>
    <path d="m6.293 6.293h822.93v1097.2h-822.93v-1097.2z" fill="none" stroke="#231f20" stroke-linecap="round" stroke-miterlimit="3.864" stroke-width="12.591"/>
    <path d="m94.098 372.21h647.33v647.33h-647.33v-647.33z" fill="none" stroke="#e22d40" stroke-linecap="round" stroke-miterlimit="3.864" stroke-width="126.91"/>
    <path d="m360.57 904.26c0 40.625 32.938 73.551 73.563 73.551 40.637 0 73.562-32.926 73.562-73.551 0-40.649-32.925-73.578-73.562-73.578-40.625 0-73.563 32.929-73.563 73.578" fill="#231f20"/>
    <path d="m393.31 808.9v-26.34l81.652 26.34v-26.34l-81.652 26.34" fill="#231f20"/>
    <path d="m378.27 811.77c-25.047-25.032-67.426-94.407-67.426-175.31 0-80.926 42.379-154.14 67.426-175.34v350.64" fill="#231f20"/>
    <path d="m490.01 811.77c25.035-25.032 67.429-94.407 67.429-175.31 0-80.926-42.394-154.14-67.429-175.34v350.64" fill="#231f20"/>
    <path d="m424.5 424.54c0-5.855-4.746-10.601-10.598-10.601h-69.359c-5.852 0-10.586 4.746-10.586 10.601 0 5.848 4.734 10.594 10.586 10.594h30.836c9.629 0 13.492 6.738 13.492 15.394h35.629v-25.988" fill="#231f20"/>
    <path d="m443.77 424.54c0-5.855 4.75-10.601 10.589-10.601h69.372c5.828 0 10.597 4.746 10.597 10.601 0 5.848-4.769 10.594-10.597 10.594h-30.813c-9.641 0-13.5 6.738-13.5 15.394h-35.648v-25.988" fill="#231f20"/>
    <path d="m400.43 883.06c10.094 0 18.297 8.187 18.297 18.296s-8.203 18.297-18.297 18.297h-104.03c-10.118 0-18.309-8.191-18.309-18.297s8.191-18.296 18.309-18.296h104.03" fill="#231f20"/>
    <path d="m380.39 902.31c0 10.55 8.531 19.085 19.066 19.085s19.07-8.535 19.07-19.085c0-10.524-8.543-19.055-19.07-19.055-10.535 0-19.066 8.531-19.066 19.055" fill="#fff"/>
    <path d="m113.61 1e3 608.29-608.33" fill="none" stroke="#e22d40" stroke-linecap="round" stroke-miterlimit="3.864" stroke-width="126.91"/>
    <path d="m739.12 77.223v-36.524h49.36v21.148h-33.227v15.375h-16.133zm-56.804 0-8.95-17.906v-18.617h55.821v20.828h-36.051l7.871 15.695h-18.691zm-68.016 0v-36.524h49.328v21.148h-33.246v15.375h-16.082zm-58.43 0v-36.524h49.379v21.148h-33.25v15.375h-16.129zm-36.617 0 8.949-36.524h17.93l-9.688 36.524h-17.191zm-29.535-36.524h16.133v36.524h-16.133v-36.524zm-54.75 0h16.117v36.524h-16.117v-36.524zm-71.867 0h16.121v36.524h-16.121v-36.524zm-80.598 36.524c1.156-7.5079 3.086-14.66 5.875-20.93 5.449-12.078 13-17.168 22.367-17.168 9.36 0 17.52 6.0234 22.871 18.445 2.371 5.5586 4.082 12.469 5.153 19.625l-16.711 0.0274c-0.258-1.6993-0.567-3.3477-0.934-4.8711-1.82-8.1133-4.844-12.398-10.379-12.398-6.871 0-10.07 7.9414-11.531 17.27h-16.711zm-38.707 0 13.18-36.524h13.797v36.524h-26.977zm-26.199-36.524h12.492v36.524h-12.492v-36.524zm-98.203 36.524c1.168-7.5079 3.086-14.66 5.886-20.93 5.438-12.078 12.985-17.168 22.356-17.168s17.519 6.0234 22.867 18.445c2.375 5.5586 4.094 12.469 5.164 19.625l-16.719 0.0274c-0.261-1.6993-0.566-3.3477-0.937-4.8711-1.805-8.1133-4.832-12.398-10.375-12.398-6.863 0-10.07 7.9414-11.524 17.27h-16.718zm-65.094 0v-36.524h22.758c9.7617 0 18.223 3.1758 25.07 15.125 3.504 6.2461 5.926 13.551 7.367 21.371l-17.386 0.0274c-0.4297-1.4805-0.9102-2.9571-1.4649-4.3829-3.7226-9.539-8.0508-11.605-14.801-11.605h-5.4375v15.988h-16.105" fill="#231f20" fill-rule="evenodd"/>
    <path d="m739.12 115.31v-38.086h16.133v8.8281h26.168v20.504h-26.168v8.754h-16.133zm-37.816 0-18.988-38.086h18.691l19.129 38.086h-18.832zm-87.004 0v-38.086h16.082v8.8281h26.187v20.504h-26.187v8.754h-16.082zm-58.43 0v-38.086h16.129v8.8281h26.168v20.504h-26.168v8.754h-16.129zm-66.152 0v-38.086h16.133v6.5898h11.777l1.625-6.5898h17.191l-3.101 11.672c7.109 4.1133 11.558 14.71 11.953 26.438l-16.773-0.023c-0.293-4.157-1.668-8.286-3.934-10.5-2.926-2.704-6.539-2.239-9.887-2.239h-8.851v12.739h-16.133zm-54.75 0v-38.086h16.117v6.1132h26.289v20.516h-26.289v11.457h-16.117zm-71.867 0v-38.086h16.121v38.086h-16.121zm-41.352 0c1.156-6.368 1.477-13.672 1.477-20.04 0-5.5312-0.293-12.199-1.168-18.023l16.711-0.0234c0.933 6.1132 1.386 12.465 1.386 18.195 0 6.391-0.589 13.277-1.757 19.914l-16.649-0.023zm-39.039 0c-1.055-6.27-1.57-13.036-1.57-19.891 0-6.0782 0.429-12.25 1.363-18.223l16.711 0.0274c-0.949 6.0937-1.156 12.781-1.156 18.195 0 5.875 0.453 13.645 1.586 19.844l-16.934 0.047zm-65.113 0v-38.086h12.492v36.812h0.406l13.301-36.812h26.977v38.086h-12.481v-29.582h-0.207l-10.648 29.582h-29.84zm-58.961 0c1.172-6.368 1.492-13.672 1.492-20.04 0-5.5312-0.297-12.199-1.18-18.023l16.719-0.0234c0.934 6.1132 1.379 12.465 1.379 18.195 0 6.391-0.594 13.277-1.746 19.914l-16.664-0.023zm-39.035 0c-1.059-6.27-1.575-13.036-1.575-19.891 0-6.0782 0.442-12.25 1.368-18.223l16.718 0.0274c-0.961 6.0937-1.168 12.781-1.168 18.195 0 5.875 0.454 13.645 1.598 19.844l-16.941 0.047zm-27.825 0c1.8047-5.829 2.7032-12.563 2.7032-18.934 0-6.4648-0.711-13.133-2.3711-19.129l17.386-0.0234c1.082 5.875 1.598 12.07 1.598 18.363 0 6.7661-0.594 13.406-1.856 19.676l-17.461 0.047zm-37.476 0v-38.086h16.105v38.086h-16.105" fill="#231f20" fill-rule="evenodd"/>
    <path d="m755.25,115.309v13.355h33.227v21.149h-49.36v-34.504h16.133zm-35.117,0 7.918,15.742v18.762h-52.254v-20.661h32.437l-6.914-13.843h18.813zm-89.754,0v13.355h33.246v21.149h-49.328v-34.504h16.082zm-58.383,0v13.355h33.25v21.149h-49.379v-34.504h16.129zm-66.148,0v15.101h8.461c3,0 7.644.641 10.375-2.07 2.312-2.211 3.937-6.832 3.937-11.11 0-.644-.051-1.281-.101-1.921h16.773c.023.589.023,1.183.023,1.746 0,10.648-3.125,21.32-8.753,27.199-5.336,5.41-11.583,5.559-17.731,5.559h-29.117v-34.504h16.133zm-54.766,0v13.355h33.031v21.149h-49.148v-34.504h16.117zm-71.863,0v12.886h17.324v21.618h-50.965v-21.618h17.52v-12.886h16.121zm-79.567,0c.184.957.383,1.945.614,2.855 1.918,7.965 4.945,12.414 10.476,12.414 5.043,0 7.957-3.34 9.973-10.644 .394-1.477.738-3 1.019-4.575l16.661-.05c-1.243,7.109-3.149,13.894-5.692,19.402-5.547,11.926-12.789,16.699-21.961,16.699-15.601,0-24.629-15.738-28.035-36.051l16.945-.05zm-28.882,34.504h-12.493v-34.504h12.493v34.504zm-23.325-34.504-12.429,34.504h-17.422v-34.504h29.851zm-110.906,0c.188.957.395,1.945.617,2.855 1.918,7.965 4.942,12.414 10.477,12.414 5.039,0 7.953-3.34 9.969-10.644 .406-1.477.738-3 1.031-4.575l16.648-.05c-1.238,7.109-3.144,13.894-5.691,19.402-5.543,11.926-12.785,16.699-21.957,16.699-15.594,0-24.629-15.738-28.035-36.051l16.941-.05zm-66.1367,0v14.484h5.5469c5.7266,0 9.8594-1.129 13.586-8.754 .8593-1.769 1.5976-3.687 2.2382-5.73h17.4456c-1.684,8.261-4.559,15.914-8.801,22.281-7.5625,11.285-16.1211,12.223-26.0938,12.223h-20.0429v-34.504h16.121" fill="#231f20" fill-rule="evenodd"/>
    <path d="m684.379,221.984v-50.949h49.355v21.168h-33.222v24.176h26.164v5.605h-42.297zm-41.758-50.949h16.109v50.949h-16.109v-50.949zm-61.523,50.949-10.332-50.949h14.191l4.332,22.453h22.348l4.234-22.453h17.434l-10.11,50.949h-16.918l1.649-8.461h-14.703l1.617,8.461h-13.742zm-70.848,0v-50.949h16.109v43.106h11.805l10.57-43.106h17.903l-12.785,48.199c1.253.731 2.406,1.645 3.488,2.75h-47.09zm-58.711,0v-50.949h49.34v21.168h-33.219v24.176h26.188v5.605h-42.309zm-69.641,0c.504-27.589 8.95-52.527 28.575-52.527 8.05,0 13.699,4.281 18.836,14.145l2.312-12.567h7.356v50.949h-28.407v-12.933h13.098c.402-11.117-4.441-18.91-11.488-18.91-10.66,0-13.489,17.902-13.77,31.82l-16.512.023zm-26.695-50.949h16.121v50.949h-16.121v-50.949zm-66.457,50.949v-50.949h16.109v43.106h11.79l10.574-43.106h17.926l-12.797,48.199c1.254.731 2.418,1.645 3.504,2.75h-47.106zm-54.762,0v-50.949h16.106v42.641h26.289v8.308h-42.395zm-58.293,0v-50.949h49.352v21.168h-33.234v24.176h26.175v5.605h-42.293zm-66.164,0v-50.949h16.121v43.106h11.778l10.574-43.106h17.938l-12.797,48.199c1.25.731 2.422,1.645 3.5,2.75h-47.114" fill="#231f20" fill-rule="evenodd"/>
    <path d="m526.359,260.766h8.457c3.024,0 7.645.613 10.379-2.09 2.309-2.215 3.934-6.813 3.934-11.113 0-4.77-1.43-9.864-4.031-12.422-2.926-2.703-6.543-2.211-9.891-2.211h-8.848v27.836zm-221.492,0h8.457c3.012,0 7.649.613 10.367-2.09 2.309-2.215 3.934-6.813 3.934-11.113 0-4.77-1.414-9.864-4.031-12.422-2.914-2.703-6.543-2.211-9.875-2.211h-8.852v27.836zm-179.219,0h8.457c3.024,0 7.661.613 10.379-2.09 2.313-2.215 3.922-6.813 3.922-11.113 0-4.77-1.414-9.864-4.023-12.422-2.922-2.703-6.551-2.211-9.871-2.211h-8.864v27.836zm601.028-38.782v14.903h-26.164v22.109h33.222v21.172h-49.355v-58.184h42.297zm-67.973,0v36.543h17.363v21.641h-50.98v-21.641h17.535v-36.543h16.082zm-63.863,0 5.73,29.879 5.735-29.879h16.89l-11.558,58.184h-18.739l-11.8-58.184h13.742zm-37.5,0c5.363,5.411 8.512,15.098 8.512,25.403 0,10.676-3.149,21.32-8.782,27.195-5.332,5.414-11.582,5.586-17.73,5.586h-29.09v-58.184h47.09zm-63.492,0v14.903h-26.164v22.109h33.195v21.172h-49.328v-58.184h42.297zm-54.871,7.43h-28.407v-7.43h28.407v7.43zm-40.567-7.43c-.012.762-.027,1.575-.027,2.336 0,13.528 1.711,36.914 13.097,36.914 7.758,0 11.481-9.222 12.188-20.187l15.309,3.34c-2.118,23.043-12.188,37.355-27.09,37.355-20.856,0-30.016-27.515-30.016-57.101 0-.883 0-1.77.012-2.633l16.527-.024zm-27.097,58.184h-16.122v-58.184h16.122v58.184zm-35.461-58.184c5.347,5.411 8.48,15.098 8.48,25.403 0,10.676-3.121,21.32-8.754,27.195-5.348,5.414-11.582,5.586-17.726,5.586h-29.106v-58.184h47.106zm-59.473,0v12.223h-26.289v24.789h33.039v21.172h-49.145v-58.184h42.395zm-58.395,0v14.903h-26.187v22.109h33.234v21.172h-49.34v-58.184h42.293zm-61.343,0c5.351,5.411 8.484,15.098 8.484,25.403 0,10.676-3.121,21.32-8.754,27.195-5.344,5.414-11.578,5.586-17.738,5.586h-29.094v-58.184h47.102" fill="#231f20" fill-rule="evenodd"/>
   </g>
  </g>
 </g>
</svg>
