<?xml version="1.0" encoding="UTF-8"?>
<svg width="36.622mm" height="47.989mm" version="1.1" viewBox="0 0 129.76146 170.03973" xmlns="http://www.w3.org/2000/svg" xmlns:xlink="http://www.w3.org/1999/xlink">
 <defs>
  <linearGradient id="a">
   <stop stop-color="#fff" offset="0"/>
   <stop stop-color="#fff" offset=".29186"/>
   <stop offset=".42515"/>
   <stop offset="1"/>
  </linearGradient>
  <radialGradient id="d" cx="424.42" cy="-60.494" r="6.5108" gradientTransform="matrix(.68997 .72384 -1.0513 1.0021 14.566 -4.1592)" gradientUnits="userSpaceOnUse" xlink:href="#a"/>
  <radialGradient id="e" cx="386.49" cy="289.95" r="6.6343" gradientTransform="matrix(.94798 .31833 -.45758 1.3627 186.72 -250.99)" gradientUnits="userSpaceOnUse" xlink:href="#a"/>
 </defs>
 <g transform="translate(-116.92 -104.32)">
  <g transform="matrix(.24404 0 0 .24404 91.062 81.542)">
   <g transform="translate(33.941 -22.627)" fill="#f00" fill-rule="evenodd" stroke="#000">
    <path d="m280.82 227.57-1.5152-31.315c4.4152-7.7744 6.7-16.299 24.244-22.223 11.273-3.8072 22.897-1.4295 34.345 2.0203 7.3723-12.713 23.44-14.558 46.972-7.0711 0 0 27.49-6.9814 40.406-3.0304 27.752 8.4893 33.91 27.662 48.992 43.437 12.574 13.151 25.354 45.462 43.437 43.437 24.244-2.715 31.82-61.114 31.82-61.114l10.102-1.5152c-0.16638-0.16638 2.1154 36.764-2.5254 56.569-5.0705 21.638-7.3439 50.058-42.931 51.013-19.427 0.52104-49.497-30.81-49.497-30.81l-17.173 26.769z" stroke-width="2.8346"/>
    <path d="m458.86 236.66c4.249 11.493 8.7863 23.511 5.8084 31.062" stroke-width="1.7717"/>
   </g>
   <path d="m296.08 391.82-62.629-42.426c-4.5162-4.95-7.9285-18.731-11.112-34.345 0 0 8.7444-26.76-7.0711-32.83-7.4673-2.866-21.213 17.678-21.213 17.678s-13.703-25.612-26.264-29.8c-12.561-4.187-30.535-2.1896-38.891 8.0812-10.412 12.799-8.0122 32.785-0.50507 47.477 6.1446 12.026 23.888 16.109 33.335 25.759 23.792 24.301 45.627 66.549 47.982 73.741l18.688 57.074z" fill="#d40000" fill-rule="evenodd" stroke="#000" stroke-width="2.8346"/>
   <path d="m212.23 334.24c-16.925-0.0105-32.776 2.129-40.406 20.708-25.835 4.1806-30.044 16.658-12.627 36.871 11.802 13.696 24.123 14.136 35.86 4.5457 10.821-8.8421 20.009-20.828 32.83-25.254 28.377-9.7963 21.958-23.516 16.668-36.871-5.8515-14.77-20.6-27.636-25.254-16.668z" fill="#fff" fill-rule="evenodd" stroke="#000" stroke-width="3.1181"/>
   <path d="m296.26 533.66a3.3929 3.9286 0 0 1 -3.3876 3.9286 3.3929 3.9286 0 0 1 -3.3981 -3.9164 3.3929 3.9286 0 0 1 3.3771 -3.9407 3.3929 3.9286 0 0 1 3.4086 3.9042" color="#000000"/>
   <path d="m298.05 562.95a3.3929 3.9286 0 0 1 -3.3876 3.9286 3.3929 3.9286 0 0 1 -3.3981 -3.9164 3.3929 3.9286 0 0 1 3.3771 -3.9407 3.3929 3.9286 0 0 1 3.4086 3.9042" color="#000000"/>
   <g transform="translate(33.941 -22.627)">
    <path d="m256.07 351.82s-85.806 82.601-94.954 138.9c-8.5666 52.717 4.0406 155.06 4.0406 155.06l-27.779 58.084s93.163 33.439 141.93 37.376c66.258 5.3489 198.49-19.193 198.49-19.193l-19.698-39.396-94.449-312.64z" fill="#f00" fill-rule="evenodd" stroke="#000" stroke-width="2.8346"/>
    <path d="m263.21 528.79a3.3929 3.9286 0 0 1 -3.3876 3.9286 3.3929 3.9286 0 0 1 -3.3981 -3.9164 3.3929 3.9286 0 0 1 3.3771 -3.9407 3.3929 3.9286 0 0 1 3.4086 3.9042" color="#000000"/>
    <path d="m273.39 452.36a3.3929 3.9286 0 0 1 -3.3876 3.9286 3.3929 3.9286 0 0 1 -3.3981 -3.9164 3.3929 3.9286 0 0 1 3.3771 -3.9407 3.3929 3.9286 0 0 1 3.4086 3.9042" color="#000000"/>
    <path d="m262.32 556.29a3.3929 3.9286 0 0 1 -3.3876 3.9286 3.3929 3.9286 0 0 1 -3.3981 -3.9164 3.3929 3.9286 0 0 1 3.3771 -3.9407 3.3929 3.9286 0 0 1 3.4086 3.9042" color="#000000"/>
    <path d="m264.11 585.58a3.3929 3.9286 0 0 1 -3.3876 3.9286 3.3929 3.9286 0 0 1 -3.3981 -3.9164 3.3929 3.9286 0 0 1 3.3771 -3.9407 3.3929 3.9286 0 0 1 3.4086 3.9042" color="#000000"/>
    <path d="m263.39 619.86a3.3929 3.9286 0 0 1 -3.3876 3.9286 3.3929 3.9286 0 0 1 -3.3981 -3.9164 3.3929 3.9286 0 0 1 3.3771 -3.9407 3.3929 3.9286 0 0 1 3.4086 3.9042" color="#000000"/>
    <path d="m266.25 650.58a3.3929 3.9286 0 0 1 -3.3876 3.9286 3.3929 3.9286 0 0 1 -3.3981 -3.9164 3.3929 3.9286 0 0 1 3.3771 -3.9407 3.3929 3.9286 0 0 1 3.4086 3.9042" color="#000000"/>
    <path d="m266.25 680.58a3.3929 3.9286 0 0 1 -3.3876 3.9286 3.3929 3.9286 0 0 1 -3.3981 -3.9164 3.3929 3.9286 0 0 1 3.3771 -3.9407 3.3929 3.9286 0 0 1 3.4086 3.9042" color="#000000"/>
   </g>
   <path d="m349.22 576.42c-2.7131-8.1857 4.5792-13.985 8.2972-20.253" fill="none" stroke="#000" stroke-width="1.7717"/>
   <path d="m379.55 576.71c-5.298-7.366-3.9774-15.075 0.10461-24.116" fill="none" stroke="#000" stroke-width="1.7717"/>
   <g transform="translate(33.941 -22.627)" fill-rule="evenodd" stroke="#000">
    <path d="m221.22 437.68 4.5469 18.184c-15.376-1.571-30.963-5.4956-47.534-8.2606-10.239 18.674-17.083 35.432-18.6 54.698l52.497 3.565-13.133 12.627s37.631-6.3462 54.549-2.5254c16.892 3.8149 43.941 24.75 43.941 24.75l-3.5352-16.164c46.886 6.2552 90.361 37.843 134.86 63.641l-14.648-51.518c-36.702-35.692-74.751-56.568-114.15-62.629l9.5957-15.152s-32.447 4.8264-47.982 1.0098c-14.928-3.6672-40.406-22.225-40.406-22.225zm19.193 27.275c14.132 7.1401 28.477 12.789 43.941 10.605-6.2894 11.785-11.868 23.57-7.5762 35.355-12.583-4.8358-21.612-13.735-42.932-8.5859 7.9106-17.304 9.3272-17.668 6.5664-37.375z" fill="#ff0" stroke-width="2.8346"/>
    <path d="m178.21 447.36 48.571 9.1072c4.6164 27.321-3.0272 37.63-12.857 49.107l-53.929-3.2143c1.5295-11.609 0.14012-23.073 18.214-55z" stroke-width="1px"/>
    <path d="m299.29 473.79c-9.333 14.311-11.679 30.808-6.25 50.357 12.083 2.6991 25.06 4.9666 37.143 10.357 32.207 12.718 65.447 33.697 98.571 53.75l-14.821-52.5c-16.866-15.242-34.768-29.678-55.893-41.607-17.326-10.535-38.127-15.945-58.75-20.357z" stroke-width="1px"/>
    <path d="m240.54 465.22c2.3318 10.689 2.474 22.217-6.9643 37.143 18.211-4.7191 30.124 2.1895 42.321 8.5714-1.4781-10.106-0.59928-21.11 7.8571-35-14.286 0.9971-28.452-2.6638-43.214-10.714z" stroke-width="1px"/>
   </g>
   <path d="m261.73 674.67c-20.951-3.6507-39.514-15.851-58.589-25.254-15.454-7.6178-34.743-9.0621-43.942 4.5457-10.194 15.08-8.9683 40.434 2.5254 54.548 34.344 42.175 103.79 37.337 158.09 40.406 30.517 1.7248 62.635 1.7851 92.83-4.5385 15.976-3.3459 29.96-16.116 46.066-14.654 15.535 1.41 25.844 17.173 40.911 13.132 26.885-7.2114 34.394-28.778 30.81-46.972-3.7763-19.168-27.766-43.476-45.962-36.365-34.867 13.624-59.674 15.289-89.398 15.657-45.243 0.56061-91.622 6.7643-133.34-0.50508z" fill="#fff" fill-rule="evenodd" stroke="#000" stroke-width="2.8346"/>
   <path d="m320.82 739.82s-42.962-37.272-68.185-39.901c-15.209-1.585-31.816 4.5224-40.406 17.173-8.9507 13.181-9.5964 35.86-9.5964 35.86s39.922 16.911 61.114 17.678c19.436 0.70284 57.074-12.122 57.074-12.122s30.124 15.461 46.467 15.657c20.447 0.24627 58.589-18.183 58.589-18.183s-10.597-22.701-19.698-30.81c-11.188-9.9674-25.424-19.913-40.406-19.698-24.825 0.35636-44.952 34.345-44.952 34.345z" fill="#800000" fill-rule="evenodd" stroke="#000" stroke-width="2.8346"/>
   <g transform="translate(33.941 -22.627)">
    <path d="m348 514.46-47.982 66.165c-3.7113 14.991 5.7168 16.843 15.152 18.688 5.9801 6.6063 8.1857 18.729 30.81 1.0102 0 0 10.454 10.961 17.173 10.607 24.862-1.3128 22.606-12.276 18.688-20.708-4.5984-9.8954-2.0203-23.234-2.0203-23.234 2.4231 0 48.769 83.451 66.67 103.54 19.272 21.628 53.563 31.935 79.297 21.718 27.657-10.98 49.138-42.024 56.569-70.206 9.8747-37.452-3.0998-80.184-21.718-114.15-17.462-31.853-46.576-58.976-79.297-74.751-30.948-14.921-71.375-30.171-102.03-14.647-14.984 7.5893-18.482 28.494-23.739 44.447-5.4317 16.486-7.5762 51.518-7.5762 51.518z" fill="#800000" fill-rule="evenodd" stroke="#000" stroke-width="2.8346"/>
    <path d="m507.85 501.32c-8.7494 19.584-13.354 37.786-18.183 56.063 15.396 7.1921 30.145 16.968 44.194 29.547 4.9682-16.362 10.448-33.576 17.425-53.286-17.826-7.9057-30.079-20.589-43.437-32.325z" fill="#008000" fill-rule="evenodd" stroke="#666" stroke-width="1.7717"/>
    <path d="m487.15 554.86c11.436 1.0194 23.246 0.0728 35.355-2.2728 12.351 20.636 23.919 41.663 33.588 63.64-26.373 2.9572-49.689 9.7356-73.489 15.91 5.125-23.753 5.4288-50.185 4.5457-77.277z" fill="#00f" fill-rule="evenodd" stroke="#666" stroke-width="1.7717"/>
    <path d="m494.72 561.68c8.3118 0.86716 16.546 2.1244 25.506-0.25254 7.1694 15.169 19.215 30.819 22.476 49.245-16.346 0.057-32.983 2.7236-50.003 8.8388 2.1212-18.036 4.4763-35.872 2.0203-57.831z" fill="none" stroke="#000" stroke-dasharray="5.3149606, 5.3149606" stroke-width="1.7717"/>
    <path d="m485.38 537.94c4.6719-0.33676 8.6047-1.659 15.152 0.50508" fill="none" stroke="#000" stroke-width="1.7717"/>
    <path d="m489.67 530.87c4.6299 0.34785 9.2597 0.17398 13.89 1.7678" fill="none" stroke="#000" stroke-width="1.7717"/>
    <path d="m492.2 525.06c4.1609 0.3429 7.9542-0.23326 13.385 3.283" fill="none" stroke="#000" stroke-width="1.7717"/>
    <path d="m532.1 503.85c-1.6686 6.9127-2.968 14.072-6.566 19.698" fill="none" stroke="#000" stroke-width="1.7717"/>
    <path d="m539.17 509.41c-3.5355 11.02-7.0711 13.71-10.607 19.193" fill="none" stroke="#000" stroke-width="1.7717"/>
    <path d="m543.97 514.96c-6.9847 4.4152-9.1234 9.9073-10.102 15.657" fill="none" stroke="#000" stroke-width="1.7717"/>
    <path d="m540.94 554.86c5.6481 1.3662 11.411 1.8139 16.415 8.3338" fill="none" stroke="#000" stroke-width="1.7717"/>
    <path d="m537.65 559.16c5.9406 3.0858 13.535 5.1794 16.415 10.102" fill="none" stroke="#000" stroke-width="1.7717"/>
    <path d="m537.15 563.45c4.6299 5.347 9.2597 10.945 13.89 12.374" fill="none" stroke="#000" stroke-width="1.7717"/>
    <path d="m513.66 522.03a3.283 3.5355 0 0 1 -3.2779 3.5355 3.283 3.5355 0 0 1 -3.2881 -3.5246 3.283 3.5355 0 0 1 3.2677 -3.5464 3.283 3.5355 0 0 1 3.2982 3.5136" color="#000000" fill="#f0f" stroke="#666" stroke-linecap="round" stroke-linejoin="bevel" stroke-width="1.063"/>
    <path d="m520.73 517.23a3.283 3.5355 0 0 1 -3.2779 3.5355 3.283 3.5355 0 0 1 -3.2881 -3.5246 3.283 3.5355 0 0 1 3.2677 -3.5464 3.283 3.5355 0 0 1 3.2982 3.5136" color="#000000" fill="#f0f" stroke="#666" stroke-linecap="round" stroke-linejoin="bevel" stroke-width="1.063"/>
    <path d="m521.24 526.83a3.283 3.5355 0 0 1 -3.2779 3.5355 3.283 3.5355 0 0 1 -3.2881 -3.5246 3.283 3.5355 0 0 1 3.2677 -3.5464 3.283 3.5355 0 0 1 3.2982 3.5136" color="#000000" fill="#f0f" stroke="#666" stroke-linecap="round" stroke-linejoin="bevel" stroke-width="1.063"/>
    <path d="m535.63 538.7a3.283 3.5355 0 0 1 -3.2779 3.5355 3.283 3.5355 0 0 1 -3.2881 -3.5246 3.283 3.5355 0 0 1 3.2677 -3.5464 3.283 3.5355 0 0 1 3.2982 3.5136" color="#000000" fill="#f0f" stroke="#666" stroke-linecap="round" stroke-linejoin="bevel" stroke-width="1.063"/>
    <path d="m541.19 547.03a3.283 3.5355 0 0 1 -3.2779 3.5355 3.283 3.5355 0 0 1 -3.2881 -3.5246 3.283 3.5355 0 0 1 3.2677 -3.5464 3.283 3.5355 0 0 1 3.2982 3.5136" color="#000000" fill="#f0f" stroke="#666" stroke-linecap="round" stroke-linejoin="bevel" stroke-width="1.063"/>
    <path d="m532.86 547.54a3.283 3.5355 0 0 1 -3.2779 3.5355 3.283 3.5355 0 0 1 -3.2881 -3.5246 3.283 3.5355 0 0 1 3.2677 -3.5464 3.283 3.5355 0 0 1 3.2982 3.5136" color="#000000" fill="#f0f" stroke="#666" stroke-linecap="round" stroke-linejoin="bevel" stroke-width="1.063"/>
    <path d="m513.41 536.93a3.283 3.5355 0 0 1 -3.2779 3.5355 3.283 3.5355 0 0 1 -3.2881 -3.5246 3.283 3.5355 0 0 1 3.2677 -3.5464 3.283 3.5355 0 0 1 3.2982 3.5136" color="#000000" fill="#f0f" stroke="#666" stroke-linecap="round" stroke-linejoin="bevel" stroke-width="1.063"/>
    <path d="m507.6 545.01a3.283 3.5355 0 0 1 -3.2779 3.5355 3.283 3.5355 0 0 1 -3.2881 -3.5246 3.283 3.5355 0 0 1 3.2677 -3.5464 3.283 3.5355 0 0 1 3.2982 3.5136" color="#000000" fill="#f0f" stroke="#666" stroke-linecap="round" stroke-linejoin="bevel" stroke-width="1.063"/>
    <path d="m516.95 545.77a3.283 3.5355 0 0 1 -3.2779 3.5355 3.283 3.5355 0 0 1 -3.2881 -3.5246 3.283 3.5355 0 0 1 3.2677 -3.5464 3.283 3.5355 0 0 1 3.2982 3.5136" color="#000000" fill="#f0f" stroke="#666" stroke-linecap="round" stroke-linejoin="bevel" stroke-width="1.063"/>
   </g>
   <path d="m402.65 536.78c-3.261 14.142 1.2049 25.384 26.769 42.426 3.0768 2.0512 44.493 19.903 59.599-1.0102 12.834-17.768 13.954-38.528-4.5457-65.66-6.6192-9.7078-42.426-15.657-42.426-15.657-8.9481-4.3773-10.087-8.7547-12.627-13.132 0 0 4.0739-15.736 2.0203-23.234-2.5504-9.3114-10.409-14.547-17.678-4.5457-3.4992 4.8152-2.967 16.309-8.5863 15.657-8.5438-0.99119 0.51786-25.066-21.718-25.254-15.13-0.12813-25.618 19.123-30.81 33.335-5.0548 13.838 11.71 38.306 18.688 42.931 9.6102 6.3702 20.375 10.431 31.315 14.142z" fill="#d40000" fill-rule="evenodd" stroke="#000" stroke-width="2.8346"/>
   <path d="m427.9 530.21c-22.807-18.039-42.555 14.244-20.203 35.355 7.4726 7.058 15.609 13.121 25.759 16.162 17.664 5.4065 34.798-20.6 41.921-38.891 12.305-31.6 3.668-57.251-16.162-71.216-12.806-9.0181-32.54-8.3325-25.759 18.688l8.0812 11.617c-9.8898 4.9113-11.828 17.986-13.637 28.284z" fill="#fff" fill-rule="evenodd" stroke="#000" stroke-width="2.8346"/>
   <path d="m295.67 250.38c-13.598 31.349-31.87 56.177-19.582 83.643 5.1887 23.828 2.0207 50.79 27.143 67.143-0.61774 5.6154-7.2036 15.21-11.443 23.24 5.3149-0.17272 11.838-3.195 15.816-11.393 6.8047 6.102 4.7485 15.663-0.55584 25.801 6.0427 0.0235 9.9547-5.2796 13.326-11.934 5.3674 13.961 13.361 11.663 20 17.143-4.6738-7.1972-13.377-13.723-10.714-22.143 38.194-6.6546 33.062 4.6304 74.286-20 31.196-11.145 32.148-3.7352 57.143-73.571 12.877-7.7713 26.672-15.236 35.714-24.286 14.519-19.762 12.964-39.524-2.1428-59.286-33.576-40.581-66.502-81.693-157.86-75-19.054 3.3498-41.914 13.579-46.429 40-10.168 16.531 0.43136 27.87 5.2959 40.642z" fill="#fff" fill-rule="evenodd" stroke="#000" stroke-width="2.8346"/>
   <path d="m583.76 111.34c10.857-9.0896 45.084 15.37 36.429 48.214-2.2322 48.86-69.938 39.102-72.946 1.0714-12.398-11.808 4.4309-48.162 36.518-49.286z" fill="#fff" fill-rule="evenodd" stroke="#000" stroke-width="3.1181"/>
   <path d="m310.72 226.16c23.649-11.16 42.879-31.254 94.954-4.0406 56.312 21.096 54.134 53.89 58.589 85.358 0 0 13.136-2.3215 16.668 2.0203 6.2901 7.7338 3.8814 22.162-2.5254 29.8-5.4853 6.5389-24.749 6.566-24.749 6.566-18.856-2.3117-37.712-4.4571-56.569-21.213-10.169 6.7694-18.307 7.4426-27.274 10.607-13.458 4.7484-25.375-3.4025-26.264-16.162-0.97037-13.934-1.8663-27.794-1.5152-40.406-21.612 0.0976-29.347-9.0564-39.396-16.668-19.925-4.1972-17.828-12.705-19.193-20.708-1.8112-10.624 5.0094-23.398 13.637-20.203z" fill="#fca" fill-rule="evenodd" stroke="#000" stroke-width="2.8346"/>
   <g transform="translate(33.941 -22.627)" fill-rule="evenodd" stroke-width="1px">
    <path d="m307.68 300.76 1.9643 45.893c6.1656 9.5734 11.673 16.186 28.214 10.714 10.867-2.6702 18.23-6.2162 25.357-9.8214 8.6498-5.7832 12.463-10.127 16.786-16.25z" stroke="#000"/>
    <path d="m309.64 345.22c-0.75301-3.3885 7.2701-6.8744 11.25-5.8928 3.352 0.82664 7.5 7.1429 7.5 7.1429s6.3371-0.81199 8.3928 1.0714c2.0703 1.8967 2.6786 9.1072 2.6786 9.1072-5.0595 2.3894-9.9405 2.5378-15.179 2.6786-11.421-5.4726-12.843-9.5508-14.643-14.107z" fill="#f00" stroke="#f00"/>
   </g>
   <path d="m362.05 248.57c-0.12908-2.3533 1.2426-5.3543 3.7967-7.7981 3.6655-3.5078 8.3822-4.5421 10.54-2.3122 2.1582 2.2299 0.94265 6.8819-2.737 10.416-1.0108 0.96347-2.0979 1.7397-3.1879 2.313-1.483-1.0802-6.0255-2.4598-8.4122-2.6187z" color="#000000" fill="url(#d)" stroke="#000" stroke-linecap="round" stroke-linejoin="bevel" stroke-width="1.7717"/>
   <path d="m352.69 250.45s7.2802-2.7913 13.661-0.89286c6.5731 1.9558 8.5714 7.1429 8.5714 7.1429" fill="none" stroke="#000" stroke-width="1.7717"/>
   <path d="m419.6 275.73c2.1256-1.0181 3.4727-2.8599 4.3879-6.2744 1.3138-4.9004 0.39983-8.2836-2.593-9.104-2.9928-0.82048-6.4877 2.4816-7.8179 7.4071-0.35896 1.3495-0.517 2.6759-0.49574 3.9073 1.6601 0.78111 5.232 2.0476 6.5187 4.064z" color="#000000" fill="url(#e)" stroke="#000" stroke-linecap="round" stroke-linejoin="bevel" stroke-width="1.7717"/>
   <path d="m407.75 272.77s6.0823-2.1663 10.982 2.2321c5.1033 4.5811 8.3929 12.054 8.3929 12.054" fill="none" stroke="#000" stroke-width="1.7717"/>
   <path d="m366.79 260.5s17.792-7.6748 27.274-3.5355c16.028 6.9967 13.385 27.4 13.385 27.4" fill="none" stroke="#808080" stroke-dasharray="0.99921262, 2.99763787" stroke-width=".99921"/>
   <g transform="translate(33.941 -22.627)" fill-rule="evenodd">
    <path d="m332.85 282.63c-25.514-17.194-28.345-20.53-44.447-44.952-2.494-3.7826-3.4728-11.15-14.647 5.0508-17.099 24.79-9.1814 48.062 9.5964 62.629 20.809 16.143 30.857 14.475 59.211 13.612 2.9254 21.276 23.665 38.658 44.329 47.503 22.63 9.6864 49.396 0.32011 54.548-29.8 2.2294-13.034 0.37896-20.626-11.445-17.871-8.4667 1.9726-19.638 2.3105-24.415 1.7086-14.9-1.8772-16.331-5.7374-31.315-14.142 0 0 1.8441-19.35-11.617-26.264-13.591-6.981-29.8 2.5254-29.8 2.5254z" fill="#fff" stroke="#000" stroke-width="2.8346"/>
    <path d="m331.95 283.73c-3.3422 2.6817-5.107 3.537-6.6833 8.4944-1.2364 3.8884 0.91855 10.178 4.0406 14.142 3.6645 4.653 8.5398 7.2443 14.142 10.102 7.44 3.7945 24.074 5.0547 24.244 4.5457 3.4079-2.8852 3.0599-7.7435 4.6017-13.428 0 0-0.33705-6.9338-0.51152-9.8646-0.51466-8.6454-5.0581-13.778-12.5-16.786-8.2584-3.3376-27.333 2.7944-27.333 2.7944z" fill="#f00" stroke="#f00" stroke-width="1.7717"/>
   </g>
  </g>
 </g>
</svg>
