<?xml version="1.0" encoding="UTF-8"?>
<svg width="708.66" height="496.06" enable-background="new 0 0 800 600" viewBox="0 0 708.66145 496.063" xmlns="http://www.w3.org/2000/svg">
 <path d="m511.36 105.63c61.312 98.77 30.337 242.55-69.175 321.15-49.752 39.301-260.54 12.88-291.19-36.509-61.308-98.767-30.337-242.56 69.175-321.16s229.89-62.254 291.19 36.513z" fill="#754c24" stroke="#000" stroke-width="8.427"/>
 <path d="m176.33 404.22c-40.511-10.445-121.16-102.88-160.13-88.821-10.563 3.8084 58.145 116.38 74.838 130.34 41.084 34.347 93.801 35.748 142.98 35.162 77.451-0.92412 156.08 5.1308 233.3 0.52136 74.073-4.4215 139.7-47.518 182.17-115.77 33.263-53.452 33.638-172.55-51.869-130.43-105.82 52.116-88.753 178.92-226.48 176.99" fill="#c7b299" stroke="#000" stroke-width="8.427"/>
 <path d="m216.81 370.53c-59.48-193.12 40.068-249.04 122.31-246.02 67.727 2.4815 116.48 72.72 104.09 151.34-9.9139 62.894-61.146 104.4-114.44 92.71-42.635-9.3576-70.772-57.73-62.844-108.05 6.3415-40.252 39.134-66.817 73.242-59.332 27.286 5.9856 45.295 36.949 40.217 69.151-4.0564 25.761-25.043 42.76-46.872 37.972-17.463-3.833-28.988-23.647-25.741-44.255 2.5965-16.487 16.029-27.368 30-24.3 11.175 2.4524 18.554 15.131 16.474 28.323" fill="none" stroke="#8c6239" stroke-linecap="round" stroke-width="8.427"/>
 <path transform="translate(-2.3647e-6)" d="m585.22 151.72c-28.597 0.62065-51.889 10.817-69.156 27.469-0.74781-0.631-39.416 46.575-35.344 93.531 5.6558 65.203 70.969 118.9 105.28 120.94v0.0625c0.33447 0 0.68986-0.02139 1.0312-0.03125 0.31993 0.00943 0.65466 0.03125 0.96875 0.03125v-0.0625c35.732-1.9525 106.53-55.388 105.28-120.94-1.0414-54.843-35.129-93.951-35.875-93.188-17.591-16.969-41.12-27.345-69.406-27.812-0.6713 0-1.3344-0.01037-2 0-0.26 0.00405-0.52213-0.00562-0.78125 0z" fill="#c7b299" stroke="#000" stroke-linecap="round" stroke-linejoin="round" stroke-width="8.427"/>
 <g transform="matrix(1.9836 0 0 2.2376 -420.83 -472.76)">
  <path d="m551.03 287.87c1e-3 8.273-6.704 14.981-14.977 14.981s-14.979-6.708-14.977-14.981 6.704-14.979 14.977-14.979 14.978 6.706 14.977 14.979z" fill="#fff" stroke="#000" stroke-linecap="round" stroke-linejoin="round" stroke-width="4"/>
  <path d="m537.72 290.52c1e-3 2.757-2.233 4.994-4.992 4.994s-4.994-2.237-4.992-4.994 2.234-4.995 4.992-4.995 4.993 2.237 4.992 4.995z"/>
  <path d="m489.75 287.87c2e-3 8.273-6.703 14.981-14.976 14.981s-14.979-6.708-14.977-14.981 6.703-14.979 14.977-14.979 14.979 6.706 14.976 14.979z" fill="#fff" stroke="#000" stroke-linecap="round" stroke-linejoin="round" stroke-width="4"/>
  <path d="m483.51 290.52c1e-3 2.757-2.233 4.994-4.991 4.994s-4.992-2.237-4.991-4.994 2.234-4.995 4.991-4.995 4.992 2.237 4.991 4.995z"/>
 </g>
 <path transform="translate(-2.3647e-6)" d="m684.22 215.16c2.299 11.289 4.75 23.262 4.75 35.688 0 66.797-72.265 121-107.28 121-27.141 0-80.07-35.1-99.688-83.656 9.9794 59.513 74.935 105.53 106 105.53 35.02 0 107.28-54.237 107.28-121.03 0-20.823-4.477-40.416-11.062-57.531z" fill-opacity=".3137"/>
 <path d="m209.24 364.32c-59.48-193.12 40.068-249.03 122.31-246.02 67.725 2.4815 116.47 72.72 104.09 151.34-9.914 62.896-61.146 104.41-114.44 92.712-42.635-9.3576-70.772-57.732-62.844-108.05 6.3415-40.25 39.134-66.817 73.242-59.33 27.286 5.9856 45.295 36.949 40.217 69.151-4.0564 25.764-25.043 42.763-46.874 37.974-17.461-3.833-28.986-23.647-25.739-44.257 2.5965-16.484 16.031-27.366 30.002-24.298 11.175 2.4524 18.554 15.131 16.474 28.323" fill="none" stroke="#000" stroke-linecap="round" stroke-width="8.427"/>
 <path d="m471.57 462.63c-74.222 4.408-135.02 1.9064-210.74 1.0136-61.719-0.72722-140.79-5.312-193.66-49.29-1.813-1.5059-4.1972-4.1149-6.9981-7.5608 12.177 18.357 23.42 33.503 28.95 38.032 41.084 33.653 93.801 35.027 142.98 34.452 77.449-0.90846 156.08 5.0279 233.31 0.51241 74.071-4.332 139.7-46.56 182.17-113.43 1.3171-2.072 2.5727-4.2492 3.7807-6.5069-46.162 56.009-112.56 98.79-179.79 102.78z" fill-opacity=".3137"/>
</svg>
