<?xml version="1.0" encoding="UTF-8"?>
<svg width="210mm" height="297mm" version="1.1" viewBox="0 0 744.09448819 1052.3622047" xmlns="http://www.w3.org/2000/svg">
 <defs>
  <style type="text/css">.fil0 {fill:black}</style>
 </defs>
 <path d="m-80-564.78c66.408 40.58 200.82 171.4 191.72 239.32l-23.965 0.12136-23.965 0.12138-23.965 0.12136-23.965 0.12136-23.965 0.12136-23.965 0.12138-23.965 0.12136-23.965 0.12136v-90.108l-1e-6 -30.036v-90.108z" fill="#ccc" fill-rule="evenodd"/>
 <path d="m-11.279-306.17 291.29 0.9317 70.633 243.69-361.43-0.93172z" fill="#aef" fill-rule="evenodd"/>
 <rect transform="rotate(90)" x="-72.028" y="-354.93" width="9.5433" height="365.72" color="#000000" color-rendering="auto" image-rendering="auto" opacity=".137" shape-rendering="auto" solid-color="#000000" style="isolation:auto;mix-blend-mode:normal"/>
 <rect x="-11.279" y="-306.17" width="298.29" height="25.076" ry="0" color="#000000" color-rendering="auto" image-rendering="auto" opacity=".137" shape-rendering="auto" solid-color="#000000" style="isolation:auto;mix-blend-mode:normal"/>
 <rect x="-1525.7" y="331.11" width="13.157" height="35.284" color="#000000" color-rendering="auto" fill="#666" image-rendering="auto" shape-rendering="auto" solid-color="#000000" style="isolation:auto;mix-blend-mode:normal"/>
 <path d="m-1546.7-524.4c0 2.3807-7.1625 4.705-6.703 6.9499 0.4593 2.245 1.137 4.4106 2.0096 6.4734 0.8725 2.0629 1.94 4.023 3.1795 5.8577 1.2394 1.8346 2.6507 3.5436 4.2109 5.1038 1.5601 1.5602 3.2691 2.9714 5.1038 4.2109 1.8346 1.2394 3.795 2.3072 5.8579 3.1797 2.0629 0.87254 4.2283 1.55 6.4732 2.0094 0.8935 0.18279 8.2405 0.33045 16.887 0.44272v-68.455c-8.6462 0.11226-15.993 0.25987-16.887 0.44272-2.2449 0.45936-4.4103 1.1368-6.4732 2.0094-2.0629 0.87254-4.0233 1.9402-5.8579 3.1797-1.8347 1.2394-3.5437 2.6508-5.1038 4.2109-1.5602 1.5602-2.9715 3.2692-4.2109 5.1038-1.2395 1.8347-2.307 3.7948-3.1795 5.8577-0.8726 2.0629-1.5503 4.2285-2.0096 6.4734-0.4595 2.2449 6.703 4.5694 6.703 6.9501z" color="#000000" color-rendering="auto" fill="#06f" image-rendering="auto" shape-rendering="auto" solid-color="#000000" style="isolation:auto;mix-blend-mode:normal"/>
 <g transform="translate(-18.365 12.684)" shape-rendering="auto">
  <rect x="-628.63" y="331.11" width="13.157" height="35.284" color="#000000" color-rendering="auto" fill="#666" image-rendering="auto" solid-color="#000000" style="isolation:auto;mix-blend-mode:normal"/>
  <rect x="-366.09" y="331.11" width="13.157" height="35.284" color="#000000" color-rendering="auto" fill="#666" image-rendering="auto" solid-color="#000000" style="isolation:auto;mix-blend-mode:normal"/>
  <rect x="-628.63" y="355.23" width="275.7" height="20.298" color="#000000" color-rendering="auto" fill="#1a1a1a" image-rendering="auto" solid-color="#000000" style="isolation:auto;mix-blend-mode:normal"/>
 </g>
 <rect x="-1531.5" y="-564.78" width="1451.4" height="908.57" ry="1.7416" color="#000000" color-rendering="auto" fill="#f9f9f9" image-rendering="auto" shape-rendering="auto" solid-color="#000000" style="isolation:auto;mix-blend-mode:normal"/>
 <rect x="-318" y="48.408" width="228.46" height="100.57" ry="0" color="#000000" color-rendering="auto" fill="#f00" image-rendering="auto" shape-rendering="auto" solid-color="#000000" style="isolation:auto;mix-blend-mode:normal"/>
 <path d="m190.56-401.69c-4.3514 0-8.5996 0.4408-12.703 1.2804-4.1033 0.83963-8.0615 2.0784-11.832 3.6732s-7.3532 3.5459-10.706 5.8113c-3.3533 2.2654-6.477 4.845-9.3287 7.6966-2.8516 2.8516-5.4311 5.9753-7.6966 9.3286-2.2654 3.3533-4.217 6.9364-5.8117 10.707-1.5948 3.7705-2.8331 7.7283-3.6728 11.832-0.3341 1.6331-0.604 15.062-0.8092 30.865h125.12c-0.2052-15.803-0.475-29.232-0.8092-30.865-0.8396-4.1032-2.0779-8.061-3.6727-11.832s-3.5463-7.3536-5.8118-10.707c-2.2654-3.3533-4.845-6.477-7.6966-9.3286s-5.9753-5.4312-9.3286-7.6966c-3.3534-2.2655-6.936-4.2165-10.707-5.8113-3.7705-1.5948-7.7287-2.8335-11.832-3.6732s-8.3519-1.2804-12.703-1.2804z" color="#000000" color-rendering="auto" fill="#06f" image-rendering="auto" shape-rendering="auto" solid-color="#000000" style="isolation:auto;mix-blend-mode:normal"/>
 <path d="m-80-350.49v690.24h711.38v-290.85s1e-3 -0.0061 0-0.0088c-0.18797-0.40488-1.023-0.86423-1.023-0.86423-73.801-43.032-148.02-85.666-222.05-128.41l-65.047-246.45c-1.9915-5.1482-3.4199-11.143-7.6582-14.678-7.3714-6.1477-18.029-7.0024-27.508-8.5156-0.0657-0.0105-0.13282-9e-3 -0.19922-0.0117l-75.035-0.0879-104.29-0.12305-104.29-0.12305zm68.721 44.32 291.29 0.93164 70.633 243.69-361.43-0.93164z" fill="#f9f9f9" fill-rule="evenodd"/>
 <rect transform="rotate(90)" x="334.13" y="-631.38" width="9.6898" height="2153.2" color="#000000" color-rendering="auto" image-rendering="auto" opacity=".137" shape-rendering="auto" solid-color="#000000" style="isolation:auto;mix-blend-mode:normal"/>
 <path d="m-1127.9 160.93a190 190 0 0 0 -189.64 182.86h379.39a190 190 0 0 0 -189.75 -182.86z" color="#000000" color-rendering="auto" fill="#666" image-rendering="auto" shape-rendering="auto" solid-color="#000000" stroke="#000" stroke-linecap="round" stroke-width="3.125" style="isolation:auto;mix-blend-mode:normal"/>
 <circle cx="-1127.8" cy="352.36" r="142.86" color="#000000" color-rendering="auto" image-rendering="auto" shape-rendering="auto" solid-color="#000000" style="isolation:auto;mix-blend-mode:normal"/>
 <circle cx="-1127.8" cy="352.36" r="94.286" color="#000000" color-rendering="auto" fill="#fff" image-rendering="auto" shape-rendering="auto" solid-color="#000000" style="isolation:auto;mix-blend-mode:normal"/>
 <circle cx="-1127.8" cy="352.36" r="24.286" color="#000000" color-rendering="auto" image-rendering="auto" shape-rendering="auto" solid-color="#000000" style="isolation:auto;mix-blend-mode:normal"/>
 <rect x="-1257.1" y="-303.54" width="230.13" height="97.352" ry="2.2199" color="#000000" color-rendering="auto" fill="#f00" image-rendering="auto" shape-rendering="auto" solid-color="#000000" style="isolation:auto;mix-blend-mode:normal"/>
 <rect transform="rotate(90)" x="-369.93" y="1093.3" width="230.13" height="97.352" ry="2.2199" color="#000000" color-rendering="auto" fill="#f00" image-rendering="auto" shape-rendering="auto" solid-color="#000000" style="isolation:auto;mix-blend-mode:normal"/>
 <rect x="-1531.5" y="-564.78" width="9.6256" height="908.57" color="#000000" color-rendering="auto" image-rendering="auto" opacity=".137" shape-rendering="auto" solid-color="#000000" style="isolation:auto;mix-blend-mode:normal"/>
 <rect x="-1521.8" y="48.408" width="1203.8" height="100.57" ry=".69918" color="#000000" color-rendering="auto" fill="#f00" image-rendering="auto" shape-rendering="auto" solid-color="#000000" style="isolation:auto;mix-blend-mode:normal"/>
 <path d="m375.64 160.93a190 190 0 0 0 -189.64 182.86h379.39a190 190 0 0 0 -189.75 -182.86z" color="#000000" color-rendering="auto" fill="#666" image-rendering="auto" shape-rendering="auto" solid-color="#000000" stroke="#000" stroke-linecap="round" stroke-width="3.125" style="isolation:auto;mix-blend-mode:normal"/>
 <circle cx="375.7" cy="352.36" r="142.86" color="#000000" color-rendering="auto" image-rendering="auto" shape-rendering="auto" solid-color="#000000" style="isolation:auto;mix-blend-mode:normal"/>
 <circle cx="375.7" cy="352.36" r="94.286" color="#000000" color-rendering="auto" fill="#fff" image-rendering="auto" shape-rendering="auto" solid-color="#000000" style="isolation:auto;mix-blend-mode:normal"/>
 <circle cx="375.7" cy="352.36" r="24.286" color="#000000" color-rendering="auto" image-rendering="auto" shape-rendering="auto" solid-color="#000000" style="isolation:auto;mix-blend-mode:normal"/>
 <rect x="-89.543" y="-564.78" width="9.5433" height="898.91" color="#000000" color-rendering="auto" image-rendering="auto" opacity=".137" shape-rendering="auto" solid-color="#000000" style="isolation:auto;mix-blend-mode:normal"/>
 <rect x="-1521.8" y="-543.29" width="1432.3" height="39.286" ry=".27311" color="#000000" color-rendering="auto" fill="#f00" image-rendering="auto" shape-rendering="auto" solid-color="#000000" style="isolation:auto;mix-blend-mode:normal"/>
 <rect x="588.54" y="220.93" width="75.714" height="77.143" ry="23.817" color="#000000" color-rendering="auto" fill="#4d4d4d" image-rendering="auto" shape-rendering="auto" solid-color="#000000" style="isolation:auto;mix-blend-mode:normal"/>
 <rect x="618.33" y="165.11" width="25.235" height="42.354" ry="0" color="#000000" color-rendering="auto" fill="#fc0" image-rendering="auto" shape-rendering="auto" solid-color="#000000" style="isolation:auto;mix-blend-mode:normal"/>
 <rect x="-1567.3" y="355.23" width="54.738" height="20.298" color="#000000" color-rendering="auto" fill="#1a1a1a" image-rendering="auto" shape-rendering="auto" solid-color="#000000" style="isolation:auto;mix-blend-mode:normal"/>
 <rect x="-1.0784" y="-33.567" width="28.756" height="52.437" ry="14.378" color="#000000" color-rendering="auto" fill="#b3b3b3" image-rendering="auto" shape-rendering="auto" solid-color="#000000" stroke="#808080" stroke-linecap="round" stroke-width="3.977" style="isolation:auto;mix-blend-mode:normal"/>
 <rect x="12.969" y="-22.572" width="16.697" height="30.447" ry="8.3484" color="#000000" color-rendering="auto" image-rendering="auto" shape-rendering="auto" solid-color="#000000" style="isolation:auto;mix-blend-mode:normal"/>
 <ellipse cx="15.961" cy="-78.609" rx="6.1517" ry="4.6517" color="#000000" color-rendering="auto" fill="#666" image-rendering="auto" shape-rendering="auto" solid-color="#000000" style="isolation:auto;mix-blend-mode:normal"/>
 <rect transform="matrix(.99984 -.018074 .032797 .99946 0 0)" x="16.113" y="-80.25" width="4.374" height="18.087" ry="0" color="#000000" color-rendering="auto" fill="#666" image-rendering="auto" shape-rendering="auto" solid-color="#000000" style="isolation:auto;mix-blend-mode:normal"/>
 <rect x="-892.28" y="-74.455" width="47.843" height="77.412" ry="23.922" color="#000000" color-rendering="auto" image-rendering="auto" opacity=".137" shape-rendering="auto" solid-color="#000000" style="isolation:auto;mix-blend-mode:normal"/>
 <rect transform="rotate(90)" x="-30.097" y="853.13" width="16.697" height="30.447" ry="8.3484" color="#000000" color-rendering="auto" image-rendering="auto" shape-rendering="auto" solid-color="#000000" style="isolation:auto;mix-blend-mode:normal"/>
 <g transform="translate(576.97 12.684)">
  <g transform="translate(-99.371 -38.766)" shape-rendering="auto">
   <rect x="-420.15" y="331.11" width="13.157" height="35.284" color="#000000" color-rendering="auto" fill="#666" image-rendering="auto" solid-color="#000000" style="isolation:auto;mix-blend-mode:normal"/>
   <rect x="-366.09" y="331.11" width="13.157" height="35.284" color="#000000" color-rendering="auto" fill="#666" image-rendering="auto" solid-color="#000000" style="isolation:auto;mix-blend-mode:normal"/>
   <rect x="-420.15" y="355.23" width="67.215" height="20.298" color="#000000" color-rendering="auto" fill="#1a1a1a" image-rendering="auto" solid-color="#000000" style="isolation:auto;mix-blend-mode:normal"/>
  </g>
 </g>
 <rect x="617.43" y="48.408" width="12.398" height="110.35" rx="0" ry="1.092" color="#000000" color-rendering="auto" fill="#4d4d4d" image-rendering="auto" shape-rendering="auto" solid-color="#000000" style="isolation:auto;mix-blend-mode:normal"/>
 <g transform="translate(13.899)">
  <flowRoot transform="matrix(3.3438 0 0 3.3438 4708.1 3932.5)" fill="#000000" font-family="sans-serif" font-size="40px" letter-spacing="0px" stroke-width="1px" word-spacing="0px" style="line-height:125%">
   <flowRegion>
    <rect x="-1772.9" y="-1217.8" width="1633.9" height="364.46"/>
   </flowRegion>
   <flowPara font-family="sans-serif" font-weight="bold">112</flowPara>
  </flowRoot>
  <g transform="matrix(.042943 0 0 .042943 -1370.4 -106.88)" clip-rule="evenodd" fill-rule="evenodd" image-rendering="optimizeQuality" shape-rendering="geometricPrecision">
   <path class="fil0" d="m1680 2460h-1545c0-296 83-573 228-808 62 19 128 29 197 29 378 0 685-307 685-685v-18c138-40 284-62 435-62 152 0 298 22 437 63-1 16-2 31-2 47 0 378 307 685 685 685 74 0 145-12 212-33 135 230 213 497 213 783h-1545zm0-1213c256 0 463 207 463 463s-207 463-463 463-463-207-463-463 207-463 463-463z"/>
   <path class="fil0" d="m1058 740c40 77 62 164 62 257 0 309-251 560-560 560s-560-251-560-560c0-99 26-191 70-272 199-418 844-724 1610-724 861 0 1570 387 1662 885 12 45 18 92 18 140 0 309-251 560-560 560s-560-251-560-560c0-101 27-195 73-276-135-123-368-204-633-204-258 0-486 77-622 194z"/>
  </g>
 </g>
 <path d="m-80-350.49c53.333 935.24 26.667 467.62 0 0z" fill="#808080" fill-rule="evenodd"/>
 <rect x="-1531.4" y="164.72" width="25.235" height="42.354" ry="0" color="#000000" color-rendering="auto" fill="#ff2a2a" image-rendering="auto" shape-rendering="auto" solid-color="#000000" style="isolation:auto;mix-blend-mode:normal"/>
 <rect x="-1544.3" y="220.93" width="75.714" height="77.143" ry="23.817" color="#000000" color-rendering="auto" fill="#4d4d4d" image-rendering="auto" shape-rendering="auto" solid-color="#000000" style="isolation:auto;mix-blend-mode:normal"/>
 <rect transform="rotate(90)" x="-564.78" y="89.543" width="9.6256" height="1432.3" color="#000000" color-rendering="auto" image-rendering="auto" opacity=".137" shape-rendering="auto" solid-color="#000000" style="isolation:auto;mix-blend-mode:normal"/>
 <rect x="618.33" y="106.63" width="25.235" height="42.354" ry="0" color="#000000" color-rendering="auto" fill="#06f" image-rendering="auto" shape-rendering="auto" solid-color="#000000" style="isolation:auto;mix-blend-mode:normal"/>
 <rect x="618.33" y="48.408" width="25.235" height="42.354" ry="0" color="#000000" color-rendering="auto" fill="#06f" image-rendering="auto" shape-rendering="auto" solid-color="#000000" style="isolation:auto;mix-blend-mode:normal"/>
 <rect x="-80" y="48.408" width="698.33" height="100.57" ry="0" color="#000000" color-rendering="auto" fill="#f00" image-rendering="auto" shape-rendering="auto" solid-color="#000000" style="isolation:auto;mix-blend-mode:normal"/>
 <rect x="-697.54" y="48.408" width="380.17" height="100.57" ry=".69918" color="#000000" color-rendering="auto" fill="#f00" image-rendering="auto" shape-rendering="auto" solid-color="#000000" style="isolation:auto;mix-blend-mode:normal"/>
 <rect x="-713.82" y="-389.72" width="28.756" height="52.437" ry="14.378" color="#000000" color-rendering="auto" image-rendering="auto" shape-rendering="auto" solid-color="#000000" style="isolation:auto;mix-blend-mode:normal"/>
 <rect x="-713.82" y="118.28" width="28.756" height="52.437" ry="14.378" color="#000000" color-rendering="auto" image-rendering="auto" shape-rendering="auto" solid-color="#000000" style="isolation:auto;mix-blend-mode:normal"/>
 <rect x="-700.29" y="-487.75" width="382.28" height="762.02" ry="67.574" color="#000000" color-rendering="auto" fill="#f9f9f9" image-rendering="auto" shape-rendering="auto" solid-color="#000000" stroke="#808080" stroke-linecap="round" stroke-width="5.677" style="isolation:auto;mix-blend-mode:normal"/>
 <rect x="-387.98" y="-85.759" width="28.756" height="52.437" ry="14.378" color="#000000" color-rendering="auto" fill="#b3b3b3" image-rendering="auto" shape-rendering="auto" solid-color="#000000" stroke="#808080" stroke-linecap="round" stroke-width="3.977" style="isolation:auto;mix-blend-mode:normal"/>
 <rect x="-373.94" y="-74.765" width="16.697" height="30.447" ry="8.3484" color="#000000" color-rendering="auto" image-rendering="auto" shape-rendering="auto" solid-color="#000000" style="isolation:auto;mix-blend-mode:normal"/>
 <rect transform="rotate(90)" x="-58.097" y="853.13" width="16.697" height="30.447" ry="8.3484" color="#000000" color-rendering="auto" image-rendering="auto" shape-rendering="auto" solid-color="#000000" style="isolation:auto;mix-blend-mode:normal"/>
 <rect x="-63.236" y="-373.05" width="126.63" height="6.1772" ry="3.0886" color="#000000" color-rendering="auto" fill="#4d4d4d" image-rendering="auto" shape-rendering="auto" solid-color="#000000" style="isolation:auto;mix-blend-mode:normal"/>
 <rect x="-63.236" y="-387.05" width="126.63" height="6.1772" ry="3.0886" color="#000000" color-rendering="auto" fill="#4d4d4d" image-rendering="auto" shape-rendering="auto" solid-color="#000000" style="isolation:auto;mix-blend-mode:normal"/>
 <rect x="-63.236" y="-401.05" width="126.63" height="6.1772" ry="3.0886" color="#000000" color-rendering="auto" fill="#4d4d4d" image-rendering="auto" shape-rendering="auto" solid-color="#000000" style="isolation:auto;mix-blend-mode:normal"/>
 <rect x="-267.09" y="222.73" width="126.63" height="6.1772" ry="3.0886" color="#000000" color-rendering="auto" fill="#4d4d4d" image-rendering="auto" shape-rendering="auto" solid-color="#000000" style="isolation:auto;mix-blend-mode:normal"/>
 <rect x="-267.09" y="208.73" width="126.63" height="6.1772" ry="3.0886" color="#000000" color-rendering="auto" fill="#4d4d4d" image-rendering="auto" shape-rendering="auto" solid-color="#000000" style="isolation:auto;mix-blend-mode:normal"/>
 <rect x="-267.09" y="194.73" width="126.63" height="6.1772" ry="3.0886" color="#000000" color-rendering="auto" fill="#4d4d4d" image-rendering="auto" shape-rendering="auto" solid-color="#000000" style="isolation:auto;mix-blend-mode:normal"/>
</svg>
