<?xml version="1.0" encoding="UTF-8"?>
<svg version="1.1" viewBox="0 0 735.53 747.04" xmlns="http://www.w3.org/2000/svg" xmlns:xlink="http://www.w3.org/1999/xlink">
 <defs>
  <linearGradient id="a">
   <stop stop-color="#5a3722" offset="0"/>
   <stop stop-color="#df7b3f" offset="1"/>
  </linearGradient>
  <linearGradient id="b">
   <stop stop-color="#fec417" offset="0"/>
   <stop stop-color="#f15d01" offset="1"/>
  </linearGradient>
  <linearGradient id="y">
   <stop stop-color="#008000" offset="0"/>
   <stop stop-color="#8f8" offset="1"/>
  </linearGradient>
  <linearGradient id="x">
   <stop stop-color="#fec417" offset="0"/>
   <stop stop-color="#e67601" offset="1"/>
  </linearGradient>
  <linearGradient id="c">
   <stop stop-color="#fec417" offset="0"/>
   <stop stop-color="#fbfe68" offset="1"/>
  </linearGradient>
  <linearGradient id="aq" x1="295.59" x2="275.23" y1="317.86" y2="291.09" gradientTransform="matrix(1.2551 0 0 1.2551 -65.089 57.841)" gradientUnits="userSpaceOnUse" xlink:href="#c"/>
  <linearGradient id="z" x1="360.47" x2="342.06" y1="327.44" y2="326.94" gradientTransform="matrix(1.2551 0 0 1.2551 -65.089 57.841)" gradientUnits="userSpaceOnUse" xlink:href="#x"/>
  <linearGradient id="aa" x1="340.53" x2="327.11" y1="270.51" y2="250.23" gradientUnits="userSpaceOnUse" xlink:href="#y"/>
  <linearGradient id="ab" x1="342.81" x2="326.28" y1="270.48" y2="251.54" gradientUnits="userSpaceOnUse" xlink:href="#y"/>
  <linearGradient id="ac" x1="299.57" x2="305.13" y1="228.46" y2="269.37" gradientTransform="matrix(1.2551 0 0 1.2551 -65.089 57.841)" gradientUnits="userSpaceOnUse" xlink:href="#b"/>
  <linearGradient id="ad" x1="396.25" x2="401.87" y1="305.1" y2="192.24" gradientTransform="matrix(1.2551 0 0 1.2551 -65.089 57.841)" gradientUnits="userSpaceOnUse" xlink:href="#a"/>
  <linearGradient id="ae" x1="375.93" x2="359.76" y1="186.16" y2="137.41" gradientTransform="matrix(1.2551 0 0 1.2551 -65.089 57.841)" gradientUnits="userSpaceOnUse" xlink:href="#a"/>
  <linearGradient id="af" x1="254.64" x2="209.69" y1="295.44" y2="263.18" gradientTransform="matrix(1.2551 0 0 1.2551 -65.089 57.841)" gradientUnits="userSpaceOnUse" xlink:href="#a"/>
  <linearGradient id="ag" x1="346.61" x2="414.06" y1="412.98" y2="699.86" gradientTransform="matrix(1.2551 0 0 1.2551 -65.089 57.841)" gradientUnits="userSpaceOnUse" xlink:href="#a"/>
  <linearGradient id="ah" x1="325.99" x2="366.16" y1="415.99" y2="535.7" gradientTransform="matrix(1.2551 0 0 1.2551 -65.089 57.841)" gradientUnits="userSpaceOnUse" xlink:href="#c"/>
  <linearGradient id="ai" x1="205.68" x2="72.34" y1="360.82" y2="335.82" gradientTransform="matrix(1.2551 0 0 1.2551 -65.089 57.841)" gradientUnits="userSpaceOnUse" xlink:href="#a"/>
  <linearGradient id="aj" x1="453.52" x2="620.27" y1="327.73" y2="234.15" gradientTransform="matrix(1.2551 0 0 1.2551 -65.089 57.841)" gradientUnits="userSpaceOnUse" xlink:href="#a"/>
  <linearGradient id="ak" x1="465.11" x2="430.11" y1="553.11" y2="537.45" gradientTransform="matrix(1.2551 0 0 1.2551 -65.089 57.841)" gradientUnits="userSpaceOnUse" xlink:href="#b"/>
  <linearGradient id="al" x1="504.89" x2="491.77" y1="540.11" y2="545.67" gradientTransform="matrix(1.2551 0 0 1.2551 -65.089 57.841)" gradientUnits="userSpaceOnUse" xlink:href="#x"/>
  <linearGradient id="am" x1="528.87" x2="516.78" y1="541.41" y2="543.93" gradientTransform="matrix(1.2551 0 0 1.2551 -65.089 57.841)" gradientUnits="userSpaceOnUse" xlink:href="#b"/>
  <linearGradient id="an" x1="359.23" x2="343.53" y1="597.2" y2="596.19" gradientTransform="matrix(1.2551 0 0 1.2551 -65.089 57.841)" gradientUnits="userSpaceOnUse" xlink:href="#b"/>
  <linearGradient id="ao" x1="332.5" x2="320.17" y1="595.17" y2="595.17" gradientTransform="matrix(1.2551 0 0 1.2551 -65.089 57.841)" gradientUnits="userSpaceOnUse" xlink:href="#b"/>
  <linearGradient id="ap" x1="304.91" x2="292.28" y1="586.77" y2="585.01" gradientTransform="matrix(1.2551 0 0 1.2551 -65.089 57.841)" gradientUnits="userSpaceOnUse" xlink:href="#c"/>
 </defs>
 <g transform="translate(-6.6511 -111.22)">
  <path d="m423.06 717.95s53.118 36.533 57.377 40.791c4.2584 4.2584 5.8273 8.741 1.5689 13.223-4.2584 4.4825-24.654 8.9651-29.361 15.689-4.7067 6.7238-6.9479 13.896-1.793 17.93 5.1549 4.0343 12.999 8.741 20.844 7.3962 7.8444-1.3448 55.359-34.74 55.359-34.74s8.9651 16.81 21.516 17.034c12.551 0.22412 17.706-16.137 17.706-16.137 8.5168 0.22413 15.016-4.0343 15.016-4.0343s4.9308 4.9308 15.017 5.379c10.086 0.44825 18.154-7.3962 19.051-12.327 0.89652-4.9308 0.22413-15.465-2.4654-20.171-2.6895-4.7067-10.758-35.188-21.292-38.998-10.534-3.8102-18.603-1.5689-18.603-1.5689s-3.6496-7.7888-12.327-10.086c-7.6203-2.0171-13.922-2.3573-24.206 1.3448-5.6032 2.0171-12.103 8.2927-12.103 8.2927s-9.6375-4.0343-16.137 0.44825c-6.4997 4.4825-12.999 11.43-12.999 11.43l-43.929-27.568s-13.448 3.3619-19.947 12.103c-6.4997 8.741-8.2927 14.568-8.2927 14.568z" stroke="#000" stroke-linejoin="round" stroke-width="6.2756"/>
  <path d="m451.3 695.98 41.015 26.223-10.31 22.189s21.292-35.412 34.74-35.412 24.43 7.8444 32.498 30.481c8.0686 22.637 14.792 25.102 13.448 35.636-1.3448 10.534-6.2756 18.154-13.448 17.482-7.1721-0.67238-15.689-5.379-26.895-32.05s-16.137-25.999-16.137-25.999l9.8616 21.516c-2.1292 2.9137-11.879 4.7067-11.879 4.7067s10.87 1.9051 14.792 0.44825l6.4997 12.775s-43.705 33.619-53.566 35.188c-9.8616 1.5689-21.068-5.1549-19.051-13.223 2.0172-8.0686 13.896-11.879 19.499-13.672 5.6032-1.793 14.792-6.7238 15.689-14.12 0.8965-7.3962-7.3962-14.12-13.672-17.93-6.2756-3.8102-45.722-33.843-45.722-33.843 1.0634-6.7183 10.099-16.133 22.637-20.396z" fill="url(#ak)"/>
  <path d="m529.3 707.64s7.7324 1.793 11.767 8.853c4.0343 7.06 8.741 12.999 11.094 20.956 2.3533 7.9565 10.758 23.645 12.327 27.344s1.4568 11.094 1.4568 11.094 9.8616-0.11209 16.81-6.2756c6.9479-6.1635 9.6375-10.198 8.4048-16.473s-9.4133-18.939-13.56-28.016c-4.1464-9.0771-7.6203-20.508-14.344-23.085-6.7238-2.5775-14.904-3.9222-21.18-0.89651-6.2756 3.0257-12.775 6.4997-12.775 6.4997z" fill="url(#al)"/>
  <path d="m575.24 711.22s6.722 14.565 10.086 21.292c4.1464 8.2927 8.741 14.456 9.4133 21.74 0.65931 7.1426-3.0257 11.767-5.7152 14.344-2.6895 2.5775-4.4826 3.9222-4.4826 3.9222s4.9308 5.6032 13.56 3.8102c8.6289-1.793 14.12-5.8273 14.568-13.224 0.44827-7.3962-5.9394-22.973-8.9651-29.249-3.0257-6.2756-6.6118-17.93-12.663-21.18-6.0514-3.2498-15.801-1.4568-15.801-1.4568z" fill="url(#am)"/>
  <path d="m673.63 111.23c5.6772-0.11342 10.758 0.22413 14.344 9.1892 3.586 8.9651 3.789 27.819-3.3619 44.601-10.982 25.775-34.74 54.239-34.74 54.239s6.7238-37.205 4.4825-52.67-6.9479-23.982-5.1549-32.05c1.793-8.0686 4.0372-22.902 24.43-23.309z"/>
  <path d="m81.348 411.54s-32.33-35.738-34.866-69.336c-2.5357-33.598 20.286-51.031 27.576-54.835 7.2902-3.8036 24.428-8.3751 31.379-3.8036 11.942 7.8538 16.799 38.353 33.281 64.661s40.888 58.004 57.687 70.049 41.839 27.893 56.42 49.446c14.58 21.554 31.517 56.742 32.647 93.504 0.95089 30.94-25.04 47.862-37.719 56.736-12.679 8.875-48.812 37.719-98.893 34.549-50.08-3.1696-51.665-11.728-54.835-26.942-3.1696-15.214 5.5469-27.1 13.946-32.647-12.679-1.5848-57.699-10.628-72.902-40.571-15.69-30.904 2.5357-44.058 12.362-49.446 9.8259-5.3884 26.308-1.2678 26.308-1.2678s-51.226-31.233-58.163-42.949c-7.1317-12.045-6.8147-27.417-3.6451-38.511s9.8425-26.585 23.455-27.259c16.007-0.79241 21.712 5.7053 27.893 10.143 5.474 3.9301 18.067 8.4788 18.067 8.4788z" stroke="#000" stroke-linejoin="round" stroke-width="6.2756"/>
  <path d="m426.07 490.81c-3.9346-25.363-3.9076-48.094 5.0574-59.301 8.9651-11.206 23.309-21.068 34.067-22.861s21.516 0 30.481-6.7238c8.9651-6.7238 30.93-26.895 49.308-60.963 18.378-34.067 20.62-95.03 22.861-102.2 2.2413-7.1721 25.999-13.896 36.309-11.655 10.31 2.2413 20.62 9.8616 23.757 21.068 3.1378 11.206-1.793 60.963-1.793 60.963s17.482-31.378 23.757-47.067c6.2756-15.689 25.999-18.378 33.619-14.344 7.6203 4.0343 20.171 12.551 19.275 43.481-0.89651 30.93-12.551 51.101-23.757 74.41s-19.723 34.516-19.723 34.516 13.448 0.89652 24.654-6.2756c11.206-7.1721 32.723-17.93 38.102-17.482 5.379 0.44825 15.576 9.091 16.844 28.743 1.2678 19.652-5.3884 28.527-13.788 40.888-8.3995 12.362-21.997 28.443-43.363 38.67-13.037 6.2398-28.429 12.362-28.429 12.362s21.565-5.5084 26.953-5.1914c5.3884 0.31697 16.788 4.716 16.312 18.662-0.47543 13.946-3.3561 25.33-21.395 35.341-16.208 8.995-36.9 16.095-52.14 13.629 0 0-0.47545 15.373-21.237 28.21-20.761 12.837-40.254 18.859-62.917 16.165-22.663-2.6942-50.397-20.761-64.661-36.609-33.248-38.853-46.432-65.335-48.154-76.433z" stroke="#000" stroke-linejoin="round" stroke-width="6.2756"/>
  <path d="m279.17 540.89c-4.4102-24.179-21.964-72.617-62.756-102.2-40.791-29.585-69.031-62.307-85.617-94.133-16.585-31.826-19.723-56.48-30.033-58.273s-44.825 7.6203-49.308 45.274c-4.4825 37.653 43.929 89.203 43.929 89.203s-16.137-3.1378-30.033-11.206c-13.896-8.0686-18.827-15.689-34.516-10.758-15.689 4.9308-20.171 43.481-12.551 56.032 7.6203 12.551 76.651 55.135 76.651 55.135s-26.895-8.5168-40.343-4.4826c-13.448 4.0343-27.344 18.827-19.723 35.412 7.6203 16.585 16.137 28.24 39.446 38.102 23.309 9.8616 56.928 9.8616 56.928 9.8616s-24.878 2.6895-31.154 21.068c-6.2756 18.378 0.22413 30.257 15.465 34.291 15.241 4.0343 42.136 7.1721 60.066 3.3619s52.222-18.603 81.582-42.136c29.361-23.533 24.688-49.617 21.964-64.549z" fill="url(#ai)"/>
  <path d="m170.69 458.18s-56.327-65.654-83.375-40.343c-23.842 22.311-10.326 44.206 2.2413 57.152 11.172 11.509 43.929 33.395 43.929 33.395s-40.791 5.1549-38.326 26.671c2.4654 21.516 15.913 30.481 34.964 34.291 19.051 3.8102 47.963 0.89652 47.963 0.89652s-7.172 13.448-0.44825 18.603c6.7238 5.1549 21.74 17.034 38.326 11.879 16.585-5.1549 16.137-12.999 16.137-12.999s-17.93 16.585-37.429 6.9479c-19.499-9.6375-16.361-18.154-8.9651-26.671 7.3962-8.5168 9.6375-7.6203 14.344-8.9651-16.361 0.22413-22.861 9.8616-52.67 7.3962-23.632-1.9546-47.067-6.4997-47.291-31.826-0.22412-25.326 57.152-23.533 57.152-23.533s-19.723-1.1206-45.722-24.206c-25.999-23.085-34.291-29.585-31.154-47.515 3.896-22.263 23.085-23.982 35.86-19.051 12.775 4.9308 54.463 37.877 54.463 37.877z"/>
  <path d="m670.29 115.14c-12.73 0.5885-17.062 17.311-17.062 22.984 0 6.0514 3.3731 13.453 4.942 26.004s-1.5689 39.458-1.5689 39.458 7.8444-10.327 14.12-19.964c6.2756-9.6375 15.017-29.12 15.689-41.223 0.67239-12.103 1.3392-25.349-13.453-27.142-0.92453-0.11207-1.8184-0.1569-2.6671-0.11767zm-72.443 116.29c-4.2335 0.0545-8.1067 0.99669-11.257 1.7258-6.8403 1.5832-13.055 2.8014-14.277 6.8247-1.9286 6.3487-1.8707 58.797-18.67 93.663-16.799 34.866-34.231 55.79-46.91 65.933s-17.644 10.63-22.827 11.1c-60.228 5.4541-54.869 38.488-54.99 71.031-0.0769 20.694 61.205 133.17 132.53 118.02 28.8-6.8359 38.018-14.809 44.517-19.964s11.406-11.421 12.198-26.318c0 0 9.0772 7.4746 36.869-3.0593 27.792-10.534 39.766-23.976 37.3-41.458-2.4654-17.482-18.597-12.316-23.416-11.531-4.8187 0.78444-17.706 5.0597-23.533 4.2752-5.8273-0.78445-9.2957-2.1572-9.2957-2.1572s53.21-17.212 74.13-41.301 29.791-43.44 23.769-60.873c-6.0223-17.433-11.587-17.439-17.768-15.061-6.1808 2.3772-26.794 14.287-34.084 17.14-7.2902 2.8527-21.384 9.6429-32.319 6.3148 0 0 53.396-75.577 48.008-122.8-5.3884-47.228-35.164-29.493-40.87-21.886-5.7054 7.6071-22.815 50.595-38.359 68.168 0 0 13.967-69.735 1.9219-85.583-7.5279-9.9051-15.615-12.289-22.67-12.198z" fill="url(#aj)"/>
  <path d="m212.73 442.68-12.203 18.384s3.0112-37.719 17.75-61.174c14.739-23.455 29.319-43.107 30.112-53.091 0.7924-9.9844-7.6071-39.779-13.946-62.917-6.3393-23.138-2.5357-32.647 2.8527-34.549s15.848 9.0335 29.636 13.312c13.788 4.279 36.451 7.7656 36.451 7.7656s9.9844-6.3393 29.161-8.0826 58.638 1.2678 69.732-1.2678c11.094-2.5357 29.002-11.728 45.643-31.855s15.69-17.433 17.75-17.116c2.0603 0.31697 11.569 10.618 7.9241 28.685-3.6451 18.067-17.274 52.774-23.455 69.415-6.1808 16.641-6.9732 23.138-4.9129 30.428 2.0603 7.2902 13.788 33.123 18.225 35.817 4.4375 2.6942 12.203 8.0826 15.214 15.531 3.0112 7.4486 7.4486 30.112 7.4486 30.112l-4.4375-5.8638s5.5468 10.143 2.8527 22.98c-2.6942 12.837-8.7165 31.379-8.7165 31.379s16.482 9.3504 23.614 24.882c7.1317 15.531 13.154 41.998 13.154 41.998l-7.1317-4.913s11.728 22.98 6.9732 68.306c-4.7545 45.326-24.089 106.5-32.013 122.98-7.9241 16.482-32.647 48.812-55.786 56.42-23.138 7.6071-74.803 15.531-111.57-8.875-36.768-24.406-71.634-71.634-77.022-84.312-5.3884-12.679-14.263-58.004-11.411-80.192 2.8527-22.187 8.241-52.299 12.045-62.442 3.8036-10.143-0.31696-33.915-4.7545-38.987-4.4375-5.0714-12.802-23.498-12.802-23.498l-3.8102 8.2927s-8.3917-20.883-2.5644-47.554z" stroke="#000" stroke-linejoin="round" stroke-width="6.2756"/>
  <path d="m519.88 472.3s20.844 14.792 19.947 36.309c-0.83794 20.11-6.4997 27.568-19.051 30.257-12.551 2.6895-12.327-0.67239-12.327-0.67239s4.9308 6.9479 19.947 2.4654 17.706-26.671 17.034-35.188c-0.67237-8.5168-10.31-24.99-10.31-24.99s30.481 17.594 68.807-10.646 14.568-60.963 7.172-62.98c-7.3962-2.0171-10.758-1.5689-10.758-1.5689s31.826-21.292 20.62-47.067-38.998-13.896-43.257-11.206c-4.2584 2.6895-9.6375 12.999-9.6375 12.999s15.017-17.258 30.93-13.672 20.396 12.551 19.051 27.568c-1.3448 15.017-30.593 36.981-30.593 36.981s19.835-5.6032 25.663 3.3619c5.8273 8.9651 10.534 24.654 0.22412 39.222-10.31 14.568-32.145 26.019-46.394 27.568-14.223 1.5459-23.563-4.0951-47.067-8.741z"/>
  <path d="m373.84 413.57s-3.0065 30.721-17.351 41.479c-14.344 10.758-34.516 16.81-48.411 19.499-13.896 2.6895-31.602 24.206-31.602 24.206s-38.55-28.688-25.55-69.928c12.999-41.239 60.29-26.671 66.566-23.982 6.2756 2.6895 19.723 13.448 33.395 8.0686 13.672-5.3791 26.447-25.55 35.86-22.637 9.4133 2.9137 17.034 9.8616 10.086 43.929s-10.31 69.031-16.81 72.169-15.689-3.3619-24.206-10.758-23.309-23.533-23.309-23.533l4.9308-2.2413s25.55 24.654 33.955 22.301c8.4048-2.3533 11.991-22.413 10.534-44.041-1.4568-21.628-4.5834-26.354-4.5834-26.354l2.118-10.179c6.9732-1.2678 9.4133 7.6203 9.4133 7.6203s3.6981-10.31-3.8102-12.551c-7.5083-2.2413-13.502 2.5967-16.323 5.0429-2.8648 2.4843-6.4261 10.422-6.4261 10.422s7.4028-7.8988 11.523-8.5328z" fill="#fec417"/>
  <path d="m340.62 468.43s22.267 20.523 28.447 21.395c6.1808 0.87165 10.46-18.305 10.301-27.417s-1.1886-21.237-1.7433-25.436c-0.55468-4.1998-2.2187-9.2712-2.2187-9.2712l-4.1205 14.263c1.3471 15.135-4.4375 37.402-4.4375 37.402s-8.1618-15.69-13.471-17.908z" fill="#800000"/>
  <path d="m356.16 459.8s8.0826-4.1998 12.441-14.422c-0.31697 14.263-2.6942 27.734-2.6942 27.734s-3.8828-10.064-9.7466-13.312z" fill="#ff2a2a"/>
  <path d="m251.87 328.1s-21.554-59.114-15.214-70.207c6.3393-11.094 9.8259 3.4866 26.466 8.241s27.576 7.6071 35.975 7.6071c-10.301 3.6451-18.384 11.728-18.384 11.728s29.845-16.085 49.605-19.018c22.476-3.3366 58.955 0.9509 72.426-1.7433s31.062-13.154 37.56-20.761c6.4978-7.6071 21.078-28.21 24.248-27.259 3.1696 0.9509 7.1317 11.728 5.2299 26.466-1.9018 14.739-29.636 73.852-29.319 88.908 0.31696 15.056 16.482 43.741 21.078 47.069 4.596 3.3281 12.045 10.618 14.105 14.58 2.0603 3.962 5.8638 18.542 5.8638 18.542s-8.9676-17.883-15.691-20.964c0 0 16.801 19.855 15.85 38.873-0.9509 19.018-11.411 42.473-11.411 42.473s19.018 11.094 25.991 25.674c6.9732 14.58 10.618 31.379 10.618 31.379s-6.7355-11.331-14.897-15.69c0 0 20.603 26.308 18.225 65.928-2.3772 39.62-20.286 113.79-31.379 135.18-11.094 21.395-31.062 50.714-51.507 58.955s-37.488 10.853-63.987 8.859c-29.952-2.2538-48.762-16.169-59.471-24.866-16.893-13.719-57.053-58.163-62.6-73.536-5.5469-15.373-13.629-54.676-10.777-86.056 2.8527-31.379 11.094-47.703 11.728-65.453 0.63394-17.75-6.3887-28.615-10.935-34.549-7.1808-9.3721-11.886-29.319-11.886-29.319l-2.6942 9.6674s-6.6582-14.713 1.6345-47.66c-6.502 4.3353-11.936 14.854-11.936 14.854s2.8026-32.107 42.921-87.466c0 17.258 8.2682 35.642 8.2682 35.642-3.586 0-6.3393 2.3772-6.3393 2.3772s11.142 1.7447 17.529 6.1152c0 0-3.9789 1.0958-6.8316 3.473 0 0-13.233-6.4185-17.512-0.55468-4.279 5.8638 2.3772 22.821 2.3772 22.821s-4.3363 15.529-1.7433 27.259c6.6562 30.112 32.489 49.288 32.489 49.288s15.848-22.029 23.614-24.406c7.7656-2.3772 28.368-7.2902 28.368-7.2902s32.312 37.044 47.359 37.869c13.599 0.74599 14.766-32.164 16.668-43.099 1.9018-10.935 9.2464-39.869 10.46-56.895 0.7682-10.779-5.2299-22.187-12.758-24.248-7.6154-2.0842-15.135 2.0602-15.135 2.0602s7.9241-10.618 19.018-14.105c11.094-3.4866 16.799-5.0714 16.799-5.0714l-3.8036-2.3772s11.411-36.926-8.0826-60.857c-19.493-23.931-51.002-26.528-61.808-23.297-11.129 3.3281-24.112 8.0826-37.877 32.489 0 0-9.2395-19.052-20.603-17.908-7.4816 0.7532-18.057 5.051-27.893 30.27z" fill="url(#ag)"/>
  <path d="m271.33 400.13s-7.06-8.0686-7.3962-28.24c-0.3362-20.171 7.506-29.719 16.025-30.593 8.9627-0.91986 19.07 11.248 20.396 28.688 1.4568 19.163-2.4654 27.68-2.4654 27.68 18.715 1.2327 23.982 6.3876 23.982 6.3876s-11.543-21.068-6.8359-42.92c4.7067-21.852 18.156-36.471 33.619-36.084 17.038 0.42641 31.154 19.499 32.947 31.938s0.56032 20.844 0.56032 20.844c11.43-7.9565 21.74-9.0772 21.74-9.0772s13.111-42.248-10.086-63.54-43.938-20.882-53.566-19.611c-25.425 3.356-40.791 38.55-40.791 38.55s-8.2927-25.55-20.732-23.757c-12.439 1.793-25.663 23.197-26.335 45.274-0.67239 22.077 1.2327 28.24 8.741 49.42 2.8989 0.93359 7.0485 3.53 10.198 5.0429z" fill="url(#ac)"/>
  <path d="m248.55 425.17s3.3281-10.618 10.46-16.878c0 0-9.7466-3.7243-12.045-0.0792-2.298 3.6451 1.5848 16.958 1.5848 16.958z" fill="#fec417"/>
  <path d="m324.78 404.64s10.143 6.4978 18.384 6.3393 22.029-11.252 25.199-15.531c3.1696-4.279 10.143-14.105 11.094-18.067 0.95088-3.962 0.63392-30.904-15.848-43.107s-31.221 0.15848-34.074 3.6451c-2.8527 3.4866-12.679 17.275-12.679 34.074s7.9241 32.647 7.9241 32.647z" fill="#fff"/>
  <path d="m274.38 399.41c9.5089-2.8527 21.237-1.5848 21.237-1.5848s6.8643-37.08-8.875-50.08c-13.956-11.528-19.969 13.464-19.969 21.237 0 19.969 7.6071 30.428 7.6071 30.428z" fill="#fff"/>
  <path transform="matrix(1.2551 0 0 1.2551 -64.297 55.146)" d="m351.53 256.99c0 11.925-7.3492 21.592-16.415 21.592-9.0657 0-16.415-9.6671-16.415-21.592 0-11.925 7.3492-21.592 16.415-21.592s16.415 9.6671 16.415 21.592z"/>
  <path transform="matrix(1.1045 0 0 1.1045 -13.812 93.862)" d="m351.53 256.99c0 11.925-7.3492 21.592-16.415 21.592-9.0657 0-16.415-9.6671-16.415-21.592 0-11.925 7.3492-21.592 16.415-21.592s16.415 9.6671 16.415 21.592z" fill="url(#ab)"/>
  <path transform="matrix(.53774 0 0 .53774 179.75 241.57)" d="m351.53 256.99c0 11.925-7.3492 21.592-16.415 21.592-9.0657 0-16.415-9.6671-16.415-21.592 0-11.925 7.3492-21.592 16.415-21.592s16.415 9.6671 16.415 21.592z"/>
  <path transform="matrix(.54196 0 0 .60612 167.32 214.74)" d="m351.53 256.99c0 11.925-7.3492 21.592-16.415 21.592-9.0657 0-16.415-9.6671-16.415-21.592 0-11.925 7.3492-21.592 16.415-21.592s16.415 9.6671 16.415 21.592z" fill="#fff"/>
  <path transform="matrix(.69303 0 0 .95933 54.786 132.27)" d="m351.53 256.99c0 11.925-7.3492 21.592-16.415 21.592-9.0657 0-16.415-9.6671-16.415-21.592 0-11.925 7.3492-21.592 16.415-21.592s16.415 9.6671 16.415 21.592z"/>
  <path transform="matrix(.60985 0 0 .84419 82.662 161.86)" d="m351.53 256.99c0 11.925-7.3492 21.592-16.415 21.592-9.0657 0-16.415-9.6671-16.415-21.592 0-11.925 7.3492-21.592 16.415-21.592s16.415 9.6671 16.415 21.592z" fill="url(#aa)"/>
  <path transform="matrix(.29692 0 0 .41102 189.54 274.76)" d="m351.53 256.99c0 11.925-7.3492 21.592-16.415 21.592-9.0657 0-16.415-9.6671-16.415-21.592 0-11.925 7.3492-21.592 16.415-21.592s16.415 9.6671 16.415 21.592z"/>
  <path transform="matrix(.29925 0 0 .46329 182.68 254.25)" d="m351.53 256.99c0 11.925-7.3492 21.592-16.415 21.592-9.0657 0-16.415-9.6671-16.415-21.592 0-11.925 7.3492-21.592 16.415-21.592s16.415 9.6671 16.415 21.592z" fill="#fff"/>
  <path d="m334.75 775.32s8.741-10.982 16.137-9.8616c7.3962 1.1206 9.8616 3.586 11.655 6.0514 1.793 2.4654 4.4825 8.0686 4.4825 8.0686s8.0686-9.6375 15.689-8.2927c7.6203 1.3448 12.999 4.7067 15.913 19.275 2.9136 14.568 2.2413 37.429-1.5689 46.843-3.8102 9.4133-10.086 15.017-19.051 14.12-8.9651-0.89652-15.465-8.741-15.465-8.741s-6.948 12.775-19.499 12.327c-12.551-0.44825-15.465-15.016-15.465-15.016s-4.7067 13.223-16.585 13.448c-11.879 0.22412-18.378-12.999-19.723-21.74-1.3448-8.741-1.1206-41.464-0.22412-56.032 0.89651-14.568 12.999-20.396 21.516-20.171 8.5168 0.22413 14.12 4.9308 16.137 8.0686s6.0514 11.655 6.0514 11.655z" stroke="#000" stroke-linejoin="round" stroke-width="6.2756"/>
  <path d="m330.05 836.29s3.1378 14.344 11.206 15.241c8.0686 0.89651 17.034-5.379 19.723-13.224 2.6895-7.8444 8.0686-33.843 4.2584-48.636-3.8102-14.792-8.9651-20.396-15.689-20.171-6.7238 0.22413-13.672 13.223-13.672 13.223s3.586 12.327 2.6895 26.895-8.5168 26.671-8.5168 26.671z" fill="url(#ao)"/>
  <path d="m368.15 784.74s3.2498 15.577 2.0172 27.119c-1.2327 11.543-5.9394 27.343-5.9394 27.343s7.9565 9.4133 18.154 7.9565c10.198-1.4568 14.232-20.396 14.12-33.619-0.11208-13.223-1.9051-34.516-10.422-37.877-8.5168-3.3619-17.93 9.0771-17.93 9.0771z" fill="url(#an)"/>
  <path d="m318.62 761.76c-10.644-3.3254-17.594-0.44825-21.18 6.6118-3.586 7.06-3.0244 39.737-2.8016 50.989 0.22413 11.318 3.1378 28.8 15.913 30.369 10.02 1.2306 20.059-20.844 21.292-25.326 1.2327-4.4825 4.7498-19.626 1.1206-36.309-2.3779-10.93-4.1686-23.156-14.344-26.335z" fill="url(#ap)"/>
  <path d="m307.8 509.88c-0.36978 6.8398-5.6252 17.965-8.8849 24.011 0.57784-4.6324 0.4197-5.9882 0.0557-11.496-8.6624 14.773-11.449 45.096-11.056 64.203 0.63712 10.588 4.034 27.225 7.413 37.267-3.6421-4.2383-9.0406-10.888-10.786-20.087-0.95475 12.331 2.1706 24.46 6.9816 35.692-6.6388-9.7528-4.7635-1.7353-3.177 5.0204 6.8164 25.391 14.914 50.839 26.397 74.483 12.056 23.708 37.189 38.249 63.305 40.948 16.183 2.6946 34.634 3.2104 47.694-8.3151 18.79-15.772 27.408-40.063 34.947-62.677 5.0368-23.159 2.9905-47.679-1.4123-70.709-0.689-2.696-2.1317-4.2805-3.1375-1.7908-0.34606-5.8081-2.6934-18.796-6.5277-24.262-2.3425 5.8304-1.0883 2.8612-3.5748 7.469-0.61139-9.3302-4.0978-15.676-6.9984-19.549-0.91327 3.5923-0.98274 7.5871-3.0593 10.747-0.25672-6.7811-1.8493-13.574-6.5501-18.748 1.0664 7.6352-0.41346 15.362-4.5946 17.717-0.0134-7.8888-1.7346-20.767-5.1325-27.993 0.51501 7.9373-1.0387 16.762-3.4796 21.83-0.44351-9.7634-5.9537-24.589-12.013-32.185 2.1609 8.1217 3.858 16.265 1.0534 25.483-3.5248-20.383-9.5641-26.026-16.154-33.916-0.64993 4.2161-1.6221-4.0403-3.6084-5.5696-5.1528-7.7432-13.178-12.637-20.905-17.532 3.3129 6.2783-5.4763-1.8782-7.9229-2.0788-5.3857-2.7408-10.994-4.9418-17.022-5.8049 0.9586 2.2842-1.0997 8.4797-3.0986 3.8046-2.7509-3.4102-6.9367-5.0577-10.865-6.7462 0.76675 2.6669 2.4446 7.2448 0.353 9.178-2.3374-4.2912-7.1086-6.0632-11.139-8.3151 2.2231 5.0043-2.0275-2.2476-3.9915-2.7559-4.5227-4.2803-2.4908-1.6385-3.1077 2.6775z"/>
  <path d="m310.32 509.96c6.4997 5.1549 8.2927 16.81 8.2927 16.81s2.9136-7.1721 0.8965-11.43c4.7067 2.4654 6.0514 8.0686 6.0514 8.0686s5.1549-4.9308 3.8102-9.8616c4.7067 1.793 8.2927 8.0686 8.2927 8.0686s4.4826-2.6895 4.4826-6.4997c10.086 1.5689 28.24 13.448 28.24 13.448l-0.89652-2.4654s12.999 7.8444 15.913 16.81c2.9137 8.9651 3.3619 15.241 3.3619 15.241l1.793-9.4133s7.6203 9.8616 8.741 15.689 2.0171 14.568 2.0171 14.568 5.6032-6.4997 5.3791-19.275c7.1721 10.086 5.8273 27.568 5.8273 27.568s6.4997-9.6375 7.3962-17.482c2.2413 9.6375 1.3448 23.085 1.3448 23.085s6.9479-7.3962 8.9651-15.016c3.8102 4.4825 3.3619 19.723 3.3619 19.723s5.6032-4.4825 6.7238-11.206c4.7067 6.7238 4.0343 21.74 4.0343 21.74l5.379-10.534c6.4997 10.758 2.6895 38.102 2.6895 38.102s4.7067-5.6032 4.9308-15.913c0 0 8.741 47.515-0.67237 73.738-9.4133 26.223-24.878 66.79-60.29 65.445-35.412-1.3448-68.583-10.31-85.617-54.463s-20.396-62.531-20.396-62.531c3.8102 4.4825 7.6203 5.3791 7.6203 5.3791s-10.086-18.154-10.982-35.188c4.7067 9.4133 12.999 14.568 12.999 14.568s-12.551-24.43-9.1892-58.273c3.3619-33.843 7.6203-38.774 7.6203-38.774l0.44826 7.8444s11.206-16.361 11.43-27.568z" fill="url(#ah)"/>
  <path d="m350.93 415.9c-12.045 3.1696-23.455-0.63393-35.658-8.241-12.203-7.6071-36.926-7.1317-49.288 3.0112-10.684 8.7667-18.384 24.565-13.946 43.741 4.4375 19.176 22.98 39.62 22.98 39.62s14.897-17.908 24.565-20.286 31.062-7.6071 39.145-12.52c8.0826-4.9129 12.203-45.326 12.203-45.326z" fill="url(#aq)"/>
  <path d="m380.71 411.43c-0.40092 5e-3 -0.81928 0.0384-1.2551 0.1176l-2.118 10.198s3.1322 4.7291 4.589 26.357c1.4568 21.628-2.1068 41.693-10.512 44.047-8.4048 2.3533-33.966-22.317-33.966-22.317l-4.942 2.2357s14.781 16.137 23.298 23.533c8.5168 7.3962 17.74 13.924 24.239 10.786 6.1107-2.95 9.4199-34.031 15.571-66.05l-6.5893-21.611c-0.0865 0.2863-0.15689 0.47067-0.15689 0.47067s-2.1444-7.8342-8.1582-7.766z" fill="url(#z)"/>
  <path d="m376.89 388.26s24.932-22.486 51.549-15.241c28.586 7.7817 35.188 17.258 42.36 29.361 7.1721 12.103 7.6203 21.516 6.4997 33.171s-18.827 54.687-18.827 54.687l-63.876-25.999s13.448-50.204 8.2927-64.549c-5.1549-14.344-13.896-13.896-14.792-14.12-0.89651-0.22413-11.206 2.6895-11.206 2.6895z" fill="url(#ad)"/>
  <path d="m272.89 298.16s16.137-18.378 40.343-24.878c24.206-6.4997 69.031-6.4997 86.513-5.1549s39.222-16.81 43.929-23.085 17.258-25.102 20.171-25.326c2.9136-0.22413 3.3619 9.6375 2.4654 22.861-0.89651 13.223-27.792 64.324-28.464 75.755-0.67238 11.43-1.793 23.757 3.8102 34.74 5.6032 10.982-24.878 1.1206-32.05-27.344-7.1721-28.464-38.55-43.929-54.463-43.705-15.913 0.22412-32.723 2.2413-44.153 18.154-11.43 15.913-10.758 16.137-10.758 16.137s-8.2927-18.378-15.913-18.603c-7.6203-0.22412-11.43 0.44825-11.43 0.44825z" fill="url(#ae)"/>
  <path d="m249.25 358.33c-41.576 58.721-42.696 87.522-42.696 87.522s8.0686-13.111 11.655-14.568c-8.4048 30.93-1.793 47.067-1.793 47.067l3.1378-9.4133c3.3619 21.628 16.81 37.205 16.81 37.205l32.498-9.4133s-20.171-21.516-23.757-37.429 1.3448-30.705 1.3448-30.705-6.4997-19.275-1.9051-23.197 9.6375-1.849 10.87-1.6249c1.2327 0.22413 6.4997 2.2413 6.4997 2.2413l6.8359-3.4179c-7.116-5.1549-17.482-6.2756-17.482-6.2756l6.1635-2.1292s-5.011-8.9977-8.1806-35.86z" fill="url(#af)"/>
 </g>
</svg>
