<?xml version="1.0" encoding="UTF-8"?>
<svg viewBox="0 0 1024 400" xmlns="http://www.w3.org/2000/svg" xmlns:xlink="http://www.w3.org/1999/xlink">
 <defs>
  <linearGradient id="o">
   <stop stop-color="#252b41" offset="0"/>
   <stop stop-color="#252b41" stop-opacity="0" offset="1"/>
  </linearGradient>
  <linearGradient id="g">
   <stop offset="0"/>
   <stop stop-color="#1e1d2e" offset="1"/>
  </linearGradient>
  <linearGradient id="e">
   <stop stop-color="#fff" offset="0"/>
   <stop stop-color="#03070b" stop-opacity=".65482" offset="1"/>
  </linearGradient>
  <linearGradient id="d">
   <stop stop-color="#1b2c3c" offset="0"/>
   <stop stop-color="#dfe8f1" offset="1"/>
  </linearGradient>
  <linearGradient id="m">
   <stop stop-color="#fff" offset="0"/>
   <stop stop-color="#a3701c" offset=".21875"/>
   <stop stop-color="#582d00" offset="1"/>
  </linearGradient>
  <linearGradient id="l">
   <stop stop-color="#aaa" offset="0"/>
   <stop stop-color="#aaa" stop-opacity="0" offset="1"/>
  </linearGradient>
  <linearGradient id="a">
   <stop stop-color="#eee" offset="0"/>
   <stop stop-color="#eee" stop-opacity="0" offset="1"/>
  </linearGradient>
  <linearGradient id="b">
   <stop offset="0"/>
   <stop stop-opacity="0" offset="1"/>
  </linearGradient>
  <linearGradient id="f">
   <stop stop-color="#888" offset="0"/>
   <stop stop-color="#fff" offset="1"/>
  </linearGradient>
  <linearGradient id="c">
   <stop stop-color="#410e0e" offset="0"/>
   <stop stop-color="#100303" stop-opacity="0" offset="1"/>
  </linearGradient>
  <linearGradient id="bc" x1="577" x2="562.86" y1="482.08" y2="512.13" gradientUnits="userSpaceOnUse">
   <stop stop-color="#fd3301" offset="0"/>
   <stop stop-color="#fd3301" stop-opacity="0" offset="1"/>
  </linearGradient>
  <linearGradient id="n" x1="788.74" x2="814.24" gradientUnits="userSpaceOnUse">
   <stop stop-color="#fff" stop-opacity="0" offset="0"/>
   <stop stop-color="#fdca01" offset="1"/>
  </linearGradient>
  <linearGradient id="de" x1="1099.1" x2="993.03" y1="528.76" y2="879.24" gradientUnits="userSpaceOnUse" xlink:href="#d" spreadMethod="reflect"/>
  <linearGradient id="dd" x1="1059.3" x2="1068.1" y1="539.87" y2="527.14" gradientUnits="userSpaceOnUse" xlink:href="#b"/>
  <linearGradient id="dc" x1="1048.8" x2="1070.5" y1="564.97" y2="546.08" gradientUnits="userSpaceOnUse" xlink:href="#a"/>
  <linearGradient id="db" x1="1067.4" x2="1066.3" y1="522.03" y2="564.67" gradientUnits="userSpaceOnUse" xlink:href="#e"/>
  <linearGradient id="da" x1="1071.7" x2="1062.1" y1="584.26" y2="622.66" gradientUnits="userSpaceOnUse" xlink:href="#e"/>
  <linearGradient id="cz" x1="1058.5" x2="1054.6" y1="643.59" y2="674.8" gradientUnits="userSpaceOnUse" xlink:href="#e"/>
  <linearGradient id="cy" x1="1038.7" x2="1026.2" y1="611.66" y2="640.13" gradientUnits="userSpaceOnUse" xlink:href="#e"/>
  <linearGradient id="cx" x1="1033.4" x2="1023" y1="543.92" y2="572.33" gradientUnits="userSpaceOnUse" xlink:href="#e"/>
  <linearGradient id="cw" x1="1060.7" x2="1072.8" y1="611.31" y2="573.3" gradientUnits="userSpaceOnUse" xlink:href="#b"/>
  <linearGradient id="cv" x1="1045.3" x2="1065" y1="647.56" y2="618.38" gradientUnits="userSpaceOnUse" xlink:href="#b"/>
  <linearGradient id="cu" x1="1031.7" x2="1023.8" y1="610.96" y2="591.56" gradientUnits="userSpaceOnUse" xlink:href="#b"/>
  <linearGradient id="ct" x1="1037.6" x2="1032.1" y1="545.46" y2="569.36" gradientUnits="userSpaceOnUse" xlink:href="#b"/>
  <linearGradient id="cs" x1="1041.6" x2="1054.7" y1="547.36" y2="545.77" gradientUnits="userSpaceOnUse" xlink:href="#d"/>
  <linearGradient id="cr" x1="1037.4" x2="1057.6" y1="613.67" y2="668.42" gradientUnits="userSpaceOnUse" xlink:href="#d"/>
  <linearGradient id="cq" x1="1054.5" x2="1071.5" y1="627.22" y2="638.06" gradientUnits="userSpaceOnUse" xlink:href="#d"/>
  <linearGradient id="cp" x1="1030.4" x2="1073.3" y1="599.91" y2="572.53" gradientUnits="userSpaceOnUse" xlink:href="#d"/>
  <linearGradient id="co" x1="609.35" x2="638.58" y1="652.86" y2="545.44" gradientUnits="userSpaceOnUse" xlink:href="#d" spreadMethod="reflect"/>
  <linearGradient id="cn" x1="621" x2="529.11" y1="585.91" y2="660.17" gradientUnits="userSpaceOnUse" xlink:href="#d" spreadMethod="reflect"/>
  <linearGradient id="cm" x1="627.95" x2="636.76" y1="539.87" y2="527.14" gradientUnits="userSpaceOnUse" xlink:href="#b"/>
  <linearGradient id="cl" x1="617.48" x2="639.13" y1="564.97" y2="546.08" gradientUnits="userSpaceOnUse" xlink:href="#a"/>
  <linearGradient id="ck" x1="636.04" x2="634.98" y1="522.03" y2="564.67" gradientUnits="userSpaceOnUse" xlink:href="#e"/>
  <linearGradient id="cj" x1="640.39" x2="630.81" y1="584.26" y2="622.66" gradientUnits="userSpaceOnUse" xlink:href="#e"/>
  <linearGradient id="ci" x1="627.19" x2="623.25" y1="643.59" y2="674.8" gradientUnits="userSpaceOnUse" xlink:href="#e"/>
  <linearGradient id="ch" x1="607.39" x2="594.91" y1="611.66" y2="640.13" gradientUnits="userSpaceOnUse" xlink:href="#e"/>
  <linearGradient id="cg" x1="602.03" x2="591.7" y1="543.92" y2="572.33" gradientUnits="userSpaceOnUse" xlink:href="#e"/>
  <linearGradient id="cf" x1="629.38" x2="641.48" y1="611.31" y2="573.3" gradientUnits="userSpaceOnUse" xlink:href="#b"/>
  <linearGradient id="ce" x1="613.96" x2="633.67" y1="647.56" y2="618.38" gradientUnits="userSpaceOnUse" xlink:href="#b"/>
  <linearGradient id="cd" x1="600.35" x2="592.51" y1="610.96" y2="591.56" gradientUnits="userSpaceOnUse" xlink:href="#b"/>
  <linearGradient id="cc" x1="606.29" x2="600.72" y1="545.46" y2="569.36" gradientUnits="userSpaceOnUse" xlink:href="#b"/>
  <linearGradient id="cb" x1="610.31" x2="623.41" y1="547.36" y2="545.77" gradientUnits="userSpaceOnUse" xlink:href="#d"/>
  <linearGradient id="ca" x1="606.05" x2="626.22" y1="613.67" y2="668.42" gradientUnits="userSpaceOnUse" xlink:href="#d"/>
  <linearGradient id="bz" x1="623.2" x2="640.17" y1="627.22" y2="638.06" gradientUnits="userSpaceOnUse" xlink:href="#d"/>
  <linearGradient id="by" x1="599.1" x2="642" y1="599.91" y2="572.53" gradientUnits="userSpaceOnUse" xlink:href="#d"/>
  <linearGradient id="bx" x1="866.67" x2="795.33" y1="196.41" y2="371.48" gradientUnits="userSpaceOnUse" xlink:href="#c"/>
  <linearGradient id="bw" x1="286.42" x2="288.44" y1="494.19" y2="549.07" gradientUnits="userSpaceOnUse" xlink:href="#c"/>
  <linearGradient id="bv" x1="322.72" x2="345.82" y1="609.1" y2="434.45" gradientUnits="userSpaceOnUse" xlink:href="#a"/>
  <linearGradient id="bu" x1="328.42" x2="329.44" y1="543.19" y2="515.95" gradientUnits="userSpaceOnUse" xlink:href="#c"/>
  <linearGradient id="bt" x1="169.5" x2="361.29" y1="382.41" y2="278.11" gradientUnits="userSpaceOnUse" xlink:href="#a"/>
  <linearGradient id="bs" x1="162.8" x2="512.04" gradientUnits="userSpaceOnUse" xlink:href="#m"/>
  <linearGradient id="br" x1="679.13" x2="674.3" y1="279.19" y2="237.05" gradientUnits="userSpaceOnUse" xlink:href="#o"/>
  <linearGradient id="bq" x1="686.2" x2="676.79" y1="518.66" y2="577.28" gradientUnits="userSpaceOnUse" xlink:href="#a"/>
  <linearGradient id="bp" x1="391.63" x2="350.01" y1="525.75" y2="657.3" gradientUnits="userSpaceOnUse" xlink:href="#b"/>
  <linearGradient id="bo" x1="370.79" x2="432.79" y1="733.72" y2="568.25" gradientUnits="userSpaceOnUse" xlink:href="#a"/>
  <linearGradient id="bn" x1="356.13" x2="357.01" y1="657.3" y2="638.3" gradientUnits="userSpaceOnUse" xlink:href="#b"/>
  <linearGradient id="bm" x1="145.32" x2="141.07" y1="559.68" y2="486.15" gradientUnits="userSpaceOnUse" xlink:href="#a"/>
  <linearGradient id="bl" x1="170.85" x2="175.23" y1="529.52" y2="502.83" gradientUnits="userSpaceOnUse" xlink:href="#b"/>
  <linearGradient id="bk" x1="50.772" x2="71.355" y1="420.28" y2="470.67" gradientUnits="userSpaceOnUse" xlink:href="#a"/>
  <linearGradient id="bj" x1="-2.7931" x2="-.5215" y1="515" y2="491.46" gradientUnits="userSpaceOnUse" xlink:href="#l"/>
  <linearGradient id="bi" x2="0" y1="509.65" y2="500.11" gradientUnits="userSpaceOnUse" xlink:href="#a"/>
  <linearGradient id="bh" x1="41.055" x2="63.48" y1="431.75" y2="457.52" gradientUnits="userSpaceOnUse" xlink:href="#a"/>
  <linearGradient id="bg" x1="52.458" x2="65.613" y1="473.52" y2="449.11" gradientUnits="userSpaceOnUse" xlink:href="#a"/>
  <linearGradient id="bf" x1="41.741" x2="64.108" y1="420.98" y2="452.07" gradientTransform="matrix(1.2602 -.54079 -.070165 1.0859 -3.803 9.3962)" gradientUnits="userSpaceOnUse" xlink:href="#a"/>
  <linearGradient id="be" x1="316.99" x2="336.74" gradientUnits="userSpaceOnUse" xlink:href="#f"/>
  <linearGradient id="bd" x1="627.96" x2="859.31" y1="435.95" y2="351.54" gradientUnits="userSpaceOnUse" xlink:href="#m"/>
  <linearGradient id="bb" x1="846.29" x2="844.79" y1="258.26" y2="300.8" gradientUnits="userSpaceOnUse" xlink:href="#c"/>
  <linearGradient id="ba" x1="894.13" x2="886.7" y1="517.72" y2="474.23" gradientUnits="userSpaceOnUse" xlink:href="#a"/>
  <linearGradient id="az" x1="527.97" x2="524.5" y1="440.59" y2="457.09" gradientUnits="userSpaceOnUse" xlink:href="#l"/>
  <linearGradient id="ay" x1="494.36" x2="503.73" y1="449.44" y2="461.89" gradientUnits="userSpaceOnUse" xlink:href="#f" spreadMethod="reflect"/>
  <linearGradient id="ax" x1="470.5" x2="479.86" y1="474.01" y2="485.41" gradientUnits="userSpaceOnUse" xlink:href="#f" spreadMethod="reflect"/>
  <linearGradient id="aw" x1="490.31" x2="491.38" y1="465.17" y2="473.16" gradientUnits="userSpaceOnUse" xlink:href="#b"/>
  <linearGradient id="av" x1="463.08" x2="473.85" y1="474.12" y2="481.29" gradientUnits="userSpaceOnUse" xlink:href="#b"/>
  <linearGradient id="au" x1="502.48" x2="511.13" y1="440.05" y2="455.03" gradientUnits="userSpaceOnUse" xlink:href="#b"/>
  <linearGradient id="at" x1="516.01" x2="529.98" y1="457.51" y2="450.26" gradientUnits="userSpaceOnUse" xlink:href="#f"/>
  <linearGradient id="as" x1="508.61" x2="511.48" y1="319.66" y2="274.89" gradientUnits="userSpaceOnUse" xlink:href="#d"/>
  <linearGradient id="ar" x1="371.14" x2="372.03" y1="315.65" y2="304.24" gradientUnits="userSpaceOnUse" xlink:href="#d"/>
  <linearGradient id="aq" x1="652.83" x2="691.3" y1="314.67" y2="280.55" gradientUnits="userSpaceOnUse" xlink:href="#o"/>
  <pattern id="ao" width="17.5" height="13" patternTransform="translate(308.75 855.34)" patternUnits="userSpaceOnUse">
   <path d="m6.6667 9.6667c0-1.84-1.4934-3.3333-3.3333-3.3333s-3.3333 1.4933-3.3333 3.3333 1.4933 3.3333 3.3333 3.3333 3.3333-1.4933 3.3333-3.3333z" fill-rule="evenodd"/>
   <path d="m14 9.6667c0-1.84-1.4934-3.3333-3.3333-3.3333s-3.3334 1.4933-3.3333 3.3333 1.4933 3.3333 3.3333 3.3333 3.3333-1.4933 3.3333-3.3333z" fill-rule="evenodd"/>
   <path d="m10.167 3.3333c0-1.84-1.4934-3.3333-3.3333-3.3333s-3.3333 1.4933-3.3333 3.3333 1.4933 3.3333 3.3333 3.3333 3.3333-1.4933 3.3333-3.3333z" fill-rule="evenodd"/>
   <path d="m17.5 3.3333c0-1.84-1.4934-3.3333-3.3333-3.3333s-3.3334 1.4933-3.3333 3.3333 1.4933 3.3333 3.3333 3.3333 3.3333-1.4933 3.3333-3.3333z" fill-rule="evenodd"/>
  </pattern>
  <pattern id="ap" xlink:href="#k" patternTransform="matrix(.60653 0 0 .60653 456.49 743.92)"/>
  <pattern id="k" xlink:href="#ao" patternTransform="matrix(.60653 0 0 .60653 308.75 855.34)"/>
  <radialGradient id="h" cx="540.56" cy="440.62" r="424.05" gradientTransform="matrix(1 0 0 .48562 0 226.65)" gradientUnits="userSpaceOnUse">
   <stop offset="0"/>
   <stop stop-opacity=".49804" offset=".69531"/>
   <stop stop-opacity="0" offset="1"/>
  </radialGradient>
  <radialGradient id="an" cx="621.83" cy="590.57" r="71.858" gradientTransform="matrix(.72473 4.7749e-7 -9.2254e-7 1.4002 607.01 -234.04)" gradientUnits="userSpaceOnUse" xlink:href="#g" spreadMethod="reflect"/>
  <radialGradient id="am" cx="632.27" cy="608.5" r="71.858" gradientTransform="matrix(.49031 .012063 -.019763 .80327 779.59 102.59)" gradientUnits="userSpaceOnUse" xlink:href="#a" spreadMethod="reflect"/>
  <radialGradient id="al" cx="627.11" cy="603.69" r="71.858" gradientTransform="matrix(.85686 0 1.7021e-6 1.6555 524.14 -388.15)" gradientUnits="userSpaceOnUse" xlink:href="#b" spreadMethod="reflect"/>
  <radialGradient id="j" cx="624.91" cy="583.85" r="8.25" gradientTransform="matrix(11.672 0 0 10.017 -6665.7 -5267.5)" gradientUnits="userSpaceOnUse" xlink:href="#e"/>
  <radialGradient id="ak" cx="621.83" cy="590.57" r="71.858" gradientTransform="matrix(.72473 4.7749e-7 -9.2254e-7 1.4002 175.67 -234.04)" gradientUnits="userSpaceOnUse" xlink:href="#g" spreadMethod="reflect"/>
  <radialGradient id="aj" cx="632.27" cy="608.5" r="71.858" gradientTransform="matrix(.49031 .012063 -.019763 .80327 348.25 102.59)" gradientUnits="userSpaceOnUse" xlink:href="#a" spreadMethod="reflect"/>
  <radialGradient id="ai" cx="627.11" cy="603.69" r="71.858" gradientTransform="matrix(.72473 4.7749e-7 -9.2254e-7 1.4002 175.67 -234.04)" gradientUnits="userSpaceOnUse" xlink:href="#b" spreadMethod="reflect"/>
  <radialGradient id="ah" cx="623.78" cy="586.53" r="71.858" gradientTransform="matrix(.70707 .040313 -.004984 1.2938 -140.36 -317.8)" gradientUnits="userSpaceOnUse" xlink:href="#g" spreadMethod="reflect"/>
  <radialGradient id="ag" cx="144.49" cy="843.38" r="329.03" gradientTransform="matrix(2.3862 -.19755 .045194 .54589 -102.23 18.584)" gradientUnits="userSpaceOnUse" xlink:href="#c"/>
  <radialGradient id="af" cx="485.42" cy="622.22" r="83.828" gradientTransform="matrix(.87144 -.25291 .45002 1.5506 -62.869 -321.83)" gradientUnits="userSpaceOnUse" xlink:href="#a"/>
  <radialGradient id="ae" cx="546.22" cy="282.17" r="85.484" gradientTransform="matrix(3.4352 0 0 2.2033 -1194.6 -430.37)" gradientUnits="userSpaceOnUse" xlink:href="#c"/>
  <radialGradient id="ad" cx="694.81" cy="524.13" r="74.5" gradientTransform="matrix(2.8264 -.75734 .2983 1.1133 -1280.3 299.46)" gradientUnits="userSpaceOnUse" xlink:href="#c"/>
  <radialGradient id="ac" cx="759.13" cy="384.78" r="109.08" gradientTransform="matrix(2.3495 -.64123 .45595 1.6706 -993.18 130.55)" gradientUnits="userSpaceOnUse" xlink:href="#c"/>
  <radialGradient id="ab" cx="740.1" cy="545.55" r="41.69" gradientTransform="matrix(2.9001 0 0 4.6481 -1417.3 -1993.7)" gradientUnits="userSpaceOnUse" xlink:href="#c"/>
  <radialGradient id="aa" cx="743.96" cy="403.92" r="18.188" gradientTransform="matrix(2.121 .56833 -.2716 1.0136 -565.77 -547.95)" gradientUnits="userSpaceOnUse" xlink:href="#c"/>
  <radialGradient id="i" cx="735.36" cy="662.38" r="78.531" gradientTransform="matrix(2.6548 -.7186 .15105 .55805 -1169.1 673.5)" gradientUnits="userSpaceOnUse" xlink:href="#a"/>
  <radialGradient id="z" cx="694.37" cy="440.88" r="11.276" gradientTransform="matrix(3.5384 0 0 5.1887 -1615.2 -1965.7)" gradientUnits="userSpaceOnUse" xlink:href="#c"/>
  <radialGradient id="y" cx="683.88" cy="438.91" r="11.276" gradientTransform="matrix(5.2604 2.9916e-6 -2.0701e-6 3.6416 -2792.9 -1286.6)" gradientUnits="userSpaceOnUse" xlink:href="#c"/>
  <radialGradient id="x" cx="669.97" cy="436.95" r="11.276" gradientTransform="matrix(2.1139 -2.1139 3.4717 3.4717 -2159.9 218.56)" gradientUnits="userSpaceOnUse" xlink:href="#c"/>
  <radialGradient id="w" cx="670.3" cy="458.76" r="43.912" gradientTransform="matrix(3.8402 .7909 -1.0111 4.9095 -1192.1 -2457.2)" gradientUnits="userSpaceOnUse" xlink:href="#c"/>
  <radialGradient id="v" cx="731.87" cy="603.62" r="78.531" gradientTransform="matrix(.89447 -.26389 .16359 .5545 37.516 362)" gradientUnits="userSpaceOnUse" xlink:href="#a"/>
  <radialGradient id="u" cx="677.77" cy="596.82" r="78.531" gradientTransform="matrix(1.4472 -.53049 .12258 .33439 -283.84 677.44)" gradientUnits="userSpaceOnUse" xlink:href="#a"/>
  <radialGradient id="t" cx="672.33" cy="444.14" r="11.276" gradientTransform="matrix(-1.845 .45877 -1.1814 -4.7514 2551.6 2162.3)" gradientUnits="userSpaceOnUse" xlink:href="#c"/>
  <radialGradient id="s" cx="692.58" cy="414.13" r="109.08" gradientTransform="matrix(.27215 -6.7515e-8 8.4676e-8 .89047 803.54 -44.95)" gradientUnits="userSpaceOnUse" xlink:href="#c"/>
  <radialGradient id="r" cx="498.18" cy="456.27" r="5.5547" gradientTransform="matrix(3.5471 0 .84321 3.8858 -1683.1 -1299.1)" gradientUnits="userSpaceOnUse" xlink:href="#a"/>
  <radialGradient id="q" cx="512.22" cy="446.96" r="5.5547" gradientTransform="matrix(2.9095 0 0 3.0953 -978.07 -936.85)" gradientUnits="userSpaceOnUse" xlink:href="#a"/>
  <radialGradient id="p" cx="429.21" cy="515.31" r="29.948" gradientTransform="matrix(1.5498 0 0 .086121 -235.98 470.93)" gradientUnits="userSpaceOnUse" xlink:href="#a"/>
 </defs>
 <path transform="matrix(1.0904 0 -.59583 .43351 208.11 100.86)" d="m964.6 440.62a424.05 205.93 0 1 1 -848.09 0 424.05 205.93 0 1 1 848.09 0z" fill="url(#h)" fill-rule="evenodd"/>
 <path transform="matrix(1.0904 0 -.59583 .43351 155.59 100.86)" d="m964.6 440.62a424.05 205.93 0 1 1 -848.09 0 424.05 205.93 0 1 1 848.09 0z" fill="url(#h)" fill-rule="evenodd"/>
 <g transform="matrix(.82132 0 0 .82132 43.138 -138.81)">
  <path d="m770.61 336.7c-2.2818 0.09136-4.6085 0.54192-6.9688 1.4062-30.212 11.063-54.719 82.9-54.719 160.34 0 17.407 1.2363 33.632 3.5 48.188l101.5-31.094c2.8704-18.086 4.4688-37.43 4.4688-57.156 0-71.394-20.856-122.77-47.781-121.69z" fill-rule="evenodd"/>
  <path d="m986.02 335.67c-18.088 0.62064-25.004 36.176-30.656 80.75-2.5749 20.304-5.2864 42.139-5.5312 59.938l0.375-2.75 44.375-76.656 1.625 0.53125c2.7344-35.516-0.58092-62.142-10.188-61.812z" fill-rule="evenodd"/>
  <g transform="matrix(.42926 0 .018452 .68663 518.2 24.913)" fill-rule="evenodd">
   <path d="m1049 478.84-142.97 1.125c-24.178 0-49.399 51.541-52.041 111.34s14.822 104.31 39 104.31l146.45-0.09375c24.178 0 45.951-48.541 48.594-108.34s-14.854-108.34-39.031-108.34z" fill="url(#an)"/>
   <path d="m1049 478.84-143.13 1.125c-24.178 0-49.399 51.541-52.041 111.34s14.822 104.31 39 104.31l146.61-0.09375c24.178 0 45.951-48.541 48.594-108.34s-14.854-108.34-39.031-108.34z" fill="url(#am)" opacity=".14523"/>
   <path d="m1049 478.84-142.97 1.125c-24.178 0-49.399 51.541-52.041 111.34s14.822 104.31 39 104.31l146.45-0.09375c24.178 0 45.951-48.541 48.594-108.34s-14.854-108.34-39.031-108.34z" fill="url(#al)"/>
  </g>
  <g transform="matrix(.42926 0 .013472 .68663 521.89 24.913)" fill-rule="evenodd">
   <path d="m1055.7 493.12c-0.7974-0.01252-1.5894 0.05465-2.4063 0.21875-18.848 3.7863-32.477 50.153-32.094 101.41 0.3797 50.788 12.819 87.813 30.094 83.625 19.096-4.6294 32.113-49.619 32.094-100.41 0.5239-48.406-11.473-84.589-27.688-84.844z" fill="url(#de)"/>
   <path d="m1063.6 508.88c5.7847-0.3625 8.75 13.536 8.75 27.75 0 1.9644-0.0614 3.8928-0.1866 5.759-6.7078 5.8354-13.362 12.573-18.727 16.473-0.3836-3.616 0.1078-10.185 0.1636-19.482 0.085-14.15 1.5593-29.971 10-30.5z" fill="url(#dd)"/>
   <path d="m1053.4 558.91 13.634-11.927 4.6617-0.89905-16.619 16.561c-0.7118-0.86258-1.2977-2.0401-1.6767-3.7348z" fill="url(#dc)"/>
   <path d="m1063.5851,508.875c-3.9852.24974-6.4086,3.90538-7.875,9.1875 5.3226-.0265 1.7786,11.10196 2.8438,11.1875 5.3522.42983 9.2812,3.97707 9.2812,13.375 0,1.42682-.2387,2.79034-.6562,4.09375-.4003,1.24963 1.7127.6142 3.8125,0l-15.8438,15.84375c1.6636,1.4986 3.6135,2.29918 5.6875,2.0625 6.572-.75 10.25-8.03003 11-16.25 0-.63361-.0434-1.2569-.0937-1.875 .0013-.01007-.0013-.02118 0-.03125 .3913-3.08513.5937-6.3939.5937-9.84375 0-14.214-2.9653-28.1125-8.75-27.75z" fill="url(#db)"/>
   <path transform="matrix(.99849 0 0 1.1039 426.44 -60.056)" d="m632 584.86a8.25 22 0 1 1 -16.5 0 8.25 22 0 1 1 16.5 0z" fill="url(#j)"/>
   <path d="m1071.6 569c-4.1149 0.19662-7.5869 5.4053-9.4063 13.125 2.6496-3.3825 6.2757-6.9225 9.125-8.6562 2.2332-1.3588 2.6437 5.7852-5.125 8.2188 1.9044 5.1405 2.8593 29.374-1.5937 29.625-0.716 0.04043-1.5669-1.1496-2.375-2.9062 1.7807 8.516 5.0998 14.25 9.0625 14.25 5.6532 0 10.062-11.617 10.062-26.438s-3.58-26.815-9.125-27.219c-0.2064-0.01505-0.4215-0.00972-0.625 0z" fill="url(#da)"/>
   <path d="m1052.9 613.56c-2.0224-0.01207-3.5423 1.8061-4.6563 4.8125 3.1394 4.3487 5.7538 14.992 8.5 20.594 5.9447 12.127-0.4832 19.024-10.156 17.594-0.3013-0.04454-0.6178-0.14672-0.9375-0.28125 0.8164 8.0979 3.1821 13.44 9.1562 14.094 4.313 0.47175 7.2814-8.405 8.5-28.5 1.1899-19.62-4.4214-27.391-9.875-28.25-0.185-0.02914-0.3542-0.06144-0.5312-0.0625z" fill="url(#cz)"/>
   <path d="m1034.4 583.19c-2.824-0.06974-5.8475 3.6872-8.1562 9.25 0.1049-0.06853 0.2076-0.16327 0.3125-0.21875 8.0242-4.2426 7.7812 13.307 7.7812 23.406 0 6.6545-0.9934 17.457-2.9375 24.062 0.6828 0.32156 1.3914 0.48578 2.125 0.4375 6.9456-0.45703 11.149-8.989 9.0938-28.906-1.454-14.093-1.9737-27.877-8.2188-28.031z" fill="url(#cy)"/>
   <path d="m1039.6 515.53c-0.2035 0.01479-0.4119 0.05137-0.625 0.09375-1.1427 0.22732-2.1711 1.0504-3.0937 2.3438 7.6774 0.37027 3.7147 13.981 3.0312 25.25-0.7713 12.719-2.5708 20.683-5.5312 23.062 1.6249 3.4278 3.5397 5.6 5.25 6 4.0829 0.95488 9.0625-13.877 9.0625-29.469 0-15.105-1.7854-27.74-8.0938-27.281z" fill="url(#cx)"/>
   <path d="m1071.8 573.31c-0.1238 0.02172-0.2667 0.07132-0.4063 0.15625-2.8493 1.7338-6.4754 5.2737-9.125 8.6562-0.9927 3.8452-1.5625 8.3306-1.5625 13.125 0 4.822 0.5904 9.2964 1.5938 13.156 0.8081 1.7566 1.659 2.9467 2.375 2.9062 4.453-0.25147 3.4981-24.484 1.5937-29.625 7.2831-2.2814 7.388-8.7008 5.5313-8.375z" fill="url(#cw)"/>
   <path d="m1048.3 618.38c-1.9084 5.1508-2.6753 13.852-2.9062 23.125-0.1378 5.5327-0.1167 10.524 0.3125 14.781 0.3197 0.13453 0.6362 0.23671 0.9375 0.28125 9.673 1.4303 16.101-5.4672 10.156-17.594-2.7462-5.6022-5.3606-16.245-8.5-20.594z" fill="url(#cv)"/>
   <path d="m1028.6 591.56c-0.6139 0.03851-1.2789 0.2585-2.0312 0.65625-0.1049 0.05548-0.2076 0.15022-0.3125 0.21875-2.2166 5.3409-3.75 12.358-3.75 19.312 0 12.574 3.6188 25.447 8.9062 27.938 1.9441-6.6052 2.9375-17.408 2.9375-24.062 0-9.1528 0.1845-24.435-5.75-24.062z" fill="url(#cu)"/>
   <path d="m1035.9 517.97c-3.0837 4.3226-4.9817 14.023-5.9688 25.531-0.8048 9.3832 0.9903 17.553 3.4688 22.781 2.9604-2.3796 4.7599-10.344 5.5312-23.062 0.6835-11.269 4.6462-24.88-3.0312-25.25z" fill="url(#ct)"/>
   <path d="m1046.8 527.78c-1.3235 2.8088-2.6256 8.5306-3.3125 15.125-0.9758 9.3678-0.3502 16.969 1.4063 16.969 0.3158 0 0.6642-0.26106 1-0.71875 1.0786-4.8211 1.75-10.534 1.75-16.344 0-5.5085-0.2361-10.695-0.8438-15.031z" fill="url(#cs)" opacity=".3"/>
   <path d="m1039.1 609.12c-1.794 0-2.2419 12.768-1 28.5 0.0162 0.2044 0.046 0.39037 0.0625 0.59375 2.7145-2.3833 4.5111-7.0786 4.9063-14.469-1.2428-8.6868-2.7521-14.625-3.9688-14.625z" fill="url(#cr)" opacity=".3"/>
   <path d="m1055.8 616.38c-3.3663 0-0.0022 8.9817 7.6563 21.688 0.1635-9.8669-1.5767-16.28-4.0625-20.062-1.5077-1.0618-2.7433-1.625-3.5938-1.625z" fill="url(#cq)" opacity=".4"/>
   <path d="m1042.3 572.53c-0.8179 3.7717-1.3125 8.2255-1.3125 13.031 0 5.3676 0.5924 10.322 1.5938 14.344 2.1722-2.0717 3.7187-7.3309 3.7187-13.531 0-6.473-1.6766-11.982-4-13.844z" fill="url(#cp)"/>
   <path d="m1055.6 494.16c-11.895 2.7967-16.597 15.965-20.781 26.094-2.7262 8.177-4.8983 16.516-6.5313 24.969 1.5643-7.5983 3.5743-15.099 6.0313-22.469 4.1839-10.129 8.8862-23.297 20.781-26.094 8.4892-0.37873 13.234 8.6855 16.375 15.281 11.272 27.793 11.222 58.763 9.6563 88.406-0.9135 9.8404-1.9894 19.873-3.875 29.688 2.2028-10.608 3.3837-21.508 4.375-32.188 1.5657-29.643 1.6158-60.613-9.6563-88.406-3.1407-6.5958-7.8858-15.66-16.375-15.281z" fill="#fff"/>
  </g>
  <g transform="translate(147.74 -111.43)" fill-rule="evenodd">
   <path d="m617.66 478.84-52.115 1.125c-24.178 0-49.399 51.541-52.041 111.34s14.822 104.31 39 104.31l55.594-0.09375c24.178 0 45.951-48.541 48.594-108.34s-14.854-108.34-39.031-108.34z" fill="url(#ak)"/>
   <path d="m617.66 478.84-52.115 1.125c-24.178 0-49.399 51.541-52.041 111.34s14.822 104.31 39 104.31l55.594-0.09375c24.178 0 45.951-48.541 48.594-108.34s-14.854-108.34-39.031-108.34z" fill="url(#aj)" opacity=".14523"/>
   <path d="m617.66 478.84-52.115 1.125c-24.178 0-49.399 51.541-52.041 111.34s14.822 104.31 39 104.31l55.594-0.09375c24.178 0 45.951-48.541 48.594-108.34s-14.854-108.34-39.031-108.34z" fill="url(#ai)"/>
   <path d="m622.41 495.12c-0.79742-0.01252-1.5893 0.05465-2.4062 0.21875-18.848 3.7863-32.477 50.153-32.094 101.41 0.3797 50.788 12.819 87.813 30.094 83.625 19.096-4.6294 32.113-49.619 32.094-100.41 0.52392-48.406-11.473-84.589-27.688-84.844z" fill="url(#co)"/>
   <path d="m624.41 493.12c-0.79742-0.01252-1.5893 0.05465-2.4062 0.21875-18.848 3.7863-32.477 50.153-32.094 101.41 0.3797 50.788 12.819 87.813 30.094 83.625 19.096-4.6294 32.113-49.619 32.094-100.41 0.52392-48.406-11.473-84.589-27.688-84.844z" fill="url(#cn)"/>
   <path d="m632.25 508.88c5.7846-0.3625 8.75 13.536 8.75 27.75 0 1.9644-0.06146 3.8928-0.18662 5.759-6.7078 5.8354-13.362 12.573-18.727 16.473-0.38358-3.616 0.10783-10.185 0.16365-19.482 0.08496-14.15 1.5592-29.971 10-30.5z" fill="url(#cm)"/>
   <path d="m622.07 558.91 13.634-11.927 4.6616-0.89905-16.619 16.561c-0.71187-0.86258-1.2978-2.0401-1.6768-3.7348z" fill="url(#cl)"/>
   <path d="m632.25 508.88c-3.9852 0.24974-6.4087 3.9054-7.875 9.1875 5.3226-0.0265 1.7785 11.102 2.8438 11.188 5.3522 0.42983 9.2812 3.9771 9.2812 13.375 0 1.4268-0.23873 2.7903-0.65625 4.0938-0.40028 1.2496 1.7127 0.6142 3.8125 0l-15.844 15.844c1.6636 1.4986 3.6135 2.2992 5.6875 2.0625 6.572-0.75 10.25-8.03 11-16.25 0-0.63361-0.04343-1.2569-0.09375-1.875 0.00128-0.01007-0.00128-0.02118 0-0.03125 0.39128-3.0851 0.59375-6.3939 0.59375-9.8438 0-14.214-2.9654-28.112-8.75-27.75z" fill="url(#ck)"/>
   <path transform="matrix(.99849 0 0 1.1039 -4.891 -60.056)" d="m632 584.86a8.25 22 0 1 1 -16.5 0 8.25 22 0 1 1 16.5 0z" fill="url(#j)"/>
   <path d="m640.22 569c-4.1149 0.19662-7.5869 5.4053-9.4062 13.125 2.6496-3.3825 6.2757-6.9225 9.125-8.6562 2.2331-1.3588 2.6436 5.7852-5.125 8.2188 1.9044 5.1405 2.8593 29.374-1.5938 29.625-0.71601 0.04043-1.5668-1.1496-2.375-2.9062 1.7807 8.516 5.0998 14.25 9.0625 14.25 5.6532 0 10.062-11.617 10.062-26.438s-3.58-26.815-9.125-27.219c-0.20642-0.01505-0.42152-0.00972-0.625 0z" fill="url(#cj)"/>
   <path d="m621.59 613.56c-2.0224-0.01207-3.5423 1.8061-4.6562 4.8125 3.1394 4.3487 5.7537 14.992 8.5 20.594 5.9446 12.127-0.48325 19.024-10.156 17.594-0.30125-0.04454-0.61783-0.14672-0.9375-0.28125 0.81642 8.0979 3.1821 13.44 9.1562 14.094 4.313 0.47175 7.2813-8.405 8.5-28.5 1.1898-19.62-4.4214-27.391-9.875-28.25-0.18501-0.02914-0.35424-0.06144-0.53125-0.0625z" fill="url(#ci)"/>
   <path d="m603.06 583.19c-2.824-0.06974-5.8476 3.6872-8.1562 9.25 0.10488-0.06853 0.20757-0.16327 0.3125-0.21875 8.0242-4.2426 7.7812 13.307 7.7812 23.406 1e-5 6.6545-0.99343 17.457-2.9375 24.062 0.6828 0.32156 1.3913 0.48578 2.125 0.4375 6.9455-0.45703 11.149-8.989 9.0938-28.906-1.454-14.093-1.9737-27.877-8.2188-28.031z" fill="url(#ch)"/>
   <path d="m608.25 515.53c-0.2035 0.01479-0.41197 0.05137-0.625 0.09375-1.1427 0.22732-2.1711 1.0504-3.0938 2.3438 7.6774 0.37027 3.7147 13.981 3.0312 25.25-0.77137 12.719-2.5709 20.683-5.5312 23.062 1.625 3.4278 3.5397 5.6 5.25 6 4.0829 0.95488 9.0625-13.877 9.0625-29.469 0-15.105-1.7854-27.74-8.0938-27.281z" fill="url(#cg)"/>
   <path d="m640.47 573.31c-0.12378 0.02172-0.26668 0.07132-0.40625 0.15625-2.8493 1.7338-6.4754 5.2737-9.125 8.6562-0.99275 3.8452-1.5625 8.3306-1.5625 13.125 0 4.822 0.59038 9.2964 1.5938 13.156 0.80816 1.7566 1.659 2.9467 2.375 2.9062 4.453-0.25147 3.4981-24.484 1.5938-29.625 7.2831-2.2814 7.3879-8.7008 5.5312-8.375z" fill="url(#cf)"/>
   <path d="m616.94 618.38c-1.9084 5.1508-2.6753 13.852-2.9062 23.125-0.13779 5.5327-0.11673 10.524 0.3125 14.781 0.31967 0.13453 0.63625 0.23671 0.9375 0.28125 9.673 1.4303 16.101-5.4672 10.156-17.594-2.7463-5.6022-5.3606-16.245-8.5-20.594z" fill="url(#ce)"/>
   <path d="m597.25 591.56c-0.61391 0.03851-1.279 0.2585-2.0312 0.65625-0.10493 0.05548-0.20762 0.15022-0.3125 0.21875-2.2166 5.3409-3.75 12.358-3.75 19.312 0 12.574 3.6189 25.447 8.9062 27.938 1.9441-6.6052 2.9375-17.408 2.9375-24.062 0-9.1528 0.18449-24.435-5.75-24.062z" fill="url(#cd)"/>
   <path d="m604.53 517.97c-3.0837 4.3226-4.9817 14.023-5.9688 25.531-0.80484 9.3832 0.99031 17.553 3.4688 22.781 2.9604-2.3796 4.7599-10.344 5.5312-23.062 0.68346-11.269 4.6461-24.88-3.0312-25.25z" fill="url(#cc)"/>
   <path d="m615.5 527.78c-1.3236 2.8088-2.6256 8.5306-3.3125 15.125-0.97581 9.3678-0.35019 16.969 1.4062 16.969 0.31583 0 0.66426-0.26106 1-0.71875 1.0786-4.8211 1.75-10.534 1.75-16.344 0-5.5085-0.23608-10.695-0.84375-15.031z" fill="url(#cb)" opacity=".3"/>
   <path d="m607.75 609.12c-1.794 0-2.242 12.768-1 28.5 0.01614 0.2044 0.04595 0.39037 0.0625 0.59375 2.7145-2.3833 4.5111-7.0786 4.9062-14.469-1.2428-8.6868-2.7521-14.625-3.9688-14.625z" fill="url(#ca)" opacity=".3"/>
   <path d="m624.5 616.38c-3.3663 0-0.00226 8.9817 7.6562 21.688 0.16352-9.8669-1.5767-16.28-4.0625-20.062-1.5077-1.0618-2.7433-1.625-3.5938-1.625z" fill="url(#bz)" opacity=".4"/>
   <path d="m611 572.53c-0.81797 3.7717-1.3125 8.2255-1.3125 13.031 0 5.3676 0.59236 10.322 1.5938 14.344 2.1722-2.0717 3.7188-7.3309 3.7188-13.531 0-6.473-1.6767-11.982-4-13.844z" fill="url(#by)"/>
   <path d="m624.31 494.16c-11.895 2.7967-16.597 15.965-20.781 26.094-2.7262 8.177-4.8983 16.516-6.5312 24.969 1.5642-7.5983 3.5742-15.099 6.0312-22.469 4.1839-10.129 8.8862-23.297 20.781-26.094 8.4892-0.37873 13.234 8.6855 16.375 15.281 11.272 27.793 11.222 58.763 9.6562 88.406-0.91346 9.8404-1.9894 19.873-3.875 29.688 2.2028-10.608 3.3837-21.508 4.375-32.188 1.5658-29.643 1.6158-60.613-9.6562-88.406-3.1408-6.5958-7.8858-15.66-16.375-15.281z" fill="#fff"/>
  </g>
  <path d="m288.32 365.48-50.849-1.8594c-23.589-1.3449-48.379 44.875-51.17 99.986s14.09 97.208 37.679 98.553l54.24 3.0058c23.589 1.3449 45.004-42.295 47.795-97.405s-14.106-100.93-37.695-102.28z" fill="url(#ah)" fill-rule="evenodd"/>
  <path d="m677.24 210.42c-26.685-0.08052-55.899 0.48906-84.594 2.3438-91.378 5.9062-153.6 8.8988-299.09 94.562-98.006-0.30879-159.87 86.796-179.16 126-1.4411 20.985 0.95421 43.259 7.5938 66.938-0.18258 14.238 5.2622 23.967 9.5938 34.594 20.068 3.6596 39.443 5.9554 58.562 7.7188l6.4375-0.84376c77.187 8.2185 156.77 12.424 236.78 15.938l15.188 3.3438c39.861 1.1088 79.498 3.4011 118.41 1.875 63.525-2.4916 101.68-5.808 137.22-11.938 2.5843-0.44574 9.5312-20.812 9.5312-20.813 3.8223-51.366 20.868-181.81 57.594-183.25 33.839-1.3233 41.37 98.646 25.219 174.25 51.158-16.137 101.03-36.182 153.88-47.25 0 0 10.865-86.562 15.938-105.09 0.98274-3.5902 7.5043-26.903 14.188-29.719 10.358-4.3647 15.763-2.0041 13.938 57.969l3.4688 2.9375c-2.8516-26.879 7.0665-31.46-8.9688-74.781-10.638-28.739-28.914-39.687-33.094-40.344-13.026-2.0461-55.165-4.1114-65.469-4.5938-1.7699-3.277-5.7245-6.3785-10.844-8.0938-1.1217-0.37583-2.2424-0.66703-3.3438-0.875-36.784-31.712-71.268-54.366-91.531-57-2.1946-0.28533-48.731-3.6979-107.44-3.875z" fill="#fdca01" fill-rule="evenodd"/>
  <path d="m667.11 210.42c-23.861 0.08044-49.361 0.7209-74.469 2.3438-91.378 5.9062-153.6 8.8988-299.09 94.562-1.6368-0.00516-3.2584 0.01952-4.875 0.0625 4.796 0.31726 9.5386 0.63126 14.625 1.0938l23.531-1.7812c129.75-2.1506 262.27-9.8231 389.25-6.4375 11.177 0.713 20.017 0.45906 36.406 3.3438l86.969-41.25 36.531 8.75c-36.701-31.612-71.09-54.183-91.312-56.812-2.1946-0.28533-48.731-3.6979-107.44-3.875-3.3356-0.01006-6.7163-0.01149-10.125 0z" fill="url(#bx)" fill-rule="evenodd"/>
  <path d="m219.33 517.6c3.7779 6.3054 14.598 5.5682 23.406 6.8438 6.6326 2.9383 4.8869 2.973-1.6562 4.5938 63.962 4.2428 127.36 8.4759 190.38 12.719l6.2812 7.3125c-3.2829-7.9533-4.1498-14.469-2.7188-19.594l0.09375-0.0625c-71.927-2.7729-143.85-5.7596-215.78-11.812z" fill="url(#bw)" fill-rule="evenodd"/>
  <path d="m114.33 434.45c-1.2807 20.656 1.1353 42.556 7.6562 65.812-0.18258 14.238 5.2622 23.967 9.5938 34.594 20.068 3.6596 39.443 5.9554 58.562 7.7188l6.4375-0.84376c77.187 8.2185 156.77 12.424 236.78 15.938l15.188 3.3438c39.861 1.1088 79.498 3.4011 118.41 1.875 16.748-0.65691 31.687-1.3817 45.312-2.1875l5.375-19.406c-11.617-31.515-24.5-62.818-41.375-93.5l-0.6875 0.65625c-183.4 5.3645-380.97-1.6842-461.25-14zm23.406 81.5 68 0.5c76.667 6.8782 153.33 10.046 230 13l164-0.5c-13.386 12.944-28.801 15.745-43.375 22.75-122.25 0.28444-235-6.1344-357.25-16.5l-66.188-10.125 4.8125-9.125z" fill="url(#bv)" fill-rule="evenodd"/>
  <path d="m137.74 515.95-4.8125 9.125 66.188 10.125c122.25 10.366 235 16.784 357.25 16.5 14.574-7.0051 29.989-9.8058 43.375-22.75l-164 0.5-0.625-0.03125-0.09375 0.0625c-1.431 5.1249-0.56419 11.64 2.7188 19.594l-6.2812-7.3125c-63.02-4.2429-126.41-8.4759-190.38-12.719 6.5431-1.6207 8.2889-1.6555 1.6562-4.5938-8.8078-1.2755-19.628-0.53833-23.406-6.8438-4.5314-0.38133-9.0624-0.74971-13.594-1.1562l-68-0.5z" fill="url(#bu)" fill-rule="evenodd"/>
  <path d="m189.74 397.18c39.553-35.482 84.637-60.177 143-84.25" fill="none" opacity=".7" stroke="#986601"/>
  <path d="m683.66 300.51c-40.533 0.06669-83.445 4.7469-123.51 10.141l-232.69 3.125c-13.292-3.9208-25.462-5.5866-37.125-6.25-96.299 1.4217-157.12 87.159-176.22 125.97-0.02554 0.3718-0.03937 0.7524-0.0625 1.125 80.276 12.316 277.85 19.365 461.25 14 56.283-61.305 120.36-139.34 196.81-140-28.519-8.763-56.938-8.1619-88.463-8.1101z" fill="url(#ag)" fill-rule="evenodd"/>
  <path d="m188.74 397.43c38.317-35.07 82.901-60.182 142-84.5" fill="none" opacity=".5" stroke="url(#bt)"/>
  <path d="m163.3 414.93c105.64 9.6566 231.45 8.4323 348.24 6.5" fill="none" opacity=".86" stroke="url(#bs)"/>
  <path d="m750.24 303.37c6.784-24.26 15.587-81.175 37.614-81.1 26.181 0.08862 47.928 19.343 85.6 48.102-12.122 0.15935-42.952-10.656-52.672 6.8556-5.3841 9.7008-4.1179 23.494-3.679 34.325-9.3462 1.1089-27.012 4.748-30.494 2.6873-4.5746-2.7074-26.769-10.774-36.369-10.87z"/>
  <path d="m630.2 214.88c-62.515 0.70451-119.78 5.007-174.52 18.519-30.487 7.5264-98.689 41.181-153.36 71.075-11.729 6.3058 13.949 6.5707 21.062 8.6875 12.148 1.5979 33.555-0.30778 56-0.71875 54.01-0.98894 119.66-0.92641 176.62-0.625 59.449-11.539 104.12-11.245 165.5-11.062 8.9331-27.793 20.996-56.376 34-81.719-20.569-2.9674-41.529-4.0546-62.53-4.3759s-42.045 0.12331-62.782 0.21962z"/>
  <path d="m625.74 244.08h106.77l-9.8995 28.638-86.267 2.4749-10.607-31.113z" fill="url(#br)" fill-rule="evenodd" opacity=".8"/>
  <path d="m744.54 254.57c-1.486-0.06107-3.0657 0.31319-4.5 1.1875-12.087 0.34081-24.21 0.63791-36.094 3.1562-37.781 7.2649-73.667 21.59-110.44 32.531-4.4159 1.9487-12.211 2.8626-14.656 5.7188 6.5514-1.0444 9.8637 3.8305 15.219 6.4375 1.5449 0.61918 3.1255 1.1062 4.75 1.4688 9.5924 0.70554-12.216-3.0327-2.2812-5.1562 19.039-6.0563 38.135-11.932 57.125-18.156 22.349-7.8411 45.378-14.133 69-16.531 4.7391 0.41876 12.084-2.6254 15.25 0.90625-3.1262 11.505-7.5563 22.608-11.438 33.875l-27 1.0938c9.0168-0.03237 18.105 0.733 27.062-0.375 4.1723-7.5206 6.0234-16.095 9.75-23.844 1.6752-3.5343 6.0904-14.614 10.188-9.3438-4.8228 19.268-6.5402 26.322-6.5312 26.875 0.47011-0.51017 8.4698-29.113 10.594-30.188 2.2374-5.4819-1.5421-9.473-6-9.6562zm-191.97 50.219c-1.6895 0.09525-3.4543 0.13535-5 0.90625-0.96664 0.44547 0.02438 1.3879 0.5 1.8125 0.9928 0.77343 2.0828 1.557 2.6562 2.7188 0.43399 0.58342 0.0074 2.3386 1.1875 1.8438 1.2172-0.25523 2.4784 0.06973 3.6562 0.375 0.79052 0.23592 1.5773 0.47698 2.375 0.6875 0.8349 0.29055 1.7512 0.41134 2.5625-0.03125 2.751-1.1337 5.3431-2.629 7.8125-4.2812 0.58022-0.48649 1.4676-0.86997 1.6562-1.625-0.93145-0.35312-1.9071-0.56743-2.875-0.8125-4.7536-1.08-9.6533-1.6841-14.531-1.5938zm173.44 4.9375c-2.4023 0.24797-13.254 3.7985-18.625 5.6875-53.244 0.81933-107.08 4.5517-158.22 20.344-20.056 10.92-6.194-5.2326 2.3125-14.094 0.10473-9.4175-15.956 4.1942-17.469 9.5312-18.35 7.0246-40.719 5.4653-60.562 9.5312-95.798 16.663-193.8 26.754-285.16 62.125-17.23 6.0992-30.883 14.474-44.656 26.406-1.7026 1.9039 4.4531 1.394 3.3125 0.46875 4.3482-6.1896 38.594-13.695 26.531-13.688 10.366-7.6202 31.822-10.74 46.25-16.688 98.026-28.95 199.91-40.586 300.66-55.906 10.557 0.78248 14.443-11.218 22-16.469-1.4721 6.6813-24.418 33.202-30.375 49.781 9.8848-11.761 20.163-35.043 41.531-35.781 39.659-11.358 80.716-18.903 121.97-20.719 14.332-1.6979 29.855 1.5096 42.719-6.3438 7.647-3.3023 9.2226-4.3363 7.7812-4.1875zm12.188 2.1562c-4.4626 1.3044-7.8267 1.9145-15.031 4.375-3.7274 1.273-8.7027 3.5433-7.9688 5.0625 3.0075 0.58029 7.1385-2.4867 9-3.125 4.4006-1.2478 11.428-4.7795 14-6.3125z" fill="#fff"/>
  <path d="m188.39 467.04c84.522 8.974 229.65 13.08 256.92 5.8709l-1.5298 12.338c-81.139-2.079-162.21-4.0871-246.98-9.8047l-8.404-8.404z" fill="#fff" fill-rule="evenodd"/>
  <path d="m118.94 442.75c33.441 9.4922 80.426 22.822 91.119 32.354-0.24071 13.508-0.28143 27.321 0 41.268-4.3463 4.2573-8.4106 8.4441-14.444 13.123-23.831 0.28118-44.992-2.1085-64.872-5.7774-4.0983-6.7408-4.671-15.048-4.8696-23.522-6.3967-18.856-6.5221-38.161-6.9329-57.444z" fill="#666" fill-rule="evenodd"/>
  <path d="m713.27 531.38c-31.504 4.8518-63.402 8.1175-95.781 9.4688l0.15625 0.4375-5.375 19.406c38.065-2.2566 65.752-5.2389 91.906-9.75 2.3312-0.40208 7.964-16.312 9.0938-19.563zm-101.41 29.344c-1.0183 0.05999-2.0918 0.09715-3.125 0.15625v0.03125l3.125-0.1875z" fill="url(#bq)" fill-rule="evenodd"/>
  <path d="m118.94 442.75c33.441 9.4922 80.426 22.822 91.119 32.354-0.24071 13.508-0.28143 27.321 0 41.268-4.3463 4.2573-8.4106 8.4441-14.444 13.123-23.831 0.28118-44.992-2.1085-64.872-5.7774-4.0983-6.7408-4.671-15.048-4.8696-23.522-6.3967-18.856-6.5221-38.161-6.9329-57.444z" fill="url(#ap)" fill-rule="evenodd"/>
  <g transform="translate(147.74 -111.43)" fill-rule="evenodd">
   <path d="m274.64 590.14c0.998-3.985 141.45-24.395 147.77-21.71 3.6209 1.5379 31.209 67.418 30.581 71.201-0.33633 2.0259-30.997 17.24-41.32 17.625-10.004 0.37362-100.04-1.8031-105.05-2.101-12.416-0.73854-15.666-5.8887-18.909-14.123-1.8619-4.728-13.583-48.853-13.073-50.891z" fill="#666"/>
   <path d="m274.64 590.14c0.998-3.985 141.45-24.395 147.77-21.71 3.6209 1.5379 31.209 67.418 30.581 71.201-0.33633 2.0259-30.997 17.24-41.32 17.625-10.004 0.37362-100.04-1.8031-105.05-2.101-12.416-0.73854-15.666-5.8887-18.909-14.123-1.8619-4.728-13.583-48.853-13.073-50.891z" fill="url(#k)"/>
   <path d="m274.64 590.14c0.998-3.985 141.45-24.395 147.77-21.71 3.6209 1.5379 31.209 67.418 30.581 71.201-0.33633 2.0259-30.997 17.24-41.32 17.625-10.004 0.37362-100.04-1.8031-105.05-2.101-12.416-0.73854-15.666-5.8887-18.909-14.123-1.8619-4.728-13.583-48.853-13.073-50.891z" fill="url(#bp)"/>
   <path d="m421.09 568.25c-3.953 25.209-8.2254 49.14-8.5312 88.938 11.086-1.1438 40.11-15.592 40.438-17.562 0.62796-3.7825-26.973-69.65-30.594-71.188-0.23694-0.10064-0.7129-0.1497-1.3125-0.1875z" fill="url(#bo)" opacity=".6"/>
   <path d="m274.64 590.14c0.998-3.985 141.45-24.395 147.77-21.71 3.6209 1.5379 31.209 67.418 30.581 71.201-0.33633 2.0259-30.997 17.24-41.32 17.625-10.004 0.37362-100.04-1.8031-105.05-2.101-12.416-0.73854-15.666-5.8887-18.909-14.123-1.8619-4.728-13.583-48.853-13.073-50.891z" fill="url(#bn)"/>
  </g>
  <path d="m118.95 442.76c0.4108 19.284 0.50954 38.581 6.9062 57.438 0.1986 8.474 0.77669 16.79 4.875 23.531 19.881 3.669 41.044 6.0624 64.875 5.7812 0.70025-0.54309 1.3805-1.0943 2.0312-1.625-3.4928-19.543-3.9633-39.842-2.125-60.719-19.351-8.1655-51.685-17.345-76.562-24.406z" fill="url(#bm)" fill-rule="evenodd" opacity=".9"/>
  <path d="m118.94 442.75c33.441 9.4922 80.426 22.822 91.119 32.354-0.24071 13.508-0.28143 27.321 0 41.268-4.3463 4.2573-8.4106 8.4441-14.444 13.123-23.831 0.28118-44.992-2.1085-64.872-5.7774-4.0983-6.7408-4.671-15.048-4.8696-23.522-6.3967-18.856-6.5221-38.161-6.9329-57.444z" fill="url(#bl)" fill-rule="evenodd"/>
  <g transform="translate(147.74 -111.43)" fill-rule="evenodd">
   <path d="m69.628 438.31 6.6769 3.2805c-28.956 26.319-46.472 55.556-60.982 85.486l-34.554-4.803c24.418-33.123 51.698-62.978 88.859-83.964z"/>
   <path d="m69.628 438.31 6.6769 3.2805c-28.956 26.319-46.472 55.556-60.982 85.486l-34.554-4.803c24.418-33.123 51.698-62.978 88.859-83.964z" fill="url(#bk)"/>
   <path d="m72.781 439.88c-9.6114 5.1439-18.652 10.76-27.188 16.812-19.448 16.716-38.619 33.609-51.188 54.594l27.031 3.5938c13.376-25.654 29.865-50.548 54.875-73.281l-3.5312-1.7188z" fill="url(#bj)"/>
   <path d="m5.5116 500.13c-3.1224 5.4147-1.0874 9.5312 5.1562 9.5312 0.731 0 1.4707-0.0792 2.25-0.1875-0.46123-0.3269-0.87517-0.70706-1.25-1.1562-1.4907-1.7864-2.1402-4.5163-1.5625-8.1875h-4.5938zm5 0 0.625 0.09375c-0.56237 3.498 0.11363 5.8946 1.375 7.4062 0.57006 0.68316 1.2659 1.178 2.0625 1.5312 1.4308-0.31736 2.9016-0.77362 4.375-1.375-0.24263-0.16082-0.46984-0.34269-0.6875-0.53125-1.6567-1.4352-2.4491-3.7159-1.7812-6.7188l0.96875 0.21875c-0.61052 2.7451 0.07716 4.5445 1.4688 5.75 0.3479 0.30138 0.74845 0.55596 1.1875 0.78125 3.7944-1.7228 7.5001-4.2383 10.281-7.1562h-19.875z" fill="url(#bi)"/>
   <path d="m67.71 442.5c-1.1723 0.08388-2.4786-0.0366-3.5211 0.57608-4.9512 1.3248-6.445 3.5925-8.8113 5.6986-2.342 3.3177-2.8401 7.8648-1.2154 11.604 0.39644 0.94102 0.9097 1.8305 1.5176 2.6467 0.58801-0.99694 2.0707-1.9025 2.1036-2.9415-1.6548-2.9203-1.4807-6.7489 0.39323-9.5214 2.4212-3.7284 7.1368-5.4957 11.411-4.7959 0.96211 0.12908 1.9587 0.77152 2.5664-0.33678 0.42462-0.56013 1.6863-1.2618 1.5864-1.722-1.9068-0.79765-3.9679-1.2094-6.0301-1.2075z" fill="url(#bh)"/>
   <path d="m67.71 445.62c-4.1861-0.04767-8.4802 2.3043-10.25 6.2458-1.2409 2.6773-1.0508 5.958 0.47184 8.4788 4.251-4.9362 8.7329-9.6677 13.431-14.167-1.1801-0.3746-2.4172-0.55789-3.653-0.55776z" fill="url(#bg)"/>
   <path d="m60.156 448.56c-9.9128 3.0936-17.626 7.9101-22.25 14.688-8.4613 4.7021-13.424 12.984-12.875 25.438 3.2648-12.964 4.636-16.52 11.344-22.844-2.5008 4.6964-3.6944 10.203-3.3125 16.594 6.6525-19.494 8.6474-22.062 27.094-33.875zm-32.25 23c-5.5857 3.7782-8.9573 11.32-8.625 23.375 2.1183-13.454 2.7514-15.222 8.625-23.375z" fill="url(#bf)"/>
  </g>
  <path d="m320.99 394.81c5.8044-0.88615 11.309-0.64119 16.25 1.5-6.0523 8.0745-13.929 11.346-20.5 13 0.07607-4.1489-0.81352-8.7884 4.25-14.5z" stroke="url(#be)"/>
  <path d="m730.99 376.98c-0.61579 1.2944-1.2197 2.5904-1.8438 3.875l-126.06 38.156c-9.0552 9.8808-17.925 19.701-26.594 29.156 16.694 30.418 29.473 61.45 41 92.688 29.913-1.2483 59.402-4.1491 88.562-8.4062-0.63257-6.0986-1.0307-12.375-1.1875-18.781-0.93436-38.186 10.258-97.264 26.125-136.69z" fill="url(#af)" fill-rule="evenodd" opacity=".45"/>
  <path d="m602.95 419.59 128.69-39.952 9.5459 3.182" fill="none" opacity=".5" stroke="url(#bd)" stroke-linecap="round"/>
  <path d="m750.5 303.49c6.784-24.26 15.587-81.175 37.614-81.1 26.181 0.08862 47.928 19.343 85.6 48.102-12.122 0.15935-44.72-11.01-54.439 6.502-5.3841 9.7008-2.3501 23.848-1.9113 34.679-9.3462 1.1089-27.012 4.748-30.494 2.6873-4.5746-2.7074-26.769-10.774-36.369-10.87z"/>
  <path d="m767.18 308.42c-61.999 3.4944-115.79 57.157-163.91 109.66l126.06-38.156c10.992-22.63 19.942-43.254 44.553-47.726l-0.02145-21.586c-2.1493-0.94167-4.376-1.6595-6.6875-2.1875z" fill="url(#ae)" fill-rule="evenodd" opacity=".6805"/>
  <g transform="translate(147.93 -111.28)" fill-rule="evenodd">
   <path d="m548.01 501.88 35.002-11.314-3.8891 15.203-18.385 3.182-12.728-7.0711z" fill="#980101"/>
   <path d="m553 502.38c5.134 4.0654 10.761 5.2112 16.964 2.9481 8.0262 1.1021 9.0731-5.3525 10.192-11.729l-27.156 8.7812z" fill="url(#bc)"/>
  </g>
  <path d="m841.55 267.12c-9.3799 0.03241-18.029 2.2137-22.281 9.875-0.27728 0.49959-0.51833 1.0092-0.75 1.5312l-0.09375 0.21875c-0.21115 0.48494-0.41661 0.96658-0.59375 1.4688-0.02142 0.06172-0.04158 0.12553-0.0625 0.1875-0.19934 0.59031-0.37372 1.17-0.53125 1.7812s-0.28485 1.2455-0.40625 1.875c28.053 0.14391 61.662-1.7973 77.469 6.6562-0.5813-3.1692-2.0031-6.9034-3.5313-10.312-1.908-4.2566-6.6381-6.3119-11.031-8.0938-3.405-0.87538-5.3269-1.7172-6.125-1.8125h-0.125c-0.2263 5.6e-4 -0.4751-0.01879-0.7188-0.03125h-0.25c-7.0972-0.27072-19.579-3.3831-30.969-3.3438z" fill="url(#bb)" fill-rule="evenodd" opacity=".82573"/>
  <path d="m832.37 285.89c32.902-1.1815 13.532 14.539 59.375 9.0551-21.823 16.559-69.067-11.77-67.774 24.933-4.1345-40.644-8.0728-33.39 8.3988-33.988zm-9.9833-10.79c7.2324-4.7664 16.947-4.3135 25.206-3.4571 5.3244 0.5521 15.336 1.0906 20.708 1.37-9.4367 1.9282-20.928 0.94896-27.915 0.51418-6.2721-0.39024-12.065-0.6306-17.999 1.5728z" fill="#fff"/>
  <path d="m890.77 280.41c1.5282 3.4091 2.95 7.1433 3.5313 10.312l-0.125-0.0625c0.0296 0.30835 0.0259 0.61846 0.0312 0.9375-1.5336 16.381-31.876 12.887-62.5 15.5l-0.78125 21.75-20.031 6.3438 2.125 3.9062c98-25.319 119.35-51.165 146.87-52.5-1.702-0.94836-3.0366-1.467-3.8437-1.5938-12.532-1.9684-51.376-3.9225-63.531-4.5l-1.75-0.09375z" fill="url(#ad)" fill-rule="evenodd"/>
  <path d="m959.89 286.6c-27.527 1.3349-48.875 27.181-146.88 52.5l-2.125-3.9062c-8.4267-5.8473-15.602-8.847-18.469-9.875-3.2535 0.91456-6.8004 9.213-10.75 8.25 0.84693 0.43944 1.6653 0.92816 2.4688 1.4375 34.918 22.136 29.256 109.16 25.625 163.78l144.12-50.156c3.6167-27.076 9.3253-67.633 12.625-79.688 0.98281-3.5902 7.5043-26.903 14.188-29.719 10.358-4.3647 15.762-2.0041 13.938 57.969l3.4688 2.9375c-2.8517-26.879 7.0666-31.46-8.9688-74.781-8.5834-23.189-22.138-34.787-29.25-38.75zm2.375 40.719c-4.5632 1.8996-10.441 4.8014-15.219 5.8438-0.86 33.379-6.6745 59.469-18.469 84.875 12.385-32.744 12.238-57.196 15.469-83.812l-0.125 0.0625c0.0118-0.11429 0.01966-0.22937 0.03125-0.34375l-25.094 9c-1.2407 13.083-4.3628 26.184-6.875 38.844 1.8364-12.458 5.266-25.667 5-38.125l-1.4062 0.53125c-1.0523 15.369-4.3933 29.578-7.375 43.875 2.2782-14.19 6.0496-28.786 5.7812-43.188-1.2531 0.17631-2.4892 0.35316-3.7188 0.5625-0.159 0.02706-0.24779-2.6135-0.5-2.5625-0.2224 0.04492-0.61029 2.7878-0.75 2.8125-0.863 0.15247-1.3654 0.20975-2.2188 0.375-0.2279 0.04413-0.36644-1.7637-0.59375-1.7188-0.2617 0.05173-0.61399 1.9785-0.875 2.0312-11.187 2.2607-21.68 5.4037-33.094 6.75 10.926-3.5882 21.868-6.6378 33.125-10.469-0.32612-0.3216-1.6389-8.4276-0.8125-8.9062-0.19033 0.89592 1.8839 8.35 3.25 8.1562 17.856-5.5363 35.869-10.729 54.469-14.594zm-181.84 5.6562c0.37532 0.28443 0.75685 0.45477 1.125 0.5625-0.37267-0.19155-0.74379-0.38477-1.125-0.5625z" fill="url(#ac)" fill-rule="evenodd"/>
  <g transform="translate(147.74 -111.43)" fill-rule="evenodd">
   <path d="m796.69 444.9-22.139 8.4375c-2.7713 32.847-9.0273 60.038-19.148 80.042-9.3274 20.125-24.063 33.162-42.094 45.156l83.312-32.344-21.688 3-0.34375-4.9062c17.603-37.282 19.922-69.094 22.099-99.386z" fill="url(#ab)"/>
   <path d="m775.14 454.09 21.176-8.4393c-3.7599 30.981-2.9156 59.01-22.621 100.62l-18.707-12.096c10.346-20.098 17.344-46.797 20.152-80.086z"/>
  </g>
  <path d="m892.42 284.42c0.82725 2.1786 1.516 4.3552 1.875 6.3125l-0.125-0.0625c0.0296 0.30834 0.02595 0.61846 0.03125 0.9375-0.31446 3.359-1.8527 5.8696-4.3438 7.7812l10.438 3.1875c7.9473-5.0481 16.213-9.8111 25.938-13.438-10.542-2.012-21.94-3.5087-33.812-4.7188z" fill="url(#aa)" fill-rule="evenodd"/>
  <path d="m893.23 284.71c0.78776 2.0746 1.4436 4.1473 1.7855 6.0112l-0.11903-0.05952c0.02819 0.29363 0.02471 0.58894 0.02976 0.89275-0.07913 0.84518-0.23905 1.6439-0.47613 2.3807 5.1312 0.70858 10.293 1.4627 15.534 2.4997 4.8006-2.6835 9.8752-5.1544 15.445-7.2313-10.039-1.9159-20.892-3.3412-32.198-4.4935z" fill-rule="evenodd"/>
  <path d="m953.58 449.74c-51.029 18.604-103.06 34.513-153.81 53.875-0.94798 5.931-2.0307 11.792-3.25 17.5 51.158-16.137 101.03-36.182 153.88-47.25 0 0 1.3948-10.693 3.1875-24.125z" fill="url(#i)" fill-rule="evenodd"/>
  <path d="m917.45 466.43c-0.70448 0.01625-1.5264 0.22541-2.5 0.625-15.359 6.3037-32.51 8.4492-46.188 18.375-7.5934 5.5104-16.995 8.5423-23.906 14.875-11.729 10.747-36.58 14.136-48.312 20.594-0.01524 0.07158-0.01597 0.14721-0.03125 0.21875 22.112-6.975 43.993-14.666 65.969-22.062 3.4527-2.0818 6.8682-4.2267 9.9688-6.7812 4.8948-4.033 14.146-9.935 23.281-12.75 3.1624-0.97441 10.198-3.9209 12.812-1.0938 1.2852 1.3897 2.1308 3.294 2.4062 5.3125 11.662-3.3388 23.407-6.3955 35.312-9-1.8097-0.66555-3.7838-0.97223-5.875-0.78125-6.0328 0.55098-18.665 8.6824-19.031-0.96875-0.13039-3.4402-0.8535-6.6329-3.9062-6.5625z" fill="#fff" fill-rule="evenodd"/>
  <path d="m905.08 477.24c-3.1462 0.02017-7.1696 1.6113-9.3438 2.2812-9.1357 2.815-18.386 8.717-23.281 12.75-3.1074 2.5602-6.5395 4.6951-10 6.7812 16.069-5.4072 32.186-10.644 48.5-15.312-0.2755-2.0185-1.121-3.9228-2.4062-5.3125-0.81705-0.8835-2.0387-1.1967-3.4688-1.1875z" fill="url(#ba)" fill-rule="evenodd"/>
  <path d="m831.36 316.67-0.4375 12.188-0.46875 0.15625c1.7257 2.022 4.5799 3.5714 6.9688 7.4375 5.1091 8.2684 12.455 15.944 14.75 12.406 3.0417-4.6891-3.0235-19.288-5.5938-21.719-5.2631-4.9775-11.743-8.8913-15.219-10.469z" fill="url(#z)" fill-rule="evenodd"/>
  <path d="m817.24 311.7c-4.8885 0.58658-11.951 1.8133-18.125 2.5938 6.521 4.0852 14.038 7.9843 21.781 12.781-4.3714-5.8981-2.897-10.374-3.6562-15.375z" fill="url(#y)" fill-rule="evenodd"/>
  <path d="m770.24 307.85-0.53125 0.0625c22.221 9.5976 26.36 24.665 55.656 22.594-1.7598-1.3104-3.334-2.6271-4.8125-3.9375 0.11563 0.16638 0.21875 0.33134 0.34375 0.5-7.7432-4.797-15.26-8.6961-21.781-12.781-5.6759 0.71933-10.588 1.0464-12.25 0.0625-2.3222-1.3744-9.1743-4.1073-16.625-6.5z" fill="url(#x)" fill-rule="evenodd"/>
  <path d="m789.24 315.18c7.2822 5.3725 17.55 13.047 23.5 23.75 1.0315 32.909 1.6079 65.931 0 99.5" fill="none" opacity=".5" stroke="url(#n)" stroke-linecap="round"/>
  <path d="m781.86 316.49c5.7111 3.6278 11.813 8.2893 17.189 11.452-0.40008-4.7794-7.3472-7.0744-11.077-9.746-2.5854-2.1924-5.7616-3.8006-8.8262-4.2436l2.7142 2.538z" fill="#eee" fill-rule="evenodd"/>
  <path d="m774.14 332.79c-0.34356-5.9e-4 -0.68517 0.01495-1.0312 0.03125-1.3643 0.06425-2.7355 0.256-4.125 0.5625-0.01913 0.00565-0.04339-0.00567-0.0625 0-20.911 6.2057-29.375 25.495-39.594 46.531l-0.71875 0.21875c-2.9971 9.2037-4.8478 19.356-5.125 30.062-0.2476 9.5617 0.79355 18.769 2.8125 27.281 9.3338-46.466 23.926-89.77 45-90.594 23.38-0.91428 34.184 46.525 33.312 100.88 3.8517-11.692 6.253-25.229 6.625-39.594 0.04363-1.6848 0.04362-3.3445 0.03125-5-2.4704-29.009-9.1808-54.341-24.406-66.219-3.9453-2.6662-8.2196-4.1485-12.719-4.1562z" fill="url(#w)" fill-rule="evenodd"/>
  <path d="m775.89 346.7c-0.60533 0.02003-1.1984 0.08481-1.8125 0.1875-0.13542 0.02265-0.27115 0.06768-0.40625 0.09375 16.512 1.7495 26.259 28.752 29.625 64.625 2.2342 13.128 3.625 30.965 3.625 50.625 0 0.46357 0.00152 0.91348 0 1.375 1.2019-8.9364 1.8623-18.346 1.9062-27.844 0.23602-51.041-14.172-89.683-32.938-89.062z" fill="#fff" fill-rule="evenodd" opacity=".60996"/>
  <path d="m810.3 467.17c-2.237 13.97-4.1117 28.522-10.406 36.406 2.5466-0.97127 5.1034-1.9203 7.6562-2.875 1.348-9.9103 3.5726-21.403 2.75-33.531z" fill="url(#v)" fill-rule="evenodd"/>
  <path d="m812.42 427.26c0.40565 24.951-1.2662 50.621-2.6562 71.531l57.656-20.062c-5.8453-26.68-27.705-47.386-55-51.469z" fill="url(#u)" fill-rule="evenodd"/>
  <path d="m799.74 503.31c52.988-17.239 102.9-38.202 153.5-52.25" fill="url(#i)" fill-rule="evenodd" opacity=".7" stroke="#986601" stroke-linecap="round"/>
  <path d="m792.42274,325.32134c-2.64349.74308-5.47303,6.37356-8.5625,7.9375-.4753.24061-.95004.35879-1.4375.375-.24373.0081-.50315-.00231-.75-.0625 .84693.43944 1.66531.92816 2.46875,1.4375 .18681.11842.3761.25601.5625.40625 21.51732,14.27269 27.31233,53.58707 27.75,94.34375 1.59736-16.46312.57845-63.84152 1.78125-68.5625 2.1109-8.28527 1.75162-15.97993-.5625-22.28125-.22444.0582-.43101.12931-.65625.1875l-2.125-3.90625c-8.42673-5.84731-15.60166-8.84701-18.46875-9.875zm-12,7.65625c.37532.28443.75685.45477 1.125.5625-.37267-.19155-.74379-.38477-1.125-.5625z" fill="url(#t)" fill-rule="evenodd"/>
  <path d="m789.24 315.18c7.2822 5.3725 17.55 13.047 23.5 23.75 1.0315 32.909 1.6079 65.931 0 99.5" fill="none" opacity=".64315" stroke="url(#n)" stroke-linecap="round"/>
  <path d="m890.27 298.58 19.318 7.3536c5.0158 9.6508 9.6645 20.074 12.823 31.582" fill="none" opacity=".3" stroke="#fdca01"/>
  <path d="m985.3 323.82c-6.9702 0-13.6 13.457-18.125 34.094 3.7149-12.244 10.03-20.844 16.188-20.844 0.95515 0 1.8605 0.19853 2.7188 0.59375 3.2976 0.1264 5.7708 2.9274 7.2188 11.562 1.1256 4.535 1.5824 10.095 1.3125 16.188 0.27414 8.1592 0.24528 18.43-0.15625 31.625l3.4688 2.9375c-2.8516-26.879 7.0665-31.46-8.9688-74.781-0.00812-0.02193-0.02312-0.04059-0.03125-0.0625-1.1693-0.83783-2.3666-1.3125-3.625-1.3125zm-21.312 52.344c-0.46019 3.4146-0.86786 6.9118-1.2188 10.531 0.38783-2.2774 0.75782-4.3995 1.125-6.4062-0.00269-1.3428 0.01695-2.7213 0.09375-4.125z" fill="url(#s)" fill-rule="evenodd"/>
  <path d="m987.52 337.17c-0.44846-0.00138-0.92048 0.10716-1.4062 0.28125-0.19099 0.06845-0.37281 0.14084-0.5625 0.25 7.0081-0.29839 10.407 10.037 8.9062 59.344l0.46875 0.40625c0.6769-5.604 1.0625-11.919 1.0625-18.625 0.81019-22.384-1.7418-41.635-8.4688-41.656z" fill="#eee" fill-rule="evenodd" opacity=".7"/>
  <g transform="translate(147.74 -111.43)" fill-rule="evenodd">
   <path d="m503 437.86 56-5c-40.955 29.408-79.651 59.954-117 101l-80-0.5c41.866-33.7 84.728-67.038 141-95.5z"/>
   <path d="m559 432.88-56 5c-6.3478 3.2107-12.507 6.4842-18.531 9.8125l10.531-3.3125 42.906 3.9375c6.966-5.213 13.997-10.341 21.094-15.438z" fill="url(#az)"/>
   <path d="m523.12 441.41c-0.49116-0.00938-0.98436 0.01016-1.4688 0.03125-14.868 0.64733-20.32 7.2191-28.281 12.531-1.5632 3.9554 2.633 14.243 9.5625 21.875 12.187-10.151 24.553-19.764 37.125-29.125-5.3382-3.1592-11.34-5.2056-16.938-5.3125z" fill="url(#ay)"/>
   <path d="m500.15 466.75c-24.675 0.28754-44.347 16.443-43.365 28.941 0.38049 4.8435 4.0482 9.1282 9.9688 12.625 15.608-15.16 31.494-28.918 47.688-41.875-4.7291-1.3005-9.7733 0.25617-14.291 0.30882z" fill="url(#ax)"/>
   <path d="m509.5,467.09375c-3.03583.09232-6.21052.77599-9.34375.8125-3.02179.03522-5.94162.3281-8.78125.8125 4.0545.99769 7.52534,3.49416 10.0625,6.875 3.39177-2.83507 6.79954-5.61803 10.21875-8.375-.28676-.02236-.55243-.11629-.84375-.125-.42974-.01285-.88315-.01306-1.3125,0z" fill="url(#aw)"/>
   <path d="m487.38 469.34c-7.493 0-13.847 5.3-16.188 12.688 2.3708-5.3309 7.9123-9.0625 14.375-9.0625 5.3953-1e-5 10.16 2.6022 12.969 6.5625 0.91616-0.77591 1.8318-1.543 2.75-2.3125-3.1158-4.7641-8.1764-7.875-13.906-7.875z"/>
   <path d="m470.5 491.62c0.57026 3.5088 2.0325 6.6673 4.0938 9.2188l1.4062-1.3125c-2.6505-1.9718-4.6139-4.7192-5.5-7.9062z" fill="#666"/>
   <path d="m483.97 474.66c-6.2208 0-11.281 5.0155-11.281 11.188 0 4.6534 2.8904 8.6296 6.9688 10.312 5.0096-4.587 10.057-9.0508 15.125-13.406-1.35-4.6742-5.6694-8.0938-10.812-8.0938z" fill="#1a1a1a"/>
   <path d="m485.56 474.12c-6.015 0-11.133 3.4748-13.312 8.375-0.27741 0.51014-0.88857 0.73752-1.432 0.53277s-0.85252-0.77892-0.72429-1.3453c0.81178-2.5623 2.182-4.7707 3.8125-6.75-1.5148 0.85268-3.0424 1.7034-4.375 2.6562-7.6799 5.4915-12.034 12.395-11.594 18 0.3231 4.113 3.4308 7.9312 8.6875 11.219 9.967-9.6497 20.052-18.705 30.25-27.375-2.642-3.1796-6.6849-5.3125-11.312-5.3125z" fill="url(#av)"/>
   <path d="m486.19 473.16c-4.2432-0.00896-8.4187 2.1531-11.219 5.7812 3.1991-3.3062 8.3075-4.5622 13.094-2.8125 3.2465 1.1868 5.7086 3.5245 7.0625 6.3438 0.78378-0.67269 1.5585-1.3635 2.3438-2.0312-1.4439-2.9626-3.8704-5.3331-7.0625-6.5-1.3873-0.50716-2.8044-0.77826-4.2188-0.78125z" fill="#eee"/>
   <path d="m474.03 480.59c-2.6328 3.4071-3.6098 7.7389-2.5938 11.594 0.33869 1.285 0.89696 2.5157 1.6875 3.6562 0.91792 1.3243 2.0706 2.4011 3.375 3.2188 0.76315-0.70866 1.5168-1.4224 2.2812-2.125-1.6206-0.86361-3.0857-2.1153-4.2188-3.75-2.7274-3.935-2.7766-8.9004-0.53125-12.594z" fill="#eee"/>
   <path d="m523.09375,443c-.42899-.00819-.89481.01034-1.375.03125-14.04272.6114-19.06453,6.46156-26.875,11.8125-.34239,1.23861.02338,4.39158 1.59375,8.0625 .22751.53183.48065,1.07875.75,1.625l30.34375-20.96875c-1.4974-.31987-2.99096-.53488-4.4375-.5625z" fill="url(#au)"/>
   <path d="m524.59 443.69c-6.3866 0-11.438 5.8222-11.438 12.75 0 3.3115 1.1817 6.3155 3.0625 8.5938 3.3254-2.6454 6.6466-5.2561 10-7.8438l0.0625-5.5938 5.5312-2.2188c0.441-0.17556 0.77469-0.56731 0.875-1.0312s-0.04591-0.93919-0.375-1.2812c-2.0053-2.0561-4.7287-3.375-7.7188-3.375z" fill="url(#at)"/>
   <path d="m524.59 445.12c-5.5133 0-10 5.0673-10 11.312 0 2.9894 1.0421 5.6957 2.7188 7.7188 2.4835-1.9687 4.9697-3.9073 7.4688-5.8438l0.0625-7.6875 6.4375-2.5625c-1.7722-1.8171-4.1106-2.9375-6.6875-2.9375z" fill="#980101"/>
   <path d="m482.02687,477.67538c-3.70675,1.10477-6.75059,4.80011-6.76617,8.21438-.0117,2.55274 1.65474,4.26978 4.06056,4.49766 .28997.03156.63097-.15317.82081-.44467s.17775-.61179-.02908-.771c-.79869-.62441-1.27598-1.60642-1.27035-2.8374 .01249-2.73627 2.42371-5.66353 5.39435-6.54892 .76531-.22809 1.47966-.3063 2.12835-.24033 .28999.03155.63099-.15318.82082-.44469s.17776-.61179-.02909-.77098c-1.22896-.97161-3.08112-1.26477-5.1302-.65405z" fill="url(#r)"/>
   <path d="m523.10936,446.78415c-3.32595.80119-6.26326,4.04511-6.52934,7.21094-.19897,2.36699 1.13259,4.06004 3.22139,4.41645 .25147.04675.56357-.10403.75127-.36294s.20081-.55673.03156-.71688c-.65286-.62729-.998-1.5669-.90206-2.7083 .21326-2.53716 2.54007-5.10684 5.20554-5.74894 .68669-.16541 1.31769-.19487 1.88057-.09458 .25148.04675.56357-.10403.75129-.36295s.2008-.55672.03155-.71687c-1.0038-.97527-2.6032-1.35884-4.44177-.91593z" fill="url(#q)"/>
   <path d="m525.34 441.5 0.28125 0.09375c4.8556 0.56263 9.8847 2.4306 14.438 5.125l3.0312-2.25c-2.5448-1.2184-12.448-3.2031-17.75-2.9688z" fill="#fff"/>
   <path d="m399.52 516.73 59.397-2.8284" fill="#fff" stroke="url(#p)" stroke-linecap="round"/>
  </g>
  <path d="m494.67 294.7c-13.353 1.0295-26.716 1.9498-40.059 3.1052 0.11964 3.9685 7.5926 0.41868 10.629 1.1102l20.992-1.5903c-1.6004 1.5138-6.6893 4.3723-6.1268 5.0589 30.353-2.7497 60.784 0.40749 91.064 2.5661 1.6874-3.8195-6.5646-1.6933-8.9507-2.6573-25.392-1.905-50.898-3.9436-76.362-2.2177 3.2915-3.8945 8.346-3.3651 12.922-3.3114 27.242 0.72702 54.49 1.2678 81.734 1.9364 5.9136 2.6389 11.736 5.4823 17.706 7.9944 2.2256-3.3307-6.2019-3.9366-8.2618-5.9008-4.8352-2.3746-9.6986-4.9383-15.247-4.2341l-80.04-1.8594z" fill="url(#as)" fill-rule="evenodd" opacity=".6"/>
  <path d="m352.27 296.48c-0.30543 1.0884 5.4697 0.35638 7.4734 0.90051 4.8354 0.08866 11.766-2.8334 11.294 5.6431 0.40569 3.5885-0.50615 8.5983 4.6412 7.2712 11.777 0.5372 23.545 1.5124 35.329 1.7146 7.0872-0.07602 14.175-0.13586 21.262-0.1857-5.8153-1.4755-12.192-0.77319-18.228-1.447-9.4952-2.1881-19.212-3.9624-28.793-5.9976-2.5417 0.17172-7.8234-3.1608-8.5695-0.13065-7.9824 5.391 15.92 2.863 23.572 5.3721l-26.731-1.4531c-1.0799-3.4544 0.65068-9.9443-2.3242-11.36-6.309-0.08476-12.617-0.23152-18.926-0.32766zm-2.6562 4.2188c-13.667 0.12077-27.333 0.25423-41 0.375-5.3693 2.495 2.9871 2.0816 5.1575 1.9258 12.083-0.12393 24.168-0.12102 36.249-0.39452 1.0093-0.32921 0.63614-1.998-0.40625-1.9062z" fill="url(#ar)" fill-rule="evenodd" opacity=".6"/>
  <path d="m676.02 280.57c-5.0647 0.1097-10.45 0.65928-16.031 1.6875-19.018 3.5036-35.742 11.738-45.344 21.281 32.065-2.8411 62.937-2.9156 99.281-2.8125 0.00108-0.07369 0-0.14513 0-0.21875 0-12.632-15.959-20.413-37.906-19.938z" fill="url(#aq)" fill-rule="evenodd" opacity=".8"/>
 </g>
</svg>
