<?xml version="1.0" encoding="UTF-8"?>
<svg viewBox="0 0 1024 400" xmlns="http://www.w3.org/2000/svg" xmlns:xlink="http://www.w3.org/1999/xlink">
 <defs>
  <linearGradient id="o">
   <stop stop-color="#252b41" offset="0"/>
   <stop stop-color="#252b41" stop-opacity="0" offset="1"/>
  </linearGradient>
  <linearGradient id="g">
   <stop offset="0"/>
   <stop stop-color="#1e1d2e" offset="1"/>
  </linearGradient>
  <linearGradient id="e">
   <stop stop-color="#fff" offset="0"/>
   <stop stop-color="#03070b" stop-opacity=".65482" offset="1"/>
  </linearGradient>
  <linearGradient id="d">
   <stop stop-color="#1b2c3c" offset="0"/>
   <stop stop-color="#dfe8f1" offset="1"/>
  </linearGradient>
  <linearGradient id="m">
   <stop stop-color="#fff" offset="0"/>
   <stop stop-color="#a3701c" offset=".21875"/>
   <stop stop-color="#582d00" offset="1"/>
  </linearGradient>
  <linearGradient id="l">
   <stop stop-color="#aaa" offset="0"/>
   <stop stop-color="#aaa" stop-opacity="0" offset="1"/>
  </linearGradient>
  <linearGradient id="a">
   <stop stop-color="#eee" offset="0"/>
   <stop stop-color="#eee" stop-opacity="0" offset="1"/>
  </linearGradient>
  <linearGradient id="b">
   <stop offset="0"/>
   <stop stop-opacity="0" offset="1"/>
  </linearGradient>
  <linearGradient id="f">
   <stop stop-color="#888" offset="0"/>
   <stop stop-color="#fff" offset="1"/>
  </linearGradient>
  <linearGradient id="c">
   <stop stop-color="#410e0e" offset="0"/>
   <stop stop-color="#100303" stop-opacity="0" offset="1"/>
  </linearGradient>
  <linearGradient id="bp" x1="577" x2="562.86" y1="482.08" y2="512.13" gradientUnits="userSpaceOnUse">
   <stop stop-color="#fd3301" offset="0"/>
   <stop stop-color="#fd3301" stop-opacity="0" offset="1"/>
  </linearGradient>
  <linearGradient id="n" x1="690.95" x2="711.89" gradientUnits="userSpaceOnUse">
   <stop stop-color="#fff" stop-opacity="0" offset="0"/>
   <stop stop-color="#fdca01" offset="1"/>
  </linearGradient>
  <linearGradient id="df" x1="1099.1" x2="993.03" y1="528.76" y2="879.24" gradientUnits="userSpaceOnUse" xlink:href="#d" spreadMethod="reflect"/>
  <linearGradient id="de" x1="1059.3" x2="1068.1" y1="539.87" y2="527.14" gradientUnits="userSpaceOnUse" xlink:href="#b"/>
  <linearGradient id="dd" x1="1048.8" x2="1070.5" y1="564.97" y2="546.08" gradientUnits="userSpaceOnUse" xlink:href="#a"/>
  <linearGradient id="dc" x1="1067.4" x2="1066.3" y1="522.03" y2="564.67" gradientUnits="userSpaceOnUse" xlink:href="#e"/>
  <linearGradient id="db" x1="1071.7" x2="1062.1" y1="584.26" y2="622.66" gradientUnits="userSpaceOnUse" xlink:href="#e"/>
  <linearGradient id="da" x1="1058.5" x2="1054.6" y1="643.59" y2="674.8" gradientUnits="userSpaceOnUse" xlink:href="#e"/>
  <linearGradient id="cz" x1="1038.7" x2="1026.2" y1="611.66" y2="640.13" gradientUnits="userSpaceOnUse" xlink:href="#e"/>
  <linearGradient id="cy" x1="1033.4" x2="1023" y1="543.92" y2="572.33" gradientUnits="userSpaceOnUse" xlink:href="#e"/>
  <linearGradient id="cx" x1="1060.7" x2="1072.8" y1="611.31" y2="573.3" gradientUnits="userSpaceOnUse" xlink:href="#b"/>
  <linearGradient id="cw" x1="1045.3" x2="1065" y1="647.56" y2="618.38" gradientUnits="userSpaceOnUse" xlink:href="#b"/>
  <linearGradient id="cv" x1="1031.7" x2="1023.8" y1="610.96" y2="591.56" gradientUnits="userSpaceOnUse" xlink:href="#b"/>
  <linearGradient id="cu" x1="1037.6" x2="1032.1" y1="545.46" y2="569.36" gradientUnits="userSpaceOnUse" xlink:href="#b"/>
  <linearGradient id="ct" x1="1041.6" x2="1054.7" y1="547.36" y2="545.77" gradientUnits="userSpaceOnUse" xlink:href="#d"/>
  <linearGradient id="cs" x1="1037.4" x2="1057.6" y1="613.67" y2="668.42" gradientUnits="userSpaceOnUse" xlink:href="#d"/>
  <linearGradient id="cr" x1="1054.5" x2="1071.5" y1="627.22" y2="638.06" gradientUnits="userSpaceOnUse" xlink:href="#d"/>
  <linearGradient id="cq" x1="1030.4" x2="1073.3" y1="599.91" y2="572.53" gradientUnits="userSpaceOnUse" xlink:href="#d"/>
  <linearGradient id="cp" x1="609.35" x2="638.58" y1="652.86" y2="545.44" gradientUnits="userSpaceOnUse" xlink:href="#d" spreadMethod="reflect"/>
  <linearGradient id="co" x1="621" x2="529.11" y1="585.91" y2="660.17" gradientUnits="userSpaceOnUse" xlink:href="#d" spreadMethod="reflect"/>
  <linearGradient id="cn" x1="627.95" x2="636.76" y1="539.87" y2="527.14" gradientUnits="userSpaceOnUse" xlink:href="#b"/>
  <linearGradient id="cm" x1="617.48" x2="639.13" y1="564.97" y2="546.08" gradientUnits="userSpaceOnUse" xlink:href="#a"/>
  <linearGradient id="cl" x1="636.04" x2="634.98" y1="522.03" y2="564.67" gradientUnits="userSpaceOnUse" xlink:href="#e"/>
  <linearGradient id="ck" x1="640.39" x2="630.81" y1="584.26" y2="622.66" gradientUnits="userSpaceOnUse" xlink:href="#e"/>
  <linearGradient id="cj" x1="627.19" x2="623.25" y1="643.59" y2="674.8" gradientUnits="userSpaceOnUse" xlink:href="#e"/>
  <linearGradient id="ci" x1="607.39" x2="594.91" y1="611.66" y2="640.13" gradientUnits="userSpaceOnUse" xlink:href="#e"/>
  <linearGradient id="ch" x1="602.03" x2="591.7" y1="543.92" y2="572.33" gradientUnits="userSpaceOnUse" xlink:href="#e"/>
  <linearGradient id="cg" x1="629.38" x2="641.48" y1="611.31" y2="573.3" gradientUnits="userSpaceOnUse" xlink:href="#b"/>
  <linearGradient id="cf" x1="613.96" x2="633.67" y1="647.56" y2="618.38" gradientUnits="userSpaceOnUse" xlink:href="#b"/>
  <linearGradient id="ce" x1="600.35" x2="592.51" y1="610.96" y2="591.56" gradientUnits="userSpaceOnUse" xlink:href="#b"/>
  <linearGradient id="cd" x1="606.29" x2="600.72" y1="545.46" y2="569.36" gradientUnits="userSpaceOnUse" xlink:href="#b"/>
  <linearGradient id="cc" x1="610.31" x2="623.41" y1="547.36" y2="545.77" gradientUnits="userSpaceOnUse" xlink:href="#d"/>
  <linearGradient id="cb" x1="606.05" x2="626.22" y1="613.67" y2="668.42" gradientUnits="userSpaceOnUse" xlink:href="#d"/>
  <linearGradient id="ca" x1="623.2" x2="640.17" y1="627.22" y2="638.06" gradientUnits="userSpaceOnUse" xlink:href="#d"/>
  <linearGradient id="bz" x1="599.1" x2="642" y1="599.91" y2="572.53" gradientUnits="userSpaceOnUse" xlink:href="#d"/>
  <linearGradient id="by" x1="391.63" x2="350.01" y1="525.75" y2="657.3" gradientUnits="userSpaceOnUse" xlink:href="#b"/>
  <linearGradient id="bx" x1="370.79" x2="432.79" y1="733.72" y2="568.25" gradientUnits="userSpaceOnUse" xlink:href="#a"/>
  <linearGradient id="bw" x1="356.13" x2="357.01" y1="657.3" y2="638.3" gradientUnits="userSpaceOnUse" xlink:href="#b"/>
  <linearGradient id="bv" x1="50.772" x2="71.355" y1="420.28" y2="470.67" gradientUnits="userSpaceOnUse" xlink:href="#a"/>
  <linearGradient id="bu" x1="-2.7931" x2="-.5215" y1="515" y2="491.46" gradientUnits="userSpaceOnUse" xlink:href="#l"/>
  <linearGradient id="bt" x2="0" y1="509.65" y2="500.11" gradientUnits="userSpaceOnUse" xlink:href="#a"/>
  <linearGradient id="bs" x1="41.055" x2="63.48" y1="431.75" y2="457.52" gradientUnits="userSpaceOnUse" xlink:href="#a"/>
  <linearGradient id="br" x1="52.458" x2="65.613" y1="473.52" y2="449.11" gradientUnits="userSpaceOnUse" xlink:href="#a"/>
  <linearGradient id="bq" x1="41.741" x2="64.108" y1="420.98" y2="452.07" gradientTransform="matrix(1.2602 -.54079 -.070165 1.0859 -3.803 9.3962)" gradientUnits="userSpaceOnUse" xlink:href="#a"/>
  <linearGradient id="bo" x1="527.97" x2="524.5" y1="440.59" y2="457.09" gradientUnits="userSpaceOnUse" xlink:href="#l"/>
  <linearGradient id="bn" x1="494.36" x2="503.73" y1="449.44" y2="461.89" gradientUnits="userSpaceOnUse" xlink:href="#f" spreadMethod="reflect"/>
  <linearGradient id="bm" x1="470.5" x2="479.86" y1="474.01" y2="485.41" gradientUnits="userSpaceOnUse" xlink:href="#f" spreadMethod="reflect"/>
  <linearGradient id="bl" x1="490.31" x2="491.38" y1="465.17" y2="473.16" gradientUnits="userSpaceOnUse" xlink:href="#b"/>
  <linearGradient id="bk" x1="463.08" x2="473.85" y1="474.12" y2="481.29" gradientUnits="userSpaceOnUse" xlink:href="#b"/>
  <linearGradient id="bj" x1="502.48" x2="511.13" y1="440.05" y2="455.03" gradientUnits="userSpaceOnUse" xlink:href="#b"/>
  <linearGradient id="bi" x1="516.01" x2="529.98" y1="457.51" y2="450.26" gradientUnits="userSpaceOnUse" xlink:href="#f"/>
  <linearGradient id="bh" x1="579.32" x2="610.92" y1="119.64" y2="91.611" gradientUnits="userSpaceOnUse" xlink:href="#o"/>
  <linearGradient id="bg" x1="347.97" x2="348.69" y1="120.44" y2="111.07" gradientUnits="userSpaceOnUse" xlink:href="#d"/>
  <linearGradient id="bf" x1="460.87" x2="463.23" y1="123.73" y2="86.958" gradientUnits="userSpaceOnUse" xlink:href="#d"/>
  <linearGradient id="be" x1="777.51" x2="771.41" y1="286.4" y2="250.68" gradientUnits="userSpaceOnUse" xlink:href="#a"/>
  <linearGradient id="bd" x1="738.22" x2="736.98" y1="73.299" y2="108.25" gradientUnits="userSpaceOnUse" xlink:href="#c"/>
  <linearGradient id="bc" x1="558.9" x2="748.91" y1="219.24" y2="149.92" gradientUnits="userSpaceOnUse" xlink:href="#m"/>
  <linearGradient id="bb" x1="303.49" x2="319.71" gradientUnits="userSpaceOnUse" xlink:href="#f"/>
  <linearGradient id="ba" x1="183.46" x2="187.06" y1="296.09" y2="274.17" gradientUnits="userSpaceOnUse" xlink:href="#b"/>
  <linearGradient id="az" x1="162.49" x2="159" y1="320.87" y2="260.47" gradientUnits="userSpaceOnUse" xlink:href="#a"/>
  <linearGradient id="ay" x1="606.73" x2="599" y1="287.17" y2="335.32" gradientUnits="userSpaceOnUse" xlink:href="#a"/>
  <linearGradient id="ax" x1="600.92" x2="596.95" y1="90.495" y2="55.883" gradientUnits="userSpaceOnUse" xlink:href="#o"/>
  <linearGradient id="aw" x1="176.85" x2="463.69" gradientUnits="userSpaceOnUse" xlink:href="#m"/>
  <linearGradient id="av" x1="182.35" x2="339.87" y1="175.27" y2="89.605" gradientUnits="userSpaceOnUse" xlink:href="#a"/>
  <linearGradient id="au" x1="312.88" x2="313.72" y1="307.32" y2="284.95" gradientUnits="userSpaceOnUse" xlink:href="#c"/>
  <linearGradient id="at" x1="308.2" x2="327.17" y1="361.45" y2="218.01" gradientUnits="userSpaceOnUse" xlink:href="#a"/>
  <linearGradient id="as" x1="278.38" x2="280.04" y1="267.08" y2="312.15" gradientUnits="userSpaceOnUse" xlink:href="#c"/>
  <linearGradient id="ar" x1="754.96" x2="696.36" y1="22.501" y2="166.29" gradientUnits="userSpaceOnUse" xlink:href="#c"/>
  <pattern id="ao" width="17.5" height="13" patternTransform="translate(308.75 855.34)" patternUnits="userSpaceOnUse">
   <path d="m6.6667 9.6667c0-1.84-1.4934-3.3333-3.3333-3.3333s-3.3333 1.4933-3.3333 3.3333 1.4933 3.3333 3.3333 3.3333 3.3333-1.4933 3.3333-3.3333z" fill-rule="evenodd"/>
   <path d="m14 9.6667c0-1.84-1.4934-3.3333-3.3333-3.3333s-3.3334 1.4933-3.3333 3.3333 1.4933 3.3333 3.3333 3.3333 3.3333-1.4933 3.3333-3.3333z" fill-rule="evenodd"/>
   <path d="m10.167 3.3333c0-1.84-1.4934-3.3333-3.3333-3.3333s-3.3333 1.4933-3.3333 3.3333 1.4933 3.3333 3.3333 3.3333 3.3333-1.4933 3.3333-3.3333z" fill-rule="evenodd"/>
   <path d="m17.5 3.3333c0-1.84-1.4934-3.3333-3.3333-3.3333s-3.3334 1.4933-3.3333 3.3333 1.4933 3.3333 3.3333 3.3333 3.3333-1.4933 3.3333-3.3333z" fill-rule="evenodd"/>
  </pattern>
  <pattern id="ap" xlink:href="#aq" patternTransform="matrix(.49815 0 0 .49815 418.06 472.18)"/>
  <pattern id="aq" xlink:href="#k" patternTransform="matrix(.60653 0 0 .60653 456.49 743.92)"/>
  <pattern id="k" xlink:href="#ao" patternTransform="matrix(.60653 0 0 .60653 308.75 855.34)"/>
  <radialGradient id="j" cx="540.56" cy="440.62" r="424.05" gradientTransform="matrix(1 0 0 .48562 0 226.65)" gradientUnits="userSpaceOnUse">
   <stop offset="0"/>
   <stop stop-opacity=".49804" offset=".69531"/>
   <stop stop-opacity="0" offset="1"/>
  </radialGradient>
  <radialGradient id="an" cx="621.83" cy="590.57" r="71.858" gradientTransform="matrix(.72473 4.7749e-7 -9.2254e-7 1.4002 607.01 -234.04)" gradientUnits="userSpaceOnUse" xlink:href="#g" spreadMethod="reflect"/>
  <radialGradient id="am" cx="632.27" cy="608.5" r="71.858" gradientTransform="matrix(.49031 .012063 -.019763 .80327 779.59 102.59)" gradientUnits="userSpaceOnUse" xlink:href="#a" spreadMethod="reflect"/>
  <radialGradient id="al" cx="627.11" cy="603.69" r="71.858" gradientTransform="matrix(.85686 0 1.7021e-6 1.6555 524.14 -388.15)" gradientUnits="userSpaceOnUse" xlink:href="#b" spreadMethod="reflect"/>
  <radialGradient id="i" cx="624.91" cy="583.85" r="8.25" gradientTransform="matrix(11.672 0 0 10.017 -6665.7 -5267.5)" gradientUnits="userSpaceOnUse" xlink:href="#e"/>
  <radialGradient id="ak" cx="621.83" cy="590.57" r="71.858" gradientTransform="matrix(.72473 4.7749e-7 -9.2254e-7 1.4002 175.67 -234.04)" gradientUnits="userSpaceOnUse" xlink:href="#g" spreadMethod="reflect"/>
  <radialGradient id="aj" cx="632.27" cy="608.5" r="71.858" gradientTransform="matrix(.49031 .012063 -.019763 .80327 348.25 102.59)" gradientUnits="userSpaceOnUse" xlink:href="#a" spreadMethod="reflect"/>
  <radialGradient id="ai" cx="627.11" cy="603.69" r="71.858" gradientTransform="matrix(.72473 4.7749e-7 -9.2254e-7 1.4002 175.67 -234.04)" gradientUnits="userSpaceOnUse" xlink:href="#b" spreadMethod="reflect"/>
  <radialGradient id="ah" cx="740.1" cy="545.55" r="41.69" gradientTransform="matrix(2.9001 0 0 4.6481 -1417.3 -1993.7)" gradientUnits="userSpaceOnUse" xlink:href="#c"/>
  <radialGradient id="ag" cx="498.18" cy="456.27" r="5.5547" gradientTransform="matrix(3.5471 0 .84321 3.8858 -1683.1 -1299.1)" gradientUnits="userSpaceOnUse" xlink:href="#a"/>
  <radialGradient id="af" cx="512.22" cy="446.96" r="5.5547" gradientTransform="matrix(2.9095 0 0 3.0953 -978.07 -936.85)" gradientUnits="userSpaceOnUse" xlink:href="#a"/>
  <radialGradient id="ae" cx="429.21" cy="515.31" r="29.948" gradientTransform="matrix(1.5498 0 0 .086121 -235.98 470.93)" gradientUnits="userSpaceOnUse" xlink:href="#a"/>
  <radialGradient id="ad" cx="692.58" cy="414.13" r="109.08" gradientTransform="matrix(.22353 -5.5451e-8 6.9546e-8 .73137 703.1 -175.73)" gradientUnits="userSpaceOnUse" xlink:href="#c"/>
  <radialGradient id="ac" cx="672.33" cy="444.14" r="11.276" gradientTransform="matrix(-1.5154 .3768 -.97033 -3.9024 2138.8 1637.1)" gradientUnits="userSpaceOnUse" xlink:href="#c"/>
  <radialGradient id="h" cx="735.36" cy="662.38" r="78.531" gradientTransform="matrix(2.1804 -.5902 .12406 .45834 -917.07 414.35)" gradientUnits="userSpaceOnUse" xlink:href="#a"/>
  <radialGradient id="ab" cx="677.77" cy="596.82" r="78.531" gradientTransform="matrix(1.1886 -.4357 .10068 .27465 -189.99 417.58)" gradientUnits="userSpaceOnUse" xlink:href="#a"/>
  <radialGradient id="aa" cx="731.87" cy="603.62" r="78.531" gradientTransform="matrix(.73465 -.21674 .13436 .45542 73.951 158.51)" gradientUnits="userSpaceOnUse" xlink:href="#a"/>
  <radialGradient id="z" cx="670.3" cy="458.76" r="43.912" gradientTransform="matrix(3.1541 .64959 -.83046 4.0323 -935.95 -2157)" gradientUnits="userSpaceOnUse" xlink:href="#c"/>
  <radialGradient id="y" cx="669.97" cy="436.95" r="11.276" gradientTransform="matrix(1.7362 -1.7362 2.8514 2.8514 -1730.8 40.698)" gradientUnits="userSpaceOnUse" xlink:href="#c"/>
  <radialGradient id="x" cx="683.88" cy="438.91" r="11.276" gradientTransform="matrix(4.3205 2.4571e-6 -1.7002e-6 2.9909 -2250.7 -1195.5)" gradientUnits="userSpaceOnUse" xlink:href="#c"/>
  <radialGradient id="w" cx="694.37" cy="440.88" r="11.276" gradientTransform="matrix(2.9062 0 0 4.2616 -1283.5 -1753.3)" gradientUnits="userSpaceOnUse" xlink:href="#c"/>
  <radialGradient id="v" cx="743.96" cy="403.92" r="18.188" gradientTransform="matrix(1.7421 .46678 -.22307 .83251 -421.54 -588.86)" gradientUnits="userSpaceOnUse" xlink:href="#c"/>
  <radialGradient id="u" cx="759.13" cy="384.78" r="109.08" gradientTransform="matrix(1.9297 -.52665 .37448 1.3722 -772.59 -31.592)" gradientUnits="userSpaceOnUse" xlink:href="#c"/>
  <radialGradient id="t" cx="694.81" cy="524.13" r="74.5" gradientTransform="matrix(2.3214 -.62202 .245 .91435 -1008.4 107.14)" gradientUnits="userSpaceOnUse" xlink:href="#c"/>
  <radialGradient id="s" cx="546.22" cy="282.17" r="85.484" gradientTransform="matrix(2.8214 0 0 1.8096 -938.04 -492.29)" gradientUnits="userSpaceOnUse" xlink:href="#c"/>
  <radialGradient id="r" cx="485.42" cy="622.22" r="83.828" gradientTransform="matrix(.71573 -.20772 .36961 1.2736 -8.4979 -403.14)" gradientUnits="userSpaceOnUse" xlink:href="#a"/>
  <radialGradient id="q" cx="144.49" cy="843.38" r="329.03" gradientTransform="matrix(1.9598 -.16225 .037119 .44835 -40.827 -123.55)" gradientUnits="userSpaceOnUse" xlink:href="#c"/>
  <radialGradient id="p" cx="623.78" cy="586.53" r="71.858" gradientTransform="matrix(.58074 .03311 -.0040935 1.0626 -72.143 -399.83)" gradientUnits="userSpaceOnUse" xlink:href="#g" spreadMethod="reflect"/>
 </defs>
 <path transform="matrix(1.0904 0 -.59583 .43351 208.11 100.86)" d="m964.6 440.62c0.03597 113.74-189.83 205.96-424.05 205.96s-424.08-92.216-424.05-205.96c-0.03597-113.74 189.83-205.96 424.05-205.96s424.08 92.216 424.05 205.96z" fill="url(#j)" fill-rule="evenodd"/>
 <path transform="matrix(1.0904 0 -.59583 .43351 155.59 100.86)" d="m964.6 440.62c0.03597 113.74-189.83 205.96-424.05 205.96s-424.08-92.216-424.05-205.96c-0.03597-113.74 189.83-205.96 424.05-205.96s424.08 92.216 424.05 205.96z" fill="url(#j)" fill-rule="evenodd"/>
 <path d="m676.06 137.72c-1.8741 0.07504-3.785 0.4451-5.7236 1.155-24.814 9.0867-44.942 68.087-44.942 131.69 0 14.297 1.0154 27.623 2.8746 39.578l83.364-25.538c2.3575-14.855 3.6703-30.743 3.6703-46.944 0-58.637-17.129-100.83-39.244-99.945z" fill-rule="evenodd"/>
 <path d="m852.98 136.88c-14.856 0.50975-20.536 29.712-25.179 66.322-2.1148 16.676-4.3418 34.61-4.543 49.228l0.308-2.2586 36.446-62.96 1.3346 0.43632c2.2459-29.17-0.47712-51.039-8.3672-50.768z" fill-rule="evenodd"/>
 <g transform="matrix(.35256 0 .015155 .56395 468.75 -118.35)" fill-rule="evenodd">
  <path d="m1049 478.84-142.97 1.125c-24.178 0-49.399 51.541-52.041 111.34s14.822 104.31 39 104.31l146.45-0.09375c24.178 0 45.951-48.541 48.594-108.34s-14.854-108.34-39.031-108.34z" fill="url(#an)"/>
  <path d="m1049 478.84-143.13 1.125c-24.178 0-49.399 51.541-52.041 111.34s14.822 104.31 39 104.31l146.61-0.09375c24.178 0 45.951-48.541 48.594-108.34s-14.854-108.34-39.031-108.34z" fill="url(#am)" opacity=".14523"/>
  <path d="m1049 478.84-142.97 1.125c-24.178 0-49.399 51.541-52.041 111.34s14.822 104.31 39 104.31l146.45-0.09375c24.178 0 45.951-48.541 48.594-108.34s-14.854-108.34-39.031-108.34z" fill="url(#al)"/>
 </g>
 <g transform="matrix(.35256 0 .011065 .56395 471.78 -118.35)" fill-rule="evenodd">
  <path d="m1055.7 493.12c-0.7974-0.01252-1.5894 0.05465-2.4063 0.21875-18.848 3.7863-32.477 50.153-32.094 101.41 0.3797 50.788 12.819 87.813 30.094 83.625 19.096-4.6294 32.113-49.619 32.094-100.41 0.5239-48.406-11.473-84.589-27.688-84.844z" fill="url(#df)"/>
  <path d="m1063.6 508.88c5.7847-0.3625 8.75 13.536 8.75 27.75 0 1.9644-0.0614 3.8928-0.1866 5.759-6.7078 5.8354-13.362 12.573-18.727 16.473-0.3836-3.616 0.1078-10.185 0.1636-19.482 0.085-14.15 1.5593-29.971 10-30.5z" fill="url(#de)"/>
  <path d="m1053.4 558.91 13.634-11.927 4.6617-0.89905-16.619 16.561c-0.7118-0.86258-1.2977-2.0401-1.6767-3.7348z" fill="url(#dd)"/>
  <path d="m1063.5851,508.875c-3.9852.24974-6.4086,3.90538-7.875,9.1875 5.3226-.0265 1.7786,11.10196 2.8438,11.1875 5.3522.42983 9.2812,3.97707 9.2812,13.375 0,1.42682-.2387,2.79034-.6562,4.09375-.4003,1.24963 1.7127.6142 3.8125,0l-15.8438,15.84375c1.6636,1.4986 3.6135,2.29918 5.6875,2.0625 6.572-.75 10.25-8.03003 11-16.25 0-.63361-.0434-1.2569-.0937-1.875 .0013-.01007-.0013-.02118 0-.03125 .3913-3.08513.5937-6.3939.5937-9.84375 0-14.214-2.9653-28.1125-8.75-27.75z" fill="url(#dc)"/>
  <path transform="matrix(.99849 0 0 1.1039 426.44 -60.056)" d="m632 584.86c0 12.15-3.6936 22-8.25 22s-8.25-9.8497-8.25-22 3.6936-22 8.25-22 8.25 9.8497 8.25 22z" fill="url(#i)"/>
  <path d="m1071.6 569c-4.1149 0.19662-7.5869 5.4053-9.4063 13.125 2.6496-3.3825 6.2757-6.9225 9.125-8.6562 2.2332-1.3588 2.6437 5.7852-5.125 8.2188 1.9044 5.1405 2.8593 29.374-1.5937 29.625-0.716 0.04043-1.5669-1.1496-2.375-2.9062 1.7807 8.516 5.0998 14.25 9.0625 14.25 5.6532 0 10.062-11.617 10.062-26.438s-3.58-26.815-9.125-27.219c-0.2064-0.01505-0.4215-0.00972-0.625 0z" fill="url(#db)"/>
  <path d="m1052.9 613.56c-2.0224-0.01207-3.5423 1.8061-4.6563 4.8125 3.1394 4.3487 5.7538 14.992 8.5 20.594 5.9447 12.127-0.4832 19.024-10.156 17.594-0.3013-0.04454-0.6178-0.14672-0.9375-0.28125 0.8164 8.0979 3.1821 13.44 9.1562 14.094 4.313 0.47175 7.2814-8.405 8.5-28.5 1.1899-19.62-4.4214-27.391-9.875-28.25-0.185-0.02914-0.3542-0.06144-0.5312-0.0625z" fill="url(#da)"/>
  <path d="m1034.4 583.19c-2.824-0.06974-5.8475 3.6872-8.1562 9.25 0.1049-0.06853 0.2076-0.16327 0.3125-0.21875 8.0242-4.2426 7.7812 13.307 7.7812 23.406 0 6.6545-0.9934 17.457-2.9375 24.062 0.6828 0.32156 1.3914 0.48578 2.125 0.4375 6.9456-0.45703 11.149-8.989 9.0938-28.906-1.454-14.093-1.9737-27.877-8.2188-28.031z" fill="url(#cz)"/>
  <path d="m1039.6 515.53c-0.2035 0.01479-0.4119 0.05137-0.625 0.09375-1.1427 0.22732-2.1711 1.0504-3.0937 2.3438 7.6774 0.37027 3.7147 13.981 3.0312 25.25-0.7713 12.719-2.5708 20.683-5.5312 23.062 1.6249 3.4278 3.5397 5.6 5.25 6 4.0829 0.95488 9.0625-13.877 9.0625-29.469 0-15.105-1.7854-27.74-8.0938-27.281z" fill="url(#cy)"/>
  <path d="m1071.8 573.31c-0.1238 0.02172-0.2667 0.07132-0.4063 0.15625-2.8493 1.7338-6.4754 5.2737-9.125 8.6562-0.9927 3.8452-1.5625 8.3306-1.5625 13.125 0 4.822 0.5904 9.2964 1.5938 13.156 0.8081 1.7566 1.659 2.9467 2.375 2.9062 4.453-0.25147 3.4981-24.484 1.5937-29.625 7.2831-2.2814 7.388-8.7008 5.5313-8.375z" fill="url(#cx)"/>
  <path d="m1048.3 618.38c-1.9084 5.1508-2.6753 13.852-2.9062 23.125-0.1378 5.5327-0.1167 10.524 0.3125 14.781 0.3197 0.13453 0.6362 0.23671 0.9375 0.28125 9.673 1.4303 16.101-5.4672 10.156-17.594-2.7462-5.6022-5.3606-16.245-8.5-20.594z" fill="url(#cw)"/>
  <path d="m1028.6 591.56c-0.6139 0.03851-1.2789 0.2585-2.0312 0.65625-0.1049 0.05548-0.2076 0.15022-0.3125 0.21875-2.2166 5.3409-3.75 12.358-3.75 19.312 0 12.574 3.6188 25.447 8.9062 27.938 1.9441-6.6052 2.9375-17.408 2.9375-24.062 0-9.1528 0.1845-24.435-5.75-24.062z" fill="url(#cv)"/>
  <path d="m1035.9 517.97c-3.0837 4.3226-4.9817 14.023-5.9688 25.531-0.8048 9.3832 0.9903 17.553 3.4688 22.781 2.9604-2.3796 4.7599-10.344 5.5312-23.062 0.6835-11.269 4.6462-24.88-3.0312-25.25z" fill="url(#cu)"/>
  <path d="m1046.8 527.78c-1.3235 2.8088-2.6256 8.5306-3.3125 15.125-0.9758 9.3678-0.3502 16.969 1.4063 16.969 0.3158 0 0.6642-0.26106 1-0.71875 1.0786-4.8211 1.75-10.534 1.75-16.344 0-5.5085-0.2361-10.695-0.8438-15.031z" fill="url(#ct)" opacity=".3"/>
  <path d="m1039.1 609.12c-1.794 0-2.2419 12.768-1 28.5 0.0162 0.2044 0.046 0.39037 0.0625 0.59375 2.7145-2.3833 4.5111-7.0786 4.9063-14.469-1.2428-8.6868-2.7521-14.625-3.9688-14.625z" fill="url(#cs)" opacity=".3"/>
  <path d="m1055.8 616.38c-3.3663 0-0.0022 8.9817 7.6563 21.688 0.1635-9.8669-1.5767-16.28-4.0625-20.062-1.5077-1.0618-2.7433-1.625-3.5938-1.625z" fill="url(#cr)" opacity=".4"/>
  <path d="m1042.3 572.53c-0.8179 3.7717-1.3125 8.2255-1.3125 13.031 0 5.3676 0.5924 10.322 1.5938 14.344 2.1722-2.0717 3.7187-7.3309 3.7187-13.531 0-6.473-1.6766-11.982-4-13.844z" fill="url(#cq)"/>
  <path d="m1055.6 494.16c-11.895 2.7967-16.597 15.965-20.781 26.094-2.7262 8.177-4.8983 16.516-6.5313 24.969 1.5643-7.5983 3.5743-15.099 6.0313-22.469 4.1839-10.129 8.8862-23.297 20.781-26.094 8.4892-0.37873 13.234 8.6855 16.375 15.281 11.272 27.793 11.222 58.763 9.6563 88.406-0.9135 9.8404-1.9894 19.873-3.875 29.688 2.2028-10.608 3.3837-21.508 4.375-32.188 1.5657-29.643 1.6158-60.613-9.6563-88.406-3.1407-6.5958-7.8858-15.66-16.375-15.281z" fill="#fff"/>
 </g>
 <g transform="matrix(.82132 0 0 .82132 164.48 -230.33)" fill-rule="evenodd">
  <path d="m617.66 478.84-52.115 1.125c-24.178 0-49.399 51.541-52.041 111.34s14.822 104.31 39 104.31l55.594-0.09375c24.178 0 45.951-48.541 48.594-108.34s-14.854-108.34-39.031-108.34z" fill="url(#ak)"/>
  <path d="m617.66 478.84-52.115 1.125c-24.178 0-49.399 51.541-52.041 111.34s14.822 104.31 39 104.31l55.594-0.09375c24.178 0 45.951-48.541 48.594-108.34s-14.854-108.34-39.031-108.34z" fill="url(#aj)" opacity=".14523"/>
  <path d="m617.66 478.84-52.115 1.125c-24.178 0-49.399 51.541-52.041 111.34s14.822 104.31 39 104.31l55.594-0.09375c24.178 0 45.951-48.541 48.594-108.34s-14.854-108.34-39.031-108.34z" fill="url(#ai)"/>
  <path d="m622.41 495.12c-0.79742-0.01252-1.5893 0.05465-2.4062 0.21875-18.848 3.7863-32.477 50.153-32.094 101.41 0.3797 50.788 12.819 87.813 30.094 83.625 19.096-4.6294 32.113-49.619 32.094-100.41 0.52392-48.406-11.473-84.589-27.688-84.844z" fill="url(#cp)"/>
  <path d="m624.41 493.12c-0.79742-0.01252-1.5893 0.05465-2.4062 0.21875-18.848 3.7863-32.477 50.153-32.094 101.41 0.3797 50.788 12.819 87.813 30.094 83.625 19.096-4.6294 32.113-49.619 32.094-100.41 0.52392-48.406-11.473-84.589-27.688-84.844z" fill="url(#co)"/>
  <path d="m632.25 508.88c5.7846-0.3625 8.75 13.536 8.75 27.75 0 1.9644-0.06146 3.8928-0.18662 5.759-6.7078 5.8354-13.362 12.573-18.727 16.473-0.38358-3.616 0.10783-10.185 0.16365-19.482 0.08496-14.15 1.5592-29.971 10-30.5z" fill="url(#cn)"/>
  <path d="m622.07 558.91 13.634-11.927 4.6616-0.89905-16.619 16.561c-0.71187-0.86258-1.2978-2.0401-1.6768-3.7348z" fill="url(#cm)"/>
  <path d="m632.25 508.88c-3.9852 0.24974-6.4087 3.9054-7.875 9.1875 5.3226-0.0265 1.7785 11.102 2.8438 11.188 5.3522 0.42983 9.2812 3.9771 9.2812 13.375 0 1.4268-0.23873 2.7903-0.65625 4.0938-0.40028 1.2496 1.7127 0.6142 3.8125 0l-15.844 15.844c1.6636 1.4986 3.6135 2.2992 5.6875 2.0625 6.572-0.75 10.25-8.03 11-16.25 0-0.63361-0.04343-1.2569-0.09375-1.875 0.00128-0.01007-0.00128-0.02118 0-0.03125 0.39128-3.0851 0.59375-6.3939 0.59375-9.8438 0-14.214-2.9654-28.112-8.75-27.75z" fill="url(#cl)"/>
  <path transform="matrix(.99849 0 0 1.1039 -4.891 -60.056)" d="m632 584.86c0 12.15-3.6936 22-8.25 22s-8.25-9.8497-8.25-22 3.6936-22 8.25-22 8.25 9.8497 8.25 22z" fill="url(#i)"/>
  <path d="m640.22 569c-4.1149 0.19662-7.5869 5.4053-9.4062 13.125 2.6496-3.3825 6.2757-6.9225 9.125-8.6562 2.2331-1.3588 2.6436 5.7852-5.125 8.2188 1.9044 5.1405 2.8593 29.374-1.5938 29.625-0.71601 0.04043-1.5668-1.1496-2.375-2.9062 1.7807 8.516 5.0998 14.25 9.0625 14.25 5.6532 0 10.062-11.617 10.062-26.438s-3.58-26.815-9.125-27.219c-0.20642-0.01505-0.42152-0.00972-0.625 0z" fill="url(#ck)"/>
  <path d="m621.59 613.56c-2.0224-0.01207-3.5423 1.8061-4.6562 4.8125 3.1394 4.3487 5.7537 14.992 8.5 20.594 5.9446 12.127-0.48325 19.024-10.156 17.594-0.30125-0.04454-0.61783-0.14672-0.9375-0.28125 0.81642 8.0979 3.1821 13.44 9.1562 14.094 4.313 0.47175 7.2813-8.405 8.5-28.5 1.1898-19.62-4.4214-27.391-9.875-28.25-0.18501-0.02914-0.35424-0.06144-0.53125-0.0625z" fill="url(#cj)"/>
  <path d="m603.06 583.19c-2.824-0.06974-5.8476 3.6872-8.1562 9.25 0.10488-0.06853 0.20757-0.16327 0.3125-0.21875 8.0242-4.2426 7.7812 13.307 7.7812 23.406 1e-5 6.6545-0.99343 17.457-2.9375 24.062 0.6828 0.32156 1.3913 0.48578 2.125 0.4375 6.9455-0.45703 11.149-8.989 9.0938-28.906-1.454-14.093-1.9737-27.877-8.2188-28.031z" fill="url(#ci)"/>
  <path d="m608.25 515.53c-0.2035 0.01479-0.41197 0.05137-0.625 0.09375-1.1427 0.22732-2.1711 1.0504-3.0938 2.3438 7.6774 0.37027 3.7147 13.981 3.0312 25.25-0.77137 12.719-2.5709 20.683-5.5312 23.062 1.625 3.4278 3.5397 5.6 5.25 6 4.0829 0.95488 9.0625-13.877 9.0625-29.469 0-15.105-1.7854-27.74-8.0938-27.281z" fill="url(#ch)"/>
  <path d="m640.47 573.31c-0.12378 0.02172-0.26668 0.07132-0.40625 0.15625-2.8493 1.7338-6.4754 5.2737-9.125 8.6562-0.99275 3.8452-1.5625 8.3306-1.5625 13.125 0 4.822 0.59038 9.2964 1.5938 13.156 0.80816 1.7566 1.659 2.9467 2.375 2.9062 4.453-0.25147 3.4981-24.484 1.5938-29.625 7.2831-2.2814 7.3879-8.7008 5.5312-8.375z" fill="url(#cg)"/>
  <path d="m616.94 618.38c-1.9084 5.1508-2.6753 13.852-2.9062 23.125-0.13779 5.5327-0.11673 10.524 0.3125 14.781 0.31967 0.13453 0.63625 0.23671 0.9375 0.28125 9.673 1.4303 16.101-5.4672 10.156-17.594-2.7463-5.6022-5.3606-16.245-8.5-20.594z" fill="url(#cf)"/>
  <path d="m597.25 591.56c-0.61391 0.03851-1.279 0.2585-2.0312 0.65625-0.10493 0.05548-0.20762 0.15022-0.3125 0.21875-2.2166 5.3409-3.75 12.358-3.75 19.312 0 12.574 3.6189 25.447 8.9062 27.938 1.9441-6.6052 2.9375-17.408 2.9375-24.062 0-9.1528 0.18449-24.435-5.75-24.062z" fill="url(#ce)"/>
  <path d="m604.53 517.97c-3.0837 4.3226-4.9817 14.023-5.9688 25.531-0.80484 9.3832 0.99031 17.553 3.4688 22.781 2.9604-2.3796 4.7599-10.344 5.5312-23.062 0.68346-11.269 4.6461-24.88-3.0312-25.25z" fill="url(#cd)"/>
  <path d="m615.5 527.78c-1.3236 2.8088-2.6256 8.5306-3.3125 15.125-0.97581 9.3678-0.35019 16.969 1.4062 16.969 0.31583 0 0.66426-0.26106 1-0.71875 1.0786-4.8211 1.75-10.534 1.75-16.344 0-5.5085-0.23608-10.695-0.84375-15.031z" fill="url(#cc)" opacity=".3"/>
  <path d="m607.75 609.12c-1.794 0-2.242 12.768-1 28.5 0.01614 0.2044 0.04595 0.39037 0.0625 0.59375 2.7145-2.3833 4.5111-7.0786 4.9062-14.469-1.2428-8.6868-2.7521-14.625-3.9688-14.625z" fill="url(#cb)" opacity=".3"/>
  <path d="m624.5 616.38c-3.3663 0-0.00226 8.9817 7.6562 21.688 0.16352-9.8669-1.5767-16.28-4.0625-20.062-1.5077-1.0618-2.7433-1.625-3.5938-1.625z" fill="url(#ca)" opacity=".4"/>
  <path d="m611 572.53c-0.81797 3.7717-1.3125 8.2255-1.3125 13.031 0 5.3676 0.59236 10.322 1.5938 14.344 2.1722-2.0717 3.7188-7.3309 3.7188-13.531 0-6.473-1.6767-11.982-4-13.844z" fill="url(#bz)"/>
  <path d="m624.31 494.16c-11.895 2.7967-16.597 15.965-20.781 26.094-2.7262 8.177-4.8983 16.516-6.5312 24.969 1.5642-7.5983 3.5742-15.099 6.0312-22.469 4.1839-10.129 8.8862-23.297 20.781-26.094 8.4892-0.37873 13.234 8.6855 16.375 15.281 11.272 27.793 11.222 58.763 9.6562 88.406-0.91346 9.8404-1.9894 19.873-3.875 29.688 2.2028-10.608 3.3837-21.508 4.375-32.188 1.5658-29.643 1.6158-60.613-9.6562-88.406-3.1408-6.5958-7.8858-15.66-16.375-15.281z" fill="#fff"/>
 </g>
 <path d="m279.94 161.37-41.764-1.5272c-19.374-1.1046-39.735 36.857-42.027 82.121s11.572 79.839 30.946 80.944l44.548 2.4687c19.374 1.1046 36.963-34.738 39.256-80.001s-11.586-82.9-30.96-84.005z" fill="url(#p)" fill-rule="evenodd"/>
 <path d="m599.37 34.007c-21.917-0.06613-45.911 0.40168-69.479 1.925-75.051 4.8509-126.16 7.3088-245.65 77.666-80.495-0.25361-131.3 71.288-147.15 103.49-1.1836 17.236 0.78372 35.529 6.2369 54.977-0.14995 11.694 4.322 19.685 7.8796 28.413 16.482 3.0058 32.395 4.8913 48.099 6.3396l5.2873-0.693c63.395 6.75 128.76 10.204 194.47 13.09l12.474 2.7463c32.739 0.91067 65.293 2.7934 97.25 1.54 52.175-2.0464 83.513-4.7703 112.7-9.8046 2.1226-0.3661 7.8282-17.094 7.8282-17.094 3.1394-42.188 17.139-149.33 47.303-150.51 27.792-1.0868 33.978 81.02 20.713 143.12 42.017-13.254 82.976-29.717 126.38-38.808 0 0 8.9235-71.095 13.09-86.316 0.80715-2.9487 6.1634-22.096 11.653-24.409 8.5073-3.5848 12.946-1.646 11.447 47.611l2.849 2.4126c-2.3421-22.077 5.8039-25.839-7.3662-61.42-8.7369-23.604-23.748-32.596-27.181-33.135-10.699-1.6805-45.308-3.3768-53.771-3.773-1.4536-2.6915-4.7017-5.2388-8.9062-6.6476-0.92126-0.30868-1.8417-0.54785-2.7463-0.71866-30.212-26.045-58.534-44.652-75.177-46.815-1.8025-0.23435-40.024-3.0371-88.241-3.1826z" fill="#fb0000" fill-rule="evenodd"/>
 <path d="m591.05 34.007c-19.597 0.06607-40.541 0.59209-61.163 1.925-75.051 4.8509-126.16 7.3088-245.65 77.666-1.3444-0.00424-2.6762 0.01603-4.004 0.05134 3.939 0.26057 7.8342 0.51846 12.012 0.89832l19.327-1.463c106.57-1.7663 215.41-8.0679 319.7-5.2873 9.1801 0.58561 16.44 0.37704 29.901 2.7463l71.43-33.88 30.004 7.1866c-30.144-25.964-58.388-44.502-74.997-46.661-1.8025-0.23435-40.024-3.0371-88.241-3.1826-2.7396-0.00826-5.5163-0.00944-8.3159 0z" fill="url(#ar)" fill-rule="evenodd"/>
 <path d="m223.28 286.31c3.1029 5.1788 11.99 4.5733 19.224 5.6209 5.4476 2.4133 4.0137 2.4418-1.3603 3.773 52.534 3.4848 104.6 6.9614 156.36 10.446l5.159 6.0059c-2.6964-6.5322-3.4083-11.884-2.233-16.093l0.077-0.05133c-59.075-2.2774-118.15-4.7305-177.23-9.7019z" fill="url(#as)" fill-rule="evenodd"/>
 <path d="m137.04 218.01c-1.0519 16.965 0.93243 34.953 6.2883 54.053-0.14995 11.694 4.322 19.685 7.8796 28.413 16.482 3.0058 32.395 4.8913 48.099 6.3396l5.2873-0.693c63.395 6.75 128.76 10.204 194.47 13.09l12.474 2.7463c32.739 0.91067 65.293 2.7934 97.25 1.54 13.756-0.53954 26.026-1.1348 37.216-1.7966l4.4146-15.939c-9.5412-25.884-20.123-51.594-33.982-76.794l-0.56466 0.53899c-150.63 4.406-312.9-1.3833-378.84-11.499zm19.224 66.938 55.85 0.41066c62.968 5.6493 125.94 8.2507 188.9 10.677l134.7-0.41067c-10.994 10.631-23.655 12.932-35.625 18.685-100.41 0.23362-193.01-5.0383-293.42-13.552l-54.361-8.3159 3.9526-7.4946z" fill="url(#at)" fill-rule="evenodd"/>
 <path d="m156.26 284.95-3.9526 7.4946 54.361 8.3159c100.41 8.5135 193.01 13.785 293.42 13.552 11.97-5.7534 24.631-8.0538 35.625-18.685l-134.7 0.41067-0.51333-0.02567-0.077 0.05133c-1.1753 4.2092-0.46338 9.5606 2.233 16.093l-5.159-6.0059c-51.76-3.4848-103.83-6.9615-156.36-10.446 5.374-1.3311 6.8079-1.3597 1.3603-3.773-7.2341-1.0476-16.121-0.44215-19.224-5.6209-3.7217-0.3132-7.4432-0.61576-11.165-0.94966l-55.85-0.41066z" fill="url(#au)" fill-rule="evenodd"/>
 <path d="m198.97 187.4c32.486-29.142 69.514-49.425 117.45-69.197" fill="none" opacity=".7" stroke="#986601" stroke-width=".82132"/>
 <path d="m604.64 108c-33.291 0.05478-68.536 3.8988-101.44 8.3293l-191.11 2.5666c-10.917-3.2203-20.913-4.5884-30.492-5.1333-79.093 1.1677-129.05 71.586-144.73 103.46-0.02098 0.30537-0.03234 0.61797-0.05133 0.92399 65.933 10.115 228.2 15.905 378.84 11.499 46.227-50.351 98.851-114.44 161.65-114.99-23.423-7.1972-46.764-6.7036-72.657-6.661z" fill="url(#q)" fill-rule="evenodd"/>
 <path d="m198.15 187.61c31.47-28.804 68.088-49.429 116.63-69.402" fill="none" opacity=".5" stroke="url(#av)" stroke-width=".82132"/>
 <path d="m177.26 201.98c86.761 7.9312 190.1 6.9257 286.02 5.3386" fill="none" opacity=".86" stroke="url(#aw)" stroke-width=".82132"/>
 <path d="m659.33 110.35c5.5718-19.925 12.802-66.671 30.893-66.609 21.503 0.07279 39.364 15.887 70.305 39.508-9.9561 0.13088-35.278-8.7521-43.26 5.6306-4.4221 7.9675-3.3821 19.296-3.0217 28.192-7.6763 0.91079-22.186 3.8997-25.046 2.2071-3.7572-2.2237-21.986-8.8485-29.871-8.9282z"/>
 <path d="m560.74 37.677c-51.345 0.57863-98.382 4.1124-143.34 15.21-25.04 6.1816-81.056 33.823-125.96 58.376-9.6332 5.1791 11.457 5.3967 17.299 7.1352 9.9772 1.3124 27.56-0.25278 45.994-0.59032 44.36-0.81224 98.279-0.76089 145.07-0.51333 48.827-9.4776 85.516-9.2356 135.93-9.0859 7.337-22.827 17.245-46.303 27.925-67.118-16.894-2.4372-34.109-3.3301-51.358-3.594s-34.532 0.10128-51.565 0.18038z"/>
 <path d="m557.07 61.656h87.695l-8.1307 23.521-70.853 2.0327-8.7114-25.554z" fill="url(#ax)" fill-rule="evenodd" opacity=".8"/>
 <path d="m654.65 70.273c-1.2205-0.05016-2.5179 0.25723-3.696 0.97532-9.9275 0.27992-19.885 0.52393-29.645 2.5923-31.031 5.9668-60.504 17.733-90.705 26.719-3.6269 1.6005-10.029 2.3512-12.038 4.697 5.3808-0.85777 8.1013 3.1461 12.5 5.2873 1.2689 0.50855 2.567 0.90855 3.9013 1.2063 7.8785 0.57948-10.034-2.4909-1.8736-4.235 15.637-4.9742 31.321-9.8002 46.918-14.912 18.356-6.4401 37.27-11.608 56.671-13.578 3.8923 0.34394 9.9246-2.1563 12.525 0.74433-2.5676 9.4491-6.2062 18.568-9.3939 27.822l-22.176 0.89832c7.4057-0.02658 14.87 0.60203 22.227-0.30799 3.4268-6.1768 4.9471-13.219 8.0079-19.583 1.3759-2.9028 5.0022-12.003 8.3672-7.6742-3.9611 15.825-5.3716 21.619-5.3643 22.073 0.38612-0.41902 6.9564-23.911 8.7009-24.794 1.8376-4.5024-1.2665-7.7804-4.9279-7.9309zm-157.67 41.246c-1.3876 0.07823-2.8371 0.11116-4.1066 0.74432-0.79393 0.36588 0.02002 1.1399 0.41066 1.4886 0.81541 0.63524 1.7107 1.2788 2.1816 2.233 0.35645 0.47917 0.00608 1.9208 0.97532 1.5143 0.99974-0.20963 2.0356 0.05727 3.003 0.308 0.64927 0.19376 1.2955 0.39175 1.9506 0.56466 0.68573 0.23863 1.4383 0.33784 2.1046-0.02567 2.2594-0.93113 4.3884-2.1593 6.4166-3.5163 0.47655-0.39957 1.2054-0.71453 1.3603-1.3346-0.76502-0.29003-1.5664-0.46605-2.3613-0.66733-3.9042-0.88701-7.9285-1.3832-11.935-1.309zm142.45 4.0553c-1.973 0.20367-10.885 3.1198-15.297 4.6713-43.731 0.67294-87.943 3.7384-129.95 16.709-16.473 8.9692-5.0873-4.2977 1.8993-11.576 0.08602-7.7348-13.105 3.4448-14.348 7.8282-15.071 5.7694-33.444 4.4888-49.741 7.8282-78.682 13.686-159.18 21.974-234.21 51.025-14.152 5.0094-25.365 11.888-36.677 21.688-1.3984 1.5637 3.6575 1.1449 2.7206 0.38499 3.5712-5.0837 31.699-11.248 21.791-11.242 8.5138-6.2587 26.137-8.8212 37.986-13.706 80.511-23.777 164.19-33.334 246.94-45.917 8.6705 0.64267 11.862-9.2139 18.069-13.526-1.2091 5.4875-20.055 27.27-24.948 40.887 8.1186-9.6592 16.56-28.782 34.111-29.388 32.573-9.3284 66.294-15.525 100.18-17.017 11.771-1.3945 24.521 1.2399 35.086-5.2103 6.2807-2.7122 7.5748-3.5615 6.3909-3.4393zm10.01 1.771c-3.6652 1.0713-6.4283 1.5724-12.346 3.5933-3.0614 1.0455-7.1478 2.9102-6.5449 4.158 2.4702 0.4766 5.863-2.0424 7.3919-2.5666 3.6143-1.0248 9.3861-3.9256 11.499-5.1846z" fill="#fff"/>
 <path d="m197.87 244.78c69.42 7.3706 188.61 10.743 211.01 4.8219l-1.2564 10.133c-66.641-1.7075-133.22-3.3568-202.85-8.0528l-6.9024-6.9024z" fill="#fff" fill-rule="evenodd"/>
 <path d="m140.83 224.83c27.466 7.7961 66.056 18.744 74.838 26.573-0.1977 11.094-0.23114 22.439 0 33.894-3.5697 3.4966-6.9078 6.9353-11.863 10.778-19.573 0.23094-36.953-1.7317-53.281-4.7452-3.366-5.5364-3.8364-12.36-3.9995-19.32-5.2538-15.487-5.3568-31.342-5.6942-47.18z" fill="#666" fill-rule="evenodd"/>
 <path d="m628.96 297.63c-25.875 3.9849-52.073 6.6671-78.667 7.7769l0.12833 0.35933-4.4146 15.939c31.264-1.8534 54.004-4.3028 75.485-8.0079 1.9147-0.33024 6.541-13.398 7.4689-16.067zm-83.287 24.101c-0.83637 0.04927-1.718 0.07979-2.5666 0.12833v0.02566l2.5666-0.15399z" fill="url(#ay)" fill-rule="evenodd"/>
 <path d="m140.83 224.83c27.466 7.7961 66.056 18.744 74.838 26.573-0.1977 11.094-0.23114 22.439 0 33.894-3.5697 3.4966-6.9078 6.9353-11.863 10.778-19.573 0.23094-36.953-1.7317-53.281-4.7452-3.366-5.5364-3.8364-12.36-3.9995-19.32-5.2538-15.487-5.3568-31.342-5.6942-47.18z" fill="url(#ap)" fill-rule="evenodd"/>
 <g transform="matrix(.82132 0 0 .82132 164.48 -230.33)" fill-rule="evenodd">
  <path d="m274.64 590.14c0.998-3.985 141.45-24.395 147.77-21.71 3.6209 1.5379 31.209 67.418 30.581 71.201-0.33633 2.0259-30.997 17.24-41.32 17.625-10.004 0.37362-100.04-1.8031-105.05-2.101-12.416-0.73854-15.666-5.8887-18.909-14.123-1.8619-4.728-13.583-48.853-13.073-50.891z" fill="#666"/>
  <path d="m274.64 590.14c0.998-3.985 141.45-24.395 147.77-21.71 3.6209 1.5379 31.209 67.418 30.581 71.201-0.33633 2.0259-30.997 17.24-41.32 17.625-10.004 0.37362-100.04-1.8031-105.05-2.101-12.416-0.73854-15.666-5.8887-18.909-14.123-1.8619-4.728-13.583-48.853-13.073-50.891z" fill="url(#k)"/>
  <path d="m274.64 590.14c0.998-3.985 141.45-24.395 147.77-21.71 3.6209 1.5379 31.209 67.418 30.581 71.201-0.33633 2.0259-30.997 17.24-41.32 17.625-10.004 0.37362-100.04-1.8031-105.05-2.101-12.416-0.73854-15.666-5.8887-18.909-14.123-1.8619-4.728-13.583-48.853-13.073-50.891z" fill="url(#by)"/>
  <path d="m421.09 568.25c-3.953 25.209-8.2254 49.14-8.5312 88.938 11.086-1.1438 40.11-15.592 40.438-17.562 0.62796-3.7825-26.973-69.65-30.594-71.188-0.23694-0.10064-0.7129-0.1497-1.3125-0.1875z" fill="url(#bx)" opacity=".6"/>
  <path d="m274.64 590.14c0.998-3.985 141.45-24.395 147.77-21.71 3.6209 1.5379 31.209 67.418 30.581 71.201-0.33633 2.0259-30.997 17.24-41.32 17.625-10.004 0.37362-100.04-1.8031-105.05-2.101-12.416-0.73854-15.666-5.8887-18.909-14.123-1.8619-4.728-13.583-48.853-13.073-50.891z" fill="url(#bw)"/>
 </g>
 <path d="m140.84 224.84c0.3374 15.838 0.4185 31.688 5.6723 47.175 0.16312 6.9599 0.63792 13.79 4.004 19.327 16.329 3.0134 33.71 4.9792 53.283 4.7483 0.57513-0.44605 1.1338-0.89877 1.6683-1.3346-2.8687-16.052-3.2552-32.724-1.7453-49.87-15.893-6.7065-42.45-14.246-62.883-20.045z" fill="url(#az)" fill-rule="evenodd" opacity=".9"/>
 <path d="m140.83 224.83c27.466 7.7961 66.056 18.744 74.838 26.573-0.1977 11.094-0.23114 22.439 0 33.894-3.5697 3.4966-6.9078 6.9353-11.863 10.778-19.573 0.23094-36.953-1.7317-53.281-4.7452-3.366-5.5364-3.8364-12.36-3.9995-19.32-5.2538-15.487-5.3568-31.342-5.6942-47.18z" fill="url(#ba)" fill-rule="evenodd"/>
 <g transform="matrix(.82132 0 0 .82132 164.48 -230.33)" fill-rule="evenodd">
  <path d="m69.628 438.31 6.6769 3.2805c-28.956 26.319-46.472 55.556-60.982 85.486l-34.554-4.803c24.418-33.123 51.698-62.978 88.859-83.964z"/>
  <path d="m69.628 438.31 6.6769 3.2805c-28.956 26.319-46.472 55.556-60.982 85.486l-34.554-4.803c24.418-33.123 51.698-62.978 88.859-83.964z" fill="url(#bv)"/>
  <path d="m72.781 439.88c-9.6114 5.1439-18.652 10.76-27.188 16.812-19.448 16.716-38.619 33.609-51.188 54.594l27.031 3.5938c13.376-25.654 29.865-50.548 54.875-73.281l-3.5312-1.7188z" fill="url(#bu)"/>
  <path d="m5.5116 500.13c-3.1224 5.4147-1.0874 9.5312 5.1562 9.5312 0.731 0 1.4707-0.0792 2.25-0.1875-0.46123-0.3269-0.87517-0.70706-1.25-1.1562-1.4907-1.7864-2.1402-4.5163-1.5625-8.1875h-4.5938zm5 0 0.625 0.09375c-0.56237 3.498 0.11363 5.8946 1.375 7.4062 0.57006 0.68316 1.2659 1.178 2.0625 1.5312 1.4308-0.31736 2.9016-0.77362 4.375-1.375-0.24263-0.16082-0.46984-0.34269-0.6875-0.53125-1.6567-1.4352-2.4491-3.7159-1.7812-6.7188l0.96875 0.21875c-0.61052 2.7451 0.07716 4.5445 1.4688 5.75 0.3479 0.30138 0.74845 0.55596 1.1875 0.78125 3.7944-1.7228 7.5001-4.2383 10.281-7.1562h-19.875z" fill="url(#bt)"/>
  <path d="m67.71 442.5c-1.1723 0.08388-2.4786-0.0366-3.5211 0.57608-4.9512 1.3248-6.445 3.5925-8.8113 5.6986-2.342 3.3177-2.8401 7.8648-1.2154 11.604 0.39644 0.94102 0.9097 1.8305 1.5176 2.6467 0.58801-0.99694 2.0707-1.9025 2.1036-2.9415-1.6548-2.9203-1.4807-6.7489 0.39323-9.5214 2.4212-3.7284 7.1368-5.4957 11.411-4.7959 0.96211 0.12908 1.9587 0.77152 2.5664-0.33678 0.42462-0.56013 1.6863-1.2618 1.5864-1.722-1.9068-0.79765-3.9679-1.2094-6.0301-1.2075z" fill="url(#bs)"/>
  <path d="m67.71 445.62c-4.1861-0.04767-8.4802 2.3043-10.25 6.2458-1.2409 2.6773-1.0508 5.958 0.47184 8.4788 4.251-4.9362 8.7329-9.6677 13.431-14.167-1.1801-0.3746-2.4172-0.55789-3.653-0.55776z" fill="url(#br)"/>
  <path d="m60.156 448.56c-9.9128 3.0936-17.626 7.9101-22.25 14.688-8.4613 4.7021-13.424 12.984-12.875 25.438 3.2648-12.964 4.636-16.52 11.344-22.844-2.5008 4.6964-3.6944 10.203-3.3125 16.594 6.6525-19.494 8.6474-22.062 27.094-33.875zm-32.25 23c-5.5857 3.7782-8.9573 11.32-8.625 23.375 2.1183-13.454 2.7514-15.222 8.625-23.375z" fill="url(#bq)"/>
 </g>
 <path d="m306.77 185.45c4.7673-0.72781 9.2882-0.52662 13.347 1.232-4.9709 6.6318-11.44 9.319-16.837 10.677 0.06248-3.4076-0.66816-7.2182 3.4906-11.909z" stroke="url(#bb)" stroke-width=".82132"/>
 <path d="m643.51 170.81c-0.50576 1.0631-1.0018 2.1275-1.5143 3.1826l-103.54 31.339c-7.4373 8.1154-14.722 16.181-21.842 23.947 13.711 24.983 24.207 50.47 33.674 76.126 24.568-1.0252 48.789-3.4077 72.738-6.9042-0.51954-5.0089-0.84657-10.164-0.97532-15.425-0.76741-31.363 8.4249-79.885 21.457-112.26z" fill="url(#r)" fill-rule="evenodd" opacity=".45"/>
 <path d="m538.36 205.81 105.7-32.813 7.8403 2.6134" fill="none" opacity=".5" stroke="url(#bc)" stroke-linecap="round" stroke-width=".82132"/>
 <path d="m659.54 110.45c5.5718-19.925 12.802-66.671 30.893-66.609 21.503 0.07279 39.364 15.887 70.305 39.508-9.9561 0.13088-36.73-9.0425-44.712 5.3403-4.4221 7.9675-1.9302 19.587-1.5698 28.483-7.6763 0.91079-22.186 3.8997-25.046 2.2071-3.7572-2.2237-21.986-8.8485-29.871-8.9282z"/>
 <path d="m673.24 114.5c-50.922 2.87-95.104 46.944-134.62 90.063l103.54-31.339c9.0283-18.586 16.379-35.526 36.592-39.199l-0.01762-17.729c-1.7653-0.77342-3.5941-1.363-5.4926-1.7966z" fill="url(#s)" fill-rule="evenodd" opacity=".6805"/>
 <g transform="matrix(.82132 0 0 .82132 164.63 -230.21)" fill-rule="evenodd">
  <path d="m548.01 501.88 35.002-11.314-3.8891 15.203-18.385 3.182-12.728-7.0711z" fill="#980101"/>
  <path d="m553 502.38c5.134 4.0654 10.761 5.2112 16.964 2.9481 8.0262 1.1021 9.0731-5.3525 10.192-11.729l-27.156 8.7812z" fill="url(#bp)"/>
 </g>
 <path d="m734.32 80.583c-7.704 0.02662-14.808 1.8181-18.3 8.1106-0.22774 0.41033-0.42572 0.82887-0.616 1.2576l-0.077 0.17966c-0.17342 0.39829-0.34217 0.79387-0.48766 1.2063l-0.05133 0.154c-0.16372 0.48483-0.30694 0.96097-0.43633 1.463s-0.23395 1.023-0.33366 1.54c23.041 0.1182 50.645-1.4761 63.627 5.4669-0.47744-2.6029-1.6452-5.6699-2.9004-8.4699-1.5671-3.4961-5.452-5.1841-9.0602-6.6476-2.7966-0.71897-4.3751-1.4104-5.0306-1.4886h-0.10267c-0.18587 4.6e-4 -0.39021-0.01543-0.59037-0.02567h-0.20533c-5.8291-0.22235-16.081-2.7786-25.435-2.7463z" fill="url(#bd)" fill-rule="evenodd" opacity=".82573"/>
 <path d="m726.78 96c27.023-0.97041 11.114 11.942 48.766 7.4372-17.924 13.6-56.727-9.6666-55.664 20.478-3.3958-33.382-6.6304-27.424 6.8981-27.915zm-8.1996-8.8617c5.9402-3.9147 13.919-3.5428 20.702-2.8394 4.3731 0.45345 12.596 0.89578 17.008 1.1252-7.7506 1.5837-17.188 0.7794-22.928 0.42231-5.1514-0.32051-9.9097-0.51793-14.783 1.2918z" fill="#fff"/>
 <path d="m774.75 91.491c1.2552 2.8 2.4229 5.867 2.9004 8.4699l-0.10267-0.05133c0.02431 0.25325 0.02127 0.50795 0.02563 0.76999-1.2596 13.454-26.181 10.585-51.333 12.731l-0.64166 17.864-16.452 5.2103 1.7453 3.2083c80.49-20.795 98.024-42.023 120.63-43.12-1.3979-0.77891-2.494-1.2049-3.1569-1.309-10.292-1.6167-42.197-3.2216-52.18-3.696l-1.4373-0.077z" fill="url(#t)" fill-rule="evenodd"/>
 <path d="m831.52 96.581c-22.608 1.0964-40.142 22.325-120.63 43.12l-1.7453-3.2083c-6.9211-4.8025-12.814-7.2663-15.169-8.1106-2.6722 0.75115-5.5853 7.5669-8.8292 6.7759 0.6956 0.36092 1.3678 0.76232 2.0276 1.1806 28.679 18.181 24.028 89.66 21.046 134.52l118.37-41.195c2.9705-22.238 7.6591-55.548 10.369-65.449 0.8072-2.9487 6.1635-22.096 11.653-24.409 8.5073-3.5848 12.946-1.646 11.447 47.611l2.849 2.4126c-2.3422-22.077 5.8039-25.839-7.3662-61.42-7.0497-19.046-18.183-28.572-24.024-31.826zm1.9506 33.443c-3.7479 1.5602-8.5756 3.9435-12.5 4.7996-0.70634 27.415-5.482 48.844-15.169 69.71 10.172-26.894 10.052-46.976 12.705-68.837l-0.10266 0.05133c0.00969-0.09387 0.01615-0.18838 0.02566-0.28233l-20.61 7.3919c-1.019 10.746-3.5833 21.506-5.6466 31.903 1.5083-10.232 4.3251-21.081 4.1066-31.313l-1.155 0.43632c-0.86428 12.623-3.6083 24.293-6.0573 36.036 1.8711-11.654 4.9686-23.642 4.7483-35.471-1.0292 0.1448-2.0445 0.29005-3.0543 0.46199-0.13059 0.02222-0.20351-2.1465-0.41066-2.1046-0.18266 0.03689-0.50125 2.2897-0.61599 2.31-0.7088 0.12523-1.1214 0.17227-1.8223 0.308-0.18718 0.03624-0.30097-1.4486-0.48767-1.4116-0.21494 0.04248-0.50428 1.625-0.71865 1.6683-9.1881 1.8568-17.807 4.4382-27.181 5.5439 8.9737-2.9471 17.96-5.4518 27.206-8.5982-0.26785-0.26414-1.3461-6.9218-0.66732-7.3149-0.15633 0.73584 1.5473 6.8581 2.6693 6.6989 14.666-4.5471 29.46-8.8121 44.736-11.986zm-149.35 4.6456c0.30826 0.23361 0.62162 0.37351 0.92399 0.46199-0.30608-0.15732-0.61089-0.31602-0.92399-0.46199z" fill="url(#u)" fill-rule="evenodd"/>
 <g transform="matrix(.82132 0 0 .82132 164.48 -230.33)" fill-rule="evenodd">
  <path d="m796.69 444.9-22.139 8.4375c-2.7713 32.847-9.0273 60.038-19.148 80.042-9.3274 20.125-24.063 33.162-42.094 45.156l83.312-32.344-21.688 3-0.34375-4.9062c17.603-37.282 19.922-69.094 22.099-99.386z" fill="url(#ah)"/>
  <path d="m775.14 454.09 21.176-8.4393c-3.7599 30.981-2.9156 59.01-22.621 100.62l-18.707-12.096c10.346-20.098 17.344-46.797 20.152-80.086z"/>
 </g>
 <path d="m776.11 94.785c0.67944 1.7893 1.2451 3.577 1.54 5.1846l-0.10267-0.05133c0.02431 0.25325 0.02131 0.50796 0.02567 0.77-0.25828 2.7588-1.5216 4.8208-3.5676 6.3909l8.5726 2.618c6.5273-4.1462 13.316-8.0581 21.303-11.037-8.6584-1.6525-18.02-2.8818-27.771-3.8756z" fill="url(#v)" fill-rule="evenodd"/>
 <path d="m776.77 95.026c0.647 1.7039 1.1857 3.4063 1.4665 4.9371l-0.09776-0.04888c0.02315 0.24116 0.02029 0.48372 0.02444 0.73324-0.06499 0.69417-0.19634 1.3502-0.39106 1.9553 4.2143 0.58197 8.454 1.2013 12.758 2.0531 3.9429-2.204 8.1108-4.2334 12.685-5.9392-8.2451-1.5736-17.159-2.7442-26.445-3.6906z" fill-rule="evenodd"/>
 <path d="m826.33 230.57c-41.911 15.28-84.649 28.347-126.33 44.249-0.7786 4.8712-1.6678 9.6851-2.6693 14.373 42.017-13.254 82.976-29.717 126.38-38.808 0 0 1.1456-8.7827 2.618-19.814z" fill="url(#h)" fill-rule="evenodd"/>
 <path d="m796.66 244.28c-0.57861 0.01335-1.2537 0.18513-2.0533 0.51333-12.614 5.1774-26.701 6.9396-37.935 15.092-6.2366 4.5258-13.958 7.016-19.635 12.217-9.6333 8.8265-30.044 11.61-39.68 16.914-0.01251 0.05879-0.01311 0.12091-0.02566 0.17967 18.161-5.7287 36.132-12.045 54.182-18.12 2.8358-1.7098 5.641-3.4714 8.1876-5.5696 4.0202-3.3124 11.618-8.1599 19.121-10.472 2.5973-0.80031 8.3758-3.2204 10.523-0.89832 1.0556 1.1414 1.75 2.7054 1.9763 4.3633 9.5786-2.7422 19.225-5.2528 29.003-7.3919-1.4863-0.54663-3.1077-0.79851-4.8253-0.64165-4.9549 0.45253-15.33 7.131-15.631-0.79566-0.1071-2.8256-0.701-5.4478-3.2083-5.3899z" fill="#fff" fill-rule="evenodd"/>
 <path d="m786.5 253.16c-2.584 0.01657-5.8886 1.3234-7.6742 1.8736-7.5034 2.312-15.101 7.1595-19.121 10.472-2.5522 2.1028-5.371 3.8562-8.2132 5.5696 13.198-4.4411 26.435-8.7418 39.834-12.577-0.22627-1.6578-0.92073-3.2219-1.9763-4.3633-0.67106-0.72564-1.6744-0.98286-2.849-0.97533z" fill="url(#be)" fill-rule="evenodd"/>
 <path d="m725.95 121.27-0.35933 10.01-0.385 0.12834c1.4174 1.6607 3.7616 2.9333 5.7236 6.1086 4.1962 6.791 10.23 13.095 12.115 10.19 2.4982-3.8513-2.4833-15.842-4.5943-17.838-4.3227-4.0881-9.6446-7.3027-12.5-8.5982z" fill="url(#w)" fill-rule="evenodd"/>
 <path d="m714.35 117.19c-4.0151 0.48178-9.8154 1.4893-14.886 2.1303 5.3558 3.3553 11.53 6.5577 17.889 10.498-3.5903-4.8443-2.3793-8.5206-3.003-12.628z" fill="url(#x)" fill-rule="evenodd"/>
 <path d="m675.75 114.03-0.43633 0.05133c18.251 7.8828 21.65 20.258 45.712 18.557-1.4454-1.0762-2.7383-2.1577-3.9526-3.234 0.09497 0.13665 0.17966 0.27214 0.28233 0.41066-6.3597-3.9398-12.534-7.1423-17.889-10.498-4.6617 0.59081-8.6958 0.85942-10.061 0.05134-1.9073-1.1288-7.5351-3.3734-13.655-5.3386z" fill="url(#y)" fill-rule="evenodd"/>
 <path d="m691.36 120.06c5.981 4.4125 14.414 10.716 19.301 19.506 0.84721 27.029 1.3206 54.151 0 81.722" fill="none" opacity=".5" stroke="url(#n)" stroke-linecap="round" stroke-width=".82132"/>
 <path d="m685.3 121.13c4.6907 2.9796 9.7026 6.8082 14.118 9.4054-0.32859-3.9254-6.0344-5.8103-9.0978-8.0046-2.1234-1.8007-4.7321-3.1215-7.2491-3.4853l2.2292 2.0845z" fill="#eee" fill-rule="evenodd"/>
 <path d="m678.96 134.52c-0.28217-4.9e-4 -0.56274 0.01228-0.84699 0.02566-1.1205 0.05277-2.2468 0.21026-3.388 0.462h-0.05133c-17.174 5.0969-24.126 20.939-32.519 38.217l-0.59033 0.17967c-2.4616 7.5592-3.9816 15.898-4.2093 24.691-0.20336 7.8532 0.65176 15.415 2.31 22.407 7.666-38.164 19.651-73.73 36.96-74.407 19.203-0.75092 28.076 38.212 27.36 82.851 3.1635-9.6028 5.1358-20.721 5.4413-32.519 0.03583-1.3837 0.03583-2.747 0.02567-4.1066-2.029-23.826-7.5404-44.631-20.045-54.387-3.2404-2.1898-6.751-3.4072-10.446-3.4136z" fill="url(#z)" fill-rule="evenodd"/>
 <path d="m680.4 145.94c-0.49717 0.01646-0.9843 0.06966-1.4886 0.154-0.11122 0.01861-0.2227 0.05559-0.33366 0.077 13.561 1.4369 21.567 23.615 24.332 53.078 1.835 10.782 2.9773 25.432 2.9773 41.58 0 0.38074 0.00125 0.75027 0 1.1293 0.98717-7.3397 1.5296-15.068 1.5656-22.869 0.19385-41.921-11.64-73.659-27.052-73.149z" fill="#fff" fill-rule="evenodd" opacity=".60996"/>
 <path d="m708.66 244.88c-1.8373 11.474-3.3771 23.426-8.5469 29.901 2.0916-0.79773 4.1916-1.5772 6.2883-2.3613 1.1072-8.1396 2.9343-17.579 2.2586-27.54z" fill="url(#aa)" fill-rule="evenodd"/>
 <path d="m710.4 212.11c0.33317 20.493-1.04 41.576-2.1816 58.75l47.354-16.478c-4.8009-21.913-22.754-38.92-45.173-42.273z" fill="url(#ab)" fill-rule="evenodd"/>
 <path d="m699.98 274.57c43.52-14.159 84.518-31.376 126.07-42.914" fill="url(#h)" fill-rule="evenodd" opacity=".7" stroke="#986601" stroke-linecap="round" stroke-width=".82132"/>
 <path d="m693.97391,128.3819c-2.17116.61031-4.49513,5.23476-7.03258,6.51926-.39038.19762-.78029.29469-1.18066.308-.20018.00665-.41325-.0019-.61599-.05133 .6956.36092 1.36776.76232 2.02764,1.18065 .15343.09726.3089.21027.462.33366 17.67269,11.72251 22.43227,44.01235 22.79174,77.48679 1.31195-13.52156.47509-52.43457 1.46298-56.31203 1.73374-6.80489 1.43865-13.1247-.46199-18.30012-.18434.0478-.354.1062-.539.154l-1.74531-3.2083c-6.92108-4.80254-12.81402-7.26626-15.16883-8.11058zm-9.85589,6.28827c.30826.23361.62162.37351.92399.46199-.30608-.15732-.61089-.31602-.92399-.46199z" fill="url(#ac)" fill-rule="evenodd"/>
 <path d="m691.36 120.06c5.981 4.4125 14.414 10.716 19.301 19.506 0.84721 27.029 1.3206 54.151 0 81.722" fill="none" opacity=".64315" stroke="url(#n)" stroke-linecap="round" stroke-width=".82132"/>
 <path d="m774.34 106.42 15.866 6.0396c4.1196 7.9264 7.9377 16.487 10.532 25.939" fill="none" opacity=".3" stroke="#fdca01" stroke-width=".82132"/>
 <path d="m852.39 127.15c-5.7248 0-11.17 11.053-14.886 28.002 3.0511-10.056 8.2375-17.119 13.295-17.119 0.78449 0 1.5281 0.16306 2.233 0.48766 2.7084 0.10382 4.7397 2.4044 5.9289 9.4966 0.92448 3.7247 1.2997 8.2914 1.078 13.295 0.22516 6.7014 0.20145 15.137-0.12833 25.974l2.849 2.4126c-2.3421-22.077 5.8039-25.839-7.3662-61.42-0.00666-0.01801-0.01898-0.03334-0.02566-0.05133-0.96036-0.68813-1.9437-1.078-2.9773-1.078zm-17.504 42.991c-0.37796 2.8045-0.71279 5.6768-1.001 8.6496 0.31854-1.8704 0.62242-3.6134 0.92399-5.2616-0.00221-1.1029 0.01392-2.235 0.077-3.388z" fill="url(#ad)" fill-rule="evenodd"/>
 <path d="m854.21 138.11c-0.36833-0.00113-0.75601 0.08801-1.155 0.231-0.15686 0.05622-0.30619 0.11567-0.46199 0.20533 5.7559-0.24508 8.5473 8.2437 7.3149 48.74l0.38499 0.33367c0.55596-4.6027 0.87266-9.789 0.87266-15.297 0.66543-18.384-1.4306-34.196-6.9556-34.213z" fill="#eee" fill-rule="evenodd" opacity=".7"/>
 <g transform="matrix(.82132 0 0 .82132 164.48 -230.33)" fill-rule="evenodd">
  <path d="m503 437.86 56-5c-40.955 29.408-79.651 59.954-117 101l-80-0.5c41.866-33.7 84.728-67.038 141-95.5z"/>
  <path d="m559 432.88-56 5c-6.3478 3.2107-12.507 6.4842-18.531 9.8125l10.531-3.3125 42.906 3.9375c6.966-5.213 13.997-10.341 21.094-15.438z" fill="url(#bo)"/>
  <path d="m523.12 441.41c-0.49116-0.00938-0.98436 0.01016-1.4688 0.03125-14.868 0.64733-20.32 7.2191-28.281 12.531-1.5632 3.9554 2.633 14.243 9.5625 21.875 12.187-10.151 24.553-19.764 37.125-29.125-5.3382-3.1592-11.34-5.2056-16.938-5.3125z" fill="url(#bn)"/>
  <path d="m500.15 466.75c-24.675 0.28754-44.347 16.443-43.365 28.941 0.38049 4.8435 4.0482 9.1282 9.9688 12.625 15.608-15.16 31.494-28.918 47.688-41.875-4.7291-1.3005-9.7733 0.25617-14.291 0.30882z" fill="url(#bm)"/>
  <path d="m509.5,467.09375c-3.03583.09232-6.21052.77599-9.34375.8125-3.02179.03522-5.94162.3281-8.78125.8125 4.0545.99769 7.52534,3.49416 10.0625,6.875 3.39177-2.83507 6.79954-5.61803 10.21875-8.375-.28676-.02236-.55243-.11629-.84375-.125-.42974-.01285-.88315-.01306-1.3125,0z" fill="url(#bl)"/>
  <path d="m487.38 469.34c-7.493 0-13.847 5.3-16.188 12.688 2.3708-5.3309 7.9123-9.0625 14.375-9.0625 5.3953-1e-5 10.16 2.6022 12.969 6.5625 0.91616-0.77591 1.8318-1.543 2.75-2.3125-3.1158-4.7641-8.1764-7.875-13.906-7.875z"/>
  <path d="m470.5 491.62c0.57026 3.5088 2.0325 6.6673 4.0938 9.2188l1.4062-1.3125c-2.6505-1.9718-4.6139-4.7192-5.5-7.9062z" fill="#666"/>
  <path d="m483.97 474.66c-6.2208 0-11.281 5.0155-11.281 11.188 0 4.6534 2.8904 8.6296 6.9688 10.312 5.0096-4.587 10.057-9.0508 15.125-13.406-1.35-4.6742-5.6694-8.0938-10.812-8.0938z" fill="#1a1a1a"/>
  <path d="m485.56 474.12c-6.015 0-11.133 3.4748-13.312 8.375-0.27741 0.51014-0.88857 0.73752-1.432 0.53277s-0.85252-0.77892-0.72429-1.3453c0.81178-2.5623 2.182-4.7707 3.8125-6.75-1.5148 0.85268-3.0424 1.7034-4.375 2.6562-7.6799 5.4915-12.034 12.395-11.594 18 0.3231 4.113 3.4308 7.9312 8.6875 11.219 9.967-9.6497 20.052-18.705 30.25-27.375-2.642-3.1796-6.6849-5.3125-11.312-5.3125z" fill="url(#bk)"/>
  <path d="m486.19 473.16c-4.2432-0.00896-8.4187 2.1531-11.219 5.7812 3.1991-3.3062 8.3075-4.5622 13.094-2.8125 3.2465 1.1868 5.7086 3.5245 7.0625 6.3438 0.78378-0.67269 1.5585-1.3635 2.3438-2.0312-1.4439-2.9626-3.8704-5.3331-7.0625-6.5-1.3873-0.50716-2.8044-0.77826-4.2188-0.78125z" fill="#eee"/>
  <path d="m474.03 480.59c-2.6328 3.4071-3.6098 7.7389-2.5938 11.594 0.33869 1.285 0.89696 2.5157 1.6875 3.6562 0.91792 1.3243 2.0706 2.4011 3.375 3.2188 0.76315-0.70866 1.5168-1.4224 2.2812-2.125-1.6206-0.86361-3.0857-2.1153-4.2188-3.75-2.7274-3.935-2.7766-8.9004-0.53125-12.594z" fill="#eee"/>
  <path d="m523.09375,443c-.42899-.00819-.89481.01034-1.375.03125-14.04272.6114-19.06453,6.46156-26.875,11.8125-.34239,1.23861.02338,4.39158 1.59375,8.0625 .22751.53183.48065,1.07875.75,1.625l30.34375-20.96875c-1.4974-.31987-2.99096-.53488-4.4375-.5625z" fill="url(#bj)"/>
  <path d="m524.59 443.69c-6.3866 0-11.438 5.8222-11.438 12.75 0 3.3115 1.1817 6.3155 3.0625 8.5938 3.3254-2.6454 6.6466-5.2561 10-7.8438l0.0625-5.5938 5.5312-2.2188c0.441-0.17556 0.77469-0.56731 0.875-1.0312s-0.04591-0.93919-0.375-1.2812c-2.0053-2.0561-4.7287-3.375-7.7188-3.375z" fill="url(#bi)"/>
  <path d="m524.59 445.12c-5.5133 0-10 5.0673-10 11.312 0 2.9894 1.0421 5.6957 2.7188 7.7188 2.4835-1.9687 4.9697-3.9073 7.4688-5.8438l0.0625-7.6875 6.4375-2.5625c-1.7722-1.8171-4.1106-2.9375-6.6875-2.9375z" fill="#980101"/>
  <path d="m482.02687,477.67538c-3.70675,1.10477-6.75059,4.80011-6.76617,8.21438-.0117,2.55274 1.65474,4.26978 4.06056,4.49766 .28997.03156.63097-.15317.82081-.44467s.17775-.61179-.02908-.771c-.79869-.62441-1.27598-1.60642-1.27035-2.8374 .01249-2.73627 2.42371-5.66353 5.39435-6.54892 .76531-.22809 1.47966-.3063 2.12835-.24033 .28999.03155.63099-.15318.82082-.44469s.17776-.61179-.02909-.77098c-1.22896-.97161-3.08112-1.26477-5.1302-.65405z" fill="url(#ag)"/>
  <path d="m523.10936,446.78415c-3.32595.80119-6.26326,4.04511-6.52934,7.21094-.19897,2.36699 1.13259,4.06004 3.22139,4.41645 .25147.04675.56357-.10403.75127-.36294s.20081-.55673.03156-.71688c-.65286-.62729-.998-1.5669-.90206-2.7083 .21326-2.53716 2.54007-5.10684 5.20554-5.74894 .68669-.16541 1.31769-.19487 1.88057-.09458 .25148.04675.56357-.10403.75129-.36295s.2008-.55672.03155-.71687c-1.0038-.97527-2.6032-1.35884-4.44177-.91593z" fill="url(#af)"/>
  <path d="m525.34 441.5 0.28125 0.09375c4.8556 0.56263 9.8847 2.4306 14.438 5.125l3.0312-2.25c-2.5448-1.2184-12.448-3.2031-17.75-2.9688z" fill="#fff"/>
  <path d="m399.52 516.73 59.397-2.8284" fill="#fff" stroke="url(#ae)" stroke-linecap="round"/>
 </g>
 <path d="m449.42 103.23c-10.968 0.84556-21.942 1.6014-32.902 2.5504 0.09826 3.2594 6.236 0.34387 8.7301 0.91179l17.241-1.3062c-1.3144 1.2433-5.494 3.5911-5.0321 4.155 24.929-2.2584 49.923 0.33468 74.793 2.1076 1.3859-3.137-5.3917-1.3907-7.3514-2.1825-20.855-1.5646-41.803-3.239-62.718-1.8214 2.7034-3.1987 6.8548-2.7638 10.613-2.7197 22.374 0.59712 44.754 1.0412 67.13 1.5904 4.857 2.1674 9.6388 4.5028 14.542 6.566 1.8279-2.7356-5.0938-3.2332-6.7856-4.8465-3.9712-1.9504-7.9657-4.056-12.523-3.4776l-65.739-1.5272z" fill="url(#bf)" fill-rule="evenodd" opacity=".6"/>
 <path d="m332.46 104.69c-0.25086 0.89391 4.4924 0.2927 6.1381 0.73961 3.9714 0.07282 9.6641-2.3271 9.2762 4.6348 0.3332 2.9473-0.41571 7.062 3.8119 5.972 9.6724 0.44121 19.338 1.2422 29.017 1.4083 5.8209-0.06244 11.642-0.11158 17.463-0.15252-4.7762-1.2118-10.013-0.63504-14.971-1.1884-7.7986-1.7971-15.779-3.2544-23.649-4.926-2.0875 0.14104-6.4256-2.5961-7.0384-0.1073-6.5561 4.4278 13.076 2.3514 19.361 4.4122l-21.955-1.1935c-0.88696-2.8372 0.53441-8.1675-1.909-9.3301-5.1817-0.06962-10.363-0.19016-15.544-0.26912zm-2.1816 3.465-33.674 0.308c-4.4099 2.0492 2.4534 1.7096 4.236 1.5817 9.924-0.10179 19.85-0.0994 29.772-0.32403 0.82896-0.27039 0.52248-1.641-0.33366-1.5656z" fill="url(#bg)" fill-rule="evenodd" opacity=".6"/>
 <path d="m598.37 91.628c-4.1597 0.0901-8.5828 0.54148-13.167 1.386-15.62 2.8776-29.356 9.6409-37.242 17.479 26.336-2.3335 51.692-2.3946 81.542-2.31 8.9e-4 -0.06053 0-0.1192 0-0.17967 0-10.375-13.108-16.766-31.133-16.375z" fill="url(#bh)" fill-rule="evenodd" opacity=".8"/>
</svg>
