<?xml version="1.0" encoding="UTF-8" standalone="no"?>
<svg
   xmlns:dc="http://purl.org/dc/elements/1.1/"
   xmlns:cc="http://creativecommons.org/ns#"
   xmlns:rdf="http://www.w3.org/1999/02/22-rdf-syntax-ns#"
   xmlns:svg="http://www.w3.org/2000/svg"
   xmlns="http://www.w3.org/2000/svg"
   xmlns:xlink="http://www.w3.org/1999/xlink"
   xmlns:sodipodi="http://sodipodi.sourceforge.net/DTD/sodipodi-0.dtd"
   xmlns:inkscape="http://www.inkscape.org/namespaces/inkscape"
   viewBox="0 0 934 400"
   version="1.1"
   id="svg460"
   sodipodi:docname="car2.svg"
   width="934"
   height="400"
   inkscape:version="0.92.3 (2405546, 2018-03-11)">
  <metadata
     id="metadata464">
    <rdf:RDF>
      <cc:Work
         rdf:about="">
        <dc:format>image/svg+xml</dc:format>
        <dc:type
           rdf:resource="http://purl.org/dc/dcmitype/StillImage" />
        <dc:title></dc:title>
      </cc:Work>
    </rdf:RDF>
  </metadata>
  <sodipodi:namedview
     pagecolor="#ffffff"
     bordercolor="#666666"
     borderopacity="1"
     objecttolerance="10"
     gridtolerance="10"
     guidetolerance="10"
     inkscape:pageopacity="0"
     inkscape:pageshadow="2"
     inkscape:window-width="1875"
     inkscape:window-height="1025"
     id="namedview462"
     showgrid="false"
     inkscape:zoom="0.94465046"
     inkscape:cx="547.2131"
     inkscape:cy="22.039019"
     inkscape:window-x="45"
     inkscape:window-y="27"
     inkscape:window-maximized="1"
     inkscape:current-layer="svg460" />
  <defs
     id="defs176">
    <linearGradient
       id="o">
      <stop
         stop-color="#252b41"
         offset="0"
         id="stop2" />
      <stop
         stop-color="#252b41"
         stop-opacity="0"
         offset="1"
         id="stop4" />
    </linearGradient>
    <linearGradient
       id="g">
      <stop
         offset="0"
         id="stop7" />
      <stop
         stop-color="#1e1d2e"
         offset="1"
         id="stop9" />
    </linearGradient>
    <linearGradient
       id="e">
      <stop
         stop-color="#fff"
         offset="0"
         id="stop12" />
      <stop
         stop-color="#03070b"
         stop-opacity=".65482"
         offset="1"
         id="stop14" />
    </linearGradient>
    <linearGradient
       id="d">
      <stop
         stop-color="#1b2c3c"
         offset="0"
         id="stop17" />
      <stop
         stop-color="#dfe8f1"
         offset="1"
         id="stop19" />
    </linearGradient>
    <linearGradient
       id="m">
      <stop
         stop-color="#fff"
         offset="0"
         id="stop22" />
      <stop
         stop-color="#a3701c"
         offset=".21875"
         id="stop24" />
      <stop
         stop-color="#582d00"
         offset="1"
         id="stop26" />
    </linearGradient>
    <linearGradient
       id="l">
      <stop
         stop-color="#aaa"
         offset="0"
         id="stop29" />
      <stop
         stop-color="#aaa"
         stop-opacity="0"
         offset="1"
         id="stop31" />
    </linearGradient>
    <linearGradient
       id="a">
      <stop
         stop-color="#eee"
         offset="0"
         id="stop34" />
      <stop
         stop-color="#eee"
         stop-opacity="0"
         offset="1"
         id="stop36" />
    </linearGradient>
    <linearGradient
       id="b">
      <stop
         offset="0"
         id="stop39" />
      <stop
         stop-opacity="0"
         offset="1"
         id="stop41" />
    </linearGradient>
    <linearGradient
       id="f">
      <stop
         stop-color="#888"
         offset="0"
         id="stop44" />
      <stop
         stop-color="#fff"
         offset="1"
         id="stop46" />
    </linearGradient>
    <linearGradient
       id="c">
      <stop
         stop-color="#410e0e"
         offset="0"
         id="stop49" />
      <stop
         stop-color="#100303"
         stop-opacity="0"
         offset="1"
         id="stop51" />
    </linearGradient>
    <linearGradient
       id="bp"
       x1="577"
       x2="562.85999"
       y1="482.07999"
       y2="512.13"
       gradientUnits="userSpaceOnUse">
      <stop
         stop-color="#fd3301"
         offset="0"
         id="stop54" />
      <stop
         stop-color="#fd3301"
         stop-opacity="0"
         offset="1"
         id="stop56" />
    </linearGradient>
    <linearGradient
       id="n"
       x1="690.95001"
       x2="711.89001"
       gradientUnits="userSpaceOnUse">
      <stop
         stop-color="#fff"
         stop-opacity="0"
         offset="0"
         id="stop59" />
      <stop
         stop-color="#fdca01"
         offset="1"
         id="stop61" />
    </linearGradient>
    <linearGradient
       id="df"
       x1="1099.1"
       x2="993.03003"
       y1="528.76001"
       y2="879.23999"
       gradientUnits="userSpaceOnUse"
       xlink:href="#d"
       spreadMethod="reflect" />
    <linearGradient
       id="de"
       x1="1059.3"
       x2="1068.1"
       y1="539.87"
       y2="527.14001"
       gradientUnits="userSpaceOnUse"
       xlink:href="#b" />
    <linearGradient
       id="dd"
       x1="1048.8"
       x2="1070.5"
       y1="564.96997"
       y2="546.08002"
       gradientUnits="userSpaceOnUse"
       xlink:href="#a" />
    <linearGradient
       id="dc"
       x1="1067.4"
       x2="1066.3"
       y1="522.03003"
       y2="564.66998"
       gradientUnits="userSpaceOnUse"
       xlink:href="#e" />
    <linearGradient
       id="db"
       x1="1071.7"
       x2="1062.1"
       y1="584.26001"
       y2="622.65997"
       gradientUnits="userSpaceOnUse"
       xlink:href="#e" />
    <linearGradient
       id="da"
       x1="1058.5"
       x2="1054.6"
       y1="643.59003"
       y2="674.79999"
       gradientUnits="userSpaceOnUse"
       xlink:href="#e" />
    <linearGradient
       id="cz"
       x1="1038.7"
       x2="1026.2"
       y1="611.65997"
       y2="640.13"
       gradientUnits="userSpaceOnUse"
       xlink:href="#e" />
    <linearGradient
       id="cy"
       x1="1033.4"
       x2="1023"
       y1="543.91998"
       y2="572.33002"
       gradientUnits="userSpaceOnUse"
       xlink:href="#e" />
    <linearGradient
       id="cx"
       x1="1060.7"
       x2="1072.8"
       y1="611.31"
       y2="573.29999"
       gradientUnits="userSpaceOnUse"
       xlink:href="#b" />
    <linearGradient
       id="cw"
       x1="1045.3"
       x2="1065"
       y1="647.56"
       y2="618.38"
       gradientUnits="userSpaceOnUse"
       xlink:href="#b" />
    <linearGradient
       id="cv"
       x1="1031.7"
       x2="1023.8"
       y1="610.96002"
       y2="591.56"
       gradientUnits="userSpaceOnUse"
       xlink:href="#b" />
    <linearGradient
       id="cu"
       x1="1037.6"
       x2="1032.1"
       y1="545.46002"
       y2="569.35999"
       gradientUnits="userSpaceOnUse"
       xlink:href="#b" />
    <linearGradient
       id="ct"
       x1="1041.6"
       x2="1054.7"
       y1="547.35999"
       y2="545.77002"
       gradientUnits="userSpaceOnUse"
       xlink:href="#d" />
    <linearGradient
       id="cs"
       x1="1037.4"
       x2="1057.6"
       y1="613.66998"
       y2="668.41998"
       gradientUnits="userSpaceOnUse"
       xlink:href="#d" />
    <linearGradient
       id="cr"
       x1="1054.5"
       x2="1071.5"
       y1="627.21997"
       y2="638.06"
       gradientUnits="userSpaceOnUse"
       xlink:href="#d" />
    <linearGradient
       id="cq"
       x1="1030.4"
       x2="1073.3"
       y1="599.90997"
       y2="572.53003"
       gradientUnits="userSpaceOnUse"
       xlink:href="#d" />
    <linearGradient
       id="cp"
       x1="609.34998"
       x2="638.58002"
       y1="652.85999"
       y2="545.44"
       gradientUnits="userSpaceOnUse"
       xlink:href="#d"
       spreadMethod="reflect" />
    <linearGradient
       id="co"
       x1="621"
       x2="529.10999"
       y1="585.90997"
       y2="660.16998"
       gradientUnits="userSpaceOnUse"
       xlink:href="#d"
       spreadMethod="reflect" />
    <linearGradient
       id="cn"
       x1="627.95001"
       x2="636.76001"
       y1="539.87"
       y2="527.14001"
       gradientUnits="userSpaceOnUse"
       xlink:href="#b" />
    <linearGradient
       id="cm"
       x1="617.47998"
       x2="639.13"
       y1="564.96997"
       y2="546.08002"
       gradientUnits="userSpaceOnUse"
       xlink:href="#a" />
    <linearGradient
       id="cl"
       x1="636.03998"
       x2="634.97998"
       y1="522.03003"
       y2="564.66998"
       gradientUnits="userSpaceOnUse"
       xlink:href="#e" />
    <linearGradient
       id="ck"
       x1="640.39001"
       x2="630.81"
       y1="584.26001"
       y2="622.65997"
       gradientUnits="userSpaceOnUse"
       xlink:href="#e" />
    <linearGradient
       id="cj"
       x1="627.19"
       x2="623.25"
       y1="643.59003"
       y2="674.79999"
       gradientUnits="userSpaceOnUse"
       xlink:href="#e" />
    <linearGradient
       id="ci"
       x1="607.39001"
       x2="594.90997"
       y1="611.65997"
       y2="640.13"
       gradientUnits="userSpaceOnUse"
       xlink:href="#e" />
    <linearGradient
       id="ch"
       x1="602.03003"
       x2="591.70001"
       y1="543.91998"
       y2="572.33002"
       gradientUnits="userSpaceOnUse"
       xlink:href="#e" />
    <linearGradient
       id="cg"
       x1="629.38"
       x2="641.47998"
       y1="611.31"
       y2="573.29999"
       gradientUnits="userSpaceOnUse"
       xlink:href="#b" />
    <linearGradient
       id="cf"
       x1="613.96002"
       x2="633.66998"
       y1="647.56"
       y2="618.38"
       gradientUnits="userSpaceOnUse"
       xlink:href="#b" />
    <linearGradient
       id="ce"
       x1="600.34998"
       x2="592.51001"
       y1="610.96002"
       y2="591.56"
       gradientUnits="userSpaceOnUse"
       xlink:href="#b" />
    <linearGradient
       id="cd"
       x1="606.28998"
       x2="600.71997"
       y1="545.46002"
       y2="569.35999"
       gradientUnits="userSpaceOnUse"
       xlink:href="#b" />
    <linearGradient
       id="cc"
       x1="610.31"
       x2="623.40997"
       y1="547.35999"
       y2="545.77002"
       gradientUnits="userSpaceOnUse"
       xlink:href="#d" />
    <linearGradient
       id="cb"
       x1="606.04999"
       x2="626.21997"
       y1="613.66998"
       y2="668.41998"
       gradientUnits="userSpaceOnUse"
       xlink:href="#d" />
    <linearGradient
       id="ca"
       x1="623.20001"
       x2="640.16998"
       y1="627.21997"
       y2="638.06"
       gradientUnits="userSpaceOnUse"
       xlink:href="#d" />
    <linearGradient
       id="bz"
       x1="599.09998"
       x2="642"
       y1="599.90997"
       y2="572.53003"
       gradientUnits="userSpaceOnUse"
       xlink:href="#d" />
    <linearGradient
       id="by"
       x1="391.63"
       x2="350.01001"
       y1="525.75"
       y2="657.29999"
       gradientUnits="userSpaceOnUse"
       xlink:href="#b" />
    <linearGradient
       id="bx"
       x1="370.79001"
       x2="432.79001"
       y1="733.71997"
       y2="568.25"
       gradientUnits="userSpaceOnUse"
       xlink:href="#a" />
    <linearGradient
       id="bw"
       x1="356.13"
       x2="357.01001"
       y1="657.29999"
       y2="638.29999"
       gradientUnits="userSpaceOnUse"
       xlink:href="#b" />
    <linearGradient
       id="bv"
       x1="50.771999"
       x2="71.355003"
       y1="420.28"
       y2="470.67001"
       gradientUnits="userSpaceOnUse"
       xlink:href="#a" />
    <linearGradient
       id="bu"
       x1="-2.7931001"
       x2="-0.52149999"
       y1="515"
       y2="491.45999"
       gradientUnits="userSpaceOnUse"
       xlink:href="#l" />
    <linearGradient
       id="bt"
       x2="0"
       y1="509.64999"
       y2="500.10999"
       gradientUnits="userSpaceOnUse"
       xlink:href="#a" />
    <linearGradient
       id="bs"
       x1="41.055"
       x2="63.48"
       y1="431.75"
       y2="457.51999"
       gradientUnits="userSpaceOnUse"
       xlink:href="#a" />
    <linearGradient
       id="br"
       x1="52.458"
       x2="65.612999"
       y1="473.51999"
       y2="449.10999"
       gradientUnits="userSpaceOnUse"
       xlink:href="#a" />
    <linearGradient
       id="bq"
       x1="41.741001"
       x2="64.108002"
       y1="420.98001"
       y2="452.07001"
       gradientTransform="matrix(1.2602,-0.54079,-0.070165,1.0859,-3.803,9.3962)"
       gradientUnits="userSpaceOnUse"
       xlink:href="#a" />
    <linearGradient
       id="bo"
       x1="527.96997"
       x2="524.5"
       y1="440.59"
       y2="457.09"
       gradientUnits="userSpaceOnUse"
       xlink:href="#l" />
    <linearGradient
       id="bn"
       x1="494.35999"
       x2="503.73001"
       y1="449.44"
       y2="461.89001"
       gradientUnits="userSpaceOnUse"
       xlink:href="#f"
       spreadMethod="reflect" />
    <linearGradient
       id="bm"
       x1="470.5"
       x2="479.85999"
       y1="474.01001"
       y2="485.41"
       gradientUnits="userSpaceOnUse"
       xlink:href="#f"
       spreadMethod="reflect" />
    <linearGradient
       id="bl"
       x1="490.31"
       x2="491.38"
       y1="465.17001"
       y2="473.16"
       gradientUnits="userSpaceOnUse"
       xlink:href="#b" />
    <linearGradient
       id="bk"
       x1="463.07999"
       x2="473.85001"
       y1="474.12"
       y2="481.29001"
       gradientUnits="userSpaceOnUse"
       xlink:href="#b" />
    <linearGradient
       id="bj"
       x1="502.48001"
       x2="511.13"
       y1="440.04999"
       y2="455.03"
       gradientUnits="userSpaceOnUse"
       xlink:href="#b" />
    <linearGradient
       id="bi"
       x1="516.01001"
       x2="529.97998"
       y1="457.51001"
       y2="450.26001"
       gradientUnits="userSpaceOnUse"
       xlink:href="#f" />
    <linearGradient
       id="bh"
       x1="579.32001"
       x2="610.91998"
       y1="119.64"
       y2="91.611"
       gradientUnits="userSpaceOnUse"
       xlink:href="#o"
       gradientTransform="matrix(1.2637263,0,0,1.2793098,-165.21544,-40.195723)" />
    <linearGradient
       id="bg"
       x1="347.97"
       x2="348.69"
       y1="120.44"
       y2="111.07"
       gradientUnits="userSpaceOnUse"
       xlink:href="#d"
       gradientTransform="matrix(1.2637263,0,0,1.2793098,-165.21544,-40.195723)" />
    <linearGradient
       id="bf"
       x1="460.87"
       x2="463.23001"
       y1="123.73"
       y2="86.958"
       gradientUnits="userSpaceOnUse"
       xlink:href="#d"
       gradientTransform="matrix(1.2637263,0,0,1.2793098,-165.21544,-40.195723)" />
    <linearGradient
       id="be"
       x1="777.51001"
       x2="771.40997"
       y1="286.39999"
       y2="250.67999"
       gradientUnits="userSpaceOnUse"
       xlink:href="#a"
       gradientTransform="matrix(1.2637263,0,0,1.2793098,-165.21544,-40.195723)" />
    <linearGradient
       id="bd"
       x1="738.21997"
       x2="736.97998"
       y1="73.299004"
       y2="108.25"
       gradientUnits="userSpaceOnUse"
       xlink:href="#c"
       gradientTransform="matrix(1.2637263,0,0,1.2793098,-165.21544,-40.195723)" />
    <linearGradient
       id="bc"
       x1="558.90002"
       x2="748.90997"
       y1="219.24001"
       y2="149.92"
       gradientUnits="userSpaceOnUse"
       xlink:href="#m"
       gradientTransform="matrix(1.2637263,0,0,1.2793098,-165.21544,-40.195723)" />
    <linearGradient
       id="bb"
       x1="303.48999"
       x2="319.70999"
       gradientUnits="userSpaceOnUse"
       xlink:href="#f"
       gradientTransform="matrix(1.2637263,0,0,1.2793098,-165.21544,-40.195723)" />
    <linearGradient
       id="ba"
       x1="183.46001"
       x2="187.06"
       y1="296.09"
       y2="274.17001"
       gradientUnits="userSpaceOnUse"
       xlink:href="#b"
       gradientTransform="matrix(1.2637263,0,0,1.2793098,-165.21544,-40.195723)" />
    <linearGradient
       id="az"
       x1="162.49001"
       x2="159"
       y1="320.87"
       y2="260.47"
       gradientUnits="userSpaceOnUse"
       xlink:href="#a"
       gradientTransform="matrix(1.2637263,0,0,1.2793098,-165.21544,-40.195723)" />
    <linearGradient
       id="ay"
       x1="606.72998"
       x2="599"
       y1="287.17001"
       y2="335.32001"
       gradientUnits="userSpaceOnUse"
       xlink:href="#a"
       gradientTransform="matrix(1.2637263,0,0,1.2793098,-165.21544,-40.195723)" />
    <linearGradient
       id="ax"
       x1="600.91998"
       x2="596.95001"
       y1="90.495003"
       y2="55.882999"
       gradientUnits="userSpaceOnUse"
       xlink:href="#o"
       gradientTransform="matrix(1.2637263,0,0,1.2793098,-165.21544,-40.195723)" />
    <linearGradient
       id="aw"
       x1="176.85001"
       x2="463.69"
       gradientUnits="userSpaceOnUse"
       xlink:href="#m"
       gradientTransform="matrix(1.2637263,0,0,1.2793098,-165.21544,-40.195723)" />
    <linearGradient
       id="av"
       x1="182.35001"
       x2="339.87"
       y1="175.27"
       y2="89.605003"
       gradientUnits="userSpaceOnUse"
       xlink:href="#a"
       gradientTransform="matrix(1.2637263,0,0,1.2793098,-165.21544,-40.195723)" />
    <linearGradient
       id="au"
       x1="312.88"
       x2="313.72"
       y1="307.32001"
       y2="284.95001"
       gradientUnits="userSpaceOnUse"
       xlink:href="#c"
       gradientTransform="matrix(1.2637263,0,0,1.2793098,-165.21544,-40.195723)" />
    <linearGradient
       id="at"
       x1="308.20001"
       x2="327.17001"
       y1="361.45001"
       y2="218.00999"
       gradientUnits="userSpaceOnUse"
       xlink:href="#a"
       gradientTransform="matrix(1.2637263,0,0,1.2793098,-165.21544,-40.195723)" />
    <linearGradient
       id="as"
       x1="278.38"
       x2="280.04001"
       y1="267.07999"
       y2="312.14999"
       gradientUnits="userSpaceOnUse"
       xlink:href="#c"
       gradientTransform="matrix(1.2637263,0,0,1.2793098,-165.21544,-40.195723)" />
    <linearGradient
       id="ar"
       x1="754.96002"
       x2="696.35999"
       y1="22.500999"
       y2="166.28999"
       gradientUnits="userSpaceOnUse"
       xlink:href="#c"
       gradientTransform="matrix(1.2637263,0,0,1.2793098,-165.21544,-40.195723)" />
    <pattern
       id="ao"
       width="17.5"
       height="13"
       patternTransform="translate(308.75 855.34)"
       patternUnits="userSpaceOnUse">
      <path
         d="m6.6667 9.6667c0-1.84-1.4934-3.3333-3.3333-3.3333s-3.3333 1.4933-3.3333 3.3333 1.4933 3.3333 3.3333 3.3333 3.3333-1.4933 3.3333-3.3333z"
         fill-rule="evenodd"
         id="path130" />
      <path
         d="m14 9.6667c0-1.84-1.4934-3.3333-3.3333-3.3333s-3.3334 1.4933-3.3333 3.3333 1.4933 3.3333 3.3333 3.3333 3.3333-1.4933 3.3333-3.3333z"
         fill-rule="evenodd"
         id="path132" />
      <path
         d="m10.167 3.3333c0-1.84-1.4934-3.3333-3.3333-3.3333s-3.3333 1.4933-3.3333 3.3333 1.4933 3.3333 3.3333 3.3333 3.3333-1.4933 3.3333-3.3333z"
         fill-rule="evenodd"
         id="path134" />
      <path
         d="m17.5 3.3333c0-1.84-1.4934-3.3333-3.3333-3.3333s-3.3334 1.4933-3.3333 3.3333 1.4933 3.3333 3.3333 3.3333 3.3333-1.4933 3.3333-3.3333z"
         fill-rule="evenodd"
         id="path136" />
    </pattern>
    <pattern
       id="ap"
       xlink:href="#aq"
       patternTransform="matrix(0.62952526,0,0,0.63728818,363.09798,563.86877)" />
    <pattern
       id="aq"
       xlink:href="#k"
       patternTransform="matrix(.60653 0 0 .60653 456.49 743.92)" />
    <pattern
       id="k"
       xlink:href="#ao"
       patternTransform="matrix(.60653 0 0 .60653 308.75 855.34)" />
    <radialGradient
       id="j"
       cx="540.56"
       cy="440.62"
       r="424.04999"
       gradientTransform="matrix(1,0,0,0.48562,0,226.65)"
       gradientUnits="userSpaceOnUse">
      <stop
         offset="0"
         id="stop142" />
      <stop
         stop-opacity=".49804"
         offset=".69531"
         id="stop144" />
      <stop
         stop-opacity="0"
         offset="1"
         id="stop146" />
    </radialGradient>
    <radialGradient
       id="an"
       cx="621.83002"
       cy="590.57001"
       r="71.858002"
       gradientTransform="matrix(0.72473,4.7749e-7,-9.2254e-7,1.4002,607.01,-234.04)"
       gradientUnits="userSpaceOnUse"
       xlink:href="#g"
       spreadMethod="reflect" />
    <radialGradient
       id="am"
       cx="632.27002"
       cy="608.5"
       r="71.858002"
       gradientTransform="matrix(0.49031,0.012063,-0.019763,0.80327,779.59,102.59)"
       gradientUnits="userSpaceOnUse"
       xlink:href="#a"
       spreadMethod="reflect" />
    <radialGradient
       id="al"
       cx="627.10999"
       cy="603.69"
       r="71.858002"
       gradientTransform="matrix(0.85686,0,1.7021e-6,1.6555,524.14,-388.15)"
       gradientUnits="userSpaceOnUse"
       xlink:href="#b"
       spreadMethod="reflect" />
    <radialGradient
       id="i"
       cx="624.90997"
       cy="583.84998"
       r="8.25"
       gradientTransform="matrix(11.672,0,0,10.017,-6665.7,-5267.5)"
       gradientUnits="userSpaceOnUse"
       xlink:href="#e" />
    <radialGradient
       id="ak"
       cx="621.83002"
       cy="590.57001"
       r="71.858002"
       gradientTransform="matrix(0.72473,4.7749e-7,-9.2254e-7,1.4002,175.67,-234.04)"
       gradientUnits="userSpaceOnUse"
       xlink:href="#g"
       spreadMethod="reflect" />
    <radialGradient
       id="aj"
       cx="632.27002"
       cy="608.5"
       r="71.858002"
       gradientTransform="matrix(0.49031,0.012063,-0.019763,0.80327,348.25,102.59)"
       gradientUnits="userSpaceOnUse"
       xlink:href="#a"
       spreadMethod="reflect" />
    <radialGradient
       id="ai"
       cx="627.10999"
       cy="603.69"
       r="71.858002"
       gradientTransform="matrix(0.72473,4.7749e-7,-9.2254e-7,1.4002,175.67,-234.04)"
       gradientUnits="userSpaceOnUse"
       xlink:href="#b"
       spreadMethod="reflect" />
    <radialGradient
       id="ah"
       cx="740.09998"
       cy="545.54999"
       r="41.689999"
       gradientTransform="matrix(2.9001,0,0,4.6481,-1417.3,-1993.7)"
       gradientUnits="userSpaceOnUse"
       xlink:href="#c" />
    <radialGradient
       id="ag"
       cx="498.17999"
       cy="456.26999"
       r="5.5546999"
       gradientTransform="matrix(3.5471,0,0.84321,3.8858,-1683.1,-1299.1)"
       gradientUnits="userSpaceOnUse"
       xlink:href="#a" />
    <radialGradient
       id="af"
       cx="512.21997"
       cy="446.95999"
       r="5.5546999"
       gradientTransform="matrix(2.9095,0,0,3.0953,-978.07,-936.85)"
       gradientUnits="userSpaceOnUse"
       xlink:href="#a" />
    <radialGradient
       id="ae"
       cx="429.20999"
       cy="515.31"
       r="29.948"
       gradientTransform="matrix(1.5498,0,0,0.086121,-235.98,470.93)"
       gradientUnits="userSpaceOnUse"
       xlink:href="#a" />
    <radialGradient
       id="ad"
       cx="692.58002"
       cy="414.13"
       r="109.08"
       gradientTransform="matrix(0.28248074,-7.0939008e-8,8.7887109e-8,0.93564881,723.31052,-265.00884)"
       gradientUnits="userSpaceOnUse"
       xlink:href="#c" />
    <radialGradient
       id="ac"
       cx="672.33002"
       cy="444.14001"
       r="11.276"
       gradientTransform="matrix(-1.9150508,0.48204393,-1.2262315,-4.9923786,2537.6424,2054.1623)"
       gradientUnits="userSpaceOnUse"
       xlink:href="#c" />
    <radialGradient
       id="h"
       cx="735.35999"
       cy="662.38"
       r="78.530998"
       gradientTransform="matrix(2.7554288,-0.75504864,0.15677788,0.58635885,-1324.1409,489.88629)"
       gradientUnits="userSpaceOnUse"
       xlink:href="#a" />
    <radialGradient
       id="ab"
       cx="677.77002"
       cy="596.82001"
       r="78.530998"
       gradientTransform="matrix(1.5020651,-0.55739528,0.12723196,0.35136244,-405.3108,494.01846)"
       gradientUnits="userSpaceOnUse"
       xlink:href="#a" />
    <radialGradient
       id="aa"
       cx="731.87"
       cy="603.62"
       r="78.530998"
       gradientTransform="matrix(0.92839653,-0.27727761,0.16979427,0.58262327,-71.761613,162.58767)"
       gradientUnits="userSpaceOnUse"
       xlink:href="#a" />
    <radialGradient
       id="z"
       cx="670.29999"
       cy="458.76001"
       r="43.911999"
       gradientTransform="matrix(3.9859191,0.83102685,-1.0494741,5.1585609,-1348.0001,-2799.667)"
       gradientUnits="userSpaceOnUse"
       xlink:href="#c" />
    <radialGradient
       id="y"
       cx="669.96997"
       cy="436.95001"
       r="11.276"
       gradientTransform="matrix(2.1940816,-2.2211377,3.6033892,3.647824,-2352.4729,11.869627)"
       gradientUnits="userSpaceOnUse"
       xlink:href="#c" />
    <radialGradient
       id="x"
       cx="683.88"
       cy="438.91"
       r="11.276"
       gradientTransform="matrix(5.4599295,3.1433921e-6,-2.1485875e-6,3.8262877,-3009.4842,-1569.6106)"
       gradientUnits="userSpaceOnUse"
       xlink:href="#c" />
    <radialGradient
       id="w"
       cx="694.37"
       cy="440.88"
       r="11.276"
       gradientTransform="matrix(3.6726414,0,0,5.4519066,-1787.2081,-2283.2096)"
       gradientUnits="userSpaceOnUse"
       xlink:href="#c" />
    <radialGradient
       id="v"
       cx="743.96002"
       cy="403.92001"
       r="18.188"
       gradientTransform="matrix(2.2015376,0.59715623,-0.28189943,1.0650382,-697.92662,-793.5301)"
       gradientUnits="userSpaceOnUse"
       xlink:href="#c" />
    <radialGradient
       id="u"
       cx="759.13"
       cy="384.78"
       r="109.08"
       gradientTransform="matrix(2.4386126,-0.67374851,0.47324022,1.7554689,-1141.5577,-80.611679)"
       gradientUnits="userSpaceOnUse"
       xlink:href="#c" />
    <radialGradient
       id="t"
       cx="694.81"
       cy="524.13"
       r="74.5"
       gradientTransform="matrix(2.9336142,-0.79575628,0.30961294,1.1697369,-1439.557,96.869529)"
       gradientUnits="userSpaceOnUse"
       xlink:href="#c" />
    <radialGradient
       id="s"
       cx="546.21997"
       cy="282.17001"
       r="85.484001"
       gradientTransform="matrix(3.5654774,0,0,2.315039,-1350.6413,-669.98715)"
       gradientUnits="userSpaceOnUse"
       xlink:href="#c" />
    <radialGradient
       id="r"
       cx="485.42001"
       cy="622.21997"
       r="83.828003"
       gradientTransform="matrix(0.90448682,-0.26573823,0.46708588,1.629329,-175.95446,-555.93668)"
       gradientUnits="userSpaceOnUse"
       xlink:href="#a" />
    <radialGradient
       id="q"
       cx="144.49001"
       cy="843.38"
       r="329.03"
       gradientTransform="matrix(2.4766508,-0.20756802,0.04690826,0.57357855,-216.80959,-198.25445)"
       gradientUnits="userSpaceOnUse"
       xlink:href="#c" />
    <radialGradient
       id="p"
       cx="623.78003"
       cy="586.53003"
       r="71.858002"
       gradientTransform="matrix(0.73389641,0.04235795,-0.00517306,1.3593946,-256.38445,-551.70217)"
       gradientUnits="userSpaceOnUse"
       xlink:href="#g"
       spreadMethod="reflect" />
    <radialGradient
       inkscape:collect="always"
       xlink:href="#e"
       id="radialGradient492"
       gradientUnits="userSpaceOnUse"
       gradientTransform="matrix(11.672,0,0,10.017,-6665.7,-5267.5)"
       cx="624.90997"
       cy="583.84998"
       r="8.25" />
    <radialGradient
       inkscape:collect="always"
       xlink:href="#a"
       id="radialGradient494"
       gradientUnits="userSpaceOnUse"
       gradientTransform="matrix(2.7554288,-0.75504864,0.15677788,0.58635885,-1324.1409,489.88629)"
       cx="735.35999"
       cy="662.38"
       r="78.530998" />
    <linearGradient
       inkscape:collect="always"
       xlink:href="#n"
       id="linearGradient496"
       gradientUnits="userSpaceOnUse"
       x1="690.95001"
       x2="711.89001"
       gradientTransform="matrix(1.2637263,0,0,1.2793098,-165.21544,-40.195723)" />
    <linearGradient
       inkscape:collect="always"
       xlink:href="#n"
       id="linearGradient498"
       gradientUnits="userSpaceOnUse"
       x1="690.95001"
       x2="711.89001"
       gradientTransform="matrix(1.2637263,0,0,1.2793098,-165.21544,-40.195723)" />
  </defs>
  <path
     d="m 689.13935,135.99081 c -2.36835,0.0959 -4.78321,0.56942 -7.23307,1.47761 -31.3581,11.6247 -56.79438,87.10436 -56.79438,168.4723 0,18.29029 1.28318,35.33837 3.6327,50.63252 l 105.34928,-32.67101 c 2.97924,-19.00415 4.63826,-39.32982 4.63826,-60.05592 0,-75.01489 -21.64637,-128.9928 -49.59368,-127.86061 z"
     id="path182"
     inkscape:connector-curvature="0"
     style="fill-rule:evenodd;stroke-width:1.27149415" />
  <path
     d="m 912.7178,134.91619 c -18.77392,0.65213 -25.95189,38.01086 -31.81937,84.84639 -2.67252,21.33377 -5.48684,44.27691 -5.7411,62.97786 l 0.38922,-2.88945 46.05777,-80.54535 1.68657,0.55819 c 2.8382,-37.31746 -0.60295,-65.29469 -10.57385,-64.94799 z"
     id="path184"
     inkscape:connector-curvature="0"
     style="fill-rule:evenodd;stroke-width:1.27149415" />
  <g
     transform="matrix(0.44553933,0,0.01915177,0.72146674,427.15625,-191.60204)"
     id="g192"
     style="fill-rule:evenodd">
    <path
       d="m 1049,478.84 -142.97,1.125 c -24.178,0 -49.399,51.541 -52.041,111.34 -2.642,59.799 14.822,104.31 39,104.31 l 146.45,-0.0937 c 24.178,0 45.951,-48.541 48.594,-108.34 2.643,-59.799 -14.854,-108.34 -39.031,-108.34 z"
       id="path186"
       style="fill:url(#an)"
       inkscape:connector-curvature="0" />
    <path
       d="m 1049,478.84 -143.13,1.125 c -24.178,0 -49.399,51.541 -52.041,111.34 -2.642,59.799 14.822,104.31 39,104.31 l 146.61,-0.0937 c 24.178,0 45.951,-48.541 48.594,-108.34 2.643,-59.799 -14.854,-108.34 -39.031,-108.34 z"
       id="path188"
       style="opacity:0.14522998;fill:url(#am)"
       inkscape:connector-curvature="0" />
    <path
       d="m 1049,478.84 -142.97,1.125 c -24.178,0 -49.399,51.541 -52.041,111.34 -2.642,59.799 14.822,104.31 39,104.31 l 146.45,-0.0937 c 24.178,0 45.951,-48.541 48.594,-108.34 2.643,-59.799 -14.854,-108.34 -39.031,-108.34 z"
       id="path190"
       style="fill:url(#al)"
       inkscape:connector-curvature="0" />
  </g>
  <g
     transform="matrix(0.44553933,0,0.01398313,0.72146674,430.98534,-191.60204)"
     id="g230"
     style="fill-rule:evenodd">
    <path
       d="m 1055.7,493.12 c -0.7974,-0.0125 -1.5894,0.0546 -2.4063,0.21875 -18.848,3.7863 -32.477,50.153 -32.094,101.41 0.3797,50.788 12.819,87.813 30.094,83.625 19.096,-4.6294 32.113,-49.619 32.094,-100.41 0.5239,-48.406 -11.473,-84.589 -27.688,-84.844 z"
       id="path194"
       style="fill:url(#df)"
       inkscape:connector-curvature="0" />
    <path
       d="m 1063.6,508.88 c 5.7847,-0.3625 8.75,13.536 8.75,27.75 0,1.9644 -0.061,3.8928 -0.1866,5.759 -6.7078,5.8354 -13.362,12.573 -18.727,16.473 -0.3836,-3.616 0.1078,-10.185 0.1636,-19.482 0.085,-14.15 1.5593,-29.971 10,-30.5 z"
       id="path196"
       style="fill:url(#de)"
       inkscape:connector-curvature="0" />
    <path
       d="m 1053.4,558.91 13.634,-11.927 4.6617,-0.89905 -16.619,16.561 c -0.7118,-0.86258 -1.2977,-2.0401 -1.6767,-3.7348 z"
       id="path198"
       style="fill:url(#dd)"
       inkscape:connector-curvature="0" />
    <path
       d="m 1063.5851,508.875 c -3.9852,0.24974 -6.4086,3.90538 -7.875,9.1875 5.3226,-0.0265 1.7786,11.10196 2.8438,11.1875 5.3522,0.42983 9.2812,3.97707 9.2812,13.375 0,1.42682 -0.2387,2.79034 -0.6562,4.09375 -0.4003,1.24963 1.7127,0.6142 3.8125,0 l -15.8438,15.84375 c 1.6636,1.4986 3.6135,2.29918 5.6875,2.0625 6.572,-0.75 10.25,-8.03003 11,-16.25 0,-0.63361 -0.043,-1.2569 -0.094,-1.875 0,-0.0101 0,-0.0212 0,-0.0312 0.3913,-3.08513 0.5937,-6.3939 0.5937,-9.84375 0,-14.214 -2.9653,-28.1125 -8.75,-27.75 z"
       id="path200"
       style="fill:url(#dc)"
       inkscape:connector-curvature="0" />
    <path
       transform="matrix(0.99849,0,0,1.1039,426.44,-60.056)"
       d="m 632,584.86 c 0,12.15 -3.6936,22 -8.25,22 -4.5564,0 -8.25,-9.8497 -8.25,-22 0,-12.1503 3.6936,-22 8.25,-22 4.5564,0 8.25,9.8497 8.25,22 z"
       id="path202"
       style="fill:url(#radialGradient492)"
       inkscape:connector-curvature="0" />
    <path
       d="m 1071.6,569 c -4.1149,0.19662 -7.5869,5.4053 -9.4063,13.125 2.6496,-3.3825 6.2757,-6.9225 9.125,-8.6562 2.2332,-1.3588 2.6437,5.7852 -5.125,8.2188 1.9044,5.1405 2.8593,29.374 -1.5937,29.625 -0.716,0.0404 -1.5669,-1.1496 -2.375,-2.9062 1.7807,8.516 5.0998,14.25 9.0625,14.25 5.6532,0 10.062,-11.617 10.062,-26.438 0,-14.821 -3.58,-26.815 -9.125,-27.219 -0.2064,-0.0151 -0.4215,-0.01 -0.625,0 z"
       id="path204"
       style="fill:url(#db)"
       inkscape:connector-curvature="0" />
    <path
       d="m 1052.9,613.56 c -2.0224,-0.0121 -3.5423,1.8061 -4.6563,4.8125 3.1394,4.3487 5.7538,14.992 8.5,20.594 5.9447,12.127 -0.4832,19.024 -10.156,17.594 -0.3013,-0.0445 -0.6178,-0.14672 -0.9375,-0.28125 0.8164,8.0979 3.1821,13.44 9.1562,14.094 4.313,0.47175 7.2814,-8.405 8.5,-28.5 1.1899,-19.62 -4.4214,-27.391 -9.875,-28.25 -0.185,-0.0291 -0.3542,-0.0614 -0.5312,-0.0625 z"
       id="path206"
       style="fill:url(#da)"
       inkscape:connector-curvature="0" />
    <path
       d="m 1034.4,583.19 c -2.824,-0.0697 -5.8475,3.6872 -8.1562,9.25 0.1049,-0.0685 0.2076,-0.16327 0.3125,-0.21875 8.0242,-4.2426 7.7812,13.307 7.7812,23.406 0,6.6545 -0.9934,17.457 -2.9375,24.062 0.6828,0.32156 1.3914,0.48578 2.125,0.4375 6.9456,-0.45703 11.149,-8.989 9.0938,-28.906 -1.454,-14.093 -1.9737,-27.877 -8.2188,-28.031 z"
       id="path208"
       style="fill:url(#cz)"
       inkscape:connector-curvature="0" />
    <path
       d="m 1039.6,515.53 c -0.2035,0.0148 -0.4119,0.0514 -0.625,0.0937 -1.1427,0.22732 -2.1711,1.0504 -3.0937,2.3438 7.6774,0.37027 3.7147,13.981 3.0312,25.25 -0.7713,12.719 -2.5708,20.683 -5.5312,23.062 1.6249,3.4278 3.5397,5.6 5.25,6 4.0829,0.95488 9.0625,-13.877 9.0625,-29.469 0,-15.105 -1.7854,-27.74 -8.0938,-27.281 z"
       id="path210"
       style="fill:url(#cy)"
       inkscape:connector-curvature="0" />
    <path
       d="m 1071.8,573.31 c -0.1238,0.0217 -0.2667,0.0713 -0.4063,0.15625 -2.8493,1.7338 -6.4754,5.2737 -9.125,8.6562 -0.9927,3.8452 -1.5625,8.3306 -1.5625,13.125 0,4.822 0.5904,9.2964 1.5938,13.156 0.8081,1.7566 1.659,2.9467 2.375,2.9062 4.453,-0.25147 3.4981,-24.484 1.5937,-29.625 7.2831,-2.2814 7.388,-8.7008 5.5313,-8.375 z"
       id="path212"
       style="fill:url(#cx)"
       inkscape:connector-curvature="0" />
    <path
       d="m 1048.3,618.38 c -1.9084,5.1508 -2.6753,13.852 -2.9062,23.125 -0.1378,5.5327 -0.1167,10.524 0.3125,14.781 0.3197,0.13453 0.6362,0.23671 0.9375,0.28125 9.673,1.4303 16.101,-5.4672 10.156,-17.594 -2.7462,-5.6022 -5.3606,-16.245 -8.5,-20.594 z"
       id="path214"
       style="fill:url(#cw)"
       inkscape:connector-curvature="0" />
    <path
       d="m 1028.6,591.56 c -0.6139,0.0385 -1.2789,0.2585 -2.0312,0.65625 -0.1049,0.0555 -0.2076,0.15022 -0.3125,0.21875 -2.2166,5.3409 -3.75,12.358 -3.75,19.312 0,12.574 3.6188,25.447 8.9062,27.938 1.9441,-6.6052 2.9375,-17.408 2.9375,-24.062 0,-9.1528 0.1845,-24.435 -5.75,-24.062 z"
       id="path216"
       style="fill:url(#cv)"
       inkscape:connector-curvature="0" />
    <path
       d="m 1035.9,517.97 c -3.0837,4.3226 -4.9817,14.023 -5.9688,25.531 -0.8048,9.3832 0.9903,17.553 3.4688,22.781 2.9604,-2.3796 4.7599,-10.344 5.5312,-23.062 0.6835,-11.269 4.6462,-24.88 -3.0312,-25.25 z"
       id="path218"
       style="fill:url(#cu)"
       inkscape:connector-curvature="0" />
    <path
       d="m 1046.8,527.78 c -1.3235,2.8088 -2.6256,8.5306 -3.3125,15.125 -0.9758,9.3678 -0.3502,16.969 1.4063,16.969 0.3158,0 0.6642,-0.26106 1,-0.71875 1.0786,-4.8211 1.75,-10.534 1.75,-16.344 0,-5.5085 -0.2361,-10.695 -0.8438,-15.031 z"
       id="path220"
       style="opacity:0.3;fill:url(#ct)"
       inkscape:connector-curvature="0" />
    <path
       d="m 1039.1,609.12 c -1.794,0 -2.2419,12.768 -1,28.5 0.016,0.2044 0.046,0.39037 0.062,0.59375 2.7145,-2.3833 4.5111,-7.0786 4.9063,-14.469 -1.2428,-8.6868 -2.7521,-14.625 -3.9688,-14.625 z"
       id="path222"
       style="opacity:0.3;fill:url(#cs)"
       inkscape:connector-curvature="0" />
    <path
       d="m 1055.8,616.38 c -3.3663,0 0,8.9817 7.6563,21.688 0.1635,-9.8669 -1.5767,-16.28 -4.0625,-20.062 -1.5077,-1.0618 -2.7433,-1.625 -3.5938,-1.625 z"
       id="path224"
       style="opacity:0.4;fill:url(#cr)"
       inkscape:connector-curvature="0" />
    <path
       d="m 1042.3,572.53 c -0.8179,3.7717 -1.3125,8.2255 -1.3125,13.031 0,5.3676 0.5924,10.322 1.5938,14.344 2.1722,-2.0717 3.7187,-7.3309 3.7187,-13.531 0,-6.473 -1.6766,-11.982 -4,-13.844 z"
       id="path226"
       style="fill:url(#cq)"
       inkscape:connector-curvature="0" />
    <path
       d="m 1055.6,494.16 c -11.895,2.7967 -16.597,15.965 -20.781,26.094 -2.7262,8.177 -4.8983,16.516 -6.5313,24.969 1.5643,-7.5983 3.5743,-15.099 6.0313,-22.469 4.1839,-10.129 8.8862,-23.297 20.781,-26.094 8.4892,-0.37873 13.234,8.6855 16.375,15.281 11.272,27.793 11.222,58.763 9.6563,88.406 -0.9135,9.8404 -1.9894,19.873 -3.875,29.688 2.2028,-10.608 3.3837,-21.508 4.375,-32.188 1.5657,-29.643 1.6158,-60.613 -9.6563,-88.406 -3.1407,-6.5958 -7.8858,-15.66 -16.375,-15.281 z"
       id="path228"
       inkscape:connector-curvature="0"
       style="fill:#ffffff" />
  </g>
  <g
     transform="matrix(1.0379237,0,0,1.0507227,42.642264,-334.85915)"
     id="g276"
     style="fill-rule:evenodd">
    <path
       d="m 617.66,478.84 -52.115,1.125 c -24.178,0 -49.399,51.541 -52.041,111.34 -2.642,59.799 14.822,104.31 39,104.31 l 55.594,-0.0937 c 24.178,0 45.951,-48.541 48.594,-108.34 2.643,-59.799 -14.854,-108.34 -39.031,-108.34 z"
       id="path232"
       style="fill:url(#ak)"
       inkscape:connector-curvature="0" />
    <path
       d="m 617.66,478.84 -52.115,1.125 c -24.178,0 -49.399,51.541 -52.041,111.34 -2.642,59.799 14.822,104.31 39,104.31 l 55.594,-0.0937 c 24.178,0 45.951,-48.541 48.594,-108.34 2.643,-59.799 -14.854,-108.34 -39.031,-108.34 z"
       id="path234"
       style="opacity:0.14522998;fill:url(#aj)"
       inkscape:connector-curvature="0" />
    <path
       d="m 617.66,478.84 -52.115,1.125 c -24.178,0 -49.399,51.541 -52.041,111.34 -2.642,59.799 14.822,104.31 39,104.31 l 55.594,-0.0937 c 24.178,0 45.951,-48.541 48.594,-108.34 2.643,-59.799 -14.854,-108.34 -39.031,-108.34 z"
       id="path236"
       style="fill:url(#ai)"
       inkscape:connector-curvature="0" />
    <path
       d="m 622.41,495.12 c -0.79742,-0.0125 -1.5893,0.0546 -2.4062,0.21875 -18.848,3.7863 -32.477,50.153 -32.094,101.41 0.3797,50.788 12.819,87.813 30.094,83.625 19.096,-4.6294 32.113,-49.619 32.094,-100.41 0.52392,-48.406 -11.473,-84.589 -27.688,-84.844 z"
       id="path238"
       style="fill:url(#cp)"
       inkscape:connector-curvature="0" />
    <path
       d="m 624.41,493.12 c -0.79742,-0.0125 -1.5893,0.0546 -2.4062,0.21875 -18.848,3.7863 -32.477,50.153 -32.094,101.41 0.3797,50.788 12.819,87.813 30.094,83.625 19.096,-4.6294 32.113,-49.619 32.094,-100.41 0.52392,-48.406 -11.473,-84.589 -27.688,-84.844 z"
       id="path240"
       style="fill:url(#co)"
       inkscape:connector-curvature="0" />
    <path
       d="m 632.25,508.88 c 5.7846,-0.3625 8.75,13.536 8.75,27.75 0,1.9644 -0.0615,3.8928 -0.18662,5.759 -6.7078,5.8354 -13.362,12.573 -18.727,16.473 -0.38358,-3.616 0.10783,-10.185 0.16365,-19.482 0.085,-14.15 1.5592,-29.971 10,-30.5 z"
       id="path242"
       style="fill:url(#cn)"
       inkscape:connector-curvature="0" />
    <path
       d="m 622.07,558.91 13.634,-11.927 4.6616,-0.89905 -16.619,16.561 c -0.71187,-0.86258 -1.2978,-2.0401 -1.6768,-3.7348 z"
       id="path244"
       style="fill:url(#cm)"
       inkscape:connector-curvature="0" />
    <path
       d="m 632.25,508.88 c -3.9852,0.24974 -6.4087,3.9054 -7.875,9.1875 5.3226,-0.0265 1.7785,11.102 2.8438,11.188 5.3522,0.42983 9.2812,3.9771 9.2812,13.375 0,1.4268 -0.23873,2.7903 -0.65625,4.0938 -0.40028,1.2496 1.7127,0.6142 3.8125,0 l -15.844,15.844 c 1.6636,1.4986 3.6135,2.2992 5.6875,2.0625 6.572,-0.75 10.25,-8.03 11,-16.25 0,-0.63361 -0.0434,-1.2569 -0.0937,-1.875 10e-4,-0.0101 -0.001,-0.0212 0,-0.0312 0.39128,-3.0851 0.59375,-6.3939 0.59375,-9.8438 0,-14.214 -2.9654,-28.112 -8.75,-27.75 z"
       id="path246"
       style="fill:url(#cl)"
       inkscape:connector-curvature="0" />
    <path
       transform="matrix(0.99849,0,0,1.1039,-4.891,-60.056)"
       d="m 632,584.86 c 0,12.15 -3.6936,22 -8.25,22 -4.5564,0 -8.25,-9.8497 -8.25,-22 0,-12.1503 3.6936,-22 8.25,-22 4.5564,0 8.25,9.8497 8.25,22 z"
       id="path248"
       style="fill:url(#i)"
       inkscape:connector-curvature="0" />
    <path
       d="m 640.22,569 c -4.1149,0.19662 -7.5869,5.4053 -9.4062,13.125 2.6496,-3.3825 6.2757,-6.9225 9.125,-8.6562 2.2331,-1.3588 2.6436,5.7852 -5.125,8.2188 1.9044,5.1405 2.8593,29.374 -1.5938,29.625 -0.71601,0.0404 -1.5668,-1.1496 -2.375,-2.9062 1.7807,8.516 5.0998,14.25 9.0625,14.25 5.6532,0 10.062,-11.617 10.062,-26.438 0,-14.821 -3.58,-26.815 -9.125,-27.219 -0.20642,-0.0151 -0.42152,-0.01 -0.625,0 z"
       id="path250"
       style="fill:url(#ck)"
       inkscape:connector-curvature="0" />
    <path
       d="m 621.59,613.56 c -2.0224,-0.0121 -3.5423,1.8061 -4.6562,4.8125 3.1394,4.3487 5.7537,14.992 8.5,20.594 5.9446,12.127 -0.48325,19.024 -10.156,17.594 -0.30125,-0.0445 -0.61783,-0.14672 -0.9375,-0.28125 0.81642,8.0979 3.1821,13.44 9.1562,14.094 4.313,0.47175 7.2813,-8.405 8.5,-28.5 1.1898,-19.62 -4.4214,-27.391 -9.875,-28.25 -0.18501,-0.0291 -0.35424,-0.0614 -0.53125,-0.0625 z"
       id="path252"
       style="fill:url(#cj)"
       inkscape:connector-curvature="0" />
    <path
       d="m 603.06,583.19 c -2.824,-0.0697 -5.8476,3.6872 -8.1562,9.25 0.10488,-0.0685 0.20757,-0.16327 0.3125,-0.21875 8.0242,-4.2426 7.7812,13.307 7.7812,23.406 1e-5,6.6545 -0.99343,17.457 -2.9375,24.062 0.6828,0.32156 1.3913,0.48578 2.125,0.4375 6.9455,-0.45703 11.149,-8.989 9.0938,-28.906 -1.454,-14.093 -1.9737,-27.877 -8.2188,-28.031 z"
       id="path254"
       style="fill:url(#ci)"
       inkscape:connector-curvature="0" />
    <path
       d="m 608.25,515.53 c -0.2035,0.0148 -0.41197,0.0514 -0.625,0.0937 -1.1427,0.22732 -2.1711,1.0504 -3.0938,2.3438 7.6774,0.37027 3.7147,13.981 3.0312,25.25 -0.77137,12.719 -2.5709,20.683 -5.5312,23.062 1.625,3.4278 3.5397,5.6 5.25,6 4.0829,0.95488 9.0625,-13.877 9.0625,-29.469 0,-15.105 -1.7854,-27.74 -8.0938,-27.281 z"
       id="path256"
       style="fill:url(#ch)"
       inkscape:connector-curvature="0" />
    <path
       d="m 640.47,573.31 c -0.12378,0.0217 -0.26668,0.0713 -0.40625,0.15625 -2.8493,1.7338 -6.4754,5.2737 -9.125,8.6562 -0.99275,3.8452 -1.5625,8.3306 -1.5625,13.125 0,4.822 0.59038,9.2964 1.5938,13.156 0.80816,1.7566 1.659,2.9467 2.375,2.9062 4.453,-0.25147 3.4981,-24.484 1.5938,-29.625 7.2831,-2.2814 7.3879,-8.7008 5.5312,-8.375 z"
       id="path258"
       style="fill:url(#cg)"
       inkscape:connector-curvature="0" />
    <path
       d="m 616.94,618.38 c -1.9084,5.1508 -2.6753,13.852 -2.9062,23.125 -0.13779,5.5327 -0.11673,10.524 0.3125,14.781 0.31967,0.13453 0.63625,0.23671 0.9375,0.28125 9.673,1.4303 16.101,-5.4672 10.156,-17.594 -2.7463,-5.6022 -5.3606,-16.245 -8.5,-20.594 z"
       id="path260"
       style="fill:url(#cf)"
       inkscape:connector-curvature="0" />
    <path
       d="m 597.25,591.56 c -0.61391,0.0385 -1.279,0.2585 -2.0312,0.65625 -0.10493,0.0555 -0.20762,0.15022 -0.3125,0.21875 -2.2166,5.3409 -3.75,12.358 -3.75,19.312 0,12.574 3.6189,25.447 8.9062,27.938 1.9441,-6.6052 2.9375,-17.408 2.9375,-24.062 0,-9.1528 0.18449,-24.435 -5.75,-24.062 z"
       id="path262"
       style="fill:url(#ce)"
       inkscape:connector-curvature="0" />
    <path
       d="m 604.53,517.97 c -3.0837,4.3226 -4.9817,14.023 -5.9688,25.531 -0.80484,9.3832 0.99031,17.553 3.4688,22.781 2.9604,-2.3796 4.7599,-10.344 5.5312,-23.062 0.68346,-11.269 4.6461,-24.88 -3.0312,-25.25 z"
       id="path264"
       style="fill:url(#cd)"
       inkscape:connector-curvature="0" />
    <path
       d="m 615.5,527.78 c -1.3236,2.8088 -2.6256,8.5306 -3.3125,15.125 -0.97581,9.3678 -0.35019,16.969 1.4062,16.969 0.31583,0 0.66426,-0.26106 1,-0.71875 1.0786,-4.8211 1.75,-10.534 1.75,-16.344 0,-5.5085 -0.23608,-10.695 -0.84375,-15.031 z"
       id="path266"
       style="opacity:0.3;fill:url(#cc)"
       inkscape:connector-curvature="0" />
    <path
       d="m 607.75,609.12 c -1.794,0 -2.242,12.768 -1,28.5 0.0161,0.2044 0.0459,0.39037 0.0625,0.59375 2.7145,-2.3833 4.5111,-7.0786 4.9062,-14.469 -1.2428,-8.6868 -2.7521,-14.625 -3.9688,-14.625 z"
       id="path268"
       style="opacity:0.3;fill:url(#cb)"
       inkscape:connector-curvature="0" />
    <path
       d="m 624.5,616.38 c -3.3663,0 -0.002,8.9817 7.6562,21.688 0.16352,-9.8669 -1.5767,-16.28 -4.0625,-20.062 -1.5077,-1.0618 -2.7433,-1.625 -3.5938,-1.625 z"
       id="path270"
       style="opacity:0.4;fill:url(#ca)"
       inkscape:connector-curvature="0" />
    <path
       d="m 611,572.53 c -0.81797,3.7717 -1.3125,8.2255 -1.3125,13.031 0,5.3676 0.59236,10.322 1.5938,14.344 2.1722,-2.0717 3.7188,-7.3309 3.7188,-13.531 0,-6.473 -1.6767,-11.982 -4,-13.844 z"
       id="path272"
       style="fill:url(#bz)"
       inkscape:connector-curvature="0" />
    <path
       d="m 624.31,494.16 c -11.895,2.7967 -16.597,15.965 -20.781,26.094 -2.7262,8.177 -4.8983,16.516 -6.5312,24.969 1.5642,-7.5983 3.5742,-15.099 6.0312,-22.469 4.1839,-10.129 8.8862,-23.297 20.781,-26.094 8.4892,-0.37873 13.234,8.6855 16.375,15.281 11.272,27.793 11.222,58.763 9.6562,88.406 -0.91346,9.8404 -1.9894,19.873 -3.875,29.688 2.2028,-10.608 3.3837,-21.508 4.375,-32.188 1.5658,-29.643 1.6158,-60.613 -9.6562,-88.406 -3.1408,-6.5958 -7.8858,-15.66 -16.375,-15.281 z"
       id="path274"
       inkscape:connector-curvature="0"
       style="fill:#ffffff" />
  </g>
  <path
     d="m 188.5521,166.24649 -52.77827,-1.95376 C 111.2904,162.8796 85.559672,211.44425 82.663212,269.35092 79.766751,327.2576 97.287052,371.48974 121.77048,372.90337 l 56.29648,3.15824 c 24.48343,1.41312 46.71111,-44.44067 49.60884,-102.34606 2.89772,-57.9054 -14.64153,-106.05478 -39.12497,-107.46842 z"
     id="path278"
     style="fill:url(#p);fill-rule:evenodd;stroke-width:1.27149415"
     inkscape:connector-curvature="0" />
  <path
     d="M 592.22418,3.3097652 C 564.52709,3.2251645 534.20524,3.8236384 504.42174,5.7724365 409.57782,11.97824 344.99004,15.122655 193.98738,105.13131 92.26374,104.80686 28.060127,196.33074 8.0300652,237.52707 c -1.4957464,22.05018 0.9904076,45.4526 7.8817348,70.33261 -0.189496,14.96025 5.461825,25.18322 9.957657,36.34903 20.828737,3.84535 40.938413,6.25749 60.78397,8.11031 l 6.6817,-0.88656 c 80.113923,8.63534 162.717393,13.05408 245.756843,16.74617 l 15.76372,3.51337 c 41.37314,1.16503 82.51248,3.57362 122.89738,1.97013 65.93492,-2.61798 105.53757,-6.10269 142.42195,-12.54312 2.68239,-0.46835 9.89271,-21.86852 9.89271,-21.86852 3.96734,-53.97152 21.659,-191.03933 59.77804,-192.54891 35.12148,-1.39036 42.93889,103.64968 26.17556,183.09481 53.09799,-16.95597 104.85895,-38.01725 159.70973,-49.64745 0,0 11.27686,-90.95253 16.54217,-110.4249 1.02002,-3.7723 7.78885,-28.26763 14.72621,-31.22667 10.75089,-4.58607 16.3602,-2.10575 14.46587,60.90921 l 3.60036,3.08647 c -2.95978,-28.24333 7.33454,-33.05609 -9.30886,-78.57521 -11.04105,-30.196823 -30.01097,-41.700377 -34.34935,-42.389925 -13.5206,-2.14988 -57.25691,-4.319973 -67.95182,-4.826835 -1.83695,-3.443263 -5.94166,-6.702048 -11.255,-8.50434 -1.16422,-0.394897 -2.32741,-0.70087 -3.47057,-0.919389 C 760.55037,33.957728 724.75911,10.153612 703.72692,7.3864649 701.44905,7.0866587 653.14754,3.5010732 592.21445,3.3149337 Z"
     id="path280"
     inkscape:connector-curvature="0"
     style="fill:#fb0000;fill-rule:evenodd;stroke-width:1.27149415" />
  <path
     d="M 581.70998,3.3097652 C 556.94473,3.3942892 530.47725,4.0672318 504.41669,5.7724365 409.57277,11.97824 344.98498,15.122655 193.98233,105.13131 c -1.69896,-0.005 -3.38199,0.0205 -5.05996,0.0657 4.97782,0.33335 9.90028,0.66327 15.17988,1.14923 l 24.42404,-1.87163 c 134.6753,-2.25965 272.21927,-10.321346 404.01328,-6.764097 11.60114,0.749177 20.77566,0.482351 37.78668,3.513367 l 90.26797,-43.343013 37.91684,9.193887 C 760.4173,33.858735 724.72461,10.142891 703.73538,7.3808615 701.45752,7.0810553 653.156,3.4954698 592.22291,3.3093303 c -3.4621,-0.010567 -6.97109,-0.012077 -10.50902,0 z"
     id="path282"
     style="fill:url(#ar);fill-rule:evenodd;stroke-width:1.27149415"
     inkscape:connector-curvature="0" />
  <path
     d="m 116.94937,326.08345 c 3.92122,6.62529 15.15207,5.85067 24.29387,7.19087 6.88428,3.08736 5.07222,3.12382 -1.71905,4.82684 66.3886,4.45814 132.18577,8.90579 197.59624,13.36367 l 6.51957,7.68341 c -3.40752,-8.35671 -4.30716,-15.20332 -2.8219,-20.58794 l 0.0973,-0.0656 c -74.65463,-2.9135 -149.30926,-6.05178 -223.9702,-12.41174 z"
     id="path284"
     style="fill:url(#as);fill-rule:evenodd;stroke-width:1.27149415"
     inkscape:connector-curvature="0" />
  <path
     d="m 7.9656152,238.70659 c -1.3293137,21.70349 1.1783362,44.71572 7.9466898,69.15054 -0.189495,14.96024 5.461825,25.18321 9.957658,36.34902 20.828736,3.84535 40.938412,6.25749 60.78397,8.11032 l 6.6817,-0.88657 c 80.113927,8.63535 162.717387,13.05408 245.756847,16.74617 l 15.76372,3.51337 c 41.37313,1.16503 82.51248,3.57362 122.89738,1.97013 17.38382,-0.69023 32.88974,-1.45176 47.03084,-2.2984 l 5.57884,-20.39092 C 518.3058,317.85659 504.9333,284.96554 487.41932,252.72693 l -0.71358,0.68954 C 296.35065,259.05311 91.285793,251.6468 7.9556823,238.70569 Z m 24.2938738,85.63444 70.579111,0.52536 c 79.57431,7.22721 159.15369,10.5552 238.71789,13.65919 l 170.22393,-0.52537 c -13.89341,13.60034 -29.89345,16.54403 -45.02025,23.9039 -126.89075,0.29887 -243.91181,-6.44554 -370.802558,-17.3372 l -68.697424,-10.63862 4.995005,-9.58791 z"
     id="path286"
     style="fill:url(#at);fill-rule:evenodd;stroke-width:1.27149415"
     inkscape:connector-curvature="0" />
  <path
     d="m 32.254434,324.34359 -4.995004,9.58792 68.697424,10.63861 c 126.890756,10.8914 243.911806,17.63528 370.802556,17.3372 15.12681,-7.36038 31.12684,-10.3033 45.02025,-23.9039 l -170.22393,0.52537 -0.64871,-0.0329 -0.0973,0.0656 c -1.48526,5.38488 -0.58559,12.23097 2.8219,20.58794 l -6.51957,-7.68341 c -65.41047,-4.45814 -131.21269,-8.90591 -197.59624,-13.36367 6.79127,-1.70289 8.60333,-1.73948 1.71905,-4.82684 -9.14192,-1.3402 -20.37253,-0.56564 -24.29387,-7.19087 -4.70321,-0.40068 -9.40617,-0.78775 -14.1095,-1.21491 l -70.579115,-0.52536 z"
     id="path288"
     style="fill:url(#au);fill-rule:evenodd;stroke-width:1.27149415"
     inkscape:connector-curvature="0" />
  <path
     d="M 86.228183,199.54692 C 127.28159,162.26528 174.07485,136.31704 234.65283,111.02253"
     id="path290"
     inkscape:connector-curvature="0"
     style="opacity:0.7;fill:none;stroke:#986601;stroke-width:1.04430354" />
  <path
     d="m 598.88402,97.969732 c -42.07072,0.07008 -86.61075,4.987778 -128.1924,10.655758 l -241.51072,3.28347 c -13.7961,-4.11976 -26.42831,-5.86998 -38.53355,-6.56708 -99.951894,1.49385 -163.083867,91.58067 -182.8990958,132.35739 -0.026513,0.39066 -0.040869,0.79057 -0.064867,1.18207 C 91.004652,251.82155 296.06572,259.22876 486.43344,253.59212 544.85172,189.17759 611.35405,107.18791 690.7148,106.48429 661.11454,97.276845 631.6179,97.908313 598.89624,97.962811 Z"
     id="path292"
     style="fill:url(#q);fill-rule:evenodd;stroke-width:1.27149415"
     inkscape:connector-curvature="0" />
  <path
     d="m 85.191928,199.81558 c 39.769462,-36.84924 86.044592,-63.235 147.388392,-88.78665"
     id="path294"
     style="opacity:0.5;fill:none;stroke:url(#av);stroke-width:1.04430354"
     inkscape:connector-curvature="0" />
  <path
     d="m 58.792686,218.19926 c 109.642154,10.14646 240.234364,8.86011 361.450984,6.82972"
     id="path296"
     style="opacity:0.86000001;fill:none;stroke:url(#aw);stroke-width:1.04430354"
     inkscape:connector-curvature="0" />
  <path
     d="m 667.99721,100.97611 c 7.04123,-25.490247 16.17822,-85.292861 39.04029,-85.213544 27.17391,0.09312 49.74532,20.324394 88.84628,50.54297 -12.58179,0.167436 -44.58174,-11.196647 -54.6688,7.203282 -5.58833,10.192901 -4.27405,24.685561 -3.8186,36.066302 -9.70075,1.16518 -28.03703,4.98892 -31.65129,2.82356 -4.74807,-2.8448 -27.78429,-11.31997 -37.74877,-11.42193 z"
     id="path298"
     inkscape:connector-curvature="0"
     style="stroke-width:1.27149415" />
  <path
     d="M 543.40643,8.0048321 C 478.52041,8.7450791 419.07852,13.265865 362.26391,27.463133 330.6202,35.371314 259.83131,70.733227 203.08495,102.14412 c -12.17373,6.62567 14.47851,6.90405 21.8612,9.12813 12.60845,1.67897 34.8283,-0.32338 58.12383,-0.7552 56.05889,-1.03911 124.19775,-0.97341 183.32877,-0.65671 C 528.10271,97.735555 574.46756,98.045148 638.17706,98.23666 647.44902,69.033856 659.97002,39.00078 673.46661,12.371947 652.11722,9.2540141 630.36217,8.1117184 608.56416,7.7741086 586.76614,7.4364987 564.92516,7.9036771 543.40011,8.0048705 Z"
     id="path300"
     inkscape:connector-curvature="0"
     style="stroke-width:1.27149415" />
  <path
     d="M 538.76856,38.681401 H 649.59103 L 639.31605,68.772046 549.77726,71.372499 538.76843,38.681017 Z"
     id="path302"
     style="opacity:0.8;fill:url(#ax);fill-rule:evenodd;stroke-width:1.27149415"
     inkscape:connector-curvature="0" />
  <path
     d="m 662.08297,49.705213 c -1.54238,-0.06417 -3.18194,0.329077 -4.67074,1.247736 -12.54564,0.358105 -25.12919,0.670269 -37.46316,3.316355 -39.21469,7.633385 -76.46049,22.686 -114.62629,34.181878 -4.58341,2.047535 -12.67391,3.007913 -15.21274,6.008918 6.79986,-1.097354 10.23783,4.024836 15.79658,6.76409 1.60354,0.6506 3.24398,1.16232 4.93017,1.54324 9.95627,0.74133 -12.68022,-3.186637 -2.36771,-5.417881 19.76089,-6.363543 39.58117,-12.537492 59.29151,-19.077068 23.19696,-8.238882 47.09907,-14.850227 71.61663,-17.370468 4.9188,0.440006 12.54198,-2.758575 15.82817,0.952229 -3.24474,12.088326 -7.84294,23.754224 -11.87132,35.592956 l -28.02439,1.14923 c 9.35878,-0.034 18.79161,0.770183 28.08884,-0.394015 4.33054,-7.90204 6.25178,-16.911196 10.11979,-25.052723 1.73877,-3.71358 6.32142,-15.355555 10.57386,-9.817679 -5.00575,20.245077 -6.78824,27.657398 -6.77901,28.238205 0.48795,-0.536057 8.79098,-30.589576 10.99555,-31.719207 2.32223,-5.759964 -1.60051,-9.953541 -6.22751,-10.146078 z M 462.83125,102.47162 c -1.75355,0.10008 -3.58532,0.14221 -5.18962,0.95222 -1.00331,0.46807 0.0253,1.45828 0.51896,1.90438 1.03045,0.81267 2.16186,1.63598 2.75694,2.8567 0.45046,0.61301 0.008,2.4573 1.23254,1.93726 1.2634,-0.26818 2.57244,0.0733 3.79497,0.39402 0.8205,0.24788 1.63716,0.50117 2.46503,0.72238 0.86657,0.30528 1.81761,0.4322 2.65964,-0.0328 2.85526,-1.1912 5.54573,-2.76241 8.10882,-4.49844 0.60223,-0.51117 1.5233,-0.9141 1.71905,-1.70736 -0.96678,-0.37104 -1.9795,-0.59623 -2.98404,-0.85373 -4.93384,-1.13476 -10.01945,-1.76954 -15.08257,-1.67461 z m 180.0178,5.18799 c -2.49333,0.26056 -13.75566,3.99119 -19.33122,5.97604 -55.26401,0.8609 -111.13588,4.78257 -164.22123,21.37598 -20.81736,11.47439 -6.42895,-5.49809 2.4002,-14.80928 0.10868,-9.89521 -16.56113,4.40696 -18.13195,10.01468 -19.04561,7.38085 -42.26406,5.74257 -62.859,10.0147 -99.43251,17.50863 -201.15995,28.11155 -295.977331,65.27678 -17.884254,6.40857 -32.054416,15.20843 -46.349688,27.74567 -1.767195,2.00045 4.622079,1.46468 3.438094,0.49252 4.513019,-6.50363 40.058859,-14.38968 27.537859,-14.382 10.759113,-8.00682 33.030016,-11.28505 48.003906,-17.53422 101.74386,-30.41815 207.49121,-42.64451 312.06456,-58.74207 10.95714,0.82218 14.99032,-11.78743 22.83427,-17.30394 -1.52797,7.02021 -25.34403,34.88677 -31.52744,52.30714 10.25969,-12.35711 20.92731,-36.8211 43.10697,-37.59636 41.16335,-11.93391 83.77747,-19.86128 126.60009,-21.77001 14.87533,-1.784 30.98784,1.58622 44.3391,-6.66559 7.93709,-3.46974 9.57248,-4.55626 8.07635,-4.39993 z m 12.6499,2.26566 c -4.63181,1.37052 -8.12361,2.01158 -15.60196,4.59694 -3.86877,1.33752 -9.03286,3.72305 -8.27096,5.31937 3.12165,0.60972 7.40922,-2.61286 9.34133,-3.28348 4.56749,-1.31103 11.86147,-5.02206 14.53159,-6.63271 z"
     id="path304"
     inkscape:connector-curvature="0"
     style="fill:#ffffff;stroke-width:1.27149415" />
  <path
     d="m 84.838084,272.95372 c 87.727876,9.42928 238.351406,13.74362 266.658876,6.1687 l -1.58774,12.96325 C 265.69323,289.90125 181.5556,287.79128 93.562345,281.78364 l -8.722744,-8.83031 z"
     id="path306"
     inkscape:connector-curvature="0"
     style="fill:#ffffff;fill-rule:evenodd;stroke-width:1.27149415" />
  <path
     d="m 12.755138,247.43149 c 34.709506,9.97362 83.476702,23.97938 94.574742,33.9951 -0.24983,14.19266 -0.29209,28.70643 0,43.36092 -4.51112,4.47324 -8.729564,8.8724 -14.99158,13.7884 -24.734914,0.29545 -46.698477,-2.21538 -67.332599,-6.07058 -4.253703,-7.08277 -4.84816,-15.81227 -5.054274,-24.71626 -6.639365,-19.81267 -6.769529,-40.09613 -7.19591,-60.35784 z"
     id="path308"
     inkscape:connector-curvature="0"
     style="fill:#666666;fill-rule:evenodd;stroke-width:1.27149415" />
  <path
     d="m 629.61784,340.56524 c -32.69892,5.09792 -65.80602,8.52928 -99.41356,9.94906 l 0.16218,0.4597 -5.57885,20.39092 c 39.50914,-2.37108 68.24628,-5.50462 95.39238,-10.24459 2.41966,-0.42248 8.26603,-17.14019 9.43865,-20.55467 z m -105.25197,30.83264 c -1.05694,0.0631 -2.17108,0.10209 -3.24348,0.16418 v 0.0329 z"
     id="path310"
     style="fill:url(#ay);fill-rule:evenodd;stroke-width:1.27149415"
     inkscape:connector-curvature="0" />
  <path
     d="m 12.755138,247.43149 c 34.709506,9.97362 83.476702,23.97938 94.574742,33.9951 -0.24983,14.19266 -0.29209,28.70643 0,43.36092 -4.51112,4.47324 -8.729564,8.8724 -14.99158,13.7884 -24.734914,0.29545 -46.698477,-2.21538 -67.332599,-6.07058 -4.253703,-7.08277 -4.84816,-15.81227 -5.054274,-24.71626 -6.639365,-19.81267 -6.769529,-40.09613 -7.19591,-60.35784 z"
     id="path312"
     inkscape:connector-curvature="0"
     style="fill:url(#ap);fill-rule:evenodd;stroke-width:1.27149415" />
  <g
     transform="matrix(1.0379237,0,0,1.0507227,42.642264,-334.85915)"
     id="g324"
     style="fill-rule:evenodd">
    <path
       d="m 274.64,590.14 c 0.998,-3.985 141.45,-24.395 147.77,-21.71 3.6209,1.5379 31.209,67.418 30.581,71.201 -0.33633,2.0259 -30.997,17.24 -41.32,17.625 -10.004,0.37362 -100.04,-1.8031 -105.05,-2.101 -12.416,-0.73854 -15.666,-5.8887 -18.909,-14.123 -1.8619,-4.728 -13.583,-48.853 -13.073,-50.891 z"
       id="path314"
       inkscape:connector-curvature="0"
       style="fill:#666666" />
    <path
       d="m 274.64,590.14 c 0.998,-3.985 141.45,-24.395 147.77,-21.71 3.6209,1.5379 31.209,67.418 30.581,71.201 -0.33633,2.0259 -30.997,17.24 -41.32,17.625 -10.004,0.37362 -100.04,-1.8031 -105.05,-2.101 -12.416,-0.73854 -15.666,-5.8887 -18.909,-14.123 -1.8619,-4.728 -13.583,-48.853 -13.073,-50.891 z"
       id="path316"
       inkscape:connector-curvature="0"
       style="fill:url(#k)" />
    <path
       d="m 274.64,590.14 c 0.998,-3.985 141.45,-24.395 147.77,-21.71 3.6209,1.5379 31.209,67.418 30.581,71.201 -0.33633,2.0259 -30.997,17.24 -41.32,17.625 -10.004,0.37362 -100.04,-1.8031 -105.05,-2.101 -12.416,-0.73854 -15.666,-5.8887 -18.909,-14.123 -1.8619,-4.728 -13.583,-48.853 -13.073,-50.891 z"
       id="path318"
       style="fill:url(#by)"
       inkscape:connector-curvature="0" />
    <path
       d="m 421.09,568.25 c -3.953,25.209 -8.2254,49.14 -8.5312,88.938 11.086,-1.1438 40.11,-15.592 40.438,-17.562 0.62796,-3.7825 -26.973,-69.65 -30.594,-71.188 -0.23694,-0.10064 -0.7129,-0.1497 -1.3125,-0.1875 z"
       id="path320"
       style="opacity:0.6;fill:url(#bx)"
       inkscape:connector-curvature="0" />
    <path
       d="m 274.64,590.14 c 0.998,-3.985 141.45,-24.395 147.77,-21.71 3.6209,1.5379 31.209,67.418 30.581,71.201 -0.33633,2.0259 -30.997,17.24 -41.32,17.625 -10.004,0.37362 -100.04,-1.8031 -105.05,-2.101 -12.416,-0.73854 -15.666,-5.8887 -18.909,-14.123 -1.8619,-4.728 -13.583,-48.853 -13.073,-50.891 z"
       id="path322"
       style="fill:url(#bw)"
       inkscape:connector-curvature="0" />
  </g>
  <path
     d="m 12.767775,247.44428 c 0.426382,20.26171 0.52887,40.53877 7.168235,60.35144 0.206139,8.90387 0.806156,17.64168 5.05996,24.72522 20.635386,3.85507 42.600212,6.36994 67.335127,6.07455 0.726807,-0.57064 1.432812,-1.14981 2.108274,-1.70737 C 90.81412,316.35264 90.325689,295.02399 92.23379,273.08894 72.149388,264.50925 38.58861,254.86389 12.766891,247.44518 Z"
     id="path326"
     style="opacity:0.9;fill:url(#az);fill-rule:evenodd;stroke-width:1.27149415"
     inkscape:connector-curvature="0" />
  <path
     d="m 12.755138,247.43149 c 34.709506,9.97362 83.476702,23.97938 94.574742,33.9951 -0.24983,14.19266 -0.29209,28.70643 0,43.36092 -4.51112,4.47324 -8.729564,8.8724 -14.99158,13.7884 -24.734914,0.29545 -46.698477,-2.21538 -67.332599,-6.07058 -4.253703,-7.08277 -4.84816,-15.81227 -5.054274,-24.71626 -6.639365,-19.81267 -6.769529,-40.09613 -7.19591,-60.35784 z"
     id="path328"
     style="fill:url(#ba);fill-rule:evenodd;stroke-width:1.27149415"
     inkscape:connector-curvature="0" />
  <g
     transform="matrix(1.0379237,0,0,1.0507227,42.642264,-334.85915)"
     id="g344"
     style="fill-rule:evenodd">
    <path
       d="m 69.628,438.31 6.6769,3.2805 c -28.956,26.319 -46.472,55.556 -60.982,85.486 l -34.554,-4.803 c 24.418,-33.123 51.698,-62.978 88.859,-83.964 z"
       id="path330"
       inkscape:connector-curvature="0" />
    <path
       d="m 69.628,438.31 6.6769,3.2805 c -28.956,26.319 -46.472,55.556 -60.982,85.486 l -34.554,-4.803 c 24.418,-33.123 51.698,-62.978 88.859,-83.964 z"
       id="path332"
       style="fill:url(#bv)"
       inkscape:connector-curvature="0" />
    <path
       d="m 72.781,439.88 c -9.6114,5.1439 -18.652,10.76 -27.188,16.812 -19.448,16.716 -38.619,33.609 -51.188,54.594 l 27.031,3.5938 c 13.376,-25.654 29.865,-50.548 54.875,-73.281 L 72.7798,439.88 Z"
       id="path334"
       style="fill:url(#bu)"
       inkscape:connector-curvature="0" />
    <path
       d="m 5.5116,500.13 c -3.1224,5.4147 -1.0874,9.5312 5.1562,9.5312 0.731,0 1.4707,-0.0792 2.25,-0.1875 -0.46123,-0.3269 -0.87517,-0.70706 -1.25,-1.1562 -1.4907,-1.7864 -2.1402,-4.5163 -1.5625,-8.1875 H 5.5115 Z m 5,0 0.625,0.0937 c -0.56237,3.498 0.11363,5.8946 1.375,7.4062 0.57006,0.68316 1.2659,1.178 2.0625,1.5312 1.4308,-0.31736 2.9016,-0.77362 4.375,-1.375 -0.24263,-0.16082 -0.46984,-0.34269 -0.6875,-0.53125 -1.6567,-1.4352 -2.4491,-3.7159 -1.7812,-6.7188 l 0.96875,0.21875 c -0.61052,2.7451 0.07716,4.5445 1.4688,5.75 0.3479,0.30138 0.74845,0.55596 1.1875,0.78125 3.7944,-1.7228 7.5001,-4.2383 10.281,-7.1562 h -19.875 z"
       id="path336"
       style="fill:url(#bt)"
       inkscape:connector-curvature="0" />
    <path
       d="m 67.71,442.5 c -1.1723,0.0839 -2.4786,-0.0366 -3.5211,0.57608 -4.9512,1.3248 -6.445,3.5925 -8.8113,5.6986 -2.342,3.3177 -2.8401,7.8648 -1.2154,11.604 0.39644,0.94102 0.9097,1.8305 1.5176,2.6467 0.58801,-0.99694 2.0707,-1.9025 2.1036,-2.9415 -1.6548,-2.9203 -1.4807,-6.7489 0.39323,-9.5214 2.4212,-3.7284 7.1368,-5.4957 11.411,-4.7959 0.96211,0.12908 1.9587,0.77152 2.5664,-0.33678 0.42462,-0.56013 1.6863,-1.2618 1.5864,-1.722 -1.9068,-0.79765 -3.9679,-1.2094 -6.0301,-1.2075 z"
       id="path338"
       style="fill:url(#bs)"
       inkscape:connector-curvature="0" />
    <path
       d="m 67.71,445.62 c -4.1861,-0.0477 -8.4802,2.3043 -10.25,6.2458 -1.2409,2.6773 -1.0508,5.958 0.47184,8.4788 4.251,-4.9362 8.7329,-9.6677 13.431,-14.167 -1.1801,-0.3746 -2.4172,-0.55789 -3.653,-0.55776 z"
       id="path340"
       style="fill:url(#br)"
       inkscape:connector-curvature="0" />
    <path
       d="m 60.156,448.56 c -9.9128,3.0936 -17.626,7.9101 -22.25,14.688 -8.4613,4.7021 -13.424,12.984 -12.875,25.438 3.2648,-12.964 4.636,-16.52 11.344,-22.844 -2.5008,4.6964 -3.6944,10.203 -3.3125,16.594 6.6525,-19.494 8.6474,-22.062 27.094,-33.875 z m -32.25,23 c -5.5857,3.7782 -8.9573,11.32 -8.625,23.375 2.1183,-13.454 2.7514,-15.222 8.625,-23.375 z"
       id="path342"
       style="fill:url(#bq)"
       inkscape:connector-curvature="0" />
  </g>
  <path
     d="m 222.45787,197.05227 c 6.02456,-0.9311 11.73774,-0.67371 16.86696,1.57611 -6.28186,8.48412 -14.45703,11.92189 -21.27736,13.65919 0.079,-4.35938 -0.84437,-9.23432 4.41116,-15.2353 z"
     id="path346"
     style="stroke:url(#bb);stroke-width:1.04430354"
     inkscape:connector-curvature="0" />
  <path
     d="m 648.00506,178.32317 c -0.63915,1.36004 -1.266,2.72174 -1.91366,4.07153 l -130.84622,40.09229 c -9.39871,10.38211 -18.60458,20.70052 -27.60231,30.63563 17.32695,31.961 30.59102,64.56677 42.55472,97.38874 31.04722,-1.31155 61.65594,-4.3595 91.92092,-8.83261 -0.65656,-6.40794 -1.06983,-13.0029 -1.23254,-19.73335 -0.9698,-40.123 10.64677,-102.19766 27.11578,-143.61532 z"
     id="path348"
     style="opacity:0.45;fill:url(#r);fill-rule:evenodd;stroke-width:1.27149415"
     inkscape:connector-curvature="0" />
  <path
     d="m 515.12424,223.09902 133.57587,-41.978 9.90799,3.34335"
     id="path350"
     style="opacity:0.5;fill:none;stroke:url(#bc);stroke-width:1.04430354;stroke-linecap:round"
     inkscape:connector-curvature="0" />
  <path
     d="m 668.26259,101.10404 c 7.04123,-25.490246 16.17822,-85.29286 39.04029,-85.213543 27.17391,0.09312 49.74532,20.324394 88.84628,50.54297 -12.58179,0.167436 -46.41667,-11.568158 -56.50373,6.831898 -5.58832,10.192901 -2.43924,25.057841 -1.9838,36.438585 -9.70074,1.16518 -28.03703,4.98892 -31.65129,2.82356 -4.74807,-2.8448 -27.78428,-11.31997 -37.74876,-11.42193 z"
     id="path352"
     inkscape:connector-curvature="0"
     style="stroke-width:1.27149415" />
  <path
     d="m 685.57564,106.28525 c -64.35147,3.67161 -120.18542,60.05591 -170.12283,115.21847 l 130.84622,-40.09229 c 11.4093,-23.77725 20.69857,-45.44876 46.24227,-50.14767 l -0.0222,-22.68087 c -2.23086,-0.98945 -4.54196,-1.7437 -6.94115,-2.29841 z"
     id="path354"
     style="opacity:0.68049999;fill:url(#s);fill-rule:evenodd;stroke-width:1.27149415"
     inkscape:connector-curvature="0" />
  <g
     transform="matrix(1.0379237,0,0,1.0507227,42.831823,-334.70563)"
     id="g360"
     style="fill-rule:evenodd">
    <path
       d="m 548.01,501.88 35.002,-11.314 -3.8891,15.203 -18.385,3.182 -12.728,-7.0711 z"
       id="path356"
       inkscape:connector-curvature="0"
       style="fill:#980101" />
    <path
       d="m 553,502.38 c 5.134,4.0654 10.761,5.2112 16.964,2.9481 8.0262,1.1021 9.0731,-5.3525 10.192,-11.729 L 553,502.3803 Z"
       id="path358"
       style="fill:url(#bp)"
       inkscape:connector-curvature="0" />
  </g>
  <path
     d="m 762.76404,62.894897 c -9.73575,0.03406 -18.71326,2.325913 -23.12619,10.375969 -0.2878,0.52494 -0.538,1.060382 -0.77846,1.60886 l -0.0973,0.229841 c -0.21916,0.509536 -0.43241,1.015606 -0.61627,1.543231 l -0.0648,0.197014 c -0.2069,0.620248 -0.38789,1.229378 -0.5514,1.87163 -0.16352,0.642252 -0.29565,1.308734 -0.42166,1.970137 29.11752,0.151215 64.00142,-1.888389 80.40711,6.993859 -0.60335,-3.329915 -2.07908,-7.253558 -3.66531,-10.835626 -1.98038,-4.472595 -6.88983,-6.63207 -11.44961,-8.504339 -3.53414,-0.919786 -5.52893,-1.804339 -6.3573,-1.904381 h -0.12975 c -0.23489,5.89e-4 -0.49312,-0.01974 -0.74607,-0.03284 h -0.25948 c -7.36638,-0.284454 -20.32198,-3.55469 -32.14287,-3.513368 z"
     id="path362"
     style="opacity:0.82573003;fill:url(#bd);fill-rule:evenodd;stroke-width:1.27149415"
     inkscape:connector-curvature="0" />
  <path
     d="M 753.23554,82.618015 C 787.38522,81.37656 767.2806,97.895532 814.86242,92.132498 792.21139,109.53111 743.17502,79.765922 744.51836,118.3302 740.227,75.624285 736.13935,83.246412 753.23567,82.618271 Z M 742.87349,71.281156 c 7.50679,-5.008114 17.58981,-4.532339 26.16166,-3.632472 5.52641,0.580103 15.9179,1.14598 21.49346,1.439479 -9.79464,2.026043 -21.72093,0.997094 -28.97472,0.540265 -6.50996,-0.410031 -12.52314,-0.662593 -18.68166,1.652613 z"
     id="path364"
     inkscape:connector-curvature="0"
     style="fill:#ffffff;stroke-width:1.27149415" />
  <path
     d="m 813.85649,76.849607 c 1.58623,3.582068 3.06188,7.505711 3.66531,10.835626 l -0.12974,-0.06567 c 0.0307,0.323985 0.0269,0.649826 0.0323,0.985056 -1.59179,17.211841 -33.08562,13.541501 -64.87086,16.286891 l -0.81089,22.85359 -20.79082,6.66559 2.20558,4.10441 c 101.71733,-26.60325 123.87551,-53.760436 152.4433,-55.163839 -1.76656,-0.996467 -3.15173,-1.54144 -3.98946,-1.674616 -13.00627,-2.06826 -53.32545,-4.121424 -65.94123,-4.728329 l -1.81636,-0.09851 z"
     id="path366"
     style="fill:url(#t);fill-rule:evenodd;stroke-width:1.27149415"
     inkscape:connector-curvature="0" />
  <path
     d="m 885.59823,83.361294 c -28.57032,1.402635 -50.7285,28.560586 -152.4433,55.163836 l -2.20558,-4.10441 c -8.74638,-6.14389 -16.19339,-9.29585 -19.16946,-10.37597 -3.37693,0.96096 -7.05829,9.68041 -11.1577,8.66847 0.87905,0.46173 1.72853,0.97525 2.56234,1.51036 36.2424,23.25913 30.36481,114.70291 26.59638,172.09274 l 149.58728,-52.70116 c 3.7539,-28.44929 9.679,-71.0631 13.10358,-83.72955 1.02008,-3.7723 7.78897,-28.26762 14.7262,-31.22667 10.7509,-4.58607 16.3602,-2.10574 14.46587,60.90922 l 3.60036,3.08646 c -2.9599,-28.24332 7.33454,-33.05608 -9.30886,-78.5752 C 907.04645,99.713687 892.977,87.526983 885.59558,83.364109 Z m 2.46503,42.783956 c -4.73632,1.99597 -10.83721,5.04495 -15.79658,6.14017 -0.89262,35.07228 -6.92775,62.48661 -19.16947,89.18068 12.85463,-34.40575 12.70298,-60.09685 16.05565,-88.06384 l -0.12974,0.0656 c 0.0126,-0.12013 0.0205,-0.241 0.0325,-0.36119 l -26.0454,9.45653 c -1.28774,13.74746 -4.52831,27.51283 -7.13576,40.81382 1.90608,-13.0899 5.46575,-26.96913 5.18962,-40.05903 l -1.4596,0.55819 c -1.09221,16.14873 -4.5599,31.07827 -7.65477,46.10121 2.36456,-14.90908 6.27895,-30.24544 6.00055,-45.3784 -1.30063,0.18524 -2.58369,0.37106 -3.8598,0.59103 -0.16503,0.0284 -0.25718,-2.74604 -0.51896,-2.69244 -0.23083,0.0472 -0.63344,2.92924 -0.77844,2.95521 -0.89573,0.16021 -1.41714,0.22039 -2.30289,0.39403 -0.23654,0.0463 -0.38034,-1.85321 -0.61628,-1.80588 -0.27163,0.0544 -0.63727,2.07888 -0.90818,2.13428 -11.61124,2.37542 -22.50317,5.67783 -34.34934,7.09236 11.3403,-3.77025 22.69652,-6.97454 34.38093,-10.99976 -0.33848,-0.33792 -1.7011,-8.85513 -0.84331,-9.35802 -0.19755,0.94136 1.95537,8.77363 3.37327,8.56996 18.53381,-5.81715 37.22938,-11.2734 56.53406,-15.3338 z m -188.73752,5.94316 c 0.38955,0.29886 0.78556,0.47783 1.16767,0.59103 -0.3868,-0.20127 -0.772,-0.40429 -1.16767,-0.59103 z"
     id="path368"
     style="fill:url(#u);fill-rule:evenodd;stroke-width:1.27149415"
     inkscape:connector-curvature="0" />
  <g
     transform="matrix(1.0379237,0,0,1.0507227,42.642264,-334.85915)"
     id="g374"
     style="fill-rule:evenodd">
    <path
       d="m 796.69,444.9 -22.139,8.4375 c -2.7713,32.847 -9.0273,60.038 -19.148,80.042 -9.3274,20.125 -24.063,33.162 -42.094,45.156 l 83.312,-32.344 -21.688,3 -0.34375,-4.9062 c 17.603,-37.282 19.922,-69.094 22.099,-99.386 z"
       id="path370"
       style="fill:url(#ah)"
       inkscape:connector-curvature="0" />
    <path
       d="m 775.14,454.09 21.176,-8.4393 c -3.7599,30.981 -2.9156,59.01 -22.621,100.62 l -18.707,-12.096 c 10.346,-20.098 17.344,-46.797 20.152,-80.086 z"
       id="path372"
       inkscape:connector-curvature="0" />
  </g>
  <path
     d="m 815.57516,81.063654 c 0.85863,2.289069 1.57346,4.576091 1.94614,6.632709 l -0.12975,-0.06567 c 0.0307,0.323985 0.0269,0.649838 0.0325,0.985069 -0.3264,3.52936 -1.92289,6.167296 -4.50847,8.175941 l 10.83342,3.349237 c 8.24872,-5.304279 16.82778,-10.30881 26.92116,-14.119746 -10.94185,-2.11406 -22.77235,-3.686715 -35.09494,-4.958093 z"
     id="path376"
     style="fill:url(#v);fill-rule:evenodd;stroke-width:1.27149415"
     inkscape:connector-curvature="0" />
  <path
     d="m 816.40922,81.371967 c 0.81763,2.179816 1.4984,4.357713 1.85325,6.316081 l -0.12359,-0.06253 c 0.0292,0.308518 0.0257,0.618828 0.0308,0.938041 -0.0821,0.888059 -0.24812,1.727324 -0.4942,2.501435 5.32572,0.744519 10.68354,1.536834 16.12262,2.62655 4.98275,-2.819598 10.24983,-5.41583 16.03037,-7.598076 -10.41955,-2.013122 -21.68428,-3.510682 -33.41924,-4.721421 z"
     id="path378"
     inkscape:connector-curvature="0"
     style="fill-rule:evenodd;stroke-width:1.27149415" />
  <path
     d="m 879.03949,254.77473 c -52.96403,19.54785 -106.97316,36.26459 -159.64654,56.60817 -0.98393,6.23178 -2.10764,12.39025 -3.37326,18.38752 53.09799,-16.95597 104.85895,-38.01725 159.70972,-49.64745 0,0 1.44773,-11.23579 3.30844,-25.34824 z"
     id="path380"
     style="fill:url(#radialGradient494);fill-rule:evenodd;stroke-width:1.27149415"
     inkscape:connector-curvature="0" />
  <path
     d="m 841.54473,272.31406 c -0.7312,0.017 -1.58433,0.23684 -2.5948,0.65671 -15.94065,6.6235 -33.74276,8.8779 -47.93946,19.30734 -7.88136,5.7899 -17.63909,8.97564 -24.81327,15.62933 -12.17385,11.29183 -37.96739,14.85279 -50.14465,21.63825 -0.0158,0.0752 -0.0166,0.15468 -0.0325,0.22985 22.95053,-7.32878 45.66096,-15.40929 68.47121,-23.18109 3.58368,-2.18737 7.12868,-4.441 10.34689,-7.12525 5.08043,-4.23758 14.68197,-10.43904 24.16371,-13.39693 3.28228,-1.02384 10.58472,-4.11989 13.29819,-1.14923 1.33399,1.46021 2.21152,3.46105 2.4975,5.58201 12.10473,-3.50812 24.29514,-6.71995 36.65186,-9.45653 -1.87828,-0.69931 -3.92729,-1.02154 -6.09786,-0.82087 -6.26164,0.57893 -19.37293,9.12276 -19.75331,-1.01789 -0.13534,-3.61482 -0.88587,-6.96942 -4.05441,-6.89535 z"
     id="path382"
     inkscape:connector-curvature="0"
     style="fill:#ffffff;fill-rule:evenodd;stroke-width:1.27149415" />
  <path
     d="m 828.70528,283.67433 c -3.26547,0.0212 -7.44158,1.69304 -9.69809,2.39692 -9.48225,2.95776 -19.08353,9.15922 -24.16371,13.39693 -3.22528,2.69013 -6.78748,4.93327 -10.37924,7.12524 16.67866,-5.68154 33.4066,-11.18347 50.33927,-16.08988 -0.28594,-2.12084 -1.16355,-4.1218 -2.4975,-5.58201 -0.84804,-0.92832 -2.11598,-1.25738 -3.60036,-1.24775 z"
     id="path384"
     style="fill:url(#be);fill-rule:evenodd;stroke-width:1.27149415"
     inkscape:connector-curvature="0" />
  <path
     d="m 752.18665,114.94617 -0.4541,12.80589 -0.48653,0.16419 c 1.79121,2.12454 4.75363,3.75259 7.23306,7.81479 5.30285,8.68779 12.92792,16.75256 15.31005,13.03616 3.15704,-4.927 -3.13821,-20.26682 -5.80594,-22.82032 -5.46271,-5.22995 -12.18813,-9.34241 -15.79658,-10.99976 z"
     id="path386"
     style="fill:url(#w);fill-rule:evenodd;stroke-width:1.27149415"
     inkscape:connector-curvature="0" />
  <path
     d="m 737.52743,109.72659 c -5.07399,0.61635 -12.40398,1.90528 -18.81183,2.72531 6.76826,4.29247 14.57076,8.38933 22.6068,13.4302 -4.53716,-6.19736 -3.00679,-10.90049 -3.79497,-16.15513 z"
     id="path388"
     style="fill:url(#x);fill-rule:evenodd;stroke-width:1.27149415"
     inkscape:connector-curvature="0" />
  <path
     d="m 688.74759,105.68397 -0.5514,0.0657 c 23.06427,10.08454 27.35967,25.91625 57.76745,23.74014 -1.82659,-1.37679 -3.46046,-2.76036 -4.995,-4.13728 0.12005,0.17482 0.22704,0.34815 0.35679,0.52536 -8.03692,-5.04022 -15.83955,-9.13721 -22.6068,-13.43019 -5.89111,0.75583 -10.98911,1.09946 -12.71435,0.0657 -2.41031,-1.44409 -9.52231,-4.31563 -17.25618,-6.82973 z"
     id="path390"
     style="fill:url(#y);fill-rule:evenodd;stroke-width:1.27149415"
     inkscape:connector-curvature="0" />
  <path
     d="m 708.47436,113.39821 c 7.55834,5.64495 18.21535,13.70908 24.39118,24.95421 1.07064,34.57846 1.66888,69.2759 0,104.54775"
     id="path392"
     style="opacity:0.5;fill:none;stroke:url(#linearGradient496);stroke-width:1.04430354;stroke-linecap:round"
     inkscape:connector-curvature="0" />
  <path
     d="m 700.81618,114.76707 c 5.92776,3.81183 12.26143,8.7098 17.84128,12.03242 -0.41524,-5.0218 -7.62583,-7.43317 -11.49712,-10.24036 -2.6834,-2.30366 -5.98008,-3.99337 -9.16088,-4.45878 l 2.8171,2.66672 z"
     id="path394"
     inkscape:connector-curvature="0"
     style="fill:#eeeeee;fill-rule:evenodd;stroke-width:1.27149415" />
  <path
     d="m 692.80415,131.89702 c -0.35658,-6.2e-4 -0.71115,0.0157 -1.07036,0.0329 -1.41601,0.0675 -2.83934,0.26899 -4.28151,0.59104 h -0.0648 c -21.70324,6.52052 -30.48866,26.78747 -41.09512,48.89138 l -0.74601,0.22986 c -3.11079,9.67055 -5.03166,20.33846 -5.31941,31.58743 -0.25699,10.04668 0.82365,19.72056 2.91921,28.6655 9.68773,-48.82358 24.83348,-94.32351 46.70732,-95.1896 24.26734,-0.96066 35.48038,48.88498 34.57555,105.99209 3.9978,-12.28496 6.49025,-26.50858 6.87632,-41.60187 0.0452,-1.77019 0.0452,-3.51427 0.0325,-5.25362 -2.5641,-30.48083 -9.529,-57.09687 -25.33139,-69.57782 -4.09498,-2.80143 -8.53141,-4.35886 -13.20088,-4.36705 z"
     id="path396"
     style="fill:url(#z);fill-rule:evenodd;stroke-width:1.27149415"
     inkscape:connector-curvature="0" />
  <path
     d="m 694.62392,146.50674 c -0.62829,0.0211 -1.24389,0.0892 -1.88118,0.19701 -0.14056,0.0238 -0.28144,0.0711 -0.42166,0.0985 17.13739,1.83824 27.25478,30.2109 30.74899,67.9032 2.31894,13.79352 3.76249,32.53541 3.76249,53.1937 0,0.48709 0.001,0.95983 0,1.44473 1.24751,-9.38975 1.933,-19.27664 1.97849,-29.25654 0.24497,-53.62994 -14.70977,-94.23267 -34.18632,-93.58023 z"
     id="path398"
     inkscape:connector-curvature="0"
     style="opacity:0.60996004;fill:#ffffff;fill-rule:evenodd;stroke-width:1.27149415" />
  <path
     d="m 730.33682,273.08165 c -2.32184,14.6788 -4.26773,29.96911 -10.80094,38.25264 2.64321,-1.02054 5.29704,-2.01773 7.94669,-3.02083 1.3992,-10.41307 3.70815,-22.48899 2.85425,-35.2322 z"
     id="path400"
     style="fill:url(#aa);fill-rule:evenodd;stroke-width:1.27149415"
     inkscape:connector-curvature="0" />
  <path
     d="m 732.53571,231.15867 c 0.42103,26.21689 -1.31428,53.18858 -2.75695,75.15945 l 59.84249,-21.08047 c -6.06702,-28.03352 -28.75482,-49.79074 -57.0863,-54.08026 z"
     id="path402"
     style="fill:url(#ab);fill-rule:evenodd;stroke-width:1.27149415"
     inkscape:connector-curvature="0" />
  <path
     d="m 719.36768,311.06436 c 54.99737,-18.11375 106.80762,-40.13963 159.31797,-54.9003"
     id="path404"
     style="opacity:0.7;fill:url(#h);fill-rule:evenodd;stroke:#986601;stroke-width:1.04430354;stroke-linecap:round"
     inkscape:connector-curvature="0" />
  <path
     d="m 711.77762,124.0445 c -2.74375,0.78077 -5.68061,6.69687 -8.88725,8.34014 -0.49333,0.25282 -0.98607,0.377 -1.49203,0.39403 -0.25297,0.009 -0.52224,-0.003 -0.77845,-0.0656 0.87905,0.46173 1.72848,0.97525 2.56239,1.51042 0.19389,0.12448 0.39036,0.269 0.58384,0.42685 22.33344,14.99673 28.34825,56.30543 28.80252,99.12961 1.65794,-17.29826 0.60038,-67.08006 1.84881,-72.04053 2.19097,-8.70556 1.81806,-16.79056 -0.58383,-23.41152 -0.23296,0.0611 -0.44736,0.13586 -0.68115,0.19701 l -2.2056,-4.10441 c -8.74635,-6.14393 -16.19341,-9.29579 -19.16925,-10.37594 z m -12.45514,8.04464 c 0.38955,0.29886 0.78556,0.47783 1.16767,0.59102 -0.3868,-0.20126 -0.772,-0.40428 -1.16767,-0.59102 z"
     id="path406"
     style="fill:url(#ac);fill-rule:evenodd;stroke-width:1.27149415"
     inkscape:connector-curvature="0" />
  <path
     d="m 708.47436,113.39821 c 7.55834,5.64495 18.21535,13.70908 24.39118,24.95421 1.07064,34.57846 1.66888,69.2759 0,104.54775"
     id="path408"
     style="opacity:0.64315;fill:none;stroke:url(#linearGradient498);stroke-width:1.04430354;stroke-linecap:round"
     inkscape:connector-curvature="0" />
  <path
     d="m 813.33836,95.948423 20.05028,7.726517 c 5.20605,10.14032 10.03108,21.09198 13.30957,33.18401"
     id="path410"
     inkscape:connector-curvature="0"
     style="opacity:0.3;fill:none;stroke:#fdca01;stroke-width:1.04430354" />
  <path
     d="m 911.9722,122.46851 c -7.23458,0 -14.11582,14.14021 -18.81183,35.82323 3.85576,-12.86474 10.40995,-21.9005 16.80124,-21.9005 0.99138,0 1.9311,0.2086 2.8219,0.62387 3.42268,0.13281 5.98968,3.07597 7.49251,12.14909 1.16829,4.76504 1.64246,10.60727 1.36229,17.00842 0.28455,8.57317 0.25458,19.36491 -0.16217,33.22879 l 3.60036,3.08647 c -2.95978,-28.24332 7.33454,-33.05609 -9.30886,-78.5752 -0.009,-0.023 -0.024,-0.0427 -0.0325,-0.0657 -1.21363,-0.88033 -2.45631,-1.3791 -3.76249,-1.3791 z m -22.12027,54.99881 c -0.47763,3.58782 -0.90077,7.26238 -1.26499,11.06551 0.40255,-2.39282 0.78657,-4.62265 1.16767,-6.73121 -0.003,-1.41095 0.0176,-2.85926 0.0973,-4.3343 z"
     id="path412"
     style="fill:url(#ad);fill-rule:evenodd;stroke-width:1.27149415"
     inkscape:connector-curvature="0" />
  <path
     d="m 914.27218,136.48974 c -0.46547,-0.001 -0.95539,0.11258 -1.4596,0.29552 -0.19823,0.0719 -0.38694,0.14798 -0.58383,0.26269 7.27388,-0.31354 10.80145,10.54624 9.24403,62.35355 l 0.48652,0.42687 c 0.70258,-5.88828 1.1028,-12.52316 1.1028,-19.5696 0.84093,-23.51883 -1.80788,-43.74728 -8.78997,-43.76903 z"
     id="path414"
     inkscape:connector-curvature="0"
     style="opacity:0.7;fill:#eeeeee;fill-rule:evenodd;stroke-width:1.27149415" />
  <g
     transform="matrix(1.0379237,0,0,1.0507227,42.642264,-334.85915)"
     id="g452"
     style="fill-rule:evenodd">
    <path
       d="m 503,437.86 56,-5 c -40.955,29.408 -79.651,59.954 -117,101 l -80,-0.5 c 41.866,-33.7 84.728,-67.038 141,-95.5 z"
       id="path416"
       inkscape:connector-curvature="0" />
    <path
       d="m 559,432.88 -56,5 c -6.3478,3.2107 -12.507,6.4842 -18.531,9.8125 L 495,444.38 l 42.906,3.9375 c 6.966,-5.213 13.997,-10.341 21.094,-15.438 z"
       id="path418"
       style="fill:url(#bo)"
       inkscape:connector-curvature="0" />
    <path
       d="m 523.12,441.41 c -0.49116,-0.009 -0.98436,0.0102 -1.4688,0.0312 -14.868,0.64733 -20.32,7.2191 -28.281,12.531 -1.5632,3.9554 2.633,14.243 9.5625,21.875 12.187,-10.151 24.553,-19.764 37.125,-29.125 -5.3382,-3.1592 -11.34,-5.2056 -16.938,-5.3125 z"
       id="path420"
       style="fill:url(#bn)"
       inkscape:connector-curvature="0" />
    <path
       d="m 500.15,466.75 c -24.675,0.28754 -44.347,16.443 -43.365,28.941 0.38049,4.8435 4.0482,9.1282 9.9688,12.625 15.608,-15.16 31.494,-28.918 47.688,-41.875 -4.7291,-1.3005 -9.7733,0.25617 -14.291,0.30882 z"
       id="path422"
       style="fill:url(#bm)"
       inkscape:connector-curvature="0" />
    <path
       d="m 509.5,467.09375 c -3.03583,0.0923 -6.21052,0.77599 -9.34375,0.8125 -3.02179,0.0352 -5.94162,0.3281 -8.78125,0.8125 4.0545,0.99769 7.52534,3.49416 10.0625,6.875 3.39177,-2.83507 6.79954,-5.61803 10.21875,-8.375 -0.28676,-0.0224 -0.55243,-0.11629 -0.84375,-0.125 -0.42974,-0.0129 -0.88315,-0.0131 -1.3125,0 z"
       id="path424"
       style="fill:url(#bl)"
       inkscape:connector-curvature="0" />
    <path
       d="m 487.38,469.34 c -7.493,0 -13.847,5.3 -16.188,12.688 2.3708,-5.3309 7.9123,-9.0625 14.375,-9.0625 5.3953,-1e-5 10.16,2.6022 12.969,6.5625 0.91616,-0.77591 1.8318,-1.543 2.75,-2.3125 -3.1158,-4.7641 -8.1764,-7.875 -13.906,-7.875 z"
       id="path426"
       inkscape:connector-curvature="0" />
    <path
       d="m 470.5,491.62 c 0.57026,3.5088 2.0325,6.6673 4.0938,9.2188 L 476,499.5263 c -2.6505,-1.9718 -4.6139,-4.7192 -5.5,-7.9062 z"
       id="path428"
       inkscape:connector-curvature="0"
       style="fill:#666666" />
    <path
       d="m 483.97,474.66 c -6.2208,0 -11.281,5.0155 -11.281,11.188 0,4.6534 2.8904,8.6296 6.9688,10.312 5.0096,-4.587 10.057,-9.0508 15.125,-13.406 -1.35,-4.6742 -5.6694,-8.0938 -10.812,-8.0938 z"
       id="path430"
       inkscape:connector-curvature="0"
       style="fill:#1a1a1a" />
    <path
       d="m 485.56,474.12 c -6.015,0 -11.133,3.4748 -13.312,8.375 -0.27741,0.51014 -0.88857,0.73752 -1.432,0.53277 -0.54343,-0.20475 -0.85252,-0.77892 -0.72429,-1.3453 0.81178,-2.5623 2.182,-4.7707 3.8125,-6.75 -1.5148,0.85268 -3.0424,1.7034 -4.375,2.6562 -7.6799,5.4915 -12.034,12.395 -11.594,18 0.3231,4.113 3.4308,7.9312 8.6875,11.219 9.967,-9.6497 20.052,-18.705 30.25,-27.375 -2.642,-3.1796 -6.6849,-5.3125 -11.312,-5.3125 z"
       id="path432"
       style="fill:url(#bk)"
       inkscape:connector-curvature="0" />
    <path
       d="m 486.19,473.16 c -4.2432,-0.009 -8.4187,2.1531 -11.219,5.7812 3.1991,-3.3062 8.3075,-4.5622 13.094,-2.8125 3.2465,1.1868 5.7086,3.5245 7.0625,6.3438 0.78378,-0.67269 1.5585,-1.3635 2.3438,-2.0312 -1.4439,-2.9626 -3.8704,-5.3331 -7.0625,-6.5 -1.3873,-0.50716 -2.8044,-0.77826 -4.2188,-0.78125 z"
       id="path434"
       inkscape:connector-curvature="0"
       style="fill:#eeeeee" />
    <path
       d="m 474.03,480.59 c -2.6328,3.4071 -3.6098,7.7389 -2.5938,11.594 0.33869,1.285 0.89696,2.5157 1.6875,3.6562 0.91792,1.3243 2.0706,2.4011 3.375,3.2188 0.76315,-0.70866 1.5168,-1.4224 2.2812,-2.125 -1.6206,-0.86361 -3.0857,-2.1153 -4.2188,-3.75 -2.7274,-3.935 -2.7766,-8.9004 -0.53125,-12.594 z"
       id="path436"
       inkscape:connector-curvature="0"
       style="fill:#eeeeee" />
    <path
       d="m 523.09375,443 c -0.42899,-0.008 -0.89481,0.0103 -1.375,0.0312 -14.04272,0.6114 -19.06453,6.46156 -26.875,11.8125 -0.34239,1.23861 0.0234,4.39158 1.59375,8.0625 0.22751,0.53183 0.48065,1.07875 0.75,1.625 l 30.34375,-20.96875 c -1.4974,-0.31987 -2.99096,-0.53488 -4.4375,-0.5625 z"
       id="path438"
       style="fill:url(#bj)"
       inkscape:connector-curvature="0" />
    <path
       d="m 524.59,443.69 c -6.3866,0 -11.438,5.8222 -11.438,12.75 0,3.3115 1.1817,6.3155 3.0625,8.5938 3.3254,-2.6454 6.6466,-5.2561 10,-7.8438 l 0.0625,-5.5938 5.5312,-2.2188 c 0.441,-0.17556 0.77469,-0.56731 0.875,-1.0312 0.10031,-0.46389 -0.0459,-0.93919 -0.375,-1.2812 -2.0053,-2.0561 -4.7287,-3.375 -7.7188,-3.375 z"
       id="path440"
       style="fill:url(#bi)"
       inkscape:connector-curvature="0" />
    <path
       d="m 524.59,445.12 c -5.5133,0 -10,5.0673 -10,11.312 0,2.9894 1.0421,5.6957 2.7188,7.7188 2.4835,-1.9687 4.9697,-3.9073 7.4688,-5.8438 l 0.0625,-7.6875 6.4375,-2.5625 c -1.7722,-1.8171 -4.1106,-2.9375 -6.6875,-2.9375 z"
       id="path442"
       inkscape:connector-curvature="0"
       style="fill:#980101" />
    <path
       d="m 482.02687,477.67538 c -3.70675,1.10477 -6.75059,4.80011 -6.76617,8.21438 -0.0117,2.55274 1.65474,4.26978 4.06056,4.49766 0.28997,0.0316 0.63097,-0.15317 0.82081,-0.44467 0.18984,-0.2915 0.17775,-0.61179 -0.0291,-0.771 -0.79869,-0.62441 -1.27598,-1.60642 -1.27035,-2.8374 0.0125,-2.73627 2.42371,-5.66353 5.39435,-6.54892 0.76531,-0.22809 1.47966,-0.3063 2.12835,-0.24033 0.28999,0.0315 0.63099,-0.15318 0.82082,-0.44469 0.18983,-0.29151 0.17776,-0.61179 -0.0291,-0.77098 -1.22896,-0.97161 -3.08112,-1.26477 -5.1302,-0.65405 z"
       id="path444"
       style="fill:url(#ag)"
       inkscape:connector-curvature="0" />
    <path
       d="m 523.10936,446.78415 c -3.32595,0.80119 -6.26326,4.04511 -6.52934,7.21094 -0.19897,2.36699 1.13259,4.06004 3.22139,4.41645 0.25147,0.0467 0.56357,-0.10403 0.75127,-0.36294 0.1877,-0.25891 0.20081,-0.55673 0.0316,-0.71688 -0.65286,-0.62729 -0.998,-1.5669 -0.90206,-2.7083 0.21326,-2.53716 2.54007,-5.10684 5.20554,-5.74894 0.68669,-0.16541 1.31769,-0.19487 1.88057,-0.0946 0.25148,0.0467 0.56357,-0.10403 0.75129,-0.36295 0.18772,-0.25892 0.2008,-0.55672 0.0315,-0.71687 -1.0038,-0.97527 -2.6032,-1.35884 -4.44177,-0.91593 z"
       id="path446"
       style="fill:url(#af)"
       inkscape:connector-curvature="0" />
    <path
       d="m 525.34,441.5 0.28125,0.0937 c 4.8556,0.56263 9.8847,2.4306 14.438,5.125 l 3.0312,-2.25 c -2.5448,-1.2184 -12.448,-3.2031 -17.75,-2.9688 z"
       id="path448"
       inkscape:connector-curvature="0"
       style="fill:#ffffff" />
    <path
       d="m 399.52,516.73 59.397,-2.8284"
       id="path450"
       style="fill:#ffffff;stroke:url(#ae);stroke-linecap:round"
       inkscape:connector-curvature="0" />
  </g>
  <path
     d="m 402.72842,91.867425 c -13.86054,1.081733 -27.72868,2.048686 -41.57912,3.262751 0.12423,4.169783 7.8806,0.439917 11.03246,1.166462 l 21.7879,-1.671034 c -1.66104,1.590566 -6.94291,4.594129 -6.35919,5.315532 31.50343,-2.889193 63.089,0.428164 94.51788,2.696274 1.75139,-4.013196 -6.81364,-1.77914 -9.29016,-2.792094 -26.35501,-2.001608 -52.82755,-4.143685 -79.25839,-2.330135 3.41636,-4.092128 8.6626,-3.535756 13.41193,-3.479339 28.27461,0.763902 56.55681,1.332017 84.83395,2.034614 6.13791,2.772776 12.1808,5.760474 18.3771,8.399944 2.30997,-3.49968 -6.43717,-4.13626 -8.57514,-6.200171 -5.01851,-2.495165 -10.06646,-5.18888 -15.82564,-4.448927 L 402.7259,91.86754 Z"
     id="path454"
     style="opacity:0.6;fill:url(#bf);fill-rule:evenodd;stroke-width:1.27149415"
     inkscape:connector-curvature="0" />
  <path
     d="m 254.923,93.735217 c -0.31702,1.143588 5.67716,0.374454 7.75688,0.94619 5.01876,0.09316 12.21278,-2.977081 11.72258,5.929343 0.42107,3.77051 -0.52535,9.03449 4.81719,7.64004 12.22327,0.56444 24.43794,1.58916 36.66955,1.80165 7.35602,-0.0799 14.7123,-0.14274 22.06845,-0.19512 -6.03581,-1.55027 -12.65369,-0.81241 -18.91924,-1.52033 -9.8553,-2.29905 -19.94034,-4.16339 -29.88587,-6.30188 -2.63803,0.18043 -8.1202,-3.321216 -8.89461,-0.13727 -8.28511,5.66453 16.52449,3.00817 24.46701,5.64457 l -27.74511,-1.52686 c -1.12088,-3.62965 0.67534,-10.448758 -2.41246,-11.936083 -6.54825,-0.08907 -13.09599,-0.243274 -19.64336,-0.344288 z m -2.75694,4.432808 -42.55472,0.394028 c -5.57291,2.621557 3.10042,2.187107 5.35314,2.023487 12.54122,-0.13022 25.08497,-0.12717 37.62366,-0.41454 1.04758,-0.34591 0.66027,-2.099345 -0.42166,-2.002885 z"
     id="path456"
     style="opacity:0.6;fill:url(#bg);fill-rule:evenodd;stroke-width:1.27149415"
     inkscape:connector-curvature="0" />
  <path
     d="m 590.96045,77.024873 c -5.25672,0.115266 -10.84631,0.692721 -16.63948,1.773123 -19.73941,3.681342 -37.09795,12.333698 -47.0637,22.361054 33.2815,-2.985268 65.32454,-3.063434 103.04677,-2.955204 10e-4,-0.07744 0,-0.152494 0,-0.229853 0,-13.272839 -16.56492,-21.448908 -39.34359,-20.948698 z"
     id="path458"
     style="opacity:0.8;fill:url(#bh);fill-rule:evenodd;stroke-width:1.27149415"
     inkscape:connector-curvature="0" />
</svg>
