<?xml version="1.0" encoding="UTF-8"?>
<svg viewBox="0 0 625 312.5" xmlns="http://www.w3.org/2000/svg" xmlns:xlink="http://www.w3.org/1999/xlink">
 <defs>
  <linearGradient id="b">
   <stop stop-color="#ccc" offset="0"/>
   <stop stop-color="#999" offset="1"/>
  </linearGradient>
  <linearGradient id="d">
   <stop stop-color="#fff" offset="0"/>
   <stop stop-color="#00005f" offset="1"/>
  </linearGradient>
  <linearGradient id="c" x1=".011678" x2=".99611" y1="-.95455" y2="1.9091" xlink:href="#d"/>
  <linearGradient id="h" x2="0" y1=".53435" y2=".51145" xlink:href="#b" spreadMethod="reflect"/>
  <linearGradient id="g" x2="0" y1=".50382" y2=".43511" xlink:href="#b" spreadMethod="reflect"/>
  <radialGradient id="a" cx=".49616" cy=".44275" r=".62824">
   <stop stop-color="#fff" offset="0"/>
   <stop stop-color="#00f" offset="1"/>
  </radialGradient>
  <radialGradient id="f" cx="1708.8" cy="46.943" r="79.984" gradientTransform="scale(.33138 3.0176)" gradientUnits="userSpaceOnUse" xlink:href="#d"/>
  <radialGradient id="e" xlink:href="#b"/>
 </defs>
 <path d="m32.209 31.145h539.03c13.343-0.06066 20.826 16.842 22.736 23.683 4.7353 14.227 5.935 187.55 0.9475 201.78-2.1369 9.1593-8.6241 24.375-22.736 24.63h-541.87l1.8946-250.09z" fill="#c00" fill-rule="evenodd" stroke="#000"/>
 <path d="m573.86 49.228c-1.1269-3.1424-1.8451-3.1722-4.2457-3.1363-4.3898 0.09085-21.311 3.5666-21.309 5.349 0.5588 35.011 1.67 87.257 1.6764 105.03-0.0064 17.564-1.1176 70.041-1.6764 105.06-0.0021 1.7823 16.919 5.2581 21.309 5.349 2.4006 0.0359 3.1188 6e-3 4.2457-3.1363 3.63-16.393 5.838-85.905 5.6534-107.31 0-24.1-1.7789-92.166-5.6534-107.21z" fill="url(#f)" fill-rule="evenodd" stroke="#000" stroke-linejoin="bevel" stroke-width="2.5"/>
 <path d="m583.35 33.366c6.9508 6.8107 8.7752 10.612 13.051 21.658 4.9035 34.564 5.6489 164.08 1.3374 199.54-3.5471 12.743-6.7599 18.13-12.424 24.075 0.43 1.5603 0.5252 2.1175 3.6299 2.5633 5.986-6.4636 10.858-12.704 13.055-24.518 5.6106-26.54 3.8657-170.77-0.3311-202.66-3.4961-10.527-8.3294-18.156-15.392-23.333l-2.9261 2.6748v-1e-5z" fill="#7e7e7e" fill-rule="evenodd" stroke="#000" stroke-width="2.5"/>
 <path d="m582.65 90.941c2.8233 43.539 2.972 87.078 0.4458 130.62h9.3617c2.229-43.539 2.229-87.524 0-130.62h-9.8075z" fill="#595959" fill-rule="evenodd" stroke="#000" stroke-width="1.3705"/>
 <path d="m31.662 117.91h86.41v75.856h-86.41z" fill="url(#g)" fill-rule="evenodd"/>
 <path d="m426.4 57.087h114.12v198.82h-114.12z" fill="#fff" fill-rule="evenodd"/>
 <path transform="translate(2.5218 -12.609)" d="m532.1 91.213a15.761 15.761 0 1 0 -31.522 0 15.761 15.761 0 1 0 31.522 0z" fill="url(#a)" fill-rule="evenodd"/>
 <path transform="translate(3.7827 144.37)" d="m532.1 91.213a15.761 15.761 0 1 0 -31.522 0 15.761 15.761 0 1 0 31.522 0z" fill="url(#a)" fill-rule="evenodd"/>
 <text transform="matrix(0 1.3762 -1.5267 0 0 0)" x="46.105" y="-288.25637" font-family="Arial Black" font-size="36" writing-mode="lr">
  <tspan x="46.105" y="-288.25638">STRA</tspan>
 </text>
 <path transform="translate(-458.97 -32.783)" d="m532.1 91.213a15.761 15.761 0 1 0 -31.522 0 15.761 15.761 0 1 0 31.522 0z" fill="url(#a)" fill-rule="evenodd"/>
 <path transform="translate(-462.75 165.18)" d="m532.1 91.213a15.761 15.761 0 1 0 -31.522 0 15.761 15.761 0 1 0 31.522 0z" fill="url(#a)" fill-rule="evenodd"/>
 <path d="m414.2 30.689v250.29" fill="none" stroke="#000" stroke-width="2.5"/>
 <g transform="matrix(.74614 0 0 1 137.57 -7.1526e-7)" fill="url(#c)" fill-rule="evenodd" stroke="#000" stroke-linejoin="bevel">
  <path d="m476.38 48.423c-1.4145-2.2587-2.1965-9.0487-0.782-10.37l85.424-0.85705c5.8246-0.08043 5.8739 3.4329 3.3303 4.4462-4.7146 1.7188-23.356 6.656-28.394 7.0933-8.9927 0-58.172 1.5625-59.578-0.31252z" stroke-width="2.7964"/>
  <path d="m477.17 264.99c-1.4144 2.2586-2.1964 9.0486-0.782 10.37l85.424 0.857c5.8247 0.0804 5.874-3.4329 3.3304-4.4462-4.7147-1.7188-23.357-6.6559-28.394-7.0932-8.9927 0-58.172-1.5625-59.579 0.3125z" stroke-width="2.7964"/>
 </g>
 <path d="m486.16 48.423c1.0554-2.2587 1.6389-9.0487 0.5835-10.37l-60.586 0.08864c-4.346-0.08044-3.367 10.157 0.3914 10.594 6.7097 0 58.561 1.5625 59.611-0.31252z" fill="url(#c)" fill-rule="evenodd" stroke="#000" stroke-linejoin="bevel" stroke-width="2.4155"/>
 <path transform="matrix(-.74614 0 0 1 842.24 -7.1526e-7)" d="m477.17 264.99c-1.4144 2.2586-2.1964 9.0486-0.782 10.37l77.397-0.0887c5.8247 0.0804 7.1198-10.156 2.0829-10.594-8.9928-0.3152-77.291-1.5625-78.698 0.3125z" fill="url(#c)" fill-rule="evenodd" stroke="#000" stroke-linejoin="bevel" stroke-width="2.7964"/>
 <path d="m116.23 45.413h263.76v222h-263.76z" fill="url(#h)" fill-rule="evenodd"/>
 <path d="m34.3 113.3h78.494" fill="none" stroke="#000" stroke-width="2.5"/>
 <path d="m33.64 198.06h79.154" fill="none" stroke="#000" stroke-width="2.5"/>
 <path transform="translate(1.6491 -5.9366)" d="m354.87 162.11a24.406 24.406 0 1 0 -48.812 0 24.406 24.406 0 1 0 48.812 0z" fill="#fff" fill-opacity=".6183" fill-rule="evenodd" stroke="url(#e)" stroke-width="1.25"/>
 <path d="m324.93 151.12h79.612a2.6384 2.6384 0 0 1 2.6384 2.6384v4.9843a2.6384 2.6384 0 0 1 -2.6384 2.6384h-79.612a2.6384 2.6384 0 0 1 -2.6384 -2.6384v-4.9843a2.6384 2.6384 0 0 1 2.6384 -2.6384" fill="#fff" fill-rule="evenodd" stroke="#000" stroke-width="2.5"/>
 <path d="m311.34 166.72 10.884-5.6067v-10.224l-11.213-4.6172" fill="none" stroke="#000" stroke-width="3.75"/>
 <path transform="matrix(1.5066 0 0 1.5066 -65.819 -104.2)" d="m153.92 220.15c0.7763 0.6631-0.0288 1.569-0.8551 1.6325-1.7452 0.1341-2.6791-1.8564-2.4098-3.3427 0.4766-2.6306 3.4249-3.8706 5.8302-3.1872 3.5077 0.9966 5.0874 5.0106 3.9646 8.3178-1.4899 4.3884-6.6017 6.3146-10.805 4.742-5.2716-1.9721-7.547-8.1953-5.5193-13.293 2.4488-6.1566 9.7901-8.7825 15.781-6.2967 7.0425 2.9224 10.02 11.386 7.074 18.268-3.394 7.9293-12.982 11.259-20.756 7.8515-8.8165-3.8643-12.498-14.579-8.6288-23.243 4.3337-9.7042 16.176-13.738 25.731-9.4062 10.592 4.8024 14.979 17.773 10.184 28.218" fill="none" stroke="#000b00" stroke-width="1.6593"/>
 <path transform="matrix(1.5066 0 0 1.5066 -67.576 -104.2)" d="m154.85 220.15c-0.7859-0.6211-0.0305-1.5393 0.7773-1.6325 1.7061-0.1967 2.696 1.72 2.4876 3.1872-0.3689 2.597-3.2133 3.9229-5.597 3.3427-3.4763-0.846-5.1751-4.7224-4.1978-8.0069 1.2967-4.3581 6.2365-6.4376 10.417-5.0529 5.2421 1.7366 7.7055 7.7529 5.908 12.827-2.1708 6.1276-9.2703 8.9764-15.236 6.7631-7.0139-2.602-10.249-10.788-7.6182-17.646 3.0312-7.9009 12.307-11.523 20.056-8.4733 8.7884 3.4592 12.798 13.826 9.3285 22.466-3.8863 9.6761-15.346 14.074-24.876 10.184-10.564-4.3126-15.35-16.865-11.039-27.286" fill="none" stroke="#000b00" stroke-width="1.6593"/>
</svg>
