<?xml version="1.0" encoding="UTF-8"?>
<svg viewBox="0 0 640 480" xmlns="http://www.w3.org/2000/svg">
 <path d="m403.81 278.23c0.03152 99.896-85.569 180.89-191.17 180.89s-191.2-80.998-191.17-180.89c-0.0315-99.896 85.569-180.89 191.17-180.89s191.2 80.998 191.17 180.89z" fill="#c8beb7" stroke="#000" stroke-linecap="round" stroke-linejoin="round" stroke-width="3.2874"/>
 <path d="m392.26 216.19c0.134 2.7762 0.21817 5.6022 0.21817 8.4095 0 99.824-85.636 180.83-191.16 180.83-82.486 0-152.87-49.527-179.66-118.82 4.6311 95.941 88.44 172.47 191 172.47 105.53 0 191.16-81.007 191.16-180.83 0-21.796-4.0807-42.71-11.563-62.066z" fill-opacity=".31372"/>
 <path d="m226.92 460.78c0 15.008 25.595 15.488 57.132 15.488s57.132 1.1449 57.132-15.488c0-29.248-25.595-52.986-57.132-52.986s-57.132 23.738-57.132 52.986z" fill="#6c5d53" stroke="#000" stroke-linecap="round" stroke-linejoin="round" stroke-width="4"/>
 <path d="m360.36 219.98c0 74.581-96.203 135.11-142.83 135.11-44.886 0-142.83-60.529-142.83-135.11s42.978-135.11 142.83-135.11c99.87 0 142.83 60.529 142.83 135.11z" fill-opacity=".31372"/>
 <path transform="rotate(11.224 177.38 356.65)" d="m119.67 305.52c13.528 29.607 19.832 38.512 19.43 55.451-0.18268 7.7161 16.031-12.607 17.155-22.764-0.82588 14.67 2.0919 18.678 3.8074 33.855s7.4067 41.509 9.0591 35.606c3.4311-12.258 5.0372-37.673 14.446-45.529 4.2583 15.176 26.03 40.658 22.438 30.936-8.7235-23.604-11.931-34.92-4.2888-49.614 13.674 15.708 21.497 22.209 18.871 13.425-4.4318-14.823 1.8769-35.184 13.365-43.778 14.583-10.908-114.28-8.1719-114.28-7.5881z" fill="#6c5d53" fill-rule="evenodd" stroke="#000" stroke-linejoin="round" stroke-width="4"/>
 <path d="m306.03 475.28c0-27.022-16.48-43.651-16.48-43.651s6.5922 22.865 5.4935 43.651h10.987z" fill-opacity=".31372" fill-rule="evenodd" stroke="#000" stroke-linejoin="round" stroke-width="4"/>
 <path transform="rotate(13.114 213.53 198.43)" d="m207.97 63.338c-52.584 1.008-88.891 19.239-111.04 47.465-41.999-4.2724-94.045 49.158-98.499 69.705s44.043 5.8283 77.556-28.173-6.2176 29.892-6.2176 46.072c0 74.581 97.955 135.12 142.84 135.12 46.628 0 142.84-60.539 142.84-135.12 0-16.18-21.376-78.419-6.2176-46.072s95.737 84.71 76.827 38.803-55.779-84.593-97.771-80.334c-22.796-29.049-60.575-47.465-115.68-47.465-1.5602 0-3.1034-0.02938-4.6359 0z" fill="#c8beb7" stroke="#000" stroke-linecap="round" stroke-linejoin="round" stroke-width="4"/>
 <path transform="rotate(15.146 162.29 159.1)" d="m208.06 159.1c0.00755 23.914-20.485 43.305-45.766 43.305s-45.773-19.39-45.766-43.305c-0.00753-23.914 20.485-43.305 45.766-43.305s45.773 19.39 45.766 43.305z" fill="#fff" stroke="#000" stroke-linecap="round" stroke-linejoin="round" stroke-width="5.8889"/>
 <path d="m313.34 171.31c0.00772 24.587-21.061 44.523-47.053 44.523s-47.061-19.936-47.053-44.523c-0.00775-24.587 21.061-44.523 47.053-44.523s47.061 19.936 47.053 44.523z" fill="#fff" stroke="#000" stroke-linecap="round" stroke-linejoin="round" stroke-width="5.8889"/>
 <path d="m263.18 186.01c0.00217 6.8893-5.9013 12.475-13.184 12.475s-13.187-5.5861-13.184-12.475 5.9013-12.476 13.184-12.476 13.187 5.5861 13.184 12.476z"/>
 <path d="m185.83 176.01c0.0022 6.8893-5.9013 12.475-13.184 12.475s-13.187-5.5861-13.184-12.475 5.9013-12.476 13.184-12.476 13.187 5.5861 13.184 12.476z"/>
 <path transform="rotate(11.612 298.97 81.902)" d="m250.37 103.92c-2.1945-12.431 13.854-43.551 47.008-55.157 22.809-7.9847 46.702-17.19 50.387 30.647-14.842-27.56-26.221-15.472-38.694-8.9098-25.029 13.168-13.741 41.232-25.723 48.626-11.154 6.8829-30.704-2.3207-32.979-15.207z" fill="#6c5d53" fill-rule="evenodd" stroke="#000" stroke-linejoin="round" stroke-width="4"/>
 <path transform="rotate(8.572 206.48 248.62)" d="m342.75 158.93-3.2724 4.3854c0.43439 5.0775 0.59994 10.24 0.59994 15.478 0 74.581-96.213 135.12-142.84 135.12-36.138 3.1e-5 -106.63-39.219-132.75-93.434 13.292 66.445 99.782 117.84 141.15 117.84 46.628 0 142.84-60.539 142.84-135.12 0-15.505-1.8768-30.395-5.7267-44.266z" fill-opacity=".31372"/>
 <path d="m200.74 460.78c0 15.008-25.595 15.488-57.132 15.488s-57.132 1.1449-57.132-15.488c0-29.248 25.595-52.986 57.132-52.986s57.132 23.738 57.132 52.986z" fill="#6c5d53" stroke="#000" stroke-linecap="round" stroke-linejoin="round" stroke-width="4"/>
 <path d="m121.64 475.28c0-27.022 16.48-43.651 16.48-43.651s-6.5922 22.865-5.4935 43.651h-10.987z" fill-opacity=".31372" fill-rule="evenodd" stroke="#000" stroke-linejoin="round" stroke-width="4"/>
 <path d="m226.61 249.11c-4.0015 6.5594-11.345 9.6392-16.4 6.8783s-5.9073-10.317-1.9029-16.874 11.345-9.6392 16.4-6.8783 5.9073 10.317 1.9028 16.874z"/>
 <path d="m178.47 246.11c4.0015 6.5594 11.345 9.6392 16.4 6.8783s5.9073-10.317 1.9028-16.874-11.345-9.6392-16.4-6.8783-5.9073 10.317-1.9028 16.874z"/>
 <path transform="rotate(7.1809 171.18 55.429)" d="m226.25 80.302c2.1553-15.408-13.607-53.982-46.168-68.368-22.401-9.8972-60.532 1.8263-64.151 61.122 14.576-34.161 40.418-42.311 52.667-34.177 24.581 16.322 13.495 51.108 25.263 60.273 10.955 8.5315 30.155-2.8765 32.389-18.849z" fill="#6c5d53" fill-rule="evenodd" stroke="#000" stroke-linejoin="round" stroke-width="4"/>
</svg>
