<?xml version="1.0" encoding="UTF-8" standalone="no"?>
<svg
   xmlns:dc="http://purl.org/dc/elements/1.1/"
   xmlns:cc="http://creativecommons.org/ns#"
   xmlns:rdf="http://www.w3.org/1999/02/22-rdf-syntax-ns#"
   xmlns:svg="http://www.w3.org/2000/svg"
   xmlns="http://www.w3.org/2000/svg"
   xmlns:sodipodi="http://sodipodi.sourceforge.net/DTD/sodipodi-0.dtd"
   xmlns:inkscape="http://www.inkscape.org/namespaces/inkscape"
   viewBox="0 0 269 400"
   height="400"
   width="269"
   xml:space="preserve"
   id="svg2"
   version="1.1"
   sodipodi:docname="ninja1.svg"
   inkscape:version="0.92.3 (2405546, 2018-03-11)"><sodipodi:namedview
     pagecolor="#ffffff"
     bordercolor="#666666"
     borderopacity="1"
     objecttolerance="10"
     gridtolerance="10"
     guidetolerance="10"
     inkscape:pageopacity="0"
     inkscape:pageshadow="2"
     inkscape:window-width="1920"
     inkscape:window-height="1052"
     id="namedview166"
     showgrid="false"
     inkscape:zoom="1.3906433"
     inkscape:cx="432.77607"
     inkscape:cy="192.78201"
     inkscape:window-x="0"
     inkscape:window-y="360"
     inkscape:window-maximized="1"
     inkscape:current-layer="svg2" /><metadata
     id="metadata8"><rdf:RDF><cc:Work
         rdf:about=""><dc:format>image/svg+xml</dc:format><dc:type
           rdf:resource="http://purl.org/dc/dcmitype/StillImage" /><dc:title></dc:title></cc:Work></rdf:RDF></metadata><defs
     id="defs6"><clipPath
       id="clipPath18"
       clipPathUnits="userSpaceOnUse"><path
         id="path16"
         d="M 0,720 H 720 V 0 H 0 Z"
         inkscape:connector-curvature="0" /></clipPath><clipPath
       id="clipPath226"
       clipPathUnits="userSpaceOnUse"><path
         id="path224"
         d="m 379.513,322.903 c -33.952,-0.059 -67.85,6.667 -101.764,15.317 v 0 V 293 247.78 c 33.914,-8.649 67.811,-15.376 101.764,-15.328 v 0 c 33.956,0.048 67.849,6.881 101.784,15.638 v 0 45.233 45.243 C 447.362,329.798 413.47,322.963 379.513,322.903"
         inkscape:connector-curvature="0" /></clipPath><linearGradient
       id="linearGradient236"
       spreadMethod="pad"
       gradientTransform="matrix(1e-6,-81.60186,-81.60186,-1e-6,379.52344,314.0752)"
       gradientUnits="userSpaceOnUse"
       y2="0"
       x2="1"
       y1="0"
       x1="0"><stop
         id="stop232"
         offset="0"
         style="stop-opacity:1;stop-color:#ffffff" /><stop
         id="stop234"
         offset="1"
         style="stop-opacity:1;stop-color:#e5e6e5" /></linearGradient><clipPath
       id="clipPath246"
       clipPathUnits="userSpaceOnUse"><path
         id="path244"
         d="M 0,720 H 720 V 0 H 0 Z"
         inkscape:connector-curvature="0" /></clipPath></defs><g
     transform="matrix(0.76952992,0,0,-0.64833395,-134.12987,439.95511)"
     id="g10"><g
       id="g12"><g
         clip-path="url(#clipPath18)"
         id="g14"><g
           transform="translate(242.6567,223.0332)"
           id="g20" /><g
           transform="translate(188.0439,272.9189)"
           id="g24"><path
             id="path26"
             style="fill:#030408;fill-opacity:1;fill-rule:evenodd;stroke:none"
             d="m 0,0 c 9.77,30.744 15.168,63.715 10.507,95.896 l -0.22,1.521 1.238,0.911 c 2.037,1.499 4.079,2.992 6.119,4.488 l 3.19,2.338 0.832,-3.866 C 29.716,63.89 35.046,25.219 35.994,-13.046 l 0.231,-9.331 -4.965,7.904 C 24.231,-3.282 10.466,-11.969 0.674,-2.631 l -1.159,1.106 z"
             inkscape:connector-curvature="0" /></g><g
           transform="translate(207.2041,373.667)"
           id="g28"><path
             id="path30"
             style="fill:#28203d;fill-opacity:1;fill-rule:evenodd;stroke:none"
             d="m 0,0 c -4.077,-2.989 -6.116,-4.484 -6.116,-4.484 4.223,-29.164 0.69,-61.51 -10.601,-97.04 8.988,-8.571 23.055,0.298 30.988,-12.333 C 13.29,-74.241 7.445,-34.59 0,0"
             inkscape:connector-curvature="0" /></g><g
           transform="translate(211.5913,342.8857)"
           id="g32"><path
             id="path34"
             style="fill:#141226;fill-opacity:1;fill-rule:evenodd;stroke:none"
             d="m 0,0 c -2.446,-5.3 -3.669,-7.95 -3.669,-7.95 1.606,-8.115 2.013,-27.618 1.222,-58.509 C 0.146,-48.019 0.962,-25.864 0,0"
             inkscape:connector-curvature="0" /></g><g
           transform="translate(438.9014,348.3398)"
           id="g36"><path
             id="path38"
             style="fill:#030408;fill-opacity:1;fill-rule:evenodd;stroke:none"
             d="m 0,0 7.384,-27.156 2.543,0.161 c 7.403,0.472 15.648,-8.33 19.202,-14.011 1.524,-2.437 2.804,-5.073 3.681,-7.814 1.565,-4.891 1.894,-10.345 -0.67,-14.961 -0.649,-1.168 -1.456,-2.234 -2.388,-3.192 -1.437,-1.48 -2.813,-3.149 -4.189,-4.697 -0.789,-0.889 -1.982,-2.343 -2.903,-3.134 l -2.041,-1.034 3.594,-13.221 2.231,-0.14 c 3.023,-0.191 7.593,1.38 10.368,2.499 4.981,2.01 9.825,4.789 14.06,8.092 11.318,8.829 17.758,20.988 16.023,35.586 -0.747,6.27 -9.174,15.153 -13.265,19.869 -3.042,3.507 -6.125,7.08 -8.795,10.882 C 40.075,-5.488 34.797,1.01 29.196,7.115 18.2,19.104 -6.784,42.952 -24.865,38.602 l -0.891,-0.214 -2.274,-2.375 c -1.517,-1.583 -2.97,-3.23 -4.333,-4.947 -3.941,-4.961 -7.152,-10.523 -8.875,-16.649 -2.117,-7.526 -1.736,-15.072 0.718,-22.484 l 0.064,-0.194 0.088,-0.182 c 1.277,-2.645 2.58,-5.276 3.918,-7.889 l 1.421,-2.778 2.779,1.42 c 0.137,0.069 0.272,0.139 0.409,0.21 C -21.065,-11.956 -10.474,-6.075 0,0"
             inkscape:connector-curvature="0" /></g><g
           transform="translate(405.6357,333.6377)"
           id="g40"><path
             id="path42"
             style="fill:#28203d;fill-opacity:1;fill-rule:evenodd;stroke:none"
             d="m 0,0 c -0.135,-0.069 -0.27,-0.138 -0.405,-0.207 -1.261,2.464 -2.556,5.071 -3.885,7.823 -2.338,7.063 -2.564,13.948 -0.677,20.657 1.478,5.249 4.249,10.434 8.315,15.553 1.257,1.583 2.638,3.158 4.142,4.729 l 1.641,1.713 c 17.824,4.288 48.557,-24.189 66.414,-49.631 2.62,-3.731 5.843,-7.504 8.992,-11.134 6.129,-7.066 11.974,-13.588 12.522,-18.192 3.57,-30.021 -30.764,-43.094 -37.153,-42.692 l -0.397,1.464 -1.944,7.146 c 0.435,0.219 1.98,1.906 3.599,3.729 1.659,1.867 3.397,3.876 4.095,4.596 1.172,1.206 2.124,2.496 2.877,3.85 2.912,5.244 2.83,11.445 0.914,17.43 -4.094,12.789 -16.556,24.595 -26.056,23.99 L 31.257,5.911 C 19.608,-0.906 11.848,6.074 0,0"
             inkscape:connector-curvature="0" /></g><g
           transform="translate(474.8486,264.6572)"
           id="g44"><path
             id="path46"
             style="fill:#030408;fill-opacity:1;fill-rule:evenodd;stroke:none"
             d="m 0,0 c 2.929,-0.508 6.259,1.501 8.435,3.158 3.531,2.691 6.658,6.391 8.979,10.159 6.065,9.846 7.557,21.452 1.103,31.56 -0.613,0.959 -1.218,1.922 -1.825,2.885 -8.134,12.913 -16.13,23.66 -32.714,19.932 -1.988,0.926 -4.845,-0.685 -6.538,-1.604 -2.844,-1.543 -5.641,-3.378 -8.294,-5.232 -2.76,-1.93 -9.528,-6.778 -11.019,-9.724 -4.333,-8.564 1.611,-21.216 6.118,-28.613 3.391,-5.565 12.899,-18.703 20.259,-20.256 2.012,-1.4 5.644,-1.5 8.023,-1.955 l 0.255,-0.499 1.662,0.101 C -4.911,-0.049 -4.8,-0.089 -4.221,-0.255 -2.776,-0.67 -1.391,-0.402 0,0"
             inkscape:connector-curvature="0" /></g><g
           transform="translate(485.9502,264.3906)"
           id="g48"><path
             id="path50"
             style="fill:#030408;fill-opacity:1;fill-rule:evenodd;stroke:none"
             d="m 0,0 c -2.274,0.39 -5.315,0.538 -7.24,1.791 -7.113,1.673 -15.851,13.724 -19.126,19.1 -4.348,7.134 -9.872,19.043 -5.702,27.284 1.471,2.91 7.752,7.406 10.465,9.304 2.483,1.735 5.101,3.451 7.764,4.896 1.8,0.977 4.461,2.405 6.533,1.619 5.678,1.21 11.266,0.762 16.435,-2.282 C 16.332,57.47 20.892,49.302 25.272,42.441 31.419,32.813 30.038,21.739 24.257,12.354 21.57,7.992 13.791,-1.383 7.472,-0.387 6.101,-0.768 4.758,-0.983 3.319,-0.569 2.856,-0.436 2.861,-0.411 2.345,-0.443 L 0.289,-0.569 Z"
             inkscape:connector-curvature="0" /></g><g
           transform="translate(493.3525,267.252)"
           id="g52"><path
             id="path54"
             style="fill:#0f0c1b;fill-opacity:1;fill-rule:evenodd;stroke:none"
             d="m 0,0 c -3.749,-1.161 -2.63,-0.016 -5.249,-0.177 -0.189,0.372 -7.403,0.848 -8.015,2.054 -7.85,0.533 -29.761,29.47 -23.411,42.021 1.883,3.722 21.946,17.228 20.995,13.775 C 1.195,62.261 7.879,49.406 15.229,37.894 27.085,19.325 5.671,-2.261 0,0"
             inkscape:connector-curvature="0" /></g><g
           transform="translate(372.9902,118.1504)"
           id="g56" /><g
           transform="translate(212.4541,487.6133)"
           id="g60"><path
             id="path62"
             style="fill:#141226;fill-opacity:1;fill-rule:evenodd;stroke:none"
             d="m 0,0 c 41.821,25.739 96.28,5.756 135.835,-58.514 39.555,-64.27 34.964,-155.44 -4.104,-162.976 -39.067,-7.535 -97.26,10.761 -136.815,75.031 C -44.64,-82.189 -41.822,-25.739 0,0"
             inkscape:connector-curvature="0" /></g><g
           transform="translate(281.3745,488.7285)"
           id="g64"><path
             id="path66"
             style="fill:#030408;fill-opacity:1;fill-rule:evenodd;stroke:none"
             d="m 0,0 c -23.286,10.031 -46.894,8.853 -67.321,-3.721 l -0.002,-10e-4 c -19.992,-12.303 -30.663,-31.978 -31.61,-56.28 -0.964,-24.767 8.074,-54.353 27.527,-85.966 v -0.001 l 0.004,-0.006 c 17.644,-28.666 39.021,-48.01 60.679,-59.887 25.936,-14.223 52.245,-17.741 72.959,-13.744 2.825,0.544 5.459,1.594 7.892,3.091 9.458,5.822 15.902,18.41 19.052,34.717 3.24,16.773 2.95,37.335 -1.143,58.556 -4.065,21.079 -11.885,42.773 -23.726,62.013 C 45.253,-30.266 22.761,-9.804 0,0 m -70.522,1.487 c 22.19,13.659 47.766,14.969 72.935,4.127 23.88,-10.286 47.361,-31.563 67.106,-63.642 12.235,-19.88 20.314,-42.292 24.514,-64.068 4.239,-21.975 4.524,-43.345 1.143,-60.848 -3.47,-17.969 -10.848,-32.009 -21.847,-38.779 -3.041,-1.872 -6.359,-3.187 -9.947,-3.88 -21.972,-4.238 -49.772,-0.566 -77.043,14.388 -22.52,12.351 -44.704,32.398 -62.949,62.039 v 10e-4 l -0.004,0.006 c -20.094,32.653 -29.422,63.426 -28.411,89.383 1.029,26.422 12.676,47.841 34.501,61.273 z"
             inkscape:connector-curvature="0" /></g><g
           transform="translate(311.3237,265.7168)"
           id="g68"><path
             id="path70"
             style="fill:#28203d;fill-opacity:1;fill-rule:evenodd;stroke:none"
             d="m 0,0 c -34.573,5.14 -74.448,27.495 -103.954,75.438 -28.879,46.922 -35.167,89.674 -20.184,119.352 33.959,0.693 70.64,-22.617 99.427,-69.391 C 0.098,85.09 7.538,34.201 0,0"
             inkscape:connector-curvature="0" /></g><g
           transform="translate(230.0654,456.1138)"
           id="g72"><path
             id="path74"
             style="fill:#fed9bb;fill-opacity:1;fill-rule:evenodd;stroke:none"
             d="M 0,0 C 30.093,17.375 68.363,7.427 75.736,-5.344 83.109,-18.115 53.786,-23.663 23.692,-41.037 -6.4,-58.411 -25.867,-81.032 -33.24,-68.262 -40.613,-55.491 -30.093,-17.375 0,0"
             inkscape:connector-curvature="0" /></g><g
           transform="translate(228.5537,458.7559)"
           id="g76"><path
             id="path78"
             style="fill:#030408;fill-opacity:1;fill-rule:evenodd;stroke:none"
             d="M 0,0 Z M 2.998,-5.304 2.994,-5.306 2.955,-5.326 c -14.351,-8.312 -24.053,-21.592 -29.294,-34.332 -5.116,-12.437 -5.996,-24.091 -2.755,-29.719 l 0.005,0.003 c 1.971,-3.414 6.014,-2.383 11.828,0.975 4.141,2.39 9.125,5.96 14.782,10.011 7.515,5.382 16.207,11.607 26.154,17.349 h 0.012 c 9.969,5.756 19.697,10.167 28.108,13.981 6.318,2.865 11.883,5.389 16.048,7.793 5.816,3.358 8.732,6.343 6.765,9.75 H 74.607 C 71.36,-3.889 60.826,1.18 47.496,2.968 33.818,4.803 17.43,3.031 3.034,-5.28 Z M 0.031,0.021 0.036,0.024 0.037,0.021 C 15.722,9.063 33.499,10.999 48.308,9.012 63.475,6.978 75.762,0.687 79.887,-6.457 l 0.001,-0.001 c 4.342,-7.52 0.132,-12.821 -8.987,-18.086 -4.469,-2.581 -10.15,-5.156 -16.598,-8.08 -8.346,-3.784 -18,-8.162 -27.574,-13.689 l 0.004,-0.005 c -9.595,-5.54 -18.207,-11.707 -25.652,-17.038 -5.737,-4.109 -10.791,-7.729 -15.285,-10.323 -9.125,-5.269 -15.824,-6.269 -20.165,1.247 l -0.418,0.725 v 0.07 c -3.65,7.337 -2.806,20.646 2.809,34.296 5.689,13.831 16.271,28.273 31.972,37.338 L 0,0 0.033,0.019 Z"
             inkscape:connector-curvature="0" /></g><g
           transform="translate(262.4634,448.9814)"
           id="g80"><path
             id="path82"
             style="fill:#000001;fill-opacity:1;fill-rule:evenodd;stroke:none"
             d="m 0,0 c 4.452,2.57 10.145,1.045 12.715,-3.407 2.57,-4.452 -0.879,-6.814 -5.33,-9.384 -4.452,-2.57 -8.221,-4.375 -10.791,0.076 C -5.977,-8.263 -4.451,-2.57 0,0"
             inkscape:connector-curvature="0" /></g><g
           transform="translate(220.043,424.4893)"
           id="g84"><path
             id="path86"
             style="fill:#000001;fill-opacity:1;fill-rule:evenodd;stroke:none"
             d="m 0,0 c 4.452,2.57 10.145,1.045 12.714,-3.406 2.571,-4.452 -1.106,-6.418 -5.558,-8.988 -4.452,-2.57 -7.993,-4.772 -10.563,-0.32 C -5.977,-8.262 -4.452,-2.57 0,0"
             inkscape:connector-curvature="0" /></g><g
           transform="translate(465.9639,294.8848)"
           id="g88"><path
             id="path90"
             style="fill:#28203d;fill-opacity:1;fill-rule:evenodd;stroke:none"
             d="m 0,0 c -9.051,41 -26.646,71.157 -52.787,90.47 -10.348,-1.472 -21.588,-2.359 -33.719,-2.662 -18.375,1.281 -35.924,6.546 -52.645,15.792 l -28.205,-8.274 c -3.569,-2.049 -5.951,-4.932 -7.146,-8.649 15.684,-9.429 23.08,-21.776 22.19,-37.041 -3.069,-16.502 -6.329,-28.411 -9.779,-35.728 -0.592,-3.904 -1.268,-7.582 -2.027,-11.031 C -92.831,25.776 -38.125,24.818 0,0"
             inkscape:connector-curvature="0" /></g><g
           transform="translate(414.8506,387.6133)"
           id="g92"><path
             id="path94"
             style="fill:#030408;fill-opacity:1;fill-rule:evenodd;stroke:none"
             d="m 0,0 c 26.701,-19.727 44.655,-50.435 53.856,-92.122 l 1.482,-6.711 -5.756,3.747 c -18.614,12.116 -41.327,18.411 -68.136,18.881 -27.042,0.474 -58.239,-4.968 -93.591,-16.324 l -4.663,-1.497 1.05,4.769 c 0.4,1.819 0.755,3.572 1.065,5.26 0.304,1.655 0.614,3.521 0.928,5.595 l 0.06,0.396 0.183,0.386 c 1.663,3.529 3.286,8.182 4.866,13.957 1.593,5.817 3.145,12.78 4.656,20.886 0.38,7 -1.117,13.317 -4.491,18.95 -3.457,5.77 -8.905,10.892 -16.341,15.363 l -1.916,1.152 0.682,2.119 c 0.711,2.212 1.774,4.174 3.19,5.887 1.407,1.704 3.152,3.155 5.234,4.35 l 0.269,0.154 0.336,0.099 28.206,8.274 1.131,0.331 1.017,-0.562 c 8.187,-4.527 16.571,-8.079 25.151,-10.652 8.557,-2.567 17.312,-4.166 26.26,-4.794 11.918,0.303 22.986,1.182 33.201,2.634 L -0.935,0.69 Z M 46.84,-86.844 C 37.685,-50.302 21.263,-23.089 -2.429,-5.207 -12.538,-6.594 -23.504,-7.435 -35.326,-7.73 l -0.187,-0.005 -0.066,0.005 c -9.404,0.655 -18.592,2.329 -27.561,5.02 -8.609,2.582 -17.019,6.101 -25.228,10.553 l -26.734,-7.842 c -1.372,-0.821 -2.516,-1.789 -3.434,-2.898 -0.518,-0.628 -0.967,-1.304 -1.347,-2.029 7.208,-4.661 12.614,-9.999 16.217,-16.014 3.996,-6.671 5.755,-14.107 5.277,-22.307 l -0.009,-0.167 -0.035,-0.186 c -1.546,-8.313 -3.148,-15.494 -4.802,-21.54 -1.621,-5.923 -3.294,-10.755 -5.015,-14.489 -0.263,-1.71 -0.568,-3.505 -0.913,-5.382 l -0.133,-0.722 c 34.067,10.561 64.344,15.611 90.83,15.147 25.186,-0.442 46.954,-5.861 65.306,-16.258"
             inkscape:connector-curvature="0" /></g><g
           transform="translate(332.4766,127.4307)"
           id="g96"><path
             id="path98"
             style="fill:#0f0c1b;fill-opacity:1;fill-rule:evenodd;stroke:none"
             d="m 0,0 c -12.727,10.927 -26.056,13.752 -39.986,8.474 -1.117,-15.981 -1.675,-23.971 -1.675,-23.971 -8.438,-10.635 -15.208,-19.097 -13.538,-23.881 2.58,-6.717 6.968,-15.68 13.914,-18.239 8.045,-1.566 22.837,8.337 36.855,19.555 4.59,5.854 5.405,13.375 2.445,22.565 C -0.662,-5.166 0,0 0,0"
             inkscape:connector-curvature="0" /></g><g
           transform="translate(313.5679,140.7305)"
           id="g100"><path
             id="path102"
             style="fill:#030408;fill-opacity:1;fill-rule:evenodd;stroke:none"
             d="m 0,0 c 7.17,-1.52 14.134,-5.181 20.892,-10.983 l 1.248,-1.072 -0.209,-1.629 -1.901,-14.832 c 1.457,-4.756 1.97,-9.136 1.536,-13.137 -0.468,-4.337 -2.031,-8.2 -4.687,-11.584 l -0.211,-0.27 -0.291,-0.232 C 9.243,-59.448 1.904,-64.827 -4.684,-68.585 c -7.051,-4.021 -13.45,-6.268 -18.267,-5.331 l -0.257,0.05 -0.221,0.081 c -4.159,1.533 -7.462,4.849 -10.074,8.732 -2.43,3.613 -4.272,7.751 -5.631,11.288 l -0.036,0.084 c -2.177,6.243 4.698,15.022 13.44,26.039 l 1.606,23.019 0.137,1.957 1.835,0.695 C -14.631,0.878 -7.246,1.535 0,0 m 15.674,-14.573 c -5.564,4.519 -11.212,7.386 -16.94,8.601 -5.501,1.166 -11.137,0.811 -16.905,-1.064 L -19.705,-29 l -0.066,-0.951 -0.591,-0.745 -0.248,-0.313 c -7.741,-9.755 -13.9,-17.517 -12.802,-20.666 l -0.004,-0.001 c 1.217,-3.16 2.853,-6.825 4.978,-9.984 1.907,-2.835 4.195,-5.228 6.879,-6.302 3.233,-0.488 8.151,1.422 13.864,4.681 6.23,3.552 13.185,8.637 19.972,14.054 1.814,2.407 2.889,5.147 3.222,8.219 0.361,3.338 -0.132,7.099 -1.479,11.279 l -0.206,0.639 0.086,0.675 z"
             inkscape:connector-curvature="0" /></g><g
           transform="translate(440.3047,132.0537)"
           id="g104"><path
             id="path106"
             style="fill:#0f0c1b;fill-opacity:1;fill-rule:evenodd;stroke:none"
             d="m 0,0 c -32.346,-2.257 -48.519,-3.386 -48.519,-3.386 1.007,-17.55 1.511,-26.324 1.511,-26.324 -1.875,-5.683 -0.496,-9.004 4.137,-9.967 21.73,-4.915 46.362,-5.604 73.896,-2.067 -0.122,7.634 -11.967,14.591 -35.538,20.872 C -1.504,-6.957 0,0 0,0"
             inkscape:connector-curvature="0" /></g><g
           transform="translate(391.583,131.7148)"
           id="g108"><path
             id="path110"
             style="fill:#030408;fill-opacity:1;fill-rule:evenodd;stroke:none"
             d="m 0,0 48.519,3.384 4.048,0.282 -0.859,-3.973 -3.902,-18.046 c 10.658,-2.986 18.827,-6.147 24.506,-9.482 6.908,-4.057 10.402,-8.564 10.482,-13.522 l 0.044,-2.721 -2.708,-0.349 c -13.923,-1.789 -27.121,-2.509 -39.589,-2.16 -12.503,0.35 -24.275,1.773 -35.312,4.266 v -0.001 c -0.529,0.109 -1.002,0.233 -1.416,0.37 -2.448,0.806 -4.161,2.246 -5.136,4.313 -0.891,1.888 -1.059,4.174 -0.502,6.856 l 0.002,-10e-4 c 0.127,0.612 0.28,1.216 0.459,1.81 l -1.48,25.76 -0.172,3.004 z M 44.877,-2.991 3.421,-5.882 4.761,-29.203 4.794,-29.79 4.617,-30.326 c -0.216,-0.653 -0.373,-1.217 -0.471,-1.689 v -0.011 c -0.278,-1.345 -0.262,-2.349 0.049,-3.008 0.227,-0.48 0.737,-0.852 1.53,-1.112 0.262,-0.087 0.511,-0.156 0.747,-0.205 l 0.048,-0.011 c 10.679,-2.415 22.076,-3.794 34.188,-4.133 11.121,-0.311 22.848,0.252 35.176,1.686 -1.104,1.855 -3.321,3.761 -6.654,5.719 -5.676,3.333 -14.276,6.536 -25.797,9.608 l -2.825,0.753 0.615,2.841 z"
             inkscape:connector-curvature="0" /></g><g
           transform="translate(301.8462,297.7617)"
           id="g112"><path
             id="path114"
             style="fill:#28203d;fill-opacity:1;fill-rule:evenodd;stroke:none"
             d="m 0,0 c 68.681,29.021 123.387,28.062 164.118,-2.877 1.691,-25.068 2.538,-37.602 2.538,-37.602 6.293,-40.738 5.667,-75.586 -1.878,-104.546 1.324,-5.547 1.731,-10.843 1.222,-15.889 -12.067,-8.833 -23.819,-12.438 -35.256,-10.812 -21.783,-1.403 -35.384,-0.526 -40.804,2.632 -13.829,5.588 -19.22,12.106 -16.172,19.556 0.334,11.41 3.844,22.064 10.531,31.966 0.524,2.684 -0.605,5.505 -3.385,8.461 -6.069,-7.274 -13.276,-12.351 -21.624,-15.231 3.57,-21.337 3.821,-32.869 0.752,-34.597 -14.817,-10.148 -31.051,-13.783 -48.7,-10.908 -30.756,10.159 -45.109,20.563 -43.059,31.215 1.452,11.225 4.836,19.687 10.153,25.385 -2.335,21.629 3.871,46.324 18.617,74.085 C -0.982,-13.054 0,0 0,0"
             inkscape:connector-curvature="0" /></g><g
           transform="translate(286.998,138.6318)"
           id="g116"><path
             id="path118"
             style="fill:#141226;fill-opacity:1;fill-rule:evenodd;stroke:none"
             d="M 0,0 -0.565,0.305 -0.584,0.314 -0.613,0.33 -0.728,0.394 -1.368,0.748 -1.586,0.87 C -1.833,1.009 -2.079,1.147 -2.32,1.287 L -2.412,1.341 C -2.644,1.475 -2.874,1.609 -3.101,1.744 L -3.214,1.811 C -3.464,1.959 -3.71,2.108 -3.953,2.257 L -4.042,2.312 C -4.252,2.441 -4.46,2.57 -4.667,2.7 l -0.134,0.085 c -0.23,0.146 -0.457,0.291 -0.68,0.437 L -5.588,3.292 -6.136,3.656 -6.3,3.767 C -6.498,3.9 -6.693,4.034 -6.885,4.169 l -0.167,0.116 c -0.167,0.118 -0.333,0.236 -0.496,0.353 l -0.13,0.093 C -7.869,4.871 -8.057,5.01 -8.242,5.148 L -8.381,5.253 -8.832,5.599 -9.013,5.74 c -0.152,0.119 -0.302,0.239 -0.449,0.359 l -0.183,0.149 c -0.154,0.125 -0.305,0.251 -0.453,0.376 l -0.039,0.032 -0.004,0.003 -0.046,0.04 c -0.149,0.128 -0.298,0.256 -0.443,0.384 l -0.137,0.121 c -0.153,0.136 -0.303,0.272 -0.451,0.408 l -0.028,0.026 -0.041,0.04 c -0.143,0.132 -0.282,0.264 -0.42,0.397 L -11.8,8.167 c -0.152,0.147 -0.301,0.295 -0.446,0.443 l -0.036,0.037 c -0.129,0.132 -0.255,0.264 -0.378,0.396 l -0.101,0.108 c -0.13,0.14 -0.257,0.28 -0.38,0.419 l -0.081,0.094 c -0.105,0.12 -0.208,0.24 -0.309,0.361 l -0.086,0.102 c -0.116,0.141 -0.23,0.282 -0.341,0.423 l -0.071,0.093 c -0.099,0.128 -0.196,0.254 -0.29,0.382 l -0.054,0.073 c -0.106,0.145 -0.208,0.291 -0.308,0.436 l -0.061,0.09 c -0.09,0.132 -0.176,0.264 -0.26,0.396 l -0.037,0.055 c -0.09,0.145 -0.178,0.289 -0.263,0.433 l -0.062,0.106 c -0.079,0.136 -0.155,0.27 -0.227,0.406 l -0.016,0.029 -0.006,0.01 c -0.077,0.144 -0.15,0.29 -0.221,0.434 l -0.049,0.101 c -0.068,0.14 -0.134,0.283 -0.196,0.425 l -0.03,0.07 c -0.055,0.127 -0.108,0.254 -0.158,0.381 l -0.044,0.115 c -0.056,0.144 -0.109,0.29 -0.159,0.436 l -0.01,0.031 c -0.044,0.133 -0.086,0.266 -0.126,0.4 l -0.036,0.119 c -0.041,0.142 -0.078,0.283 -0.112,0.423 l -0.019,0.081 c -0.031,0.131 -0.059,0.261 -0.085,0.392 l -0.016,0.075 c -0.027,0.145 -0.052,0.289 -0.073,0.434 l -0.015,0.109 c -0.017,0.12 -0.032,0.24 -0.044,0.359 l -0.01,0.091 c -0.013,0.146 -0.024,0.291 -0.031,0.437 l -0.003,0.088 c -0.006,0.126 -0.009,0.252 -0.01,0.379 l -0.001,0.09 c 0,0.145 0.004,0.289 0.011,0.434 l 0.004,0.088 c 0.007,0.142 0.017,0.285 0.031,0.428 l 0.002,0.027 c 0.015,0.149 0.034,0.3 0.055,0.45 l 0.012,0.089 c 0.023,0.151 0.048,0.302 0.077,0.453 1.452,11.225 4.836,19.687 10.153,25.385 -0.036,0.338 -0.071,0.676 -0.103,1.015 l -0.001,0.007 c -0.029,0.306 -0.055,0.613 -0.081,0.919 l -0.009,0.095 v 0.014 l -0.006,0.065 c -0.023,0.292 -0.046,0.585 -0.066,0.878 l -0.006,0.068 -10e-4,0.021 -0.001,0.017 c -0.023,0.331 -0.044,0.662 -0.063,0.992 l -0.002,0.028 c -0.018,0.304 -0.033,0.608 -0.047,0.914 l -0.004,0.092 -0.002,0.035 -0.001,0.031 c -0.014,0.301 -0.025,0.603 -0.036,0.904 l -0.002,0.069 -10e-4,0.042 c -0.01,0.304 -0.019,0.608 -0.025,0.914 l -0.002,0.087 -0.001,0.049 c -0.006,0.313 -0.011,0.628 -0.014,0.943 l -10e-4,0.056 v 0.055 c -0.003,0.297 -0.003,0.595 -0.002,0.893 l -0.001,0.103 0.001,0.064 c 0,0.299 0.004,0.599 0.007,0.899 l 0.001,0.093 10e-4,0.071 c 0.005,0.282 0.011,0.563 0.018,0.844 l 0.005,0.233 c 0.009,0.291 0.018,0.583 0.029,0.876 l 0.004,0.103 0.003,0.086 c 0.012,0.304 0.025,0.606 0.041,0.911 l 0.004,0.106 c 0.018,0.346 0.037,0.693 0.058,1.042 v 10e-4 c 0.021,0.324 0.042,0.65 0.065,0.975 l 0.007,0.103 0.008,0.108 0.063,0.809 0.022,0.259 0.08,0.905 0.014,0.142 c 0.031,0.326 0.064,0.652 0.098,0.979 l 0.01,0.1 c 0.036,0.345 0.075,0.689 0.115,1.035 l 0.005,0.036 c 0.039,0.334 0.08,0.669 0.122,1.004 l 0.018,0.147 0.127,0.949 0.02,0.151 c 0.044,0.312 0.089,0.626 0.135,0.939 l 0.029,0.19 c 0.047,0.316 0.096,0.633 0.146,0.951 l 0.024,0.152 c 0.05,0.309 0.101,0.618 0.154,0.93 l 0.035,0.216 c 0.052,0.302 0.106,0.606 0.161,0.91 l 0.039,0.218 c 0.057,0.314 0.115,0.63 0.175,0.946 l 0.031,0.156 c 0.064,0.336 0.13,0.673 0.198,1.011 l 0.018,0.093 c 0.068,0.337 0.138,0.674 0.209,1.012 l 0.036,0.172 c 0.067,0.315 0.135,0.629 0.205,0.946 l 0.05,0.228 c 0.071,0.32 0.144,0.642 0.219,0.964 l 0.027,0.116 c 0.075,0.325 0.152,0.652 0.231,0.979 l 0.054,0.223 c 0.08,0.332 0.162,0.665 0.245,0.997 l 0.027,0.107 0.051,0.197 c 1.415,-1.766 3.066,-3.734 5.624,-5.645 6.539,22.026 10.425,40.309 12.322,53.826 0.24,1.71 0.448,3.343 0.625,4.899 3.748,0.889 7.461,1.718 11.138,2.488 18.178,3.812 35.505,6.186 51.983,7.125 9.859,0.562 19.413,0.611 28.663,0.146 -14.019,-3.541 -26.224,-6.832 -36.613,-9.873 -9.558,-2.798 -17.58,-5.383 -24.066,-7.757 C 35.363,122.216 28.874,118.912 26.461,116.17 24.633,99.167 20.872,82.243 15.179,65.4 12.117,51.981 13.997,42.956 20.82,38.323 3.967,28.533 -2.973,15.759 0,0"
             inkscape:connector-curvature="0" /></g><g
           transform="translate(394.3428,315.999)"
           id="g120"><path
             id="path122"
             style="fill:#030408;fill-opacity:1;fill-rule:evenodd;stroke:none"
             d="m 0,0 c -26.539,0.465 -56.479,-6.255 -89.815,-20.159 l -2.819,-37.449 -0.045,-0.595 -0.275,-0.519 c -7.269,-13.684 -12.427,-26.586 -15.471,-38.703 -3.022,-12.027 -3.968,-23.282 -2.837,-33.762 l 0.138,-1.276 -0.876,-0.939 c -2.421,-2.595 -4.414,-5.845 -5.975,-9.749 -1.607,-4.019 -2.758,-8.709 -3.451,-14.071 l -0.023,-0.176 c -0.799,-4.154 1.907,-8.482 8.115,-12.983 6.909,-5.009 17.872,-9.998 32.885,-14.968 8.381,-1.335 16.415,-1.142 24.1,0.578 7.751,1.737 15.187,5.043 22.307,9.918 l 0.118,0.082 0.092,0.051 c 0.555,0.313 0.782,2.791 0.682,7.434 -0.121,5.605 -1.067,13.688 -2.833,24.245 l -0.393,2.351 2.254,0.778 c 7.862,2.712 14.656,7.499 20.38,14.36 l 2.036,2.442 2.172,-2.31 c 1.633,-1.736 2.799,-3.475 3.494,-5.214 0.771,-1.929 0.975,-3.835 0.607,-5.716 l -0.109,-0.562 -0.32,-0.473 c -3.196,-4.732 -5.631,-9.641 -7.306,-14.723 -1.675,-5.086 -2.593,-10.334 -2.751,-15.745 l -0.016,-0.53 -0.181,-0.45 -0.022,-0.053 -0.004,0.001 c -1.067,-2.649 -0.631,-5.159 1.307,-7.526 2.351,-2.87 6.686,-5.599 13,-8.184 l 0.004,0.01 0.332,-0.135 0.164,-0.067 0.189,-0.109 c 2.33,-1.358 6.674,-2.243 13.032,-2.652 6.682,-0.431 15.412,-0.3 26.185,0.394 l 0.286,0.019 0.287,-0.041 c 5.308,-0.755 10.7,-0.292 16.169,1.385 5.24,1.606 10.573,4.33 15.998,8.168 0.131,1.95 0.118,3.958 -0.04,6.019 -0.191,2.487 -0.603,5.051 -1.234,7.691 l -0.158,0.663 0.181,0.692 c 3.717,14.27 5.73,30.003 6.04,47.196 0.309,17.269 -1.096,36.008 -4.217,56.216 l -0.033,0.242 -2.453,36.324 C 49.247,-7.988 26.28,-0.46 0,0 m -93.587,-15.648 c 34.704,14.664 65.93,21.753 93.675,21.267 27.965,-0.49 52.376,-8.656 73.229,-24.497 l 1.028,-0.78 0.086,-1.269 2.535,-37.556 c 3.149,-20.455 4.567,-39.445 4.253,-56.967 -0.312,-17.379 -2.325,-33.324 -6.038,-47.831 0.606,-2.676 1.009,-5.311 1.209,-7.905 0.214,-2.789 0.185,-5.538 -0.087,-8.241 l -0.127,-1.257 -1.008,-0.738 c -6.286,-4.6 -12.521,-7.85 -18.702,-9.745 -6.182,-1.896 -12.29,-2.437 -18.324,-1.624 -10.879,-0.692 -19.749,-0.818 -26.608,-0.377 -7.086,0.457 -12.184,1.554 -15.296,3.285 l -0.184,0.075 v 0.012 c -7.233,2.958 -12.318,6.232 -15.252,9.816 -3.248,3.965 -4.022,8.228 -2.323,12.787 0.216,5.819 1.215,11.435 2.999,16.848 1.77,5.376 4.312,10.564 7.623,15.564 0.043,0.656 -0.079,1.342 -0.364,2.053 -0.126,0.318 -0.284,0.641 -0.472,0.969 -5.337,-5.69 -11.444,-9.909 -18.319,-12.653 1.562,-9.677 2.404,-17.266 2.523,-22.764 0.147,-6.792 -0.999,-10.924 -3.441,-12.396 -7.665,-5.232 -15.72,-8.794 -24.165,-10.686 -8.469,-1.896 -17.294,-2.097 -26.469,-0.602 l -0.257,0.042 -0.173,0.056 c -15.652,5.169 -27.187,10.443 -34.603,15.82 -8.143,5.903 -11.59,12.104 -10.34,18.601 v 0 c 0.761,5.79 2.022,10.885 3.781,15.283 1.638,4.096 3.71,7.605 6.214,10.526 -1.001,10.788 0.03,22.279 3.094,34.473 3.121,12.424 8.35,25.578 15.682,39.462 l 2.902,38.569 0.129,1.708 z"
             inkscape:connector-curvature="0" /></g><g
           transform="translate(489.2705,422.5557)"
           id="g124"><path
             id="path126"
             style="fill:#141226;fill-opacity:1;fill-rule:evenodd;stroke:none"
             d="m 0,0 c 6.318,9.458 10.832,26.256 13.539,50.394 68.251,184.738 -148.19,238.808 -203.831,172.239 -42.436,-61.421 -51.21,-127.86 -26.324,-199.317 31.8,-39.371 67.401,-60.431 106.803,-63.179 C -55.014,-38.493 -18.41,-25.206 0,0"
             inkscape:connector-curvature="0" /></g><g
           transform="translate(500.3457,441.4614)"
           id="g128"><path
             id="path130"
             style="fill:#030408;fill-opacity:1;fill-rule:evenodd;stroke:none"
             d="m 0,0 c -2.342,-8.715 -5.189,-15.583 -8.542,-20.602 l -0.072,-0.096 c -9.575,-13.11 -23.804,-23.092 -42.683,-29.945 -18.608,-6.754 -41.781,-10.478 -69.518,-11.172 l -0.203,-0.005 -0.072,0.005 c -20.186,1.408 -39.389,7.5 -57.603,18.274 -18.114,10.715 -35.24,26.062 -51.376,46.04 l -0.325,0.403 -0.176,0.505 c -12.601,36.183 -16.679,71.124 -12.228,104.82 4.452,33.709 17.426,66.121 38.923,97.232 l 0.106,0.155 0.061,0.073 c 18.211,21.786 52.746,31.149 89.248,27.747 22.002,-2.049 44.762,-8.726 65.088,-20.096 C -28.966,201.923 -10.988,185.781 1.359,164.84 20.757,131.947 26.259,87.33 5.457,30.783 4.09,18.713 2.27,8.451 0,0 m -13.607,-17.209 c 2.964,4.438 5.534,10.701 7.706,18.785 2.218,8.259 3.997,18.343 5.332,30.248 l 0.043,0.379 0.125,0.338 c 20.228,54.757 15.07,97.709 -3.495,129.194 -11.772,19.963 -28.938,35.367 -48.438,46.275 -19.58,10.953 -41.495,17.383 -62.675,19.356 -34.566,3.221 -67.063,-5.385 -83.958,-25.529 -20.875,-30.259 -33.471,-61.726 -37.787,-94.399 -4.303,-32.586 -0.379,-66.427 11.768,-101.521 15.567,-19.195 32.033,-33.93 49.399,-44.202 17.362,-10.272 35.64,-16.082 54.829,-17.432 26.97,0.69 49.432,4.292 67.383,10.808 17.677,6.416 30.934,15.65 39.768,27.699 z"
             inkscape:connector-curvature="0" /></g><g
           transform="translate(489.2705,422.5557)"
           id="g132"><path
             id="path134"
             style="fill:#28203d;fill-opacity:1;fill-rule:evenodd;stroke:none"
             d="m 0,0 c 6.318,9.458 10.832,26.256 13.539,50.394 36.543,98.913 -8.536,160.349 -66.842,185.882 -36.372,3.904 -70.942,-5.002 -88.851,-26.429 -42.437,-61.421 -51.212,-127.86 -26.325,-199.317 18.642,-23.081 38.592,-39.865 59.847,-50.36 C -54.489,-38.299 -18.277,-25.024 0,0"
             inkscape:connector-curvature="0" /></g><g
           transform="translate(415.1855,465.8037)"
           id="g136"><path
             id="path138"
             style="fill:#fed9bb;fill-opacity:1;fill-rule:evenodd;stroke:none"
             d="M 0,0 C 20.407,-16.635 49.616,-14.253 87.624,7.146 38.104,58.289 -36.984,73.332 -137.642,52.274 -109.723,14.503 -72.366,-1.417 -25.573,4.513 -14.582,6.827 -6.058,5.323 0,0"
             inkscape:connector-curvature="0" /></g><g
           transform="translate(452.6182,452.3042)"
           id="g140"><path
             id="path142"
             style="fill:#030408;fill-opacity:1;fill-rule:evenodd;stroke:none"
             d="m 0,0 c -15.346,-1.251 -28.415,2.522 -39.207,11.318 l -0.077,0.066 c -2.63,2.311 -5.82,3.798 -9.57,4.459 -3.917,0.691 -8.443,0.496 -13.579,-0.585 l -0.22,-0.033 c -23.905,-3.03 -45.428,-0.466 -64.567,7.691 -19.145,8.16 -35.851,21.888 -50.113,41.183 l -2.609,3.53 4.294,0.899 C -73.98,89.796 1.972,74.489 52.207,22.606 l 0.287,-2.439 -0.926,-1.979 C 32.207,7.288 15.017,1.225 0,0 M -35.643,15.668 C -26.03,7.839 -14.295,4.49 -0.441,5.619 c 13.362,1.089 28.7,6.321 46.011,15.693 -48.091,47.56 -119.99,61.761 -215.694,42.602 13.045,-16.622 28.082,-28.563 45.108,-35.82 18.177,-7.746 38.68,-10.183 61.508,-7.313 5.826,1.219 11.035,1.424 15.623,0.615 4.746,-0.837 8.827,-2.748 12.242,-5.728"
             inkscape:connector-curvature="0" /></g><g
           transform="translate(366.1562,487.1353)"
           id="g144"><path
             id="path146"
             style="fill:#000001;fill-opacity:1;fill-rule:evenodd;stroke:none"
             d="M 0,0 6.542,-2.138 C 7.344,13.478 -1.271,24.511 -18.653,25.13 -29.385,23.638 -35.603,17.507 -37.306,6.736 l 6.994,-1.813 c 3.257,7.552 7.575,11.525 12.955,11.917 C -6.111,17.17 -0.326,11.557 0,0"
             inkscape:connector-curvature="0" /></g><g
           transform="translate(435.751,473.394)"
           id="g148"><path
             id="path150"
             style="fill:#000001;fill-opacity:1;fill-rule:evenodd;stroke:none"
             d="M 0,0 -6.521,0.304 C -1.98,14.425 9.371,21.315 24.999,16.019 34.018,11.085 37.471,3.555 35.359,-6.572 30.816,-6.076 28.544,-5.828 28.544,-5.828 28.196,1.966 25.702,6.943 21.062,9.101 11.196,13.175 4.177,10.142 0,0"
             inkscape:connector-curvature="0" /></g><g
           transform="translate(297.6533,298.0273)"
           id="g152"><path
             id="path154"
             style="fill:#0f0c1b;fill-opacity:1;fill-rule:evenodd;stroke:none"
             d="M 0,0 C -0.196,-5.319 0.94,-8.872 3.411,-10.659 71.495,8.611 113.888,36.835 130.588,74.013 127.979,81.632 122.956,86.07 115.523,87.327 101.237,48.991 62.729,19.882 0,0"
             inkscape:connector-curvature="0" /></g><g
           transform="translate(295.4556,290.4541)"
           id="g156"><path
             id="path158"
             style="fill:#030408;fill-opacity:1;fill-rule:evenodd;stroke:none"
             d="m 0,0 c -0.676,2.114 -0.959,4.676 -0.849,7.682 l 0.08,2.157 2.046,0.649 c 31.035,9.835 56.038,21.925 75.009,36.265 18.786,14.201 31.646,30.606 38.579,49.211 l 0.881,2.366 2.475,-0.419 c 4.288,-0.725 7.909,-2.393 10.86,-5 2.918,-2.58 5.117,-6.028 6.595,-10.345 l 0.386,-1.124 -0.493,-1.097 C 126.975,61.213 111.835,44.428 90.151,29.991 68.692,15.704 40.785,3.698 6.432,-6.023 L 5.015,-6.425 3.816,-5.558 C 2.048,-4.279 0.776,-2.427 0,0 M 5.247,5.342 C 5.31,3.976 5.496,2.808 5.805,1.84 5.991,1.259 6.223,0.76 6.5,0.343 39.443,9.8 66.206,21.379 86.783,35.079 c 20.277,13.5 34.512,29.044 42.706,46.63 -1.101,2.778 -2.582,4.991 -4.447,6.639 -1.521,1.345 -3.336,2.34 -5.441,2.985 C 112.058,72.639 98.846,56.152 79.964,41.88 60.868,27.443 35.961,15.264 5.247,5.342"
             inkscape:connector-curvature="0" /></g><g
           transform="translate(302.4814,288.7275)"
           id="g160"><path
             id="path162"
             style="fill:#0f0c1b;fill-opacity:1;fill-rule:evenodd;stroke:none"
             d="m 0,0 c -3.507,0.578 -3.156,0.521 -3.156,0.521 -8.088,-28.877 -19.251,-50.403 -33.488,-64.578 16.311,3.5 13.949,-4.021 23.036,-10.811 C -2.488,-37.41 0.958,-10.781 0,0"
             inkscape:connector-curvature="0" /></g><g
           transform="translate(299.3472,278.7344)"
           id="g164"><path
             id="path166"
             style="fill:#030408;fill-opacity:1;fill-rule:evenodd;stroke:none"
             d="m 0,0 c -3.444,-10.662 -7.361,-20.226 -11.749,-28.687 -4.223,-8.143 -8.886,-15.272 -13.987,-21.386 6.322,-0.115 8.642,-3.018 11.684,-6.827 0.614,-0.77 1.267,-1.587 2.022,-2.42 4.278,14.917 7.285,27.948 9.251,38.761 C -1.29,-12.362 -0.396,-5.462 0,0 m -3.888,8.105 c -18.393,3.321 -16.569,4.647 -10.566,5.165 -1.575,1.555 1.145,2.312 14.473,0.302 H 4.003 L 3.834,12.969 5.958,12.62 6.168,10.256 C 6.713,4.124 5.912,-6.805 3.217,-21.635 1.002,-33.818 -2.485,-48.683 -7.547,-65.734 l -1.249,-4.207 -3.505,2.618 c -3.071,2.295 -4.915,4.602 -6.529,6.624 -2.708,3.389 -4.544,5.688 -14.047,3.649 l -10.139,-2.175 7.356,7.324 c 6.891,6.861 13.055,15.532 18.489,26.01 5.065,9.769 9.494,21.102 13.283,33.996"
             inkscape:connector-curvature="0" /></g><g
           transform="translate(326.8125,398.4849)"
           id="g168"><path
             id="path170"
             style="fill:#0f0c1b;fill-opacity:1;fill-rule:evenodd;stroke:none"
             d="m 0,0 c 15.517,-12.17 30.153,-20.348 43.906,-24.533 6.682,-2.033 13.154,-3.124 19.419,-3.272 8.293,3.136 15.755,7.46 22.386,12.971 0.223,0.566 0.44,1.134 0.653,1.704 -10.347,-1.472 -21.588,-2.359 -33.718,-2.662 -3.833,0.267 -7.628,0.708 -11.388,1.321 C 26.987,-12.142 13.235,-7.318 0,0"
             inkscape:connector-curvature="0" /></g><g
           transform="translate(354.8853,383.7544)"
           id="g172"><path
             id="path174"
             style="fill:#030408;fill-opacity:1;fill-rule:evenodd;stroke:none"
             d="m 0,0 c 5.73,-2.944 11.302,-5.241 16.716,-6.887 3.188,-0.97 6.35,-1.72 9.484,-2.248 2.907,-0.49 5.748,-0.782 8.522,-0.876 3.788,1.463 7.395,3.187 10.818,5.17 1.238,0.717 2.45,1.467 3.637,2.25 C 46.93,-2.824 44.652,-3.033 42.341,-3.215 36.772,-3.654 30.873,-3.953 24.645,-4.108 l -0.202,-0.005 -0.072,0.005 c -1.977,0.137 -3.928,0.318 -5.85,0.541 -1.894,0.219 -3.837,0.492 -5.825,0.816 C 8.418,-2.053 4.187,-1.136 0,0 M -6.939,-3.195 C -14.394,0.971 -22.063,6.146 -29.948,12.33 L -59.899,35.818 -26.604,17.406 C -20.117,13.82 -13.525,10.85 -6.83,8.502 -0.122,6.15 6.713,4.405 13.675,3.27 c 1.78,-0.291 3.626,-0.548 5.538,-0.769 1.838,-0.213 3.67,-0.384 5.491,-0.511 5.832,0.149 11.552,0.445 17.159,0.887 5.586,0.441 10.92,1.024 15.997,1.746 L 62.919,5.343 61.156,0.55 C 61.025,0.193 60.915,-0.101 60.823,-0.34 l -0.012,-0.013 -0.33,-0.848 -0.286,-0.736 -0.61,-0.506 c -3.463,-2.881 -7.127,-5.44 -10.988,-7.677 -3.874,-2.245 -7.966,-4.182 -12.271,-5.809 l -0.544,-0.206 -0.603,0.015 c -3.3,0.078 -6.628,0.4 -9.982,0.965 -3.337,0.562 -6.754,1.376 -10.248,2.439 -7.094,2.158 -14.391,5.333 -21.888,9.521"
             inkscape:connector-curvature="0" /></g><g
           transform="translate(364.9414,282.1982)"
           id="g176"><path
             id="path178"
             style="fill:#0f0c1b;fill-opacity:1;fill-rule:evenodd;stroke:none"
             d="m 0,0 c 39.147,2.232 73.503,-3.636 103.066,-17.604 l -2.044,30.291 C 76.244,31.509 46.294,39.235 11.171,35.866 10.851,35.675 10.528,35.482 10.205,35.292 7.359,33.612 4.415,31.967 1.371,30.356 -16.475,20.915 -37.729,12.66 -62.391,5.594 c 0.221,-3.612 0.01,-8.73 -0.73,-15.207 C -40.853,-4.334 -19.813,-1.13 0,0"
             inkscape:connector-curvature="0" /></g><g
           transform="translate(337.5942,313.4443)"
           id="g180"><path
             id="path182"
             style="fill:#141226;fill-opacity:1;fill-rule:evenodd;stroke:none"
             d="M 0,0 C 14.691,6.91 27.407,14.572 38.146,22.987 55.242,36.385 67.328,51.69 74.404,68.904 73.97,68.845 73.535,68.788 73.097,68.731 66.933,63.918 60.082,60.085 52.543,57.235 c -6.265,0.149 -12.737,1.24 -19.418,3.272 -9.89,3.01 -20.236,8.084 -31.038,15.222 -4.456,1.833 -8.856,3.927 -13.199,6.283 L -37.845,74.17 c -1.372,-0.821 -2.517,-1.789 -3.434,-2.899 -0.518,-0.627 -0.968,-1.303 -1.347,-2.028 7.207,-4.661 12.613,-9.999 16.217,-16.014 3.995,-6.671 5.754,-14.107 5.276,-22.307 l -0.009,-0.167 -0.035,-0.186 c -1.524,-8.195 -3.102,-15.29 -4.731,-21.281 -0.024,-0.087 -0.047,-0.173 -0.071,-0.259 -1.621,-5.924 -3.293,-10.755 -5.014,-14.489 -0.264,-1.71 -0.569,-3.505 -0.913,-5.382 l -0.042,-0.226 c 2.709,1.099 5.397,2.151 8.062,3.157 C -15.721,-4.833 -7.759,-2.195 0,0"
             inkscape:connector-curvature="0" /></g><g
           transform="translate(361.1924,148.7129)"
           id="g184"><path
             id="path186"
             style="fill:#141226;fill-opacity:1;fill-rule:evenodd;stroke:none"
             d="m 0,0 c -0.121,5.605 -1.066,13.688 -2.833,24.245 l -0.393,2.351 2.255,0.778 c 7.862,2.712 14.656,7.499 20.379,14.36 l 2.036,2.442 c 9.666,7.781 16.633,15.508 20.9,23.178 C 19.509,46.869 0.329,35.838 -15.195,34.261 c 6.15,-21.587 5.747,-38.185 -1.208,-49.792 5.327,1.877 10.498,4.531 15.511,7.965 l 0.118,0.081 0.092,0.051 C -0.127,-7.121 0.101,-4.643 0,0"
             inkscape:connector-curvature="0" /></g><g
           transform="translate(381.1748,163.8906)"
           id="g188"><path
             id="path190"
             style="fill:#141226;fill-opacity:1;fill-rule:evenodd;stroke:none"
             d="m 0,0 c -1.675,-5.086 -2.593,-10.334 -2.751,-15.744 l -0.016,-0.53 -0.181,-0.451 -0.026,-0.051 c -1.067,-2.65 -0.631,-5.16 1.307,-7.527 2.351,-2.87 6.686,-5.598 13,-8.183 l 0.004,0.009 0.332,-0.134 0.164,-0.068 0.188,-0.109 c 1.371,-0.798 3.437,-1.433 6.201,-1.904 1.935,-0.329 4.214,-0.579 6.832,-0.747 0.726,-0.047 1.476,-0.087 2.251,-0.122 -0.488,0.457 -0.961,0.924 -1.423,1.404 -9.726,10.101 -13.845,25.31 -12.355,45.626 4.006,-4.182 11.339,-6.249 22,-6.205 C 23.872,8.362 15.151,18.582 9.367,35.923 6.971,33.619 4.336,31.312 1.462,28.998 l 2.172,-2.31 C 5.267,24.952 6.433,23.214 7.128,21.475 7.899,19.545 8.103,17.64 7.735,15.759 L 7.626,15.196 7.306,14.724 C 4.11,9.991 1.675,5.082 0,0 m -2.974,-16.776 z"
             inkscape:connector-curvature="0" /></g><g
           transform="translate(307.001,508.3887)"
           id="g192"><path
             id="path194"
             style="fill:#fcbf91;fill-opacity:1;fill-rule:evenodd;stroke:none"
             d="m 0,0 c -0.101,4.665 -0.018,8.7 0.249,12.107 0,0.004 0,0.008 0.001,0.012 -8.068,-1.171 -16.32,-2.6 -24.757,-4.289 7.745,-9.87 16.193,-18.089 25.342,-24.658 0.033,-0.023 0.066,-0.047 0.099,-0.07 C 0.418,-10.563 0.106,-4.93 0,0"
             inkscape:connector-curvature="0" /></g><g
           transform="translate(395.832,486.749)"
           id="g196"><path
             id="path198"
             style="fill:#fcbf91;fill-opacity:1;fill-rule:evenodd;stroke:none"
             d="m 0,0 -12.801,-14.308 c 2.008,0.173 4.034,0.388 6.079,0.644 3.018,0.632 5.869,0.991 8.555,1.079 z"
             inkscape:connector-curvature="0" /></g><g
           transform="translate(274.9502,341.9941)"
           id="g200"><path
             id="path202"
             style="fill:#030408;fill-opacity:1;fill-rule:evenodd;stroke:none"
             d="M 0,0 V -26.518 L -2.353,-27 c -6.848,-1.401 -12.169,-11.442 -13.997,-17.487 -0.783,-2.593 -1.295,-5.306 -1.415,-8.015 -0.214,-4.834 0.836,-9.874 4.308,-13.438 0.879,-0.902 1.877,-1.671 2.96,-2.312 1.672,-0.991 3.337,-2.169 4.97,-3.236 0.937,-0.613 2.382,-1.641 3.415,-2.131 L 0,-74.056 v -12.91 l -1.994,-0.679 c -2.701,-0.92 -7.245,-0.622 -10.045,-0.29 -5.026,0.596 -10.118,1.925 -14.786,3.881 -12.474,5.231 -21.335,14.695 -23.365,28.398 -0.872,5.885 4.595,16.047 7.148,21.345 1.9,3.942 3.82,7.953 5.307,12.07 2.652,7.345 5.845,14.557 9.428,21.494 7.036,13.619 23.858,41.481 41.374,41.995 l 0.863,0.025 2.655,-1.597 c 1.77,-1.064 3.498,-2.202 5.163,-3.426 4.81,-3.538 9.104,-7.801 12.186,-12.946 3.785,-6.32 5.304,-13.275 4.905,-20.621 L 38.829,2.491 38.794,2.303 c -0.508,-2.72 -1.042,-5.435 -1.612,-8.142 l -0.606,-2.877 -2.878,0.604 c -0.141,0.029 -0.282,0.059 -0.424,0.09 C 22.11,-5.663 11.026,-2.935 0,0"
             inkscape:connector-curvature="0" /></g><g
           transform="translate(308.8325,336.8506)"
           id="g204"><path
             id="path206"
             style="fill:#28203d;fill-opacity:1;fill-rule:evenodd;stroke:none"
             d="m 0,0 c 0.141,-0.03 0.28,-0.06 0.42,-0.089 0.538,2.552 1.071,5.243 1.599,8.074 0.379,7 -1.118,13.317 -4.492,18.951 -2.64,4.407 -6.443,8.437 -11.405,12.086 -1.535,1.128 -3.18,2.22 -4.936,3.276 l -1.915,1.152 C -37.997,42.943 -58.901,9.451 -68.85,-18.097 c -1.459,-4.041 -3.457,-8.268 -5.423,-12.347 -3.827,-7.941 -7.529,-15.315 -6.889,-19.638 4.175,-28.181 38.627,-31.579 44.337,-29.634 v 1.43 6.976 c -0.449,0.093 -2.272,1.246 -4.194,2.502 -1.97,1.287 -4.046,2.685 -4.859,3.166 -1.364,0.808 -2.549,1.746 -3.568,2.791 -3.946,4.049 -5.403,9.707 -5.141,15.623 0.561,12.64 8.974,26.457 17.762,28.254 V 8.979 C -24.548,5.659 -12.274,2.594 0,0"
             inkscape:connector-curvature="0" /></g><g
           transform="translate(272.6143,259.6436)"
           id="g208"><path
             id="path210"
             style="fill:#030408;fill-opacity:1;fill-rule:evenodd;stroke:none"
             d="m 0,0 c -2.538,-1.186 -6.062,-0.183 -8.451,0.787 -3.876,1.573 -7.634,4.164 -10.676,7.017 -7.949,7.453 -12.174,17.637 -8.804,28.424 0.32,1.024 0.632,2.049 0.945,3.075 4.205,13.752 8.819,25.501 24.82,26.212 1.578,1.334 4.575,0.574 6.341,0.157 2.968,-0.7 5.965,-1.678 8.834,-2.707 2.988,-1.072 10.341,-3.808 12.425,-6.118 6.057,-6.716 3.779,-19.689 1.51,-27.53 C 25.236,23.418 19.839,9.122 13.53,5.89 12.047,4.12 8.768,3.131 6.718,2.129 L 6.61,1.612 5.073,1.294 C 4.477,1.17 4.386,1.105 3.9,0.812 2.69,0.077 1.363,-0.022 0,0"
             inkscape:connector-curvature="0" /></g><g
           transform="translate(272.0073,262.0527)"
           id="g212"><path
             id="path214"
             style="fill:#0f0c1b;fill-opacity:1;fill-rule:evenodd;stroke:none"
             d="m 0,0 c 3.987,-0.139 2.583,0.686 5.195,1.227 0.087,0.415 7.035,2.805 7.314,4.15 7.557,2.617 21.332,36.841 11.755,47.459 C 21.426,55.982 -1.853,63.881 0,60.747 -17.775,60.747 -20.902,46.356 -25.042,33.105 -31.718,11.732 -4.96,-3.729 0,0"
             inkscape:connector-curvature="0" /></g><g
           transform="translate(272.0073,345.8301)"
           id="g216"><path
             id="path218"
             style="fill:#000001;fill-opacity:1;fill-rule:evenodd;stroke:none"
             d="m 0,0 c 35.828,-9.689 71.631,-17.216 107.505,-17.156 35.88,0.059 71.7,7.706 107.548,17.503 v -51.003 -50.978 c -35.848,-9.797 -71.669,-17.437 -107.548,-17.49 C 71.631,-119.178 35.828,-111.646 0,-101.98 v 50.978 z"
             inkscape:connector-curvature="0" /></g></g></g><g
       id="g220"><g
         clip-path="url(#clipPath226)"
         id="g222"><g
           id="g228"><g
             id="g230"><path
               id="path238"
               style="fill:url(#linearGradient236);stroke:none"
               d="m 379.513,322.903 c -33.952,-0.059 -67.85,6.667 -101.764,15.317 v 0 V 293 247.78 c 33.914,-8.649 67.811,-15.376 101.764,-15.328 v 0 c 33.956,0.048 67.849,6.881 101.784,15.638 v 0 45.233 45.243 C 447.362,329.798 413.47,322.963 379.513,322.903"
               inkscape:connector-curvature="0" /></g></g></g></g><g
       id="g240"><g
         clip-path="url(#clipPath246)"
         id="g242"><g
           transform="translate(465.1973,334.5703)"
           id="g248"><path
             id="path250"
             style="fill:#e5e6e5;fill-opacity:1;fill-rule:evenodd;stroke:none"
             d="M 0,0 C 0.832,0.196 1.664,0.396 2.496,0.596 V -89.876 C 1.664,-90.075 0.832,-90.274 0,-90.472 Z m -18.94,-4.176 c 0.831,0.169 1.664,0.339 2.496,0.512 v -90.467 c -0.832,-0.172 -1.664,-0.344 -2.496,-0.512 z m -18.941,-3.427 c 0.832,0.131 1.664,0.266 2.495,0.403 v -90.463 c -0.831,-0.138 -1.663,-0.272 -2.495,-0.402 z m -18.941,-2.49 c 0.832,0.086 1.664,0.175 2.496,0.268 v -90.459 c -0.832,-0.093 -1.664,-0.182 -2.496,-0.268 z m -18.941,-1.367 c 0.832,0.033 1.664,0.068 2.496,0.109 v -90.456 c -0.832,-0.04 -1.664,-0.076 -2.496,-0.108 z m -18.94,-0.065 c 0.832,-0.028 1.664,-0.051 2.496,-0.071 v -90.449 c -0.832,0.02 -1.664,0.043 -2.496,0.07 z m -18.941,1.245 c 0.832,-0.081 1.664,-0.16 2.496,-0.235 v -90.445 c -0.832,0.075 -1.664,0.153 -2.496,0.235 z m -18.94,2.378 c 0.832,-0.127 1.664,-0.252 2.496,-0.372 v -90.443 c -0.832,0.121 -1.664,0.246 -2.496,0.372 z m -18.94,3.323 c 0.832,-0.164 1.663,-0.326 2.495,-0.485 v -90.441 c -0.832,0.159 -1.664,0.321 -2.495,0.485 z m -18.941,4.081 2.496,-0.575 v -90.44 l -2.496,0.575 z"
             inkscape:connector-curvature="0" /></g><g
           transform="translate(481.2979,315.1543)"
           id="g252"><path
             id="path254"
             style="fill:#969696;fill-opacity:1;fill-rule:evenodd;stroke:none"
             d="m 0,0 v -21.832 -21.684 c -1.58,0.198 -3.162,0.378 -4.744,0.552 -0.139,0.016 -0.278,0.035 -0.416,0.058 -1.206,0.195 -2.344,0.653 -3.385,1.285 -0.401,0.244 -0.788,0.514 -1.159,0.803 l -4.225,5.593 c -0.343,0.911 -0.558,1.868 -0.588,2.843 -0.049,1.602 0.402,3.091 1.317,4.4 l 1.11,1.584 -2.485,5.236 c -0.119,0.405 -0.211,0.819 -0.271,1.237 l 0.492,6.64 -0.65,2.4 c -0.126,0.536 -0.202,1.084 -0.219,1.636 -0.075,2.472 1.031,4.59 2.864,6.202 1.796,1.582 4.092,2.547 6.471,2.772 C -3.931,-0.091 -1.965,0.006 0,0"
             inkscape:connector-curvature="0" /></g><g
           transform="translate(277.749,270.1309)"
           id="g256"><path
             id="path258"
             style="fill:#969696;fill-opacity:1;fill-rule:evenodd;stroke:none"
             d="m 0,0 v 22.869 18.855 c 0.676,0.102 1.355,0.189 2.035,0.262 3.083,0.331 6.191,0.368 9.283,0.17 2.248,-0.142 4.439,-0.985 6.176,-2.424 1.772,-1.466 2.875,-3.429 2.875,-5.759 0,-0.52 -0.056,-1.038 -0.159,-1.547 l -0.543,-2.28 0.654,-6.24 c -0.045,-0.394 -0.119,-0.787 -0.22,-1.173 l -2.189,-5.003 1.09,-1.46 c 0.899,-1.206 1.367,-2.596 1.367,-4.105 0,-0.92 -0.175,-1.828 -0.473,-2.695 L 16.078,4.08 C 15.737,3.797 15.381,3.532 15.009,3.291 14.047,2.666 12.989,2.201 11.859,1.982 11.729,1.958 11.599,1.936 11.468,1.917 8.491,1.497 5.516,1.055 2.56,0.504 1.705,0.345 0.851,0.177 0,0"
             inkscape:connector-curvature="0" /></g><g
           transform="translate(443.8916,283.3984)"
           id="g260"><path
             id="path262"
             style="fill:#0f0c1b;fill-opacity:1;fill-rule:evenodd;stroke:none"
             d="M 0,0 C 0.902,2.043 1.804,4.109 2.729,6.201 3.247,4.523 3.766,2.819 4.284,1.115 2.863,0.739 1.421,0.363 0,0 M -0.248,16.687 C -1.128,15.121 -1.984,13.593 -2.841,12.102 -3.855,9.309 -4.871,6.577 -5.886,3.884 -6.855,3.221 -7.802,2.556 -8.749,1.942 -9.155,1.053 -9.562,0.176 -9.967,-0.688 c 0.09,-0.828 0.202,-1.641 0.316,-2.456 -1.354,-2.293 -2.503,-4.509 -3.473,-6.652 -0.226,-2.317 -0.451,-4.635 -0.653,-6.94 1.397,-1.29 2.885,-2.105 4.509,-2.405 1.06,0.852 2.142,1.729 3.203,2.63 0.969,2.794 1.916,5.625 2.863,8.506 2.503,0.664 4.983,1.391 7.464,2.13 -1.127,-6.201 -1.263,-9.057 -0.428,-8.669 0.789,-1.679 1.578,-3.37 2.367,-5.11 4.329,6.275 6.756,12.89 7.283,19.567 0.533,6.728 -0.811,12.978 -4.081,18.415 0.203,0.864 0.429,1.766 0.654,2.668 -1.939,0.2 -3.45,0.564 -4.51,1.165 C 3.608,20.282 1.691,18.453 -0.248,16.687 M -39.62,10.424 c 0.474,0.149 0.928,0.311 1.398,0.412 2.799,0.602 6.292,0.892 10.441,1.178 0.745,0.051 1.691,0.238 2.773,0.301 0.362,0.225 0.699,0.476 1.06,0.702 1.421,-0.251 3.293,-0.351 5.57,-0.277 1.082,-0.325 2.481,-0.601 4.172,-0.864 -1.579,-3.132 -4.804,-5.073 -9.742,-5.8 0.091,-1.954 -0.448,-4.462 -1.714,-7.416 -0.086,-0.202 -0.271,-0.363 -0.36,-0.526 -0.249,-0.677 -0.474,-1.353 -0.7,-2.03 -0.134,-0.175 -0.248,-0.35 -0.36,-0.526 v -0.739 c -0.339,-0.676 -0.699,-1.365 -1.037,-2.054 -0.475,-1.165 -0.925,-2.33 -1.399,-3.471 -0.113,-0.175 -0.248,-0.337 -0.361,-0.501 -0.135,-0.25 -0.248,-0.501 -0.338,-0.739 -0.925,-1.327 -1.849,-2.631 -2.773,-3.921 -0.835,-0.376 -1.647,-0.977 -2.436,-1.715 -0.699,-0.352 -1.398,-0.665 -2.097,-0.978 -0.248,-0.15 -0.473,-0.325 -0.699,-0.476 -0.225,-0.05 -0.473,-0.188 -0.699,-0.489 -0.811,-0.075 -1.601,-0.236 -2.413,-0.263 -3.766,-0.124 -6.478,0.609 -8.095,2.042 -1.606,1.423 -2.165,3.608 -1.669,6.552 0.812,-0.062 1.623,-0.1 2.458,-0.15 1.15,-0.777 2.3,-1.879 3.451,-3.282 0.699,0.125 1.623,0.225 2.795,0.288 2.593,2.755 4.576,5.789 5.954,9.094 1.394,3.346 2.21,6.953 2.413,10.774 -1.557,-0.101 -3.428,-0.388 -5.593,-0.877 -1.082,-0.689 -2.458,-1.127 -4.15,-1.303 -2.502,1.203 -3.765,3.057 -3.833,5.574 0.677,0.214 1.375,0.427 2.075,0.627 1.962,0.251 3.946,0.565 5.908,0.853 m -13.462,-0.051 c -0.293,-0.752 -0.609,-1.114 -0.88,-1.114 -0.315,-0.201 -0.608,-0.414 -0.901,-0.614 -0.677,-0.927 -1.579,-1.591 -2.706,-2.03 -0.293,-0.313 -0.587,-0.638 -0.903,-0.952 -0.112,-0.214 -0.203,-0.401 -0.293,-0.589 0.407,-0.451 0.52,-1.091 0.293,-1.891 -0.201,-0.714 -0.406,-1.404 -0.586,-2.105 -0.113,-0.188 -0.203,-0.389 -0.315,-0.563 -0.113,-0.327 -0.203,-0.64 -0.294,-0.965 -0.112,-0.189 -0.203,-0.389 -0.293,-0.565 v -0.576 c -0.203,-0.513 -0.377,-1.043 -0.608,-1.528 -0.58,-1.218 -1.037,-2.204 -1.196,-3.056 -0.203,0.188 -0.406,0.375 -0.587,0.563 -0.293,0.639 -0.656,1.101 -0.901,1.504 -0.949,1.551 -1.805,3.157 -2.706,4.759 0.924,1.379 1.218,2.706 0.901,3.972 -2.299,1.027 -4.599,1.315 -6.877,0.877 -1.578,-0.626 -2.815,-1.22 -3.586,-1.954 -0.266,-0.255 -0.423,-0.605 -0.585,-0.94 -0.492,-1.017 -0.655,-2.254 -0.609,-3.632 -0.496,-0.677 -1.015,-1.241 -1.512,-1.679 v -0.777 c -0.112,-0.439 -0.202,-0.902 -0.293,-1.328 -0.089,-0.463 -0.18,-0.915 -0.293,-1.353 -0.113,-0.376 -0.203,-0.764 -0.315,-1.152 -0.112,-0.189 -0.203,-0.364 -0.293,-0.564 -0.091,-0.451 -0.181,-0.877 -0.294,-1.341 v -1.352 c -0.112,-0.189 -0.202,-0.389 -0.293,-0.576 -0.022,-0.74 -0.178,-1.368 -0.293,-1.917 -0.042,-0.202 0.058,-0.417 0,-0.589 -0.438,-1.307 -0.811,-2.368 -0.902,-3.283 1.488,-0.964 2.39,-2.003 2.683,-3.131 1.354,1.077 2.842,1.841 4.489,2.304 0.202,1.617 0.62,3.14 1.261,4.523 0.644,1.385 1.535,2.656 2.639,3.846 0.181,-0.201 0.384,-0.388 0.586,-0.588 0.181,-0.189 0.406,-0.376 0.609,-0.564 0.09,-0.126 0.181,-0.251 0.293,-0.377 0.407,-0.451 0.911,-0.809 1.196,-1.34 1.067,-1.987 2.322,-3.77 4.194,-5.135 1.623,-0.176 3.134,-0.176 4.487,0.037 3.27,2.618 5.53,5.372 6.765,8.192 1.245,2.842 1.488,5.788 0.722,8.795 0.406,1.941 0.486,3.744 0.248,5.411 -0.235,1.64 -0.834,3.146 -1.759,4.485 -0.112,-0.012 -0.203,-0.012 -0.293,-0.025 0.09,0.013 0.181,0.013 0.293,0.025 -0.112,0.289 -0.203,0.564 -0.293,0.852 m -50.196,2.731 c 2.165,-0.865 4.713,-1.491 7.622,-1.867 0.451,-0.137 0.902,-0.288 1.353,-0.425 0.338,-0.063 0.677,-0.114 0.992,-0.151 0.338,-0.062 0.676,-0.125 1.015,-0.15 0.316,-0.05 0.654,-0.087 0.992,-0.138 0.203,-0.088 0.429,-0.2 0.654,-0.301 0.992,-0.237 2.097,-0.387 3.337,-0.413 1.218,-0.275 2.436,-0.563 3.676,-0.814 0.316,-0.113 0.654,-0.213 0.992,-0.301 0.722,-0.663 1.489,-1.516 2.3,-2.567 0.293,-2.569 -2.706,-3.609 -8.952,-2.957 -0.338,-1.454 -0.676,-2.919 -1.015,-4.373 -0.135,-0.15 -0.225,-0.275 -0.338,-0.425 v -0.664 c -0.113,-0.276 -0.225,-0.577 -0.316,-0.877 -0.113,-0.815 -0.225,-1.629 -0.338,-2.43 -0.135,-0.301 -0.248,-0.589 -0.361,-0.877 v -0.89 c -0.112,-0.238 -0.203,-0.451 -0.315,-0.676 -0.113,-0.276 -0.204,-0.589 -0.316,-0.865 v -0.676 c -0.136,-0.376 -0.248,-0.764 -0.361,-1.115 v -0.889 c -0.113,-0.301 -0.225,-0.602 -0.316,-0.903 1.421,-1.779 3.744,-3.306 6.991,-4.634 -0.203,-0.602 -0.541,-1.253 -1.015,-1.943 -1.624,-0.4 -3.608,-0.46 -5.976,-0.413 -0.789,0.016 -1.556,-0.138 -2.322,-0.213 -0.88,-0.075 -1.782,-0.137 -2.661,-0.213 0.045,0.364 -0.068,0.664 -0.338,0.927 -2.548,0.489 -5.097,1.015 -7.645,1.528 -0.338,0.076 -0.676,0.151 -1.015,0.264 -0.225,0.075 -0.428,0.175 -0.654,0.25 -0.338,0.101 -0.676,0.176 -0.992,0.263 -1.24,0.364 -2.458,0.74 -3.675,1.115 -0.451,0.276 -0.902,0.539 -1.308,0.802 0.09,2.568 1.759,4.434 4.983,5.512 0.181,-1.955 2.751,-2.693 7.645,-2.192 0.315,1.114 0.563,2.492 0.676,4.171 l 0.339,0.451 c 0.089,0.765 0.202,1.528 0.315,2.305 0.113,0.214 0.203,0.438 0.338,0.664 0.204,1.304 0.429,2.606 0.654,3.909 0.226,0.426 0.429,0.864 0.677,1.303 0.045,1.114 0.383,2.38 0.992,3.808 v 0.689 c -2.142,0.301 -4.465,0.264 -6.968,-0.138 -0.338,0.037 -0.676,0.112 -1.014,0.175 -0.226,0.902 -0.677,1.867 -1.353,2.895 -0.068,1.979 0.946,3.482 3.021,4.459 m -10.936,3.633 c -0.294,-0.814 -0.61,-1.14 -0.902,-1.04 -0.294,-0.15 -0.61,-0.312 -0.903,-0.451 -0.654,-0.914 -1.556,-1.478 -2.683,-1.653 -0.316,-0.314 -0.609,-0.626 -0.902,-0.952 -0.113,-0.213 -0.203,-0.426 -0.316,-0.627 0.429,-0.714 0.545,-1.541 0.316,-2.518 -0.199,-0.852 -0.406,-1.679 -0.586,-2.53 -0.113,-0.213 -0.203,-0.439 -0.316,-0.652 -0.09,-0.388 -0.203,-0.777 -0.293,-1.165 -0.113,-0.212 -0.203,-0.438 -0.293,-0.676 v -0.74 c -0.203,-0.601 -0.362,-1.24 -0.609,-1.841 -0.587,-1.427 -1.037,-2.656 -1.195,-3.746 -0.203,0.289 -0.406,0.577 -0.587,0.852 -0.292,0.877 -0.654,1.579 -0.902,2.155 -0.969,2.254 -1.803,4.585 -2.705,6.928 0.924,1.653 1.24,3.369 0.902,5.148 -2.323,2.055 -4.601,3.158 -6.878,3.219 -1.579,-0.488 -2.869,-0.998 -3.585,-1.828 -0.299,-0.347 -0.457,-0.8 -0.609,-1.24 -0.48,-1.389 -0.654,-3.157 -0.609,-5.225 -0.474,-0.914 -0.993,-1.653 -1.488,-2.217 V 4.786 c -0.091,-0.651 -0.204,-1.303 -0.294,-1.967 -0.113,-0.664 -0.203,-1.328 -0.293,-1.992 -0.113,-0.563 -0.203,-1.139 -0.315,-1.703 -0.091,-0.276 -0.203,-0.539 -0.294,-0.827 -0.113,-0.651 -0.202,-1.328 -0.293,-2.005 v -2.066 c -0.112,-0.288 -0.203,-0.552 -0.316,-0.852 -0.022,-1.128 -0.159,-2.093 -0.293,-2.919 -0.046,-0.288 0.064,-0.613 0,-0.902 -0.432,-1.953 -0.789,-3.595 -0.879,-4.986 1.466,-1.491 2.368,-3.056 2.683,-4.748 1.353,1.616 2.842,2.756 4.488,3.42 0.18,2.342 0.605,4.524 1.24,6.501 0.628,1.955 1.533,3.708 2.638,5.237 0.203,-0.3 0.406,-0.601 0.609,-0.889 0.203,-0.301 0.406,-0.576 0.609,-0.864 0.09,-0.189 0.18,-0.376 0.293,-0.578 0.406,-0.651 0.93,-1.262 1.195,-1.966 1.066,-2.828 2.3,-5.261 4.194,-7.14 1.624,-0.301 3.113,-0.351 4.465,-0.113 3.27,3.119 5.531,6.274 6.765,9.546 1.223,3.242 1.488,6.652 0.721,10.359 0.429,2.218 0.508,4.35 0.271,6.364 -0.236,2.019 -0.857,3.997 -1.758,5.901 -0.09,0.012 -0.203,0.05 -0.293,0.088 0.09,-0.038 0.203,-0.076 0.293,-0.088 -0.09,0.376 -0.203,0.764 -0.293,1.14"
             inkscape:connector-curvature="0" /></g><g
           transform="translate(257.6836,275.957)"
           id="g264"><path
             id="path266"
             style="fill:#030408;fill-opacity:1;fill-rule:evenodd;stroke:none"
             d="m 0,0 2.938,-3.577 c 0.219,-0.123 0.445,-0.234 0.677,-0.331 0.141,-0.06 0.285,-0.114 0.43,-0.164 2.021,-0.687 4.318,-0.468 6.347,0.078 2.916,0.786 5.866,1.443 8.836,1.996 2.956,0.551 5.931,0.993 8.908,1.413 0.131,0.019 0.261,0.041 0.39,0.066 1.13,0.218 2.189,0.683 3.151,1.308 0.372,0.241 0.728,0.506 1.069,0.789 l 3.818,5.39 c 0.298,0.867 0.473,1.775 0.473,2.695 0,1.509 -0.468,2.9 -1.368,4.105 l -1.089,1.461 2.189,5.002 c 0.1,0.386 0.175,0.779 0.22,1.174 l -0.655,6.239 0.544,2.28 c 0.102,0.509 0.159,1.027 0.159,1.546 0,2.331 -1.103,4.294 -2.875,5.76 -1.738,1.439 -3.928,2.282 -6.176,2.424 -3.093,0.198 -6.2,0.162 -9.283,-0.17 C 15.531,39.143 12.396,38.49 9.356,37.519 6.647,36.652 4.532,33.991 3.196,31.597 2.4,30.17 1.742,28.618 1.318,27.038 L 1.175,26.503 1.098,26.101 C 0.941,25.329 0.845,24.537 0.845,23.75 c 0,-0.153 0.004,-0.307 0.012,-0.459 L 0.903,22.437 0.511,21.68 c -0.209,-0.404 -0.394,-0.82 -0.555,-1.245 -0.1,-0.26 -0.172,-0.545 -0.23,-0.821 L -0.65,16.247 c -0.067,-1.382 -0.066,-2.766 -0.051,-4.148 0.019,-1.826 0.082,-3.66 0.277,-5.476 0.033,-0.316 0.072,-0.633 0.121,-0.947 L -0.23,5.208 -0.299,4.739 C -0.484,3.483 -0.492,2.169 -0.22,0.925 L -0.204,0.856 -0.192,0.789 C -0.146,0.521 -0.082,0.259 0,0"
             inkscape:connector-curvature="0" /></g><g
           transform="translate(260.7773,299.707)"
           id="g268"><path
             id="path270"
             style="fill:#fed9bb;fill-opacity:1;fill-rule:evenodd;stroke:none"
             d="m 0,0 v -0.003 c 0,-1.957 0.818,-3.06 2.066,-3.589 1.281,-0.542 3.01,-0.489 4.881,-10e-4 2.979,0.777 5.945,1.404 8.903,1.934 2.975,0.532 5.935,0.959 8.9,1.369 1.881,0.261 3.598,1.536 4.884,3.089 1.243,1.5 2.06,3.275 2.06,4.921 0,1.648 -0.802,2.987 -2.06,4.028 -1.27,1.052 -2.979,1.792 -4.884,1.912 -2.941,0.188 -5.904,0.161 -8.9,-0.162 C 12.911,13.183 9.934,12.581 6.947,11.627 5.081,11.029 3.326,9.01 2.066,6.751 0.798,4.478 0,1.957 0,0"
             inkscape:connector-curvature="0" /></g><g
           transform="translate(260.7773,299.707)"
           id="g272"><path
             id="path274"
             style="fill:#fcbf91;fill-opacity:1;fill-rule:evenodd;stroke:none"
             d="m 0,0 v -0.003 c 0,-1.957 0.818,-3.06 2.066,-3.589 1.281,-0.542 3.01,-0.489 4.881,-10e-4 2.979,0.777 5.945,1.404 8.903,1.934 2.975,0.532 5.935,0.959 8.9,1.369 1.881,0.261 3.598,1.536 4.884,3.089 0.5,0.602 0.931,1.251 1.267,1.916 -0.359,0.524 -0.832,0.99 -1.395,1.397 -1.39,1.003 -3.309,1.653 -5.44,1.66 C 20.724,7.784 17.319,7.542 13.847,6.972 10.411,6.407 6.925,5.506 3.453,4.294 2.114,3.826 1.015,2.908 0.187,1.79 0.065,1.16 0,0.557 0,0"
             inkscape:connector-curvature="0" /></g><g
           transform="translate(263.6562,295.8623)"
           id="g276"><path
             id="path278"
             style="fill:#fcbf91;fill-opacity:1;fill-rule:evenodd;stroke:none"
             d="m 0,0 c 1.16,-0.25 2.568,-0.14 4.068,0.252 2.979,0.776 5.945,1.403 8.903,1.934 2.975,0.532 5.935,0.959 8.9,1.369 0.275,0.037 0.546,0.097 0.814,0.176 C 22.251,3.797 21.804,3.835 21.347,3.843 18.101,3.895 14.801,3.702 11.439,3.19 8.119,2.684 4.755,1.854 1.398,0.702 0.903,0.532 0.437,0.294 0,0"
             inkscape:connector-curvature="0" /></g><g
           transform="translate(260.1562,280.2793)"
           id="g280"><path
             id="path282"
             style="fill:#fed9bb;fill-opacity:1;fill-rule:evenodd;stroke:none"
             d="m 0,0 c 1.408,-0.449 5.375,5.877 7.26,6.389 3.015,0.819 6.031,1.496 9.041,2.062 3.03,0.57 6.035,1.023 9.036,1.448 1.9,0.27 3.626,1.548 4.913,3.098 1.247,1.502 2.065,3.283 2.065,4.93 0,1.647 -0.826,2.977 -2.188,3.96 -1.39,1.003 -3.309,1.652 -5.44,1.661 C 21.345,23.559 17.94,23.317 14.468,22.747 11.032,22.182 7.546,21.28 4.074,20.068 1.906,19.312 0.366,17.372 -0.415,15.315 -1.239,13.144 -1.056,0.336 0,0"
             inkscape:connector-curvature="0" /></g><g
           transform="translate(260.3882,280.2627)"
           id="g284"><path
             id="path286"
             style="fill:#fcbf91;fill-opacity:1;fill-rule:evenodd;stroke:none"
             d="m 0,0 c 1.571,0.192 5.238,5.919 7.028,6.405 3.015,0.82 6.031,1.496 9.041,2.063 3.03,0.57 6.035,1.022 9.036,1.448 1.9,0.27 3.626,1.548 4.913,3.098 0.161,0.195 0.315,0.393 0.462,0.597 -0.172,0.16 -0.356,0.313 -0.552,0.458 -1.363,1.017 -3.235,1.687 -5.313,1.72 -3.246,0.052 -6.546,-0.14 -9.908,-0.652 C 11.387,14.631 8.023,13.801 4.667,12.649 2.571,11.93 0.974,9.968 0.081,7.864 -0.813,5.761 -1.124,3.47 -0.699,1.714 -0.608,1.08 -0.361,0.498 0,0"
             inkscape:connector-curvature="0" /></g><g
           transform="translate(259.6895,277.2412)"
           id="g288"><path
             id="path290"
             style="fill:#fed9bb;fill-opacity:1;fill-rule:evenodd;stroke:none"
             d="m 0,0 c 0.217,-1.52 1.335,-2.741 2.763,-3.228 1.382,-0.468 3.155,-0.385 5.037,0.122 3.006,0.809 6.012,1.477 9.011,2.035 3.017,0.56 6.011,1.007 9.005,1.429 1.893,0.266 3.615,1.541 4.901,3.092 1.247,1.501 2.065,3.282 2.065,4.929 0,1.647 -0.819,2.98 -2.155,3.976 -1.363,1.017 -3.235,1.688 -5.314,1.72 -3.245,0.052 -6.545,-0.14 -9.907,-0.652 C 12.086,12.917 8.722,12.087 5.365,10.936 3.27,10.216 1.672,8.254 0.779,6.15 -0.115,4.047 -0.425,1.756 0,0"
             inkscape:connector-curvature="0" /></g><g
           transform="translate(261.5181,274.4648)"
           id="g292"><path
             id="path294"
             style="fill:#fcbf91;fill-opacity:1;fill-rule:evenodd;stroke:none"
             d="m 0,0 c 0.291,-0.187 0.604,-0.338 0.934,-0.451 1.382,-0.469 3.155,-0.386 5.038,0.121 3.005,0.809 6.011,1.477 9.01,2.035 3.017,0.561 6.011,1.007 9.006,1.43 1.352,0.19 2.617,0.895 3.699,1.847 C 26.488,5.603 25.045,5.986 23.485,6.011 20.239,6.062 16.939,5.87 13.577,5.358 10.257,4.853 6.894,4.022 3.537,2.871 2.102,2.379 0.901,1.304 0,0"
             inkscape:connector-curvature="0" /></g><g
           transform="translate(295.6167,374.4902)"
           id="g296"><path
             id="path298"
             style="fill:#141226;fill-opacity:1;fill-rule:evenodd;stroke:none"
             d="m 0,0 c -0.05,-9.961 -2.477,-19.293 -7.388,-26.144 l -20.184,3.989 v -23.676 c -14.724,-2.141 -22.826,-12.397 -24.303,-30.77 -0.223,-2.767 -0.295,-5.717 -0.217,-8.852 0.063,2.236 0.436,4.521 1.158,6.834 l 0.297,0.965 0.649,2.11 c 4.204,13.752 8.819,25.501 24.82,26.212 0.431,0.365 0.969,0.572 1.559,0.675 v 19.997 c 12.276,-3.32 24.55,-6.386 36.825,-8.98 l 0.42,-0.089 c 0.537,2.552 1.071,5.244 1.598,8.075 0.38,7 -1.117,13.316 -4.491,18.95 C 8.221,-6.494 4.639,-2.629 -0.001,0.89 0.001,0.593 0.001,0.296 0,0"
             inkscape:connector-curvature="0" /></g><g
           transform="translate(505.8662,280.4316)"
           id="g300"><path
             id="path302"
             style="fill:#030408;fill-opacity:1;fill-rule:evenodd;stroke:none"
             d="m 0,0 -3.001,-3.89 c -0.228,-0.137 -0.465,-0.261 -0.708,-0.373 -0.148,-0.068 -0.299,-0.131 -0.451,-0.188 -2.121,-0.793 -4.566,-0.635 -6.734,-0.121 -3.119,0.738 -6.27,1.341 -9.437,1.83 -3.154,0.488 -6.324,0.862 -9.496,1.211 -0.139,0.015 -0.278,0.035 -0.416,0.056 -1.205,0.197 -2.344,0.655 -3.385,1.287 -0.401,0.244 -0.788,0.512 -1.158,0.802 l -4.226,5.594 c -0.343,0.91 -0.557,1.867 -0.588,2.843 -0.048,1.6 0.403,3.091 1.318,4.398 l 1.109,1.586 -2.484,5.236 c -0.119,0.405 -0.211,0.819 -0.272,1.237 l 0.492,6.639 -0.65,2.401 c -0.126,0.536 -0.201,1.084 -0.219,1.635 -0.075,2.472 1.032,4.59 2.864,6.203 1.796,1.582 4.092,2.548 6.472,2.772 3.275,0.309 6.572,0.371 9.853,0.119 3.376,-0.259 6.721,-0.849 9.978,-1.783 2.901,-0.83 5.232,-3.586 6.726,-6.082 0.891,-1.487 1.639,-3.112 2.139,-4.775 l 0.17,-0.563 0.094,-0.425 c 0.191,-0.812 0.32,-1.649 0.345,-2.484 0.005,-0.163 0.006,-0.325 0.002,-0.487 l -0.023,-0.907 0.442,-0.791 c 0.235,-0.421 0.444,-0.857 0.63,-1.302 0.113,-0.274 0.198,-0.573 0.269,-0.864 l 0.508,-3.56 C 0.279,15.791 0.322,14.323 0.352,12.855 0.391,10.92 0.383,8.972 0.235,7.039 0.21,6.702 0.179,6.366 0.137,6.03 L 0.075,5.531 0.163,5.037 C 0.399,3.71 0.451,2.316 0.202,0.987 L 0.188,0.915 0.178,0.843 C 0.138,0.558 0.078,0.276 0,0"
             inkscape:connector-curvature="0" /></g><g
           transform="translate(501.8154,305.5234)"
           id="g304"><path
             id="path306"
             style="fill:#fed9bb;fill-opacity:1;fill-rule:evenodd;stroke:none"
             d="m 0,0 v -0.002 c 0.063,-2.076 -0.769,-3.274 -2.075,-3.874 -1.342,-0.617 -3.178,-0.616 -5.178,-0.159 -3.185,0.726 -6.351,1.297 -9.506,1.763 -3.174,0.467 -6.327,0.825 -9.485,1.164 -2.004,0.215 -3.866,1.513 -5.28,3.118 -1.369,1.552 -2.292,3.409 -2.345,5.154 -0.054,1.748 0.754,3.194 2.055,4.339 1.313,1.157 3.101,1.997 5.119,2.187 3.114,0.293 6.258,0.361 9.445,0.116 3.128,-0.241 6.306,-0.782 9.505,-1.698 C -5.747,11.536 -3.819,9.449 -2.41,7.095 -0.991,4.725 -0.063,2.076 0,0"
             inkscape:connector-curvature="0" /></g><g
           transform="translate(501.8154,305.5234)"
           id="g308"><path
             id="path310"
             style="fill:#fcbf91;fill-opacity:1;fill-rule:evenodd;stroke:none"
             d="m 0,0 v -0.002 c 0.063,-2.076 -0.769,-3.274 -2.075,-3.874 -1.342,-0.617 -3.178,-0.616 -5.178,-0.159 -3.185,0.726 -6.351,1.297 -9.506,1.763 -3.174,0.467 -6.327,0.825 -9.485,1.164 -2.004,0.215 -3.866,1.513 -5.28,3.118 -0.55,0.624 -1.029,1.297 -1.407,1.992 0.365,0.567 0.85,1.077 1.435,1.527 1.442,1.11 3.456,1.861 5.717,1.938 3.545,0.12 7.164,-0.027 10.865,-0.519 C -11.251,6.46 -7.523,5.616 -3.801,4.443 -2.366,3.99 -1.171,3.053 -0.256,1.894 -0.106,1.229 -0.018,0.591 0,0"
             inkscape:connector-curvature="0" /></g><g
           transform="translate(498.8867,301.3516)"
           id="g312"><path
             id="path314"
             style="fill:#fcbf91;fill-opacity:1;fill-rule:evenodd;stroke:none"
             d="m 0,0 c -1.223,-0.302 -2.721,-0.229 -4.324,0.137 -3.185,0.726 -6.351,1.297 -9.506,1.762 -3.174,0.468 -6.327,0.826 -9.485,1.164 -0.293,0.032 -0.582,0.086 -0.869,0.162 0.457,0.084 0.931,0.138 1.415,0.161 3.442,0.161 6.949,0.063 10.531,-0.371 C -8.7,2.585 -5.105,1.814 -1.507,0.701 -0.977,0.536 -0.474,0.298 0,0"
             inkscape:connector-curvature="0" /></g><g
           transform="translate(503.1035,284.9365)"
           id="g316"><path
             id="path318"
             style="fill:#fed9bb;fill-opacity:1;fill-rule:evenodd;stroke:none"
             d="m 0,0 c -1.479,-0.522 -5.892,6.06 -7.909,6.542 -3.224,0.771 -6.445,1.391 -9.656,1.895 -3.233,0.507 -6.436,0.889 -9.632,1.244 -2.025,0.224 -3.896,1.523 -5.312,3.127 -1.37,1.551 -2.297,3.416 -2.35,5.161 -0.053,1.749 0.781,3.186 2.193,4.272 1.442,1.11 3.457,1.86 5.717,1.938 3.545,0.12 7.164,-0.027 10.865,-0.519 3.663,-0.488 7.391,-1.332 11.113,-2.505 2.324,-0.732 4.02,-2.739 4.914,-4.896 C 0.888,13.981 1.108,0.391 0,0"
             inkscape:connector-curvature="0" /></g><g
           transform="translate(502.8574,284.9111)"
           id="g320"><path
             id="path322"
             style="fill:#fcbf91;fill-opacity:1;fill-rule:evenodd;stroke:none"
             d="m 0,0 c -1.673,0.153 -5.748,6.109 -7.663,6.567 -3.224,0.772 -6.445,1.391 -9.656,1.895 -3.233,0.508 -6.436,0.89 -9.632,1.244 -2.025,0.225 -3.896,1.523 -5.312,3.127 -0.177,0.201 -0.346,0.407 -0.509,0.618 0.178,0.176 0.369,0.344 0.571,0.504 1.413,1.123 3.376,1.895 5.58,1.997 3.441,0.159 6.948,0.063 10.531,-0.372 3.537,-0.429 7.133,-1.2 10.731,-2.313 C -3.113,12.571 -1.355,10.542 -0.34,8.34 0.677,6.137 1.08,3.717 0.686,1.84 0.61,1.165 0.367,0.54 0,0"
             inkscape:connector-curvature="0" /></g><g
           transform="translate(503.6963,281.7285)"
           id="g324"><path
             id="path326"
             style="fill:#fed9bb;fill-opacity:1;fill-rule:evenodd;stroke:none"
             d="m 0,0 c -0.181,-1.618 -1.327,-2.951 -2.826,-3.513 -1.451,-0.542 -3.335,-0.511 -5.348,-0.035 -3.214,0.762 -6.425,1.373 -9.623,1.867 -3.219,0.498 -6.409,0.874 -9.599,1.225 -2.016,0.222 -3.884,1.518 -5.299,3.121 -1.371,1.553 -2.296,3.416 -2.349,5.162 -0.054,1.748 0.772,3.188 2.156,4.288 1.414,1.122 3.377,1.894 5.581,1.996 3.442,0.16 6.949,0.064 10.531,-0.372 3.538,-0.428 7.132,-1.2 10.731,-2.313 2.246,-0.696 4.004,-2.725 5.02,-4.927 C -0.009,4.296 0.395,1.877 0,0"
             inkscape:connector-curvature="0" /></g><g
           transform="translate(501.8467,278.7246)"
           id="g328"><path
             id="path330"
             style="fill:#fcbf91;fill-opacity:1;fill-rule:evenodd;stroke:none"
             d="m 0,0 c -0.303,-0.207 -0.63,-0.378 -0.977,-0.509 -1.451,-0.542 -3.335,-0.512 -5.347,-0.035 -3.214,0.762 -6.425,1.373 -9.623,1.867 -3.219,0.498 -6.409,0.874 -9.6,1.225 -1.44,0.158 -2.805,0.866 -3.983,1.842 1.252,0.695 2.77,1.149 4.424,1.226 3.441,0.16 6.948,0.063 10.531,-0.372 3.537,-0.43 7.133,-1.2 10.73,-2.313 C -2.308,2.455 -0.998,1.354 0,0"
             inkscape:connector-curvature="0" /></g></g></g></g></svg>