<?xml version="1.0" encoding="UTF-8"?>
<svg viewBox="0 0 124.91737 143.45947" xmlns="http://www.w3.org/2000/svg" xmlns:xlink="http://www.w3.org/1999/xlink">
 <defs>
  <filter id="l" x="-.37064" y="-.37064" width="1.7413" height="1.7413">
   <feGaussianBlur stdDeviation="10.5898"/>
  </filter>
  <filter id="k" x="-.04697" y="-.13523" width="1.0939" height="1.2705">
   <feGaussianBlur stdDeviation="6.7051"/>
  </filter>
  <linearGradient id="a">
   <stop stop-color="#a5a5a5" offset="0"/>
   <stop offset="1"/>
  </linearGradient>
  <linearGradient id="h" x1="90.687" x2="94.999" gradientUnits="userSpaceOnUse">
   <stop stop-color="#ffb142" offset="0"/>
   <stop stop-color="#c87600" offset="1"/>
  </linearGradient>
  <linearGradient id="b">
   <stop offset="0"/>
   <stop stop-opacity="0" offset="1"/>
  </linearGradient>
  <linearGradient id="j" x1="311.07" x2="314.43" y1="252.39" y2="234.83" gradientUnits="userSpaceOnUse" xlink:href="#b"/>
  <linearGradient id="i" x1="990.99" x2="991.81" y1="237.27" y2="232.99" gradientTransform="matrix(1.5542 2.9765 -2.9765 1.5542 4.6657 -2595.1)" gradientUnits="userSpaceOnUse" xlink:href="#b"/>
  <radialGradient id="c" cx="414.68" cy="-8.8805" r="123.55" gradientTransform="matrix(-1.8232e-6 .27968 -.60927 0 101.73 -39.26)" gradientUnits="userSpaceOnUse">
   <stop stop-color="#ffb142" offset="0"/>
   <stop stop-color="#ffb141" offset=".8868"/>
   <stop stop-color="#c87600" offset="1"/>
  </radialGradient>
  <radialGradient id="g" cx="488.04" cy="349.51" r="41.491" gradientUnits="userSpaceOnUse">
   <stop stop-color="#fff" offset="0"/>
   <stop stop-color="#dadada" offset="1"/>
  </radialGradient>
  <radialGradient id="d" cx="610.46" cy="483.45" r="167.56" gradientTransform="matrix(0 -.48219 .4319 -1.2542e-6 -151.97 551.35)" gradientUnits="userSpaceOnUse" xlink:href="#a"/>
  <radialGradient id="e" cx="380.26" cy="622.49" r="59.255" gradientTransform="matrix(0 -.74351 .66041 0 -364.7 582.13)" gradientUnits="userSpaceOnUse" xlink:href="#a"/>
  <radialGradient id="f" cx="371.45" cy="647.69" r="59.255" gradientTransform="matrix(0 -.74351 -.66041 0 552.03 582.13)" gradientUnits="userSpaceOnUse" xlink:href="#a"/>
 </defs>
 <g transform="matrix(.95648 0 0 .95648 -32.005 -244.9)">
  <path d="m81.781 385.54c-15.668 1.6128-33.638 14.291-26.495 17.056s27.873 3.9181 31.79 0.69241c2.0127-1.6576 5.6138-5.8087 6.0382-9.704 0.42497 3.8949 4.0155 8.0466 6.0281 9.704 3.9169 3.2257 24.658 2.0724 31.8-0.69241s-10.827-15.443-26.495-17.056c-8.0678 0.77761-10.97 3.4884-11.333 6.5983-0.36356-3.1099-3.2654-5.8207-11.333-6.5983z" fill="url(#c)" fill-rule="evenodd" stroke="#000" stroke-width="1.5639"/>
  <path d="m81.784 385.55c-7.69 0.79161-15.927 4.249-21.485 7.8915 8.4173 3.8928 18.709 6.2918 29.865 6.5678 1.4296-1.8809 2.7102-4.1871 2.9529-6.415 0.24081 2.207 1.4914 4.4927 2.902 6.3641 10.973-0.4646 21.052-2.9801 29.254-6.9445-5.5378-3.4836-13.432-6.7029-20.823-7.4638-8.0678 0.77762-10.97 3.4884-11.333 6.5983-0.36356-3.1099-3.2654-5.8207-11.333-6.5983z" fill-opacity=".3137" fill-rule="evenodd"/>
  <path d="m146.28 340.23a53.948 53.948 0 0 1 -107.9 0 53.948 53.948 0 1 1 107.9 0z" fill="url(#d)" stroke="#000" stroke-linecap="round" stroke-width="1.5639"/>
  <path d="m118.99 367.2a26.153 26.153 0 1 1 -52.307 0 26.153 26.153 0 1 1 52.307 0z" fill="#fff" stroke="#000" stroke-linecap="round" stroke-width="1.6292"/>
  <path d="m144.15 325.23c0.10951 1.4027 0.1731 2.8155 0.1731 4.2461 0 29.779-24.178 53.947-53.957 53.947-24.575 0-45.316-16.459-51.819-38.948 2.1699 27.795 25.426 49.701 53.774 49.701 29.779 0 53.957-24.168 53.957-53.947 0-5.2041-0.75099-10.237-2.1282-14.999z" fill-opacity=".3137"/>
  <path d="m81.252 304.33c-7.4731 0-13.543 6.9841-13.543 15.589s6.0697 15.589 13.543 15.589c4.3917 0 8.2889-2.4146 10.763-6.1503 2.4738 3.7383 6.3795 6.1503 10.773 6.1503 7.4731 0 13.543-6.9841 13.543-15.589s-6.0697-15.589-13.543-15.589c-4.3931 0-8.2992 2.4127-10.773 6.1503-2.4741-3.7348-6.3718-6.1503-10.763-6.1503z" fill="#fff" stroke="#000" stroke-linecap="round" stroke-width="1.6292"/>
  <path d="m92.662 331.22c-4.7179 0-9.846 4.2966-9.6408 7.0102s8.4101 14.02 10.256 14.02 9.0255-11.081 8.8203-14.247-6.3588-7.0102-9.4357-6.7841z" fill-opacity=".3137" fill-rule="evenodd"/>
  <path d="m91.917 328.5c-4.7179 0-9.846 3.8974-9.6408 6.3588s8.4101 12.718 10.256 12.718 9.0255-10.051 8.8204-12.923-6.3589-6.3588-9.4357-6.1537z" fill="url(#h)" fill-rule="evenodd" stroke="#000" stroke-width="1.6292"/>
  <path d="m89.648 322.66a3.3846 3.3846 0 0 1 -6.7691 0 3.3846 3.3846 0 1 1 6.7691 0z" stroke="#000" stroke-linecap="round" stroke-width="1.6292"/>
  <path d="m101.76 322.66a3.3846 3.3846 0 1 1 -6.7691 0 3.3846 3.3846 0 1 1 6.7691 0z" stroke="#000" stroke-linecap="round" stroke-width="1.6292"/>
  <g transform="matrix(.32865 .03099 -.03099 .32865 -25.183 228.01)">
   <path d="m353.51 296.79c-0.14752-0.21848-0.31596-0.42722-0.47474-0.63807-3.8098-5.0605-11.169-8.236-15.577-8.0244-5.8781 0.28201-11.043 9.1821-11.76 17.816-0.0884 1.0648-0.10668 2.1314-0.0691 3.1876l-31.033-26.074-17.013 11.031 0.2918 1.0618-43.178 27.996 18.121 78.019c21.503 9.1107 43.086 18.465 64.594 27.717l38.559-25.001 1.198 0.71832 16.992-11.017-4.3648-9.6495c2.7028 0.29653 5.3072 0.01 7.6258-1.0389 10.783-4.8758 13.812-15.626 7.834-24.577-0.193-0.28863-0.3812-0.5819-0.59251-0.86684-4.4964-6.0486-21.044-9.9893-32.249-12.044l-8.3014-18.356c8.4652-11.118 12.176-17.814 11.357-25.214-0.19842-1.7945-0.92681-3.5162-1.9595-5.0456zm-10.942 9.9015c-0.30493 0.72618-0.57904 1.4002-0.77826 1.9997-0.83502 2.5131-2.4599 6.6361-4.0551 10.593l-0.77313-0.62768c0.11492-1.4324 0.3085-2.7466 0.62124-3.6066 1.3596-3.7398 3.4265-6.5758 4.9853-8.3585zm30.021 57.548c0.74857 1.0756 1.3844 2.2046 1.8884 3.383-0.63225 0.39539-1.335 0.77579-2.1168 1.1589-2.2382 1.0968-5.1379 2.0501-8.2554 2.515l-7.977-17.621c1.5989 0.53785 2.7954 0.96146 3.1026 1.1616 5.6875 1.7979 10.412 5.1695 13.358 9.4022z" stroke="#000" stroke-width="9"/>
   <g transform="matrix(.44571 .68741 -.68741 .44571 269.49 38.412)">
    <path d="m268.52 158.67 91.928 24.785v74.507l-91.928-33.239z" fill="#009dff"/>
    <path d="m302.06 226.32-0.3074 10.356 18.488 6.6741 0.15163-11.43-18.335-5.6002z" fill="url(#j)" fill-rule="evenodd"/>
    <path d="m267.22 136.75 92.697 24.785v28.588l-92.697-28.628z" fill="#0075ff" stroke="#0075ff"/>
    <path d="m360.45 257.87 71.281-47.649v-66.899l-71.281 37.159z" fill="#008cff"/>
    <path d="m433.27 128.65-73.349 33.219v28.031l73.349-36.505z" fill="#0064ff"/>
    <path d="m340.04 114.46 93.229 14.184-73.349 33.219-92.697-25.116z" fill="#007cff"/>
    <path d="m303.14 145.45 76.34-25.235 17.161 2.716-76.268 28.783-1.076 91.272-17.676-6.2443z" fill="#ccc"/>
    <path d="m302.92 125.97 89.968 22.297-0.34016 89.002 17.073-11.461-0.29512-85.486-88.657-19.784-17.75 5.4328z" fill="#ccc" fill-rule="evenodd"/>
    <path d="m322.51 99.798s0.8939 7.3858 6.0278 14.183c2.4362 3.2262 11.878 8.6873 11.878 8.6873l5.1417 6.2052s-5.3188 1.7729-7.9784 1.4183-15.851-4.1822-20.816-7.0189-13.829-12.835-14.361-15.139-2.9805-8.2979-0.85294-12.198 6.2447-5.7112 7.4857-5.8885 12.942 5.8506 12.942 5.8506l0.532 3.9004z" fill="#999" fill-rule="evenodd"/>
    <path d="m344.04 132.62s7.8408 0.17871 8.5464 4.904-3.5742 9.84 5.3618 19.73c3.0232-1.1619 3.5914-4.0173 3.5914-4.0173l7.1891 3.8991s-5.1878-9.526-4.8241-13.274 1.6762-8.2779-0.77883-9.9713-15.142-2.9245-15.142-2.9245l-3.9441 1.6547z" fill="#b3b3b3" fill-rule="evenodd"/>
    <path d="m319.47 85.597c-7.7128 0.54143-15.861 5.9752-18.572 10.631-3.6146 6.2075 2.078 17.398 10.445 23.865 11.466 8.8629 28.62 9.193 28.62 9.193 0-0.26724 11.205 3.0971 6.6602-10.003-6.525-18.808-10.934-27.994-19.725-32.405-2.251-1.1296-4.8577-1.4613-7.4288-1.2808zm-10.785 7.3447c7.8218-2.4388 12.707 8.1864 16.164 12.508 4.2552 5.3187 14.986 21.005 14.986 21.005l2.1772 2.8178s-1.1858 0.0205-13.064-2.8178-20.421-10.884-20.775-11.593c-7.0775-8.3999-9.1604-18.77 0.51233-21.92z" fill="#ccc" fill-rule="evenodd"/>
    <path d="m325.03 126.66s-7.532 3.766-11.008 4.9247-22.596-0.28977-22.596-0.28977l9.8494 3.1866-2.6071 5.7938s14.443 0.14099 19.699-0.57938c7.7546-1.0628 10.139-7.2423 20.858-7.532 6.4299-0.17378 9.8494 0.57938 9.8494 0.57938s-8.6907-6.9526-24.044-6.0835z" fill="#b3b3b3" fill-rule="evenodd"/>
    <path d="m362.43 125.74c-1.266-1.0698-12.844-6.2294-15.785-6.2294s-7.753 5.6143-6.4164 9.0899 11.763 5.8817 14.971 5.8817c2.8567-0.73271 5.4544-1.6386 8.2878-2.9409 0-1.8714 0.55657-3.9627-1.0583-5.8013z" fill="#e6e6e6" fill-rule="evenodd"/>
    <path d="m357.62 134.37s9.2083 3.3756 14.882 4.2621 17.208 2.8295 20.045 1.7658 18.261-4.255 20.389-7.6235-11.347-3.9004-11.347-3.9004-7.6238 4.7869-12.943 5.1414-20.92-3.3685-20.92-3.3685l-9.9285 2.6594-0.17624 1.0638z" fill="#999" fill-rule="evenodd"/>
    <path d="m359.21 133.13 8.6874-2.1275s14.183-12.056 15.779-12.765c8.1718-6.7361 18.37-9.2235 26.771-6.2052 0 0-0.88653-10.815-3.7232-12.233s-10.638-2.4821-10.638-2.4821-10.551 7.0756-11.793 8.3167-19.29 18.982-19.29 18.982l-5.645 6.6363-1.1288 2.3163 0.97957-0.4388z" fill="#999" fill-rule="evenodd"/>
    <path d="m403.23 93.922c-13.829 0.88645-40.953 33.019-42.549 34.792s-4.0084 5.5957-3.8314 5.4184c0 0 17.27 7.6819 32.163 6.7954s33.526-9.8794 35.471-22.705c2.237-14.743-7.4255-25.187-21.254-24.301zm-9.4194 6.1168c4.6716-0.85239 14.671-0.92568 12.878 13.992-1.1099 9.2359-7.7386 23.883-21.39 24.592s-26.993-5.1951-26.816-5.3723c0 4e-5 21.703-22.993 22.59-23.702s7.3927-8.2067 12.738-9.5092z" fill="#ccc" fill-rule="evenodd"/>
   </g>
  </g>
  <path d="m51.639 328.16c15.677 5.6371-4.615 30.676 12.323 52.523 3.1308 4.0382-18.856 0.68126-26.629-21.696-7.559-21.762-0.36897-35.041 14.306-30.827z" fill="#fff" fill-rule="evenodd" stroke="#000" stroke-width="1.6292"/>
  <path d="m51.639 328.16c15.677 5.6371-13.877 33.276 12.323 52.523 7.3726 5.416-18.856 0.68126-26.629-21.696-7.559-21.762-0.36897-35.041 14.306-30.827z" fill="url(#e)" fill-rule="evenodd" stroke="#000" stroke-width="1.6292"/>
  <g transform="matrix(.31555 0 0 .31555 -133.32 188.74)">
   <path d="m742.86 549 72.951-15.281 0.38476 2.1426-72.269 16.577z" fill="#75c800"/>
   <g transform="matrix(-.97548 -.46419 -.46419 .97548 2049.9 256.4)">
    <path d="m963.38 666.82c-0.12636-0.23136-0.27446-0.455-0.41274-0.67982-3.3179-5.3958-10.346-9.2481-14.755-9.4513-5.8786-0.27105-11.857 8.1049-13.38 16.633-0.18797 1.0518-0.30629 2.112-0.36803 3.167l-28.449-28.872-17.974 9.3854 0.19084 1.0845-45.615 23.819 10.717 79.375c20.553 11.089 41.162 22.428 61.707 33.658l40.736-21.271 1.1253 0.82761 17.951-9.3736-3.4397-10.017c2.663 0.54894 5.2829 0.50817 7.6897-0.3184 11.194-3.842 15.218-14.261 10.107-23.733-0.16505-0.30548-0.32489-0.61512-0.50852-0.91864-3.9088-6.444-20.014-11.921-30.976-15.018l-6.5416-19.054c9.4716-10.275 13.794-16.592 13.674-24.036-0.0291-1.8052-0.59264-3.5876-1.4772-5.2073zm-11.823 8.8307c-0.37176 0.69435-0.70793 1.3397-0.96255 1.9178-1.0672 2.4236-3.072 6.3759-5.0316 10.166l-0.71079-0.69748c0.24887-1.4152 0.56497-2.7055 0.95706-3.5324 1.7047-3.5956 4.0287-6.2251 5.7479-7.8536zm24.486 60.113c0.64429 1.1411 1.1713 2.3248 1.5624 3.5453-0.66658 0.33429-1.402 0.64704-2.2162 0.95506-2.3312 0.88181-5.3077 1.5587-8.455 1.7289l-6.2877-18.292c1.5414 0.68557 2.6928 1.2196 2.9799 1.4477 5.4936 2.3238 9.8811 6.1241 12.417 10.615z" stroke="#000" stroke-width="9"/>
    <path d="m891.71 656.57 16.861 76.159-52.914 28.682-11.916-79.793z" fill="#81dc00"/>
    <path d="m854.18 706.88-7.6376 3.704 2.164 15.957 8.3585-4.2244-2.8857-15.439z" fill="url(#i)" fill-rule="evenodd"/>
    <path d="m905.52 646.83 18.053 78.112-20.751 10.159-15.691-78.833z" fill="#6bb800"/>
    <path d="m853.41 761.25 61.634 33.697 48.583-25.369-54.016-37.675z" fill="#87e600"/>
    <path d="m975.14 765.07-51.954-40.76-20.502 10.831 54.217 39.653z" fill="#71c200"/>
    <path d="m949.81 692.05 25.252 73.025-52.139-40.612-16.912-76.842z" fill="#75c800"/>
    <path d="m913.32 677.01 47.275 45.87 4.535 13.492-49.824-44.473-66.691 33.83-2.1682-15.205z" fill="#ccc"/>
    <path d="m927.38 669.46 17.924 73.791-64.764 33.503 14.798 8.0523 61.97-32.631-19.252-71.886-10.676-10.83z" fill="#ccc" fill-rule="evenodd"/>
    <path d="m953.82 673.76s-5.0247 3.4499-8.0143 9.7559c-1.4191 2.9926-1.8046 11.92-1.8046 11.92l-2.5565 6.0871s-3.3044-3.1903-4.0555-5.2562-2.9738-13.097-2.7962-17.778 4.0768-14.91 5.5488-16.17 4.8958-5.3111 8.5352-5.2451 6.5156 2.3692 7.115 3.2033 0.65898 11.617 0.65898 11.617l-2.6308 1.8654z" fill="#999" fill-rule="evenodd"/>
    <path d="m938.14 701.84s2.8435 5.7619-0.32048 8.0662-8.5013 1.1358-12.295 11.376c1.9902 1.7549 4.2793 1.0848 4.2793 1.0848l-0.10545 6.6994s4.9507-7.3798 7.8107-8.5371 6.6472-1.9218 6.946-4.3468-3.6181-12.105-3.6181-12.105l-2.6973-2.2368z" fill="#b3b3b3" fill-rule="evenodd"/>
    <path d="m962.97 666.16c-3.3179-5.3958-10.354-9.2526-14.763-9.4557-5.8786-0.27104-11.846 8.1064-13.37 16.635-2.0883 11.688 4.1768 24.27 4.1767 24.27 0.19408-0.10134 1.9998 9.3115 9.79 1.0435 11.185-11.871 16.183-18.556 16.053-26.612-0.0332-2.0631-0.78087-4.0819-1.8869-5.8806zm-9.4235-5.0468c4.7372 4.7555-1.1266 12.332-2.954 16.482-2.2489 5.1071-9.5718 18.848-9.5718 18.848l-1.2207 2.6496s-0.46453-0.85334-2.9078-10.556 0.16068-18.957 0.54123-19.484c3.4163-8.3251 10.157-13.77 16.113-7.9402z" fill="#ccc" fill-rule="evenodd"/>
    <path d="m935.26 685.77s-5.5911-4.0418-7.7509-6.127c-2.1596-2.0849-8.358-16.519-8.358-16.519l1.4208 8.3612-5.1962 0.30374s5.3744 10.542 7.8907 14.086c3.7125 5.2285 9.1043 4.6169 13.379 12.291 2.5645 4.6036 3.3142 7.3725 3.3142 7.3725s1.7535-8.9478-4.6998-19.768z" fill="#b3b3b3" fill-rule="evenodd"/>
    <path d="m950.11 712.58c0.29679-1.3251-0.34659-11.69-1.4618-13.825s-7.0172-3.5013-9.0344-1.2127 0.1894 10.773 1.4059 13.103c1.6154 1.7968 3.2583 3.3398 5.2785 4.9036 1.3591-0.70966 3.0888-1.0985 3.8117-2.9684z" fill="#e6e6e6" fill-rule="evenodd"/>
    <path d="m942.02 712.36s1.0404 7.9673 2.548 12.424 4.4706 13.57 6.3188 15.226 10.015 11.648 13.268 11.916-1.4702-9.7192-1.4702-9.7192-6.3673-3.7213-8.6417-7.4495-5.4868-16.47-5.4868-16.47l-5.6963-6.2018-0.83935 0.27539z" fill="#999" fill-rule="evenodd"/>
    <path d="m943.53 713.05 4.8394 5.5022s14.134 5.7284 15.254 6.6183c7.9907 3.3801 13.664 9.843 14.658 17.088 0 0 7.5177-4.7449 7.472-7.3427s-2.2313-8.6664-2.2313-8.6664-9.1396-4.9795-10.512-5.4102-21.1-6.8102-21.1-6.8102l-6.96-1.583-2.1102 0.0586 0.69013 0.54498z" fill="#999" fill-rule="evenodd"/>
    <path d="m988.69 730.15c-5.8877-9.7065-39.509-17.22-41.401-17.706s-5.5837-0.78905-5.3879-0.72768c0 0 0.97016 15.455 7.2614 25.934s19.888 20.601 29.94 17.15c11.555-3.966 15.476-14.944 9.5879-24.65zm-8.0141-4.521c2.3905 3.0694 6.2354 10.303-5.2778 14.658-7.1281 2.6963-20.278 3.4365-25.97-6.2083-5.6918-9.6452-6.4634-21.573-6.2675-21.512-3e-5 2e-5 24.928 7.0419 25.779 7.4171 0.85104 0.37458 8.7632 2.2566 11.736 5.645z" fill="#ccc" fill-rule="evenodd"/>
   </g>
  </g>
  <path d="m135.69 328.16c-15.677 5.6371 4.615 30.676-12.323 52.523-3.1308 4.0382 18.856 0.68126 26.629-21.696 7.559-21.762 0.36897-35.041-14.306-30.827z" fill="#fff" fill-rule="evenodd" stroke="#000" stroke-width="1.6292"/>
  <path d="m135.69 328.16c-15.677 5.6371 13.877 33.276-12.323 52.523-7.3726 5.416 18.856 0.68126 26.629-21.696 7.559-21.762 0.36897-35.041-14.306-30.827z" fill="url(#f)" fill-rule="evenodd" stroke="#000" stroke-width="1.6292"/>
  <path transform="matrix(.38523 -.03986 .03907 .34067 -198.82 179.62)" d="m740.5 312.03c-47.279 0.87507-97.24 30.113-117.81 85.094-6.8739 4.8578-14.349 10.741-18.25 20.562a5.1939 5.1939 0 0 0 -0.0313 0.0625c-2.9264 7.7413-4.1938 16.592-1.375 24.125 1.4094 3.7667 4.2483 7.3172 8.4375 8.9375s9.0834 1.262 14.406-0.6875a5.1939 5.1939 0 0 0 0.65625 -0.28125c37.037-19.769 70.303-18.929 97.875-10.969s49.231 23.2 61.969 32.531c4.1711 3.0573 9.8122 8.0627 17.75 9.7812h0.0625c0.057 0.0122 0.099 0.0506 0.15625 0.0625v-0.0313c6.2112 1.558 11.705 1.3061 16.156-0.7187 2.7852-1.267 4.9596-3.2252 6.6562-5.4688-1.6994 17.793 11.092 33.928 28.938 36.062 18.104 2.1652 34.678-10.828 36.844-28.938 2.1652-18.104-10.828-34.678-28.938-36.844-2.1095-0.25229-4.201-0.23698-6.25-0.0937-6.3261-19.444-12.681-38.633-18.312-59.438-8e-3 -0.0325-0.0231-0.0613-0.0313-0.0937-11.161-44.429-45.811-68.807-84.219-73-4.8482-0.52934-9.7496-0.74764-14.688-0.65625zm86.375 127.94c3.7991 5.1822 7.2109 10.541 9.5938 15.156-1.9016 1.9371-3.6408 4.0313-5.0312 6.4062 0.14951-4.9344-0.91943-9.7653-3.0938-13.906-0.35674-2.7962-0.8677-5.3665-1.4688-7.6562z"/>
  <g transform="matrix(.22107 5e-4 -.00397 .19586 35.678 233.44)">
   <path d="m113.86 288.39c162.59-145.81 306.26-2.9951 345.07 48.611 13.353 16.63 14.73 56.664-25.085 51.351-11.381-0.97306-21.218-7.4483-29.639-12.197-48.485-27.325-167.55-90.696-292.06-3.7962-30.354 15.423-37.278-16.724-31.142-41.538 5.0588-19.093 19.703-30.598 32.855-42.43z" fill="#e2e2e2" stroke="#d3d3d3" stroke-width="1.8369"/>
   <path d="m312.62 123.66c-86.896 0.8934-179.93 62.176-204.88 170.19 2.0421-1.823 4.0819-3.6276 6.0938-5.4375 162.59-145.81 306.28-3.0128 345.09 48.594 0.17461 0.21747 0.32955 0.46218 0.5 0.6875-5.1064-21.924-15.05-32.355-18.031-39.031-12.795-28.649 43.074 25.457 55.594 50.938l21.219-4.7188c-17.673-38.561-35.709-75.852-52.5-117.5-27.331-71.684-88.516-104.38-153.09-103.72z" fill="#e72f31"/>
   <path transform="matrix(1.1913 0 0 1.1913 -52.113 -35.79)" d="m529.11 349.51c0 22.683-18.388 41.071-41.071 41.071s-41.071-18.388-41.071-41.071 18.388-41.071 41.071-41.071 41.071 18.388 41.071 41.071z" fill="url(#g)" stroke="#d3d3d3" stroke-width="1.5419"/>
   <path d="m354.7 203.86c39.067 23.705 58.085 59.44 88.254 88.484l-0.75762 2.0203c-39.985-25.296-31.892-58.986-119.96-75.888-46.146-7.9338-28.765-20.775-8.1302-24.632 17.464-3.2017 26.974 1.8021 40.59 10.016z" fill="#d32a31"/>
   <path transform="translate(-115.04 -129.6)" d="m677.14 507.36c0 18.935-15.35 34.286-34.286 34.286s-34.286-15.35-34.286-34.286 15.35-34.286 34.286-34.286 34.286 15.35 34.286 34.286z" fill="#fff" filter="url(#l)"/>
   <path d="m258.53 247.28c-38.88 0.6861-82.016 15.31-129.56 57.938l-0.0313 0.0313c-13.83 12.441-23.067 20.421-26 31.125-1.3724 5.6648-1.0512 11.337-0.5625 15.375 66.122-44.903 132.99-51.603 187.97-42.625 55.856 9.1212 100.34 33.433 124.97 47.312a22.619 22.619 0 0 1 0.0313 0.0313c9.5163 5.3667 16.429 9.001 20.438 9.3438a22.619 22.619 0 0 1 1.0625 0.125c5.9209 0.79023 7.4426-0.14494 7.5-0.1875-1.2e-4 -0.0687-0.0256-0.0714 0.0937-0.53125 0.67852-2.6132-1.7588-12.361-3.125-14.062a22.619 22.619 0 0 1 -0.4375 -0.5625c-23.892-31.764-96.772-104.82-182.34-103.31z" fill="#fff" filter="url(#k)"/>
  </g>
 </g>
</svg>
