<?xml version="1.0" encoding="UTF-8" standalone="no"?>
<svg
   xmlns:dc="http://purl.org/dc/elements/1.1/"
   xmlns:cc="http://creativecommons.org/ns#"
   xmlns:rdf="http://www.w3.org/1999/02/22-rdf-syntax-ns#"
   xmlns:svg="http://www.w3.org/2000/svg"
   xmlns="http://www.w3.org/2000/svg"
   xmlns:xlink="http://www.w3.org/1999/xlink"
   xmlns:sodipodi="http://sodipodi.sourceforge.net/DTD/sodipodi-0.dtd"
   xmlns:inkscape="http://www.inkscape.org/namespaces/inkscape"
   version="1.1"
   viewBox="0 0 1511.811 907.08662"
   id="svg359"
   sodipodi:docname="penguin7.svg"
   width="400mm"
   height="240mm"
   inkscape:version="0.92.3 (2405546, 2018-03-11)">
  <metadata
     id="metadata363">
    <rdf:RDF>
      <cc:Work
         rdf:about="">
        <dc:format>image/svg+xml</dc:format>
        <dc:type
           rdf:resource="http://purl.org/dc/dcmitype/StillImage" />
        <dc:title></dc:title>
      </cc:Work>
    </rdf:RDF>
  </metadata>
  <sodipodi:namedview
     pagecolor="#ffffff"
     bordercolor="#666666"
     borderopacity="1"
     objecttolerance="10"
     gridtolerance="10"
     guidetolerance="10"
     inkscape:pageopacity="0"
     inkscape:pageshadow="2"
     inkscape:window-width="1920"
     inkscape:window-height="1052"
     id="namedview361"
     showgrid="false"
     showborder="true"
     units="mm"
     width="400mm"
     inkscape:zoom="0.32"
     inkscape:cx="-273.85257"
     inkscape:cy="343.87895"
     inkscape:window-x="0"
     inkscape:window-y="360"
     inkscape:window-maximized="1"
     inkscape:current-layer="svg359" />
  <defs
     id="defs193">
    <filter
       id="bx"
       style="color-interpolation-filters:sRGB">
      <feGaussianBlur
         stdDeviation="3.486"
         id="feGaussianBlur2" />
    </filter>
    <filter
       id="bz"
       style="color-interpolation-filters:sRGB">
      <feGaussianBlur
         stdDeviation="7.51"
         id="feGaussianBlur5" />
    </filter>
    <filter
       id="aw"
       style="color-interpolation-filters:sRGB">
      <feGaussianBlur
         stdDeviation="4.038"
         id="feGaussianBlur8" />
    </filter>
    <filter
       id="ax"
       style="color-interpolation-filters:sRGB">
      <feGaussianBlur
         stdDeviation="3.2747"
         id="feGaussianBlur11" />
    </filter>
    <filter
       id="ay"
       style="color-interpolation-filters:sRGB">
      <feGaussianBlur
         stdDeviation="2.458"
         id="feGaussianBlur14" />
    </filter>
    <filter
       id="cd"
       style="color-interpolation-filters:sRGB">
      <feGaussianBlur
         stdDeviation="2.2333"
         id="feGaussianBlur17" />
    </filter>
    <filter
       id="bw"
       x="-0.095140003"
       y="-0.16246"
       width="1.1903"
       height="1.3249"
       style="color-interpolation-filters:sRGB">
      <feGaussianBlur
         stdDeviation="11.0529"
         id="feGaussianBlur20" />
    </filter>
    <filter
       id="av"
       x="-0.088140003"
       y="-0.18791001"
       width="1.1763"
       height="1.3758"
       style="color-interpolation-filters:sRGB">
      <feGaussianBlur
         stdDeviation="12.5369"
         id="feGaussianBlur23" />
    </filter>
    <filter
       id="cc"
       x="-0.032729998"
       y="-0.36000001"
       width="1.0654"
       height="1.72"
       style="color-interpolation-filters:sRGB">
      <feGaussianBlur
         stdDeviation="10.9921"
         id="feGaussianBlur26" />
    </filter>
    <linearGradient
       id="c">
      <stop
         stop-color="#dfbe00"
         offset="0"
         id="stop29" />
      <stop
         stop-color="#deaf00"
         offset=".8"
         id="stop31" />
      <stop
         stop-color="#dea101"
         offset="1"
         id="stop33" />
    </linearGradient>
    <linearGradient
       id="a">
      <stop
         stop-color="#fff"
         offset="0"
         id="stop36" />
      <stop
         stop-color="#fff"
         stop-opacity="0"
         offset="1"
         id="stop38" />
    </linearGradient>
    <linearGradient
       id="ce"
       x1="516.66998"
       x2="516.91998"
       y1="917.33002"
       y2="941.08002"
       gradientTransform="matrix(0.83582251,0,0,0.83653195,340.85294,63.695162)"
       gradientUnits="userSpaceOnUse">
      <stop
         stop-color="#3c3c3c"
         offset="0"
         id="stop41" />
      <stop
         stop-color="#a0a0a0"
         stop-opacity="0"
         offset="1"
         id="stop43" />
    </linearGradient>
    <linearGradient
       id="cj"
       x2="0"
       y1="457.32001"
       y2="600.03003"
       gradientTransform="matrix(0.83582251,0,0,0.83653195,340.85294,63.695162)"
       gradientUnits="userSpaceOnUse">
      <stop
         stop-color="#fff"
         offset="0"
         id="stop46" />
      <stop
         stop-color="#bebebe"
         offset="1"
         id="stop48" />
    </linearGradient>
    <linearGradient
       id="ck"
       x2="0"
       y1="-9.6422005"
       y2="360.62"
       gradientUnits="userSpaceOnUse"
       xlink:href="#a" />
    <linearGradient
       id="az"
       x2="0"
       y1="806.09003"
       y2="888.87"
       gradientUnits="userSpaceOnUse"
       xlink:href="#a" />
    <linearGradient
       id="cf"
       x1="938.65002"
       x2="1242.6"
       y1="638.37"
       y2="401.17999"
       gradientTransform="matrix(-1,0,0,1,2282.825,166.78654)"
       gradientUnits="userSpaceOnUse"
       xlink:href="#a" />
    <linearGradient
       id="cg"
       x1="-85.350998"
       x2="218.62"
       y1="682.72998"
       y2="445.53"
       gradientTransform="translate(237.135,124.36654)"
       gradientUnits="userSpaceOnUse"
       xlink:href="#a" />
    <radialGradient
       id="bg"
       cx="510.07001"
       cy="418.72"
       r="90.912003"
       gradientTransform="matrix(0.83582251,-8.1801113e-8,6.5672246e-8,0.67216179,340.85294,132.51664)"
       gradientUnits="userSpaceOnUse"
       xlink:href="#c" />
    <radialGradient
       id="bh"
       cx="317.23001"
       cy="898.07001"
       r="170.67999"
       gradientTransform="matrix(0.83582251,0,0,0.39240041,340.85294,446.12411)"
       gradientUnits="userSpaceOnUse"
       xlink:href="#c" />
    <radialGradient
       id="bi"
       cx="712.56"
       cy="902.17999"
       r="170.67999"
       gradientTransform="matrix(0.83582251,0,0,0.39240041,340.85294,446.12411)"
       gradientUnits="userSpaceOnUse"
       xlink:href="#c" />
    <linearGradient
       id="bs"
       x1="694.89001"
       x2="1278.3"
       y1="-46.276001"
       y2="-46.276001"
       gradientTransform="matrix(0.9986,-0.0523,0.0523,0.9986,-7.1287,150.28)"
       gradientUnits="userSpaceOnUse">
      <stop
         stop-color="#9C420F"
         offset="0"
         id="stop58" />
      <stop
         stop-color="#EE6321"
         offset=".1576"
         id="stop60" />
      <stop
         stop-color="#EF6720"
         offset=".2028"
         id="stop62" />
      <stop
         stop-color="#F0751D"
         offset=".2526"
         id="stop64" />
      <stop
         stop-color="#F38B18"
         offset=".3045"
         id="stop66" />
      <stop
         stop-color="#F6AA11"
         offset=".3579"
         id="stop68" />
      <stop
         stop-color="#FBD108"
         offset=".412"
         id="stop70" />
      <stop
         stop-color="#FFF101"
         offset=".45"
         id="stop72" />
      <stop
         stop-color="#FFF101"
         offset=".55"
         id="stop74" />
      <stop
         stop-color="#FEEC02"
         offset=".5578"
         id="stop76" />
      <stop
         stop-color="#F9BB0D"
         offset=".6334"
         id="stop78" />
      <stop
         stop-color="#F49516"
         offset=".705"
         id="stop80" />
      <stop
         stop-color="#F1791C"
         offset=".7708"
         id="stop82" />
      <stop
         stop-color="#EF6920"
         offset=".8288"
         id="stop84" />
      <stop
         stop-color="#EE6321"
         offset=".8727"
         id="stop86" />
      <stop
         stop-color="#A1420E"
         offset="1"
         id="stop88" />
    </linearGradient>
    <linearGradient
       id="bt"
       x1="680.15002"
       x2="1288.4"
       y1="6.9566002"
       y2="6.9566002"
       gradientTransform="matrix(0.9986,-0.0523,0.0523,0.9986,-7.1287,150.28)"
       gradientUnits="userSpaceOnUse">
      <stop
         stop-color="#9C420F"
         offset="0"
         id="stop91" />
      <stop
         stop-color="#EE6321"
         offset=".1576"
         id="stop93" />
      <stop
         stop-color="#EF6720"
         offset=".2028"
         id="stop95" />
      <stop
         stop-color="#F0751D"
         offset=".2526"
         id="stop97" />
      <stop
         stop-color="#F38B18"
         offset=".3045"
         id="stop99" />
      <stop
         stop-color="#F6AA11"
         offset=".3579"
         id="stop101" />
      <stop
         stop-color="#FBD108"
         offset=".412"
         id="stop103" />
      <stop
         stop-color="#FFF101"
         offset=".45"
         id="stop105" />
      <stop
         stop-color="#FFF101"
         offset=".55"
         id="stop107" />
      <stop
         stop-color="#FEEC02"
         offset=".5578"
         id="stop109" />
      <stop
         stop-color="#F9BB0D"
         offset=".6334"
         id="stop111" />
      <stop
         stop-color="#F49516"
         offset=".705"
         id="stop113" />
      <stop
         stop-color="#F1791C"
         offset=".7708"
         id="stop115" />
      <stop
         stop-color="#EF6920"
         offset=".8288"
         id="stop117" />
      <stop
         stop-color="#EE6321"
         offset=".8727"
         id="stop119" />
      <stop
         stop-color="#A1420E"
         offset="1"
         id="stop121" />
    </linearGradient>
    <linearGradient
       id="b">
      <stop
         stop-opacity="0"
         offset="0"
         id="stop124" />
      <stop
         stop-opacity="0"
         offset=".5"
         id="stop126" />
      <stop
         stop-opacity=".37069"
         offset="1"
         id="stop128" />
    </linearGradient>
    <filter
       id="bu"
       x="-0.11576"
       y="-0.12456"
       width="1.2315"
       height="1.2491"
       style="color-interpolation-filters:sRGB">
      <feGaussianBlur
         stdDeviation="6.0922"
         id="feGaussianBlur131" />
    </filter>
    <filter
       id="bv"
       x="-0.11576"
       y="-0.12456"
       width="1.2315"
       height="1.2491"
       style="color-interpolation-filters:sRGB">
      <feGaussianBlur
         stdDeviation="6.0922"
         id="feGaussianBlur134" />
    </filter>
    <linearGradient
       id="ch"
       x1="-85.350998"
       x2="218.62"
       y1="682.72998"
       y2="445.53"
       gradientTransform="translate(1310.5,230.12)"
       gradientUnits="userSpaceOnUse">
      <stop
         stop-color="#fff"
         offset="0"
         id="stop137" />
      <stop
         stop-color="#fff"
         stop-opacity="0"
         offset="1"
         id="stop139" />
    </linearGradient>
    <filter
       id="ca"
       style="color-interpolation-filters:sRGB">
      <feGaussianBlur
         stdDeviation="4.038"
         id="feGaussianBlur142" />
    </filter>
    <filter
       id="cb"
       style="color-interpolation-filters:sRGB">
      <feGaussianBlur
         stdDeviation="3.2747"
         id="feGaussianBlur145" />
    </filter>
    <linearGradient
       id="ci"
       x1="437.25"
       x2="474.75"
       y1="208.28999"
       y2="268.07001"
       gradientTransform="matrix(0.83582251,0,0,0.83653195,1247.1353,-130.79852)"
       gradientUnits="userSpaceOnUse"
       xlink:href="#a" />
    <linearGradient
       id="cl"
       x1="560.16998"
       x2="529.28998"
       y1="366.22"
       y2="418.5"
       gradientTransform="translate(237.135,124.36654)"
       gradientUnits="userSpaceOnUse"
       xlink:href="#a" />
    <filter
       id="by"
       style="color-interpolation-filters:sRGB">
      <feGaussianBlur
         stdDeviation="3.486"
         id="feGaussianBlur150" />
    </filter>
    <radialGradient
       id="bj"
       cx="1619.9"
       cy="319.54001"
       r="89.638"
       gradientTransform="matrix(-0.75176,-0.93075,0.35943,-0.24791,2560.4,1691.3)"
       gradientUnits="userSpaceOnUse"
       xlink:href="#a" />
    <linearGradient
       id="cm"
       x1="437.25"
       x2="474.75"
       y1="208.28999"
       y2="268.07001"
       gradientTransform="translate(1035.7,-145.45)"
       gradientUnits="userSpaceOnUse"
       xlink:href="#a" />
    <radialGradient
       id="bk"
       cx="1619.9"
       cy="319.54001"
       r="89.638"
       gradientTransform="matrix(-0.75176,-0.93075,0.35943,-0.24791,2511.8,1778.3)"
       gradientUnits="userSpaceOnUse"
       xlink:href="#a" />
    <linearGradient
       id="bb"
       x1="479.59"
       x2="487.35001"
       y1="261.57999"
       y2="289.72"
       gradientTransform="translate(1035.7,-145.45)"
       gradientUnits="userSpaceOnUse"
       xlink:href="#a" />
    <linearGradient
       id="bc"
       x1="452.01001"
       x2="469.79001"
       y1="292.48999"
       y2="325.82999"
       gradientTransform="translate(1035.7,-145.45)"
       gradientUnits="userSpaceOnUse">
      <stop
         stop-color="#3c3c3c"
         offset="0"
         id="stop157" />
      <stop
         stop-color="#3c3c3c"
         stop-opacity="0"
         offset="1"
         id="stop159" />
    </linearGradient>
    <radialGradient
       id="bl"
       cx="515.85999"
       cy="519.23999"
       r="76.268997"
       gradientTransform="matrix(2.2584,10.086,-5.5578,0.96979,736.21,-5654.7)"
       gradientUnits="userSpaceOnUse"
       xlink:href="#b" />
    <linearGradient
       id="ba"
       x1="554.98999"
       x2="553.79999"
       y1="504.5"
       y2="388.14001"
       gradientUnits="userSpaceOnUse">
      <stop
         stop-opacity="0"
         offset="0"
         id="stop163" />
      <stop
         stop-opacity=".37069"
         offset="1"
         id="stop165" />
    </linearGradient>
    <radialGradient
       id="bm"
       cx="453.75"
       cy="542.71002"
       r="77.982002"
       gradientTransform="matrix(6.0897,-1.9352,1.019,2.4987,-4453.9,-339.16)"
       gradientUnits="userSpaceOnUse"
       xlink:href="#b" />
    <radialGradient
       id="bn"
       cx="515.85999"
       cy="519.23999"
       r="76.268997"
       gradientTransform="matrix(-2.2584,10.086,5.5578,0.96979,-2502.3,-5408.2)"
       gradientUnits="userSpaceOnUse"
       xlink:href="#b" />
    <radialGradient
       id="bo"
       cx="453.75"
       cy="542.71002"
       r="77.982002"
       gradientTransform="matrix(-6.0897,-1.9352,-1.019,2.4987,2687.8,-92.693)"
       gradientUnits="userSpaceOnUse"
       xlink:href="#b" />
    <radialGradient
       id="bp"
       cx="430.04001"
       cy="269.01999"
       r="77.137001"
       gradientTransform="matrix(1.2217,0,0,1.5467,-116.54,-134.53)"
       gradientUnits="userSpaceOnUse">
      <stop
         stop-color="#d2d2d2"
         offset="0"
         id="stop171" />
      <stop
         stop-color="#d2d2d2"
         offset=".88"
         id="stop173" />
      <stop
         stop-color="#808080"
         offset="1"
         id="stop175" />
    </radialGradient>
    <linearGradient
       id="bd"
       x1="437.25"
       x2="474.75"
       y1="208.28999"
       y2="268.07001"
       gradientUnits="userSpaceOnUse"
       xlink:href="#a" />
    <radialGradient
       id="bq"
       cx="1619.9"
       cy="319.54001"
       r="89.638"
       gradientTransform="matrix(-0.75176,-0.93075,0.35943,-0.24791,1476.1,1923.8)"
       gradientUnits="userSpaceOnUse"
       xlink:href="#a" />
    <linearGradient
       id="be"
       x1="479.59"
       x2="487.35001"
       y1="261.57999"
       y2="289.72"
       gradientUnits="userSpaceOnUse"
       xlink:href="#a" />
    <linearGradient
       id="bf"
       x1="452.01001"
       x2="469.79001"
       y1="292.48999"
       y2="325.82999"
       gradientUnits="userSpaceOnUse">
      <stop
         stop-color="#3c3c3c"
         offset="0"
         id="stop181" />
      <stop
         stop-color="#3c3c3c"
         stop-opacity="0"
         offset="1"
         id="stop183" />
    </linearGradient>
    <radialGradient
       id="br"
       cx="430.04001"
       cy="269.01999"
       r="77.137001"
       gradientTransform="matrix(1.2217,0,0,1.5467,919.18,-279.97)"
       gradientUnits="userSpaceOnUse">
      <stop
         stop-color="#d2d2d2"
         offset="0"
         id="stop186" />
      <stop
         stop-color="#d2d2d2"
         offset=".88"
         id="stop188" />
      <stop
         stop-color="#808080"
         offset="1"
         id="stop190" />
    </radialGradient>
    <linearGradient
       inkscape:collect="always"
       xlink:href="#ba"
       id="linearGradient365"
       gradientUnits="userSpaceOnUse"
       x1="554.98999"
       y1="504.5"
       x2="553.79999"
       y2="388.14001" />
    <linearGradient
       inkscape:collect="always"
       xlink:href="#ba"
       id="linearGradient367"
       gradientUnits="userSpaceOnUse"
       x1="554.98999"
       y1="504.5"
       x2="553.79999"
       y2="388.14001" />
    <linearGradient
       inkscape:collect="always"
       xlink:href="#a"
       id="linearGradient369"
       gradientUnits="userSpaceOnUse"
       y1="806.09003"
       x2="0"
       y2="888.87" />
  </defs>
  <g
     transform="matrix(0.70016016,0,0,0.75937025,864.62948,83.95597)"
     id="g233"
     style="fill-rule:evenodd">
    <g
       transform="matrix(-2.8956,0,0,2.5561,687.67,-1003.9)"
       id="g203">
      <path
         d="m 503.03,358.19 c -3.4203,0.2708 -6.1851,1.1414 -8.1562,2.5938 -1.94,1.4295 -3.6044,3.7677 -5.5625,6.875 -1.9581,3.1073 -4.1283,6.9967 -6.6562,11.531 -5.0559,9.0691 -11.52,20.647 -20.188,33.062 -22.527,31.244 -45.194,50.673 -85.953,73.734 49.358,-19.118 74.233,-51.656 89.234,-71.453 8.8018,-12.608 15.35,-24.306 20.406,-33.375 2.5279,-4.5345 4.668,-8.4182 6.5312,-11.375 1.8632,-2.9568 3.5123,-4.9762 4.5625,-5.75 2.0382,-1.5018 8.4571,-2.6727 17.156,-0.90625 8.6989,1.76645 19.745,6.1634 31.656,14.594 23.822,16.861 51.121,49.827 70.219,109.94 19.116,60.167 23.674,118.36 23.125,161.88 -0.27439,21.756 -1.8358,39.837 -3.4688,52.656 -0.81645,6.4094 -1.6389,11.504 -2.3438,15.062 -0.35244,1.7791 -0.6793,3.1652 -0.9375,4.125 -0.0741,0.27525 -0.12627,0.42728 -0.1875,0.625 -0.29416,-0.10576 -0.6069,-0.22961 -1.1562,-0.59375 -1.4531,-0.9632 -3.4376,-2.7955 -5.3438,-5.1875 -3.8122,-4.7839 -7.3691,-11.771 -7.6562,-18.375 -0.14313,-3.2917 0.21042,-14.979 0.0625,-31.25 -0.14792,-16.271 -0.82613,-37.299 -3.1562,-59.969 -1.5201,-15.708 -9.7176,-89.09 -45.5,-131.22 29.072,39.078 37.192,98.718 41.531,131.62 2.3126,22.499 2.9778,43.405 3.125,59.594 0.1472,16.189 -0.23415,27.458 -0.0625,31.406 0.34241,7.8754 4.317,15.368 8.5312,20.656 2.1071,2.6442 4.2604,4.7437 6.25,6.0625 0.9948,0.65941 1.9372,1.139 3,1.3438 1.0628,0.2048 2.5658,-0.0432 3.4062,-1.0938 0.43167,-0.53959 0.45417,-0.79796 0.59375,-1.1875 0.13958,-0.38954 0.29011,-0.82714 0.4375,-1.375 0.29478,-1.0957 0.60437,-2.5669 0.96875,-4.4062 0.72875,-3.6788 1.58,-8.8578 2.4062,-15.344 1.6524,-12.972 3.2236,-31.208 3.5,-53.125 0.55287,-43.835 -4.0272,-102.42 -23.312,-163.12 -19.303,-60.758 -47.067,-94.521 -71.719,-111.97 -12.326,-8.7241 -23.867,-13.357 -33.188,-15.25 -4.6604,-0.94633 -8.736,-1.302 -12.156,-1.0312 z"
         id="path195"
         inkscape:connector-curvature="0" />
      <path
         d="m 570.51,523.09 c 14.389,25.997 18.658,58.831 21.928,81.065 1.4871,11.858 2.2508,22.399 2.7812,30.719 0.5304,8.32 0.7701,14.247 1.5,17.531 1.4088,6.3394 6.0016,12.47 10.25,16.469 2.1242,1.9992 4.0737,3.4598 6,4.125 0.96313,0.33259 2.1592,0.59403 3.3438,-0.1875 1.1846,-0.78153 1.4586,-2.2581 1.3438,-3.4062 -0.0938,-0.93115 -0.82081,-1.6727 -1.7499,-1.7851 -0.92909,-0.1124 -1.8119,0.43448 -2.1251,1.3164 -0.92904,-0.45067 -2.4249,-1.4275 -4.0625,-2.9688 -3.778,-3.5558 -7.9844,-9.4143 -9.0938,-14.406 -0.52914,-2.3811 -0.90562,-8.5948 -1.4375,-16.938 -0.53188,-8.3432 -1.2782,-18.984 -2.7812,-30.969 -0.77985,-6.3172 -6.7464,-59.118 -25.897,-80.565 z"
         id="path197"
         inkscape:connector-curvature="0" />
      <path
         d="m 550.33,526.96 c 8.8185,14.965 13.752,31.553 18.136,47.7 3.1936,12.852 4.2794,22.742 5.5938,28.656 1.43,6.4352 6.5345,12.696 11.438,16.5 2.4515,1.902 4.7714,3.2736 7.2188,3.4062 1.2237,0.0663 2.638,-0.32002 3.5625,-1.3438 0.9245,-1.02378 1.25,-2.3946 1.25,-3.875 0.0102,-0.72127 -0.36875,-1.3922 -0.99175,-1.7558 -0.623,-0.3636 -1.3935,-0.36361 -2.0165,0 -0.623,0.36361 -1.002,1.0345 -0.99175,1.7558 0,0.88035 -0.20389,1.171 -0.21875,1.1875 -0.0149,0.0165 0.0341,0.0534 -0.375,0.0312 -0.8183,-0.0444 -2.8875,-0.92347 -5,-2.5625 -4.2251,-3.2781 -8.8807,-9.3225 -9.9688,-14.219 -1.2037,-5.4169 -2.3348,-15.635 -5.5938,-28.75 -1.6333,-5.9499 -8.5109,-31.172 -22.042,-46.731 z"
         id="path199"
         inkscape:connector-curvature="0" />
      <path
         d="m 507.28,422.06 c -4.6965,52.885 13.284,88.928 25.406,112.97 4.7039,8.9374 9.6478,18.973 13.688,27.562 4.0402,8.589 7.2029,15.828 8.2188,18.875 2.4021,7.2063 7.5228,11.466 12.125,12.781 2.3011,0.65746 4.6251,0.67192 6.4375,-0.625 1.8124,-1.29692 2.4066,-3.8973 1.625,-6.4375 -0.32792,-1.0614 -1.4542,-1.656 -2.5156,-1.3281 -1.0614,0.3279 -1.656,1.4542 -1.3281,2.5156 0.47744,1.5517 0.20694,1.7625 -0.125,2 -0.33194,0.2375 -1.4453,0.47545 -3,0.0312 -3.1094,-0.8884 -7.4017,-4.1738 -9.4062,-10.188 -1.1875,-3.5625 -4.3408,-10.7 -8.4062,-19.344 -4.0654,-8.644 -9.0423,-18.684 -13.781,-27.688 -2.537,-5.7744 -26.468,-45.887 -28.938,-111.12 z"
         id="path201"
         inkscape:connector-curvature="0" />
    </g>
    <g
       transform="matrix(-2.8956,0,0,2.5561,687.67,-1003.9)"
       id="g225">
      <path
         d="m 493.79,489.36 c 4.154,22.968 10.416,41.909 20.554,60.238 6.1035,9.8251 12.141,15.426 17.25,18.125 2.5545,1.3497 4.882,1.961 6.9375,1.9375 2.0555,-0.0235 3.9723,-0.78345 5.0312,-2.375 1.1265,-1.6932 1.1028,-3.6122 0.9375,-5.8438 -0.1653,-2.2316 -0.64693,-4.7744 -1.2812,-7.4688 -1.2686,-5.3886 -3.1694,-11.319 -4.5312,-15.562 -0.33655,-1.0528 -1.4628,-1.6334 -2.5156,-1.2969 -1.0528,0.3365 -1.6334,1.4628 -1.2969,2.5156 1.3618,4.2431 3.2553,10.096 4.4688,15.25 0.60673,2.5771 1.0172,4.9978 1.1562,6.875 0.139,1.8772 -0.19138,3.1774 -0.28125,3.3125 -0.15748,0.2367 -0.56287,0.58054 -1.7188,0.59375 -1.1559,0.0132 -2.9173,-0.38308 -5.0312,-1.5 -4.2279,-2.2338 -9.8846,-7.2959 -15.719,-16.688 -9.4882,-18.741 -15.135,-31.691 -23.961,-58.113 z"
         id="path205"
         inkscape:connector-curvature="0" />
      <path
         d="m 483.58,515.28 c 4.381,19.473 12.943,36.275 21.073,51.935 4.9698,8.3179 9.9638,13.109 14.25,15.469 2.1431,1.1798 4.0883,1.7747 5.875,1.7812 1.7867,0.007 3.5245,-0.66766 4.5,-2.0938 1.0443,-1.5266 1.0172,-3.1684 0.90625,-5.0625 -0.11095,-1.8941 -0.47349,-4.045 -0.96875,-6.3125 -0.99052,-4.535 -2.4842,-9.5018 -3.5625,-13.062 -0.31929,-1.0614 -1.4386,-1.663 -2.5,-1.3438 -1.0614,0.3192 -1.663,1.4386 -1.3438,2.5 1.0783,3.5607 2.5606,8.4492 3.5,12.75 0.46968,2.1504 0.81599,4.1465 0.90625,5.6875 0.0903,1.541 -0.22913,2.6089 -0.21875,2.5938 -0.0584,0.0854 -0.30491,0.34701 -1.1875,0.34375 -0.88259,-0.003 -2.2945,-0.34233 -4,-1.2812 -3.411,-1.8778 -8.01,-6.1504 -12.719,-14.031 -3.8261,-5.2724 -16.817,-30.204 -24.51,-49.873 z"
         id="path207"
         inkscape:connector-curvature="0" />
      <path
         d="m 478.73,534.76 c 3.149,23.416 8.867,36.118 13.24,44.8 4.0997,7.7348 8.3748,12.282 12.156,14.625 1.8907,1.1716 3.663,1.8183 5.3125,1.9062 1.6495,0.0879 3.2959,-0.44474 4.2812,-1.75 1.0586,-1.4024 1.11,-2.9288 1.0938,-4.6562 -0.0163,-1.7275 -0.24869,-3.68 -0.59375,-5.75 -0.69012,-4.1399 -1.8465,-8.6823 -2.6562,-11.938 -0.13964,-0.7278 -0.67022,-1.3187 -1.3788,-1.5357 -0.70858,-0.217 -1.4791,-0.0243 -2.0022,0.50056 -0.52315,0.52489 -0.71322,1.296 -0.49394,2.0039 0.80976,3.2552 1.9116,7.7204 2.5625,11.625 0.32544,1.9523 0.54953,3.7494 0.5625,5.125 0.013,1.3756 -0.34684,2.3056 -0.28125,2.2188 -0.008,0.0102 -0.13279,0.19582 -0.875,0.15625 -0.74221,-0.0396 -1.9723,-0.37333 -3.4375,-1.2812 -2.9304,-1.8158 -6.8568,-5.8387 -10.719,-13.125 -2.0572,-2.8499 -8.5431,-15.288 -16.771,-42.925 z"
         id="path209"
         inkscape:connector-curvature="0" />
      <path
         d="m 472.06,550.29 c 0.74287,7.4761 1.9232,13.861 3.3109,19.35 2.4956,9.8706 5.6621,16.842 8.1623,22.042 3.2834,6.7407 6.7804,10.794 9.9688,12.938 1.5942,1.0719 3.0999,1.6869 4.5625,1.8125 1.4626,0.1256 3.0032,-0.31438 3.9375,-1.5 1.0097,-1.2813 1.0679,-2.596 1.0938,-4.0938 0.0259,-1.4977 -0.13101,-3.2166 -0.375,-5 -0.48798,-3.5669 -1.3311,-7.4816 -1.9375,-10.281 -0.24162,-1.0873 -1.3189,-1.7729 -2.4062,-1.5312 -1.0873,0.2417 -1.7729,1.3189 -1.5312,2.4062 0.60643,2.7997 1.4501,6.6344 1.9062,9.9688 0.22808,1.6672 0.36363,3.1923 0.34375,4.3438 -0.0199,1.1514 -0.36444,1.9036 -0.21875,1.7188 0.0703,-0.0892 0.0749,0.0154 -0.46875,-0.0312 -0.5436,-0.0467 -1.5097,-0.33309 -2.6875,-1.125 -2.3555,-1.5838 -5.5297,-5.0847 -8.5938,-11.375 -2.3589,-3.1684 -9.604,-19.128 -15.067,-39.643 z"
         id="path211"
         inkscape:connector-curvature="0" />
      <path
         d="m 439.16,598.66 c 1.7988,8.1293 4.5351,13.411 7.375,16.531 1.42,1.5602 2.8497,2.5849 4.3438,3.0938 1.4941,0.5089 3.2205,0.45342 4.4688,-0.53125 1.3447,-1.0607 1.7182,-2.4695 2.125,-4.0625 0.4068,-1.593 0.68115,-3.4518 0.875,-5.4375 0.3877,-3.9714 0.46629,-8.4064 0.53125,-11.594 0.0259,-1.1046 -0.84856,-2.021 -1.9531,-2.0469 -1.1046,-0.0259 -2.021,0.84856 -2.0469,1.9531 -0.065,3.1873 -0.16624,7.5736 -0.53125,11.312 -0.1825,1.8695 -0.42871,3.5857 -0.75,4.8438 -0.32129,1.2581 -0.88405,1.9807 -0.75,1.875 0.0376,-0.0297 -0.0357,0.1176 -0.65625,-0.0937 -0.62052,-0.21135 -1.6338,-0.83913 -2.7188,-2.0312 -2.17,-2.3842 -4.7147,-7.043 -6.4062,-14.688 -1.5168,-7.1654 -3.7234,-29.417 -2.9191,-45.556 -4.9669,14.267 -2.3138,37.168 -0.98715,46.431 z"
         id="path213"
         inkscape:connector-curvature="0" />
      <path
         d="m 424.31,542.56 c -5.5158,20.036 -3.4308,42.778 -2.9688,51.094 0.99363,8.7091 3.2596,14.522 5.875,18.094 1.3077,1.7861 2.7032,3.0244 4.1875,3.7188 1.4843,0.6944 3.2094,0.80466 4.5938,-0.0625 1.4891,-0.93274 2.0586,-2.3239 2.6562,-3.9375 0.5976,-1.6136 1.0803,-3.5081 1.5,-5.5625 0.83942,-4.1088 1.427,-8.763 1.8438,-12.094 0.0984,-0.71346 -0.19429,-1.4248 -0.7664,-1.8623 -0.57211,-0.4375 -1.3352,-0.53365 -1.998,-0.25172 -0.6628,0.28193 -1.1228,0.8984 -1.2044,1.614 -0.4167,3.3308 -1.0199,7.9018 -1.8125,11.781 -0.39629,1.9398 -0.83541,3.7118 -1.3125,5 -0.47709,1.2882 -1.1476,2.0104 -1.0312,1.9375 0.0116,-0.007 -0.12905,0.11761 -0.78125,-0.1875 -0.6522,-0.30511 -1.6408,-1.0818 -2.6562,-2.4688 -2.031,-2.774 -4.1876,-7.9708 -5.125,-16.188 -1.2913,-8.9937 -1.7569,-36.404 -1,-50.625 z"
         id="path215"
         inkscape:connector-curvature="0" />
      <path
         d="m 410.37,538.56 c -8.2119,16.17 -7.738,38.062 -7.9955,45.498 0.0819,9.1141 1.8084,15.368 4.125,19.344 1.1583,1.9879 2.4605,3.4363 3.9062,4.3125 1.4457,0.8762 3.2144,1.1923 4.7188,0.46875 1.6159,-0.77718 2.3614,-2.1546 3.1562,-3.75 0.7948,-1.5954 1.4963,-3.5188 2.1562,-5.5938 1.32,-4.15 2.4219,-8.8838 3.2188,-12.281 0.25025,-1.0787 -0.42132,-2.156 -1.5,-2.4062 -1.07868,-0.2502 -2.156,0.42132 -2.4062,1.5 -0.79681,3.3975 -1.8765,8.0434 -3.125,11.969 -0.62427,1.9627 -1.2985,3.7488 -1.9375,5.0312 -0.639,1.2824 -1.4076,1.952 -1.3125,1.9062 -0.0165,0.008 -0.20909,0.12235 -0.875,-0.28125 -0.66591,-0.4036 -1.6212,-1.3131 -2.5312,-2.875 -1.8202,-3.1237 -3.5163,-8.7586 -3.5938,-17.375 -0.39493,-8.8187 0.35181,-28.548 3.9955,-45.466 z"
         id="path217"
         inkscape:connector-curvature="0" />
      <path
         d="m 463.46,558.1 c -0.52941,16.705 3.4929,26.524 7.6377,39.06 2.6002,6.6164 5.5143,10.709 8.2812,12.969 1.3835,1.1297 2.7206,1.8126 4.0938,2.0312 1.3732,0.2186 2.919,-0.15941 3.8438,-1.2812 1.002,-1.2156 1.0944,-2.4528 1.1875,-3.875 0.0931,-1.4222 0.008,-3.0375 -0.125,-4.75 -0.26571,-3.4251 -0.81152,-7.2026 -1.2188,-9.9062 -0.16396,-1.0959 -1.1853,-1.8515 -2.2812,-1.6875 -1.0959,0.164 -1.8515,1.1853 -1.6875,2.2812 0.40723,2.7037 0.96995,6.4179 1.2188,9.625 0.1244,1.6036 0.16576,3.088 0.0937,4.1875 -0.072,1.0996 -0.43279,1.7843 -0.25,1.5625 0.10551,-0.12801 0.24504,-0.0299 -0.15625,-0.0937 -0.40129,-0.0639 -1.1957,-0.40887 -2.1875,-1.2188 -1.9836,-1.6198 -4.6667,-5.1053 -7.0938,-11.281 -2.5306,-4.4428 -7.4567,-18.747 -11.356,-37.623 z"
         id="path219"
         inkscape:connector-curvature="0" />
      <path
         d="m 452.94,558.78 c -2.4322,15.856 2.9508,35.585 4.375,41.75 1.9805,6.8276 4.5152,11.152 7.0625,13.656 1.2737,1.2522 2.559,2.0622 3.9062,2.4062 1.3472,0.344 2.9135,0.12575 3.9375,-0.90625 1.1096,-1.1182 1.2764,-2.3424 1.5,-3.75 0.2236,-1.4076 0.3185,-3.0325 0.34375,-4.75 0.0505,-3.435 -0.15571,-7.2391 -0.3125,-9.9688 -0.0604,-1.1046 -1.0048,-1.951 -2.1094,-1.8906 -1.1046,0.0604 -1.951,1.0048 -1.8906,2.1094 0.15679,2.7297 0.35978,6.4711 0.3125,9.6875 -0.0236,1.6082 -0.10839,3.0992 -0.28125,4.1875 -0.17286,1.0883 -0.60867,1.7665 -0.40625,1.5625 0.11684,-0.11776 0.26871,-0.0557 -0.125,-0.15625 -0.39371,-0.10054 -1.1494,-0.47732 -2.0625,-1.375 -1.8261,-1.7954 -4.1826,-5.5332 -6.0312,-11.906 -1.8953,-4.5051 -6.0559,-23.635 -8.2188,-40.656 z"
         id="path221"
         inkscape:connector-curvature="0" />
      <path
         d="m 388.75,542.28 c -3.8162,11.383 -3.4497,24.433 -3.9375,30.719 -0.72905,9.0853 0.45242,15.459 2.4062,19.625 0.97691,2.083 2.1379,3.6236 3.5,4.625 1.3621,1.0014 3.0623,1.4931 4.625,0.90625 1.6786,-0.63038 2.5351,-1.9504 3.4688,-3.4688 0.9337,-1.5184 1.8143,-3.3669 2.6562,-5.375 1.6839,-4.0161 3.2167,-8.6244 4.3125,-11.938 0.28306,-0.68889 0.15992,-1.478 -0.31956,-2.0479 -0.47948,-0.5699 -1.2359,-0.82621 -1.963,-0.66517 -0.7271,0.16104 -1.3046,0.71276 -1.4986,1.4318 -1.0958,3.3131 -2.626,7.8887 -4.2188,11.688 -0.79636,1.8994 -1.6245,3.5919 -2.375,4.8125 -0.7505,1.2206 -1.5675,1.8496 -1.4688,1.8125 -0.0172,0.006 -0.21637,0.0862 -0.84375,-0.375 -0.62738,-0.46123 -1.5137,-1.4571 -2.2812,-3.0938 -1.5351,-3.2732 -2.7228,-10.596 -2.9962,-19.119 -0.16592,-5.1732 0.50926,-17.055 0.93366,-29.537 z"
         id="path223"
         inkscape:connector-curvature="0" />
    </g>
    <path
       d="m -1095.1,707.69 c 1.8229,-16.091 0,35.401 -1.8228,72.411 -1.8229,37.01 -43.748,74.02 -51.04,65.974 -7.2913,-8.0457 -65.622,-296.08 45.571,-605.03 111.19,-308.95 319,-341.14 353.63,-318.61 34.634,22.528 -41.014,23.332 -32.811,157.69 8.2028,134.36 -53.817,239.99 -78.382,281.2 -27.343,45.86 -57.419,102.58 -63.799,119.48 -12.76,33.792 -54.685,38.619 -47.394,17.7 7.291,-20.919 -1.8229,9.6548 -9.1142,38.619 -7.2914,28.964 -56.508,62.756 -56.508,38.619 0,-24.137 -1.8228,57.929 -9.1142,86.893 -7.2914,28.964 -51.039,61.147 -49.217,45.056 z"
       id="path227"
       inkscape:connector-curvature="0"
       style="fill:url(#bn)" />
    <path
       transform="matrix(-2.8956,0,0,2.5561,844.03,-1003.9)"
       d="m 436.52,514.92 c -10.105,-6.2898 35.974,-26.357 66.415,-56.027 30.597,-29.823 46.585,-62.952 52.565,-61.064 5.98,1.888 2.8328,24.551 2.8328,44.381 10e-6,19.579 4.0919,36.827 2.8328,43.752 -1.2591,6.925 -30.847,1.8886 -53.509,6.2952 -22.662,4.4066 -67.063,25.198 -71.136,22.663 z"
       id="path229"
       inkscape:connector-curvature="0"
       style="fill:url(#linearGradient365);filter:url(#bu)" />
    <path
       d="m -866.65,373.9 c -7.8866,21.692 -21.84,60.07 -14.795,69.416 7.0443,9.3465 40.31,4.0138 74.877,-45.106 34.567,-49.12 59.562,-148.29 59.562,-148.29 M -828.85,423.7 c -6.2444,18.203 -17.292,50.408 -11.305,58.135 5.987,7.727 33.557,2.9032 61.582,-38.503 28.025,-41.406 60.97,-127.37 60.97,-127.37 m -70.421,143.43 c -4.6894,16.641 -12.986,46.084 -7.2352,52.809 5.751,6.7251 30.218,1.2985 53.272,-37.097 23.054,-38.396 48.296,-117.12 48.296,-117.12 m -62.999,135.97 c -3.512,14.313 -9.7255,39.635 -4.722,45.24 5.0036,5.605 25.417,0.4007 43.797,-32.908 18.38,-33.309 37.563,-101.09 37.563,-101.09 m 44.806,115.86 c 0.37616,16.294 1.0417,45.123 8.0526,50.005 7.0109,4.8822 27.465,-5.5397 37.572,-45.859 10.106,-40.32 11.071,-118.08 11.071,-118.08 m -7.8506,106.14 c 2.4132,17.028 6.6828,47.154 14.633,51.55 7.95,4.396 28.087,-8.613 33.679,-51.877 5.592,-43.264 -3.0347,-124.81 -3.0347,-124.81 m 7.6982,106.08 c 4.6144,17.369 12.778,48.098 21.586,51.837 8.8072,3.7394 28.13,-11.764 28.591,-57.085 0.46138,-45.321 -13.122,-120.75 -13.122,-120.75 m -220.8,142.71 c -2.3584,13.822 -6.5309,38.276 -1.7868,43.357 4.7441,5.081 22.605,-0.94188 37.162,-33.641 14.557,-32.699 27.992,-98.287 27.992,-98.287 m -24.511,100.55 c -0.90802,13.955 -2.5145,38.644 2.7389,43.318 5.2534,4.6738 22.411,-2.7736 33.498,-36.516 11.087,-33.7424 17.631,-100.14 17.631,-100.14 m 142.63,40.715 c 6.3461,16.937 17.574,46.904 26.723,49.937 9.149,3.033 26.833,-13.926 22.726,-59.104 -4.1068,-45.178 -5.9746,-73.727 -5.9746,-73.727"
       id="path231"
       inkscape:connector-curvature="0"
       style="fill:url(#bo)" />
  </g>
  <g
     transform="matrix(0.70016016,0,0,0.75937025,1899.0685,269.69116)"
     id="g273"
     style="fill-rule:evenodd">
    <g
       transform="matrix(2.8956,0,0,2.5561,-2453.7,-1250.4)"
       id="g243">
      <path
         d="m 503.03,358.19 c -3.4203,0.2708 -6.1851,1.1414 -8.1562,2.5938 -1.94,1.4295 -3.6044,3.7677 -5.5625,6.875 -1.9581,3.1073 -4.1283,6.9967 -6.6562,11.531 -5.0559,9.0691 -11.52,20.647 -20.188,33.062 -22.527,31.244 -45.194,50.673 -85.953,73.734 49.358,-19.118 74.233,-51.656 89.234,-71.453 8.8018,-12.608 15.35,-24.306 20.406,-33.375 2.5279,-4.5345 4.668,-8.4182 6.5312,-11.375 1.8632,-2.9568 3.5123,-4.9762 4.5625,-5.75 2.0382,-1.5018 8.4571,-2.6727 17.156,-0.90625 8.6989,1.76645 19.745,6.1634 31.656,14.594 23.822,16.861 51.121,49.827 70.219,109.94 19.116,60.167 23.674,118.36 23.125,161.88 -0.27439,21.756 -1.8358,39.837 -3.4688,52.656 -0.81645,6.4094 -1.6389,11.504 -2.3438,15.062 -0.35244,1.7791 -0.6793,3.1652 -0.9375,4.125 -0.0741,0.27525 -0.12627,0.42728 -0.1875,0.625 -0.29416,-0.10576 -0.6069,-0.22961 -1.1562,-0.59375 -1.4531,-0.9632 -3.4376,-2.7955 -5.3438,-5.1875 -3.8122,-4.7839 -7.3691,-11.771 -7.6562,-18.375 -0.14313,-3.2917 0.21042,-14.979 0.0625,-31.25 -0.14792,-16.271 -0.82613,-37.299 -3.1562,-59.969 -1.5201,-15.708 -9.7176,-89.09 -45.5,-131.22 29.072,39.078 37.192,98.718 41.531,131.62 2.3126,22.499 2.9778,43.405 3.125,59.594 0.1472,16.189 -0.23415,27.458 -0.0625,31.406 0.34241,7.8754 4.317,15.368 8.5312,20.656 2.1071,2.6442 4.2604,4.7437 6.25,6.0625 0.9948,0.65941 1.9372,1.139 3,1.3438 1.0628,0.2048 2.5658,-0.0432 3.4062,-1.0938 0.43167,-0.53959 0.45417,-0.79796 0.59375,-1.1875 0.13958,-0.38954 0.29011,-0.82714 0.4375,-1.375 0.29478,-1.0957 0.60437,-2.5669 0.96875,-4.4062 0.72875,-3.6788 1.58,-8.8578 2.4062,-15.344 1.6524,-12.972 3.2236,-31.208 3.5,-53.125 0.55287,-43.835 -4.0272,-102.42 -23.312,-163.12 -19.303,-60.758 -47.067,-94.521 -71.719,-111.97 -12.326,-8.7241 -23.867,-13.357 -33.188,-15.25 -4.6604,-0.94633 -8.736,-1.302 -12.156,-1.0312 z"
         id="path235"
         inkscape:connector-curvature="0" />
      <path
         d="m 570.51,523.09 c 14.389,25.997 18.658,58.831 21.928,81.065 1.4871,11.858 2.2508,22.399 2.7812,30.719 0.5304,8.32 0.7701,14.247 1.5,17.531 1.4088,6.3394 6.0016,12.47 10.25,16.469 2.1242,1.9992 4.0737,3.4598 6,4.125 0.96313,0.33259 2.1592,0.59403 3.3438,-0.1875 1.1846,-0.78153 1.4586,-2.2581 1.3438,-3.4062 -0.0938,-0.93115 -0.82081,-1.6727 -1.7499,-1.7851 -0.92909,-0.1124 -1.8119,0.43448 -2.1251,1.3164 -0.92904,-0.45067 -2.4249,-1.4275 -4.0625,-2.9688 -3.778,-3.5558 -7.9844,-9.4143 -9.0938,-14.406 -0.52914,-2.3811 -0.90562,-8.5948 -1.4375,-16.938 -0.53188,-8.3432 -1.2782,-18.984 -2.7812,-30.969 -0.77985,-6.3172 -6.7464,-59.118 -25.897,-80.565 z"
         id="path237"
         inkscape:connector-curvature="0" />
      <path
         d="m 550.33,526.96 c 8.8185,14.965 13.752,31.553 18.136,47.7 3.1936,12.852 4.2794,22.742 5.5938,28.656 1.43,6.4352 6.5345,12.696 11.438,16.5 2.4515,1.902 4.7714,3.2736 7.2188,3.4062 1.2237,0.0663 2.638,-0.32002 3.5625,-1.3438 0.9245,-1.02378 1.25,-2.3946 1.25,-3.875 0.0102,-0.72127 -0.36875,-1.3922 -0.99175,-1.7558 -0.623,-0.3636 -1.3935,-0.36361 -2.0165,0 -0.623,0.36361 -1.002,1.0345 -0.99175,1.7558 0,0.88035 -0.20389,1.171 -0.21875,1.1875 -0.0149,0.0165 0.0341,0.0534 -0.375,0.0312 -0.8183,-0.0444 -2.8875,-0.92347 -5,-2.5625 -4.2251,-3.2781 -8.8807,-9.3225 -9.9688,-14.219 -1.2037,-5.4169 -2.3348,-15.635 -5.5938,-28.75 -1.6333,-5.9499 -8.5109,-31.172 -22.042,-46.731 z"
         id="path239"
         inkscape:connector-curvature="0" />
      <path
         d="m 507.28,422.06 c -4.6965,52.885 13.284,88.928 25.406,112.97 4.7039,8.9374 9.6478,18.973 13.688,27.562 4.0402,8.589 7.2029,15.828 8.2188,18.875 2.4021,7.2063 7.5228,11.466 12.125,12.781 2.3011,0.65746 4.6251,0.67192 6.4375,-0.625 1.8124,-1.29692 2.4066,-3.8973 1.625,-6.4375 -0.32792,-1.0614 -1.4542,-1.656 -2.5156,-1.3281 -1.0614,0.3279 -1.656,1.4542 -1.3281,2.5156 0.47744,1.5517 0.20694,1.7625 -0.125,2 -0.33194,0.2375 -1.4453,0.47545 -3,0.0312 -3.1094,-0.8884 -7.4017,-4.1738 -9.4062,-10.188 -1.1875,-3.5625 -4.3408,-10.7 -8.4062,-19.344 -4.0654,-8.644 -9.0423,-18.684 -13.781,-27.688 -2.537,-5.7744 -26.468,-45.887 -28.938,-111.12 z"
         id="path241"
         inkscape:connector-curvature="0" />
    </g>
    <g
       transform="matrix(2.8956,0,0,2.5561,-2453.7,-1250.4)"
       id="g265">
      <path
         d="m 493.79,489.36 c 4.154,22.968 10.416,41.909 20.554,60.238 6.1035,9.8251 12.141,15.426 17.25,18.125 2.5545,1.3497 4.882,1.961 6.9375,1.9375 2.0555,-0.0235 3.9723,-0.78345 5.0312,-2.375 1.1265,-1.6932 1.1028,-3.6122 0.9375,-5.8438 -0.1653,-2.2316 -0.64693,-4.7744 -1.2812,-7.4688 -1.2686,-5.3886 -3.1694,-11.319 -4.5312,-15.562 -0.33655,-1.0528 -1.4628,-1.6334 -2.5156,-1.2969 -1.0528,0.3365 -1.6334,1.4628 -1.2969,2.5156 1.3618,4.2431 3.2553,10.096 4.4688,15.25 0.60673,2.5771 1.0172,4.9978 1.1562,6.875 0.139,1.8772 -0.19138,3.1774 -0.28125,3.3125 -0.15748,0.2367 -0.56287,0.58054 -1.7188,0.59375 -1.1559,0.0132 -2.9173,-0.38308 -5.0312,-1.5 -4.2279,-2.2338 -9.8846,-7.2959 -15.719,-16.688 -9.4882,-18.741 -15.135,-31.691 -23.961,-58.113 z"
         id="path245"
         inkscape:connector-curvature="0" />
      <path
         d="m 483.58,515.28 c 4.381,19.473 12.943,36.275 21.073,51.935 4.9698,8.3179 9.9638,13.109 14.25,15.469 2.1431,1.1798 4.0883,1.7747 5.875,1.7812 1.7867,0.007 3.5245,-0.66766 4.5,-2.0938 1.0443,-1.5266 1.0172,-3.1684 0.90625,-5.0625 -0.11095,-1.8941 -0.47349,-4.045 -0.96875,-6.3125 -0.99052,-4.535 -2.4842,-9.5018 -3.5625,-13.062 -0.31929,-1.0614 -1.4386,-1.663 -2.5,-1.3438 -1.0614,0.3192 -1.663,1.4386 -1.3438,2.5 1.0783,3.5607 2.5606,8.4492 3.5,12.75 0.46968,2.1504 0.81599,4.1465 0.90625,5.6875 0.0903,1.541 -0.22913,2.6089 -0.21875,2.5938 -0.0584,0.0854 -0.30491,0.34701 -1.1875,0.34375 -0.88259,-0.003 -2.2945,-0.34233 -4,-1.2812 -3.411,-1.8778 -8.01,-6.1504 -12.719,-14.031 -3.8261,-5.2724 -16.817,-30.204 -24.51,-49.873 z"
         id="path247"
         inkscape:connector-curvature="0" />
      <path
         d="m 478.73,534.76 c 3.149,23.416 8.867,36.118 13.24,44.8 4.0997,7.7348 8.3748,12.282 12.156,14.625 1.8907,1.1716 3.663,1.8183 5.3125,1.9062 1.6495,0.0879 3.2959,-0.44474 4.2812,-1.75 1.0586,-1.4024 1.11,-2.9288 1.0938,-4.6562 -0.0163,-1.7275 -0.24869,-3.68 -0.59375,-5.75 -0.69012,-4.1399 -1.8465,-8.6823 -2.6562,-11.938 -0.13964,-0.7278 -0.67022,-1.3187 -1.3788,-1.5357 -0.70858,-0.217 -1.4791,-0.0243 -2.0022,0.50056 -0.52315,0.52489 -0.71322,1.296 -0.49394,2.0039 0.80976,3.2552 1.9116,7.7204 2.5625,11.625 0.32544,1.9523 0.54953,3.7494 0.5625,5.125 0.013,1.3756 -0.34684,2.3056 -0.28125,2.2188 -0.008,0.0102 -0.13279,0.19582 -0.875,0.15625 -0.74221,-0.0396 -1.9723,-0.37333 -3.4375,-1.2812 -2.9304,-1.8158 -6.8568,-5.8387 -10.719,-13.125 -2.0572,-2.8499 -8.5431,-15.288 -16.771,-42.925 z"
         id="path249"
         inkscape:connector-curvature="0" />
      <path
         d="m 472.06,550.29 c 0.74287,7.4761 1.9232,13.861 3.3109,19.35 2.4956,9.8706 5.6621,16.842 8.1623,22.042 3.2834,6.7407 6.7804,10.794 9.9688,12.938 1.5942,1.0719 3.0999,1.6869 4.5625,1.8125 1.4626,0.1256 3.0032,-0.31438 3.9375,-1.5 1.0097,-1.2813 1.0679,-2.596 1.0938,-4.0938 0.0259,-1.4977 -0.13101,-3.2166 -0.375,-5 -0.48798,-3.5669 -1.3311,-7.4816 -1.9375,-10.281 -0.24162,-1.0873 -1.3189,-1.7729 -2.4062,-1.5312 -1.0873,0.2417 -1.7729,1.3189 -1.5312,2.4062 0.60643,2.7997 1.4501,6.6344 1.9062,9.9688 0.22808,1.6672 0.36363,3.1923 0.34375,4.3438 -0.0199,1.1514 -0.36444,1.9036 -0.21875,1.7188 0.0703,-0.0892 0.0749,0.0154 -0.46875,-0.0312 -0.5436,-0.0467 -1.5097,-0.33309 -2.6875,-1.125 -2.3555,-1.5838 -5.5297,-5.0847 -8.5938,-11.375 -2.3589,-3.1684 -9.604,-19.128 -15.067,-39.643 z"
         id="path251"
         inkscape:connector-curvature="0" />
      <path
         d="m 439.16,598.66 c 1.7988,8.1293 4.5351,13.411 7.375,16.531 1.42,1.5602 2.8497,2.5849 4.3438,3.0938 1.4941,0.5089 3.2205,0.45342 4.4688,-0.53125 1.3447,-1.0607 1.7182,-2.4695 2.125,-4.0625 0.4068,-1.593 0.68115,-3.4518 0.875,-5.4375 0.3877,-3.9714 0.46629,-8.4064 0.53125,-11.594 0.0259,-1.1046 -0.84856,-2.021 -1.9531,-2.0469 -1.1046,-0.0259 -2.021,0.84856 -2.0469,1.9531 -0.065,3.1873 -0.16624,7.5736 -0.53125,11.312 -0.1825,1.8695 -0.42871,3.5857 -0.75,4.8438 -0.32129,1.2581 -0.88405,1.9807 -0.75,1.875 0.0376,-0.0297 -0.0357,0.1176 -0.65625,-0.0937 -0.62052,-0.21135 -1.6338,-0.83913 -2.7188,-2.0312 -2.17,-2.3842 -4.7147,-7.043 -6.4062,-14.688 -1.5168,-7.1654 -3.7234,-29.417 -2.9191,-45.556 -4.9669,14.267 -2.3138,37.168 -0.98715,46.431 z"
         id="path253"
         inkscape:connector-curvature="0" />
      <path
         d="m 424.31,542.56 c -5.5158,20.036 -3.4308,42.778 -2.9688,51.094 0.99363,8.7091 3.2596,14.522 5.875,18.094 1.3077,1.7861 2.7032,3.0244 4.1875,3.7188 1.4843,0.6944 3.2094,0.80466 4.5938,-0.0625 1.4891,-0.93274 2.0586,-2.3239 2.6562,-3.9375 0.5976,-1.6136 1.0803,-3.5081 1.5,-5.5625 0.83942,-4.1088 1.427,-8.763 1.8438,-12.094 0.0984,-0.71346 -0.19429,-1.4248 -0.7664,-1.8623 -0.57211,-0.4375 -1.3352,-0.53365 -1.998,-0.25172 -0.6628,0.28193 -1.1228,0.8984 -1.2044,1.614 -0.4167,3.3308 -1.0199,7.9018 -1.8125,11.781 -0.39629,1.9398 -0.83541,3.7118 -1.3125,5 -0.47709,1.2882 -1.1476,2.0104 -1.0312,1.9375 0.0116,-0.007 -0.12905,0.11761 -0.78125,-0.1875 -0.6522,-0.30511 -1.6408,-1.0818 -2.6562,-2.4688 -2.031,-2.774 -4.1876,-7.9708 -5.125,-16.188 -1.2913,-8.9937 -1.7569,-36.404 -1,-50.625 z"
         id="path255"
         inkscape:connector-curvature="0" />
      <path
         d="m 410.37,538.56 c -8.2119,16.17 -7.738,38.062 -7.9955,45.498 0.0819,9.1141 1.8084,15.368 4.125,19.344 1.1583,1.9879 2.4605,3.4363 3.9062,4.3125 1.4457,0.8762 3.2144,1.1923 4.7188,0.46875 1.6159,-0.77718 2.3614,-2.1546 3.1562,-3.75 0.7948,-1.5954 1.4963,-3.5188 2.1562,-5.5938 1.32,-4.15 2.4219,-8.8838 3.2188,-12.281 0.25025,-1.0787 -0.42132,-2.156 -1.5,-2.4062 -1.07868,-0.2502 -2.156,0.42132 -2.4062,1.5 -0.79681,3.3975 -1.8765,8.0434 -3.125,11.969 -0.62427,1.9627 -1.2985,3.7488 -1.9375,5.0312 -0.639,1.2824 -1.4076,1.952 -1.3125,1.9062 -0.0165,0.008 -0.20909,0.12235 -0.875,-0.28125 -0.66591,-0.4036 -1.6212,-1.3131 -2.5312,-2.875 -1.8202,-3.1237 -3.5163,-8.7586 -3.5938,-17.375 -0.39493,-8.8187 0.35181,-28.548 3.9955,-45.466 z"
         id="path257"
         inkscape:connector-curvature="0" />
      <path
         d="m 463.46,558.1 c -0.52941,16.705 3.4929,26.524 7.6377,39.06 2.6002,6.6164 5.5143,10.709 8.2812,12.969 1.3835,1.1297 2.7206,1.8126 4.0938,2.0312 1.3732,0.2186 2.919,-0.15941 3.8438,-1.2812 1.002,-1.2156 1.0944,-2.4528 1.1875,-3.875 0.0931,-1.4222 0.008,-3.0375 -0.125,-4.75 -0.26571,-3.4251 -0.81152,-7.2026 -1.2188,-9.9062 -0.16396,-1.0959 -1.1853,-1.8515 -2.2812,-1.6875 -1.0959,0.164 -1.8515,1.1853 -1.6875,2.2812 0.40723,2.7037 0.96995,6.4179 1.2188,9.625 0.1244,1.6036 0.16576,3.088 0.0937,4.1875 -0.072,1.0996 -0.43279,1.7843 -0.25,1.5625 0.10551,-0.12801 0.24504,-0.0299 -0.15625,-0.0937 -0.40129,-0.0639 -1.1957,-0.40887 -2.1875,-1.2188 -1.9836,-1.6198 -4.6667,-5.1053 -7.0938,-11.281 -2.5306,-4.4428 -7.4567,-18.747 -11.356,-37.623 z"
         id="path259"
         inkscape:connector-curvature="0" />
      <path
         d="m 452.94,558.78 c -2.4322,15.856 2.9508,35.585 4.375,41.75 1.9805,6.8276 4.5152,11.152 7.0625,13.656 1.2737,1.2522 2.559,2.0622 3.9062,2.4062 1.3472,0.344 2.9135,0.12575 3.9375,-0.90625 1.1096,-1.1182 1.2764,-2.3424 1.5,-3.75 0.2236,-1.4076 0.3185,-3.0325 0.34375,-4.75 0.0505,-3.435 -0.15571,-7.2391 -0.3125,-9.9688 -0.0604,-1.1046 -1.0048,-1.951 -2.1094,-1.8906 -1.1046,0.0604 -1.951,1.0048 -1.8906,2.1094 0.15679,2.7297 0.35978,6.4711 0.3125,9.6875 -0.0236,1.6082 -0.10839,3.0992 -0.28125,4.1875 -0.17286,1.0883 -0.60867,1.7665 -0.40625,1.5625 0.11684,-0.11776 0.26871,-0.0557 -0.125,-0.15625 -0.39371,-0.10054 -1.1494,-0.47732 -2.0625,-1.375 -1.8261,-1.7954 -4.1826,-5.5332 -6.0312,-11.906 -1.8953,-4.5051 -6.0559,-23.635 -8.2188,-40.656 z"
         id="path261"
         inkscape:connector-curvature="0" />
      <path
         d="m 388.75,542.28 c -3.8162,11.383 -3.4497,24.433 -3.9375,30.719 -0.72905,9.0853 0.45242,15.459 2.4062,19.625 0.97691,2.083 2.1379,3.6236 3.5,4.625 1.3621,1.0014 3.0623,1.4931 4.625,0.90625 1.6786,-0.63038 2.5351,-1.9504 3.4688,-3.4688 0.9337,-1.5184 1.8143,-3.3669 2.6562,-5.375 1.6839,-4.0161 3.2167,-8.6244 4.3125,-11.938 0.28306,-0.68889 0.15992,-1.478 -0.31956,-2.0479 -0.47948,-0.5699 -1.2359,-0.82621 -1.963,-0.66517 -0.7271,0.16104 -1.3046,0.71276 -1.4986,1.4318 -1.0958,3.3131 -2.626,7.8887 -4.2188,11.688 -0.79636,1.8994 -1.6245,3.5919 -2.375,4.8125 -0.7505,1.2206 -1.5675,1.8496 -1.4688,1.8125 -0.0172,0.006 -0.21637,0.0862 -0.84375,-0.375 -0.62738,-0.46123 -1.5137,-1.4571 -2.2812,-3.0938 -1.5351,-3.2732 -2.7228,-10.596 -2.9962,-19.119 -0.16592,-5.1732 0.50926,-17.055 0.93366,-29.537 z"
         id="path263"
         inkscape:connector-curvature="0" />
    </g>
    <path
       d="m -671.01,461.22 c -1.8229,-16.091 0,35.401 1.8228,72.411 1.8229,37.01 43.748,74.02 51.04,65.974 7.2913,-8.0457 65.622,-296.08 -45.571,-605.03 -111.19,-308.95 -319,-341.14 -353.63,-318.61 -34.634,22.528 41.014,23.332 32.811,157.69 -8.2028,134.36 53.817,239.99 78.382,281.2 27.343,45.86 57.419,102.58 63.799,119.48 12.76,33.792 54.685,38.619 47.394,17.7 -7.291,-20.919 1.8229,9.6548 9.1142,38.619 7.2914,28.964 56.508,62.756 56.508,38.619 0,-24.137 1.8228,57.929 9.1142,86.893 7.2914,28.964 51.039,61.147 49.217,45.056 z"
       id="path267"
       inkscape:connector-curvature="0"
       style="fill:url(#bl)" />
    <path
       transform="matrix(2.8956,0,0,2.5561,-2610.1,-1250.4)"
       d="m 436.52,514.92 c -10.105,-6.2898 35.974,-26.357 66.415,-56.027 30.597,-29.823 46.585,-62.952 52.565,-61.064 5.98,1.888 2.8328,24.551 2.8328,44.381 10e-6,19.579 4.0919,36.827 2.8328,43.752 -1.2591,6.925 -30.847,1.8886 -53.509,6.2952 -22.662,4.4066 -67.063,25.198 -71.136,22.663 z"
       id="path269"
       inkscape:connector-curvature="0"
       style="fill:url(#linearGradient367);filter:url(#bv)" />
    <path
       d="m -899.43,127.43 c 7.8866,21.692 21.84,60.07 14.795,69.416 -7.0443,9.3465 -40.31,4.0138 -74.877,-45.106 -34.567,-49.12 -59.562,-148.29 -59.562,-148.29 m 81.844,173.78 c 6.2444,18.203 17.292,50.408 11.305,58.135 -5.987,7.727 -33.557,2.9032 -61.582,-38.503 -28.025,-41.406 -60.97,-127.37 -60.97,-127.37 m 70.421,143.43 c 4.6894,16.641 12.986,46.084 7.2352,52.809 -5.751,6.7251 -30.218,1.2985 -53.272,-37.097 -23.054,-38.396 -48.296,-117.12 -48.296,-117.12 m 62.999,135.97 c 3.512,14.313 9.7255,39.635 4.7219,45.24 -5.0035,5.605 -25.417,0.4007 -43.797,-32.908 -18.38,-33.309 -37.563,-101.09 -37.563,-101.09 m -44.806,115.86 c -0.3761,16.294 -1.0417,45.123 -8.0526,50.005 -7.0109,4.8822 -27.465,-5.5397 -37.572,-45.859 -10.106,-40.32 -11.07,-118.08 -11.07,-118.08 m 7.8506,106.14 c -2.4132,17.028 -6.6828,47.154 -14.633,51.55 -7.9499,4.396 -28.087,-8.613 -33.679,-51.877 -5.592,-43.264 3.0347,-124.81 3.0347,-124.81 m -7.6982,106.08 c -4.6144,17.369 -12.778,48.098 -21.586,51.837 -8.8072,3.7394 -28.13,-11.764 -28.591,-57.085 -0.4614,-45.321 13.122,-120.75 13.122,-120.75 m 220.8,142.71 c 2.3584,13.822 6.5309,38.276 1.7869,43.357 -4.7441,5.0806 -22.605,-0.94188 -37.162,-33.641 -14.557,-32.699 -27.992,-98.287 -27.992,-98.287 m 24.512,100.55 c 0.908,13.955 2.5144,38.644 -2.739,43.318 -5.2533,4.6738 -22.411,-2.7736 -33.498,-36.516 -11.088,-33.742 -17.631,-100.14 -17.631,-100.14 m -142.63,40.715 c -6.3461,16.937 -17.574,46.904 -26.723,49.937 -9.149,3.033 -26.833,-13.926 -22.726,-59.104 4.1068,-45.178 5.9745,-73.727 5.9745,-73.727"
       id="path271"
       inkscape:connector-curvature="0"
       style="fill:url(#bm)" />
  </g>
  <g
     transform="matrix(0.59593309,-0.03666101,-0.05127855,-0.83495927,195.62878,173.24739)"
     id="g279">
    <path
       d="M 1232.5,64.181 C 1176.057,49.975 1031.2,48.719 977.96,48.308 934.189,45.3997 764.94,73.528 715.03,90.95 l -29.865,-8.6392 c 58.527,-25.734 166.28,-43.32 289.69,-55.049 137.45,-0.8762 263.53,4.8777 293.11,28.407 l -35.469,8.5116 z"
       id="path275"
       inkscape:connector-curvature="0"
       style="fill:url(#bs)" />
    <path
       d="m 686.96,81.367 c 109.11,42.161 422.16,38.704 566.41,-26.07 8.5576,-3.8428 18.899,-0.851 23.438,7.3587 2.8129,5.0876 2.807,10.731 -0.5544,17.036 -2.8701,5.3837 -7.5851,9.5319 -13.091,12.159 -132,62.978 -478.02,71.781 -574.82,27.26 -21.712,-13.33 -23.251,-25.949 -1.3779,-37.744 z"
       id="path277"
       inkscape:connector-curvature="0"
       style="fill:url(#bt)" />
  </g>
  <path
     d="m 1151.215,1065.4365 a 403.04,36.64 0 1 1 0,-7e-4"
     id="path281"
     inkscape:connector-curvature="0"
     style="opacity:0.8;fill:#a0a0a0;fill-rule:evenodd;filter:url(#cc)"
     transform="matrix(0.83582251,0,0,0.83653195,142.65017,-40.341428)" />
  <path
     d="m 488.91305,537.8833 c 0,0 -2.83938,13.9132 -2.38812,28.68133 4.47483,146.44329 126.77756,265.29772 282.98443,265.29772 156.20687,0 281.53014,-118.15174 282.98444,-265.29772 0.1728,-17.48351 -5.775,-31.0713 -5.775,-31.0713 0,0 33.4329,7.17025 93.1357,50.19192 52.5373,9.55988 33.4329,-33.46128 33.4329,-33.46128 0,0 -11.9406,-33.46128 -88.3548,-93.21476 -76.4143,-59.75348 -74.3615,-79.92728 -82.6871,-116.83005 -8.39084,-37.1897 -19.99958,-86.3301 -19.99958,-86.3301 0,0 -17.65842,-77.21106 -57.78961,-117.12284 -40.13118,-39.91177 -95.29212,-64.522538 -156.14,-64.522538 -61.29672,0 -116.82291,25.029028 -157.01762,65.477858 -40.19805,40.44883 -62.68418,101.83104 -62.68418,101.83104 0,0 -12.83489,48.69285 -12.53817,87.82749 0.29061,38.31483 -8.95417,72.30564 -85.37091,132.05493 -76.41758,59.75264 -88.3548,93.21476 -88.3548,93.21476 0,0 -18.20923,40.33422 34.32807,30.77433 59.70113,-39.43913 92.24137,-47.50497 92.24137,-47.50497 z"
     id="path283"
     inkscape:connector-curvature="0"
     style="fill:#0089ff;fill-rule:evenodd;stroke:#000000;stroke-width:1.9232074" />
  <path
     transform="matrix(0.907954,0,0,0.84523189,-603.8856,86.35681)"
     d="m 1700.9,175.49 a 189.95,185.13 0 1 1 0,-0.003"
     id="path285"
     inkscape:connector-curvature="0"
     style="fill:url(#ck);fill-rule:evenodd;filter:url(#bz)" />
  <path
     d="m 998.4029,615.42981 c 0,72.5725 -25.53608,139.84302 -66.81652,187.43332 -41.28044,47.5903 -281.20413,47.59281 -322.4854,0 -41.28044,-47.59281 -66.82401,-113.33332 -66.82401,-185.90246 0,-145.14666 102.17094,-262.94709 228.07089,-262.94709 124.96382,0 226.60824,117.35706 228.06254,261.41623 z"
     id="path287"
     inkscape:connector-curvature="0"
     style="fill:url(#cj);fill-rule:evenodd;stroke-width:0.83617717" />
  <path
     d="m 499.541,671.76654 c 0,0 -9.2245,86.711 1.8449,136.52 11.0694,49.809 23.984,99.625 23.984,99.625 l -26.751,8.3021 c 0,0 -14.759,-16.604 -27.674,-36.898 -12.914,-20.294 -28.596,-61.804 -28.596,-61.804 l 41.51,32.286 c 0,0 -8.3021,-35.053 -4.6123,-73.796 3.6898,-38.743 7.3797,-79.331 20.294,-104.24 z"
     id="path289"
     inkscape:connector-curvature="0"
     style="fill:#ffffff;fill-opacity:0.3857;fill-rule:evenodd;filter:url(#ax)"
     transform="matrix(0.83582251,0,0,0.83653195,142.65017,-40.341428)" />
  <path
     d="m 605.805,529.63554 c 0,0 12.058,18.473 20.3,18.727 13.635,1.4531 17.462,15.848 30.961,14.884 28.927,34.712 54.334,66.896 81.332,80.395 9.6204,6.3083 20.091,7.8445 28.927,-7.4522 15.428,-13.499 50.924,-51.523 58.507,-66.221 11.178,-12.9 8.6507,-31.792 8.6507,-31.792 0,0 19.131,-7.5964 28.593,-8.268 10.687,-0.7586 1.5703,-19.335 11.044,-21.094 -2.3834,-15.241 12.431,-14.992 -4.9246,-16.92 -17.356,-1.9284 -237.2,-13.499 -254.55,-1.9284 -17.35,11.5706 -20.407,18.456 -8.8359,39.669 z"
     id="path291"
     inkscape:connector-curvature="0"
     style="fill:#a0a0a0;fill-rule:evenodd;filter:url(#bw)"
     transform="matrix(0.83582251,0,0,0.83653195,142.65017,-40.341428)" />
  <path
     d="m 1001.435,676.33654 c 0,0 9.2245,86.711 -1.8449,136.52 -11.0694,49.809 -23.984,99.625 -23.984,99.625 l 26.751,8.3021 c 0,0 14.759,-16.604 27.674,-36.898 12.914,-20.294 28.596,-61.804 28.596,-61.804 l -41.51,32.286 c 0,0 8.3021,-35.053 4.6123,-73.796 -3.6898,-38.743 -7.3797,-79.331 -20.294,-104.24 z"
     id="path293"
     inkscape:connector-curvature="0"
     style="fill:#ffffff;fill-opacity:0.3857;fill-rule:evenodd;filter:url(#ax)"
     transform="matrix(0.83582251,0,0,0.83653195,142.65017,-40.341428)" />
  <path
     d="m 1099.305,1022.1165 c 0,16.9 -4.779,23.005 -13.42,37.655 h -314.52 c -8.6405,-14.65 -13.42,-20.754 -13.42,-37.655 0,-67.602 76.464,-122.46996 170.68,-122.46996 94.216,0 170.68,54.86396 170.68,122.45996"
     id="path295"
     inkscape:connector-curvature="0"
     style="fill:#a0a0a0;fill-rule:evenodd;filter:url(#av)"
     transform="matrix(0.83582251,0,0,0.83653195,142.65017,-40.341428)" />
  <path
     d="m 1079.0765,819.47665 c 0,14.13739 -3.9944,19.24442 -11.2168,31.49961 H 804.97682 c -7.22192,-12.25519 -11.21674,-17.36138 -11.21674,-31.49961 0,-56.55123 63.91034,-102.45003 142.65819,-102.45003 78.74783,0 142.65823,45.89545 142.65823,102.44167"
     id="path297"
     inkscape:connector-curvature="0"
     style="fill:url(#bi);fill-rule:evenodd;stroke-width:0.83617717" />
  <path
     d="m 746.255,1023.9765 c 0,16.9 -4.779,23.005 -13.42,37.655 h -314.52 c -8.6405,-14.65 -13.42,-20.754 -13.42,-37.655 0,-67.602 76.463,-122.46996 170.68,-122.46996 94.214,0 170.68,54.86396 170.68,122.45996"
     id="path299"
     inkscape:connector-curvature="0"
     style="fill:#a0a0a0;fill-rule:evenodd;filter:url(#av)"
     transform="matrix(0.83582251,0,0,0.83653195,142.65017,-40.341428)" />
  <path
     d="m 748.6591,819.47665 c 0,14.13739 -3.99439,19.24442 -11.21674,31.49961 H 474.55947 c -7.22193,-12.25519 -11.21674,-17.36138 -11.21674,-31.49961 0,-56.55123 63.91033,-102.45003 142.65819,-102.45003 78.74618,0 142.65818,45.89545 142.65818,102.44167"
     id="path301"
     inkscape:connector-curvature="0"
     style="fill:url(#bh);fill-rule:evenodd;stroke-width:0.83617717" />
  <path
     d="m 769.75526,475.07648 7.94608,-0.14982 c 0,0 8.64491,-9.56993 38.69608,-41.01349 20.03383,-22.78546 26.40865,-37.82379 26.40865,-37.82379 0,0 4.09787,-15.03834 -15.48111,-30.53258 -25.69653,-12.76966 -38.69607,-12.75962 -57.69432,-12.68517 -18.99825,0.0753 -33.10693,2.35341 -57.69432,12.83491 -24.58739,10.48149 -20.48935,31.44356 -20.48935,31.44356 0,0 1.82125,10.02584 31.87242,41.4694 30.05116,31.44356 46.43579,36.45606 46.43579,36.45606 z"
     id="path303"
     inkscape:connector-curvature="0"
     style="fill:url(#bg);fill-rule:evenodd;stroke-width:0.83617717" />
  <path
     transform="matrix(1.1144022,0,0,1.2373981,-871.26523,-267.48784)"
     d="m 1382.7,852.37 a 78.102,46.282 0 1 1 0,-8.1e-4"
     id="path305"
     inkscape:connector-curvature="0"
     style="opacity:0.8;fill:url(#linearGradient369);fill-rule:evenodd;filter:url(#ay)" />
  <path
     transform="matrix(1.1144022,0,0,1.2373981,-495.73017,-267.48784)"
     d="m 1382.7,852.37 a 78.102,46.282 0 1 1 0,-8.1e-4"
     id="path307"
     inkscape:connector-curvature="0"
     style="opacity:0.8;fill:url(#az);fill-rule:evenodd;filter:url(#ay)" />
  <path
     d="m 271.845,722.17654 c 0,0 161.99,-104.14 187.06,-123.42 25.07,-19.284 1.9285,-80.994 1.9285,-80.994 0,0 -23.141,32.783 -55.925,65.567 -28.926,23.141 -52.068,42.426 -96.422,79.066 -44.354,44.354 -36.64,61.71 -36.64,59.782 z"
     id="path309"
     inkscape:connector-curvature="0"
     style="fill:url(#cg);fill-rule:evenodd;filter:url(#aw)"
     transform="matrix(0.83582251,0,0,0.83653195,142.65017,-40.341428)" />
  <path
     d="m 1224.075,720.24654 c 0,0 -161.99,-104.14 -187.06,-123.42 -25.07,-19.28 -1.9285,-80.994 -1.9285,-80.994 0,0 23.141,32.783 55.925,65.567 28.926,23.141 52.068,42.426 96.422,79.066 44.354,44.354 36.64,61.71 36.64,59.782 z"
     id="path311"
     inkscape:connector-curvature="0"
     style="fill:url(#cf);fill-rule:evenodd;filter:url(#aw)"
     transform="matrix(0.83582251,0,0,0.83653195,142.65017,-40.341428)" />
  <path
     d="m 747.12119,831.22156 c 0,0 17.38176,1.49614 24.51551,1.36129 8.03819,-0.15191 18.53687,-0.86765 24.13187,-1.51906 1.74987,8.6305 7.28227,16.48303 9.10628,18.83619 2.27662,2.12663 -67.23523,0.30383 -67.23523,0.30383 0,0 8.72515,-12.08621 9.48157,-18.98175 z"
     id="path313"
     inkscape:connector-curvature="0"
     style="fill:url(#ce);fill-rule:evenodd;stroke-width:0.83617717" />
  <path
     d="m 689.695,487.92854 c 0,0 46.522,3.1015 77.094,21.71 30.572,18.6085 41.648,44.307 41.648,44.307 0,0 19.052,-20.824 21.71,-28.799 2.6584,-7.9753 7.9753,-23.926 -19.938,-39.876 -27.913,-15.95 -43.864,-11.52 -70.891,-11.077 -27.027,0.443 -49.624,14.178 -49.624,13.735 z"
     id="path315"
     inkscape:connector-curvature="0"
     style="fill:url(#cl);fill-rule:evenodd;filter:url(#cd)"
     transform="matrix(0.83582251,0,0,0.83653195,142.65017,-40.341428)" />
  <path
     transform="matrix(-0.83582251,0,0,0.83653195,2281.6245,-123.4705)"
     d="m 1572.9,777.52 c 0,0 -9.2245,86.711 1.8449,136.52 11.0694,49.809 23.984,99.625 23.984,99.625 l -26.751,8.3021 c 0,0 -14.759,-16.604 -27.674,-36.898 -12.914,-20.294 -28.596,-61.804 -28.596,-61.804 l 41.51,32.286 c 0,0 -8.3021,-35.053 -4.6123,-73.796 3.6898,-38.743 7.3797,-79.331 20.294,-104.24 z"
     id="path317"
     inkscape:connector-curvature="0"
     style="fill:#ffffff;fill-opacity:0.3857;fill-rule:evenodd;filter:url(#cb)" />
  <path
     transform="matrix(-0.83582251,0,0,0.83653195,2281.6245,-123.4705)"
     d="m 1345.2,827.94 c 0,0 161.99,-104.14 187.06,-123.42 25.07,-19.28 1.9285,-80.994 1.9285,-80.994 0,0 -23.141,32.783 -55.925,65.567 -28.926,23.141 -52.068,42.426 -96.422,79.066 -44.354,44.354 -36.64,61.71 -36.64,59.782 z"
     id="path319"
     inkscape:connector-curvature="0"
     style="fill:url(#ch);fill-rule:evenodd;filter:url(#ca)" />
  <path
     d="m 1538.9126,38.582472 c 0,0 22.5655,-41.9428701 66.0851,-27.42402 43.5196,14.51884 46.4391,39.7453 57.7219,97.824038 11.2828,58.07874 -39.9916,5.42408 -39.9916,5.42408 0,0 -6.4474,-50.009558 -35.4606,-64.528408 -29.0131,-14.51884 -48.3548,-9.67951 -48.3548,-11.29234 z"
     id="path321"
     inkscape:connector-curvature="0"
     style="opacity:0.8;fill:url(#ci);fill-rule:evenodd;stroke-width:0.83617717" />
  <g
     transform="matrix(0.83582251,0,0,0.83653195,-361.41349,173.7744)"
     id="g357"
     style="fill-rule:evenodd">
    <path
       d="m 1411.5,15.257 c 0,0 -0.2723,65.372 38.832,102.68 39.104,37.31 62.591,29.496 93.525,34.077 -24.358,10.295 -80.21,10.272 -109.67,-22.507 -29.465,-32.779 -24.602,-112.93 -22.682,-114.25 z"
       id="path323"
       inkscape:connector-curvature="0"
       style="opacity:0.8;fill:url(#bj)" />
    <path
       transform="matrix(1.2835,0,0,1.2542,893.55,-204.2)"
       d="m 507.18,269.02 a 77.137,97.386 0 1 1 0,-0.002"
       id="path325"
       inkscape:connector-curvature="0"
       style="opacity:0.85;stroke:#000000;stroke-width:2.36450005;filter:url(#by)" />
    <g
       transform="translate(840.18,-143.74)"
       id="g341">
      <path
         transform="matrix(1.2835,0,0,1.2542,-142.16,-58.756)"
         d="m 507.18,269.02 a 77.137,97.386 0 1 1 0,-0.002"
         id="path327"
         inkscape:connector-curvature="0"
         style="opacity:0.85;stroke:#000000;stroke-width:2.36450005;filter:url(#bx)" />
      <path
         d="m 503.07,281.55 a 94.237,119.31 0 1 1 0,-0.002"
         id="path329"
         inkscape:connector-curvature="0"
         style="fill:url(#bp)" />
      <path
         d="m 349.05,202.49 c 0,0 26.998,-50.139 79.066,-32.783 52.068,17.356 55.561,47.512 69.06,116.94 13.499,69.428 -47.847,6.484 -47.847,6.484 0,0 -7.7138,-59.782 -42.426,-77.137 -34.7122,-17.355 -57.853,-11.571 -57.853,-13.499 z"
         id="path331"
         inkscape:connector-curvature="0"
         style="opacity:0.8;fill:url(#bd)" />
      <path
         d="m 501.32,292.16 a 26.998,39.533 0 1 1 0,-6.9e-4"
         id="path333"
         inkscape:connector-curvature="0"
         style="stroke:#000000;stroke-width:2.29999995" />
      <path
         d="m 327.23,247.76 c 0,0 -0.27224,65.372 38.832,102.68 39.10424,37.308 62.591,29.496 93.525,34.077 -24.358,10.295 -80.21,10.272 -109.67,-22.507 -29.46,-32.779 -24.602,-112.93 -22.682,-114.25 z"
         id="path335"
         inkscape:connector-curvature="0"
         style="opacity:0.8;fill:url(#bq)" />
      <path
         d="m 468.9,254.15 c 0,0 6.6678,19.263 7.1617,35.562 14.57,-4.9391 22.226,-9.8782 22.226,-9.8782 0,0 -3.7044,-25.683 -29.388,-25.683 z"
         id="path337"
         inkscape:connector-curvature="0"
         style="fill:url(#be)" />
      <path
         d="m 453.74,267.83 c 0,0 -2.4696,21.485 6.6678,36.056 9.1374,14.571 19.51,19.263 27.412,20.991 -2.4696,2.2226 -13.583,8.1496 -23.955,-0.24696 -10.372,-8.39656 -15.558,-16.546 -15.558,-27.659 0,-11.113 1.9756,-24.943 5.433,-29.141 z"
         id="path339"
         inkscape:connector-curvature="0"
         style="fill:url(#bf)" />
    </g>
    <path
       d="m 1538.8,136.11 a 94.237,119.31 0 1 1 0,-0.002"
       id="path343"
       inkscape:connector-curvature="0"
       style="fill:url(#br)" />
    <path
       d="m 1384.8,57.04 c 0,0 26.998,-50.139 79.066,-32.783 52.068,17.356 55.561,47.512 69.06,116.94 13.499,69.428 -47.847,6.484 -47.847,6.484 0,0 -7.7138,-59.782 -42.426,-77.137 C 1407.9408,53.189 1384.8,58.973 1384.8,57.045 Z"
       id="path345"
       inkscape:connector-curvature="0"
       style="opacity:0.8;fill:url(#cm)" />
    <path
       d="m 1362.9,102.31 c 0,0 -0.2722,65.372 38.832,102.68 39.1042,37.308 62.591,29.496 93.525,34.077 -24.358,10.295 -80.21,10.272 -109.67,-22.507 -29.46,-32.779 -24.602,-112.93 -22.682,-114.25 z"
       id="path347"
       inkscape:connector-curvature="0"
       style="opacity:0.8;fill:url(#bk)" />
    <g
       transform="translate(-127.54)"
       id="g355">
      <path
         d="m 1537,146.71 a 26.998,39.533 0 1 1 0,-6.9e-4"
         id="path349"
         inkscape:connector-curvature="0"
         style="stroke:#000000;stroke-width:2.29999995" />
      <path
         d="m 1504.6,108.71 c 0,0 6.6678,19.263 7.1617,35.562 14.57,-4.9391 22.226,-9.8782 22.226,-9.8782 0,0 -3.7044,-25.683 -29.388,-25.683 z"
         id="path351"
         inkscape:connector-curvature="0"
         style="fill:url(#bb)" />
      <path
         d="m 1489.5,122.39 c 0,0 -2.4696,21.485 6.6678,36.056 9.1374,14.571 19.51,19.263 27.412,20.991 -2.4696,2.2226 -13.583,8.1496 -23.955,-0.24696 -10.372,-8.39656 -15.558,-16.546 -15.558,-27.659 0,-11.113 1.9756,-24.943 5.433,-29.141 z"
         id="path353"
         inkscape:connector-curvature="0"
         style="fill:url(#bc)" />
    </g>
  </g>
</svg>
