<?xml version="1.0" encoding="UTF-8"?>
<svg version="1.1" viewBox="0 0 321.24049 295.61063" xmlns="http://www.w3.org/2000/svg" xmlns:xlink="http://www.w3.org/1999/xlink">
 <defs>
  <filter id="ap" color-interpolation-filters="sRGB">
   <feGaussianBlur stdDeviation="4.08709"/>
  </filter>
  <filter id="an" color-interpolation-filters="sRGB">
   <feGaussianBlur stdDeviation="7.34247"/>
  </filter>
  <filter id="am" color-interpolation-filters="sRGB">
   <feGaussianBlur stdDeviation="5.95619"/>
  </filter>
  <filter id="al" color-interpolation-filters="sRGB">
   <feGaussianBlur stdDeviation="4.37563"/>
  </filter>
  <filter id="ak" color-interpolation-filters="sRGB">
   <feGaussianBlur stdDeviation="3.06186"/>
  </filter>
  <filter id="av" color-interpolation-filters="sRGB">
   <feGaussianBlur stdDeviation="3.75101"/>
  </filter>
  <filter id="au" x="-.08814" y="-.18791" width="1.1763" height="1.3758" color-interpolation-filters="sRGB">
   <feGaussianBlur stdDeviation="12.53691"/>
  </filter>
  <filter id="i" x="-.27403" y="-.33844" width="1.5481" height="1.6769" color-interpolation-filters="sRGB">
   <feGaussianBlur stdDeviation="16.04393"/>
  </filter>
  <filter id="at" x="-.09891" y="-.17953" width="1.1978" height="1.359" color-interpolation-filters="sRGB">
   <feGaussianBlur stdDeviation="5.27461"/>
  </filter>
  <filter id="as" x="-.10579" y="-.18723" width="1.2116" height="1.3745" color-interpolation-filters="sRGB">
   <feGaussianBlur stdDeviation="6.18241"/>
  </filter>
  <filter id="ar" x="-.09054" y="-.27898" width="1.1811" height="1.558" color-interpolation-filters="sRGB">
   <feGaussianBlur stdDeviation="11.60299"/>
  </filter>
  <filter id="aq" x="-.10761" y="-.28144" width="1.2152" height="1.5629" color-interpolation-filters="sRGB">
   <feGaussianBlur stdDeviation="12.94953"/>
  </filter>
  <filter id="ao" x="-.10557" y="-.04914" width="1.2111" height="1.0983" color-interpolation-filters="sRGB">
   <feGaussianBlur stdDeviation="5.61087"/>
  </filter>
  <filter id="ay" x="-.16877" y="-.1658" width="1.3375" height="1.3316" color-interpolation-filters="sRGB">
   <feGaussianBlur stdDeviation="14.27734"/>
  </filter>
  <filter id="ax" x="-.20531" y="-.23126" width="1.4106" height="1.4625" color-interpolation-filters="sRGB">
   <feGaussianBlur stdDeviation="17.21462"/>
  </filter>
  <filter id="aw" x="-.12785" y="-.15066" width="1.2557" height="1.3013" color-interpolation-filters="sRGB">
   <feGaussianBlur stdDeviation="22.31148"/>
  </filter>
  <linearGradient id="h">
   <stop stop-color="#895f00" offset="0"/>
   <stop offset="1"/>
  </linearGradient>
  <linearGradient id="c">
   <stop stop-color="#deaf00" offset="0"/>
   <stop stop-color="#de5d01" offset="1"/>
  </linearGradient>
  <linearGradient id="d">
   <stop stop-color="#fff" offset="0"/>
   <stop stop-color="#e9e3cb" offset=".77266"/>
   <stop stop-color="#373017" offset="1"/>
  </linearGradient>
  <linearGradient id="e">
   <stop stop-color="#3c3c3c" offset="0"/>
   <stop stop-color="#3c3c3c" stop-opacity="0" offset="1"/>
  </linearGradient>
  <linearGradient id="a">
   <stop stop-color="#fff" offset="0"/>
   <stop stop-color="#fff" stop-opacity="0" offset="1"/>
  </linearGradient>
  <linearGradient id="b">
   <stop offset="0"/>
   <stop stop-color="#fff" offset="1"/>
  </linearGradient>
  <linearGradient id="g">
   <stop stop-color="#d2d2d2" offset="0"/>
   <stop stop-color="#d2d2d2" offset=".88"/>
   <stop stop-color="#808080" offset="1"/>
  </linearGradient>
  <linearGradient id="aj" x2="0" y1="457.32" y2="600.03" gradientUnits="userSpaceOnUse">
   <stop stop-color="#fff" offset="0"/>
   <stop stop-color="#bebebe" offset="1"/>
  </linearGradient>
  <linearGradient id="ai" x2="0" y1="295.8" y2="146.25" gradientUnits="userSpaceOnUse" xlink:href="#b"/>
  <radialGradient id="y" cx="764.59" cy="687.72" r="170.68" gradientTransform="matrix(-1.6676 -.58227 .41 -1.4692 1741.8 2280.3)" gradientUnits="userSpaceOnUse" xlink:href="#c"/>
  <radialGradient id="x" cx="360.91" cy="675.81" r="170.68" gradientTransform="matrix(-1.557 -.41238 .206 -.97312 798.75 1641.3)" gradientUnits="userSpaceOnUse" xlink:href="#c"/>
  <linearGradient id="ah" x1="429.13" x2="426.8" y1="272.77" y2="143.59" gradientUnits="userSpaceOnUse" xlink:href="#b"/>
  <linearGradient id="f" x2="0" y1="806.09" y2="888.87" gradientUnits="userSpaceOnUse" xlink:href="#a"/>
  <radialGradient id="w" cx="510.3" cy="479.94" r="180.69" gradientTransform="matrix(.00099398 -.78493 .71269 .00090251 111.96 871.06)" gradientUnits="userSpaceOnUse">
   <stop stop-color="#fff" offset="0"/>
   <stop offset="1"/>
  </radialGradient>
  <radialGradient id="v" cx="399.62" cy="639.61" r="169.57" gradientTransform="matrix(.056693 .35394 -.39641 .063699 685.4 288.77)" gradientUnits="userSpaceOnUse">
   <stop stop-color="#a3a3a3" offset="0"/>
   <stop stop-color="#a3a3a3" stop-opacity="0" offset="1"/>
  </radialGradient>
  <linearGradient id="ag" x1="1498.6" x2="1506.4" y1="234.5" y2="262.63" gradientTransform="matrix(1.1184 0 0 .99987 -1157.1 294.86)" gradientUnits="userSpaceOnUse" xlink:href="#a"/>
  <radialGradient id="u" cx="513.06" cy="496.92" r="123.75" gradientTransform="matrix(2.7757 .051041 -.017941 .9665 -902.11 2.9559)" gradientUnits="userSpaceOnUse" xlink:href="#b"/>
  <radialGradient id="t" cx="511.63" cy="352.86" r="90.912" gradientTransform="matrix(-2.2916 .095305 -1.6708e-6 -1.1433 1631.7 833.01)" gradientUnits="userSpaceOnUse" xlink:href="#c"/>
  <linearGradient id="af" x1="1567.6" x2="1532.6" y1="337.4" y2="393.51" gradientTransform="matrix(1.1184 0 0 .71247 -1207.1 248.04)" gradientUnits="userSpaceOnUse" xlink:href="#a"/>
  <radialGradient id="s" cx="563.95" cy="498.64" r="28.944" gradientTransform="matrix(-2.0034 -.67923 .43395 -1.28 1551.4 1618.8)" gradientUnits="userSpaceOnUse" xlink:href="#h"/>
  <radialGradient id="r" cx="564.22" cy="498.13" r="29.444" gradientTransform="matrix(-1.9694 -.66769 .42658 -1.2582 1536.6 1601)" gradientUnits="userSpaceOnUse">
   <stop stop-opacity="0" offset="0"/>
   <stop stop-opacity="0" offset=".5"/>
   <stop offset="1"/>
  </radialGradient>
  <radialGradient id="q" cx="463.29" cy="509.78" r="27.257" gradientTransform="matrix(-1.7975 -.85229 .6124 -1.2919 1057.1 1644.4)" gradientUnits="userSpaceOnUse" xlink:href="#h"/>
  <radialGradient id="p" cx="463.44" cy="509.46" r="27.757" gradientTransform="matrix(-1.7652 -.83694 .60137 -1.2686 1048.2 1625.2)" gradientUnits="userSpaceOnUse">
   <stop offset="0"/>
   <stop stop-opacity="0" offset="1"/>
  </radialGradient>
  <radialGradient id="o" cx="721.01" cy="-28.866" r="81.635" gradientTransform="matrix(-1.6611 2.3642 -.91219 -.54009 1867.3 -1784)" gradientUnits="userSpaceOnUse" xlink:href="#d"/>
  <radialGradient id="n" cx="721.01" cy="-28.866" r="81.635" gradientTransform="matrix(1.6611 2.3642 .91219 -.54009 -966.02 -1796.5)" gradientUnits="userSpaceOnUse" xlink:href="#d"/>
  <radialGradient id="m" cx="615.17" cy="306.62" r="77.137" gradientUnits="userSpaceOnUse" xlink:href="#g"/>
  <radialGradient id="l" cx="430.04" cy="269.02" r="77.137" gradientTransform="matrix(1,0,0,1.2625,0,-70.617)" gradientUnits="userSpaceOnUse" xlink:href="#g"/>
  <linearGradient id="ae" x1="1449.7" x2="1487.2" y1="177.43" y2="237.22" gradientTransform="matrix(1.1184 0 0 .99987 -1252.1 32.698)" gradientUnits="userSpaceOnUse" xlink:href="#a"/>
  <radialGradient id="k" cx="1619.9" cy="319.54" r="89.638" gradientTransform="matrix(-.84078 -.93063 .40199 -.24787 1523.1 1922.3)" gradientUnits="userSpaceOnUse" xlink:href="#a"/>
  <linearGradient id="ad" x1="1632.9" x2="1664.2" y1="197.06" y2="249.2" gradientTransform="matrix(1.1184 0 0 .99987 -1236.7 19.377)" gradientUnits="userSpaceOnUse" xlink:href="#a"/>
  <radialGradient id="j" cx="1619.9" cy="319.54" r="89.638" gradientTransform="matrix(-1.1184 -9.1732e-7 3.7041e-7 -.36095 2380 457.55)" gradientUnits="userSpaceOnUse" xlink:href="#a"/>
  <linearGradient id="ac" x1="1498.6" x2="1506.4" y1="234.5" y2="262.63" gradientTransform="matrix(1.1184 0 0 .99987 -1266.9 12.624)" gradientUnits="userSpaceOnUse" xlink:href="#a"/>
  <linearGradient id="ab" x1="1466.7" x2="1484.5" y1="270" y2="303.34" gradientTransform="matrix(1.1184 0 0 .99987 -1265.1 9.3942)" gradientUnits="userSpaceOnUse" xlink:href="#e"/>
  <linearGradient id="aa" x1="1498.2" x2="1508.4" y1="231.99" y2="262.63" gradientTransform="matrix(1.1184 0 0 .99987 -1042.9 21.27)" gradientUnits="userSpaceOnUse" xlink:href="#a"/>
  <linearGradient id="z" x1="1466.7" x2="1484.5" y1="270" y2="303.34" gradientTransform="matrix(1.1184 0 0 .99987 -1035.7 15.179)" gradientUnits="userSpaceOnUse" xlink:href="#e"/>
 </defs>
 <g transform="matrix(.28018 0 0 .28018 -4.042e-5 0)">
  <g transform="translate(110.14 87.785)" fill-rule="evenodd" stroke="#000" stroke-width="1.0575">
   <path d="m617.08 54.523c74.48-50.779 218.77-79.631 315.7-16.362-12.89 74.179-131.66 123.2-208.94 140.44-63.55-8.67-137-66.48-106.76-124.08z"/>
   <path d="m270.89 65.43c28.31 55.58-38.77 120.31-99.13 128.16-69.5-18.05-182-43.23-196.73-145.88 99.645-64.473 206.55-35.132 295.86 17.725z"/>
   <path d="m620.13 61.34c41.79-40.317 200.4-75.064 298.92-24.542-107.37 6.8922-190.59 18.3-247.06 73.626-50.373-11.483-72.291-0.58647-51.853-49.084z" fill="#FFF" filter="url(#ar)" opacity=".79167"/>
   <path d="m269.37 79.064c-93.94-71.688-216.05-70.571-279.09-28.632 107.76 21.488 190.18 29.601 234.86 80.443 47.736-11.876 64.959-7.391 44.227-51.811z" fill="#FFF" filter="url(#aq)" opacity=".72756"/>
  </g>
  <g transform="translate(110.14 87.785)">
   <g transform="matrix(1.1184 0 0 .99987 -118 .056835)" fill-rule="evenodd">
    <path d="m175.63 573.6c47 149.41 137.64 226.16 171.07 342.83 82.538 3.4316 259.27 2.6578 352.71 3.5327 80.959-186.73 135.74-208.74 154.15-347.54 0 0 30.952 0.13733 102.38 51.566 86.374 82.301 87.737-257.7-163.14-314.71-42.81-12.845-9.0726-147.76-9.0726-147.76s-37.49-24.119-85.504-71.832-114.01-77.131-186.81-77.131c-73.337 0-139.77 29.92-187.86 78.273-48.094 48.353-89.997 90.364-89.997 90.364s43.395 126.62-2e-3 136.36c-45.31 10.167-79.391 26.113-123.96 66.502-105.27 101.22-106.84 280.23-42.815 239.59 71.428-47.146 108.85-50.04 108.85-50.04z" stroke="#000" stroke-width="2.3"/>
    <path transform="matrix(1.0863 0 0 1.0104 -1130.3 27.099)" d="m1720.3 175.49a209.41 177.71 0 1 1 0 -3e-3" fill="#FFF" filter="url(#aw)" opacity=".57692"/>
    <path d="m793.97 671.61c-6.8094 84.556-41.374 121.32-79.652 159.71-37.449 37.559-339.14 22.424-375.28-6.7473-36.141-29.172-64.364-43.719-73.918-154.76-9.4105-109.37 103.28-253.86 253.9-253.86 149.51 0 281.92 169.07 274.94 255.66z" fill="url(#aj)"/>
    <path d="m308.79 556.74c34.36 102.95 30.503 132.64 13.533 222.72-9.6709 17.016-13.218 8.6769-23.797 5.251-22.235-25.232-63.439-71.551-94.567-163.69 16.899 29.645 22.469 50.554 50.158 53.96 24.762-46.483 32.436-69.286 54.672-118.24z" fill="#FFF" fill-opacity=".38571" filter="url(#ao)"/>
    <path transform="matrix(1.0435 0 0 1.0187 -33.96 -13.175)" d="m725.09 284.44a109.92 101.24 0 1 1 0 -2e-3" fill="url(#ai)" filter="url(#an)" stroke="#000" stroke-width="8.729"/>
    <path d="m729.39 529.27c16.359 119.13-45.726 166.42-38.645 260.22 13.716 28.248 35.689 23.743 51.654 14.331 29.929-54.83 93.923-142.33 93.518-207.58-15.83 30.943-17.191 50.774-47.754 66.95-11.409-32.661-27.648-65.659-58.773-133.92z" fill="#FFF" fill-opacity=".38571" filter="url(#ap)"/>
    <path d="m883.23 903.47c0 16.9-4.7789 23.005-13.42 37.655h-314.52c-8.6405-14.65-13.42-20.754-13.42-37.655 0-67.602 76.464-122.47 170.68-122.47 94.214 0 170.68 54.864 170.68 122.46" fill="url(#y)"/>
    <path d="m181.18 937.27c-8.6405-14.65-13.42-20.754-13.42-37.655" fill="#a0a0a0" filter="url(#au)"/>
    <path d="m487.91 903.47c0 16.9-4.779 23.005-13.42 37.655h-314.52c-8.6405-14.65-13.42-20.754-13.42-37.655 0-67.602 76.464-122.47 170.68-122.47 94.214 0 170.68 54.864 170.68 122.46" fill="url(#x)"/>
    <path transform="matrix(1.4968 0 0 .96937 -311.9 10.18)" d="m690.63 299.87a73.528 115.29 0 1 1 0 -2e-3" filter="url(#al)"/>
    <path transform="matrix(1.1818 0 0 1.1345 -81.493 -58.764)" d="m511.04 286.37a94.493 120.53 0 1 1 0 -2e-3" fill="url(#ah)" filter="url(#am)" stroke="#000" stroke-width="7.7728"/>
    <path transform="matrix(1.2835 0 0 1.2542 -142.16 -58.756)" d="m507.18 269.02a77.137 97.386 0 1 1 0 -2e-3" filter="url(#ak)" stroke="#000" stroke-width="2.3645"/>
    <path transform="matrix(1.3333 0 0 1.4792 -1450.2 -395.89)" d="m1382.7 852.37a78.102 46.282 0 1 1 0 -8.1e-4" fill="url(#f)" opacity=".8"/>
    <path transform="matrix(1.3333 0 0 1.4792 -1000.9 -395.89)" d="m1382.7 852.37a78.102 46.282 0 1 1 0 -8.1e-4" fill="url(#f)" opacity=".8"/>
    <path d="m48.348 526.91s143.27-134.22 184.33-119.33c39.246 14.236 11.41-71.308 11.41-71.308-103.25 0.0402-178.37 100.13-195.74 190.64z" fill="#FFF" filter="url(#ax)" opacity=".64744"/>
    <path d="m39.566 643.7c8.8198-17.611 54.529-80.078 145.32-81.244l-145.32 81.24z" fill="#FFF" fill-opacity=".38571" filter="url(#as)"/>
    <path d="m997.93 535.38s-109.03-141.67-196.83-132.32c-31.451 3.3499-21.199-70.982-21.199-70.982s52.997 0.37856 84.74 17.373c59.136 34.262 114.63 89.832 133.29 185.93z" fill="#FFF" filter="url(#ay)" opacity=".58333"/>
    <path d="m979.81 638c-22.557-43.728-83.94-80.181-131.46-73.777l131.46 73.777z" fill="#FFF" fill-opacity=".38571" filter="url(#at)"/>
   </g>
  </g>
  <g transform="translate(110.14 87.785)" fill-rule="evenodd">
   <path d="m272.93 373.6c-1.4327 33.277 2.0878 57.994 2.0511 80.091-17.073 19.438-47.488 67.379-30.179 102.26 42.051 86.722 373.06 94.521 437.88 8.6768 17.744-32.488-7.7614-87.297-32.489-109.81-1.3158-28.306 0.52786-64.239-1.3532-103.45-74.04-122.75-296.42-121.93-375.91 22.23z" fill="url(#w)" stroke="url(#v)" stroke-width="1.9035"/>
   <path d="m506.98 521.9s7.4574 19.26 8.0097 35.557c16.296-4.9385 24.858-9.877 24.858-9.877s-4.143-25.68-32.868-25.68z" fill="url(#ag)"/>
  </g>
  <path transform="matrix(1.2016 0 0 1.0793 -41.777 129.33)" d="m671.07 451.62a158.02 74.214 0 1 1 -2e-3 -0.355" fill="url(#u)" filter="url(#av)"/>
  <g transform="translate(110.14 87.785)">
   <path d="m595.96 515.25c1.4867-58.301-270.81-68.272-273.45 0.58666 0.66659 62.443 273.22 63.983 273.45-0.58666z" fill="url(#t)" fill-rule="evenodd"/>
  </g>
  <g transform="translate(110.14 87.785)" fill-rule="evenodd">
   <path d="m422.74 479.03c76.001 15.154 108.67 20.318 137.38 57.261 97.816-39.745-81.66-72.155-137.38-57.261z" fill="url(#af)" opacity=".8"/>
   <path d="m338.65 505.36c1.7828 6.9065 115.32 51.749 115.32 51.749-76.919 7.8342-152.8-33.01-115.32-51.749z" fill="#FFF" fill-opacity=".42857"/>
  </g>
  <path d="m656.85 608.6a37.913 18.386 0 1 1 0 -3.2e-4" fill="url(#s)" stroke="url(#r)" stroke-width="2.115"/>
  <path d="m558.89 608.6a39.076 16.541 0 1 1 0 -2.8e-4" fill="url(#q)" stroke="url(#p)" stroke-width="2.115"/>
  <path transform="matrix(.77767 .44131 -.58719 .58446 354.08 -293.18)" d="m768.25 296.4a73.367 50.598 0 1 1 -146.73 0 73.367 50.598 0 1 1 146.73 0z" fill="#180019" filter="url(#i)"/>
  <path transform="matrix(.84111 -.33783 .14711 .6311 -226 225.97)" d="m768.25 296.4a73.367 50.598 0 1 1 -146.73 0 73.367 50.598 0 1 1 146.73 0z" fill="#180019" filter="url(#i)"/>
  <g transform="translate(110.14 87.785)" fill-rule="evenodd" stroke="#444" stroke-width="2">
   <path d="m562.83 63.349c38.136-45.59 49.618 23.646 199.97-135.37 69.398-75.498-6.2409 160.89-112.14 199.89-33.665 10.541-104.12-47.722-87.827-64.516z" fill="url(#o)"/>
   <path d="m338.44 50.86c-38.136-33.784-39.498 13.526-188.16-120.19-69.398-75.498-5.5653 145.71 100.33 184.71 33.665 10.541 104.12-47.722 87.827-64.516z" fill="url(#n)"/>
  </g>
  <g transform="translate(110.14 87.785)" fill-rule="evenodd">
   <path transform="matrix(1.4784 0 0 1.1066 -342.72 -57.081)" d="m692.31 306.62a77.137 79.066 0 1 1 0 -1e-3" fill="url(#m)"/>
   <path transform="matrix(1.3663 0 0 1.2249 -246.53 -51.402)" d="m507.18 269.02a77.137 97.386 0 1 1 0 -2e-3" fill="url(#l)"/>
   <path transform="matrix(1.1184 0 0 .99987 86.952 -10.781)" d="m509.11 296.02a26.998 39.533 0 1 1 0 -6.9e-4"/>
   <path transform="matrix(1.1184 0 0 .99987 -138.67 -16.488)" d="m509.11 296.02a26.998 39.533 0 1 1 0 -6.9e-4" stroke="#000" stroke-width="2.3"/>
   <path d="m270.55 204.31s30.195-50.133 88.428-32.779 69.017 46.277 84.115 115.69c15.097 69.415-60.39 7.7128-60.39 7.7128s-8.6272-59.774-47.449-77.128-64.704-11.569-64.704-13.497z" fill="url(#ae)" opacity=".8"/>
   <path d="m228.66 243.98s9.3234 67.822 53.058 105.13c43.734 37.305 79.631 45.478 114.23 50.058-27.242 10.293-99.335-5.7148-132.29-38.489-32.954-32.775-37.144-115.37-34.996-116.7z" fill="url(#k)" opacity=".8"/>
   <path d="m551.32 204.48s62.547-9.641 97.055 28.923c34.509 38.564 23.725 52.061 23.725 52.061l-47.449 1.9282s-30.195-61.702-73.331-82.912z" fill="url(#ad)" opacity=".8"/>
   <path d="m468.59 329.68s56.783 29.958 106.39 24.173c49.606-5.7846 72.998-22.227 92.998-39.791-5.0203 21.072-51.686 54.305-92.665 56.233-40.979 1.9282-106.72-38.687-106.72-40.615z" fill="url(#j)" opacity=".8"/>
   <path d="m397.18 239.67s7.4574 19.26 8.0097 35.557c16.296-4.9385 24.858-9.877 24.858-9.877s-4.143-25.68-32.868-25.68z" fill="url(#ac)"/>
   <path d="m377.18 254.71s-2.762 21.482 7.4574 36.051 21.82 19.26 30.658 20.989c-2.762 2.2223-15.191 8.1485-26.791-0.24692s-17.4-16.544-17.4-27.656 2.2095-24.939 6.0763-29.137z" fill="url(#ab)"/>
   <path d="m621.12 248.06c-0.88494 3.3659 3.386 6.836 3.5182 10.493 2.5537 8.2662 3.8706 16.802 4.9397 25.284 8.1365-3.2664 18.332-5.065 24.465-10.874-2.8643-13.523-16.944-25.548-32.923-24.903z" fill="url(#aa)"/>
   <path d="m606.6 260.49s-2.762 21.482 7.4574 36.051 21.82 19.26 30.658 20.989c-2.762 2.2223-15.191 8.1485-26.791-0.24693s-17.4-16.544-17.4-27.656 2.2095-24.939 6.0763-29.137z" fill="url(#z)"/>
  </g>
 </g>
</svg>
