<?xml version="1.0" encoding="UTF-8"?>
<svg viewBox="0 0 116.34243 128.90929" xmlns="http://www.w3.org/2000/svg" xmlns:xlink="http://www.w3.org/1999/xlink">
 <defs>
  <filter id="o" x="-.02216" y="-.77241" width="1.0443" height="2.5448">
   <feGaussianBlur stdDeviation="1.8106"/>
  </filter>
  <filter id="n" x="-.02243" y="-.58473" width="1.0449" height="2.1694">
   <feGaussianBlur stdDeviation="1.7618"/>
  </filter>
  <linearGradient id="b">
   <stop stop-color="#a5a5a5" offset="0"/>
   <stop offset="1"/>
  </linearGradient>
  <linearGradient id="m" x1="90.687" x2="94.999" gradientUnits="userSpaceOnUse">
   <stop stop-color="#ffb142" offset="0"/>
   <stop stop-color="#c87600" offset="1"/>
  </linearGradient>
  <linearGradient id="l" x1="391.53" x2="391.31" y1="-21.447" y2="-18.324" gradientUnits="userSpaceOnUse" spreadMethod="reflect">
   <stop stop-color="#636363" offset="0"/>
   <stop stop-color="#d7d7d7" offset="1"/>
  </linearGradient>
  <linearGradient id="k" x2="0" y1="640.03" y2="643.96" gradientUnits="userSpaceOnUse">
   <stop stop-color="#fff" offset="0"/>
   <stop stop-color="#fff" stop-opacity="0" offset="1"/>
  </linearGradient>
  <linearGradient id="j" x2="0" y1="653.36" y2="644.61" gradientUnits="userSpaceOnUse">
   <stop offset="0"/>
   <stop stop-color="#fff" stop-opacity="0" offset="1"/>
  </linearGradient>
  <linearGradient id="i" x1="348.74" x2="349.49" y1="-112.45" y2="-112.46" gradientUnits="userSpaceOnUse">
   <stop stop-color="#333" offset="0"/>
   <stop stop-color="#404040" offset=".3534"/>
   <stop stop-color="#f2f2f2" stop-opacity=".1504" offset="1"/>
  </linearGradient>
  <linearGradient id="h" x1="370.05" x2="370.55" y1="-18.331" y2="-18.245" gradientUnits="userSpaceOnUse" xlink:href="D:\Vector_Art\my_folder\OCAL_dev\#linearGradient4349"/>
  <radialGradient id="g" cx="414.68" cy="-8.8805" r="123.55" gradientTransform="matrix(-1.8232e-6 .27968 -.60927 0 101.73 -39.26)" gradientUnits="userSpaceOnUse">
   <stop stop-color="#ffb142" offset="0"/>
   <stop stop-color="#ffb141" offset=".8868"/>
   <stop stop-color="#c87600" offset="1"/>
  </radialGradient>
  <radialGradient id="e" cx="176.5" cy="765.1" r="37.578" gradientTransform="matrix(-.57361 .03177 -.0102 -.18413 504.14 116.07)" gradientUnits="userSpaceOnUse" spreadMethod="reflect">
   <stop stop-color="#c9c9c9" offset="0"/>
   <stop stop-color="#efefef" offset=".3946"/>
   <stop stop-color="#fff" offset=".4459"/>
   <stop stop-color="#dedede" offset=".5436"/>
   <stop stop-color="#fcfcfc" offset="1"/>
  </radialGradient>
  <radialGradient id="f" cx="610.46" cy="483.45" r="167.56" gradientTransform="matrix(0 -.48219 .4319 -1.2542e-6 -151.97 551.35)" gradientUnits="userSpaceOnUse" xlink:href="#b"/>
  <radialGradient id="d" cx="380.26" cy="622.49" r="59.255" gradientTransform="matrix(0 -.74351 .66041 0 -364.7 582.13)" gradientUnits="userSpaceOnUse" xlink:href="#b"/>
  <radialGradient id="c" cx="371.45" cy="647.69" r="59.255" gradientTransform="matrix(0 -.74351 -.66041 0 552.03 582.13)" gradientUnits="userSpaceOnUse" xlink:href="#b"/>
 </defs>
 <g transform="translate(-256.12 -630.78)">
  <g transform="translate(465.28 823.94)">
   <g transform="matrix(.96934 0 0 1 -242.08 -470.28)" fill-rule="evenodd">
    <path d="m81.781 385.54c-15.668 1.6128-33.638 14.291-26.495 17.056s27.873 3.9181 31.79 0.69241c2.0127-1.6576 5.6138-5.8087 6.0382-9.704 0.42497 3.8949 4.0155 8.0466 6.0281 9.704 3.9169 3.2257 24.658 2.0724 31.8-0.69241s-10.827-15.443-26.495-17.056c-8.0678 0.77761-10.97 3.4884-11.333 6.5983-0.36356-3.1099-3.2654-5.8207-11.333-6.5983z" fill="url(#g)" stroke="#000" stroke-width="1.5639"/>
    <path d="m81.784 385.55c-7.69 0.79161-15.927 4.249-21.485 7.8915 8.4173 3.8928 18.709 6.2918 29.865 6.5678 1.4296-1.8809 2.7102-4.1871 2.9529-6.415 0.24081 2.207 1.4914 4.4927 2.902 6.3641 10.973-0.4646 21.052-2.9801 29.254-6.9445-5.5378-3.4836-13.432-6.7029-20.823-7.4638-8.0678 0.77762-10.97 3.4884-11.333 6.5983-0.36356-3.1099-3.2654-5.8207-11.333-6.5983z" fill-opacity=".3137"/>
   </g>
   <g transform="matrix(.96934 0 0 1 -242.08 -470.28)">
    <path d="m146.28 340.23a53.948 53.948 0 0 1 -107.9 0 53.948 53.948 0 1 1 107.9 0z" fill="url(#f)" stroke="#000" stroke-linecap="round" stroke-width="1.5639"/>
    <path d="m118.99 367.2a26.153 26.153 0 1 1 -52.307 0 26.153 26.153 0 1 1 52.307 0z" fill="#fff" stroke="#000" stroke-linecap="round" stroke-width="1.6292"/>
    <path d="m144.15 325.23c0.10951 1.4027 0.1731 2.8155 0.1731 4.2461 0 29.779-24.178 53.947-53.957 53.947-24.575 0-45.316-16.459-51.819-38.948 2.1699 27.795 25.426 49.701 53.774 49.701 29.779 0 53.957-24.168 53.957-53.947 0-5.2041-0.75099-10.237-2.1282-14.999z" fill-opacity=".3137"/>
   </g>
   <g transform="matrix(.94223 0 0 .96779 -306.01 6.3673)" stroke="#000" stroke-linecap="round" stroke-width="1.6802">
    <path d="m218.35-139.76c0 7.281-1.4524 14.559-4.2404 21.285s-6.9122 12.895-12.061 18.043-11.32 9.2694-18.047 12.055-14.005 4.233-21.286 4.233-14.559-1.4474-21.286-4.233-12.898-6.9076-18.047-12.055-9.2733-11.317-12.061-18.043-4.2379-14.004-4.2404-21.285 1.4437-14.566 4.2293-21.296c19.765 33.58 80.738 36.134 102.81 0 2.7858 6.7305 4.2319 14.012 4.2293 21.296z" fill="#357f6e"/>
    <path d="m108.55-152.47c0.6861-2.9313 1.6087-5.8071 2.7601-8.5887 19.765 33.58 80.738 36.134 102.81 0 1.2608 3.0463 2.2473 6.2055 2.9492 9.4267-22.059 32.349-89.606 28.831-108.52-0.838z" fill="#286053"/>
   </g>
   <g transform="matrix(.32044 .03212 .02795 -.27051 -189.33 -45.95)" fill="#cf0">
    <path d="m65.959 146.21c17.436 5.8642 10.198 21.353 5.9499 58.107-12.411-6.3127-62.72-0.58764-68.907-14.41-2.6141-22.432-1.1112-28.251 8.6808-36.014 11.018-8.7352 36.124-12.896 54.277-7.683z" fill="#357f6e" fill-rule="evenodd" stroke="#000" stroke-linecap="round" stroke-linejoin="round" stroke-width="5"/>
   </g>
   <g transform="matrix(.32044 .03212 .02795 -.27051 -189.33 -45.95)" fill="#a80">
    <path d="m73.358 197.85c-0.57395 3.4563-0.86848 7.0855-1.2592 10.786-3.0451-2.163-40.862-5.272-58.938-2.1598-15.272 2.6294-8.6757 0.58549-9.8788-9.5352-0.28439-1.5254-0.49005-3.0131-0.61887-4.4616 9.981-6.0734 76.55-8.5432 70.695 5.3712z" fill="#286053" fill-rule="evenodd" stroke="#000" stroke-linecap="round" stroke-linejoin="round" stroke-width="3.9531"/>
   </g>
   <g transform="matrix(.96934 0 0 1 -242.08 -470.28)">
    <path d="m81.252 304.33c-7.4731 0-13.543 6.9841-13.543 15.589s6.0697 15.589 13.543 15.589c4.3917 0 8.2889-2.4146 10.763-6.1503 2.4738 3.7383 6.3795 6.1503 10.773 6.1503 7.4731 0 13.543-6.9841 13.543-15.589s-6.0697-15.589-13.543-15.589c-4.3931 0-8.2992 2.4127-10.773 6.1503-2.4741-3.7348-6.3718-6.1503-10.763-6.1503z" fill="#fff" stroke="#000" stroke-linecap="round" stroke-width="1.6292"/>
    <path d="m92.662 331.22c-4.7179 0-9.846 4.2966-9.6408 7.0102s8.4101 14.02 10.256 14.02 9.0255-11.081 8.8203-14.247-6.3588-7.0102-9.4357-6.7841z" fill-opacity=".3137" fill-rule="evenodd"/>
    <path d="m91.917 328.5c-4.7179 0-9.846 3.8974-9.6408 6.3588s8.4101 12.718 10.256 12.718 9.0255-10.051 8.8204-12.923-6.3589-6.3588-9.4357-6.1537z" fill="url(#m)" fill-rule="evenodd" stroke="#000" stroke-width="1.6292"/>
    <path d="m89.648 322.66a3.3846 3.3846 0 0 1 -6.7691 0 3.3846 3.3846 0 1 1 6.7691 0z" stroke="#000" stroke-linecap="round" stroke-width="1.6292"/>
    <path d="m101.76 322.66a3.3846 3.3846 0 1 1 -6.7691 0 3.3846 3.3846 0 1 1 6.7691 0z" stroke="#000" stroke-linecap="round" stroke-width="1.6292"/>
   </g>
   <path d="m-102.24-144.52c0.10662 1.4027 0.16853 2.8155 0.16853 4.2461 0 29.779-23.54 53.947-52.532 53.947-23.926 0-44.119-16.459-50.451-38.948 2.1126 27.795 24.754 49.701 52.354 49.701 28.993 0 52.532-24.168 52.532-53.947 0-5.2041-0.73115-10.237-2.072-14.999z" fill-opacity=".3137"/>
   <g transform="matrix(.75762 -.28753 .28753 .75762 -443.22 -.30105)">
    <path d="m395.4-0.65132c-4.8763 0.01328-9.3556-0.06374-14.258-0.11829-12.236 0.43235-24.736-0.87546-37.247 0.16115-8.5973 0.90631-27.614 0.17207-28.492 0.16281-0.723 5e-3 -2.1247-0.04247-2.1709 0.01576-2.5284 1.7801-1.9834 7.4676 0 8.5692 0.10722 0.1569 1.9864 0 2.981 0 8.9729-0.17825 22.516-1.2525 35.599 0 5.4071 0 17.256 0.75803 25.215-1.111 0.81602-1.1913 6.9157-1.5218 10.767 0.22961 9.0724 1.2062 16.972 0.75172 20.97-6.1778-3.8114-1.1828-9.5698-1.7417-13.362-1.7315z"/>
    <g transform="translate(-.00845 21.611)">
     <path d="m380.41-20.129 25.017 0.64322c-5.1658 5.8785-12.548 3.7509-19.773 2.4951-0.17873-0.03763-0.5139-0.60644-0.78481-0.62706-1.1205-0.09259-3.3585-0.46168-4.4281-0.43728l-0.0312-2.074z" fill="url(#e)"/>
     <path d="m370.43-20.508h0.54091l-0.87301 4.6774-0.50015 0.02473 0.83225-4.7021v-2.8e-5" fill="url(#h)"/>
     <path d="m316.47-20.506c0.84569 0.0061 19.342 1.0766 27.45 0.01002l0.35306 0.35306c-8.1081 1.0666-26.604-0.0039-27.45-0.01002z" fill="#006651" stroke="#006651" stroke-width=".03329"/>
     <path d="m343.92-20.496c0.72998-0.09533 24.386 0 36.58 0l0.35306 0.35306c-12.193 0-35.85-0.09533-36.58 0z" fill="#006651" stroke="#006651" stroke-width=".03329"/>
     <path d="m380.5014-20.49621c.66149.72166.47466,2.20539.0414,2.62118l.35306.35306c.43321-.41579.62004-1.89952-.0414-2.62118z" fill="#333" stroke="#333" stroke-width=".03329"/>
     <path d="m380.54-17.875c-1.4112 0.03252-3.4908-0.46629-4.764 1.4985l0.35306 0.35306c1.2732-1.9648 3.3528-1.466 4.764-1.4985z" fill="#363636" stroke="#303030" stroke-width=".03329"/>
     <path d="m375.78-16.377c-0.36785 0.56525-19.029 1.0592-24.237 1.0592l0.35306 0.35306c5.2076 0 23.869-0.49392 24.237-1.0592z" fill="#333" stroke="#333" stroke-width=".03329"/>
     <path d="m351.54-15.317c-12.6-1.6651-25.643-0.49029-34.285 0l0.35306 0.35306c8.6418-0.49029 21.685-1.6651 34.285 0z" fill="#333" stroke="#333" stroke-width=".03329"/>
     <path d="m317.26-15.317c-0.95789 0-2.7704 0.10327-2.8737 0l0.35305 0.35306c0.10327 0.10327 1.9158 0 2.8737 0z" fill="#333" stroke="#333" stroke-width=".03329"/>
     <path d="m314.38-15.317 0.35305 0.35306z" fill="#006651" stroke="#006651" stroke-width=".03329"/>
     <path d="m314.38286-15.31735c-.003-.0027-.005-.0052-.008-.0079l.35306.35306c.003.0027.005.0053.008.0079z" fill="#006651" stroke="#006651" stroke-width=".03329"/>
     <path d="m314.37-15.325c-1.0321-1.0321-0.75543-4.5715 8e-3 -5.171l0.35305 0.35306c-0.76336 0.59953-1.04 4.1389-8e-3 5.171z" fill="#2b2b2b" stroke="#333" stroke-width=".03329"/>
     <path d="m314.38-20.496v3e-6l0.35305 0.35306v-4e-6z" fill="#006651" stroke="#006651" stroke-width=".03329"/>
     <path d="m314.38-20.496v-3e-6l0.35305 0.35306v4e-6z" fill="#006651" stroke="#006651" stroke-width=".03329"/>
     <path d="m314.38286-20.49621c.0445-.03835 1.39265-.0067 2.08898-.01002l.35306.35306c-.69633.0033-2.04444-.02833-2.08899.01002z" fill="#006651" stroke="#333" stroke-width=".03329"/>
     <path d="m380.38-20.129c8.3946 0.06383 16.699-1.1361 25.09 0.64322-6.6151 5.3733-16.736 1.3212-25.06 1.4762l-0.0294-2.1195z" fill="url(#l)"/>
     <path d="m316.47-20.506c0.84569 0.0061 19.342 1.0766 27.45 0.01002 0.72998-0.09533 24.386 0 36.58 0 0.66149 0.72166 0.47466 2.2054 0.0414 2.6212-1.4112 0.03252-3.4908-0.46629-4.764 1.4985-0.36785 0.56525-19.029 1.0592-24.237 1.0592-12.6-1.6651-25.643-0.49029-34.285 0-0.9579 0-2.7704 0.10327-2.8737 0-1.0415-1.0219-0.76532-4.5778 0-5.1789v3e-6 -3e-6c0.0445-0.03835 1.3926-0.0067 2.089-0.01002z" fill="#c4c4c4"/>
     <path transform="matrix(.33287 0 0 .33287 338.94 -233.25)" d="m-65.762 639.93c2.4672 0.0147 56.429 2.5785 80.083 0.024 2.1297-0.22831 71.146 0 106.72 0 0.9385 0.84051 1.2917 2.1127 1.2616 3.3124l-196.12 2.2119c0.14491-2.5033 0.88857-4.832 1.9622-5.5242 0.12997-0.0919 4.063-0.016 6.0945-0.024z" fill="url(#k)" filter="url(#o)" opacity=".7435"/>
     <path transform="matrix(.33287 0 0 .33287 338.94 -233.25)" d="m114.76 646.96c-2.7911 1.9658-3.8055 1.9484-6.0642 3.6828-1.086 1.5778-56.178 2.9565-71.551 2.9565-37.196-4.6477-75.703-1.3686-101.22 0-2.8278 0-8.1787 0.28825-8.4835 0-1.5263-1.416-1.219-4.0754-1.1273-7.1034 65.76 0.43861 122.38 6.8478 188.44 0.46407z" fill="url(#j)" filter="url(#n)" opacity=".743"/>
     <path id="a" transform="rotate(15)" d="m348.9-114.24h0.45546a0.12489 0.088418 0 0 1 0.12489 0.08842v3.4015a0.12489 0.088418 0 0 1 -0.12489 0.08842h-0.45546a0.12489 0.088418 0 0 1 -0.12489 -0.08842v-3.4015a0.12489 0.088418 0 0 1 0.12489 -0.08842" fill="url(#i)"/>
     <use transform="translate(1.3688)" width="574.56171" height="399.41446" xlink:href="#a"/>
     <use transform="translate(2.7375)" width="574.56171" height="399.41446" xlink:href="#a"/>
     <use transform="translate(4.1063)" width="574.56171" height="399.41446" xlink:href="#a"/>
     <use transform="translate(5.4751)" width="574.56171" height="399.41446" xlink:href="#a"/>
     <use transform="translate(6.8439)" width="574.56171" height="399.41446" xlink:href="#a"/>
     <use transform="translate(8.2126)" width="574.56171" height="399.41446" xlink:href="#a"/>
    </g>
   </g>
   <g transform="matrix(.96429 -.0988 .10192 .99479 -276.07 -464.29)" fill-rule="evenodd" stroke="#000" stroke-width="1.6292">
    <path d="m51.639 328.16c15.677 5.6371-4.615 30.676 12.323 52.523 3.1308 4.0382-18.856 0.68126-26.629-21.696-7.559-21.762-0.36897-35.041 14.306-30.827z" fill="#fff"/>
    <path d="m51.639 328.16c15.677 5.6371-13.877 33.276 12.323 52.523 7.3726 5.416-18.856 0.68126-26.629-21.696-7.559-21.762-0.36897-35.041 14.306-30.827z" fill="url(#d)"/>
   </g>
   <g transform="matrix(.32042 -.03283 .03425 .33428 -215.07 -184.53)" fill="#cf0">
    <path d="m55.736 131.04c28.131 10.116 18.523 40.588 16.082 77.557-7.4018-3.8251-66.131 13.726-68.537-18.656-5.2281-44.863 16.15-69.325 52.455-58.9z" fill="#357f6e" fill-rule="evenodd" stroke="#000" stroke-width="5"/>
   </g>
   <g transform="matrix(.32042 -.03283 .03425 .33428 -215.07 -184.53)" fill="#a80">
    <path d="m73.358 191.4c-0.57395 5.5293-1.1485 11.282-1.5392 17.201-7.4018-3.8251-66.131 13.726-68.537-18.656-0.28439-2.4404-0.49005-4.8204-0.61887-7.1377 7.0286 14.837 72.566-2.3172 70.695 8.5928z" fill="#286053" fill-rule="evenodd" stroke="#000" stroke-width="5"/>
   </g>
   <g transform="matrix(.96934 0 0 1 -242.08 -470.28)" fill-rule="evenodd" stroke="#000" stroke-width="1.6292">
    <path d="m135.69 328.16c-15.677 5.6371 4.615 30.676-12.323 52.523-3.1308 4.0382 18.856 0.68126 26.629-21.696 7.559-21.762 0.36897-35.041-14.306-30.827z" fill="#fff"/>
    <path d="m135.69 328.16c-15.677 5.6371 13.877 33.276-12.323 52.523-7.3726 5.416 18.856 0.68126 26.629-21.696 7.559-21.762 0.36897-35.041-14.306-30.827z" fill="url(#c)"/>
   </g>
   <g transform="matrix(.93471 0 0 1 -265.73 -.91004)" fill-rule="evenodd">
    <path d="m166.4-141.63c-9.3698 3.3991-6.1695 13.639-5.3566 26.062 2.4654-1.2854 22.027 4.6122 22.828-6.2692 1.7414-15.075-5.3791-23.296-17.471-19.792z" fill="#357f6e" stroke="#000" stroke-width="1.6728"/>
    <path d="m171.63-142.27-0.42005 9e-3c5.4479 4.3901 5.4982 20.353 3.5154 26.803 3.1144 0.87529 1.2631 0.33049 7.3622-1.5401 3.4509-17.907 0.99927-25.255-10.458-25.274z" fill-opacity=".3137"/>
    <path d="m160.48-120.87c0.19117 1.858 0.38253 3.7911 0.51268 5.7802 2.4654-1.2854 22.027 4.6122 22.828-6.2692 0.0947-0.82004 0.16322-1.6198 0.20613-2.3985-2.341 4.9856-24.17-0.77864-23.547 2.8874z" fill="#286053" stroke="#000" stroke-width="1.6728"/>
   </g>
   <g transform="translate(-702.65 -14.292)" stroke="#000">
    <path d="m526.79-129.9c0.3076 11.849 0.93938 12.581-2.5254 15.405 17.779 13.539 29.698 12.968 49.497 0.25254-5.9713-4.4192-1.7508-9.3469-1.2627-15.657-8.0327 4.4686-15.78 6.2649-23.359 6.0458s-14.99-2.4533-22.351-6.0458z" fill="#357f6e"/>
    <path d="m503.03-139.65c7.9287 4.0959 14.484 8.9003 24.223 13.128 0.49923-0.63786 1.3133-1.0664 0.4467-3.0916-7.6849-1.1526-15.293-6.8012-22.834-12.117-0.98976-0.24063-1.7794 0.36805-1.8357 2.0815z" fill="#357f6e" stroke-linecap="round" stroke-linejoin="round"/>
    <path d="m596.84-140.23c-8.1908 4.4199-14.963 9.6042-25.024 14.166-0.51573-0.68831-1.3567-1.1507-0.46146-3.3362 7.9389-1.2437 15.799-7.3391 23.589-13.076 1.0225-0.25966 1.8382 0.39716 1.8963 2.2461z" fill="#357f6e" stroke-linecap="round" stroke-linejoin="round" stroke-width="1.0558"/>
    <path d="m502.44-137.23c8.2808 4.8 11.341 12.738 21.518 22.368 0.6742-0.6759 3.3016-0.30573 2.7651-3.0148-7.7005-4.4148-14.97-15.549-23.063-21.378-1.0321-0.52553-2.168 0.59145-1.2203 2.0242z" fill="#357f6e" stroke-linecap="round" stroke-linejoin="round" stroke-width="1.1832"/>
    <path d="m597.2-137.59c-8.8872 4.9795-12.171 13.214-23.094 23.205-0.72357-0.70117-3.5434-0.31716-2.9676-3.1275 8.2645-4.5799 16.066-16.131 24.752-22.177 1.1077-0.54518 2.3268 0.61356 1.3097 2.0999z" fill="#357f6e" stroke-linecap="round" stroke-linejoin="round" stroke-width="1.2484"/>
    <g fill="none" opacity=".2696" stroke-linecap="round" stroke-linejoin="round">
     <path d="m527.5-125.64c3.2932 1.1806 6.7976 2.8075 10.845 4.1491 3.2157 1.1324 8.6822 2.9782 10.397 2.9435 1.557 0.15472 7.025-1.2216 10.601-2.9435 4.1138-1.28 7.3663-2.6021 11.371-4.1491"/>
     <path d="m527.32-121.71c3.3286 0.92668 9.5384 3.1774 13.785 4.5875 3.8678 1.8521 6.4854 2.5602 7.5173 2.4443 0.99871 0.14778 3.6017-0.49981 7.4593-2.4443 4.2364-1.3762 10.53-3.4933 14.453-4.5875"/>
     <path d="m527.14-117.78c3.5054 1.3815 10.282 3.3216 14.541 4.6124 2.6407 1.2448 6.0665 2.8792 7.0925 2.7535 2.0938 0.0583 2.878-0.79607 6.9517-2.7535 4.4525-1.3261 11.243-3.3765 14.986-4.6124"/>
     <path d="m526.25-115.64c7.0899 5.0677 19.074 7.966 22.054 8.0834 3.5584 0.21495 15.448-3.6406 23.481-8.0834"/>
    </g>
   </g>
   <g transform="translate(-702.65 -14.292)">
    <path d="m505.08-141.77c14.351-13.844 69.477-16.65 90.409-1.5152 0.46482-4.9063 6.262-8.4093-5.0508-16.415-6.2255-4.7156-1.1076-12.423-17.678-12.879-6.0199-1.1509-12.666-8.7682-25.254-4.5457-10.955-1.0695-26.269 9e-3 -31.315 10.102-16.637 4.2088-15.629 20.225-11.112 25.254z" fill="#357f6e" stroke="#000"/>
    <path d="m521.24-155.91-8.0812-6.566c3.6862 1.9063 6.5645-1.1039 7.5761-4.5457 0.53836 5.7155 5.9622 16.813 0.50508 11.112z" fill="#24574b" opacity=".5"/>
    <path d="m545.73-160.46-6.0609-12.122c5.4791 4.8282 9.4062 3.4481 12.879 0.25253-2.0883 4.8898-2.8449 17.663-6.8185 11.869z" fill="#24574b" opacity=".5"/>
    <path d="m567.96-170.81c-0.72089 4.686-8.2677 17.439-2.0203 13.89l9.849-11.364c-3.2328 1.0279-6.5583 2.334-7.8287-2.5254z" fill="#24574b" opacity=".5"/>
    <path d="m584.12-160.96-1.7678 8.3338c-0.0645 3.9172 4.1486-1.4787 7.0711-3.5355-3.9006-0.3197-4.7087-2.4949-5.3033-4.7982z" fill="#24574b" opacity=".5"/>
    <path d="m513.62-151.69c1.5584 1.9652 0.81228 2.3033 1.0912 3.3651 0.74498 0.17103 1.0437-0.14166 1.3839-0.40941-0.9476-1.0426-1.4084-2.1284-0.96312-3.2945-0.55012-0.0448-1.0391 0.11925-1.512 0.3388z" fill="#2c6b5c" opacity=".5"/>
    <path d="m508-150.05c2.0071 2.2653 1.0992 2.6989 1.4879 3.9472 0.92753 0.1708 1.2836-0.21325 1.6928-0.54575-1.2141-1.1967-1.8285-2.4656-1.3268-3.8689-0.68152-0.0295-1.2788 0.18681-1.854 0.4675z" fill="#2c6b5c" opacity=".5"/>
    <path d="m540.91305-157.7188c1.16534,2.37652.3137,2.55258.3592,3.70741 .73352.34669 1.11522.094 1.5296-.10292-.74356-1.28861-.97228-2.50981-.24259-3.60551-.56035-.1723-1.1053-.11568-1.64621.001z" fill="#2c6b5c" opacity=".5"/>
    <path d="m532.23-156.34c1.3074 2.2445 0.48612 2.4766 0.61159 3.6038 0.74231 0.28791 1.0982 0.0138 1.49-0.20801-0.81819-1.2092-1.1277-2.3885-0.49029-3.5122-0.56058-0.12938-1.09-0.0357-1.6113 0.11643z" fill="#2c6b5c" opacity=".5"/>
    <path d="m523.45-154.94c1.9223 1.9885 1.1972 2.4453 1.6497 3.5834 0.80161 0.10417 1.0649-0.27404 1.378-0.60761-1.1456-1.0414-1.7911-2.1853-1.5057-3.5201-0.57948 0.0128-1.0634 0.24916-1.522 0.54453z" fill="#2c6b5c" opacity=".5"/>
    <path d="m544.25-157.61c1.0461 2.3839 0.20613 2.5233 0.20505 3.661 0.70381 0.37012 1.0872 0.13675 1.5002-0.0405-0.67647-1.297-0.852-2.5073-0.095-3.5561-0.54131-0.19172-1.0766-0.15764-1.6103-0.0643z" fill="#2c6b5c" opacity=".5"/>
    <path d="m528.25-156.05c1.2152 2.4316 0.36769 2.6324 0.43766 3.8254 0.74053 0.34237 1.1167 0.0728 1.5267-0.13997-0.77054-1.316-1.0251-2.5737-0.31895-3.7226-0.56374-0.16586-1.1072-0.0954-1.6454 0.0371z" fill="#2c6b5c" opacity=".5"/>
    <path d="m536.98899-157.21459c.99396,2.45876.0841,2.56582.0211,3.7189 .73584.40379 1.16027.18288 1.61363.02-.65606-1.34215-.77877-2.57597.0914-3.60814-.57099-.21636-1.14781-.20361-1.72611-.13078z" fill="#2c6b5c" opacity=".5"/>
    <path d="m517.72-153.69c1.7645 2.2397 0.85877 2.5818 1.1407 3.768 0.88008 0.22088 1.2512-0.1122 1.6695-0.39379-1.0802-1.1934-1.5779-2.4138-0.99145-3.6844-0.65374-0.073-1.2446 0.0879-1.8188 0.31026z" fill="#2c6b5c" opacity=".5"/>
    <path d="m503.81-147.34c2.2102 2.0359 1.3882 2.5798 1.9148 3.7874 0.91466 0.0608 1.2111-0.36751 1.5649-0.75038-1.3158-1.0571-2.0626-2.2584-1.75-3.728-0.66036 0.0519-1.2096 0.34037-1.7297 0.69101z" fill="#2c6b5c" opacity=".5"/>
    <path d="m549.46833-157.57776c-.84829,2.28301-.11977,2.39346-.0926,3.47025-.59918.3683-.93556.15723-1.29635,0 .55418-1.2449.67783-2.39489 0-3.36819 .46298-.1953.92597-.17674 1.38895-.10206z" fill="#2c6b5c" opacity=".5"/>
    <path d="m561.43-156.84c-1.8545 1.5151-1.0879 1.9674-1.4871 2.8924-0.81364 0.0167-1.1037-0.32765-1.4425-0.63835 1.1132-0.78104 1.7094-1.6937 1.3434-2.8516 0.59308 0.0626 1.1009 0.3064 1.5862 0.59767z" fill="#2c6b5c" opacity=".5"/>
    <path d="m584.78-152.96c-2.1583 1.257-1.7584 1.8163-2.4963 2.686-0.6512-0.0967-0.7235-0.48163-0.84962-0.8397 1.237-0.62609 2.1251-1.456 2.364-2.6652 0.44051 0.14535 0.73089 0.45998 0.98194 0.81891z" fill="#2c6b5c" opacity=".5"/>
    <path d="m575.13-156.12c-2.1975 2.1928-1.336 2.7101-1.835 3.9728-0.93595 0.10662-1.2545-0.31783-1.6304-0.69293 1.3135-1.1467 2.0385-2.4135 1.668-3.904 0.67899 0.0211 1.2521 0.2901 1.7973 0.62412z" fill="#2c6b5c" opacity=".5"/>
    <path d="m588.67-151.92c-1.768 2.0087-0.9683 2.3932-1.3107 3.5001-0.81707 0.15146-1.1308-0.18909-1.4912-0.48393 1.0695-1.0611 1.6108-2.1863 1.1688-3.4307 0.60036-0.0261 1.1265 0.16566 1.6332 0.41455z" fill="#2c6b5c" opacity=".5"/>
    <path d="m570.57-156.8c-1.9793 1.8923-1.1092 2.3542-1.5066 3.4523-0.89954 0.0828-1.2371-0.29181-1.627-0.62385 1.1942-0.98775 1.8102-2.0871 1.3494-3.3941 0.65929 0.026 1.2329 0.26755 1.784 0.56562z" fill="#2c6b5c" opacity=".5"/>
    <path d="m552.7-157.44c-1.2632 2.061-0.35917 2.2213-0.41911 3.2271-0.7836 0.29604-1.187 0.0728-1.6258-0.10219 0.8037-1.1166 1.0592-2.1787 0.29407-3.1393 0.59768-0.14553 1.1767-0.0917 1.7508 0.0144z" fill="#2c6b5c" opacity=".5"/>
    <path d="m564.75436-157.28948c-.90528,2.47499-.0436,2.56025.0321,3.70844-.69003.41999-1.09439.20976-1.52529.0581 .60144-1.35369.70018-2.58677-.13693-3.59534 .5368-.22922 1.08231-.23015 1.63009-.17119z" fill="#2c6b5c" opacity=".5"/>
    <path d="m556.73-156.79c-1.7173 1.5479-1.0366 1.9701-1.4226 2.893-0.73588 0.0411-0.98876-0.28927-1.2866-0.58503 1.0274-0.8027 1.591-1.7194 1.2916-2.8485 0.53436 0.0438 0.98672 0.26844 1.4176 0.54054z" fill="#2c6b5c" opacity=".5"/>
    <path d="m580.26-154.31c-2.006 1.6013-1.3321 2.1083-1.8502 3.1021-0.78675 2.2e-4 -1.0168-0.37939-1.2986-0.7237 1.1856-0.822 1.8919-1.7981 1.7058-3.061 0.56268 0.081 1.0171 0.35632 1.4431 0.68255z" fill="#2c6b5c" opacity=".5"/>
    <path d="m595.38-149.25c-2.4508 1.9212-1.5393 2.4346-2.1233 3.5741-1.0142 0.0574-1.3429-0.34681-1.7352-0.70812 1.459-0.9976 2.2871-2.1312 1.9406-3.5181 0.73225 0.0489 1.3413 0.3212 1.918 0.65209z" fill="#2c6b5c" opacity=".5"/>
   </g>
  </g>
 </g>
</svg>
