<?xml version="1.0" encoding="UTF-8"?>
<svg viewBox="0 0 64 64" xmlns="http://www.w3.org/2000/svg">
 <defs>
  <linearGradient id="a" x1="210.94" x2="316.13" gradientTransform="matrix(.057667 -1.1999e-8 1.1999e-8 .057667 .4372 2.8375)" gradientUnits="userSpaceOnUse">
   <stop stop-color="#666" offset="0"/>
   <stop stop-color="#ccc" offset="1"/>
  </linearGradient>
 </defs>
 <path d="m7.1865 58.441c5.6744 1.1349 11.349-3.6316 15.661-2.4967s7.2632 0 9.76 0.22697 7.9441 3.6316 14.753 2.2698 1.3618-4.0856 2.4967-4.3125 3.8586 0.68093 3.8586 0.68093 2.0428 1.3618 4.3125 0.68093 5.9014-2.9507 3.4046-3.1777-17.023-4.9935-20.428-5.2204-15.661 1.1349-18.839 1.8158-10.668 0.68093-13.392 2.9507-6.8093 5.6744-1.5888 6.5823z" fill="#ccc" fill-rule="evenodd"/>
 <path d="m12.012 16.321s-2.159 2.3132-3.3156 4.8578-2.0819 3.9325-0.84819 4.0867 7.0939-2.6988 8.4048-3.7783-4.1638-4.9349-4.2409-5.1662z" fill="#f00" fill-rule="evenodd" stroke="#000" stroke-width=".36042"/>
 <path d="m17.562 6.9217c-0.49466-0.01134-0.95646 0.03293-1.3552 0.13516-2.1264 0.54523-3.7073 3.0533-4.0889 4.9071s0.3815 4.9615 0.87221 7.6877-0.49017 4.1989-0.49017 4.1989-4.9068 2.9444-6.2154 4.2529-3.8167 5.5605-4.471 7.1417-0.21876 7.471 1.1443 7.5255c0.81785 0.10905 0.98218-3.2729 0.98218-3.2729s0.87112-0.05415 1.6344-0.21772c0.74065-0.15871 1.3727-0.69311 1.4191-0.7451 0.83118 2.5625 3.0007 4.4511 2.8342-0.72716-0.01551-0.48743 2.7262-0.59833 2.7262-0.59833s-0.21751-1.2001-0.70822-1.8544-2.4544-1.8544-2.4544-1.8544 0.70998-0.54507 0.92807-0.87221 1.9066-1.4728 1.9066-1.2002c0 0.16053-0.08038 2.286-0.19823 4.2169 0.36181 0.66597 0.52621 1.5642 0.52621 1.5642l-0.63614 0.06488c-0.05608 0.63815-0.11772 1.1458-0.18201 1.3516-0.27262 0.87238 4.6e-4 5.7795-0.05406 6.8155s-1.4185 2.0714-2.4544 2.6166-3.2707 6.7068-3.7069 6.9795 1.2545 0.87221 2.5085 0.87221 5.0163-2.5071 6.1613-2.6707 4.0889-0.92807 4.0889-0.92807l1.0362-5.1251s1.6896-0.8176 3.4888-1.3083 3.8159 0.10934 3.9249 0.81815 0.3279 4.9074 0.76408 5.2891 2.2361 0.65416 3.7628 0.65415 5.4515 2.0179 6.9236 2.0724 3.1635-1.3636 3.2726-1.8543-1.6914-2.2358-3.2726-3.1627-4.197-2.2904-4.197-2.2904-0.43698-1.4167-0.54603-2.2346-1.5812-6.5434-2.3445-8.4518c-0.1841-0.46025-0.41334-1.162-0.65416-1.9517-0.42281 0.29639-0.84775 0.49354-1.0903 0.31717-0.4975-0.36182-0.2788-2.3992 0.15137-3.6168-0.34898-1.2875-0.6974-2.6004-0.6974-2.6004l2.1265 0.60009s-0.54457 0.43728-1.1443 1.3642-1.0359 3.8167-0.4361 4.2529 2.3986-1.4723 2.3986-1.4723 1.4726 5.6694 2.2904 5.6694 1.5804-5.0152 1.5804-5.0152 0.98109 0.16223 1.7444-0.05586 1.0362-0.81635 1.0362-0.81634 0.16391 0.81756 0.60009 1.5264 1.4726 2.3995 2.0724 2.2904 0.27165-1.6908 0.32618-4.1989-1.3626-3.8712-2.3986-6.5974-4.2533-3.6532-6.9795-4.0349-4.688-1.0366-5.2332-1.4182-0.76308-1.5265-1.3083-2.9987-1.036-5.3436-2.1265-7.8517c-0.88601-2.0378-3.6448-3.1387-5.7883-3.1879z" fill="#333" fill-rule="evenodd" stroke="#000" stroke-width=".28833"/>
 <path d="m15.559 16.476s-3.9325 1.9277-5.0891 4.4722-1.0024 3.0072 0.23133 3.1614 4.2409-1.5422 5.5518-2.6217-0.61686-4.7807-0.69397-5.012z" fill-opacity=".49804" fill-rule="evenodd"/>
 <path d="m25.912 20.361c1.4176 1.3631 0.32714 1.036 1.8538 1.4176s5.1797 1.254 6.4883 1.5812 3.1624 1.145 3.8166 2.2355 0.87238 1.6902 0.87238 1.6902 0.21809-1.0905-1.5812-1.7448-4.689-1.3631-6.4883-1.8538-2.9443-0.16357-4.5254-1.254-1.145-1.1995-1.4176-3.0533-0.10905-5.4523-1.6902-6.6519-4.58-2.1264-4.689-2.7807 0.10905-2.0174-0.81785-2.399-2.2355 0-2.2355 0 3.5986-0.98142 5.1797 0.27262 2.6716 3.1624 3.1624 4.689 1.5812 6.9245 2.0719 7.8514z" fill="#7f7f7f" fill-rule="evenodd"/>
 <path d="m35.835 27.885s-2.6171 0.10904-3.1624 1.3086 0.65428 3.5986 0.65428 3.5986-0.32714-2.29 0.65428-3.2714 1.8538-1.8538 1.8538-1.6357z" fill="#7f7f7f" fill-rule="evenodd"/>
 <path d="m13.808 20.797s0.54523 2.29-0.76333 3.2714-4.689 2.6171-6.6519 4.9071-4.0347 5.8885-4.0347 6.3247 4.1438 0.43619 4.7981-0.87238-1.7448-0.10905-1.5267-1.5267 0.32714-3.1624 2.7262-4.689 5.7795-2.399 5.7795-2.399-0.65428-0.32714-0.32714-1.9628 0-2.7262 0-3.0533z" fill="#7f7f7f" fill-rule="evenodd"/>
 <path d="m20.242 24.941c5.1252-0.87238 6.87 2.29 6.3247 3.4895s0.10905 3.1624 0.54524 3.9257 0.21809 1.5267 0 2.29 0.10905 0.76333 0.65428 1.6357 1.5267 3.2714 0.65428 3.7076-4.1438 1.9628-6.4338 2.5081-7.6333-1.3086-8.0695-2.1809 0.87238-3.0533 0.87238-3.4895-2.6171-3.4895-1.3086-3.4895 1.5267-2.7262 1.0905-3.1624-0.98142-2.8352 0.65428-3.7076 1.9628-0.98142 5.0162-1.5267z" fill="#ccc" fill-rule="evenodd" stroke="#000" stroke-width=".36042"/>
 <path d="m12.08884,28.19526c0,0-.30869,1.23464-2.23639,2.00572s-2.54454,1.61827-2.54454,1.61827 1.07994.00049 1.54258.46314 .30816,1.23443.30816,1.23443l.36042.06668-.12795-.0829c0,0 .70998-.54507.92807-.87221s1.90661-1.47281 1.9066-1.20019c0,.09331-.0316.89879-.07749,1.89579 .30055-.11941.53332-.26065.55685-.42529 .07711-.53975.69467-1.92681 1.23443-2.00392s-.46269-.53959-1.46509-.6938-.38565-2.00572-.38565-2.00572z" fill-rule="evenodd"/>
 <path d="m9.47041,35.91719c-.88915-.05783-1.23623.31815-1.23623.6073 0,.38554.46117,1.07955 1.15514,1.46509s.07874-.46352.6956-.54063c.05624-.00703.1011.02303.14056.06848 .29982-.09682.7099-.15992 1.11909-.20724 .07642-.43536.00593-.91546-.79832-1.17135-.42409-.13494-.77946-.20238-1.07584-.22165zm-2.88153.74426c-.06144.03012-.10867.1316-.12795.32438-.07711.77108-.07749,1.54258-.07749,1.54258s-1.62029.30881-2.39137.07749-1.3876-1.62008-1.3876-1.62007 .23181,1.00283.46314,1.54258-.00076,2.15894-.15498,3.62399c-.02431.23096-.0836.41091-.16219.55865 .06675.03389.1353.05659.20724.05947 .81785.10905.98214-3.27258.98214-3.27258s.87116-.05448 1.63449-.21805c.74065-.15871 1.37184-.69227 1.41824-.74426 .62821,1.93676 2.02056,3.48187 2.5914,1.88858-.46333-.24348-1.02429-.54771-1.42725-.81634-.69397-.46265-1.07945-1.00255-1.07945-1.85074 0-.63614-.30403-1.18603-.48836-1.09567z" fill-rule="evenodd"/>
 <path d="m26.81727,25.18938c0,0 .46231,1.5411 1.3876,2.69772 .40281.50351.61042.80812.73886,1.01818l1.74622.49377c.23423-.14715.47535-.33514.67578-.58568 .61686-.77108 3.31583-1.85074 3.31583-1.85074s-.77134-.15481-2.23639-.84878-5.62791-.92447-5.62791-.92447z" fill-rule="evenodd"/>
 <path d="m19.337 17.786c-2.853 0.38554-3.547 3.3928-2.4674 4.7036s2.218 1.8302 3.6241 1.6193c1.5422-0.23132 2.3132-2.3132 2.2361-3.8554s-0.53976-1.9277-1.1566-2.159-0.38554-0.77108-2.2361-0.30843z" fill="#ff0" fill-rule="evenodd" stroke="#000" stroke-width=".36042"/>
 <path d="m16.947 21.565s1.465-1.3879 2.853-1.8506 2.5446 0.77108 2.5446 0.77108" fill="none" stroke="#000" stroke-width=".36042"/>
 <path d="m18.22133,6.11613c-.9899.00512-2.1091.27681-3.35728.9515-5.70598,3.08431-2.46705,9.2537-2.46705,9.2537-.15422.07711.3093.38516.54063-.07749s5.93747-4.93411 8.40492-4.93411 2.93019.6938 2.93019.6938-.07721-1.00255-.38564-1.85074c-.24096-.66265-2.13039-4.05496-5.66575-4.03667zm1.20199,1.78586c.16973-.00843.34668-.00486.52981.01442 1.46505.15422 2.69952.84878 2.69952.84878l.77129,1.46509c0,0-.46274-.84906-2.93019-.54063s-3.00768,1.3876-3.00768,1.3876l.15498-.61631-.23247-1.85074c0,0 .82664-.64918 2.01473-.70822z" fill="#f00" fill-rule="evenodd" stroke="#000" stroke-width=".36042"/>
 <path d="m25.6801,10.78972c-1.56228.60049-4.40194,1.62975-7.14925,2.25104-2.65086.59947-5.7569.55545-7.56617.45895-.27936,1.08351-.34699,2.23861-.15044,3.41274 .23393,1.39746.80847,2.65353 1.62229,3.69885 .22253.01528.45756.0096.71219-.02421 4.51239-.599 4.76444-4.23771 6.14607-4.39081s.85031.87543 4.74257,1.70931c1.28717.27576 2.17912.22117 2.80561.02733 .35683-1.17734.46324-2.45007.24649-3.74491-.2124-1.26884-.71144-2.41444-1.40936-3.3983z" fill="#7f7f7f" stroke="#000" stroke-linejoin="bevel" stroke-width=".36042"/>
 <path d="m11.74284,13.52629c-.2506.80963-.42557,1.94734-.11714,3.25817 .40179,1.7076 1.35416,3.01008 1.97328,3.7195l.1694-.03064c-.29955-.54055-.62708-1.34274-.44511-2.07059 .30843-1.23373-.38592-2.69766-.07749-3.77717 .10673-.37357.21877-.74463.2577-1.08305-.64427.00694-1.22685.00268-1.76063-.01622z" fill="#fff" fill-rule="evenodd"/>
 <path d="m24.7755,11.12772c-.15789.05837-.28122.1058-.45232.16759 .50978.74024.90737,2.24806 1.25966,3.7159 .25672,1.06967.13843,2.27576.03064,3.07976l.24508-.00901c.23124-.87115.40898-2.26689.18742-4.1502-.14407-1.2246-.70956-2.15146-1.27047-2.80404z" fill-rule="evenodd"/>
 <path d="m30.826 25.497s-0.69397 0.77108-0.77108 2.0819 0 1.3879 0 1.3879l1.0795 0.38554s-0.53975-0.53975-0.15422-1.5422 1.1566-1.3879 1.1566-1.3879l-1.3108-0.92529z" fill="#fff" fill-rule="evenodd" stroke="#000" stroke-width=".36042"/>
 <path transform="matrix(.068902 0 0 .074962 -5.6087 -2.8034)" d="m607.06 361.07a44.125 34.765 0 1 1 -88.251 0 44.125 34.765 0 1 1 88.251 0z" fill="#fff" stroke="#000" stroke-linejoin="bevel" stroke-width="4.302"/>
 <path transform="matrix(.057667 0 0 .057667 .75412 3.442)" d="m607.06 361.07a44.125 34.765 0 1 1 -88.251 0 44.125 34.765 0 1 1 88.251 0z" fill="#fff" stroke="#000" stroke-linejoin="bevel" stroke-width="5"/>
 <path transform="matrix(.057667 0 0 .057667 .83123 2.748)" d="m621.77 409.87a13.371 11.366 0 1 1 -26.743 0 13.371 11.366 0 1 1 26.743 0z" fill="#fff" stroke="#000" stroke-linejoin="bevel" stroke-width="5"/>
 <path d="m26.63345,34.4611c-2.03372-.01928-4.40467.05777-5.75405.44331-2.69878.77108-10.02499,3.39228-10.02499,3.5465l.23247,2.00572 7.47865,1.15694 12.72271-2.93019-.46133-2.77701c-.06338-.38029-.29631-.92284-.39105-1.13892-.42192.29496-.84613.49161-1.08846.31537-.12502-.09092-.20434-.29041-.24689-.55324-.66377-.0294-1.51895-.05949-2.46705-.06848z" fill="#fff" fill-rule="evenodd" stroke="#000" stroke-width=".36042"/>
 <g transform="matrix(.057667 0 0 .057667 .83123 2.748)" fill="#fff" stroke="#000" stroke-linejoin="bevel">
  <path d="m378.41 496.12a38.108 33.428 0 1 1 -76.216 0 38.108 33.428 0 1 1 76.216 0z" stroke-width="5"/>
  <path d="m320.91 456a13.371 13.371 0 1 1 -26.743 0 13.371 13.371 0 1 1 26.743 0z" stroke-width="6.25"/>
  <path d="m290.16 442.63a11.366 12.034 0 1 1 -22.731 0 11.366 12.034 0 1 1 22.731 0z" stroke-width="6.25"/>
  <path d="m263.41 428.59a12.703 12.703 0 1 1 -25.405 0 12.703 12.703 0 1 1 25.405 0z" stroke-width="6.25"/>
  <path d="m240.68 405.86a13.371 12.703 0 1 1 -26.743 0 13.371 12.703 0 1 1 26.743 0z" stroke-width="6.25"/>
  <path d="m219.29 386.47a12.034 10.697 0 1 1 -24.068 0 12.034 10.697 0 1 1 24.068 0z" stroke-width="6.25"/>
  <path d="m375.73 452.66a12.703 12.703 0 1 1 -25.405 0 12.703 12.703 0 1 1 25.405 0z" stroke-width="6.25"/>
  <path d="m398.46 432.6a13.371 12.703 0 1 1 -26.743 0 13.371 12.703 0 1 1 26.743 0z" stroke-width="6.25"/>
  <path d="m415.85 409.87a11.366 12.703 0 1 1 -22.731 0 11.366 12.703 0 1 1 22.731 0z" stroke-width="6.25"/>
  <path transform="translate(6.6856 4.0114)" d="m434.57 382.46a13.371 13.371 0 1 1 -26.743 0 13.371 13.371 0 1 1 26.743 0z" stroke-width="6.25"/>
  <path d="m458.64 360.4a11.366 12.703 0 1 1 -22.731 0 11.366 12.703 0 1 1 22.731 0z" stroke-width="6.25"/>
  <path d="m474.68 334.32a11.366 10.697 0 1 1 -22.731 0 11.366 10.697 0 1 1 22.731 0z" stroke-width="6.25"/>
 </g>
 <path d="m15.867 35.984 3.7012 6.0915 5.9373-0.84819 0.92529-7.3252-10.564 2.0819z" fill="#fff" fill-rule="evenodd" stroke="#000" stroke-width=".36042"/>
 <path d="m33.91 45.623s-2.1596 1.9269-3.3933 2.3896-3.7772-0.92447-3.7772-0.92447c-0.75729 0.8835-0.48663 2.8355-0.48836 3.9015 0.34869-0.1207 1.0125-0.28117 1.9535-0.12434 1.3879 0.23132 1.0785 1.5416 2.6977 1.6958s2.8546 0.15585 4.3196 0.69561 2.9287 1.232 4.0853 0.38384 1.8516-0.69363 0.92627-1.3876-1.5424-1.7729-0.77129-1.6958c0.4508 0.04508 0.72846-0.19503 1.3804-0.28293-0.02463-0.037-0.04528-0.06457-0.07028-0.10272-1.465-2.2361-6.8623-4.5485-6.8623-4.5485zm-23.018 0.56946c-0.65783-0.02169-0.90383 0.41218-1.193 0.58568-0.38554 0.23132-2.4674 2.777-3.624 3.8565-0.60317 0.56296-1.1392 1.7314-1.4525 2.8545 0.40919-0.04769 0.85084-0.02729 1.2975 0.15138 1.5422 0.61686 0.92621 1.6979 2.0057 1.775s3.7782-1.3114 5.0891-1.9282 1.695-1.543 3.0059-1.6201c1.2132-0.07137 2.296-1.2614 3.7952-1.011-0.00887-0.1263-0.01622-0.25228-0.01622-0.37664 0-1.1566-1.3119-2.7752-1.3119-2.7752 0.07711 0.07711-1.3874-0.46265-3.1608 0s-2.3132-0.77216-3.624-1.3119c-0.32771-0.13494-0.59166-0.1928-0.81094-0.20003z" fill="#fff" fill-rule="evenodd" stroke="#000" stroke-width=".36042"/>
 <path d="m11.164 40.765s4.8578-1.1566 10.101-2.0819 9.8698-1.6193 9.8698-1.6193 1.5422 2.2361 1.8506 3.2385 0.23132 2.159 1.0024 1.6964 1.3879-0.77108 1.2337-0.07711-1.6964 1.9277-0.92529 2.0819 1.3879 1.0795 0.61686 1.3108-2.9301 1.9277-3.7012 2.853-1.465 1.3108-2.9301 1.6193-1.7735 1.465-1.5422 0.77108 0.23132-1.1566-0.38554-0.84819-1.1566 0.23132-0.84819-0.15422 1.0795-1.3108 0.38554-1.2337-1.3879 0.23132-1.3879 0.23132-0.77108-1.3879 0.15422-1.6193 2.0819-0.30843 2.0819-0.30843-1.2337-0.46265-4.318 0-3.547 1.1566-3.547 1.1566l0.84819 0.69397-0.61687 1.3879s-2.7759 0.53975-5.2433-0.77108-4.318-2.3132-4.318-2.3132 0.46265-0.53975 0.15422-0.84819-1.1566-0.53975-0.69397-0.69397 1.8506-1.0795 1.9277-1.3879-1.6964-0.15422-1.3108-0.84819 1.3108-0.92529 1.3879-1.2337 0-0.92529 0.15422-1.0024z" fill="#556b2f" fill-rule="evenodd" stroke="#000" stroke-width=".36042"/>
 <path d="m26.48929,33.72765c-1.4661-.02485-3.33474.05496-5.56123.37303-3.82257.54608-6.82614,1.78879-8.49502,2.60941 .07533.27849.12074.49918.12074.49918s-.6219.03099-1.26867.10993l-.30455.1748-.07569,1.38761c0,0 5.08753-2.15988 9.86821-3.08517 3.38846-.65583 6.93569-.69059 8.7347-.65596-.0588-.00846-.11375-.02375-.16038-.05767-.21068-.15322-.28724-.61408-.27932-1.17857-.62826-.0797-1.47573-.15791-2.57878-.1766zm4.02946.98033c-.32559.23788-.65578.42083-.91366.4343 .68426.01452 1.11549.03784 1.11549.03784l-.20183-.47215z" fill="#fff" fill-rule="evenodd" stroke="#000" stroke-width=".36042"/>
 <path d="m40.84288,50.27439c-.65194.0879-.92959.32801-1.3804.28293-.77108-.07711-.154,1.00179.77129,1.69576s.23034.53942-.92627,1.3876-2.62028.15591-4.08533-.38384-2.70033-.54139-4.31959-.69561-1.30978-1.46444-2.69772-1.69576c-.94095-.15683-1.60477.00365-1.95346.12434-.00039.2365-.01026.44345-.05226.56946-.23133.69397.0776.61795.46313,1.31192s3.2379.92409 4.2403.84698 .61767.61784 1.62007.92627 3.16122.84698 5.78289.84698 2.62197-.84834 3.70148-1.85074c1.06109-.9853.25484-1.23477-1.16415-3.36629zm-21.56013.54603c-1.23367.05629-2.19672.98436-3.26177,1.04701-1.31083.07711-1.69504,1.00321-3.00587,1.62007s-4.00957,2.00534-5.08909,1.92823-.46356-1.15819-2.00572-1.77505c-.44666-.17867-.88831-.19907-1.2975-.15138-.28748,1.03048-.38897,2.0225-.16759,2.46525 .46265.92529 2.46748,1.00262 4.00964.77129s4.16379-1.6957 5.08908-2.77521 .92572-.38592 1.54258-.07749 4.08619-.61708 4.62595-.77129c.48172-.13763.16738-1.19706.09371-2.24539-.18309-.03059-.36179-.04387-.53341-.03604z" fill-rule="evenodd"/>
 <path d="m32.70467,39.6529c-.04105.21669-.09459.45149-.18201.72624-.53976,1.69637-1.23422,2.69876-.46314,2.54454 .4586-.09172.84934-.56649 1.32273-1.06503-.16461-.33618-.21554-.96902-.39646-1.557-.05564-.18083-.16148-.40799-.28113-.64875zm2.28144,2.73556c-.17562.04262-.3514.11008-.53522.22706-.84818.53976-1.92872,1.54127-2.39136,2.00392s-.15362.92578.84878.46314c.75934-.35047.72365-1.22944 1.23082-1.4687 .14072-.32911.56549-.80057.84698-1.22542zm-22.45757.41628c-.22065.00593-.47317.06631-.74787.19643-.63221.29947-1.18934.46345-1.69035.54783 .40283.09963.8826.13502.84157.29915-.04752.19006-.5885.60332-1.10828.93708 .99619.23286 1.7379.23889 2.88153-.39646 1.1277-.6265.77954-1.60973-.17661-1.58403zm13.13539.87221c-.075.01144-.17682.06518-.31176.1712-.67469.53011-1.13997,1.84342-1.56241,2.62203 .47892-.03728.90242-.0512 1.25605-.04686 .42055-1.05202 1.11403-2.82206.61811-2.74637zm-5.81893.46133c-.18298-.02558-.30984.06774-.35321.32798-.18553,1.11321 1.01388,2.12519.98033,2.56257 .49215-.13982 1.12075-.2793 1.94985-.40367 .06878-.01032.12407-.01401.19102-.02343-.7768-.80741-2.11834-2.37262-2.768-2.46345zm7.66606,1.02178c-.7474.04152-1.53403.76839-2.05438,1.27768 .87908.04667 1.28308.18742 1.28308.18742s-.88687.06537-1.73.23607c-.07009.0547-.12021.07732-.12074.02523l-.23067.04685c-.18896.04724-.30455.14466-.37303.26671 .97129-.04298 1.73057-.1268 2.84009-.65235 1.46505-.69397 1.77358-1.46471.38564-1.38761zm-10.37459.57126c-.06435.00653-.12657.02096-.18922.04505-1.0024.38554-.61703,1.61865.6938,1.69576 .44335.02608.90702.11111 1.33714.20724 .11802-.10034.3716-.26304.89744-.45773-.87382-.19636-1.87773-1.57778-2.73916-1.49032zm-7.38133.28473c.09413.17354.02241.3771-.06488.53522 .1793.03544.36127.08141.54783.15138 1.23373.46265 2.31322,1.0782 2.54454.46133 .20251-.54003-1.79111-.94775-3.0275-1.14793zm19.14714,1.13892c-.8239-.01252-3.53301,1.15615-4.44034,1.31192l.04145.0847c0,0 .69364-.15356 1.38761-.23067 .26607-.02956.3155.09029.2595.26851 .11974-.04627.23908-.0883.35681-.11353 1.07951-.23132 2.85336-.77178 2.62203-1.23443-.02892-.05783-.10809-.08469-.22706-.0865zm-12.23435.66316c-.23735-.01325-.43452.06007-.56946.27212-.53975.84818-.07717.77025 1.07945.92447 .76417.10189 1.56062.27052 2.12826.39646l.27031-.6073c-.08242.00382-.18522-.00097-.31716-.01982-.80963-.11566-1.87935-.92616-2.5914-.96592zm12.72451.25049-.10813.02163c-.52421.15726-1.65181,1.01863-2.68511,1.53538 .17752-.03143.26049.05203.27572.21625 1.01261-.4683 2.86235-1.77589 2.51751-1.77325z" fill-opacity=".2" fill-rule="evenodd"/>
 <path d="m10.701 39.454 0.07711 2.6217s5.7831-1.3108 10.872-2.159 10.255-1.465 10.255-1.465l-0.69397-2.7759s-5.706 0.61686-10.332 1.465-10.101 2.3132-10.178 2.3132z" fill="#f5f5dc" fill-rule="evenodd" stroke="#000" stroke-width=".36042"/>
 <path d="m7.2312 50.866c1.0795 1.2337 1.3879 1.3879 2.5446 1.6964m-1.8433-3.6859s0.4826 1.4159 3.3782 2.3598m-1.4578-3.763s0.53975 0.07711 1.8506 0.77108 1.9277 1.3108 1.9277 1.3108m17.581 0.15422s0.69397-1.465 2.2361-2.5446 1.0795-0.53975 1.0795-0.53975m-1.0024 4.2409s0.69397-0.69397 1.7735-2.0819 0.9253-1.3879 0.9253-1.3879m0 3.3156s0.23132-1.3108 1.0024-1.9277 0.53975-0.46265 0.53975-0.46265" fill="none" stroke="#000" stroke-linecap="round" stroke-linejoin="round" stroke-width="1.0812"/>
 <path d="m21.95885,39.22221-1.92823.30816c-.15422,0 .69391,2.93023 1.07945,4.39528 .18129.6889.22497,1.85175.22166,2.89415 .32253-.06754.68006-.1331 1.09026-.19463 .38426-.05764.73883-.10175 1.06683-.13335-3e-005-.94527-.04466-2.03339-.21985-2.87432-.38554-1.85059-1.31011-4.39528-1.31011-4.39528z" fill="#556b2f" fill-rule="evenodd" stroke="#000" stroke-width=".36042"/>
 <path transform="matrix(.9901,-.14039,.14039,.9901,0,0)" d="m15.634 38.972a2.853 2.2361 0 0 1 2.853 2.2361 2.853 2.2361 0 0 1 -2.853 2.2361 2.853 2.2361 0 0 1 -2.853 -2.2361 2.853 2.2361 0 0 1 2.853 -2.2361" fill="url(#a)" stroke="#000" stroke-linejoin="bevel" stroke-width=".36042"/>
</svg>
