<?xml version="1.0" encoding="UTF-8"?>
<svg viewBox="0 0 136.43373 126.61653" xmlns="http://www.w3.org/2000/svg" xmlns:xlink="http://www.w3.org/1999/xlink">
 <defs>
  <linearGradient id="b">
   <stop stop-color="#fdcc00" offset="0"/>
   <stop stop-color="#008044" offset="1"/>
  </linearGradient>
  <linearGradient id="a">
   <stop stop-color="#a5a5a5" offset="0"/>
   <stop offset="1"/>
  </linearGradient>
  <linearGradient id="m" x1="90.687" x2="94.999" gradientUnits="userSpaceOnUse">
   <stop stop-color="#ffb142" offset="0"/>
   <stop stop-color="#c87600" offset="1"/>
  </linearGradient>
  <linearGradient id="l" x1="521.34" x2="521.52" y1="441.65" y2="416.29" gradientTransform="matrix(.62915 0 0 .81201 149.81 82.72)" gradientUnits="userSpaceOnUse">
   <stop stop-color="#909090" offset="0"/>
   <stop stop-color="#ededed" offset="1"/>
  </linearGradient>
  <linearGradient id="k" x1="341.11" x2="332.66" y1="247.81" y2="243.79" gradientUnits="userSpaceOnUse">
   <stop stop-color="#c87600" offset="0"/>
   <stop stop-color="#ffb142" offset="1"/>
  </linearGradient>
  <radialGradient id="h" cx="414.68" cy="-8.8805" r="123.55" gradientTransform="matrix(-1.8232e-6 .27968 -.60927 0 101.73 -39.26)" gradientUnits="userSpaceOnUse">
   <stop stop-color="#ffb142" offset="0"/>
   <stop stop-color="#ffb141" offset=".8868"/>
   <stop stop-color="#c87600" offset="1"/>
  </radialGradient>
  <radialGradient id="e" cx="-406.03" cy="32.409" r="39.158" gradientUnits="userSpaceOnUse">
   <stop stop-color="#fff" stop-opacity=".744" offset="0"/>
   <stop stop-color="#fff" stop-opacity="0" offset="1"/>
  </radialGradient>
  <radialGradient id="c" cx="340.93" cy="269.25" r="3.3" gradientTransform="matrix(.9412 -.16125 .40295 2.352 -103.75 -244.04)" gradientUnits="userSpaceOnUse">
   <stop stop-color="#00519c" offset="0"/>
   <stop stop-color="#008044" offset="1"/>
  </radialGradient>
  <radialGradient id="j" cx="352.01" cy="290.74" r="1.9198" gradientTransform="matrix(.92757 -.00243 .02892 11.042 5.8555 -2862.5)" gradientUnits="userSpaceOnUse" xlink:href="#b"/>
  <radialGradient id="i" cx="349.07" cy="290.81" r="1.9198" gradientTransform="matrix(.99356 .10927 -.89577 8.1451 250.92 -2059.2)" gradientUnits="userSpaceOnUse" xlink:href="#b"/>
  <radialGradient id="g" cx="610.46" cy="483.45" r="167.56" gradientTransform="matrix(0 -.48219 .4319 -1.2542e-6 -151.97 551.35)" gradientUnits="userSpaceOnUse" xlink:href="#a"/>
  <radialGradient id="f" cx="371.45" cy="647.69" r="59.255" gradientTransform="matrix(0 -.74351 -.66041 0 552.03 582.13)" gradientUnits="userSpaceOnUse" xlink:href="#a"/>
  <radialGradient id="d" cx="313.14" cy="589.24" r="59.255" gradientTransform="matrix(-.48422 -.10897 .16592 -.73726 83.844 797.5)" gradientUnits="userSpaceOnUse" xlink:href="#a"/>
 </defs>
 <g transform="translate(-218.01 -291.72)">
  <g transform="translate(-1.0714 -.71429)">
   <path d="m333.16 347.37c-2.6327 14.722-2.8288 39.794 5.0954 40.743 11.135-1.6727 7.0848-37.361 4.6066-44.672-1.4609 0.66359-6.2408 3.2658-9.702 3.9294z" fill="#1a171b"/>
   <path d="m334.31 348.78 7e-3 -0.66509c0.59413 0.114 2.753 0.52173 2.5591-0.56405 0 0-1.7893-3.9434 1.2009-3.6244 2e-3 -6e-3 5e-3 -0.0131 6e-3 -0.0204 0.52915 0.1299 1.6542 0.29736 3.8613 0.25816 0.22835 1.4906 0.55605 3.8226 0.77652 5.6426 1.4808 11.044 3.5474 33.831-3.835 35.939 0.0934-3.5047-0.23372-17.11-0.77863-18.638-0.56914 2.555-0.89628 14.811-0.98027 18.345-2.2025-1.5844-7.7691-8.4239-2.8599-35.868l0.0428-0.804z" fill="#00519c"/>
   <path d="m341.83 344.07c4.3128 36.256-3.9623 33.967-3.3189-0.069 1.4362-0.18908 1.8028 0.0455 3.3189 0.069z" fill="url(#j)"/>
   <path d="m336.72 344.04c-1.1069 2.2902-0.19908 1.7957 0.0879 3.7663-0.0464 0.24993-0.23363 0.58159-1.6697 0.41592-3.4154 37.095 3.7948 21.243 3.8139-4.3417-1.147-0.14453-1.3697-0.27496-2.2322 0.15946z" fill="url(#i)"/>
  </g>
  <g transform="translate(186.33 12.316)" fill-rule="evenodd">
   <path d="m81.781 385.54c-15.668 1.6128-33.638 14.291-26.495 17.056s27.873 3.9181 31.79 0.69241c2.0127-1.6576 5.6138-5.8087 6.0382-9.704 0.42497 3.8949 4.0155 8.0466 6.0281 9.704 3.9169 3.2257 24.658 2.0724 31.8-0.69241s-10.827-15.443-26.495-17.056c-8.0678 0.77761-10.97 3.4884-11.333 6.5983-0.36356-3.1099-3.2654-5.8207-11.333-6.5983z" fill="url(#h)" stroke="#000" stroke-width="1.5639"/>
   <path d="m81.784 385.55c-7.69 0.79161-15.927 4.249-21.485 7.8915 8.4173 3.8928 18.709 6.2918 29.865 6.5678 1.4296-1.8809 2.7102-4.1871 2.9529-6.415 0.24081 2.207 1.4914 4.4927 2.902 6.3641 10.973-0.4646 21.052-2.9801 29.254-6.9445-5.5378-3.4836-13.432-6.7029-20.823-7.4638-8.0678 0.77762-10.97 3.4884-11.333 6.5983-0.36356-3.1099-3.2654-5.8207-11.333-6.5983z" fill-opacity=".3137"/>
  </g>
  <g transform="translate(186.33 12.316)">
   <path d="m146.28 340.23a53.948 53.948 0 0 1 -107.9 0 53.948 53.948 0 1 1 107.9 0z" fill="url(#g)" stroke="#000" stroke-linecap="round" stroke-width="1.5639"/>
   <path d="m118.99 367.2a26.153 26.153 0 1 1 -52.307 0 26.153 26.153 0 1 1 52.307 0z" fill="#fff" stroke="#000" stroke-linecap="round" stroke-width="1.6292"/>
   <path d="m144.15 325.23c0.10951 1.4027 0.1731 2.8155 0.1731 4.2461 0 29.779-24.178 53.947-53.957 53.947-24.575 0-45.316-16.459-51.819-38.948 2.1699 27.795 25.426 49.701 53.774 49.701 29.779 0 53.957-24.168 53.957-53.947 0-5.2041-0.75099-10.237-2.1282-14.999z" fill-opacity=".3137"/>
  </g>
  <g transform="translate(186.33 12.316)">
   <path d="m81.252 304.33c-7.4731 0-13.543 6.9841-13.543 15.589s6.0697 15.589 13.543 15.589c4.3917 0 8.2889-2.4146 10.763-6.1503 2.4738 3.7383 6.3795 6.1503 10.773 6.1503 7.4731 0 13.543-6.9841 13.543-15.589s-6.0697-15.589-13.543-15.589c-4.3931 0-8.2992 2.4127-10.773 6.1503-2.4741-3.7348-6.3718-6.1503-10.763-6.1503z" fill="#fff" stroke="#000" stroke-linecap="round" stroke-width="1.6292"/>
   <path d="m92.662 331.22c-4.7179 0-9.846 4.2966-9.6408 7.0102s8.4101 14.02 10.256 14.02 9.0255-11.081 8.8203-14.247-6.3588-7.0102-9.4357-6.7841z" fill-opacity=".3137" fill-rule="evenodd"/>
   <path d="m91.917 328.5c-4.7179 0-9.846 3.8974-9.6408 6.3588s8.4101 12.718 10.256 12.718 9.0255-10.051 8.8204-12.923-6.3589-6.3588-9.4357-6.1537z" fill="url(#m)" fill-rule="evenodd" stroke="#000" stroke-width="1.6292"/>
   <path d="m89.648 322.66a3.3846 3.3846 0 0 1 -6.7691 0 3.3846 3.3846 0 1 1 6.7691 0z" stroke="#000" stroke-linecap="round" stroke-width="1.6292"/>
   <path d="m101.76 322.66a3.3846 3.3846 0 1 1 -6.7691 0 3.3846 3.3846 0 1 1 6.7691 0z" stroke="#000" stroke-linecap="round" stroke-width="1.6292"/>
  </g>
  <g transform="translate(186.33 12.316)" fill-rule="evenodd" stroke="#000" stroke-width="1.6292">
   <path d="m135.69 328.16c-15.677 5.6371 4.615 30.676-12.323 52.523-3.1308 4.0382 18.856 0.68126 26.629-21.696 7.559-21.762 0.36897-35.041-14.306-30.827z" fill="#fff"/>
   <path d="m135.69 328.16c-15.677 5.6371 13.877 33.276-12.323 52.523-7.3726 5.416 18.856 0.68126 26.629-21.696 7.559-21.762 0.36897-35.041-14.306-30.827z" fill="url(#f)"/>
  </g>
  <g transform="matrix(-.84384 .25608 .25608 .84384 557.15 -109.89)">
   <path d="m511.72 417.28c-2.8953 1.7116-3.7959 6.1367-4.463 8.5261-1.3636 0.10423-2.6151 0.20897-3.9322 0.30451-34.96-1.393-70.725 0.3152-103.94 0.40856 28.07 19.632 74.571 5.8478 107.74 2.4588 1.257 4.6546 3.9732 11.039 10.133 10.249 5.7128-1.8006 6.925-6.1337 5.6156-9.9187 0.10596-0.0355 0.57537 0.037 1.042 0.15213 1.0482 0.25868 1.3684 0.18232 1.8481-0.43138 0.3021-0.38639 0.38876-0.67349 0.39322-1.4464 4e-3 -0.82442-0.0919-1.0596-0.66847-1.5986-0.37035-0.34622-0.80574-0.59698-0.96339-0.55823s-0.65118-9e-3 -1.101-0.10152c-3.9097-0.88596-11.697 1.0006-11.266-1.0413 0.71455-2.796 0.2514-5.3722-0.43249-7.0024zm-1.2976 3.7048c-0.67184 2.1278-1.0097 4.2932-1.5137 6.1154 0.18386-2.1378 0.59488-4.3325 1.5139-6.1155zm10.066 8.2469c1.1333 1.466-0.34142 4.3381-1.6318 5.5064-1.1215 1.0026-2.8102 1.1152-4.1288 0.2791-1.888-1.6564-2.8013-4.0286-2.0841-5.684 2.8409-0.036 5.4408-0.20287 7.8447-0.10147z" fill="url(#l)" stroke="#000" stroke-linecap="round" stroke-linejoin="round" stroke-width="1.144"/>
   <path transform="matrix(.00014402 .09092 -.09092 .00014402 533.11 463.64)" d="m-364.85 67.827c0 22.656-17.531 41.022-39.158 41.022s-39.158-18.366-39.158-41.022 17.531-41.022 39.158-41.022 39.158 18.366 39.158 41.022z" fill="#d7b96e" stroke="#000" stroke-linecap="round" stroke-linejoin="round" stroke-width="13.021"/>
   <path transform="matrix(9.1653e-5 .06515 -.08183 .00014585 532.53 453.17)" d="m-364.85 67.827c0 21.899-17.531 39.652-39.158 39.652s-39.158-17.753-39.158-39.652 17.531-39.652 39.158-39.652 39.158 17.753 39.158 39.652z" fill="#b18d31"/>
   <path transform="matrix(5.798e-5 .04127 -.082 .00014609 532.53 443.61)" d="m-364.85 67.827c0 21.901-17.531 39.655-39.158 39.655s-39.158-17.754-39.158-39.655 17.531-39.655 39.158-39.655 39.158 17.754 39.158 39.655z" fill="#d7b96e"/>
   <path transform="matrix(1.947e-5 .01386 -.08228 .00014671 532.54 432.53)" d="m-364.85 67.827c0 21.716-17.531 39.319-39.158 39.319s-39.158-17.604-39.158-39.319 17.531-39.319 39.158-39.319 39.158 17.604 39.158 39.319z" fill="#b18d31"/>
   <path transform="matrix(.03371 .07924 -.07924 .03371 545.66 456.85)" d="m-364.85 67.827c0 22.656-17.531 41.022-39.158 41.022s-39.158-18.366-39.158-41.022 17.531-41.022 39.158-41.022 39.158 18.366 39.158 41.022z" fill="url(#e)"/>
   <path d="m410.03 427.9-4.2052 0.65216 1.4935 3.0038-2.129-2.6202-1.7263 2.0744 1.0749-2.3431-3.9621-0.52942 3.9262-0.43935-1.2275-2.655 2.0226 2.4807 2.2063-2.3853-1.3787 2.7404z" fill="#fff"/>
   <path d="m409 427.65c6.0848 2.4466 59.336 0.0359 94.107-0.71429-31.498-0.14919-63.066-0.50749-94.107 0.71429z" fill="#fff"/>
  </g>
  <g transform="matrix(.98898 .14808 -.14808 .98898 236.33 9.8522)" fill-rule="evenodd" stroke="#000" stroke-width="1.6292">
   <path d="m51.639 328.16c15.357 4.8159-8.8745 24.281 1.2939 42.298 2.4728 4.3815-7.8267 10.906-15.6-11.471-7.559-21.762-0.36897-35.041 14.306-30.827z" fill="#fff"/>
   <path d="m51.639 328.16c14.504 3.5746-15.747 23.621 0.62277 43.361 6.0622 4.4736-6.7272 10.003-15.358-13.937-7.5561-21.763 0.06055-33.639 14.735-29.425z" fill="url(#d)"/>
  </g>
  <path d="m277.53 291.74c-14.841 0.2283-33.731 2.5666-44.416 26.039-2.0478 1.673-2.8993 4.1275-3.1904 5.1324-5.9338 4.485-9.8551 17.057-8.7065 25.36-0.0669 3.257-4.0499 8.3363 1.2188 8.2812 2.3374 0.65433 4.0938-4.049 5.0938-3.1875-0.65002 4.7868-4.1214 10.149-3 15.219 2.1573 4.2812 4.9866-1.1141 6.0312-3.4688 3.197-3.8299 7.3379-7.7551 6.6562-13.344 1.1837-1.2146 2.535-2.5176 3.1875-4.375 2.9262-2.9494 3.9496-7.2363 2.5938-11.156 0.50414-4.4225-2.7389-11.01 2.3125-13.5 13.493-6.6423 29.425-5.3224 44.184-5.0002 13.488 0.97147 27.427 2.7368 39.129 10.125-6.6193-24.781-27.881-36.633-51.094-36.125z"/>
  <path d="m275.5,293.03125c-12.45227.24514-24.30496,4.18168-31.65625,11.53125-2.93036,4.41889-7.63854,9.83205-9.1875,14.71875-.25261.19237-1.21649.14288-1.25761.55869-.0397.40124-.28482,1.1812-.87247,1.75s-.55768,1.60446-.52617,1.81631-.18206.4255-.5.46875c-.79917.1087-2.93792,2.61606-4.75,5.59375-2.94832,4.84477-4.44246,11.19644-3.6875,15.78125 .20816,1.26417.3103,2.40716.21875,2.53125s-.26575.92397-.375,1.78125-.50126,2.35802-.875,3.34375c-.72702,1.91743-.71235.62231.53125,1.40625 .42338.26688 1.14264-.95754 1.71875-1.375 1.26077-.91354 2.02071-2.76511 2.34375-5.65625 .42353-3.79043 1.76454-8.58621 3.0625-11.4375-.63459,1.99464-1.27569,5.04686-1.15625,5.625 .0458.22153.004.75157-.0937,1.1875s-.0969,1.83699.0313,3.09375 .17991,2.49633.0937,2.75 .0455.83245.3125,1.3125 .39405,1.1678.28125,1.5-.0366.84231.15625,1.15625c.4548.74063.36296,2.03675-.15625,2.15625-.23318.0537-.34516.33129-.25.625 .0909.2806-.54382,2.80135-1.4375,5.59375-1.2472,3.89691-1.57787,5.30802-1.375,6.09375 .14538.56304.30899.97558.375.9375s.47143-.73161.875-1.5625c1.00309-2.06534 2.84952-4.59129 4.9375-6.75 1.96384-2.03035 2.71705-3.81507 2.6875-6.3125-.0275-2.31855.78746-4.33177 1.75-4.3125 .51777.0104.77469-.22309.8125-.75 .03-.41921.84162-1.82028 1.8125-3.09375 2.12713-2.79007 2.60114-4.41786 1.9375-6.625-.27428-.91219-.42546-2.21616-.34375-2.875 .13891-1.11995-.23235-4.76688-.71875-7.15625-.14211-.69818.12402-1.91905.75-3.65625 .34429-.95544.61531-1.98527.8125-2.96875 1.71149-.72927 3.5636-1.54377 5.46875-2.1875 7.21716-5.76083 57.85445-7.3908 78.03506,3.96367-6.21087-21.60414-29.03133-30.96599-49.78511-30.55742z" fill="#e40000"/>
  <path d="m230.45 349.27c-1.071 2.0607 1.289-7.4877 1.6336-8.1653 0.23135-0.45478 0.54619-1.5599 0.69969-2.4558s0.9554-3.05 1.782-4.7868c1.199-2.5193 1.714-3.2727 2.5465-3.7258l1.0435-0.56788-0.44854 1.7064c-0.25959 0.98755-0.69004 1.874-1.0218 2.1042-0.34492 0.23936-0.59218 0.76383-0.62071 1.3166-0.0261 0.50533-0.20802 1.0314-0.40432 1.1689s-0.57983 1.271-0.85226 2.5187c-0.97039 4.444-0.96097 4.0844-0.098 3.7402 0.42396-0.1691 1.1206-0.93925 1.548-1.7115 0.80356-1.4516 1.1144-1.7628 1.299-1.3 0.31714 0.79514-2.7053 6.1397-4.5439 8.0349l-2.0719 2.1325c-0.43065 0.44144-0.54003 0.43934-0.49088-9e-3z" opacity=".4"/>
  <path d="m227.1 333.12c-0.23949-0.60044 1.0628-3.0821 2.8189-5.3719 2.3369-3.047 3.2466-3.9404 3.6482-3.5827 0.33258 0.29624-0.74751 3.6202-1.1238 3.4584-0.28528-0.12264-2.0511 1.5716-2.6113 2.5053-0.26435 0.4406-0.84656 1.4147-1.2939 2.1646-0.7802 1.308-1.1592 1.5257-1.4382 0.82621z" opacity=".4"/>
  <path d="m234.49646,325.26004c1.67044.1109 3.81437.86167 4.62434.50295 1.11774.91773.24549.85611.63043,1.51672-.11664.81308-1.79703.49123-5.25477-2.01967z" opacity=".4"/>
  <path d="m241.16 321.74c-1.6467-0.56917-2.4898-1.9256-4.8661-1.7857-1.88 0.10119-0.81825-0.77073-0.13393-0.9375 2.3247-0.24015 4.2038 2.1376 5 2.7232z" opacity=".4"/>
  <path d="m242.94 320c6.1467-6.0851 24.32-6.0148 53.538-5.8084 0.57563 0.22137-24.464-4.5075-51.897 2.7779-0.5753 0.7225-4.2366 0.72277-1.6415 3.0305z" fill="#890000"/>
  <path d="m246.54 307.07c-1.4548 2.2148-4.4056 7.7192-5.6467 8.8647-0.0648 0.55421-0.29432 1.1555 1.25 1.25 2.6401-3.6448 3.2602-7.7588 4.3967-10.115z" fill="#890000"/>
  <path d="m253.87 310.65c-11.043 1.0521-8.8414 1.8587-1.6184 0.76449-1.0582 0.3744-5.274 3.057-7.8987 4.8875 3.7596-1.4231 5.8939-3.3526 10.634-4.6617 9.1568-0.75096 8.5584 0.33363 2.9649-1.3664 5.3885-1.237 8.817-0.47798 8.6526-0.56606-3.6698-1.9666-9.1902-1.0651-12.734 0.9422z" fill="#890000"/>
  <g transform="translate(-1.0714 -.71429)">
   <path d="m343.38304,343.69849c.81592-.0992 2.57799-.34779 3.69276-.74872 2.83368.64262 7.01113,1.39233 8.27992.58082 1.18231-.7334-4.65197-5.48721-9.53251-12.33378l.00042-.00032c.002-.63928-.0144-1.26058-.0412-1.87421 .43041-9.04841-3.60747-15.32916-5.96448-18.18962-.59262-.83816-1.11654-1.48061-1.50674-1.92917-.36853-.69576-.6465-1.2799-.78918-1.81208-.10525-.39477.23387-.92428.004-1.68632 .33557-.34689.5643-.80067.69286-1.32902s.15694-1.13124.0918-1.77635-.22373-1.33246-.4692-2.02966-.57775-1.40429-.99024-2.0889 1.81514.55738 1.24899-.05c-.31354-1.02863-4.04356-3.68923-5.2441-3.8729-.14365-.0741-.40074-.46049 1.45586-.31064-.61138-1.13896-4.88475-.8464-5.83193-.83386-15.32367,1.31051-12.23064,12.56946-12.34745,12.50301 0,0-.49367.98309-1.31759,3.23108-.42839,7.86769 6.54253,7.56339 7.63099,7.48757 0,0-.32466-1.3193-.0322-3.36621-.71126-.9547 1.9091,2.71825 3.99847,1.13495 0,0-2.68276,3.77978-3.09482,8.94901-1.05915,2.69639-4.76987,13.51974 2.13957,17.4837l-.0328.0143-.0263.0128-.0633.037c-1.07553.67344-1.43959,1.79059-.99805,3.06616 .38727,1.11501 1.42768,2.33078 2.59166,2.38592 .35759.0183.63829-.0282.85593-.10478 .35838.25535.75521.42226 1.16768.44175 .94474.0464 1.34765-.35048 1.50439-.59132l.11048-.37595c0,0 .0984.22636.34999.54168 .08.10828.1632.21388.2524.31498 .002-.006.006-.0116.008-.0174 .43197.44606 1.12726.97258 2.20047,1.32187z" fill="#1a171b"/>
   <g transform="matrix(1.1995 0 0 1.0236 -81.587 58.603)">
    <path d="m332.29 243.09c1.7226-0.10159 4.4601 0.10159 4.4601 0.10159s-1.1154 2.7368 5.2708 3.8514c0.4532 2.0873-2.7299 3.5526-4.3874 1.915 1.0532-0.2165 1.8312-0.11419 1.9207-1.2871-1.632 1.1902-1.9055 0.19383-2.6961 0.48043 0 0-1.6286-0.0944-1.0202 3.1488-0.15835 0.83522-7.2274-2.1454-3.5479-8.2101zm1.0731 4.3081c0.67637-1.6897 1.183-1.6046 0.0861-2.5339 0-1.6e-4 -0.84591 1.0134-0.0861 2.5339z" fill="url(#k)"/>
    <path d="m338.81103,238.83451c1.7196-.91544 2.80865,3.09197.95959,3.8092 .23507-.004.48136-.017.75057-.0487 5.54833-1.01447 1.50557-7.31056-.21745-6.37005-2.48208-.16577-4.30791,3.3767-3.11877,5.35749 .0325.0566.0716.1096.10769.16504 .0707.0928.14678.1846.23907.266-.58823-.89158.20041-2.5884 1.2793-3.17898z" fill="#fff"/>
    <path transform="matrix(-.16024 0 0 .16024 363.88 230.04)" d="m153.54 63.558a2.665 2.665 0 1 0 -5.33 0 2.665 2.665 0 1 0 5.33 0" fill="#fff"/>
    <path d="m362.63 278.2c-4.5422-0.43505-8.1657-2.0463-10.756-3.6572-1.5856-0.71772-3.2639-1.832-4.5588-3.6743l-0.091-0.1016 0.01-0.01c-1.3109-1.9186-2.2073-4.61-2.1725-8.4365 0.10111-11.15 0.91256-11.961 4.2573-15.002l0.74865-0.32625s5.5333 6.891 4.75 17.907c-0.83453-1.3052-1.6261-2.374-2.4571-3.1183 0.13444 1.5543 1.0315 3.0263 1.0315 3.0263 2.345 4.6768 5.971 9.036 9.2385 13.393zm-24.636-15.586c-0.32079 3.463-0.30381 10.219 4.2936 12.386l0.0226 0.017c-1.5141 1.0526-8.1644 0.13108-4.2789-13.761-1.6e-4 1.7e-4 -0.0365 0.51854-0.0373 1.3582zm3.1319-31.675-3.2e-4 -1e-3c9.1032 0.50073 7.9587 11.397 6.6677 10.887 0.70672 2.2571 0.98266 2.6831 1.3015 4.0824 0 0-5.3518 2.5264-5.3518 14.588 0 11.657 4.2598 13.564 10.768 16.422 0.0777 0.0958 0.15239 0.18684 0.22417 0.27337-1.9972-0.10448-4.5742 5e-3 -7.0456-0.92106-8.0812-1.4455-9.2552-8.9518-8.6132-15.581-0.0328-3.1042 0.60025-6.6035 2.2966-10.42l-2e-3 -0.0146 0.0456-0.0828 0.0965-0.21696 0.0326-0.0165c1.5676-2.8302 1.5981-3.9067 1.5739-4.1498-3.6261 1.2117-5.2331-1.04-5.5257-1.5269-0.30269-0.507 0.10272-1.3177 0.10272-1.3177l-0.02-0.0184c-0.4522-0.39436-0.68983-0.57559-0.78117-0.64241-1.4873-0.0875-4.3705-0.22212-5.016-0.24981-7e-4 -2e-3 0.24146-0.13493 0.24076-0.13703-0.77615-5.9315 3.5733-10.954 9.0058-10.957zm-0.84608 12.291c5.5254 0 4.3837-8.2248 0-7.5507-4.7885 0.73662-5.5257 7.5507 0 7.5507z" fill="#00519c"/>
    <path d="m344.24645,246.65117c-.0498-1.84773-2.4403-.75826-3.14407-.39676 .58808.002 1.25661-.0989 2.01422-.35188 .024.24292-.006,1.31958-1.57388,4.14959-.0112.004-.025.0165-.0325.0165l-.0965.21696-.0456.0829c.00033.005.001.01.002.0146-.0666.14982-.12899.29836-.19213.44723 1.85991-.30286 3.12085-2.24049 3.06829-4.17907z" fill="#fdcc00"/>
    <path d="m343.35199,277.43883c0,0-2.23936-.3381-.78117,2.60599 .13012.18172.52079.96353-.39067.91194-.62461-.0367-1.54552-1.31366-1.56635-2.4847 .0917-.0869.18684-.17161.29645-.24629 .29164-.19805.60282-.31888.90296-.37175l.0939-.01-.0168-.005 .0007-.00064-.004-.0007c-.35301-.14373-.76307-.13716-1.12104.064-.0375.0205-.0682.0476-.1008.0732 .0745-.31263.23187-.60283.50412-.83742-.55683.11569-1.2353.61388-.25911,2.58228 .13011.18283.52046.96321-.39082.9116-.65507-.037-1.63911-1.44328-1.567-2.65759 .0683-.058.14117-.11408.21809-.16616 .29132-.1979.6025-.31888.90263-.37128l.0939-.0101-.0167-.005 .001-.00032-.006-.001c-.34516-.14037-.74608-.13444-1.09973.0549 .10047-.28458.27818-.54321.56052-.75024 .55091-.31166 1.84838-.70826 2.05332.14246 .68984-.26328 1.69102-.39083 1.69102.57173zm4.47504,3.76678c.14182.19869.56725,1.05006-.42656.99365-.68759-.0388-1.70624-1.46267-1.70656-2.75069 .0917-.0873.18684-.17242.29757-.24821 .29163-.19758.60282-.31888.90263-.37096l.0936-.0104-.0164-.004 .00033-.00032-.003-.001c-.35269-.14373-.76307-.13684-1.12137.0639-.0364.0202-.0663.0465-.0976.0708 .0833-.34563.25783-.66611.56341-.92394-.61436.10624-1.42742.62093-.33394,2.82825 .14085.19869.56741,1.05005-.42656.99445-.68231-.0389-1.69695-1.44057-1.71858-2.72089 .10015-.0969.20879-.1902.33073-.27321 .29196-.19789.60251-.31919.90264-.37096l.0939-.0104-.016-.004 .0007-.001-.005-.001c-.35237-.14357-.76243-.13717-1.12072.0636-.0489.0274-.0886.0641-.13237.0963 .0877-.39628.29036-.76098.67013-1.03932 .60379-.34116 2.03121-.77685 2.24369.16905 .75265-.29612 1.8777-.45557 1.8777.61051-.00016-.00031-2.44303-.36871-.852,2.84123z" fill="#9b9c9e"/>
    <path d="m349.27 247.34 0.74865-0.32625s5.5333 6.891 4.75 17.907c-0.83454-1.3052-1.6261-2.374-2.4571-3.1183 0.13444 1.5543 1.0315 3.0263 1.0315 3.0263 2.345 4.6769 5.9712 9.036 9.2387 13.393l-3e-3 -3.2e-4c-6.2894-4.1156-11.269-12.427-11.269-16.654 0-4.0456-2.5533-9.9123-3.8398-12.477 0.49803-0.56292 1.0919-1.1065 1.7997-1.7501zm-7.8469-16.312c0.5951-0.20272 2.3606-0.36697 3.1753-0.0193-0.20296 0.25621-0.31585 0.2982-0.0992 0.59267 1.0583 0.42366 2.6082 1.4689 3.6832 2.6746 0.32734 0.44797-0.93305-0.40811-0.0297 1.9522 0.25981 0.66337 0.45355 1.335 0.57881 1.9801s0.18202 1.2636 0.16788 1.8206-0.0992 1.0526-0.25755 1.4519-0.39006 0.7022-0.6975 0.87395c0.36421 0.8267 1.0704 3.3782 1.0683 3.3796-0.28087 0.45632-1.3539 1.188-1.642 1.5255-0.71419-1.1265-2.0078-0.88995-1.3108-4.2875 2.0267-4.9187-2.5238-10.534-4.6368-11.944z" fill="#006cb2"/>
   </g>
   <path d="m332.76 319.1c0.13608 6.7478-1.0728 14.615 7.8835 20.643-10.249-3.7508-9.2485-13.483-7.8835-20.643z" fill="#008044"/>
   <path d="m323.9 325.89c0.39539 6.5508-1.2389 10.486 5.2403 14.345-8.3052 1.6644-7.6281-9.7152-5.2403-14.345z" fill="url(#c)"/>
  </g>
 </g>
</svg>
