<?xml version="1.0" encoding="UTF-8"?>
<svg viewBox="0 0 143.98438 213.91319" xmlns="http://www.w3.org/2000/svg" xmlns:xlink="http://www.w3.org/1999/xlink">
 <defs>
  <filter id="j" x="-.1152" y="-.0768" width="1.2304" height="1.1537">
   <feGaussianBlur stdDeviation="13.158"/>
  </filter>
  <linearGradient id="c">
   <stop stop-color="#ece84d" offset="0"/>
   <stop stop-color="#bcb82b" offset=".5"/>
   <stop stop-color="#8c890a" offset="1"/>
  </linearGradient>
  <linearGradient id="a">
   <stop stop-color="#393a30" offset="0"/>
   <stop stop-color="#7e7e7e" offset=".5"/>
   <stop stop-color="#454640" offset=".75"/>
   <stop stop-color="#737467" offset=".875"/>
   <stop stop-color="#393a30" offset="1"/>
  </linearGradient>
  <linearGradient id="i" x1="47.039" x2="53.282" gradientUnits="userSpaceOnUse">
   <stop stop-color="#474743" offset="0"/>
   <stop stop-color="#afaea3" stop-opacity="0" offset="1"/>
  </linearGradient>
  <linearGradient id="h" x1="163.54" x2="120.74" y1="267.63" y2="312.26" gradientTransform="matrix(.88577 0 0 1.0315 -38.636 -219.65)" gradientUnits="userSpaceOnUse" xlink:href="#a"/>
  <linearGradient id="g" x1="88.898" x2="131.94" y1="281.34" y2="368.84" gradientTransform="matrix(.87083 0 0 1.0315 -37.972 -219.65)" gradientUnits="userSpaceOnUse" xlink:href="#a"/>
  <linearGradient id="f" x1="49.728" x2="85.048" gradientUnits="userSpaceOnUse" xlink:href="#a"/>
  <linearGradient id="e" x1="478.75" x2="590.62" gradientUnits="userSpaceOnUse" xlink:href="#a"/>
  <radialGradient id="d" cx="191.14" cy="243.58" r="5.9662" gradientTransform="matrix(1 0 0 1.1482 0 -36.086)" gradientUnits="userSpaceOnUse" xlink:href="#c"/>
  <radialGradient id="b" cx="193.79" cy="287.78" r="5.9662" gradientTransform="matrix(1 0 0 1.0504 0 -14.496)" gradientUnits="userSpaceOnUse" xlink:href="#c"/>
 </defs>
 <g transform="translate(4.5749,-3.5573)">
  <g transform="matrix(.42112 -.05984 -.06442 .14053 9.2696 158.15)" fill="#888" filter="url(#j)" stroke="#888">
   <g transform="matrix(2.2495 0 0 1.9526 -55.596 -403.66)">
    <g transform="matrix(.40748 0 0 1.3032 32.035 -127.82)">
     <path d="m71.951 349.86c-15.758-2.1173-11.006 7.0265-14.226 14.522-3.1421-1.1711-4.8383-0.9587-8.266-0.2475-2.99-6.7057 1.0433-15.333-14.277-13.962 0-8.1883 9.2555-15.146 19.042-15.146s17.728 6.6455 17.728 14.834z" stroke-width=".5916"/>
     <path d="m49.143 363.73h8.8456l-3.6113 53.935-3.3739-0.0781-1.8604-53.857z" stroke-width="1.0694"/>
     <path d="m54.4416,353.297c.554-.8832 1.4312-2.3502 1.7894-3.0021 .5429-.9881 3.1701-3.5246 3.6276-4.0195 .7216-.7807 3.5224-4.1513 4.6125-5.6615 .4494-.6226 3.9713-.0671 4.5253.8161s3.5391,2.8425 2.7786,8.7447c-1.9088-.4924-5.5391-.9893-7.026-.3519-1.8743.8035-3.1636,1.6644-3.9174,2.771-.9336,1.3705-.9114,2.1622-1.9031,6.3245-.9737,4.0864-1.2465,12.4758-1.3517,13.62-.0642.6987-1.9227,41.3788-2.7521,41.4163-3.4574.1562-1.4331-31.7556-1.4389-33.609-.0044-1.4788.4061-5.6322.3993-7.14s.0154-3.7829.0667-5.0753c.0488-1.2299.1317-6.4428.1317-7.7676s-.1898-2.3373.0872-3.5517-.183-2.6307.371-3.5139z" stroke-width=".5916"/>
     <path d="m71.951 349.86c-12.406-3.8521-21.609-4.4419-36.77 0.3123 0-4.0941-1.6258-4.6797 1.9114-5.4909s12.237-2.3164 17.13-2.3164 13.046 1.5833 16.255 2.3164 1.4736 1.0844 1.4736 5.1786z" stroke-width=".5916"/>
     <path d="m58.6273,364.971c-3.3919-1.5515-5.9078-1.789-10.0529.1258 0-1.6489-.4445-1.8848.5226-2.2115s3.3457-.933 4.6834-.933 3.5668.6377 4.444.933 .4029.4368.4029,2.0857z" stroke-width=".1963"/>
     <path d="m48.97 399.36c3.3377 1.0735 5.2255 1.1906 8.0981 0-0.6292 2.9472-1.6962 7.1632-0.9849 10.384-2.0245 1.659-4.2406 1.3858-6.4566-0.0781 1.2859-2.9472 0.4925-7.4755-0.6566-10.306z" stroke-width=".5916"/>
     <path d="m50.1737,413.1006c1.7509.6246 3.0642,1.0149 5.4717-.3904 2.1887,1.6395 1.6415,3.7475-.5472,5.387-1.5321.3904-2.517.7807-4.4868-.3123-2.1887-1.6395-2.6264-3.0448-.4377-4.6844z" stroke-width=".5916"/>
    </g>
    <g transform="matrix(.44328 0 0 .50047 7.099 211.67)">
     <g transform="matrix(1.0086 0 0 .93696 -408.38 38.307)">
      <path d="m701.88 193.75c0 45.885-8.4 149.95-21.975 180.04-13.575 30.091-32.325-13.789-53.025-13.789s-25.7 28.255-39.275-1.8362c-13.575-30.091-35.725-118.53-35.725-164.41s20.9-49.948 34.475-80.039c13.575-30.091-6.4799-85.241 40.525-86.211 51.922-1.0722 26.95 56.12 40.525 86.211s34.475 34.154 34.475 80.039z" stroke-width=".4"/>
      <path d="m754.42 271.38c-14.323-1.5851-52.566-89.429-69.418-45.758-42.09 0-11.25-42.64-11.25-64.375s33.251-32.935 61.309 3.4491c23.126 29.989 33.726 108.27 19.359 106.68z" stroke-width=".4"/>
      <path d="m646.64 112.16c-4.6551 6.3178-1.395 2.8885-8.6155 10.123-8.6215-4.0991-7.972-16.262-2.9901-23.356 4.7903-3.8524 9.8472-4.0787 16.197-1.9736-1.5402 5.7794-0.1944 5.9023-4.591 15.206z" stroke-width=".1968"/>
      <path d="m649.3 100.04c-10.312-1.1429-16.188 5.2615-16.451 0.9404-0.5297-8.6863-0.4397-9.8029-0.2487-12.664 0.2727-4.0842 0.1387-6.3272 9.4793-3.7825s8.6132 11.052 9.6324 15.276l-2.4119 0.23z" stroke-width=".1455"/>
      <path d="m569.77 167.57c0 24.756 27.051 56.201-11.835 56.201-62.04-83.557-0.5048-26.923-42.282-30.94-9.5956-0.9225-35.29 20.1-24.168-26.704 4.6794-19.693 78.285-23.312 78.285 1.443z" stroke-width=".362"/>
      <path transform="matrix(1.3178 0 0 1.4617 -196.87 -11.76)" d="m623.91 57.188c0 5.264-2.5184 9.5313-5.625 9.5313s-5.625-4.2673-5.625-9.5313 2.5184-9.5313 5.625-9.5313 5.625 4.2673 5.625 9.5313z" stroke-width=".4"/>
      <path transform="matrix(1.3223 0 0 1.4543 -203.39 -12.166)" d="m649.53 57.031c0 5.3503-2.4834 9.6875-5.5469 9.6875s-5.5469-4.3372-5.5469-9.6875 2.4834-9.6875 5.5469-9.6875 5.5469 4.3372 5.5469 9.6875z" stroke-width=".4"/>
      <path d="m620.52 383.34c-5.3384 1.3019-12.229-3.103-15.75-4.1551-4.8109-1.4376-6.666 7.5392-15.328 7.0361-10.272-0.5966-3.537-5.4215-11.116-6.9869-4.9886-1.0304-10.013 6.3981-13.556 0.7689-4.6382-7.3684 27.475-18.269 38.045-14.767s23.436 16.706 17.706 18.104z" stroke-width=".3149"/>
      <path d="m710.11 395.61c-2.0021 6.1742-11.285-2.0404-15.294 0.4238-5.4778 3.3669-2.2198 11.048-13.661 12.008-12.42 1.0419-10.668-9.2404-19.106-6.9395-6.3649 1.7357-7.8821 11.27-18.347 9.9032-13.698-1.7885 7.1137-26.628 19.632-33.737s48.926 11.714 46.777 18.341z" stroke-width=".439"/>
      <path d="m685.48 254.06c0 59.086-24.714 107.04-55.165 107.04s-55.165-47.954-55.165-107.04 24.714-107.04 55.165-107.04 55.165 47.954 55.165 107.04z" stroke-width=".6954"/>
      <path transform="matrix(-.57499 .68092 -.5346 -.73236 967.8 -247.81)" d="m546.68 73.656c0 3.6612-2.5722 6.6291-5.7452 6.6291s-5.7453-2.968-5.7453-6.6291 2.5722-6.6291 5.7453-6.6291c1.5832 0 3.0963 0.7539 4.1819 2.0836l-4.1819 4.5456z" stroke-width=".375"/>
      <path transform="matrix(-.57499 .68092 -.5346 -.73236 998.45 -247.98)" d="m546.68 73.656c0 3.6612-2.5722 6.6291-5.7452 6.6291s-5.7453-2.968-5.7453-6.6291 2.5722-6.6291 5.7453-6.6291c1.5832 0 3.0963 0.7539 4.1819 2.0836l-4.1819 4.5456z" stroke-width=".375"/>
      <path d="m650.5385,99.7711c-.1927,2.5223-1.5171,7.7721-3.9677,12.2441-2.5668,3.8466-3.8585,5.9148-8.5558,10.0783-3.0053-5.0268 5.6876-14.3414 5.4142-23.8967-.2734-9.6241-5.3414-13.9209-.9299-13.3701 1.5265.1906 4.7146,1.3205 6.811,5.3377 1.6098,3.1955 2.0289,7.7669 2.2897,9.5374-.6687.0195-.45.1564-1.0615.0693z" stroke-width=".375"/>
      <g transform="translate(95.312 7.8125)">
       <path d="m590.62 30c0 8.6294-25.044 15.625-55.938 15.625s-55.938-6.9956-55.938-15.625 25.044-15.625 55.938-15.625 55.938 6.9956 55.938 15.625z" stroke-width=".375"/>
       <path d="m493.44-34.062c15-15.938 63.75-14.062 78.75 1.875-9.375 35.312-8.4375 35.312-3.125 54.375 5.2699 18.91-53.438 18.906-69.375 3.75 2.1875-28.192 3.125-29.062-6.25-60z" stroke-width=".375"/>
       <path d="m501.56 29.04c15-2.3923 60.312 8.8267 67.812-6.5936 3.75 3.4256 0.5025 3.9787-4.0625 6.9119-4.4176 2.8384-28.125 3.8162-35.312 3.0629-7.2265-0.7574-15-2.1749-28.438-3.3813z" stroke-width=".375"/>
       <path d="m497.8125-11.5625c3.125-3.9063 50.625-3.5938 67.5.3125 3.2813,1.1719.0781,4.9609-.3125,8.2031s2.0313,5.9375.3125,7.4219c-16.875,3.9063-58.75,6.4063-66.5625,0-1.25-7.3438 2.8125-4.5312-.9375-15.9375z" stroke-miterlimit="4.6" stroke-width=".625"/>
      </g>
      <path d="m618.49 54.063c-7.8213 0-14.175 7.9618-14.175 17.768s6.3537 17.768 14.175 17.768 14.419-7.967 14.175-17.768c-0.2526-10.134-6.4286-17.865-14.175-17.768zm0.1308 4.0262c7.5853 0 11.334 5.4266 11.334 13.232 0 4.5809 1.2199 13.51-11.465 14.528-7.5705 0.6141-10.54-4.2402-10.681-13.742-0.1308-8.4848 3.2261-14.019 10.811-14.019z" stroke-miterlimit="4.6" stroke-width=".625"/>
      <path d="m597.3375,68.2043c-.0648.8588-.1077,1.7338.0615,2.5839 .1395.5869.4397,1.1191.7263,1.6445 .4125.7044.8607,1.4096 1.4801,1.9517 .2384.2114.5466.3664.8732.3315 .6115-.0533 1.1648-.3484 1.7234-.5788 .808-.3486 1.6472-.6952 2.5378-.7308 .0638-.0144.1843.0418.1794-.0583 .1205-.4884.1993-.99.1687-1.4947-.0729-1.4452-.4837-3.095-1.3439-4.2428-.6851-.9016-1.6393-2.1714-2.7569-2.4683-2.5383-.7121-3.2233-.3235-3.6495,3.0621zm4.5656-.9598c1.2657,1.0402 2.1069,2.5778 2.3242,4.1995 .0511.4123.0563.8324-.009,1.2435-1.0707.0434-2.169.0144-3.1956-.3238-.7365-.2439-1.4251-.7425-1.7406-1.4699-.4976-1.319-.2066-2.7062-.0951-4.0813 1.0214-.6604 1.7658.0818 2.7156.432z" stroke-miterlimit="4.6" stroke-width=".7467"/>
      <path d="m602.4914,74.1443c.0922.7574.086.596.086,1.7341s.3136,2.16.2214,2.9174c-.0461.3787-.2337.7081-.5903.9311s-.8666.3414-1.6972.3414-1.4505-.1079-1.8448-.3104-.5704-.4845-.6641-.838c-.1875-.707 0-1.685 0-2.8243s-.1868-2.2325 0-3.0415c.0934-.4045.2741-.752.6641-.9932s1.011-.3724 1.8448-.3724 1.3175.5161 1.462.8477c-.5256-.0873-.6881-.4442-1.462-.4442s-.7196.4351-1.07.6518-.0192.3798-.1107.7759c-.183.7922.1845,1.4312.1845,2.576s-.2661,1.3766-.3379,2.0909c-.0346.3437-.1742,1.0988.1719,1.2765s.3852.3569 1.1622.3569c.7739,0 1.0719-.6386 1.0778-1.0515 .008-.5916-.1133-.6943-.1193-1.1483-.0128-.9567-.0598-.2209-.0597-1.3669s-.0722-.8918-.1623-1.6322" stroke-miterlimit="4.6" stroke-width=".1608"/>
     </g>
     <path transform="matrix(.72206,-.69183,.69183,.72206,0,0)" d="m-6.5982 235.23c16.779-2.0422 20.787-1.0273 36.805-5.9247 9.7869 22.538-20.21 42.798 4.7348 91.024-26.013 33.7-47.427 55.215-68.236 69.165-19.643-19.207-42.536-44.787-55.488-65.513 7.1769-14.905 6.2471-13.536 23.247-37.815 25.564-3.8323 30.81-5.5537 38.193-11.254 15.332-13.997 6.516-28.127 20.744-39.682z" stroke-width=".5"/>
     <path d="m269.82 150c11.406 6.4063 12.525 11.56 20.182 20.622 3.9063 14.688-12.633 19.75-6.875 41.25s18.344 24.314 15.938 30.781l-3.4375 54.531c-20 4.0625-27.5 6.9531-57.188 6.4063-13.438-24.297-3.8281-61.606 3.4375-99.223 32.767-30.124 21.708-43.902 27.943-54.368z" stroke-width=".5"/>
    </g>
    <path transform="matrix(.82213 0 0 1 7.9154 -5.6954e-6)" d="m96.406 284.53c8.9844 4.9609 10.493 7.7246 14.009 10.625 5.8289 7.1346 12.559 12.207 17.527 20 4.2948 9.9902 4.226 43.477 3.081 48.63-2.553 0.8588-1.1815-4.4087-1.2993-10.526-0.1067-5.5409 3.8377-26.756-5.6261-36.718-4.7319-4.9809-17.309-9.6471-21.568-14.015-1.0369-1.0635-2.5951-5.8262-3.1193-7.9257-2.311 0.9175-6.6728-0.2087-7.8714 1.222-3.649-2.1806-1.949 0.0938-4.6638-4.4179s1.0156-4.4922 9.5312-6.875z" stroke-width=".5"/>
    <path d="m89.604 313.28c0.8656-2.3242 2.8092-5.2344 5.5531-4.1406-0.2613 11.562 4.0015 1.582 5.4224 8.5156s0.2613 19.219 0.2613 19.219l-12.282-4.6875s0.2279-16.712 1.0453-18.906z" stroke-width=".4572"/>
    <path transform="matrix(.44708 0 0 .46892 -173.93 230.85)" d="m588.15 185.65c-4.9809-6.3245 17.863-46.766 0.4944-70.606-17.138-23.524 9.3076-33.283 12.094-35.627" fill-rule="evenodd" stroke-width="1.7476"/>
    <path d="m87.252 315c4.8998 7.5 10.976 10.859 15.941 8.4375 1.4131 16.391 0.4573 15.625-3.3972 19.375s-8.885 2.5781-12.021-4.375c-0.784-6.3281-0.4459-7.8075-0.5226-23.438z" stroke-width=".4572"/>
    <path d="m112.9835,313.6307c-1.5904-4.553 10.9655-31.0344 14.5978-28.9472 3.5571,2.044 5.1277.9391 6.2826,3.5355 .308.6925-.7067,3.0909-2.4131,6.2796-.8532,1.5943-4.651-2.8009-5.7711-.9259s.6223,7.8107-.6069,9.7377c-4.9168,7.7077-10.9994,15.1359-11.3503,14.5187-.7853-1.3811.7853.1657-.7391-4.1985z" stroke-width=".4572"/>
    <path d="m92.473 288.88c8.5924 4.2537 22.497 5.0271 30.489-1e-5 -1.8016 3.8118-6.803 10.442-10.533 24.307-5.5774-6.4649-12.935-16.076-19.957-24.307z" stroke-width=".4572"/>
    <path d="m118 305.57c-8.9053 1.1886-6.0565-15.194-18.819-13.988-2.978-0.2641-1.0398 4.1608-0.8376 6.1041 0.2004 1.9266 1.2475 4.2868 2.8829 7.9692 15.209 1.4417 5.2466-17.803 19.678-14.234 1.0201 1.8663 1.4489 2.136 1.0313 7.1669 0.2329 3.1451-1.0991 7.4081-3.9353 6.9819z" stroke-width=".3052"/>
    <path transform="translate(-12.816)" d="m125.95 300.04c0 1.7696-1.0635 3.2041-2.3754 3.2041s-2.3754-1.4345-2.3754-3.2041 1.0635-3.2041 2.3754-3.2041 2.3754 1.4345 2.3754 3.2041z" stroke-width=".5"/>
   </g>
   <path d="m134.2833,394.0909c-2.466-.4688-7.4497,3.1056-9.4875,2.4761-.6763-.2089 8.0504-3.7435 9.0095-4.3077s2.3107-1.2346 3.8645-1.9766 3.3097-1.5555 5.0775-2.4058c-.9491.8011-1.8467,1.5906-2.2951,3.0077s-.6038.8836-1.006,2.0075-.1138,2.2646-.4558,3.4362c-.7751-.6244-1.3144-1.7664-4.707-2.2375z" stroke-width=".875"/>
   <path d="m166.17 395.82c-2.1094-0.7185-3.8825-1.6016-6.0547-1.9141-1.7034 0-4.8047 2.8363-5.8984 3.8672 0-1.7034 3.1012-8.7109 4.8047-8.7109s7.1484 5.0544 7.1484 6.7578z" stroke-width=".875"/>
   <path d="m228.87 418.15c-1.823-0.7831-2.9999-3.5355-7.6235-4.3089-5.397-0.1105-9.4465 5.9565-11.767 7.2368 0-3.4153 7.1983-15.523 11.711-15.523s7.6787 9.18 7.6787 12.595z" stroke-width=".875"/>
   <path d="m258.48 410c-1.7678-0.3931-3.5294-1.3534-6.2701-0.6353-2.4099 1.5237-2.845 2.1757-5.1099 6.5463-1.6573-11.705-7.022-13.507-4.1708-13.507s15.551 5.1716 15.551 7.5959z" stroke-width=".875"/>
   <path d="m143.19 219.06s5.1928 10.165 13.258 11.932c3.2041 11.49 2.7621 28.174-0.4419 34.03s-12.374-10.607-12.374-10.607l-0.4419-35.355z" stroke-width=".875"/>
   <path transform="translate(-3.0936 -15.91)" d="m197.11 243.58c0 3.7832-2.6712 6.8501-5.9662 6.8501s-5.9662-3.0669-5.9662-6.8501 2.6712-6.8501 5.9662-6.8501 5.9662 3.0669 5.9662 6.8501z" stroke-width=".875"/>
   <path transform="matrix(.84922 0 0 .80684 28.981 61.657)" d="m199.76 287.78c0 3.3137-2.6712 6-5.9662 6s-5.9662-2.6863-5.9662-6 2.6712-6 5.9662-6 5.9662 2.6863 5.9662 6z" stroke-width=".875"/>
   <path transform="matrix(.84922 0 0 .80684 30.231 24.782)" d="m199.76 287.78c0 3.3137-2.6712 6-5.9662 6s-5.9662-2.6863-5.9662-6 2.6712-6 5.9662-6 5.9662 2.6863 5.9662 6z" stroke-width=".875"/>
  </g>
  <path d="m18.633 118.81c-6.8017-2.8463-4.7506 9.4456-6.1404 19.521-1.3562-1.5743-2.0883-1.2888-3.5678-0.3327-1.2905-9.0143 0.4503-20.611-6.1624-18.768 0-11.007 3.9948-20.361 8.2187-20.361s7.6519 8.9335 7.6519 19.941z" fill="#393a30" stroke="#393a30" stroke-width=".4506"/>
  <path d="m8.7883 137.45h3.8179l-1.5587 72.504-1.4563-0.105-0.803-72.399z" fill="#393a30" stroke="#393a30" stroke-width=".8146"/>
  <path d="m11.0752,123.4269c.2391-1.1873.6177-3.1593.7723-4.0357 .2343-1.3283 1.3683-4.738 1.5657-5.4034 .3114-1.0495 1.5203-5.5805 1.9908-7.6106 .194-.8369 1.7141-.0902 1.9532,1.0971s1.5275,3.8212 1.1993,11.7554c-.8239-.6619-2.3908-1.33-3.0326-.4731-.809,1.0801-1.3655,2.2374-1.6908,3.725-.403,1.8424-.3934,2.9067-.8214,8.5019-.4203,5.4933-.538,16.7709-.5834,18.3091-.0277.9393-.8299,55.6248-1.1879,55.6752-1.4923.2099-.6186-42.6885-.6211-45.18-.0019-1.9879.1753-7.5713.1723-9.5982s.0066-5.0852.0288-6.8227c.0211-1.6533.0568-8.661.0568-10.4419s-.0819-3.142.0376-4.7745-.079-3.5364.1602-4.7237z" stroke="#000" stroke-width=".4506"/>
  <path d="m18.633 118.81c-5.3549-5.1783-9.3267-5.9712-15.871 0.4198 0-5.5037-0.7017-6.2908 0.825-7.3812s5.2818-3.1139 7.3937-3.1139 5.6308 2.1284 7.0158 3.1139 0.636 1.4578 0.636 6.9615z" fill="#f6f814" stroke="#080805" stroke-width=".4506"/>
  <path d="m12.8818,139.1199c-1.464-2.0856-2.5499-2.405-4.339.1691 0-2.2167-.1918-2.5337.2256-2.9729s1.444-1.2542 2.0214-1.2542 1.5395.8572 1.9181,1.2542 .1739.5871.1739,2.8038z" fill="#f6f814" stroke="#080805" stroke-width=".1495"/>
  <path d="m8.7135,185.3483c1.4406,1.4431 2.2554,1.6005 3.4953,0-.2716,3.9619-.7321,9.6293-.4251,13.9586-.8738,2.2302-1.8303,1.8629-2.7868-.105 .555-3.9619.2126-10.0491-.2834-13.8536z" fill="#f5f6f1" stroke="#393a30" stroke-width=".4506"/>
  <path d="m9.233,203.8198c.7557.8396 1.3225,1.3644 2.3617-.5248 .9447,2.204.7085,5.0377-.2362,7.2416-.6613.5248-1.0864,1.0495-1.9366-.4198-.9447-2.204-1.1336-4.0931-.1889-6.2971z" fill="#f6f814" stroke="#393a30" stroke-width=".4506"/>
  <path d="m101.79 112.2c0 22.195-3.9779 72.531-10.406 87.087s-15.308-6.6698-25.111-6.6698-12.17 13.667-18.599-0.8882-16.918-57.334-16.918-79.529 9.8974-24.16 16.326-38.716-3.0687-41.232 19.191-41.701c24.588-0.5186 12.762 27.146 19.191 41.701s16.326 16.521 16.326 38.716z" stroke="#060000" stroke-width=".1914"/>
  <path d="m126.67 149.75c-6.783-0.7667-24.893-43.258-32.874-22.134-19.932 0-5.3276-20.626-5.3276-31.139s15.746-15.931 29.034 1.6684c10.952 14.506 15.971 52.373 9.1678 51.604z" fill-opacity=".993" stroke="#060000" stroke-width=".1914"/>
  <path d="m75.636 72.73c-2.2045 3.056-0.6606 1.3972-4.08 4.8968-4.0828-1.9828-3.7753-7.8663-1.416-11.298 2.2685-1.8634 4.6633-1.9729 7.6701-0.9546-0.7294 2.7956-0.0921 2.855-2.1741 7.3554z" fill="#fc0" stroke="#1b0b11" stroke-width=".0942"/>
  <path d="m76.8963,66.8697c-4.8834-.5528-7.6658,2.545-7.7906.4549-.2508-4.2017-.2082-4.7418-.1178-6.1257 .1291-1.9756.0657-3.0605 4.489-1.8296s4.0789,5.3462 4.5615,7.3893l-1.1422.1112z" fill="#fc0" stroke="#1b0b11" stroke-width=".0696"/>
  <path d="m39.231 99.533c0 11.974 12.81 27.185-5.6046 27.185-29.38-40.417-0.2391-13.023-20.023-14.966-4.5441-0.4462-16.712 9.7224-11.445-12.917 2.216-9.5257 37.073-11.276 37.073 0.698z" stroke="#060000" stroke-width=".1733"/>
  <path transform="matrix(.62405 0 0 .70703 -323.82 12.79)" d="m623.91 57.188c0 5.264-2.5184 9.5313-5.625 9.5313s-5.625-4.2673-5.625-9.5313 2.5184-9.5313 5.625-9.5313 5.625 4.2673 5.625 9.5313z" fill="#f3f0f0" stroke="#060000" stroke-width=".4"/>
  <path transform="matrix(.62619 0 0 .70344 -326.91 12.593)" d="m649.53 57.031c0 5.3503-2.4834 9.6875-5.5469 9.6875s-5.5469-4.3372-5.5469-9.6875 2.4834-9.6875 5.5469-9.6875 5.5469 4.3372 5.5469 9.6875z" fill="#f8f1f1" stroke="#060000" stroke-width=".4"/>
  <path d="m63.264,203.9015c-2.5281.6297-5.791-1.501-7.4584-2.0099-2.2783-.6954-3.1567,3.6468-7.259,3.4034-4.8645-.2886-1.675-2.6224-5.2643-3.3796-2.3624-.4984-4.7417,3.0948-6.4197.3719-2.1965-3.5642 13.0111-8.8368 18.0165-7.1429s11.0984,8.0811 8.3848,8.7571z" fill="#fc0" stroke="#060000" stroke-width=".1507"/>
  <path d="m105.6937,209.84c-.9481,2.9865-5.3442-.9869-7.2428.205-2.5941,1.6286-1.0512,5.3441-6.4692,5.8084-5.8818.504-5.0522-4.4697-9.048-3.3567-3.0142.8396-3.7327,5.4512-8.6885,4.7903-6.4871-.8651 3.3688-12.8804 9.2968-16.3188s23.1694,5.6662 22.1517,8.8718z" fill="#fc0" stroke="#060000" stroke-width=".2101"/>
  <path d="m94.027 141.37c0 28.581-11.704 51.776-26.124 51.776s-26.124-23.196-26.124-51.776 11.704-51.776 26.124-51.776 26.124 23.196 26.124 51.776z" fill="#f6f3f3" stroke="#060000" stroke-width=".3328"/>
  <path transform="matrix(-.27229 .32937 -.25317 -.35425 227.72 -101.39)" d="m546.68 73.656c0 3.6612-2.5722 6.6291-5.7452 6.6291s-5.7453-2.968-5.7453-6.6291 2.5722-6.6291 5.7453-6.6291c1.5832 0 3.0963 0.7539 4.1819 2.0836l-4.1819 4.5456z"/>
  <path transform="matrix(-.27229 .32937 -.25317 -.35425 242.24 -101.47)" d="m546.68 73.656c0 3.6612-2.5722 6.6291-5.7452 6.6291s-5.7453-2.968-5.7453-6.6291 2.5722-6.6291 5.7453-6.6291c1.5832 0 3.0963 0.7539 4.1819 2.0836l-4.1819 4.5456z"/>
  <path d="m77.4814,66.7385c-.0912,1.2201-.7185,3.7595-1.879,5.9226-1.2155,1.8607-1.8272,2.861-4.0517,4.875-1.4232-2.4315 2.6934-6.9371 2.564-11.5591-.1295-4.6553-2.5295-6.7337-.4404-6.4672 .7229.0922 2.2327.6388 3.2255,2.5819 .7623,1.5457.9608,3.7569 1.0843,4.6133-.3167.0094-.2131.0756-.5027.0335z" fill="#cea402" fill-opacity=".75"/>
  <path transform="matrix(.44851 0 0 .45812 -171.58 24.228)" d="m590.62 30c0 8.6294-25.044 15.625-55.938 15.625s-55.938-6.9956-55.938-15.625 25.044-15.625 55.938-15.625 55.938 6.9956 55.938 15.625z" fill="url(#e)"/>
  <path d="m49.728 8.6227c6.7277-7.3014 28.593-6.4424 35.32 0.859-4.2048 16.178-3.7843 16.178-1.4016 24.91 2.3636 8.663-23.967 8.6614-31.116 1.718 0.9811-12.915 1.4016-13.314-2.8032-27.488z" fill="url(#f)"/>
  <path d="m53.372 37.532c6.7277-1.096 27.051 4.0437 30.415-3.0207 1.6819 1.5693 0.2254 1.8228-1.8221 3.1665-1.9813 1.3004-12.614 1.7483-15.838 1.4032-3.2412-0.347-6.7277-0.9964-12.755-1.549z" fill="#9d9a9a" fill-opacity=".586"/>
  <path d="m51.6901,18.9305c1.4016-1.7896 22.7059-1.6464 30.2746.1432 1.4717.5369.035,2.2727-.1402,3.7581s.911,2.7201.1402,3.4001c-7.5686,1.7896-26.3501,2.9349-29.8541,0-.5606-3.3644 1.2614-2.0759-.4205-7.3014z" fill="#fff9f9" stroke="#000" stroke-miterlimit="4.6" stroke-width=".2833"/>
  <path d="m62.3023,44.6288c-3.7038,0-6.7127,3.8512-6.7127,8.5945s3.0089,8.5945 6.7127,8.5945 6.8284-3.8537 6.7127-8.5945c-.1196-4.9019-3.0443-8.6415-6.7127-8.5945zm.0619,1.9475c3.5921,0 5.3675,2.6249 5.3675,6.4007 0,2.2158.5777,6.535-5.4295,7.0276-3.5851.2971-4.9912-2.051-5.0579-6.647-.0619-4.1042 1.5277-6.7813 5.1198-6.7813z" fill="#f6f814"/>
  <path d="m52.2875,51.4692c-.0307.4154-.051.8387.0291,1.2499 .0661.2839.2082.5413.3439.7955 .1954.3407.4076.6818.7009.944 .1129.1023.2589.1772.4135.1603 .2896-.0258.5516-.1685.8162-.28 .3826-.1686.7801-.3363 1.2018-.3535 .0302-.007.0873.0202.0849-.0282 .0571-.2363.0944-.4789.0799-.723-.0345-.6991-.2291-1.4971-.6364-2.0523-.3244-.4361-.7763-1.0503-1.3056-1.1939-1.2021-.3445-1.5264-.1565-1.7283,1.4812zm2.1621-.4643c.5994.5032.9978,1.2469 1.1007,2.0314 .0242.1995.0267.4026-.0043.6015-.507.021-1.0272.007-1.5133-.1566-.3488-.118-.6749-.3592-.8243-.711-.2356-.638-.0978-1.309-.045-1.9742 .4837-.3194.8362.0396 1.286.209z" fill="#fafa09"/>
  <path d="m54.7282,54.3425c.0437.3664.0407.2883.0407.8388s.1485,1.0448.1048,1.4112c-.0218.1832-.1107.3425-.2796.4504s-.4104.1651-.8037.1651-.6869-.0522-.8736-.1501-.2701-.2343-.3145-.4053c-.0888-.342 0-.8151 0-1.3661s-.0885-1.0799 0-1.4712c.0442-.1957.1298-.3638.3145-.4804s.4788-.1802.8736-.1802 .6239.2496.6923.41c-.2489-.0422-.3259-.2149-.6923-.2149-.365,0-.3408.2105-.5067.3153s-.0091.1837-.0524.3753c-.0866.3832.0874.6923.0874,1.246s-.126.6659-.16,1.0114c-.0164.1662-.0825.5315.0814.6175s.1824.1726.5504.1726 .5076-.3089.5104-.5086c.0038-.2862-.0536-.3358-.0565-.5555-.0061-.4628-.0283-.1069-.0283-.6612s-.0342-.4314-.0769-.7895" fill="#f6f814" stroke="#000" stroke-miterlimit="4.6" stroke-width=".077"/>
  <path d="m35.339 88.745c5.0254-6.7541 6.714-7.8073 10.554-15.354 10.639 4.9059 7.0505 23.172 31.174 32.24 2.1276 21.853 1.8564 37.521-0.6671 50.154-12.899-0.1442-28.97-1.5031-40.094-4.6032-2.4087-8.1195-2.2792-7.2772-4.4023-22.399 7.4223-10.559 8.6419-13.074 9.2933-17.836 0.6515-10.694-6.9277-12.812-5.8574-22.201z" fill="#393a30" stroke="#393a30" stroke-width=".2462"/>
  <path d="m87.854 76.142c5.3557 3.3072 5.8812 5.9677 9.4761 10.646 1.8341 7.5825-5.9316 10.196-3.2281 21.296s8.6132 12.552 7.4833 15.891l-1.614 28.152c-9.3908 2.0973-12.912 3.5896-26.852 3.3072-6.3095-12.543-1.7975-31.804 1.614-51.224 15.385-15.552 10.193-22.665 13.12-28.068z" fill="#393a30" stroke="#393a30" stroke-width=".2462"/>
  <path d="m45.982 73.857c7.8239 5.1174 9.1378 7.9683 12.199 10.96 5.076 7.3596 10.936 12.592 15.263 20.631 3.74 10.305 3.6802 44.848 2.683 50.164-2.2233 0.8859-1.0289-4.5478-1.1315-10.858-0.0929-5.7156 3.342-27.6-4.8994-37.876-4.1207-5.138-15.074-9.9514-18.782-14.458-0.9029-1.0971-2.2599-6.0099-2.7164-8.1757-2.0125 0.9464-5.8109-0.2152-6.8547 1.2606-3.1776-2.2494-1.6972 0.0968-4.0614-4.5572s0.8844-4.6339 8.3001-7.0919z" fill="url(#g)" stroke="#000" stroke-width=".4739"/>
  <path d="m48.556 103.51c0.9169-2.3975 2.9756-5.3995 5.8821-4.2712-0.2768 11.927 4.2386 1.6319 5.7437 8.7842s0.2768 19.825 0.2768 19.825l-13.01-4.8354s0.2414-17.239 1.1072-19.503z" fill="#f5f5f3" stroke="#000" stroke-width=".4779"/>
  <path d="m47.936 108.28c-2.3587-3.0592 8.4592-22.621 0.2341-34.153-8.1158-11.379 4.4077-16.099 5.7273-17.233" fill="none" stroke="#f5f80f" stroke-width=".8364"/>
  <path d="m46.065 105.29c5.1901 7.7366 11.626 11.202 16.885 8.7036 1.4968 16.908 0.4844 16.118-3.5984 19.986s-9.4113 2.6594-12.733-4.513c-0.8304-6.5277-0.4723-8.0538-0.5536-24.177z" fill="#393a30" stroke="#000" stroke-width=".4779"/>
  <path d="m73.3207,103.8742c-1.6846-4.6966 11.6151-32.0133 15.4626-29.8602 3.7678,2.1085 5.4315.9688 6.6548,3.6471 .3263.7144-.7486,3.1884-2.556,6.4776-.9037,1.6446-4.9265-2.8893-6.113-.9551s.6592,8.0571-.6428,10.0448c-5.2081,7.9508-11.6509,15.6133-12.0227,14.9767-.8318-1.4246.8319.171-.7829-4.3309z" fill="url(#h)" stroke="#000" stroke-width=".4779"/>
  <path d="m51.595 78.345c9.1014 4.3878 23.83 5.1856 32.295 0-1.9084 3.932-7.2061 10.772-11.157 25.074-5.9078-6.6689-13.701-16.583-21.139-25.074z" fill="#f5f5f3" stroke="#000" stroke-width=".4779"/>
  <path d="m78.635 95.557c-9.4328 1.226-6.4153-15.674-19.934-14.429-3.1544-0.2725-1.1014 4.2921-0.8873 6.2966 0.2123 1.9874 1.3214 4.422 3.0536 8.2206 16.11 1.4871 5.5574-18.364 20.843-14.683 1.0806 1.9251 1.5348 2.2034 1.0923 7.3929 0.2467 3.2443-1.1643 7.6418-4.1685 7.2022z" fill="#393a30" stroke="#000" stroke-width=".319"/>
  <path transform="matrix(1.0592 0 0 1.0315 -59.931 -219.65)" d="m125.95 300.04c0 1.7696-1.0635 3.2041-2.3754 3.2041s-2.3754-1.4345-2.3754-3.2041 1.0635-3.2041 2.3754-3.2041 2.3754 1.4345 2.3754 3.2041z" fill="#393a30" stroke="#000" stroke-width=".5"/>
  <path d="m43.0536,201.7942c-1.1612-.2476-3.5079,1.6406-4.4674,1.3081-.3185-.1104 3.7907-1.9776 4.2424-2.2757s1.0881-.6523 1.8197-1.0442 1.5585-.8218 2.3909-1.271c-.4469.4232-.8696.8403-1.0807,1.5889s-.2843.4668-.4737,1.0606-.0536,1.1964-.2146,1.8153c-.365-.3298-.6189-.9332-2.2164-1.182z" fill="#c49e00"/>
  <path d="m58.0691,202.7078c-.9933-.3795-1.8282-.8461-2.851-1.0112-.8021,0-2.2624,1.4984-2.7774,2.043 0-.8999 1.4603-4.6019 2.2624-4.6019s3.366,2.6702 3.366,3.5701z" fill="#c49e00"/>
  <path d="m87.592 214.5c-0.8584-0.4137-1.4126-1.8678-3.5897-2.2764-2.5413-0.0584-4.4481 3.1467-5.5407 3.8231 0-1.8043 3.3895-8.2007 5.5146-8.2007s3.6157 4.8497 3.6157 6.654z" fill="#c49e00"/>
  <path d="m101.5352,210.1996c-.8324-.2077-1.6619-.715-2.9524-.3356-1.1348.8049-1.3396,1.1494-2.4061,3.4583-.7804-6.1836-3.3065-7.1355-1.9639-7.1355s7.3225,2.7321 7.3225,4.0128z" fill="#c49e00"/>
  <path d="m47.247 109.32s2.4452 5.3699 6.243 6.3038c1.5087 6.0703 1.3006 14.884-0.2081 17.977s-5.8268-5.6033-5.8268-5.6033l-0.2081-18.678z" fill="url(#i)"/>
  <path transform="matrix(.47088 0 0 .52829 -21.634 -14.805)" d="m197.11 243.58c0 3.7832-2.6712 6.8501-5.9662 6.8501s-5.9662-3.0669-5.9662-6.8501 2.6712-6.8501 5.9662-6.8501 5.9662 3.0669 5.9662 6.8501z" fill="url(#d)"/>
  <path transform="matrix(.39988 0 0 .42625 -6.5306 26.173)" d="m199.76 287.78c0 3.3137-2.6712 6-5.9662 6s-5.9662-2.6863-5.9662-6 2.6712-6 5.9662-6 5.9662 2.6863 5.9662 6z" fill="url(#b)"/>
  <path transform="matrix(.39988 0 0 .42625 -5.942 6.6925)" d="m199.76 287.78c0 3.3137-2.6712 6-5.9662 6s-5.9662-2.6863-5.9662-6 2.6712-6 5.9662-6 5.9662 2.6863 5.9662 6z" fill="url(#b)"/>
 </g>
</svg>
