<?xml version="1.0" encoding="UTF-8"?>
<svg viewBox="0 0 1024 1024" xmlns="http://www.w3.org/2000/svg" xmlns:xlink="http://www.w3.org/1999/xlink">
 <defs>
  <filter id="ae">
   <feGaussianBlur stdDeviation="3.3586"/>
  </filter>
  <filter id="ad">
   <feGaussianBlur stdDeviation="3.486"/>
  </filter>
  <filter id="ac">
   <feGaussianBlur stdDeviation="7.51"/>
  </filter>
  <filter id="h">
   <feGaussianBlur stdDeviation="4.038"/>
  </filter>
  <filter id="g">
   <feGaussianBlur stdDeviation="3.2747"/>
  </filter>
  <filter id="f">
   <feGaussianBlur stdDeviation="2.458"/>
  </filter>
  <filter id="aa">
   <feGaussianBlur stdDeviation="2.2333"/>
  </filter>
  <filter id="ag">
   <feGaussianBlur stdDeviation="6.2444"/>
  </filter>
  <filter id="af">
   <feGaussianBlur stdDeviation="6.2685"/>
  </filter>
  <filter id="ab" x="-.03273" y="-.36" width="1.0654" height="1.72">
   <feGaussianBlur stdDeviation="10.9921"/>
  </filter>
  <filter id="ah" x="-.10821" y="-.13467" width="1.2164" height="1.2693">
   <feGaussianBlur stdDeviation="8.198"/>
  </filter>
  <linearGradient id="c">
   <stop stop-color="#3c3c3c" offset="0"/>
   <stop stop-color="#3c3c3c" stop-opacity="0" offset="1"/>
  </linearGradient>
  <linearGradient id="b">
   <stop stop-color="#dfbe00" offset="0"/>
   <stop stop-color="#deaf00" offset=".8"/>
   <stop stop-color="#dea101" offset="1"/>
  </linearGradient>
  <linearGradient id="a">
   <stop stop-color="#fff" offset="0"/>
   <stop stop-color="#fff" stop-opacity="0" offset="1"/>
  </linearGradient>
  <linearGradient id="e">
   <stop stop-color="#d2d2d2" offset="0"/>
   <stop stop-color="#d2d2d2" offset=".88"/>
   <stop stop-color="#808080" offset="1"/>
  </linearGradient>
  <linearGradient id="q" x2="0" y1="454.05" y2="592.51" gradientUnits="userSpaceOnUse">
   <stop stop-color="#fff" offset="0"/>
   <stop stop-color="#bebebe" offset="1"/>
  </linearGradient>
  <linearGradient id="p" x2="0" y1="-9.6422" y2="360.62" gradientUnits="userSpaceOnUse" xlink:href="#a"/>
  <linearGradient id="d" x2="0" y1="806.09" y2="888.87" gradientUnits="userSpaceOnUse" xlink:href="#a"/>
  <linearGradient id="z" x1="511.32" x2="529.1" y1="294.57" y2="327.91" gradientUnits="userSpaceOnUse" xlink:href="#c"/>
  <linearGradient id="y" x1="536.39" x2="546.65" y1="260.33" y2="290.97" gradientUnits="userSpaceOnUse" xlink:href="#a"/>
  <linearGradient id="x" x1="452.01" x2="469.79" y1="292.49" y2="325.83" gradientUnits="userSpaceOnUse" xlink:href="#c"/>
  <linearGradient id="w" x1="479.59" x2="487.35" y1="261.58" y2="289.72" gradientUnits="userSpaceOnUse" xlink:href="#a"/>
  <linearGradient id="v" x1="938.65" x2="1242.6" y1="638.37" y2="401.18" gradientTransform="matrix(-1 0 0 1 2045.6 42.426)" gradientUnits="userSpaceOnUse" xlink:href="#a"/>
  <linearGradient id="u" x1="-85.351" x2="218.62" y1="682.73" y2="445.53" gradientUnits="userSpaceOnUse" xlink:href="#a"/>
  <linearGradient id="t" x1="560.17" x2="529.29" y1="366.22" y2="418.5" gradientUnits="userSpaceOnUse" xlink:href="#a"/>
  <linearGradient id="s" x1="626.25" x2="657.6" y1="224.06" y2="276.2" gradientUnits="userSpaceOnUse" xlink:href="#a"/>
  <linearGradient id="r" x1="437.25" x2="474.75" y1="208.29" y2="268.07" gradientUnits="userSpaceOnUse" xlink:href="#a"/>
  <radialGradient id="j" cx="430.04" cy="269.02" r="77.137" gradientTransform="matrix(1,0,0,1.2625,0,-70.617)" gradientUnits="userSpaceOnUse" xlink:href="#e"/>
  <radialGradient id="i" cx="615.17" cy="306.62" r="77.137" gradientUnits="userSpaceOnUse" xlink:href="#e"/>
  <radialGradient id="o" cx="510.07" cy="418.72" r="90.912" gradientTransform="matrix(1 -9.7786e-8 7.8572e-8 .80351 8.2454e-5 82.275)" gradientUnits="userSpaceOnUse" xlink:href="#b"/>
  <radialGradient id="n" cx="1619.9" cy="319.54" r="89.638" gradientTransform="matrix(-.75176 -.93075 .35943 -.24791 1476.1 1923.8)" gradientUnits="userSpaceOnUse" xlink:href="#a"/>
  <radialGradient id="m" cx="1619.9" cy="319.54" r="89.638" gradientTransform="matrix(-1 -9.1744e-7 3.3119e-7 -.361 2230.4 461.02)" gradientUnits="userSpaceOnUse" xlink:href="#a"/>
  <radialGradient id="l" cx="317.23" cy="898.07" r="170.68" gradientTransform="matrix(1 0 0 .46908 0 457.16)" gradientUnits="userSpaceOnUse" xlink:href="#b"/>
  <radialGradient id="k" cx="712.56" cy="902.18" r="170.68" gradientTransform="matrix(1 0 0 .46908 0 457.16)" gradientUnits="userSpaceOnUse" xlink:href="#b"/>
 </defs>
 <path d="m914.08 941.08a403.04 36.64 0 1 1 0 -6.4e-4" fill-rule="evenodd" filter="url(#ab)" opacity=".8"/>
 <path d="m177.14 566.86c-11.364 226.85 173.5 353.35 335.71 351.43s329.41-78.33 331.66-354.29c42.837 10.586 48.378 14.971 111.43 60 50.746 36.242 50.607-7.4351 40-40-10.491-32.208-40.111-64.596-105.71-111.43-94.429-67.411-88.968-95.546-98.929-139.66-20.265-92.627-32.292-165.23-93.069-243.21-48.014-47.713-114.01-77.131-186.81-77.131-73.337 0-139.77 29.92-187.86 78.273-66.347 75.76-85.217 129.71-89.998 226.72 0.3477 45.802-10.713 86.435-102.14 157.86s-99.712 88.827-105.71 111.43c-5.9656 22.462-11.227 71.228 41.071 36.788 62.132-40.917 110.36-56.788 110.36-56.788z" fill-rule="evenodd" stroke="#000" stroke-width="2.3"/>
 <path transform="matrix(1.0863 0 0 1.0104 -1130.3 27.099)" d="m1700.9 175.49a189.95 185.13 0 1 1 0 -3e-3" fill="url(#p)" fill-rule="evenodd" filter="url(#ac)"/>
 <path d="m786.71 650.26c0 84.176-30.552 162.2-79.941 217.4s-336.44 55.202-385.83 0-79.95-131.45-79.95-215.62c0-168.35 122.24-304.98 272.87-304.98 149.51 0 271.12 136.12 272.86 303.21z" fill="url(#q)" fill-rule="evenodd"/>
 <path d="m262.41 547.4c-12.495 84.305 5.2163 155.82 25.829 236.15l-26.751 8.3021c-26.242-28.289-42.488-63.105-56.27-98.703l41.51 32.286c-10.566-55.106-5.2415-126.05 15.682-178.03z" fill="#fff" fill-opacity=".3857" fill-rule="evenodd" filter="url(#g)"/>
 <path d="m764.3 551.98c12.495 84.305-5.2163 155.82-25.829 236.15l26.751 8.3021s14.759-16.604 27.674-36.898 28.596-61.804 28.596-61.804l-41.51 32.286c10.566-55.106 5.2415-126.05-15.682-178.03z" fill="#fff" fill-opacity=".3857" fill-rule="evenodd" filter="url(#g)"/>
 <path d="m880.17 895.76c0 16.9-4.779 23.005-13.42 37.655h-314.52c-8.6405-14.65-13.42-20.754-13.42-37.655 0-67.602 76.464-122.47 170.68-122.47s170.68 54.864 170.68 122.46" fill-rule="evenodd" filter="url(#ag)" opacity=".5"/>
 <path d="m883.23 903.47c0 16.9-4.7789 23.005-13.42 37.655h-314.52c-8.6405-14.65-13.42-20.754-13.42-37.655 0-67.602 76.464-122.47 170.68-122.47s170.68 54.864 170.68 122.46" fill="url(#k)" fill-rule="evenodd"/>
 <path d="m491.12 895.62c0 16.9-4.779 23.005-13.42 37.655h-314.52c-8.6405-14.65-13.42-20.754-13.42-37.655 0-67.602 76.464-122.47 170.68-122.47s170.68 54.864 170.68 122.46" fill-rule="evenodd" filter="url(#af)" opacity=".5"/>
 <path d="m487.91 903.47c0 16.9-4.779 23.005-13.42 37.655h-314.52c-8.6405-14.65-13.42-20.754-13.42-37.655 0-67.602 76.464-122.47 170.68-122.47s170.68 54.864 170.68 122.46" fill="url(#l)" fill-rule="evenodd"/>
 <path transform="matrix(1.4046 0 0 1.101 -256.83 -44.909)" d="m700.02 299.87a82.923 83.887 0 1 1 0 -1e-3" fill-rule="evenodd" filter="url(#ae)" opacity=".85"/>
 <path transform="matrix(1.2835 0 0 1.2542 -142.16 -58.756)" d="m507.18 269.02a77.137 97.386 0 1 1 0 -2e-3" fill-rule="evenodd" filter="url(#ad)" opacity=".85" stroke="#000" stroke-width="2.3645"/>
 <path transform="matrix(1.2217 0 0 1.2251 -116.54 -48.017)" d="m507.18 269.02a77.137 97.386 0 1 1 0 -2e-3" fill="url(#j)" fill-rule="evenodd"/>
 <path transform="matrix(1.3219 0 0 1.1067 -206.15 -47.326)" d="m692.31 306.62a77.137 79.066 0 1 1 0 -1e-3" fill="url(#i)" fill-rule="evenodd"/>
 <path transform="translate(50.23 -3.0358)" d="m509.11 296.02a26.998 39.533 0 1 1 0 -6.9e-4" fill-rule="evenodd"/>
 <path d="m349.05 202.49c71.261-96.101 158.46 11.278 148.13 84.153-23.459 17.248-47.847 6.484-47.847 6.484-5.5271-63.282-46.322-81.024-100.28-90.637z" fill="url(#r)" fill-rule="evenodd" opacity=".8"/>
 <path transform="translate(-7.7853 -3.8569)" d="m509.11 296.02a26.998 39.533 0 1 1 0 -6.9e-4" fill-rule="evenodd" stroke="#000" stroke-width="2.3"/>
 <path d="m592.03 212.13c37.013-11.592 128.95 33.514 107.99 80.994l-42.426 1.9284s-26.998-61.71-65.567-82.923z" fill="url(#s)" fill-rule="evenodd" opacity=".8"/>
 <path d="m521.43 333.13c64.02 35.534 123.85 34.326 178.28-15.62-36.488 76.202-107.4 83.49-178.28 15.62z" fill="url(#m)" fill-rule="evenodd" opacity=".8"/>
 <path d="m327.23 247.76c-0.55404 84.739 55.062 129.31 132.36 136.76-94.766 29.842-143.51-51.316-132.36-136.76z" fill="url(#n)" fill-rule="evenodd" opacity=".8"/>
 <path d="m513.15 497.77 9.5069-0.17903s10.343-11.44 46.297-49.028c23.969-27.238 31.596-45.215 31.596-45.215s4.9028-17.977-18.522-36.499c-30.744-15.265-46.297-15.253-69.027-15.164s-39.61 2.8133-69.027 15.343-24.514 37.588-24.514 37.588 2.179 11.985 38.133 49.573 55.557 43.58 55.557 43.58z" filter="url(#ah)"/>
 <path d="m513.15 491.77 9.5069-0.17903s10.343-11.44 46.297-49.028c23.969-27.238 31.596-45.215 31.596-45.215s4.9028-17.977-18.522-36.499c-30.744-15.265-46.297-15.253-69.027-15.164s-39.61 2.8133-69.027 15.343-24.514 37.588-24.514 37.588 2.179 11.985 38.133 49.573 55.557 43.58 55.557 43.58z" fill="url(#o)" fill-rule="evenodd"/>
 <path d="m452.56 363.57s46.522 3.1015 77.094 21.71 41.648 44.307 41.648 44.307c24.635-27.925 38.116-42.196 1.7723-68.676-37.355-18.836-83.277-14.983-120.51 2.6584z" fill="url(#t)" fill-rule="evenodd" filter="url(#aa)"/>
 <path transform="matrix(1.3333 0 0 1.4792 -1450.2 -395.89)" d="m1382.7 852.37a78.102 46.282 0 1 1 0 -8.1e-4" fill="url(#d)" fill-rule="evenodd" filter="url(#f)" opacity=".8"/>
 <path transform="matrix(1.3333 0 0 1.4792 -1000.9 -395.89)" d="m1382.7 852.37a78.102 46.282 0 1 1 0 -8.1e-4" fill="url(#d)" fill-rule="evenodd" filter="url(#f)" opacity=".8"/>
 <path d="m34.712 597.82s161.99-104.14 187.06-123.42 1.9285-80.994 1.9285-80.994c-40.415 59.128-97.848 99.587-152.35 144.63-44.354 44.354-42.727 63.884-36.64 59.782z" fill="url(#u)" fill-rule="evenodd" filter="url(#h)"/>
 <path d="m799.88 472.47c-25.07-19.284-1.9285-80.994-1.9285-80.994 40.415 59.128 97.848 99.587 152.35 144.63 134.71 159.56-95.396-43.1-150.42-63.638z" fill="url(#v)" fill-rule="evenodd" filter="url(#h)"/>
 <path d="m468.9 254.15s6.6678 19.263 7.1617 35.562c14.57-4.9391 22.226-9.8782 22.226-9.8782s-3.7044-25.683-29.388-25.683z" fill="url(#w)" fill-rule="evenodd"/>
 <path d="m453.74 267.83c-2.839 25.014 9.1148 49.828 34.08 57.047-35.97 14.245-47.291-32.087-34.08-57.047z" fill="url(#x)" fill-rule="evenodd"/>
 <path d="m526.12 255.41s6.6678 19.263 7.1617 35.562c14.57-4.9391 22.226-9.8782 22.226-9.8782s-3.7044-25.683-29.388-25.683z" fill="url(#y)" fill-rule="evenodd"/>
 <path d="m513.05 269.92s-2.4696 21.485 6.6678 36.056 19.51 19.263 27.412 20.991c-35.97 14.245-47.291-32.087-34.08-57.047z" fill="url(#z)" fill-rule="evenodd"/>
</svg>
