<?xml version="1.0" encoding="UTF-8"?>
<svg viewBox="0 0 107.44761 159.44159" xmlns="http://www.w3.org/2000/svg" xmlns:xlink="http://www.w3.org/1999/xlink">
 <defs>
  <linearGradient id="a">
   <stop stop-color="#a5a5a5" offset="0"/>
   <stop offset="1"/>
  </linearGradient>
  <linearGradient id="l" x1="90.687" x2="94.999" gradientUnits="userSpaceOnUse">
   <stop stop-color="#ffb142" offset="0"/>
   <stop stop-color="#c87600" offset="1"/>
  </linearGradient>
  <linearGradient id="k" x1="397.28" x2="397.54" y1="467.58" y2="450.03" gradientUnits="userSpaceOnUse">
   <stop stop-opacity=".3177" offset="0"/>
   <stop stop-color="#fff" stop-opacity="0" offset="1"/>
  </linearGradient>
  <linearGradient id="c" x1="146.22" x2="344.58" y1="130.84" y2="137.53" gradientUnits="userSpaceOnUse">
   <stop stop-color="#b8a675" offset="0"/>
   <stop stop-color="#ded6c0" offset="1"/>
  </linearGradient>
  <linearGradient id="b" x1="242.35" x2="359.59" y1="309.23" y2="279.77" gradientUnits="userSpaceOnUse">
   <stop stop-color="#fffcb5" offset="0"/>
   <stop stop-color="#fff" offset="1"/>
  </linearGradient>
  <linearGradient id="j" x1="567.91" x2="572.71" gradientUnits="userSpaceOnUse">
   <stop stop-color="#5e3824" offset="0"/>
   <stop stop-color="#9a5a31" offset=".5"/>
   <stop stop-color="#5f442b" offset="1"/>
  </linearGradient>
  <linearGradient id="i" x1="-10394" x2="-9663.6" y1="-5911.1" y2="-5927.7" gradientTransform="matrix(.02605 -.00101 9.1364e-6 .01236 831.19 418.08)" gradientUnits="userSpaceOnUse">
   <stop stop-color="#717171" offset="0"/>
   <stop stop-color="#afafaf" offset=".5604"/>
   <stop stop-color="#757575" offset="1"/>
  </linearGradient>
  <linearGradient id="h" x1="-10083" x2="-9914.7" gradientTransform="matrix(.01901 -.00101 6.6663e-6 .01236 760.51 418.08)" gradientUnits="userSpaceOnUse">
   <stop stop-color="#321f1f" offset="0"/>
   <stop stop-color="#573a2d" offset=".5781"/>
   <stop stop-color="#47352f" offset="1"/>
  </linearGradient>
  <radialGradient id="f" cx="414.68" cy="-8.8805" r="123.55" gradientTransform="matrix(-1.8232e-6 .27968 -.60927 0 101.73 -39.26)" gradientUnits="userSpaceOnUse">
   <stop stop-color="#ffb142" offset="0"/>
   <stop stop-color="#ffb141" offset=".8868"/>
   <stop stop-color="#c87600" offset="1"/>
  </radialGradient>
  <radialGradient id="g" cx="610.46" cy="483.45" r="167.56" gradientTransform="matrix(0 -.48219 .4319 -1.2542e-6 -151.97 551.35)" gradientUnits="userSpaceOnUse" xlink:href="#a"/>
  <radialGradient id="e" cx="380.26" cy="622.49" r="59.255" gradientTransform="matrix(0 -.74351 .66041 0 -364.7 582.13)" gradientUnits="userSpaceOnUse" xlink:href="#a"/>
  <radialGradient id="d" cx="371.45" cy="647.69" r="59.255" gradientTransform="matrix(0 -.74351 -.66041 0 552.03 582.13)" gradientUnits="userSpaceOnUse" xlink:href="#a"/>
 </defs>
 <g transform="translate(-346.5 -322.28)">
  <g transform="matrix(.88592 0 0 1 316.57 73.977)">
   <path d="m146.28 340.23a53.948 53.948 0 0 1 -107.9 0 53.948 53.948 0 1 1 107.9 0z" fill="url(#g)" stroke="#000" stroke-linecap="round" stroke-width="1.5639"/>
   <path d="m118.99 367.2a26.153 26.153 0 1 1 -52.307 0 26.153 26.153 0 1 1 52.307 0z" fill="#fff" stroke="#000" stroke-linecap="round" stroke-width="1.6292"/>
   <path d="m144.15 325.23c0.10951 1.4027 0.1731 2.8155 0.1731 4.2461 0 29.779-24.178 53.947-53.957 53.947-24.575 0-45.316-16.459-51.819-38.948 2.1699 27.795 25.426 49.701 53.774 49.701 29.779 0 53.957-24.168 53.957-53.947 0-5.2041-0.75099-10.237-2.1282-14.999z" fill-opacity=".3137"/>
  </g>
  <g transform="matrix(.88592 0 0 1 316.84 73.977)">
   <path d="m81.252 304.33c-7.4731 0-13.543 6.9841-13.543 15.589s6.0697 15.589 13.543 15.589c4.3917 0 8.2889-2.4146 10.763-6.1503 2.4738 3.7383 6.3795 6.1503 10.773 6.1503 7.4731 0 13.543-6.9841 13.543-15.589s-6.0697-15.589-13.543-15.589c-4.3931 0-8.2992 2.4127-10.773 6.1503-2.4741-3.7348-6.3718-6.1503-10.763-6.1503z" fill="#fff" stroke="#000" stroke-linecap="round" stroke-width="1.6292"/>
   <path d="m92.662 331.22c-4.7179 0-9.846 4.2966-9.6408 7.0102s8.4101 14.02 10.256 14.02 9.0255-11.081 8.8203-14.247-6.3588-7.0102-9.4357-6.7841z" fill-opacity=".3137" fill-rule="evenodd"/>
   <path d="m91.917 328.5c-4.7179 0-9.846 3.8974-9.6408 6.3588s8.4101 12.718 10.256 12.718 9.0255-10.051 8.8204-12.923-6.3589-6.3588-9.4357-6.1537z" fill="url(#l)" fill-rule="evenodd" stroke="#000" stroke-width="1.6292"/>
   <path d="m89.648 322.66a3.3846 3.3846 0 0 1 -6.7691 0 3.3846 3.3846 0 1 1 6.7691 0z" stroke="#000" stroke-linecap="round" stroke-width="1.6292"/>
   <path d="m101.76 322.66a3.3846 3.3846 0 1 1 -6.7691 0 3.3846 3.3846 0 1 1 6.7691 0z" stroke="#000" stroke-linecap="round" stroke-width="1.6292"/>
  </g>
  <g transform="matrix(.88592 0 0 1 316.57 73.977)" fill-rule="evenodd">
   <path d="m81.781 385.54c-15.668 1.6128-33.638 14.291-26.495 17.056s27.873 3.9181 31.79 0.69241c2.0127-1.6576 5.6138-5.8087 6.0382-9.704 0.42497 3.8949 4.0155 8.0466 6.0281 9.704 3.9169 3.2257 24.658 2.0724 31.8-0.69241s-10.827-15.443-26.495-17.056c-8.0678 0.77761-10.97 3.4884-11.333 6.5983-0.36356-3.1099-3.2654-5.8207-11.333-6.5983z" fill="url(#f)" stroke="#000" stroke-width="1.5639"/>
   <path d="m81.784 385.55c-7.69 0.79161-15.927 4.249-21.485 7.8915 8.4173 3.8928 18.709 6.2918 29.865 6.5678 1.4296-1.8809 2.7102-4.1871 2.9529-6.415 0.24081 2.207 1.4914 4.4927 2.902 6.3641 10.973-0.4646 21.052-2.9801 29.254-6.9445-5.5378-3.4836-13.432-6.7029-20.823-7.4638-8.0678 0.77762-10.97 3.4884-11.333 6.5983-0.36356-3.1099-3.2654-5.8207-11.333-6.5983z" fill-opacity=".3137"/>
  </g>
  <path d="m358.47 440.51c28.816 9.3148 45.158 9.5266 77.665 0 1.8986 10.924 2.7122 17.813-6e-3 32.888-5.3852-7.8495-11.22-8.06-13.857-13.872-2.4436 6.3314-3.6726 6.823-7.8198 11.552-4.2303-3.7775-9.7458-7.3409-11.374-11.552-0.86575 5.2953-3.9119 8.4102-6.0426 12.441-2.9943-3.784-1.2972-8.7337-7.2866-14.751-3.9083 5.7294-5.8644 6.1223-8.353 14.218-2.8965-6.3959-10.218-4.4922-10.486-11.019-3.6429 5.7143-6.9556 4.6324-9.3988 8.1776-3.6284-13.689 2.4286-21.454-3.0418-28.083z" fill="#cdaf65" stroke="#000" stroke-linecap="round" stroke-linejoin="round" stroke-width=".95837"/>
  <path d="m435.76577,441.10805-.94022.26444c-.17139.59748-.45921,1.09281-.79332,1.52786 .48638.68496 1.31398.98394 2.26241,1.17528-.18206-.9993-.33845-1.87203-.52887-2.96758z" fill="#573727" fill-rule="evenodd"/>
  <path d="m359.8092,441.39011c-.25634.11685.23652.37757.3555.78313 .53733.87298 1.0396,1.20945 1.34682,1.82101 .52913.37392 1.05917.81034 1.73355.99899 1.18256.33078 1.81823-.45558 2.70314.23506 .32417-.12621.54995-.35163.67579-.67579-.0183-.48538-.0813-.91334-.29518-1.20331-1.67343-.48649-4.75941-1.40105-6.51962-1.95909z" fill="#573727" fill-rule="evenodd"/>
  <path d="m430.53 442.57c-1.2518 0.34347-2.4681 0.65875-3.6728 0.96961-0.29208 0.33686-0.37889 0.79288-0.14691 1.4103 0.7484-0.53722 2.8094-1.2208 3.3789 0-0.70425 0.0456-1.6535-0.17111-2.0274 0.20568-0.22885 2.4071 2.6715 1.842 2.7032 3.3789 1.1079-0.0173 1.4798-0.77353 2.0274-1.3516-2.133-0.80043-2.2113-2.5296-2.2624-4.613z" fill="#573727" fill-rule="evenodd"/>
  <path d="m431.71001,443.44075c-.27007.93385-.0823.97608 0,2.26241 .94709.25351 1.62065.76298 2.70314.88146 .67335-.90441.34147-1.91979-.20567-2.70315-1.11046.13467-1.38664-.57539-2.49747-.44072z" fill="#573727" fill-rule="evenodd"/>
  <path d="m424.07068,444.25193-.7844.19289c.16202.0256.36955.10462.54934.11248 .12143-.0694.37024-.049.41778-.12262z" fill="#573727" fill-rule="evenodd"/>
  <path d="m368.22 444.79c-0.12621 0.32415-0.35126 0.54958-0.67579 0.67578 0.0412 1.4052 1.3822 3.0658 2.7031 1.7923-0.26895-1.2315-0.66043-2.3338-2.0274-2.4681z" fill="#573727" fill-rule="evenodd"/>
  <path d="m372.00567,444.87915c-.91548.55507-1.5746,1.99245.94023,2.23303 .34574-.92889.40749-1.52753.3232-1.90983-.41761-.10103-.84154-.21709-1.26343-.3232z" fill="#573727" fill-rule="evenodd"/>
  <path d="m421.36752,444.86899c-.78607.17923-1.61554.37783-2.38378.54164-.0735,1.02415.49561,2.18746 1.708,2.31993 .32159-.80359.78101-1.47201.88146-2.49747-.0685-.0937-.13037-.27712-.20568-.3641z" fill="#573727" fill-rule="evenodd"/>
  <path d="m375.0614,445.58567c-.0178.17417-.0439.36302-.0881.55826 .81347,1.1286 2.20848.96341 2.9382.0294-.93926-.19017-1.8921-.36979-2.85006-.58764z" fill="#573727" fill-rule="evenodd"/>
  <path d="m418.4587,445.532c-.51845.10858-1.01699.20511-1.52787.30659 .25454.0896.50407.30931.61702.5404-.43344.29804-.91659-.18472-1.58663.20567-.63875,1.58401 1.50101,2.78056 3.14389,2.02736 .15011-1.27566-.56498-1.65868-1.11652-2.23303 .24096-.24648.37781-.59695.47011-.84699z" fill="#573727" fill-rule="evenodd"/>
  <path d="m436.6 445.87c-1.3184 0.5764-1.8838 1.8924-3.0264 2.6444 0.89669 0.67924 1.6472 1.5075 2.9088 1.8217 0.32185-0.32497 0.55516-0.70311 0.70518-1.0871-0.16977-1.0575-0.38613-2.263-0.58764-3.3789z" fill="#573727" fill-rule="evenodd"/>
  <path d="m365.31 446.14c0.0744 1.7978 0.80491 3.1239 2.7032 3.614 0.14569-2.247-1.2674-2.9484-2.7032-3.614z" fill="#573727" fill-rule="evenodd"/>
  <path d="m425.19 446.14c-1.3014 4e-3 -2.4746 0.41581-2.9382 1.7923 0.55595 0.72006 1.9118 0.66155 2.0274 1.8217 0.69911 0.29546 0.65317-0.0611 1.5866 0-0.25572-1.17-0.30711-2.5565-0.67578-3.614z" fill="#573727" fill-rule="evenodd"/>
  <path d="m413.46375,446.46837c-.94015.162-1.90608.33743-2.82451.47395-.11019.24448-.11917.6043-.0843.99391 1.17223.80036 3.07541-.0249 2.90882-1.46786z" fill="#573727" fill-rule="evenodd"/>
  <path d="m379.03 446.82c-0.90257 2.6592-1.5649 7.3624 2.0274 6.7579-0.21893-2.0082-1.0539-4.4858-1.3516-6.7579z" fill="#573727" fill-rule="evenodd"/>
  <path d="m426.3 446.82c0.0828 0.89265-0.19618 2.1593 0.23505 2.7032 0.91472 0.4982 2.1412 0.41143 2.9382-0.23506-0.2377-1.6381-1.1418-2.6234-3.1733-2.4681z" fill="#573727" fill-rule="evenodd"/>
  <path d="m381.92 446.9c-0.16824 0.16948-0.34636 0.34442-0.23505 0.79331 0.35948 1.0667 1.8772 0.98675 1.8217 2.4681 2.1747-0.20559 2.631-1.3141 2.3212-2.7032-1.2943-0.15748-2.5935-0.34366-3.9078-0.55825z" fill="#573727" fill-rule="evenodd"/>
  <path d="m363.16 447.23c-0.18396-0.0136-0.37475-9e-3 -0.55826 0.0294 0.14462 0.83488 1.262 2.6504 2.2624 3.3789 0.28736-0.0122 0.31226-0.26895 0.67579-0.20568 0.12299-1.792-1.0923-3.107-2.38-3.2026z" fill="#573727" fill-rule="evenodd"/>
  <path d="m406.23576,447.49676c-1.17549.1256-2.34519.21244-3.49646.29382 .0471.0865.0761.28972.14691.38072 1.08949-.0894 2.313-.57983 3.17326-.23506 .0901-.0844.14131-.29987.17629-.43948z" fill="#573727" fill-rule="evenodd"/>
  <path d="m387.6 447.6c-0.17382 1.5264 2.5624 1.403 3.3572 2.1564 1.1944 1.1329 0.12573 1.4396 0.47012 2.9088 1.5125-1.5801 1.0991-3.4533-0.0753-4.7382-1.2377-0.073-2.5088-0.20053-3.752-0.32704z" fill="#573727" fill-rule="evenodd"/>
  <path d="m398.96179,447.99999c-.44178.0127-.86573.007-1.30559.0128-.3283.73669.13396,1.25853.52888,1.74506 .8253.0748 1.24224-.26997 1.79231-.47012-.006-.72877-.29777-.95499-.81627-1.17145z" fill="#573727" fill-rule="evenodd"/>
  <path d="m395.48 448.17c-1.0512-3.6e-4 -1.587 0.53578-1.5866 1.5866 1.0505 0 1.5866-0.53578 1.5866-1.5866z" fill="#573727" fill-rule="evenodd"/>
  <path d="m370.18398,448.31802c-.40559.011-.8636.16517-1.29281.52887-.0206,1.59691 1.04642,2.10783 2.02736,2.70316 .14792-.30208.49139-.4099.91084-.44074 .48707-1.47664-.42864-2.82421-1.64539-2.79129z" fill="#573727" fill-rule="evenodd"/>
  <path d="m407.85178,448.84689c-.98425.64281-.32694,2.64251 1.11652,2.26242 .0474-.25277.26959-.37039.47011-.47011 .0294-1.15535-.56741-1.68559-1.58663-1.79231z" fill="#573727" fill-rule="evenodd"/>
  <path d="m404.73728,449.08195c-.44629.0582-.82892.32644-.94022.88147 .7414.59238 2.1703,1.93152 3.14388.91084 .12116-1.0288-1.22183-1.92039-2.20366-1.79231z" fill="#573727" fill-rule="evenodd"/>
  <path d="m422.51 449.17c-0.25049 0.0338-0.49167 0.14902-0.70517 0.35259-0.52984 2.1094 2.7003 2.8698 2.7032 0.67579-0.41118-0.56632-1.2465-1.1299-1.998-1.0284z" fill="#573727" fill-rule="evenodd"/>
  <path d="m375.33 449.23c-2.0194 0.0279-2.2882 3.1429-1.234 4.5836 0.73149 0.16852 1.3949 0.40756 2.0274 0.67579 1.6973-1.0284 0.92415-2.259 0.88145-4.7305-0.65623-0.38117-1.2088-0.53532-1.6748-0.52888z" fill="#573727" fill-rule="evenodd"/>
  <path d="m402.59 449.32c-1.0295 0.0637-1.7649 1.5694-1.4985 2.233 1.1473 0.54346 2.2403-0.71674 2.2624-2.0274-0.25988-0.16813-0.52637-0.22038-0.76393-0.20567z" fill="#573727" fill-rule="evenodd"/>
  <path d="m431.74 449.4c-0.98753 0.0416-2.2626 1.4476-2.0568 2.8207 1.389-0.39003 2.6522 0.40308 3.1733-0.91085 0.36317 0.61226 0.14485 1.818 0.6758 2.2624 1.623-0.0416 1.8363-1.8385 0.88145-2.7031-0.59828 2e-3 -1.2669-0.0751-1.5572 0.23505-0.0253-1.2471-0.524-1.7291-1.1165-1.7042z" fill="#573727" fill-rule="evenodd"/>
  <path d="m387.32 449.72c-1.205 0.69027-1.6541 3.2841 0.25551 3.6178-0.59534-1.3853 0.41966-3.0976-0.25551-3.6178z" fill="#573727" fill-rule="evenodd"/>
  <path d="m410.31987,449.75754c-.33116.32747-.33116,1.46522 0,1.79231 .32599.10597 2.2517.24333 2.26241-.67579v-.44073c-.45734-.51807-1.35801-.60443-2.26241-.67579z" fill="#573727" fill-rule="evenodd"/>
  <path d="m418.9 449.96c-0.46913 1.1756-1.8848 0.37778-2.9382 0.47011 0.23033 1.7956 1.6778 2.378 2.0274 4.0547 1.1101-0.54051 2.8705-0.44446 3.1439-1.8217-0.8091-0.8415-0.62438-2.6611-2.233-2.7032z" fill="#573727" fill-rule="evenodd"/>
  <path d="m396.36339,450.16889c-2.84677-.20874-3.22531,5.31428.67579,3.40832 .38119-.81904.59117-1.82224.67579-2.9382-.50289-.30199-.94489-.4403-1.35158-.47012z" fill="#573727" fill-rule="evenodd"/>
  <path d="m426.12741,450.3158c-.83054.0747-1.3123.46354-.94022,1.67478 .99861.46944 2.30227.94329 3.614.47012 .0931-1.06852-.86008-1.10235-.91085-2.02737-.63734-.0806-1.26459-.16237-1.76293-.11753z" fill="#573727" fill-rule="evenodd"/>
  <path d="m381.68 450.4c0.32636 1.6377-0.28158 4.2084 1.4014 5.6452 1.8747-0.30393 2.0724-2.5196 1.3516-4.2604-1.2602-0.0902-1.5855-1.2016-2.753-1.3848z" fill="#573727" fill-rule="evenodd"/>
  <path d="m389.61 450.43c-0.58208 0.35911-0.41849 1.8548 0.67579 1.7923-0.1619-1.1274 0.1624-1.3412-0.67579-1.7923z" fill="#573727" fill-rule="evenodd"/>
  <path d="m414.16892,451.10917c-.64795.5453-1.65017,3.0592-.23505,3.58461 .97068-.36168 1.43368-2.25302.91084-3.37893-.28774-.0126-.31227-.26895-.67579-.20568z" fill="#573727" fill-rule="evenodd"/>
  <path d="m404.35531,451.16792c-.93555.0611-1.91387.79576-1.4691,1.73354 1.26794.10192 2.32263.49127 2.9382-.44073-.038-.96715-.74145-1.34033-1.4691-1.29281z" fill="#573727" fill-rule="evenodd"/>
  <path d="m436.83286,451.38581c-1.84336-.0624-2.1562,2.82553-.47011,2.9382 .41997.028.78731-.28508 1.05775-.70516-.07-.73165-.16887-1.45208-.26444-2.17428-.11369-.0232-.21919-.0552-.3232-.0587z" fill="#573727" fill-rule="evenodd"/>
  <path d="m408.35128,451.72618c-.0959.008-.18704.024-.26445.0587-1.12591,1.82244 1.16423,2.25174 1.79231,2.4681-.55045,1.92729-.78699,3.37449-.23506,5.40629 1.43462-.8919 2.58469-4.35434.67579-5.40629-.37973-.75099.15298-.77937.23506-1.58663-.4884-.43786-1.5325-.99012-2.20365-.94023z" fill="#573727" fill-rule="evenodd"/>
  <path d="m361.39 451.58c-0.12352 1.0308-0.31373 2.0901-0.52887 3.2026 0.42324 0.47853 1.0228 0.62979 1.7335-0.0588-0.10759-1.3345-0.29605-2.6102-1.2047-3.1439z" fill="#573727" fill-rule="evenodd"/>
  <path d="m369.8314,452.10807c-1.00697-.0228-1.80338.17303-2.73254.11754 .21894.75686.63121,1.30182 1.11653,1.7923 1.45227-.0486 2.21267-.78155 2.70314-1.7923-.39268-.0714-.75147-.10993-1.08713-.11754z" fill="#573727" fill-rule="evenodd"/>
  <path d="m399.53666,452.22561c-.43566.31533-.4516,1.0602-1.1459,1.11651 .0718.52875.36568.85554.23506,1.58663 .41834.52654 1.40523.49513 1.58663.6758-.57326.0225-.54192.82951-.23506,1.11651 .85732-.41836 2.55603.0124 2.26241-1.55725-3.10582,1.14506-1.09743-1.94769-2.70314-2.9382z" fill="#573727" fill-rule="evenodd"/>
  <path d="m422.48 452.23c-0.092 0.86099-0.0376 1.8976-0.44074 2.9382 0.3742 0.45147 0.60537 1.0374 1.3516 1.1165 0.66745-0.98353 1.6736-1.6116 2.9088-2.0274-0.66452-1.2867-2.3722-1.5236-3.8197-2.0274z" fill="#573727" fill-rule="evenodd"/>
  <path d="m401.0939,452.46067c-.0964.42865-.4757.55649-.44073,1.11651 .64647.46363 1.96879,1.79735 2.4681.44073-.70536-.49525-.89557-1.48842-2.02737-1.55724z" fill="#573727" fill-rule="evenodd"/>
  <path d="m431.76877,452.57819c-.88132-.0237-1.89865.54248-2.08613,1.43972 .40069.79991 1.4714.94162 2.02737,1.58664 .33925-.41174.97222-.53996 1.35157-.91085 .33574-1.47785-.41148-2.09178-1.29281-2.11551z" fill="#573727" fill-rule="evenodd"/>
  <path d="m365.51 452.7c-0.90327 0.12779-1.7771 1.4807-0.44073 2.9088 0.69799 0.0225 1.0862-0.26561 1.5866-0.44074 0.28765-1.9143-0.44336-2.5675-1.1459-2.4681z" fill="#573727" fill-rule="evenodd"/>
  <path d="m406.06 453.14c-0.31791 1.0324-1.2621 1.4419-1.5866 2.4681 0.65054 0.85031 1.6593 1.3353 2.7032 1.7923-0.0571-1.2256-0.3085-3.1543-1.1165-4.2604z" fill="#573727" fill-rule="evenodd"/>
  <path d="m389.72 453.29c0.38635 1.5649 0.50751 3.3879 1.3516 4.4954 1.1458-1.2337 1.716-2.6973 0.67579-4.4954z" fill="#573727" fill-rule="evenodd"/>
  <path d="m371.38865,454.25297c-.12437.92611-.91949,1.17425-2.02737,1.11652-.55596,1.1708.41724,2.13702 2.02737,1.82169 .37272-.75283.79684-1.45656.67578-2.70316-.28773-.0122-.31189-.29833-.67578-.23505z" fill="#573727" fill-rule="evenodd"/>
  <path d="m387.81 454.25c-0.54828 0.63065-0.99228 1.8712-0.44073 2.9382 0.93569 0.0354 1.3459-2.606 0.44073-2.9382z" fill="#573727" fill-rule="evenodd"/>
  <path d="m437.34457,454.5529c-.31047.17003-.6353.32378-.70517.73455 .11885.2942.41516.4061.76393.47012-.0226-.40335-.0274-.80945-.0587-1.20467z" fill="#573727" fill-rule="evenodd"/>
  <path d="m385.11 454.87c0.34146 1.8419-1.3684 1.6265-1.7923 2.7032 0.53573 1.6407 1.4176 2.9288 2.4681 4.0547 1.02-0.93127 0.44159-2.227-0.23506-3.1439 0.40952-0.8264 0.67476-2.3756 0.23506-3.3789-0.28774-0.0122-0.31188-0.29872-0.67578-0.23506z" fill="#573727" fill-rule="evenodd"/>
  <path d="m428.03725,454.92875c-.53334.0636-1.12079.66223-1.49849,1.35158-.18029.32821.31488.56974.23506.91085-.19353.82971-1.51537,1.38751-.91085,2.02736 .45736.5188 1.09249.84055 1.58664,1.32219 .84002.23917.34714-.81529 1.11652-.64641-.33483,1.2352.82359.97915.91084,1.79231-.20937.54088-.90501.5774-.67578,1.55724 .25278.0475.341.2696.44072.47012 1.04533-.081 1.47588-.77751 1.7923-1.58663-.2627-.33777-.65076-.54142-.67578-1.11651 .56517-.48533.7901-1.30332 1.35158-1.79231 .13026,3.59703 6.70909,1.2994 3.84905-.91085-.1884.8621-.87245,1.24997-1.58663,1.58663-.60712-.44374-1.07783-1.04532-1.35158-1.82169-.77047-.0953-.66726.68456-1.11652.91085-.74545-.78998-2.62654-.56854-2.9382.23506 .11885-1.05196-.60287-.97541-.91085-2.02736 .82126.14643 1.21022-.17135 1.58663-.47012-.19041-1.39377-.67133-1.85601-1.20466-1.79231z" fill="#573727" fill-rule="evenodd"/>
  <path d="m377.47 455.37c1.6679 2.3523 0.81228 5.9718 2.7032 7.8744 1.9358-2.7221-0.0668-7.0189-2.7032-7.8744z" fill="#573727" fill-rule="evenodd"/>
  <path d="m394.51 456.6c-0.15229 1.1423-0.46879-0.0322-0.32543 2.8326 0.57731 0.47318 0.37612 1.8631 1.4449 1.4364 0.72597-1.3007 0.9171-1.4744 1.1165-3.3012-0.86195-1.0266-1.0773-1.6366-2.236-0.96774z" fill="#573727" fill-rule="evenodd"/>
  <path d="m416.4 456.05c-0.6049 1.1049-2.2126 2.6249-1.1165 4.0547 1.1278 2e-3 0.79554-1.4281 1.7923-1.5572 0.44448 1.3537-1.0408 2.2515-0.88147 4.0253 1.3198-1.0071 2.1098-2.4979 2.233-4.7011-1.4265-0.29545-1.1653-1.3055-2.0274-1.8217z" fill="#573727" fill-rule="evenodd"/>
  <path d="m430.4172,456.19219c-2.21294.006.95766,4.46317 1.29281.3232-.56029-.21811-.97668-.32406-1.29281-.3232z" fill="#573727" fill-rule="evenodd"/>
  <path d="m434.59 456.49c-1.0443-0.0408-2.1226 1.0907-1.2928 2.2624 1.2168-0.13392 2.1638-0.5402 2.2624-1.7923-0.26999-0.32214-0.62151-0.45651-0.96961-0.47012z" fill="#573727" fill-rule="evenodd"/>
  <path d="m420.69174,456.72106c-.27522.78262-1.33477,1.9705-.67579,2.9382 .23181-.67739.80113-2.18121 1.35157-1.7923-.12031.63067-.35053,1.16164-.47011,1.7923 1.40444.12914 1.10057-1.47279 1.58664-2.26241-.63398-.19134-.91513-.72731-1.79231-.67579z" fill="#573727" fill-rule="evenodd"/>
  <path d="m401.37 456.58c-0.86129 1.2525-0.76226 3.2285 1.1638 3.6865 0.11968-1.3287 0.61898-1.5719 1.1583-0.5562 0.20622-0.80824-0.64868-2.0426-0.83511-2.7934-0.4338-0.3168-0.81695-0.25635-1.487-0.33693z" fill="#573727" fill-rule="evenodd"/>
  <path d="m360.80009,456.4796c-.0546,1.10806-.10265,2.25512-.16107,3.44796 .0378.008.0778.007.1207.0104 .46056-.72798.69148-2.7716.0404-3.45837z" fill="#573727" fill-rule="evenodd"/>
  <path d="m374.97 457.19c-0.54456 1.2293 0.86387 1.5525 0.23505 3.1439 0.69615 0.65456 1.1056 1.5686 2.4681 1.5572 0.66378-1.8578-0.83142-4.0454-2.7032-4.7011z" fill="#573727" fill-rule="evenodd"/>
  <path d="m363.51425,457.39683c-.28368.87424-.86909,2.26309.20568,2.70315 .37272-.75319.79683-1.45655.67579-2.70315z" fill="#573727" fill-rule="evenodd"/>
  <path d="m412.82 457.4c-0.49892 1.2569-2.6015 3.244-1.1459 4.9656 0.84149-0.0868 2.8774-3.6998 1.1459-4.9656z" fill="#573727" fill-rule="evenodd"/>
  <path d="m437.38007,456.70365c-.66438.30537-1.13634,1.10345-1.02838,2.08612 .45305.0881.74083.37062 1.02838.6758 .0302-.96174.0192-1.87072 0-2.76192z" fill="#573727" fill-rule="evenodd"/>
  <path d="m366.42 457.63c-0.65936 1.3669-1.7021 2.3243-2.233 3.8197 1.1903 0.20973 3.2088-2.6128 2.233-3.8197z" fill="#573727" fill-rule="evenodd"/>
  <path d="m372.06443,458.07259c-.19659.78571-.48122,1.84157-.38197,2.73254 .0122-.0188.0174-.0399.0294-.0588 .008.18406.0401.32871.0587.4995 .021.0692.0308.13998.0588.20567 .6476.22143 1.7804.75865 2.4681.23506-.41248-1.53838-.9743-2.92152-2.23304-3.614z" fill="#573727" fill-rule="evenodd"/>
  <path d="m388.03993,457.55594c-.97461.1147-1.23676,1.45116-.88146,2.4681 .45291-.57568.92101-1.24793 1.43972-1.9686-.14197-.23172-.32816-.4276-.55826-.4995z" fill="#573727" fill-rule="evenodd"/>
  <path d="m405.48 457.83c-0.76792 1.7798-0.87548 4.1355 0.67578 5.1712 0.34218-1.3459 1.7173-5.055-0.67578-5.1712z" fill="#573727" fill-rule="evenodd"/>
  <path d="m368.49 458.29c-0.733 0.65751-1.6295 2.1022-0.67579 3.1439 0.80801 0.13246 1.0998-0.25198 1.5866-0.44074 0.0508-1.2518-0.0657-2.3473-0.91085-2.7031z" fill="#573727" fill-rule="evenodd"/>
  <path d="m398.39 460.1c-0.46031 0.48679-0.0575 1.4108 0.4701 1.5866-0.16409-0.51144 0.38574-1.7673-0.4701-1.5866z" fill="#573727" fill-rule="evenodd"/>
  <path d="m424.32653,459.92825c-.44667-.0842-.90292-.0643-1.30892.0197 .35342.79883.83314,1.45939 1.36535,2.06631 .63293-.0717 1.33326-.23564 1.88676-.32255-.014-.98406-.94734-1.57561-1.94319-1.76344z" fill="#573727" fill-rule="evenodd"/>
  <path d="m382.78888,460.68764c-.12118.0117-.24295.0394-.38197.0881 1.34963.91325-.87839,3.04987.47012,4.05472 1.58917-.55295 1.72971-4.31762-.0881-4.14287z" fill="#573727" fill-rule="evenodd"/>
  <path d="m420.18176,460.73584c-.43566.53978-1.23541.69806-1.32219,1.58663 .39885.20128.2776.91422 1.11651.67579 .38856-.51181.9123-.89042.88146-1.82168-.32122-.0541-.3796-.36119-.67578-.44074z" fill="#573727" fill-rule="evenodd"/>
  <path d="m436.96872,460.49055c-1.20785-.0244-1.64027,2.54815-.1763,2.96759 .11522-.0349.22656-.0934.3232-.14692 .0899-.94976.16048-1.86139.20568-2.73253-.12205-.049-.2425-.086-.35258-.0881z" fill="#573727" fill-rule="evenodd"/>
  <path d="m433.10855,461.21983c-.23502-.0325-.50811.0317-.8227.20567-.16006.83524.39475.95743.23506,1.79231 .87129-.19576.80186.55067 1.35157.67578 .37604-.37419.89247-.5903.88147-1.35157-.5384-.38828-.94034-1.22481-1.6454-1.32219z" fill="#573727" fill-rule="evenodd"/>
  <path d="m414.49212,462.27419c-1.18889.0548-1.35924,1.82897-.3232,2.11552 .31863-.65678.82486-1.10824.88146-2.02737-.21055-.0719-.38841-.096-.55826-.0881z" fill="#573727" fill-rule="evenodd"/>
  <path d="m375.53 462.13c-0.12621 0.32454-0.35125 0.55031-0.67579 0.67578 0.30283 1.4236 1.3769 2.0683 1.7923 3.3789 1.0332 0.0581 1.0887 0.23917 2.0274 0-0.13282-2.2684-1.7001-3.0966-3.1439-4.0547z" fill="#573727" fill-rule="evenodd"/>
  <path d="m426.38913,462.20957c-.0175.6069-.34722.84969-.66895,1.08502 .60947.50274 1.28142.97251 1.98298,1.43739 .26058-.32427.45719-.73395.59285-1.21069-.28633-.17712-.35913-.52955-.34839-.94999-.59468-.0622-1.3003-.0243-1.55849-.36173z" fill="#573727" fill-rule="evenodd"/>
  <path d="m361.2 462.2c-0.34659 0.34255-0.41106 1.5444 0.44073 1.3516 0.36831-0.36463 0.28044-1.4148-0.44073-1.3516z" fill="#573727" fill-rule="evenodd"/>
  <path d="m365.61939,462.23435c-.0306.73262.13408,1.2794.41135,1.70417 .66559-.28156 1.30247-.64362 1.93921-1.05776-.75853-.35184-1.76709-.51586-2.35056-.64641z" fill="#573727" fill-rule="evenodd"/>
  <path d="m364.07252,463.24372c-.30103-.0179-.6489.0803-.79332.23506-.0504.42572.26335.50684.23505.91085 .64465.0445 1.21955.0277 1.11653-.67579-.002-.30852-.25724-.45218-.55826-.47012z" fill="#573727" fill-rule="evenodd"/>
  <path d="m371.99 462.87c0.40886 0.69468 0.96812 1.2482 1.616 1.7042-0.0869-1.122-0.76939-1.7092-1.616-1.7042z" fill="#573727" fill-rule="evenodd"/>
  <path d="m418.6 463c-1.2687 0.60712-2.1369 1.628-2.7032 2.9382 0.81221 0.0793 1.0986 0.65404 1.5866 1.0578 0.35327-0.4045 0.69029-0.80237 0.99899-1.2047 0.0938-1.2403 0.15364-2.6197 0.11753-2.7913z" fill="#573727" fill-rule="evenodd"/>
  <path d="m399.53887,462.87665c.33565.82396.44114,1.9982.47011,3.23203 .33608-.55528.66431-1.11812.96961-1.70417-.37874-.60623-.85524-1.12745-1.43972-1.52786z" fill="#573727" fill-rule="evenodd"/>
  <path d="m430.82634,463.42753c-.7848.0594-1.30287.37984-1.38096,1.14589 .0841.15792.17228.32024.26443.47012 .55588.30038 1.10276.61148 1.67478.96961 .008.005.0222-.005.0294,0 .15792-.007.34083-.0515.52888-.0881 .74141-.95114.0427-1.42092-.23506-2.46808-.31285-.0315-.61986-.0492-.88146-.0294z" fill="#573727" fill-rule="evenodd"/>
  <path d="m380.85 464.39c-0.71749 0.95519-1.2063 3.791 1.1165 3.8197-0.33703-0.83523 0.68568-3.5834-1.1165-3.8197z" fill="#573727" fill-rule="evenodd"/>
  <path d="m409.04804,463.73184c-.76374.0295-.755.80219-.94024,1.41034 .2478.22019.50854.42746.76393.64639 .23026-.64326.35899-1.31716.17631-2.05673z" fill="#573727" fill-rule="evenodd"/>
  <path d="m436.05452,463.78793c-.0456.68238.28976,1.2028.79332,1.49848 .0603-.50497.12824-1.01682.17629-1.49848-.31268-.005-.64309-.01-.96961,0z" fill="#573727" fill-rule="evenodd"/>
  <path d="m410.97572,464.76861c-.49943.51595-.97682,1.034-1.20466,1.82169l.96961.79332c.57655-.61164.5855-1.89601.23505-2.61501z" fill="#573727" fill-rule="evenodd"/>
  <path d="m433.83 465.64c-0.90446-0.0181-1.8669 0.31928-1.998 1.0871 0.26972 1.8659 3.6332 1.5588 3.3789-0.67578-0.32163-0.27678-0.83827-0.40049-1.381-0.41135z" fill="#573727" fill-rule="evenodd"/>
  <path d="m361.645,464.79787c-.069.004-.14527.0346-.23506.0588-.10892.30947-.0237.52302.11753.67578 .27518-.11483.55938-.21978.85207-.3232-.22943-.1492-.33692-.43053-.73454-.41135z" fill="#573727" fill-rule="evenodd"/>
  <path d="m396.51 464.72c0.16797 1.2303 0.55467 3.4618-0.1763 5.2594 0.22727 0.56926 0.41065 0.95239 0.67268 1.1028 0.47855-0.87646 1.1805-2.0374 1.7073-2.8657-0.42944-1.4831-0.91325-2.8744-2.2036-3.4965z" fill="#573727" fill-rule="evenodd"/>
  <path d="m412.89708,465.96488c-.84986.0946-1.34224.99874-1.58663,1.88046 .58579.47953 1.1598.95818 1.73354,1.43972-.11764-.9435.22972-2.26709-.14691-3.32018z" fill="#573727" fill-rule="evenodd"/>
  <path d="m415.73 466.52c-1.6754 0.2582-1.7391 2.0785-1.5572 3.6728l0.26444 0.23506c1.0801-1.2316 1.9507-2.1663 2.7031-2.997-0.45986-0.31409-1.1865-0.36065-1.4103-0.91084z" fill="#573727" fill-rule="evenodd"/>
  <path d="m435.58153,468.22798c-.61593.075-1.18248.59229-1.08713,1.82169 .69651.0121.84089.56692 1.6454.4701 .1154-.72061.20021-1.41038.29381-2.08612-.25479-.15031-.55283-.24215-.85208-.20567z" fill="#573727" fill-rule="evenodd"/>
  <path d="m378.83587,467.34481c-.0904.003-.15545.0151-.23505.0294 .4042.29903.80621.61701 1.17529.99899-.0208-.26066-.0147-.55592.0294-.88147-.37462-.11663-.69948-.15403-.96961-.14691z" fill="#573727" fill-rule="evenodd"/>
  <path d="m381.71803,468.29794c-.22159.3043-.58771.85384-.76393,1.38095 .11279.20521.25048.39155.35258.61703 .22-.7157.4331-1.30751.64641-1.90984-.0655-.0511-.14112-.082-.23506-.0881z" fill="#573727" fill-rule="evenodd"/>
  <path d="m358.47 440.51c28.816 9.3148 45.158 9.5266 77.665 0 1.8986 10.924 2.7122 17.813-6e-3 32.888-5.3852-7.8495-11.22-8.06-13.857-13.872-2.4436 6.3314-3.6726 6.823-7.8198 11.552-4.2303-3.7775-9.7458-7.3409-11.374-11.552-0.86575 5.2953-3.9119 8.4102-6.0426 12.441-2.9943-3.784-1.2972-8.7337-7.2866-14.751-3.9083 5.7294-5.8644 6.1223-8.353 14.218-2.8965-6.3959-10.218-4.4922-10.486-11.019-3.6429 5.7143-6.9556 4.6324-9.3988 8.1776-3.6284-13.689 2.4286-21.454-3.0418-28.083z" fill="url(#k)"/>
  <g fill="none" opacity=".8678" stroke="#782d2d" stroke-linecap="round" stroke-linejoin="round">
   <path d="m424.64366,409.94734c-.36007-1.14456-.28172-.92985-.64945-2.53712-.49651-.31945-.40884-.014-2.29564.61106-.64026-.80272-.81144-1.02716-1.47893-2.17121-.20489-.68001-1.27489-.10575-2.49204.70635" opacity=".8814" stroke-width="2.7"/>
   <path d="m379.32 406.57c-0.87467-0.56309-0.96324-0.30172-2.4028-1.27-0.58101 1.6074-0.54551 1.0192-1.0648 1.8694-2.0217-0.97419-2.4697-0.93931-3.2128-1.7348-0.20649 1.4403-0.29669 1.8894-0.69067 3.3711" opacity=".8814" stroke-width="2.7"/>
   <path d="m392.28 374.62c-0.49682-2.01-2.2843-4.2426-4.2726-6.409" opacity=".8814" stroke-width="2.7"/>
   <path d="m398.7 374.47c-1.6176-1.3413-6.8674-5.0242-0.39332-5.1184 6.4757-0.14185 1.6188 3.7463 0.39332 5.1184z" opacity=".8814" stroke-width="2.175"/>
   <path d="m404.73 375.25c0.39506-2.0325 2.0679-4.3521 3.9448-6.6158" opacity=".8814" stroke-width="2.7"/>
   <path d="m420.28 414.28c-1.4724-1.4557-4.162-2.4279-6.9885-3.2389" opacity=".8814" stroke-width="2.7"/>
   <path d="m384.75 410.91c-2.0701-0.0429-4.6906 1.1027-7.2994 2.4594" opacity=".8814" stroke-width="2.7"/>
  </g>
  <path d="m444.59481,399.42795c-.0268.001-.0639.026-.1228.12716-3.68952,4.63245-8.611,6.65397-12.85192,8.60051-4.22438,1.93894-8.4183,4.24013-11.29582,10.01109l-.0302.063c-1.47947,2.32443-4.88624,3.71935-8.87852,4.89004-.0441-.17132-.12175-.37094-.16495-.4972-.075-.21945.11353-.55051-.0745-.6863-.30407-.21957-1.10456.63488-1.42965.82191-.67414.38782-.50487,1.31642-1.25489,1.52212-.51329.14078-1.48716-.65809-2.01005-.55877-.79507.15102-1.24067.2234-1.92685.62746-.31922.18798.67306.598.74161.60021l.0313-.00054c.005.009.0265.021.0318.0308-.3272.10953-.63925.22747-.96315.32935 .0373-.17275-.005-.30844-.13098-.34152-1.07911-.28434-1.62636.27426-2.75619.37258-.68187.0594-1.59535,1.27374-2.31832,1.47817-.18245.002-.37239-.014-.56296-.0215-.76323-.2524-.94613-1.29646-1.87072-1.5301-.50958-.12883-1.79959-.46835-2.12631-.0566-.20206.2546.19106.64133.17312.96588-.00073.0154.002.0454.001.0625-.57022-.12943-.99321-.58291-1.57691-.7382 .0424-.13051.0634-.25318.0877-.34533 .0554-.21009.37814-.39557.30209-.59911-.12298-.32914-1.00058-.39091-1.35118-.41399-.72702-.0478-1.19863,1.09046-1.89021.8612-.47329-.1569-.84798-1.28322-1.30723-1.47742-.69828-.2953-1.07718-.48934-1.82203-.5308-.30787-.0171-.0491.9048.0515,1.15553-.25683-.0738-.35806-.70715-.60579-.77543-2.01785-.55629-3.8727-1.26873-5.25557-2.06488s-2.26963-1.67002-2.57503-2.48671c-.0163-.0537-.0383-.10586-.0652-.15514-5.94329-9.28079-11.32114-12.30141-15.62275-13.97495-2.15081-.83676-4.03603-1.19964-5.65413-1.62035s-2.30577-.59526-3.40229-1.53463c-.18275-.16918-.63686-.46323-.8825-.42217 .10973.13296-.44162,1.11232-.2545,1.53592 1.38341,1.18516 2.44036,1.55168 4.12911,1.99077s3.49918.81445 5.49736,1.59184c3.99636,1.55478 8.80434,4.7614 14.61868,13.84083l.0308-.0318c.54573,1.31273 1.85424,1.81937 3.36147,2.68713 1.56166.89909 3.52286,1.63278 5.63324,2.21456 .68551.18898 1.25034.93845 1.98767,1.15764-.14913,1.83865-.98428,4.28048-.91807,4.70423 .44217.0747 3.25863-2.17982 4.36601-4.06113 .36797.10441.73212.22595 1.09958.32462 .71646.19239 1.28527.66965 1.98474.82484-.0533.3948-.0986.77589-.0719,1.25145 0,0 .95198-.11563 1.58642-.43399 .4943,3.24732 3.65746,7.69757 4.35549,7.8002 .33094-.65427.22838-5.59558 1.20125-8.17845 .15328.32498.62587.62776 1.14173.94898 0,0 .18415-1.30806.38391-1.9877 1.24358-.3401 2.52754-.74413 3.82354-1.19188 .93955,1.72257 1.74019,4.7999 2.04634,5.13327 .43472-.19441 1.60827-3.84275 1.49265-6.16757 .31738-.0991.64498-.20631.96369-.29811 4.27488-1.23115 8.14827-2.74254 10.01988-5.75383l.0302-.063c2.67834-5.41637 6.38015-7.39305 10.55793-9.31061s8.36409-3.55951 12.32184-8.52875c.3413-.32045.12126-.42147.0456-.96969-.048-.34783.005-.72255-.075-.71756z" fill-opacity=".4007"/>
  <path d="m352.94 399.28c0.1074 0.13486-0.45071 1.1147-0.271 1.5415 1.3625 1.2091 2.4034 1.5839 4.0842 2.0524s3.4844 0.87537 5.4688 1.6875c3.9686 1.6243 8.7199 4.9143 14.375 14.094l0.0313-0.0313c0.52275 1.322 1.6331 2.3873 3.125 3.2812 1.5457 0.9262 3.4938 1.694 5.5938 2.3125 4.1998 1.237 9.5999 3.3054 13.39 3.2291 3.7389-0.0753 7.9392-1.979 12.235-3.1353s8.2011-2.9593 10.125-5.9375l0.0313-0.0625c2.7724-5.3688 6.5082-7.2806 10.719-9.125s8.426-3.3995 12.47-8.299c0.34684-0.31445 0.1426-0.44446 0.0765-0.99392-0.0559-0.46481 0.0322-0.97499-0.21065-0.57472-3.7698 4.5674-8.7177 6.4954-12.992 8.3676-4.2576 1.865-8.491 4.0926-11.469 9.8125l-0.0313 0.0625c-1.5404 2.3295-5.0426 4.0573-9.125 5.1562-4.1134 1.1073-8.2363 2.9999-11.86 3.0728-3.5723 0.0719-8.8744-1.9526-12.89-3.1353-2.0078-0.5914-3.85-1.3361-5.2188-2.1562s-2.2402-1.7094-2.5312-2.5312c-0.0154-0.054-0.0364-0.10646-0.0625-0.1562-5.7805-9.3831-10.916-13.033-15.188-14.781-2.1359-0.87416-4.0145-1.2699-5.625-1.7188s-2.2753-0.62546-3.3552-1.5838c-0.17977-0.17234-0.64918-0.4843-0.8955-0.44753z" fill="#604931" stroke="#000" stroke-width=".537"/>
  <g transform="matrix(.03212 .00253 -.00253 .03212 390.32 420.65)" stroke="#000">
   <path d="m129.69 161.71c-1.7308 0-3.0109-23.857-3.0733-34.421-0.0596-10.089-12.54-21.233-6.7613-29.504 9.3439-13.375 49.737-5.4835 65.769-2.4587 33.246 6.2724 38.777 47.166 72.531 44.871 23.1-1.5708 52.089-48.221 74.989-51.632 34.82-5.1867 54.539-8.6108 88.512-1.844 15.805 3.148-16.271 56.091-19.055 57.164-92.965 55.793-184.83 84.085-272.91 17.825z" fill="url(#c)" stroke-width="16.514"/>
   <path d="m130.31 161.09c-2.4901 18.881-3.8584 36.641-1.2293 59.008 0 0 29.504-5.532 48.559-16.596 21.464 99.679 128.16 231.72 149.98 233.57 9.0151-20.899-3.7397-173.83 21.513-255.7 5.3643 9.7788 20.289 18.069 36.88 27.045 0 0 12.908-44.871 15.981-64.54-38.724 0-109.8 35.187-139.93 40.526-49.659-3.3227-96.135-2.2331-131.76-23.315z" fill="url(#b)" stroke-linecap="round" stroke-linejoin="round" stroke-width="19.618"/>
  </g>
  <g transform="matrix(-.02183 .00719 .00719 .02183 412.43 418.48)" stroke="#000" stroke-width="21.751">
   <path d="m129.69 161.71c-1.7308 0-3.0109-23.857-3.0733-34.421-0.0596-10.089-12.54-21.233-6.7613-29.504 9.3439-13.375 49.737-5.4835 65.769-2.4587 33.246 6.2724 38.777 47.166 72.531 44.871 23.1-1.5708 52.089-48.221 74.989-51.632 34.82-5.1867 54.539-8.6108 88.512-1.844 15.805 3.148-16.271 56.091-19.055 57.164-92.965 55.793-184.83 84.085-272.91 17.825z" fill="url(#c)"/>
   <path d="m130.31 161.09c-2.4901 18.881-3.8584 36.641-1.2293 59.008 0 0 29.504-5.532 48.559-16.596 21.464 99.679 128.16 231.72 149.98 233.57 9.0151-20.899-3.7397-173.83 21.513-255.7 5.3643 9.7788 20.289 18.069 36.88 27.045 0 0 12.908-44.871 15.981-64.54-38.724 0-115.06 32.265-145.19 37.604-34.482 6.1102-52.963-4.2125-92.973-4.8386-25.258-4.9288-23.681-11.252-33.516-15.555z" fill="url(#b)" stroke-linecap="round" stroke-linejoin="round"/>
  </g>
  <g transform="matrix(-.02076 -.00574 -.00574 .02076 395.82 422.39)" stroke="#000" stroke-width="24.239">
   <path d="m129.69 161.71c-1.7308 0-3.0109-23.857-3.0733-34.421-0.0596-10.089-12.54-21.233-6.7613-29.504 9.3439-13.375 49.737-5.4835 65.769-2.4587 33.246 6.2724 38.777 47.166 72.531 44.871 23.1-1.5708 52.089-48.221 74.989-51.632 34.82-5.1867 54.539-8.6108 88.512-1.844 15.805 3.148-16.271 56.091-19.055 57.164-92.965 55.793-184.83 84.085-272.91 17.825z" fill="url(#c)"/>
   <path d="m130.31 161.09c-2.4901 18.881-3.8584 36.641-1.2293 59.008 0 0 29.504-5.532 48.559-16.596 21.464 99.679 128.16 231.72 149.98 233.57 9.0151-20.899-3.7397-173.83 21.513-255.7 5.3643 9.7788 20.289 18.069 36.88 27.045 0 0 12.908-44.871 15.981-64.54-38.724 0-109.04 31.53-139.17 36.869-34.482 6.1102-58.983-3.4778-98.993-4.1039-25.258-4.9288-23.681-11.252-33.516-15.555z" fill="url(#b)" stroke-linecap="round" stroke-linejoin="round"/>
  </g>
  <g transform="translate(1.0682 -5.3408)">
   <path d="m371.6 358.41c0.6343 2.2014 2.727 0.73346 1.8396 5.4485-4.8226 39.562-9.5942 79.233-11.058 119.08-0.56904 1.6623 0.70726 5.957 2.5938 3.25 5.7185-27.613 6.9492-56.061 10-84.094 1.4827-13.61 1.5262-28.017 3.375-41.156 5.6637-2.526 5.3823-12.593 5.6562-15.312 0.42112-5.1232-3.2622-19.733-5.9775-17.836-6.7268 6.8296-9.603 23.347-6.4287 30.618z" fill-rule="evenodd"/>
   <g transform="matrix(.86442 .08443 -.08443 .86442 -85.815 -8.5666)">
    <path transform="matrix(.99952 -.03113 .00091945 1 0 0)" d="m570.31 388.95c1.3296 0 2.4001 26.974 2.4001 60.479v24.136c0 33.505-1.0704 60.479-2.4001 60.479s-2.4001-26.974-2.4001-60.479v-24.136c0-33.505 1.0704-60.479 2.4001-60.479z" fill="url(#j)" fill-rule="evenodd"/>
    <path d="m576.67 352.77c0.6425 16.202-2.6184 17.932-6.0066 17.591-3.9826 1.0947-5.9421-0.64083-6.5845-16.843 1.7687-10.537 4.3786-17.586 5.5826-18.261 1.113-0.62345 4.713 4.7511 7.0085 17.512z" fill="url(#i)" fill-rule="evenodd"/>
    <path d="m570.43 351.62c-0.80945 0.043-1.4632 5.3936-1.4597 11.943 1e-3 2.2003 0.0763 4.2569 0.2064 6.0171l-0.36313 17.617 3.2034 0.0186-0.38167-16.92c0.16972-1.9489 0.26914-4.3267 0.26776-6.8882-4e-3 -6.5498-0.66361-11.831-1.4731-11.788z" fill="url(#h)" fill-rule="evenodd"/>
    <path d="m567.88492,338.6002c.48715.58602.75836.23789.9289,1.46398 .50348,1.54959-.10023,1.229-.3913,1.7505-1.04194.39803-1.13828-.14751-1.54038-.38934 .29556-1.43182.45963-1.50779 1.00278-2.82514z" fill-opacity=".1047"/>
    <path d="m572.70443,338.88314c-.48715.58602-.75836.23789-.9289,1.46398-.50348,1.54959.10023,1.229.3913,1.7505 1.04194.39803 1.18819-.12255 1.59029-.36438-.29556-1.43182-.50954-1.53275-1.05269-2.8501z" fill-opacity=".1047"/>
    <path d="m566.8454,341.77653c.48715.58602.52875-.10154.69929,1.12455 .41363-.18753.1344.97442-.15669,1.49592-1.04194.39803-1.01848.62121-1.42058.3794 .29556-1.43182.33483-1.6825.87798-2.99985z" fill-opacity=".1047"/>
    <path d="m565.77686,345.42853c.48715.58602.90811.33772 1.07865,1.56381 .50348,1.54959-.17511.8047-.46618,1.3262-1.04194.39803-.98852.4515-1.39062.20967 .29556-1.43182.235-1.78233.77815-3.09968z" fill-opacity=".1047"/>
    <path d="m573.82232,341.98838c-.48715.58602-.75836.23789-.9289,1.46398-.50348,1.54959.49957.60504.79064,1.12654 1.04194.39803.71398.57628 1.11608.33445-.29556-1.43182-.43467-1.60762-.97782-2.92497z" fill-opacity=".1047"/>
    <path d="m574.8659,345.32927c-.43723.012-.88315-.16144-1.05369,1.06465-.50348,1.54959.12519.90454.41626,1.42604 1.04194.39803.91365.20191 1.31575-.0399-.29556-1.43182-.13512-1.13342-.67832-2.45077z" fill-opacity=".1047"/>
    <path d="m564.84 349.68c0.63323 0.64443 1.4231-0.13126 1.6448 1.217-0.7148 1.7734-0.2103 1.5435-0.58865 2.117-1.3545 0.43771-1.4492 0.43571-1.6863 0.0746 0.40967-1.5774 0.26744-1.9982 0.6302-3.4087z" fill-opacity=".1047"/>
    <path d="m564.12715,354.40641c.62465.62496 2.96699.63747 2.30172,1.94504-.29037,1.09794-.57119.52886-.94441,1.08502-1.33602.42448-.64356.77615-1.15916.51825-.16066-1.73493-.0247-2.1419-.19815-3.54831z" fill-opacity=".1047"/>
    <path d="m564.47 359.31c0.48715 0.7423 2.52-6e-3 2.1879 1.6342 0.50348 1.9628-0.19244 1.4006-0.48351 2.0612-1.0419 0.50418-0.91919 0.58924-1.3213 0.28292-0.0684-1.311-0.37163-2.327-0.38312-3.9783z" fill-opacity=".1047"/>
    <path d="m565.07 364.47c0.48715 0.71583 2.3058 0.41253 2.4763 1.9102 0.50348 1.8928 0.0495 1.7567-0.24155 2.3937-1.0419 0.4862-0.88869-0.19724-1.2908-0.49264-0.50311-1.749-0.88813-2.3768-0.94399-3.8113z" fill-opacity=".1047"/>
    <path d="m575.779,348.6121c-.5559.63145-1.14026.46789-1.33486,1.78904-.57454,1.66973.19982.86709.53197,1.42902 1.18898.42889 1.12802.4865 1.58686.22592-.33727-1.54282-.33749-1.93784-.78397-3.44398z" fill-opacity=".1047"/>
    <path d="m576.59 353.01c-0.82226 0.42019-1.159-0.80129-1.765 0.4108-1.1439 1.4188-0.15946 1.7053 0.0603 2.3634 1.2442 0.82385 1.192 0.80667 1.7954 0.71214 0.058-1.6094 0.29871-1.8819-4e-3 -3.4691z" fill-opacity=".1047"/>
    <path d="m576.71 358c-0.84745 0.40097-1.0329-0.77034-1.7654 0.47792-1.2788 1.4388-0.35347 1.6566-0.21963 2.3629 1.1076 0.93448 1.169 0.9917 1.7652 0.92322 0.24888-1.6964 0.32301-2.0725 0.21945-3.764z" fill-opacity=".1047"/>
    <path d="m576.44065,362.32085c-.48715.70934-2.0562.0843-2.22674,1.56843-.50348,1.87568-.0246,1.44825.26651,2.07949 1.04194.4818.88869.67131 1.29079.37859 .34748-1.51878.46384-2.35707.66944-4.02651z" fill-opacity=".1047"/>
    <path d="m575.52458,366.78799c-.86153.30351-2.63025-1.01759-2.80079.45293-.50348,1.85852.0254,1.33951.31643,1.96498 .24327.15292.51431.56647.91641.27643 .0396-.37645 1.43125-1.18813 1.56795-2.69434z" fill-opacity=".1047"/>
    <path d="m569.59778,335.25094c.48715.58602.30148.23372.47202,1.45981-.27648.40566-.3311.54472-.62217,1.06622-1.04194.39803-.53788-.53645-.93998-.77828 .52088-1.32782 1.01495-1.53967 1.09013-1.74775z" fill-opacity=".1047"/>
    <path d="m571.01332,336.08139c-.48715.58602-.19749.0431-.36803,1.26916 .50925.73646.10578.73538.39685,1.25688 1.04194.39803 1.05785.2955 1.45995.0537-.52088-1.39715-.92829-1.76499-1.48877-2.57971z" fill-opacity=".1047"/>
   </g>
  </g>
  <g transform="matrix(.8783 -.11592 .13085 .9914 272.52 81.756)" fill-rule="evenodd" stroke="#000" stroke-width="1.6292">
   <path d="m51.639 328.16c15.677 5.6371-4.615 30.676 12.323 52.523 3.1308 4.0382-18.856 0.68126-26.629-21.696-7.559-21.762-0.36897-35.041 14.306-30.827z" fill="#fff"/>
   <path d="m51.639 328.16c15.677 5.6371-13.877 33.276 12.323 52.523 7.3726 5.416-18.856 0.68126-26.629-21.696-7.559-21.762-0.36897-35.041 14.306-30.827z" fill="url(#e)"/>
  </g>
  <g transform="matrix(.87654 -.1286 .14516 .98941 268.79 96.152)" fill-rule="evenodd" stroke="#000" stroke-width="1.6292">
   <path d="m135.69 328.16c-15.677 5.6371 4.615 30.676-12.323 52.523-3.1308 4.0382 18.856 0.68126 26.629-21.696 7.559-21.762 0.36897-35.041-14.306-30.827z" fill="#fff"/>
   <path d="m135.69 328.16c-15.677 5.6371 13.877 33.276-12.323 52.523-7.3726 5.416 18.856 0.68126 26.629-21.696 7.559-21.762 0.36897-35.041-14.306-30.827z" fill="url(#d)"/>
  </g>
 </g>
</svg>
