<?xml version="1.0" encoding="UTF-8" standalone="no"?>
<svg
   xmlns:dc="http://purl.org/dc/elements/1.1/"
   xmlns:cc="http://creativecommons.org/ns#"
   xmlns:rdf="http://www.w3.org/1999/02/22-rdf-syntax-ns#"
   xmlns:svg="http://www.w3.org/2000/svg"
   xmlns="http://www.w3.org/2000/svg"
   xmlns:xlink="http://www.w3.org/1999/xlink"
   xmlns:sodipodi="http://sodipodi.sourceforge.net/DTD/sodipodi-0.dtd"
   xmlns:inkscape="http://www.inkscape.org/namespaces/inkscape"
   width="297mm"
   height="210mm"
   version="1.1"
   style="shape-rendering:geometricPrecision; text-rendering:geometricPrecision; image-rendering:optimizeQuality; fill-rule:evenodd; clip-rule:evenodd"
   viewBox="0 0 29700 21000"
   id="svg72"
   sodipodi:docname="snail1.svg"
   inkscape:version="0.92.3 (2405546, 2018-03-11)">
  <metadata
     id="metadata76">
    <rdf:RDF>
      <cc:Work
         rdf:about="">
        <dc:format>image/svg+xml</dc:format>
        <dc:type
           rdf:resource="http://purl.org/dc/dcmitype/StillImage" />
      </cc:Work>
    </rdf:RDF>
  </metadata>
  <sodipodi:namedview
     pagecolor="#ffffff"
     bordercolor="#666666"
     borderopacity="1"
     objecttolerance="10"
     gridtolerance="10"
     guidetolerance="10"
     inkscape:pageopacity="0"
     inkscape:pageshadow="2"
     inkscape:window-width="1920"
     inkscape:window-height="1052"
     id="namedview74"
     showgrid="false"
     inkscape:zoom="0.29734127"
     inkscape:cx="687.37755"
     inkscape:cy="396.85039"
     inkscape:window-x="0"
     inkscape:window-y="360"
     inkscape:window-maximized="1"
     inkscape:current-layer="svg72" />
  <defs
     id="defs21">
    <style
       type="text/css"
       id="style2">  .str0 {stroke:black;stroke-width:20;stroke-miterlimit:22.9256} .fil0 {fill:black} .fil2 {fill:#C28914} .fil4 {fill:#CAC9F0} .fil1 {fill:#FCFC49} .fil9 {fill:#FFFFCC} .fil5 {fill:url(#id0)} .fil8 {fill:url(#id1)} .fil7 {fill:url(#id2)} .fil6 {fill:url(#id3)} .fil3 {fill:url(#id4)}  </style>
    <linearGradient
       id="id0"
       gradientUnits="userSpaceOnUse"
       x1="24144.75"
       y1="7967.1"
       x2="21972.7"
       y2="14338.54">
      <stop
         offset="0"
         style="stop-opacity:1; stop-color:#FFCC00"
         id="stop4" />
      <stop
         offset="0.478431"
         style="stop-opacity:1; stop-color:#FFFF66"
         id="stop6" />
      <stop
         offset="1"
         style="stop-opacity:1; stop-color:#FFFF99"
         id="stop8" />
    </linearGradient>
    <linearGradient
       id="id1"
       gradientUnits="userSpaceOnUse"
       xlink:href="#id0"
       x1="20831.16"
       y1="3059.93"
       x2="18094.92"
       y2="11086.25" />
    <linearGradient
       id="id2"
       gradientUnits="userSpaceOnUse"
       xlink:href="#id0"
       x1="20158.71"
       y1="3996.73"
       x2="19255.23"
       y2="6646.95" />
    <linearGradient
       id="id3"
       gradientUnits="userSpaceOnUse"
       xlink:href="#id0"
       x1="18961.48"
       y1="8294.3"
       x2="18960.74"
       y2="8296.42" />
    <radialGradient
       id="id4"
       gradientUnits="userSpaceOnUse"
       gradientTransform="matrix(2.18574,0,0,2.18574,-29399,-6914)"
       cx="24794.06"
       cy="5830.6"
       r="4335.72"
       fx="24794.06"
       fy="5830.6">
      <stop
         offset="0"
         style="stop-opacity:1; stop-color:yellow"
         id="stop14" />
      <stop
         offset="0.501961"
         style="stop-opacity:1; stop-color:#E0E012"
         id="stop16" />
      <stop
         offset="1"
         style="stop-opacity:1; stop-color:#F5F525"
         id="stop18" />
    </radialGradient>
    <linearGradient
       inkscape:collect="always"
       xlink:href="#id0"
       id="linearGradient78"
       gradientUnits="userSpaceOnUse"
       x1="24144.75"
       y1="7967.1"
       x2="21972.7"
       y2="14338.54" />
  </defs>
  <g
     id="Ebene_x0020_1"
     transform="matrix(2.62038,0,0,1.908023,-44516.176,-6039.1951)">
    <metadata
       id="CorelCorpID_0Corel-Layer" />
    <g
       id="_807020952">
      <path
         class="fil0"
         d="m 18447.04,10931.54 c -50.69,-12.06 -127.62,-30.71 -212.32,-52.47 -12.88,-10.97 -14.44,-30.29 -3.47,-43.17 10.96,-12.89 30.29,-14.45 43.17,-3.48 l 195.21,44.69 c 24.98,-58.69 51.39,-116.36 78.8,-172.63 -36.41,4.97 -75.97,13.1 -122.3,21.79 l -12.96,7.27 c -8.78,4.93 -18.95,5.07 -27.49,1.26 l -0.83,0.01 c -39.35,-0.8 -66.28,-0.09 -100.71,-19.35 -13.58,-10.1 -16.4,-29.29 -6.3,-42.86 10.1,-13.58 29.29,-16.4 42.86,-6.3 17.39,6.8 46.04,6.88 64.15,7.25 2.93,0 5.76,0.41 8.45,1.18 54.42,-27.66 120.91,-39.39 188.88,-37.91 78.85,-154.48 164.01,-297.03 245.34,-420 2,-2.46 4.3,-4.54 6.81,-6.21 59.72,-150.26 182.08,-52.59 122.61,-352.91 -244.57,-75.89 -163.87,-339.46 26.54,-406.66 344.98,-121.77 121.45,-163.31 290.93,-315.74 401.06,-360.7 374.98,-403.65 304.82,-915.5 -111.39,19.37 -226.36,12.85 -333.49,-29.11 -99.54,53.26 -212.32,88.24 -285.21,104.71 l -400.15,54.61 c -1797.01,114.63 -1434.25,-1848.46 -689.31,-2097.78 327.12,-213.53 967.31,-203.2 1124.55,37.96 2.05,-0.87 4.19,-1.6 6.43,-2.14 161.59,-30.32 292.5,-55.56 398.99,-82.13 290.31,-490.91 276.33,-484.93 251.07,-1078.02 -19.05,-447.33 -329.3,-390.3 -218.47,-684.14 5.16,-13.67 15.45,-24.87 29.43,-33.56 -1.53,-4.24 -2.36,-8.82 -2.36,-13.59 -8.42,-208.24 28.28,-590.26 348.17,-506.92 60.15,15.67 139.89,95.89 187.38,190.87 160.05,-196.84 485.59,-169.64 544.12,111.25 17.06,81.93 82.81,299.19 37.93,394.61 39.93,7.31 63.84,41.09 52.02,121.65 -26.71,182.02 -324.84,167.88 -372.55,498.43 -39.35,272.61 -30.96,384.48 -97.63,695.9 -50.18,234.45 -68.69,338.62 -29.59,418.23 657.25,42.04 1387.04,203.47 1520.79,976.18 104.68,604.77 -244.31,1066.04 -745.43,1351.86 v 0 c -311.65,138.23 -1204.09,466.32 -1231.86,858.84 0,9.09 -3.02,17.48 -8.11,24.22 105.49,867.49 1449.29,1441.73 2216.83,1565.15 245.07,39.41 283.11,45.65 402.29,66.95 -207.6,-143.81 -368.96,-283.64 -412.66,-550.18 -515.16,-390.84 -864.44,-1000.78 -767.54,-1662.95 136.37,-931.81 994.06,-984.06 1738.24,-919.98 -240.93,-292.65 -327.86,-665.98 -166.34,-1051.61 277.94,-663.62 941.07,-535.65 1477.08,-338.55 -59.21,-479.52 294.01,-622.34 719.6,-644.33 9.08,0 17.23,3.95 22.84,10.22 221.78,-302.76 39.53,-211.88 176.58,-418.04 130.74,-196.69 436.27,-83.49 398.2,220.03 -21.39,170.61 -37.92,254.35 -63.55,339.54 3.29,1.52 6.36,3.66 9.05,6.41 449.66,489.94 694.6,933.43 661.97,1273.15 10.01,-7.36 23.94,-8.15 34.94,-0.93 650.53,490.77 1160.52,1096.48 584.33,1897.53 -45.55,63.34 -94.41,122.7 -146.11,178.45 553.35,569.59 1506.35,1842.95 804.17,2599.2 -170.42,183.55 -384.56,277.85 -612.9,329.52 l 89.79,24.18 c 607.04,204.92 649.12,292.6 987.33,566.82 15.79,10.88 30.73,22.52 42.74,34.35 27.4,21.83 56.65,44.79 88.2,69.04 3.75,2.89 201.17,92.53 178.87,156.06 -44.88,127.88 -2303.4,-157.31 -2566.15,-166.84 -4.68,0 -9.11,-1.06 -13.09,-2.94 -664.62,-45.13 -789.51,-81.95 -1487.61,4.03 -861.87,106.16 -884.03,-153.71 -1714.77,-143.74 -115.76,15.31 -535.1,72.53 -679.06,85.62 -771.89,70.21 -961.63,-288.48 -1615.04,-389.18 -465.61,-71.76 -1315.11,334.78 -1673.41,-367 -208.47,-408.32 -117.63,-916.47 66.27,-1370.17 z m 82.87,-40.63 -0.36,0.85 -0.37,0.85 -3.59,8.42 -0.04,0.09 -0.37,0.85 -0.36,0.85 -0.36,0.85 -0.35,0.86 -0.37,0.85 -0.36,0.85 -0.36,0.85 -0.36,0.86 -1.08,2.56 -0.36,0.85 -0.72,1.72 -0.36,0.85 -0.36,0.85 -0.35,0.85 -0.36,0.86 -0.36,0.86 -0.36,0.85 -4.99,11.98 -0.36,0.86 -0.35,0.86 -0.35,0.85 -0.36,0.86 -0.35,0.86 -0.36,0.85 -0.35,0.86 -0.35,0.86 -0.36,0.86 -0.35,0.86 -0.35,0.86 -0.35,0.86 -0.35,0.86 -0.36,0.85 -0.35,0.86 -0.36,0.86 -0.34,0.86 -0.36,0.86 c -145.59,356.46 -233.59,748.59 -155.67,1093.45 349.12,607.72 1257.7,338.38 1712.57,408.34 647.55,99.6 849.89,456.95 1599.31,388.7 715.83,-65.18 812.56,-186.57 1541.67,22.37 609.91,174.79 1113.5,-61.76 1794.77,-14.41 l 320.28,30.57 274.46,18.2 c 3.53,0 6.92,0.6 10.07,1.7 702.88,32.23 1561.44,243.08 2190.72,191.45 l -147.7,-145.35 h 0.01 l -26.88,-21.53 v 0 c -344.52,-232.38 -614.38,-352.12 -1012.98,-462.04 -175.28,27.7 -355.34,36.42 -527.58,46.03 -1.61,3.01 -3.76,5.81 -6.44,8.24 -311.68,234.28 -1482.98,-199.7 -1789.63,-326.75 -473.36,-196.13 -385.5,-405.75 -953.92,-452.44 -16.92,0 -30.64,-13.71 -30.64,-30.63 0,-16.92 13.72,-30.63 30.64,-30.63 590,48.75 559.25,317.54 1197.4,531.05 252.77,84.57 1237.09,464.99 1505.01,263.99 4.62,-4.18 10.16,-6.7 15.89,-7.58 5.15,-9.68 15.33,-16.26 27.05,-16.26 165.03,-9.22 339.73,-17.16 510.37,-43.32 5.3,-3.43 11.71,-5.24 18.48,-4.83 l 4.45,1.2 c 261.86,-42.81 512.64,-130.82 702.27,-335.05 671.15,-722.76 -274.94,-1970.85 -801.69,-2513.28 -521.39,526.67 -1311.13,705.93 -2029.38,744.12 -16.91,0 -30.63,-13.71 -30.63,-30.63 0,-16.92 13.72,-30.63 30.63,-30.63 702.73,-37.38 1481.24,-212.65 1990.64,-730.85 -1.27,-8.9 1.36,-18.28 8,-25.34 6.77,-7.21 16.21,-10.41 25.34,-9.51 51.15,-54.85 99.4,-113.35 144.31,-175.78 553.02,-768.63 52.3,-1342.23 -568.31,-1810.35 -2.84,-1.86 -5.26,-4.12 -7.27,-6.66 -62.35,362.36 -461.85,597.09 -1294.89,628.56 -16.92,0 -30.64,-13.71 -30.64,-30.63 0,-16.92 13.72,-30.63 30.64,-30.63 1559.23,-58.84 1519.05,-826.98 608.98,-1825.91 -12.97,38.23 -28.14,80.54 -46.53,133.41 0,16.91 -13.72,30.63 -30.64,30.63 -16.91,0 -30.63,-13.72 -30.63,-30.63 68.47,-209.97 98.12,-280.45 131.33,-544.76 29.8,-237.23 -190.4,-323.46 -286.31,-178.95 -136.05,204.96 94.6,88.77 -279.76,551.4 -10.57,13.2 -29.85,15.34 -43.05,4.76 -13.21,-10.57 -15.34,-29.85 -4.77,-43.05 22.51,-27.82 42.69,-53.39 60.87,-77 -475.42,26.71 -651.87,137.02 -635.91,620.12 v -0.01 c 82.62,372.31 537.61,342.12 709.55,522.69 9.39,14.08 5.57,33.11 -8.5,42.49 -14.08,9.38 -33.11,5.57 -42.49,-8.51 -136.01,-137.97 -634.45,-154.1 -715.43,-529.04 -5.33,0.64 -10.91,-0.11 -16.16,-2.46 -503.35,-187.73 -1149.54,-334.9 -1414.93,298.94 -160.17,382.57 -59.86,754.32 196.65,1036.13 l 1.76,0.16 c 14.73,2.34 25.32,14.81 25.82,29.17 48.51,49.98 102.03,96.93 159.98,140.32 14.5,8.72 19.2,27.53 10.48,42.04 -8.71,14.5 -27.53,19.2 -42.03,10.48 -67.17,-50.3 -128.75,-105 -183.97,-163.43 -721.48,-69.29 -1602.09,-57.52 -1736.51,861.85 -93.37,638.57 247.34,1231.68 745.77,1607.26 5.15,2 9.63,5.36 12.99,9.63 11.49,8.64 15.37,24.18 9.43,37.17 46.52,272.82 250.32,409.4 472.03,558.66 6.51,3.68 11.14,9.38 13.58,15.87 l 87.2,15.58 c 16.58,3.38 27.26,19.57 23.88,36.15 -3.39,16.58 -19.57,27.26 -36.15,23.88 -410.7,-73.23 -203.69,-37.82 -621.03,-106.13 v 0 c -812.86,-182.37 -2149.8,-668.28 -2268.03,-1621.69 -7.14,-7.25 -11.54,-17.21 -11.54,-28.19 27.44,-388.92 643.84,-648.62 942.41,-783.67 546.8,-247.33 1044.73,-505.38 1050.51,-1230.06 6.52,-816.74 -721.07,-1033.68 -1385.49,-1087.58 33.89,29.88 78.14,62.13 134.35,103.15 16.84,14.47 18.76,39.85 4.29,56.69 -14.48,16.84 -39.86,18.76 -56.7,4.29 -95.65,-69.25 -159.98,-121.23 -199.89,-175.69 -12.27,-6.48 -20.78,-19.11 -21.42,-33.8 -53.98,-100.6 -34.29,-222.03 20.23,-477.09 67.03,-313.62 56.34,-414.52 96.2,-688.38 52.84,-363.03 432.35,-421.53 369.59,-530.73 -72.51,1.42 -87.07,12.29 -150.42,61.77 -293.63,229.35 -565.65,-243.38 -582.49,-81.22 -23.32,224.49 206.85,-17.6 167.99,650.21 -40.12,689.8 -59.89,854.6 -534.36,980.23 -7.41,4.85 -16.24,7.13 -25.05,6.48 -108.09,27.43 -238.58,53.38 -396.79,83.02 1.78,8.72 3.15,17.62 3.86,26.77 -0.53,22.2 -18.97,39.76 -41.17,39.22 -22.2,-0.54 -39.75,-18.98 -39.21,-41.18 -17.87,-225.68 -694.88,-272.57 -967.06,-116.37 -366.22,210.18 -519.7,314.24 -615.61,826.94 -199.47,1066.28 702.07,1285.63 1582.06,1115.33 51.11,-9.89 177.09,-44.5 278.45,-101.88 l 0.84,-0.48 c 106.43,-60.48 185.31,-146.14 120.82,-254.77 -1.69,-2.86 -7.23,-11.29 -12.19,-12.9 -22.11,1.73 -41.44,-14.78 -43.19,-36.9 -1.75,-22.14 14.77,-41.49 36.91,-43.24 41.48,1.66 65.07,14.74 87.66,52.08 80.52,133.09 19.47,239.27 -85.97,318.22 81.68,21.43 167.88,20.22 251.83,2.41 6.62,-6.39 15.45,-10.56 25.35,-11.2 4.9,-0.32 9.65,0.25 14.11,1.59 242.14,-66.75 456.16,-266.91 474.22,-453.24 l 2.38,-59.45 c -139.46,-55.16 -222.3,-207.72 -104.52,-452.24 11.23,-19.15 35.87,-25.56 55.02,-14.33 19.15,11.23 25.57,35.87 14.33,55.02 -206.95,428.58 342.5,448.27 452.09,168.26 5.53,-21.5 27.45,-34.45 48.95,-28.92 21.5,5.54 34.45,27.45 28.92,48.95 -72.28,184.4 -259.34,263.63 -415.21,243.47 l -1.88,46.56 c -21.73,222.22 -252.16,442.32 -520.69,518.93 74.92,551.84 94.03,612.65 -334.22,997.2 -122.57,110.07 70.78,191.65 -319.31,329.75 -111.16,39.36 -198.78,215.88 -2.93,258.08 21.98,3.08 37.3,23.42 34.21,45.4 -1.58,11.23 -7.66,20.72 -16.16,26.91 59.75,327.85 -90.63,252.91 -131.86,383.13 -2.11,10.34 -9.19,18.39 -18.25,22.16 -72.95,111.01 -149.49,239.05 -221.41,377.83 l -0.46,0.88 -5.05,9.77 -0.46,0.89 -0.45,0.89 -0.46,0.9 -0.45,0.88 -0.46,0.89 -0.46,0.9 -0.46,0.89 -0.46,0.89 -1.36,2.68 -0.46,0.89 -1.83,3.57 -0.45,0.9 -0.46,0.89 -0.45,0.9 -0.46,0.89 -0.46,0.9 -0.45,0.89 -0.46,0.9 -1.36,2.69 -0.45,0.9 -0.46,0.89 -0.45,0.9 -0.46,0.9 -0.45,0.9 -0.45,0.9 -8.15,16.22 -0.45,0.91 -0.45,0.9 c -30.91,62.06 -60.73,126.02 -88.74,191.37 z m 1508.95,-6729.76 c 96.17,22.5 329.56,78.75 386.01,-5.15 2.66,-5.18 6.58,-9.3 11.2,-12.15 -19.9,-42.52 -43.39,-75.86 -70.29,-91.26 -320.9,-18.53 -278.8,53.43 -326.92,108.56 z m 421.99,45.31 c -95.48,94.7 -308.24,43.12 -424.2,16.38 0.94,21.67 -0.95,42.87 -6.23,63.09 -20.89,80.01 -111.28,192.49 -160.11,260 136.97,43.83 340.09,217.74 433.15,152.82 37.17,-25.95 123.35,-81.25 198.29,-103.92 -7.17,-14.9 -4.56,-33.19 7.46,-45.48 13.94,-39.71 -3.69,-210.56 -48.36,-342.89 z m -2045.42,8025.56 c 6.37,14.17 12.97,28.25 20.07,42.16 335.89,658.29 1164.56,262.7 1628.4,334.04 647.56,99.61 849.89,456.94 1599.31,388.7 715.83,-65.19 812.56,-186.58 1541.67,22.37 609.91,174.78 1113.5,-61.76 1794.77,-14.41 l 320.28,30.57 274.46,18.2 c 3.53,0 6.92,0.59 10.07,1.7 702.88,32.23 1802.64,248.4 2431.93,196.77 l -157.24,-125.94 c -156.58,100.5 -2060.65,-162.82 -2315.4,-172.07 -4.68,0 -9.11,-1.06 -13.09,-2.93 -664.62,-45.13 -789.51,-81.96 -1487.61,4.02 -861.87,106.16 -884.03,-153.71 -1714.77,-143.73 -115.76,15.31 -535.1,72.52 -679.06,85.62 -771.89,70.21 -961.64,-288.49 -1615.04,-389.18 -421.93,-65.03 -1225.15,196.69 -1638.75,-275.89 z m 1141.03,-8129.97 c 95.1,22.27 300.07,69.43 368.18,4.89 -28.46,-31.49 -74.9,-70.14 -141.01,-137.54 -136.99,6.86 -199.8,54.12 -227.17,132.65 z m 399.67,56.12 c -102.32,78.04 -303.79,28.09 -413.4,2.89 -8.96,63.2 -5.47,140.05 -1.93,227.64 95.46,-6.04 224.08,39.07 264.9,141.43 0.56,2.17 0.92,4.37 1.11,6.54 8.79,-0.92 18.22,-0.55 28.15,0.85 -6.25,-5.89 -10.67,-13.82 -12.11,-22.97 -3.46,-21.93 11.51,-42.52 33.44,-45.97 78.11,-191.06 114.06,-258.38 99.84,-310.41 z m -205.85,418.64 c -10.75,-4.84 -19.28,-14.35 -22.44,-26.65 -26.33,-65.36 -164.43,-95.15 -218.49,-74.52 -23.94,378.69 199.1,93.78 223.16,652.26 24.97,579.25 35.9,610.67 -219.65,1046.57 344.98,-111.03 354.5,-279.42 389.69,-883.54 36.06,-619.27 -195.56,-392.16 -167.48,-655.9 2.61,-24.44 7.82,-43.52 15.21,-58.22 z m -789.75,3718.59 -0.76,0.18 2.66,-0.43 z m -809.93,2298.43 c -157.72,-55.26 -176.97,43.54 -120.11,118.99 -92.89,15.74 -95.03,68.55 -47.91,103.03 -183.46,82.32 6.28,229.83 250.07,130.3 14.32,-9.02 18.62,-27.93 9.6,-42.25 -9.03,-14.32 -27.94,-18.61 -42.26,-9.59 -44.81,17.73 -184.89,39.11 -227.12,-0.14 4.39,-5.51 12.87,-11.34 17.7,-14.74 185.13,-64.16 50.4,-100.52 29.31,-108.36 29.37,-24.01 74.98,33.4 117.78,-32.23 -8.34,-15.61 -185.49,-179.57 37.83,-68.91 1.15,2.88 2.3,5.67 3.43,8.34 8.61,14.56 27.4,19.4 41.96,10.79 13.56,-8.02 18.68,-24.86 12.38,-38.89 0.21,-8.29 -2.96,-16.49 -9,-22.49 -25.33,-71.42 -63.82,-230.5 36.25,-238.82 51.28,34.28 -108.04,86.62 73.61,265.04 12.78,11.1 32.12,9.73 43.22,-3.04 11.09,-12.78 9.73,-32.13 -3.05,-43.22 -133.87,-131.6 24.78,-319.8 -145.25,-276.11 -111.23,28.58 -104.87,160.3 -78.44,262.3 z"
         id="path24"
         inkscape:connector-curvature="0"
         style="fill:#000000" />
      <path
         class="fil1 str0"
         d="m 18369.93,10657.08 4.24,16.25 -0.47,-0.01 -0.35,-0.01 -0.66,-0.01 -0.16,-0.01 -1.66,-0.04 h -0.21 l -0.64,-0.03 h -0.39 l -1.3,-0.05 -0.78,-0.02 -0.08,-0.01 -0.86,-0.03 h -0.11 l -0.76,-0.03 -0.29,-0.01 -0.57,-0.02 -0.49,-0.02 -0.39,-0.02 -0.68,-0.03 -0.19,-0.01 -0.87,-0.04 h -0.01 -0.03 l -1.73,-0.08 -0.39,-0.02 -0.5,-0.03 -0.58,-0.03 -0.3,-0.02 -0.78,-0.04 -0.11,-0.01 -0.89,-0.05 h -0.09 l -0.8,-0.06 -0.28,-0.02 -0.61,-0.05 -0.48,-0.02 -0.42,-0.03 -0.66,-0.05 -0.23,-0.02 -0.87,-0.06 -0.02,-0.01 -0.89,-0.07 -0.17,-0.01 -0.72,-0.06 -0.37,-0.04 -0.52,-0.04 -0.56,-0.05 -0.33,-0.03 -0.76,-0.08 -0.13,-0.01 -0.88,-0.09 -0.07,-0.01 -0.82,-0.08 -0.25,-0.03 -0.62,-0.07 -0.45,-0.05 -0.44,-0.05 -0.63,-0.07 -0.24,-0.03 -0.83,-0.11 h -0.04 l -0.87,-0.11 -0.15,-0.03 -0.72,-0.09 -0.34,-0.05 -0.52,-0.07 -0.52,-0.08 -0.34,-0.05 -0.71,-0.11 -0.14,-0.02 -0.85,-0.14 h -0.04 l -0.8,-0.13 -0.23,-0.04 -0.61,-0.11 -0.41,-0.07 -0.42,-0.07 -0.59,-0.12 -0.24,-0.04 -0.76,-0.15 -0.06,-0.01 -0.81,-0.17 -0.12,-0.02 -0.69,-0.14 -0.29,-0.07 -0.98,-0.22 -0.33,-0.07 -0.62,-0.14 -0.16,-0.04 -0.78,-0.2 h -0.01 l -0.76,-0.19 -0.18,-0.05 -0.57,-0.15 -0.36,-0.1 -0.4,-0.11 -0.51,-0.14 -0.23,-0.08 -0.67,-0.2 -0.07,-0.01 -0.72,-0.23 -0.09,-0.03 -0.63,-0.2 -0.24,-0.08 -0.47,-0.16 -0.38,-0.14 -0.31,-0.11 -0.54,-0.2 -0.14,-0.05 -0.68,-0.26 c -13.57,-10.1 -32.76,-7.28 -42.86,6.3 -10.1,13.57 -7.28,32.76 6.3,42.86 34.43,19.26 61.36,18.55 100.71,19.35 l 0.83,-0.01 c 8.54,3.81 18.71,3.67 27.49,-1.26 l 12.96,-7.27 2.17,-0.41 1.45,-0.27 0.7,-0.13 2.15,-0.41 0.74,-0.14 1.4,-0.26 2.12,-0.4 0.04,-0.01 2.08,-0.39 1.46,-0.28 0.65,-0.13 2.1,-0.4 0.75,-0.14 1.35,-0.25 2.07,-0.4 0.07,-0.01 2.01,-0.39 1.45,-0.27 0.61,-0.12 2.05,-0.39 0.77,-0.15 1.28,-0.24 2.04,-0.4 0.09,-0.01 1.93,-0.37 1.46,-0.28 0.56,-0.11 2.02,-0.38 0.78,-0.15 1.22,-0.23 2,-0.38 0.12,-0.03 1.86,-0.35 1.46,-0.28 0.52,-0.1 1.97,-0.37 0.8,-0.16 1.16,-0.21 1.96,-0.37 0.15,-0.04 1.79,-0.33 1.46,-0.28 0.48,-0.08 1.93,-0.37 0.81,-0.15 1.11,-0.21 1.91,-0.35 0.19,-0.04 1.72,-0.32 1.46,-0.27 0.44,-0.08 1.89,-0.35 0.84,-0.16 1.05,-0.19 1.88,-0.34 0.21,-0.04 1.66,-0.3 1.46,-0.27 0.41,-0.07 1.85,-0.34 0.85,-0.15 1,-0.18 1.85,-0.33 0.23,-0.04 1.6,-0.28 1.48,-0.26 0.36,-0.06 1.82,-0.32 0.86,-0.16 0.96,-0.16 1.82,-0.31 0.25,-0.05 1.55,-0.25 1.47,-0.26 0.33,-0.05 1.79,-0.31 0.88,-0.14 0.92,-0.15 1.78,-0.29 0.28,-0.05 1.49,-0.24 1.48,-0.24 0.3,-0.05 1.76,-0.28 0.89,-0.15 0.87,-0.13 1.75,-0.28 0.31,-0.05 1.44,-0.21 1.48,-0.24 0.27,-0.04 1.73,-0.25 0.91,-0.14 0.82,-0.12 1.73,-0.26 0.34,-0.05 1.39,-0.2 1.48,-0.21 0.23,-0.03 1.72,-0.24 0.92,-0.13 0.79,-0.1 c -27.41,56.27 -53.82,113.94 -78.8,172.63 l -195.21,-44.69 c -12.88,-10.97 -32.21,-9.41 -43.17,3.48 -10.97,12.88 -9.41,32.2 3.47,43.17 l 3.96,1.02 3.61,0.93 -19.18,9.33 -0.36,-0.08 -0.36,-0.07 v 0 l -0.36,-0.07 -0.36,-0.07 h -0.01 l -0.35,-0.06 -0.36,-0.06 h -0.01 l -0.36,-0.05 -0.36,-0.05 -0.37,-0.04 -0.37,-0.04 v -0.01 l -0.37,-0.03 -0.36,-0.04 -0.74,-0.04 -0.73,-0.04 -0.74,-0.01 h -0.74 l -0.74,0.02 -0.74,0.04 -0.74,0.06 -0.74,0.07 -0.74,0.1 -0.73,0.11 -0.74,0.13 -0.73,0.14 -0.73,0.17 -0.73,0.19 -0.73,0.2 -0.72,0.22 -0.72,0.24 -0.72,0.26 -0.35,0.14 -0.36,0.14 h -0.01 l -0.35,0.15 -0.35,0.15 -0.7,0.31 -0.7,0.34 -0.69,0.36 -0.69,0.37 -0.68,0.4 -0.68,0.41 c -44.81,17.73 -184.89,39.11 -227.12,-0.14 4.39,-5.51 12.87,-11.34 17.7,-14.74 185.13,-64.16 50.4,-100.52 29.31,-108.36 29.37,-24.01 74.98,33.4 117.78,-32.23 -8.34,-15.61 -185.49,-179.57 37.83,-68.91 1.15,2.88 2.3,5.67 3.43,8.34 8.61,14.56 27.4,19.4 41.96,10.79 13.56,-8.02 18.68,-24.86 12.38,-38.89 0.21,-8.29 -2.96,-16.49 -9,-22.49 -25.33,-71.42 -63.82,-230.5 36.25,-238.82 51.28,34.28 -108.04,86.62 73.61,265.04 l 0.48,0.41 0.13,0.11 0.37,0.3 0.24,0.19 0.25,0.19 0.37,0.28 0.13,0.1 0.5,0.36 h 0.01 l 0.51,0.35 0.12,0.08 0.4,0.27 0.25,0.15 0.27,0.18 0.38,0.23 0.15,0.08 0.52,0.3 0.01,0.01 0.53,0.3 0.12,0.06 0.43,0.22 0.25,0.13 0.29,0.14 0.38,0.19 0.17,0.07 0.53,0.24 0.02,0.01 0.55,0.24 0.12,0.04 0.7,0.27 0.31,0.12 0.39,0.15 0.17,0.05 0.53,0.18 0.04,0.02 0.57,0.17 0.11,0.04 0.47,0.13 0.24,0.07 0.33,0.09 0.39,0.1 0.19,0.05 0.53,0.12 0.05,0.01 0.58,0.12 0.1,0.01 0.49,0.1 0.23,0.04 0.35,0.06 0.38,0.05 0.2,0.04 0.53,0.07 0.07,0.01 0.59,0.06 h 0.08 l 0.5,0.05 0.24,0.01 0.35,0.03 0.38,0.02 0.21,0.01 0.52,0.02 h 0.07 0.67 0.51 0.22 l 0.37,-0.01 0.37,-0.02 0.23,-0.01 0.5,-0.03 0.08,-0.01 0.59,-0.04 0.06,-0.01 0.53,-0.05 0.21,-0.02 0.37,-0.05 0.36,-0.05 0.23,-0.03 0.49,-0.08 0.09,-0.02 0.59,-0.1 0.04,-0.01 0.53,-0.11 0.2,-0.04 0.38,-0.09 0.33,-0.08 0.24,-0.05 0.48,-0.13 0.1,-0.02 0.57,-0.17 0.04,-0.01 0.7,-0.22 0.39,-0.12 0.31,-0.11 0.25,-0.08 0.45,-0.17 0.11,-0.04 0.55,-0.22 0.03,-0.01 0.53,-0.21 0.16,-0.08 0.68,-0.3 0.24,-0.11 0.43,-0.2 0.11,-0.06 0.54,-0.27 0.02,-0.01 0.51,-0.28 0.15,-0.08 0.37,-0.21 0.28,-0.16 z"
         id="path26"
         inkscape:connector-curvature="0"
         style="fill:#fcfc49;stroke:#000000;stroke-width:20;stroke-miterlimit:22.92560005" />
      <g
         id="g32">
        <path
           class="fil2"
           d="m 19556.46,4102.05 c 95.1,22.27 300.07,69.43 368.18,4.89 -28.46,-31.49 -74.9,-70.14 -141.01,-137.54 -136.99,6.86 -199.8,54.12 -227.17,132.65 z"
           id="path28"
           inkscape:connector-curvature="0"
           style="fill:#c28914" />
        <path
           class="fil2"
           d="m 20038.86,4161.15 c 96.17,22.5 329.56,78.75 386.01,-5.15 2.66,-5.18 6.58,-9.3 11.2,-12.15 -19.9,-42.52 -43.39,-75.86 -70.29,-91.26 -320.9,-18.53 -278.8,53.43 -326.92,108.56 z"
           id="path30"
           inkscape:connector-curvature="0"
           style="fill:#c28914" />
      </g>
      <path
         class="fil0"
         d="m 20091.26,3770.32 c 303.98,-52.29 165.1,-22.25 417.69,-84.96 16.84,1.59 29.22,16.52 27.63,33.36 -1.58,16.85 -16.51,29.22 -33.36,27.64 -236.05,64.16 -99.49,32.3 -411.96,85.22 -16.92,0 -30.64,-13.71 -30.64,-30.63 0,-16.92 13.72,-30.63 30.64,-30.63 z"
         id="path34"
         inkscape:connector-curvature="0"
         style="fill:#000000" />
      <path
         class="fil0"
         d="m 19569.43,3687.37 c 154.81,-58.09 309.09,-117.19 465.03,-172.11 16.8,-2.01 32.03,10 34.03,26.79 2.01,16.8 -10,32.04 -26.79,34.04 -149.47,56.67 -300.08,112.1 -449.73,168.26 -15.73,6.22 -33.54,-1.48 -39.76,-17.22 -6.22,-15.73 1.48,-33.53 17.22,-39.76 z"
         id="path36"
         inkscape:connector-curvature="0"
         style="fill:#000000" />
      <path
         class="fil3"
         d="m 24796.35,6135.38 c 22.51,-27.82 42.69,-53.39 60.87,-77 -475.42,26.71 -651.87,137.02 -635.91,620.12 v -0.01 c 82.62,372.31 537.61,342.12 709.55,522.69 9.39,14.08 5.57,33.11 -8.5,42.49 -14.08,9.38 -33.11,5.57 -42.49,-8.51 -136.01,-137.97 -634.45,-154.1 -715.43,-529.04 -5.33,0.64 -10.91,-0.11 -16.16,-2.46 -503.35,-187.73 -1149.54,-334.9 -1414.93,298.94 -160.17,382.57 -59.86,754.32 196.65,1036.13 l 1.76,0.16 c 14.73,2.34 25.32,14.81 25.82,29.17 48.51,49.98 102.03,96.93 159.98,140.32 14.5,8.72 19.2,27.53 10.48,42.04 -8.71,14.5 -27.53,19.2 -42.03,10.48 -67.17,-50.3 -128.75,-105 -183.97,-163.43 -721.48,-69.29 -1602.09,-57.52 -1736.51,861.85 -93.37,638.57 247.34,1231.68 745.77,1607.26 5.15,2 9.63,5.36 12.99,9.63 11.49,8.64 15.37,24.18 9.43,37.17 46.52,272.82 250.32,409.4 472.03,558.66 6.51,3.68 11.14,9.38 13.58,15.87 l 87.2,15.58 c 12.45,2.54 21.58,12.32 23.92,24.04 8.46,5.81 9.35,15.15 -0.04,12.11 139.89,45.23 560.36,343.58 794.18,431.74 1.78,-0.32 3.6,-0.49 5.47,-0.49 590,48.75 559.25,317.54 1197.4,531.05 252.77,84.57 1237.09,464.99 1505.01,263.99 4.62,-4.18 10.16,-6.7 15.89,-7.58 5.15,-9.68 15.33,-16.26 27.05,-16.26 165.03,-9.22 339.73,-17.16 510.37,-43.32 5.3,-3.43 11.71,-5.24 18.48,-4.83 l 4.45,1.2 c 261.86,-42.81 512.64,-130.82 702.27,-335.05 671.15,-722.76 -274.94,-1970.85 -801.69,-2513.28 -521.39,526.67 -1311.13,705.93 -2029.38,744.12 -16.91,0 -30.63,-13.71 -30.63,-30.63 0,-16.92 13.72,-30.63 30.63,-30.63 702.73,-37.38 1481.24,-212.65 1990.64,-730.85 -1.27,-8.9 1.36,-18.28 8,-25.34 6.77,-7.21 16.21,-10.41 25.34,-9.51 51.15,-54.85 99.4,-113.35 144.31,-175.78 553.02,-768.63 52.3,-1342.23 -568.31,-1810.35 -2.84,-1.86 -5.26,-4.12 -7.27,-6.66 -62.35,362.36 -461.85,597.09 -1294.89,628.56 -16.92,0 -30.64,-13.71 -30.64,-30.63 0,-16.92 13.72,-30.63 30.64,-30.63 1559.23,-58.84 1519.05,-826.98 608.98,-1825.91 -12.97,38.23 -28.14,80.54 -46.53,133.41 0,16.91 -13.72,30.63 -30.64,30.63 -16.91,0 -30.63,-13.72 -30.63,-30.63 68.47,-209.97 98.12,-280.45 131.33,-544.76 29.8,-237.23 -190.4,-323.46 -286.31,-178.95 -136.05,204.96 94.6,88.77 -279.76,551.4 -10.57,13.2 -29.85,15.34 -43.05,4.76 -13.21,-10.57 -15.34,-29.85 -4.77,-43.05 z"
         id="path38"
         style="fill:url(#id4)"
         inkscape:connector-curvature="0" />
      <path
         class="fil4"
         d="m 18415.43,12232.02 c 6.37,14.17 12.97,28.25 20.07,42.16 335.89,658.29 1164.56,262.7 1628.4,334.04 647.56,99.61 849.89,456.94 1599.31,388.7 715.83,-65.19 812.56,-186.58 1541.67,22.37 609.91,174.78 1113.5,-61.76 1794.77,-14.41 l 320.28,30.57 274.46,18.2 c 3.53,0 6.92,0.59 10.07,1.7 702.88,32.23 1802.64,248.4 2431.93,196.77 l -157.24,-125.94 c -156.58,100.5 -2060.65,-162.82 -2315.4,-172.07 -4.68,0 -9.11,-1.06 -13.09,-2.93 -664.62,-45.13 -789.51,-81.96 -1487.61,4.02 -861.87,106.16 -884.03,-153.71 -1714.77,-143.73 -115.76,15.31 -535.1,72.52 -679.06,85.62 -771.89,70.21 -961.64,-288.49 -1615.04,-389.18 -421.93,-65.03 -1225.15,196.69 -1638.75,-275.89 z"
         id="path40"
         inkscape:connector-curvature="0"
         style="fill:#cac9f0" />
      <path
         class="fil5"
         d="m 21873.23,11157.39 v 0 c -812.86,-182.37 -2149.8,-668.28 -2268.03,-1621.69 -7.14,-7.25 -11.54,-17.21 -11.54,-28.19 2.31,-32.77 8.89,-64.61 19.03,-95.55 -107.76,-62.69 -212.13,-131.12 -301.94,-200.4 -95.75,103.85 68.51,184.38 -306.56,317.17 -111.16,39.36 -198.78,215.88 -2.93,258.08 21.98,3.08 37.3,23.42 34.21,45.4 -1.58,11.23 -7.66,20.72 -16.16,26.91 59.75,327.85 -90.63,252.91 -131.86,383.13 -2.11,10.34 -9.19,18.39 -18.25,22.16 -296.35,450.9 -651.67,1182.5 -517.87,1774.66 349.12,607.72 1257.7,338.38 1712.57,408.34 647.55,99.6 849.89,456.95 1599.31,388.7 715.83,-65.18 812.56,-186.57 1541.67,22.37 609.91,174.79 1113.5,-61.76 1794.77,-14.41 l 320.28,30.57 274.46,18.2 c 3.53,0 6.92,0.6 10.07,1.7 702.88,32.23 1561.44,243.08 2190.72,191.45 l -147.7,-145.35 h 0.01 l -26.88,-21.53 v 0 c -344.52,-232.38 -614.38,-352.12 -1012.98,-462.04 -175.28,27.7 -355.34,36.42 -527.58,46.03 -1.61,3.01 -3.76,5.81 -6.44,8.24 -311.68,234.28 -1482.98,-199.7 -1789.63,-326.75 -455.84,-188.87 -1017.97,-498.28 -1444.53,-790.79 -195.57,-134.12 -753.42,-201.58 -966.22,-236.41 z"
         id="path42"
         style="fill:url(#linearGradient78)"
         inkscape:connector-curvature="0" />
      <g
         id="g50">
        <polygon
           class="fil6"
           points="18959.77,8295.58 18962.43,8295.15 18960.53,8295.4 "
           id="polygon44"
           style="fill:url(#id3)" />
        <path
           class="fil7"
           d="m 19750.28,4576.81 c -10.75,-4.84 -19.28,-14.35 -22.44,-26.65 -26.33,-65.36 -164.43,-95.15 -218.49,-74.52 -23.94,378.69 199.1,93.78 223.16,652.26 24.97,579.25 35.9,610.67 -219.65,1046.57 344.98,-111.03 354.5,-279.42 389.69,-883.54 36.06,-619.27 -195.56,-392.16 -167.48,-655.9 2.61,-24.44 7.82,-43.52 15.21,-58.22 z"
           id="path46"
           style="fill:url(#id2)"
           inkscape:connector-curvature="0" />
        <path
           class="fil8"
           d="m 19605.12,9535.61 c -7.09,-7.25 -11.46,-17.16 -11.46,-28.1 27.44,-388.92 643.84,-648.62 942.41,-783.67 546.8,-247.33 1044.73,-505.38 1050.51,-1230.06 6.52,-816.74 -721.07,-1033.68 -1385.49,-1087.58 33.89,29.88 78.14,62.13 134.35,103.15 16.84,14.47 18.76,39.85 4.29,56.69 -14.48,16.84 -39.86,18.76 -56.7,4.29 -95.65,-69.25 -159.98,-121.23 -199.89,-175.69 -12.27,-6.48 -20.78,-19.11 -21.42,-33.8 -53.98,-100.6 -34.29,-222.03 20.23,-477.09 67.03,-313.62 56.34,-414.52 96.2,-688.38 52.84,-363.03 432.35,-421.53 369.59,-530.73 -72.51,1.42 -87.07,12.29 -150.42,61.77 -293.63,229.35 -565.65,-243.38 -582.49,-81.22 -23.32,224.49 206.85,-17.6 167.99,650.21 -40.12,689.8 -59.89,854.6 -534.36,980.23 -7.41,4.85 -16.24,7.13 -25.05,6.48 -108.09,27.43 -238.58,53.38 -396.79,83.02 1.78,8.72 3.15,17.62 3.86,26.77 -0.53,22.2 -18.97,39.76 -41.17,39.22 -22.2,-0.54 -39.75,-18.98 -39.21,-41.18 -17.87,-225.68 -694.88,-272.57 -967.06,-116.37 -366.22,210.18 -519.7,314.24 -615.61,826.94 -199.47,1066.28 702.07,1285.63 1582.06,1115.33 51.11,-9.89 177.09,-44.5 278.45,-101.88 l 0.84,-0.48 c 106.43,-60.48 185.31,-146.14 120.82,-254.77 -1.69,-2.86 -7.23,-11.29 -12.19,-12.9 -22.11,1.73 -41.44,-14.78 -43.19,-36.9 -1.75,-22.14 14.77,-41.49 36.91,-43.24 41.48,1.66 65.07,14.74 87.66,52.08 80.52,133.09 19.47,239.27 -85.97,318.22 81.68,21.43 167.88,20.22 251.83,2.41 6.62,-6.39 15.45,-10.56 25.35,-11.2 4.9,-0.32 9.65,0.25 14.11,1.59 242.14,-66.75 456.16,-266.91 474.22,-453.24 l 2.38,-59.45 c -139.46,-55.16 -222.3,-207.72 -104.52,-452.24 11.23,-19.15 35.87,-25.56 55.02,-14.33 19.15,11.23 25.57,35.87 14.33,55.02 -206.95,428.58 342.5,448.27 452.09,168.26 5.53,-21.5 27.45,-34.45 48.95,-28.92 21.5,5.54 34.45,27.45 28.92,48.95 -72.28,184.4 -259.34,263.63 -415.21,243.47 l -1.88,46.56 c -21.73,222.22 -252.16,442.32 -520.69,518.93 74.92,551.84 94.03,612.65 -334.22,997.2 -79.55,71.44 -26.07,130.88 -85.34,201.55 z"
           id="path48"
           style="fill:url(#id1)"
           inkscape:connector-curvature="0" />
      </g>
      <path
         class="fil0"
         d="m 21075.99,6964.77 c 212.14,-69.11 65.39,173.71 58.78,186.24 6.09,5.72 8.59,6.19 16.86,10.25 15.55,6.64 22.78,24.65 16.14,40.21 -6.64,15.55 -24.64,22.78 -40.2,16.14 -135.18,-67.13 27.43,-164.22 6.2,-200.99 -10.41,-3.27 -42.76,6.66 -52.87,9.23 -16.87,1.35 -31.64,-11.22 -32.99,-28.09 -1.35,-16.86 11.21,-31.63 28.08,-32.99 z"
         id="path52"
         inkscape:connector-curvature="0"
         style="fill:#000000" />
      <g
         id="g62">
        <path
           class="fil9"
           d="m 19956.13,4158.17 c -102.32,78.04 -303.79,28.09 -413.4,2.89 -8.96,63.2 -5.47,140.05 -1.93,227.64 95.46,-6.04 224.08,39.07 264.9,141.43 0.56,2.17 0.92,4.37 1.11,6.54 8.79,-0.92 18.22,-0.55 28.15,0.85 -6.25,-5.89 -10.67,-13.82 -12.11,-22.97 -3.46,-21.93 11.51,-42.52 33.44,-45.97 78.11,-191.06 114.06,-258.38 99.84,-310.41 z"
           id="path54"
           inkscape:connector-curvature="0"
           style="fill:#ffffcc" />
        <path
           class="fil9"
           d="m 20460.85,4206.46 c -95.48,94.7 -308.24,43.12 -424.2,16.38 0.94,21.67 -0.95,42.87 -6.23,63.09 -20.89,80.01 -111.28,192.49 -160.11,260 136.97,43.83 340.09,217.74 433.15,152.82 37.17,-25.95 123.35,-81.25 198.29,-103.92 -7.17,-14.9 -4.56,-33.19 7.46,-45.48 13.94,-39.71 -3.69,-210.56 -48.36,-342.89 z"
           id="path56"
           inkscape:connector-curvature="0"
           style="fill:#ffffcc" />
        <path
           class="fil0"
           d="m 19809.39,4217.71 c 29.19,0 54.08,29.43 63.76,70.76 -14.15,9.83 -31.79,18.44 -50.9,18.44 6.52,0 29.78,6.32 54.96,10.43 0.16,3.09 0.25,6.23 0.25,9.4 0,60.21 -30.47,109.02 -68.07,109.02 -37.61,0 -68.09,-48.81 -68.09,-109.02 0,-60.22 30.48,-109.03 68.09,-109.03 z"
           id="path58"
           inkscape:connector-curvature="0"
           style="fill:#000000" />
        <path
           class="fil0"
           d="m 20116.37,4326.74 c 29.19,0 54.08,29.43 63.76,70.76 -14.16,9.83 -31.79,18.44 -50.9,18.44 6.52,0 29.78,6.32 54.96,10.43 0.16,3.09 0.25,6.23 0.25,9.39 0,60.22 -30.47,109.03 -68.07,109.03 -37.61,0 -68.09,-48.81 -68.09,-109.03 0,-60.21 30.48,-109.02 68.09,-109.02 z"
           id="path60"
           inkscape:connector-curvature="0"
           style="fill:#000000" />
      </g>
      <g
         id="g68">
        <path
           class="fil0"
           d="m 20124.66,11063.43 c -112.67,64.3 -384.68,474.86 -529.51,439.78 -133.09,-32.24 -211.79,-50.95 -256.21,-61.21 -20.15,-4.66 -135.76,-31.51 -271.25,-66.31 -12.88,-10.97 -14.44,-30.3 -3.48,-43.18 10.97,-12.88 30.3,-14.44 43.18,-3.47 1.75,0.39 507.65,116.21 507.65,116.21 80.19,17.46 389,-398.76 495.45,-440.29 -37.98,-33.94 -76.17,-72.85 -110.76,-113.02 4.13,5.22 6.6,11.82 6.6,19 0,16.92 -13.71,30.64 -30.63,30.64 -141.62,9.4 -141.45,116.01 -217.83,171.3 -10,26.65 -33.32,46.07 -51.69,81.02 -5.39,13.02 -18.74,20.35 -32.09,18.68 4.03,9.36 3.31,20.53 -2.91,29.54 -9.61,13.93 -28.68,17.43 -42.61,7.82 -136.74,-78.6 -215.86,-55.87 -369.48,-27.05 l -12.96,7.27 c -8.78,4.93 -18.94,5.06 -27.48,1.26 l -0.83,0.01 c -39.35,-0.8 -66.28,-0.1 -100.72,-19.35 -13.57,-10.1 -16.39,-29.29 -6.29,-42.87 10.1,-13.57 29.29,-16.39 42.86,-6.29 17.38,6.8 46.04,6.87 64.15,7.24 2.93,0 5.76,0.41 8.45,1.18 119.96,-60.97 298.54,-44.56 422.42,20.15 -2.12,-6.66 -2,-14.08 0.89,-21.04 63.93,-120.84 188.68,-280.96 326.12,-290.14 8.81,0 16.75,3.71 22.34,9.67 -72.37,-84.4 -128.53,-174.01 -132.8,-234.28 1.1,-16.88 15.67,-29.67 32.56,-28.58 16.88,1.09 29.68,15.67 28.58,32.56 9.32,109.22 312.09,398.94 370.76,398.3 16.84,-1.58 31.78,10.79 33.36,27.63 1.59,16.85 -10.78,31.78 -27.62,33.37 -35.89,0.41 -92.54,-31.92 -153.33,-80.84 -2.04,12.72 -11.97,23.01 -24.89,25.29 z m -1141.09,27.02 c -157.72,-55.27 -176.98,43.54 -120.11,118.99 -92.89,15.73 -95.03,68.55 -47.91,103.03 -183.46,82.31 6.27,229.83 250.07,130.3 14.32,-9.02 18.61,-27.93 9.59,-42.25 -9.02,-14.32 -27.93,-18.62 -42.25,-9.6 -44.82,17.73 -184.89,39.12 -227.12,-0.13 4.39,-5.52 12.86,-11.34 17.7,-14.74 185.12,-64.16 50.4,-100.52 29.31,-108.36 29.36,-24.02 74.98,33.39 117.77,-32.23 -8.33,-15.62 -185.49,-179.57 37.83,-68.92 1.15,2.89 2.31,5.68 3.44,8.35 8.61,14.56 27.4,19.39 41.96,10.78 13.56,-8.01 18.68,-24.85 12.37,-38.88 0.21,-8.29 -2.96,-16.49 -8.99,-22.5 -25.33,-71.41 -63.82,-230.5 36.24,-238.81 51.29,34.28 -108.04,86.62 73.62,265.04 12.77,11.1 32.12,9.73 43.22,-3.05 11.09,-12.77 9.72,-32.12 -3.05,-43.21 -133.87,-131.61 24.78,-319.8 -145.26,-276.12 -111.23,28.59 -104.86,160.31 -78.43,262.31 z"
           id="path64"
           inkscape:connector-curvature="0"
           style="fill:#000000" />
        <path
           class="fil1 str0"
           d="m 19202.89,11153.7 4.25,16.25 c -17.39,-0.41 -39.21,-1.45 -53.47,-7.03 -13.57,-10.1 -32.76,-7.28 -42.86,6.29 -10.1,13.58 -7.28,32.77 6.29,42.87 34.44,19.25 61.37,18.55 100.72,19.35 l 0.83,-0.01 c 8.54,3.8 18.7,3.67 27.48,-1.26 l 12.96,-7.27 c 153.62,-28.82 232.74,-51.55 369.48,27.05 13.93,9.61 33,6.11 42.61,-7.82 6.22,-9.01 6.94,-20.18 2.91,-29.54 13.35,1.67 26.7,-5.66 32.09,-18.68 18.37,-34.95 41.69,-54.37 51.69,-81.02 76.38,-55.29 76.21,-161.9 217.83,-171.3 16.92,0 30.63,-13.72 30.63,-30.64 0,-6.8 -2.21,-13.08 -5.97,-18.16 l 0.07,-0.02 c 34.41,39.87 72.34,78.49 110.06,112.2 -106.45,41.53 -415.26,457.75 -495.45,440.29 0,0 -505.9,-115.82 -507.65,-116.21 -12.88,-10.97 -32.21,-9.41 -43.18,3.47 -10.96,12.88 -9.4,32.21 3.48,43.18 l 7.57,1.94 -19.18,9.34 c -7.65,-1.74 -15.96,-0.56 -23.12,3.95 -44.82,17.73 -184.89,39.12 -227.12,-0.13 4.39,-5.52 12.86,-11.34 17.7,-14.74 185.12,-64.16 50.4,-100.52 29.31,-108.36 29.36,-24.02 74.98,33.39 117.77,-32.23 -8.33,-15.62 -185.49,-179.57 37.83,-68.92 1.15,2.89 2.31,5.68 3.44,8.35 8.61,14.56 27.4,19.39 41.96,10.78 13.56,-8.01 18.68,-24.85 12.37,-38.88 0.21,-8.29 -2.96,-16.49 -8.99,-22.5 -25.33,-71.41 -63.82,-230.5 36.24,-238.81 51.29,34.28 -108.04,86.62 73.62,265.04 10.25,8.91 24.75,9.78 35.8,3.18 z"
           id="path66"
           inkscape:connector-curvature="0"
           style="fill:#fcfc49;stroke:#000000;stroke-width:20;stroke-miterlimit:22.92560005" />
      </g>
    </g>
  </g>
</svg>
