<?xml version="1.0" encoding="UTF-8"?>
<svg viewBox="0 0 248.3246 299.18173" xmlns="http://www.w3.org/2000/svg" xmlns:xlink="http://www.w3.org/1999/xlink">
 <defs>
  <linearGradient id="a">
   <stop stop-color="#595fbc" offset="0"/>
   <stop stop-color="#2b306f" offset="1"/>
  </linearGradient>
  <linearGradient id="b">
   <stop stop-color="#a00" offset="0"/>
   <stop stop-color="#840000" offset=".5"/>
   <stop stop-color="#a00" offset="1"/>
  </linearGradient>
  <linearGradient id="c">
   <stop stop-color="#f9f9f9" offset="0"/>
   <stop stop-color="#cdf3fb" offset=".6846"/>
   <stop stop-color="#afd1d8" offset=".8423"/>
   <stop stop-color="#ceebf1" offset="1"/>
  </linearGradient>
  <linearGradient id="m" x1="113.09" x2="116.31" y1="82.052" y2="97.094" gradientUnits="userSpaceOnUse">
   <stop stop-color="#ffbc78" offset="0"/>
   <stop stop-color="#f60" offset="1"/>
  </linearGradient>
  <linearGradient id="j" x1="112.32" x2="134.99" y1="152.66" y2="131.16" gradientUnits="userSpaceOnUse">
   <stop stop-color="#c83737" offset="0"/>
   <stop stop-color="#e77c7c" offset=".5"/>
   <stop stop-color="#c83737" offset="1"/>
  </linearGradient>
  <linearGradient id="l" x1="160.84" x2="169.74" y1="134.53" y2="158.03" gradientUnits="userSpaceOnUse" xlink:href="#b"/>
  <linearGradient id="k" x1="91.414" x2="117.65" y1="143.09" y2="157.59" gradientUnits="userSpaceOnUse" xlink:href="#b"/>
  <radialGradient id="g" cx="158.65" cy="20.12" r="49.5" gradientTransform="matrix(.17301 .92097 -1.2316 .23136 176.84 -113.6)" gradientUnits="userSpaceOnUse">
   <stop stop-color="#f95252" offset="0"/>
   <stop stop-color="#d40000" offset="1"/>
  </radialGradient>
  <radialGradient id="f" cx="145.95" cy="41.509" r="50.872" gradientTransform="matrix(1.4974 .96491 -.6999 1.0862 -43.93 -141.68)" gradientUnits="userSpaceOnUse">
   <stop stop-color="#fff" offset="0"/>
   <stop stop-color="#eaeaea" offset=".6544"/>
   <stop stop-color="#fff" offset="1"/>
  </radialGradient>
  <radialGradient id="i" cx="364.98" cy="428.78" r="53.95" gradientTransform="matrix(1.1704 .01311 -.01032 .92124 -285.76 -312.71)" gradientUnits="userSpaceOnUse" xlink:href="#c"/>
  <radialGradient id="h" cx="350.77" cy="543.32" r="95.45" gradientTransform="matrix(1.3685 -.05082 .04748 1.2784 -382.1 -489.65)" gradientUnits="userSpaceOnUse" xlink:href="#c"/>
  <radialGradient id="e" cx="38.476" cy="165.37" r="23.887" gradientTransform="matrix(.65125 .88807 -.63122 .46289 123.07 57.257)" gradientUnits="userSpaceOnUse" xlink:href="#a"/>
  <radialGradient id="d" cx="220.25" cy="186.39" r="17.904" gradientTransform="matrix(1 0 0 1.3218 0 -61.019)" gradientUnits="userSpaceOnUse" xlink:href="#a"/>
 </defs>
 <g transform="translate(-7.6754 -6.6804)">
  <path d="m65.449 172.25c-1.7678-14.496-11.92-19.529-15.026-16.617-3.6072 3.3823 6.364 9.8995-0.88389 11.314-9.5459-6.7175-30.833-18.106-31.82-0.35355-1.0945 19.695 18.385 27.931 30.052 25.102 12.413-3.0091 16.971-1.4142 16.971-1.4142z" fill="url(#e)"/>
  <path d="m246 214.86c0 52.191-42.809 81-95 81s-94-28.809-94-81 42.309-94.5 94.5-94.5 94.5 42.309 94.5 94.5z" fill="url(#h)"/>
  <path d="m202 91.862c0 29.271-15.98 47.056-53 47.5s-53-18.229-53-47.5 23.729-50 53-50 53 20.729 53 50z" fill="url(#i)"/>
  <path d="m128.04 75.967c-9.253-1.1398-15.512 0.15422-23.338 2.505-3.8442 1.1547-9.904 4.1518-13.752 5.2955-4.5748 1.3599-7.7982 1.1877-12.248 2.913-1.2814 0.49682-2.4327 1.1552-5.9078 3.8209 2.2685 2.0268 6.4081 1.6197 9.3702 2.4882 6.3088 1.8497 7.9858 2.5158 14.415 3.8904 6.1026 1.3048 11.344 2.5274 17.543 3.2452 5.4459 0.63055 10.141 3.9461 14.742 0.96405 8.5225-4.0885 8.5732-21.505-0.82441-25.122z" fill="url(#m)"/>
  <path transform="matrix(1 0 -.2297 1 -136.17 -340.76)" d="m352.67 407.48a3.9775 5.6568 0 1 1 -7.955 0 3.9775 5.6568 0 1 1 7.955 0z" fill="#333"/>
  <path transform="matrix(1 0 -.13218 1 -176.9 -343.41)" d="m374.94 410.66a4.8614 6.1872 0 1 1 -9.7227 0 4.8614 6.1872 0 1 1 9.7227 0z" fill="#333"/>
  <path transform="matrix(.69648 -.2616 .18877 .96518 -211.44 -239.19)" d="m335.17 446.37a1.591 2.1213 0 1 1 -3.182 0 1.591 2.1213 0 1 1 3.182 0z" fill="#999"/>
  <path transform="translate(-230.12 -336.87)" d="m391.03 445.13a2.6516 2.6516 0 1 1 -5.3033 0 2.6516 2.6516 0 1 1 5.3033 0z" fill="#999"/>
  <path transform="matrix(.99527 0 0 1.1002 -228.47 -385.33)" d="m385.37 453.44a3.5355 3.182 0 1 1 -7.0711 0 3.5355 3.182 0 1 1 7.0711 0z" fill="#999"/>
  <path transform="matrix(.99507 -.09915 .09915 .99507 -272.13 -309.57)" d="m338.35 454.68a1.7678 2.6516 0 1 1 -3.5355 0 1.7678 2.6516 0 1 1 3.5355 0z" fill="#999"/>
  <path transform="matrix(.8788 -.12597 .16553 1.0553 -267.6 -325.29)" d="m350.37 458.22a3.3588 3.3588 0 1 1 -6.7175 0 3.3588 3.3588 0 1 1 6.7175 0z" fill="#999"/>
  <path transform="matrix(.31858 -.95153 .98563 .30756 -424 316.77)" d="m363.1 458.75a4.2426 3.8891 0 1 1 -8.4853 0 4.2426 3.8891 0 1 1 8.4853 0z" fill="#999"/>
  <path transform="matrix(.80375 0 0 .88067 -136.8 -300.89)" d="m375.12 458.57a2.2981 2.2981 0 1 1 -4.5962 0 2.2981 2.2981 0 1 1 4.5962 0z" fill="#999"/>
  <path transform="matrix(-.20417 -.97593 .93713 -.17223 -236.01 540.64)" d="m357.09 458.66a4.8614 4.331 0 1 1 -9.7227 0 4.8614 4.331 0 1 1 9.7227 0z" fill="#999"/>
  <path transform="matrix(.11093 -.99383 .99383 .11093 -362.81 417.16)" d="m357.09 458.66a4.8614 4.331 0 1 1 -9.7227 0 4.8614 4.331 0 1 1 9.7227 0z" fill="#999"/>
  <path transform="translate(-233.5,-336.5)" d="m360.5 502.11a9.5 8.75 0 1 1 -19 0 9.5 8.75 0 1 1 19 0z" fill="#008000"/>
  <path transform="matrix(.88007 -.46972 .4109 1.0061 -410.48 -145.42)" d="m360.5 502.11a9.5 8.75 0 1 1 -19 0 9.5 8.75 0 1 1 19 0z" fill="#008000"/>
  <path transform="matrix(.82062 0 0 1.0052 -184.29 -278.88)" d="m360.5 502.11a9.5 8.75 0 1 1 -19 0 9.5 8.75 0 1 1 19 0z" fill="#008000"/>
  <path transform="matrix(.72348 0 0 .78549 -141.69 -143.04)" d="m360.5 502.11a9.5 8.75 0 1 1 -19 0 9.5 8.75 0 1 1 19 0z" fill="#008000"/>
  <path d="m136.5 189.56c11.208 4.7324 19.477 6.1257 23.281-0.59375 2.4297-14.457-1.6459-22.986-8.7812-34.75-3.628-0.93953-7.558-13.988-6.9403-16.966s4.6727-0.75984 5.3628-3.0136c-0.22712-3.9713-5.8979-8.5004-10.691-8.575s-7.0262 1.5629-10.263 3.367c-4.1138 2.2928-10.91 4.5226-12.961-0.65165-3.1166-7.863-10.529-10.49-14.039-10.63-0.23404-9e-3 -0.44175 0.0226-0.65625 0.0625-2.0851 0.38832-4.2623 3.627-3.8357 6.5531 0.27558 1.8901-0.40553 4.1084-0.66434 5.5719-0.36497 2.0639 1.085 4.6947-3.436 5.0782-3.058-0.43937-5.3351 5.6782-5.0328 8.8593 5.4269 2.8732 15.515-2.6491 23.062-1.875 10.035 1.0293 17.315 8.2752 18.011 3.7304 1.5081-9.8535 11.715-12.17 8.7986-5.0759-5.1881 12.621 2.7201 39.804-1.2156 48.908z" fill="url(#j)"/>
  <path d="m130.15 128.24c-6.8528-2.5229-11.102-2.8384-15.91-1.9445-6.0116 1.1175-8.4688 8.8573-10.43 16.263-3.2719 12.357-26.963 10.333-28.815 22.981-0.85048 5.8094 5.0984 13.455 10.96 13.789 12.646 0.72029 20.104-16.162 26.87-26.87 3.0065-4.7583 3.5454-12.583 7.0711-16.971 2.7857-3.4667 10.253-7.2478 10.253-7.2478z" fill="url(#k)"/>
  <path d="m136.51 133.72c4.2661-2.0602 9.4526 2.0873 14.142 1.4142 15.229-2.1857 32.044-6.3048 42.78-17.324 1.4054-1.4424 1.635-5.9884 3.6213-5.6568 10.606 1.7702 2.3867 9.3864 2.8713 14.246 0.65929 6.6111 12.919 8.6884 11.728 14.796-2.1441 10.991-14.216 6.4704-27.773 6.5434-5.2802 0.0284-18.092 12.543-24.034 12.184-7.6402-0.46237-9.7876-7.5559-14.851-7.9939-8.299-0.71792-11.659 2.701-17.324-6.8943-1.9945-3.378 5.3063-9.6078 8.8388-11.314z" fill="url(#l)"/>
  <path d="m133.5 25.862c26.5-13 66.5-13.5 76 7s13.5 33.5 14 46c0.52759 13.19 9 25 9 25l-6 3.5s-3.5 2-8.5-13c-6.4904-19.471-10.5-16-10.5-16" fill="url(#g)"/>
  <path transform="matrix(.76162 0 0 .76162 -119.34 -241.74)" d="m471 473.86-7.4752-1.0434-4.2137 6.0183-5.4343-5.238-6.9464 2.3922-1.3176-7.4318-7.0259-2.1477 3.3024-6.7869-4.4216-5.8672 6.6609-3.5497-0.12853-7.3457 7.4752 1.0434 4.2137-6.0183 5.4343 5.238 6.9464-2.3922 1.3176 7.4318 7.0259 2.1477-3.3024 6.787 4.4216 5.8672-6.6609 3.5497z" fill="#f9f9f9"/>
  <path d="m139.5 26.362c-8-5-16-6-16 0.5s-6 6.5-7 9.5-17 13.5 6.5 15 13.5-7 29 10 15 34 31 34.5 12.617 14.331 21.5 11c8-3 6.5-3.5 6-11.5s1.5-6.5 1.5-9.5-3.7604-3.0207-14-23.5c-7-14-19.525-18.917-34.5-28-5.2185-3.1651-24-8-24-8z" fill="url(#f)"/>
  <path d="m228.14 190.99s-5.5407-1.2322-7.4853 5.3085 0.5358 16.66 10.253 16.971 9.4513-20.703 4.9335-25.749-10.621-0.66371-13.065-6.7782-1.3069-14.154-5.1694-14.724-4.5993 2.0288-6.4497 9.1926c-1.0869 4.2081-6.1969 5.5833-7.2494 13.397s-4.6874 22.187 18.338 20.065" fill="url(#d)"/>
 </g>
</svg>
