<?xml version="1.0" encoding="UTF-8" standalone="no"?>
<svg
   xmlns:dc="http://purl.org/dc/elements/1.1/"
   xmlns:cc="http://creativecommons.org/ns#"
   xmlns:rdf="http://www.w3.org/1999/02/22-rdf-syntax-ns#"
   xmlns:svg="http://www.w3.org/2000/svg"
   xmlns="http://www.w3.org/2000/svg"
   xmlns:xlink="http://www.w3.org/1999/xlink"
   xmlns:sodipodi="http://sodipodi.sourceforge.net/DTD/sodipodi-0.dtd"
   xmlns:inkscape="http://www.inkscape.org/namespaces/inkscape"
   viewBox="0 0 70 70"
   version="1.1"
   id="svg89"
   sodipodi:docname="star4.svg"
   width="70"
   height="70"
   inkscape:version="0.92.3 (2405546, 2018-03-11)">
  <metadata
     id="metadata93">
    <rdf:RDF>
      <cc:Work
         rdf:about="">
        <dc:format>image/svg+xml</dc:format>
        <dc:type
           rdf:resource="http://purl.org/dc/dcmitype/StillImage" />
        <dc:title></dc:title>
      </cc:Work>
    </rdf:RDF>
  </metadata>
  <sodipodi:namedview
     pagecolor="#ffffff"
     bordercolor="#666666"
     borderopacity="1"
     objecttolerance="10"
     gridtolerance="10"
     guidetolerance="10"
     inkscape:pageopacity="0"
     inkscape:pageshadow="2"
     inkscape:window-width="2560"
     inkscape:window-height="1412"
     id="namedview91"
     showgrid="false"
     inkscape:zoom="7.375"
     inkscape:cx="79.690601"
     inkscape:cy="35.552963"
     inkscape:window-x="3840"
     inkscape:window-y="0"
     inkscape:window-maximized="1"
     inkscape:current-layer="svg89" />
  <defs
     id="defs25">
    <linearGradient
       id="b">
      <stop
         stop-color="#ffdb00"
         offset="0"
         id="stop2" />
      <stop
         stop-color="#f60"
         offset="1"
         id="stop4" />
    </linearGradient>
    <linearGradient
       id="g"
       x1="161.64"
       x2="201.35001"
       y1="622.85999"
       y2="680.84003"
       gradientUnits="userSpaceOnUse">
      <stop
         stop-color="#404040"
         offset="0"
         id="stop7" />
      <stop
         stop-color="#636363"
         offset="1"
         id="stop9" />
    </linearGradient>
    <linearGradient
       id="f"
       x1="144.3"
       x2="175.5"
       y1="528.78003"
       y2="548.53003"
       gradientTransform="matrix(1.1271,0.10242,-0.10242,1.1271,38.06,-80.489)"
       gradientUnits="userSpaceOnUse">
      <stop
         stop-color="#b9a165"
         offset="0"
         id="stop12" />
      <stop
         stop-color="#978045"
         offset="1"
         id="stop14" />
    </linearGradient>
    <linearGradient
       id="a"
       x1="93.75"
       x2="108.25"
       y1="539.85999"
       y2="551.35999"
       gradientUnits="userSpaceOnUse"
       xlink:href="#b" />
    <linearGradient
       id="e"
       x1="184.2"
       x2="219.92999"
       y1="513.13"
       y2="533.78998"
       gradientUnits="userSpaceOnUse"
       xlink:href="#b" />
    <linearGradient
       id="d"
       x1="181.45"
       x2="213.00999"
       y1="510.44"
       y2="528.69"
       gradientTransform="matrix(-1.1305,0.05325,0.05325,1.1305,310.15,-70.032)"
       gradientUnits="userSpaceOnUse"
       xlink:href="#b" />
    <radialGradient
       id="c"
       cx="168.57001"
       cy="276.25"
       r="108.01"
       gradientTransform="matrix(0.99972,0.02347,-0.0251,1.0693,6.5379,-21.654)"
       gradientUnits="userSpaceOnUse">
      <stop
         stop-color="#fff000"
         offset="0"
         id="stop20" />
      <stop
         stop-color="#fc0"
         offset="1"
         id="stop22" />
    </radialGradient>
    <linearGradient
       inkscape:collect="always"
       xlink:href="#b"
       id="linearGradient900"
       gradientUnits="userSpaceOnUse"
       x1="93.75"
       y1="539.85999"
       x2="108.25"
       y2="551.35999" />
    <linearGradient
       inkscape:collect="always"
       xlink:href="#b"
       id="linearGradient902"
       gradientUnits="userSpaceOnUse"
       x1="93.75"
       y1="539.85999"
       x2="108.25"
       y2="551.35999" />
  </defs>
  <g
     transform="matrix(0.39204924,0,0,0.31942793,-29.062843,-153.64071)"
     id="g87">
    <path
       d="m 231.89,677.26 c -5.6939,6.3969 -44.281,-14.842 -52.744,-13.532 -9.3705,1.4501 -45.191,33.246 -53.876,29.439 -7.8433,-3.4385 1.3556,-45.86 -2.5052,-53.504 -4.2748,-8.4638 -47.956,-33.881 -47.018,-43.317 0.84651,-8.522 44.366,-16.933 50.443,-22.967 6.7286,-6.681 18.138,-54.042 27.401,-56.066 8.3665,-1.8284 29.212,41.204 36.829,45.119 8.4333,4.3347 56.069,-2.7229 60.856,5.4616 4.3243,7.392 -26.112,40.384 -27.482,48.838 -1.5166,9.36 14.4,53.446 8.0956,60.529 z"
       id="path27"
       inkscape:connector-curvature="0" />
    <path
       transform="matrix(0.77605,-0.09973,0.09973,0.77605,17.776,418.55)"
       d="m 228,358.36 c -8.2599,7.1814 -52.436,-26.027 -63.378,-25.746 -12.115,0.31171 -59.507,35.421 -69.895,29.18 -9.3823,-5.6365 8.5499,-57.913 4.901,-68.232 -4.0401,-11.425 -52.076,-45.649 -49.351,-57.457 2.4613,-10.665 57.72,-9.7646 66.407,-16.424 9.6178,-7.373 27.322,-63.634 39.394,-64.691 10.904,-0.9548 27.123,51.878 36.141,58.081 9.9842,6.8686 68.962,6.3209 73.698,17.476 4.2774,10.075 -40.957,41.827 -44.071,52.32 -3.4472,11.618 15.299,67.54 6.1534,75.491 z"
       id="path29"
       inkscape:connector-curvature="0"
       style="fill:url(#c)" />
    <path
       d="m 135.64,644.85 c 0.77835,-1.1675 10.702,-20.237 12.064,-20.432 1.362,-0.195 25.296,-6.0322 26.464,-5.4484 1.168,0.5838 16.929,2.9188 16.929,2.9188 l 15.567,8.5618 11.286,14.399 1.1675,11.87 -33.274,4.8647 h -37.361 c -2.335,0 -12.843,-16.734 -12.843,-16.734 z"
       id="path31"
       inkscape:connector-curvature="0" />
    <path
       d="m 177.09,617.99 -24.32,8.1868 -1.4447,1.2383 c 0.099,1.2604 0.66222,8.6859 1.2727,16.614 3.337,-1.1156 6.549,-2.0738 9.6316,-2.8895 l -1.3071,-15.17 1.5823,-2.1327 c 0,0 0.68239,8.4555 1.3415,16.89 3.4848,-0.87748 6.8211,-1.5697 10.01,-2.0983 l -1.2384,-14.619 1.5479,-2.1327 c 0,0 0.63407,8.304 1.2728,16.477 3.1996,-0.48354 6.2487,-0.79069 9.1844,-0.96316 l -1.3071,-15.307 1.3071,-1.7887 -7.5333,-2.3047 z m 7.8084,2.4079 c 0.0311,0.39139 0.69891,8.6999 1.3416,16.924 3.4616,-0.14324 6.7553,-0.0848 9.9068,0.13759 l -1.1696,-13.45 0.34399,-0.44718 -10.423,-3.1647 z m 11.833,3.6118 c 0.11532,1.4706 0.5931,7.4845 1.0664,13.587 4.0649,0.36544 7.9142,0.96742 11.592,1.7887 l 3.0958,2.5455 c -4.4832,-1.4169 -9.3312,-2.3426 -14.585,-2.7519 0.008,0.11107 0.0258,0.12949 0.0343,0.24079 0.50727,6.5126 0.90471,11.894 1.204,16.03 0.033,0.47247 0.11245,1.6171 0.13759,1.9951 3.9524,-1.3767 21.189,-9.0812 21.189,-9.0812 l -12.831,-21.017 -10.904,-3.3366 z m -47.023,4.8158 -12.521,10.767 4.8846,20.226 10.423,1.2727 -1.2728,-14.723 c -3.5282,1.1612 -7.1546,2.4706 -10.904,3.9214 l -0.79116,-1.3415 c 4.0068,-1.6597 7.8504,-3.1366 11.523,-4.403 l -1.3415,-15.72 z m 40.418,10.113 c -1.2217,0.0222 -2.4883,0.0637 -3.7494,0.1376 0.71378,9.1679 1.4103,18.425 1.4103,19.194 0,1.5567 -1.3759,0 -1.3759,0 l -1.6167,-19.057 c -2.9548,0.22072 -6.0109,0.55967 -9.1844,1.0664 0.73892,9.4921 1.4791,19.164 1.4791,19.951 0,1.5567 -1.3759,0 -1.3759,0 l -1.6855,-19.676 c -3.2174,0.55592 -6.5631,1.2767 -10.01,2.1327 0.72318,9.2896 1.4103,18.699 1.4103,19.47 0,0.25446 -0.0418,0.4075 -0.10316,0.51598 l 2.2359,0.27519 c 0,0 26.903,-4.7332 30.339,-5.1598 l -1.6167,-18.713 c -2.0052,-0.11352 -4.0358,-0.17614 -6.1573,-0.1376 z m -27.725,4.1622 c -3.1286,0.81203 -6.3448,1.7224 -9.666,2.7863 0.45978,5.9952 0.96714,12.377 1.1696,15.376 l 10.629,1.3072 c -0.25566,-0.19664 -0.48158,-0.41279 -0.48158,-0.41279 l -1.6511,-19.057 z"
       id="path33"
       inkscape:connector-curvature="0"
       style="fill:#ffffff" />
    <path
       d="m 180.74,605.02 -0.13759,0.13759 c -3.7258,9.0636 -13.464,10.721 -21.809,14.379 -4.232,-0.26223 -8.1459,0.90649 -13.209,-3.0959 -0.77391,4.8022 -4.2389,7.2498 -8.5652,8.9436 4.6443,3.7573 1.3263,4.8604 1.1695,7.0173 -2.757,4.3333 -7.1406,3.8004 -11.317,3.887 -1.7394,6.3714 -6.2142,3.6247 -9.322,5.435 2.2722,5.5855 2.0179,10.269 -1.9607,13.622 0.20525,6.8863 -4.5863,9.3311 -8.1524,12.865 4.1382,4.4155 9.3852,8.0574 7.3887,16.597 5.0361,4.7283 1.8975,9.2114 -0.78422,13.743 4.9904,-0.39836 9.7716,-2.8881 15.17,0.79116 8.8289,-3.9734 17.658,-6.2403 26.487,-6.6389 1.0664,-6.723 5.0447,-12.152 10.113,-17.096 4.468,-1.4792 8.4079,3.3781 12.452,6.9829 0.17771,-6.165 1.6271,-11.644 7.3957,-14.791 16.821,6.6176 21.658,3.4342 29.583,18.678 5.3816,-1.7718 11.115,-5.1256 17.096,-1.2526 4.8156,-0.45137 9.821,-2.4296 15.961,-0.67377 -1.0574,-7.3957 -1.7322,-14.791 1.1696,-22.187 -4.9576,-7.9642 -14.883,-17.276 -9.8143,-24.483 -4.6555,-1.7254 -4.1556,-8.8547 -1.8468,-12.874 -5.7101,-1.3736 -11.42,-1.3916 -17.13,-7.3957 -9.2073,1.5379 -18.415,3.6357 -27.622,0 -3.0427,-4.409 -5.0361,-9.028 -12.315,-12.59 z m -1.3917,18.78 c 5.3606,5.0837 10.721,5.102 16.082,6.4265 -0.0638,7.1657 8.7382,11.798 14.342,17.345 -4.8101,0.89876 -8.6824,4.4232 -15.548,-0.43363 -5.3445,5.0089 -11.273,5.9323 -17.509,4.699 -3.8315,4.5036 -8.1984,4.7237 -12.452,5.8477 -6.2582,-0.9722 -7.7874,-5.2548 -9.7278,-9.2494 -4.1531,3.1262 -8.3061,1.2696 -12.459,-0.86374 8.3875,-6.2055 8.1168,-8.9477 7.7741,-11.661 5.2962,-2.213 7.7293,-4.4259 8.5652,-6.6389 14.363,2.4847 16.861,-1.9523 20.933,-5.4712 z"
       id="path35"
       inkscape:connector-curvature="0" />
    <path
       d="m 181.24,607.03 -0.1376,0.13759 c -3.7258,9.0637 -12.626,10.219 -20.971,13.876 -4.232,-0.26224 -7.9783,1.4092 -13.041,-2.5931 -0.77391,4.8022 -3.0658,5.574 -7.3922,7.2678 4.6443,3.7573 0.48841,5.6983 0.33167,7.8552 -2.757,4.3333 -7.9785,4.8058 -12.155,4.8925 -1.7394,6.3714 -4.8736,3.4571 -7.9814,5.2674 2.2722,5.5855 1.5152,8.7605 -2.4634,12.114 0.20525,6.8863 -3.2457,8.8283 -6.8118,12.362 4.1382,4.4155 8.8825,6.7169 6.886,15.256 5.0361,4.7283 2.5678,7.7032 -0.11394,12.234 4.9904,-0.39835 6.9228,-2.3854 12.321,1.2939 8.8289,-3.9734 15.647,-5.4024 24.476,-5.801 1.0664,-6.723 5.2123,-13.325 10.281,-18.269 4.468,-1.4792 8.7431,3.2105 12.787,6.8153 0.17772,-6.165 2.2974,-11.979 8.066,-15.126 17.937,7.1044 22.931,2.1996 31.258,18.343 5.3816,-1.7718 9.9416,-3.9526 15.923,-0.0795 4.8156,-0.45137 7.475,-2.5972 13.615,-0.84135 -1.0574,-7.3957 -2.57,-12.445 0.33168,-19.841 -4.9576,-7.9642 -13.542,-15.768 -10.149,-23.645 -4.823,-3.4012 -3.9881,-8.6871 -1.6792,-12.706 -5.7102,-1.3736 -8.9067,-0.0509 -14.617,-6.0551 -9.2073,1.5379 -19.085,3.8033 -28.292,0.16757 -3.0427,-4.409 -3.1928,-9.3631 -10.471,-12.925 z m -1.3917,14.088 c 5.3606,5.0837 12.229,6.275 17.59,7.5995 -0.0638,7.1657 8.9058,14.647 14.51,20.193 -4.8101,0.89875 -10.191,5.5963 -17.056,0.7394 -5.3445,5.0089 -10.937,4.9268 -17.174,3.6936 -3.8315,4.5036 -8.8686,4.8913 -13.123,6.0153 -6.2582,-0.97221 -9.128,-4.5845 -11.068,-8.5791 -4.1531,3.1262 -9.144,-0.74133 -13.297,-2.8746 8.3875,-6.2055 6.9438,-11.461 6.601,-14.175 5.2962,-2.213 8.7348,-4.4259 9.5707,-6.6389 14.363,2.4847 19.375,-2.455 23.446,-5.974 z"
       id="path37"
       inkscape:connector-curvature="0"
       style="fill:url(#g)" />
    <path
       d="m 227.56,581.47 c -4.2736,0.92099 -6.8906,3.3331 -9.0938,6.5 -0.44421,-1.4116 -0.85053,-2.8542 -1.5,-4.0312 l -1.4062,0.875 c -0.051,0.77261 0.68616,2.7748 1.7812,4.8438 -1.0296,1.6828 -2.0427,3.5357 -3.0938,5.4375 -1.2359,-1.6354 -2.3189,-3.6965 -3.125,-6.4062 l -1.2188,0.71875 c 0.70819,3.853 1.9452,5.9687 3.4062,7.375 -0.83919,1.4588 -1.7404,2.941 -2.7812,4.4062 -1.1704,-2.0192 -2.2747,-4.257 -3.625,-5.7812 l -0.71875,1.4375 c 1.3389,1.4774 2.418,3.5324 3.5625,5.4375 -0.92433,1.212 -1.9624,2.4075 -3.125,3.5625 -0.88297,-0.90871 -1.7426,-1.9019 -2.5625,-3 l -0.53125,1.4062 c 0.85097,0.79373 1.658,1.4742 2.4688,2.1875 -1.1563,1.0885 -2.4278,2.1345 -3.875,3.125 l 1.9375,0.71875 c 1.2093,-0.85719 2.286,-1.747 3.25,-2.625 0.79616,0.7412 1.6374,1.5634 2.5938,2.625 l 1.4062,-0.71875 c -1.1808,-0.67279 -2.3224,-1.505 -3.4062,-2.4688 1.0995,-1.056 2.0349,-2.1143 2.875,-3.1875 1.4746,2.096 3.2191,3.6218 5.8438,3.1875 l 0.15625,-1.25 c -2.2696,0.44747 -3.8417,-0.96167 -5.2188,-2.9688 1.2099,-1.6779 2.1557,-3.3561 3.0625,-5.0312 1.8475,1.2897 3.8763,2.0222 5.5312,3.9375 l 0.71875,-1.25 c -1.9312,-1.1238 -3.83,-2.317 -5.5,-4.0938 0.9215,-1.7465 1.8589,-3.4756 2.9062,-5.1562 1.7821,2.9 4.0281,5.3469 5.4062,3.9688 l -0.1875,-1.9375 c -2.3916,-0.0422 -3.5515,-1.505 -4.3438,-3.375 2.0691,-2.9904 4.8157,-5.8126 9.3125,-8.3125 l -0.90625,-0.15625 z"
       id="path39"
       inkscape:connector-curvature="0" />
    <path
       d="m 154.53,524.25 c -6.5626,4.2122 -7.7255,13.308 -10.719,20.031 -4.4316,11.17 -5.9734,23.927 -12.906,33.875 -10.268,6.4237 -23.259,7.0136 -34.647,10.968 -4.9456,2.0171 -12.39,2.6194 -14.946,7.9069 0.95603,4.7488 5.7722,7.9409 9.0938,10.906 11.271,-7.9 26.073,-8.6611 38.96,-13.029 5.3298,-1.3088 11.411,-3.3542 12.759,-9.4394 6.6379,-15.259 8.6622,-32.706 18.062,-46.625 1.5468,-2.2915 4.7877,-3.3336 7.125,-1.625 -3.5134,-4.3499 -6.7659,-11.827 -12.781,-12.969 z"
       id="path41"
       inkscape:connector-curvature="0"
       style="fill:#fee800" />
    <g
       transform="translate(0,6)"
       id="g67">
      <path
         d="m 122.69,566.64 c 25.787,9.0103 49.877,8.7122 72.09,-1.8866 -1.0794,-25.008 -4.8531,-44.966 -36.048,-67.56 -32.246,22.234 -35.953,50.069 -36.042,69.447 z"
         id="path43"
         inkscape:connector-curvature="0" />
      <path
         d="m 126.86,564.47 c 25.787,9.0103 42.218,8.5844 64.431,-2.0143 -1.4786,-24.852 -2.5966,-37.696 -32.692,-60.721 -32.246,22.234 -31.649,43.357 -31.739,62.735 z"
         id="path45"
         inkscape:connector-curvature="0"
         style="fill:url(#f)" />
      <path
         transform="matrix(1.1271,0.10242,-0.10242,1.1271,75.203,-70.295)"
         d="m 110,548.86 c 0,3.3137 -2.8542,6 -6.375,6 -3.5208,0 -6.375,-2.6863 -6.375,-6 0,-3.3137 2.8542,-6 6.375,-6 3.5208,0 6.375,2.6863 6.375,6 z"
         id="path47"
         inkscape:connector-curvature="0" />
      <path
         transform="matrix(1.1271,0.10242,-0.10242,1.1271,121.29,-74.063)"
         d="m 110,548.86 c 0,3.3137 -2.8542,6 -6.375,6 -3.5208,0 -6.375,-2.6863 -6.375,-6 0,-3.3137 2.8542,-6 6.375,-6 3.5208,0 6.375,2.6863 6.375,6 z"
         id="path49"
         inkscape:connector-curvature="0" />
      <path
         transform="matrix(1.1271,0.10242,-0.10242,1.1271,98.718,-66.454)"
         d="m 110,548.86 c 0,3.3137 -2.8542,6 -6.375,6 -3.5208,0 -6.375,-2.6863 -6.375,-6 0,-3.3137 2.8542,-6 6.375,-6 3.5208,0 6.375,2.6863 6.375,6 z"
         id="path51"
         inkscape:connector-curvature="0" />
      <path
         transform="matrix(0.90609,0.08234,-0.08108,0.89228,86.341,61.228)"
         d="m 110,548.86 c 0,3.3137 -2.8542,6 -6.375,6 -3.5208,0 -6.375,-2.6863 -6.375,-6 0,-3.3137 2.8542,-6 6.375,-6 3.5208,0 6.375,2.6863 6.375,6 z"
         id="path53"
         inkscape:connector-curvature="0"
         style="fill:url(#linearGradient900)" />
      <path
         transform="matrix(0.90609,0.08234,-0.08108,0.89228,131.63,56.821)"
         d="m 110,548.86 c 0,3.3137 -2.8542,6 -6.375,6 -3.5208,0 -6.375,-2.6863 -6.375,-6 0,-3.3137 2.8542,-6 6.375,-6 3.5208,0 6.375,2.6863 6.375,6 z"
         id="path55"
         inkscape:connector-curvature="0"
         style="fill:url(#linearGradient902)" />
      <path
         transform="matrix(0.90609,0.08234,-0.08108,0.89228,109.63,64.48)"
         d="m 110,548.86 c 0,3.3137 -2.8542,6 -6.375,6 -3.5208,0 -6.375,-2.6863 -6.375,-6 0,-3.3137 2.8542,-6 6.375,-6 3.5208,0 6.375,2.6863 6.375,6 z"
         id="path57"
         inkscape:connector-curvature="0"
         style="fill:url(#a)" />
      <path
         d="m 185.96,526.34 c 0,0 17.259,4.244 26.03,-6.5075 7.1986,-8.8241 -2.8293,-42.723 -2.8293,-42.723 0,0 19.311,25.929 20.088,42.44 0.90512,19.23 -37.684,31.218 -38.196,29.425 0,0 -11.034,-10.469 -5.0928,-22.635 z"
         id="path59"
         inkscape:connector-curvature="0" />
      <path
         d="m 186.76,528.14 c 0,0 18.859,3.8439 27.63,-6.9076 7.1986,-8.8241 -2.0291,-36.921 -2.0291,-36.921 0,0 14.924,20.791 15.687,34.638 1.0374,18.832 -35.174,29.802 -35.595,28.025 0,0 -11.635,-6.6673 -5.693,-18.833 z"
         id="path61"
         inkscape:connector-curvature="0"
         style="fill:url(#e)" />
      <path
         d="m 131.07,529.95 c 0,0 -17.04,5.0514 -26.307,-5.2754 -7.6058,-8.4756 0.81585,-42.809 0.81585,-42.809 0,0 -18.07,26.809 -18.069,43.338 7.3e-4,19.251 39.111,29.41 39.538,27.595 0,0 10.53,-10.976 4.0221,-22.849 z"
         id="path63"
         inkscape:connector-curvature="0" />
      <path
         d="m 130.36,531.79 c 0,0 -18.658,4.7271 -27.925,-5.5998 -7.6058,-8.4756 0.28949,-36.976 0.28949,-36.976 0,0 -13.929,21.47 -14.04,35.337 -0.15008,18.86 36.537,28.114 36.875,26.319 0,0 11.308,-7.2074 4.8005,-19.081 z"
         id="path65"
         inkscape:connector-curvature="0"
         style="fill:url(#d)" />
    </g>
    <path
       transform="matrix(0.88259,0.47014,-0.47014,0.88259,291.42,-0.77041)"
       d="m 158.5,595.24 c 0,5.0396 -5.8203,9.125 -13,9.125 -7.1797,0 -13,-4.0854 -13,-9.125 0,-5.0396 5.8203,-9.125 13,-9.125 7.1797,0 13,4.0854 13,9.125 z"
       id="path69"
       inkscape:connector-curvature="0" />
    <path
       transform="matrix(0.76378,0.40685,-0.41861,0.78587,278.15,66.349)"
       d="m 158.5,595.24 c 0,5.0396 -5.8203,9.125 -13,9.125 -7.1797,0 -13,-4.0854 -13,-9.125 0,-5.0396 5.8203,-9.125 13,-9.125 7.1797,0 13,4.0854 13,9.125 z"
       id="path71"
       inkscape:connector-curvature="0"
       style="fill:#ffffff" />
    <path
       transform="matrix(0.49222,0.26219,-0.36709,0.68915,286.98,144.53)"
       d="m 158.5,595.24 c 0,5.0396 -5.8203,9.125 -13,9.125 -7.1797,0 -13,-4.0854 -13,-9.125 0,-5.0396 5.8203,-9.125 13,-9.125 7.1797,0 13,4.0854 13,9.125 z"
       id="path73"
       inkscape:connector-curvature="0" />
    <path
       transform="matrix(0.18998,0.1012,-0.14168,0.26599,192.44,414.76)"
       d="m 158.5,595.24 c 0,5.0396 -5.8203,9.125 -13,9.125 -7.1797,0 -13,-4.0854 -13,-9.125 0,-5.0396 5.8203,-9.125 13,-9.125 7.1797,0 13,4.0854 13,9.125 z"
       id="path75"
       inkscape:connector-curvature="0"
       style="fill:#ffffff" />
    <path
       transform="matrix(-0.88259,0.47014,0.47014,0.88259,34.325,-5.0204)"
       d="m 158.5,595.24 c 0,5.0396 -5.8203,9.125 -13,9.125 -7.1797,0 -13,-4.0854 -13,-9.125 0,-5.0396 5.8203,-9.125 13,-9.125 7.1797,0 13,4.0854 13,9.125 z"
       id="path77"
       inkscape:connector-curvature="0" />
    <path
       transform="matrix(-0.76378,0.40685,0.41861,0.78587,47.603,62.099)"
       d="m 158.5,595.24 c 0,5.0396 -5.8203,9.125 -13,9.125 -7.1797,0 -13,-4.0854 -13,-9.125 0,-5.0396 5.8203,-9.125 13,-9.125 7.1797,0 13,4.0854 13,9.125 z"
       id="path79"
       inkscape:connector-curvature="0"
       style="fill:#ffffff" />
    <path
       transform="matrix(-0.49222,0.26219,0.36709,0.68915,39.522,141.28)"
       d="m 158.5,595.24 c 0,5.0396 -5.8203,9.125 -13,9.125 -7.1797,0 -13,-4.0854 -13,-9.125 0,-5.0396 5.8203,-9.125 13,-9.125 7.1797,0 13,4.0854 13,9.125 z"
       id="path81"
       inkscape:connector-curvature="0" />
    <path
       transform="matrix(-0.18998,0.1012,0.14168,0.26599,123.31,414.01)"
       d="m 158.5,595.24 c 0,5.0396 -5.8203,9.125 -13,9.125 -7.1797,0 -13,-4.0854 -13,-9.125 0,-5.0396 5.8203,-9.125 13,-9.125 7.1797,0 13,4.0854 13,9.125 z"
       id="path83"
       inkscape:connector-curvature="0"
       style="fill:#ffffff" />
    <path
       d="m 99.599,599.34 -1.0285,0.55099 c -0.0073,0.93558 0.05238,1.7947 0.14693,2.608 -1.1751,0.43587 -2.4288,0.83815 -3.9671,1.1387 l 0.36733,1.102 c 1.7291,0.64496 2.9479,0.42288 4.0038,-0.1102 0.53558,2.1597 1.4176,3.8935 2.4978,5.3997 l -1.2856,0.25713 0.40406,1.102 c 0.70497,0.0575 1.3614,0.062 1.9836,0.0367 1.3444,1.6032 2.8182,3.0476 4.1508,4.665 l 1.0285,-0.51425 c -0.99054,-1.5665 -2.0478,-2.9594 -3.0855,-4.4079 2.104,-0.47813 3.6154,-1.553 4.665,-3.0855 l -0.44078,-1.102 c -1.5303,1.364 -3.3659,2.104 -5.3262,2.608 -1.118,-1.6934 -2.1417,-3.5831 -2.9753,-5.9874 0.78189,-0.59237 1.5312,-1.2094 2.4611,-1.5428 l -0.36732,-1.1387 c -0.92113,0.31887 -1.757,0.68825 -2.608,1.0285 -0.22609,-0.81429 -0.44744,-1.671 -0.62446,-2.608 z"
       id="path85"
       inkscape:connector-curvature="0" />
  </g>
</svg>
