<?xml version="1.0" encoding="UTF-8" standalone="no"?>
<svg
   xmlns:dc="http://purl.org/dc/elements/1.1/"
   xmlns:cc="http://creativecommons.org/ns#"
   xmlns:rdf="http://www.w3.org/1999/02/22-rdf-syntax-ns#"
   xmlns:svg="http://www.w3.org/2000/svg"
   xmlns="http://www.w3.org/2000/svg"
   xmlns:xlink="http://www.w3.org/1999/xlink"
   xmlns:sodipodi="http://sodipodi.sourceforge.net/DTD/sodipodi-0.dtd"
   xmlns:inkscape="http://www.inkscape.org/namespaces/inkscape"
   viewBox="0 0 70 70"
   version="1.1"
   id="svg65"
   sodipodi:docname="star2.svg"
   width="70"
   height="70"
   inkscape:version="0.92.3 (2405546, 2018-03-11)">
  <metadata
     id="metadata69">
    <rdf:RDF>
      <cc:Work
         rdf:about="">
        <dc:format>image/svg+xml</dc:format>
        <dc:type
           rdf:resource="http://purl.org/dc/dcmitype/StillImage" />
        <dc:title></dc:title>
      </cc:Work>
    </rdf:RDF>
  </metadata>
  <sodipodi:namedview
     pagecolor="#ffffff"
     bordercolor="#666666"
     borderopacity="1"
     objecttolerance="10"
     gridtolerance="10"
     guidetolerance="10"
     inkscape:pageopacity="0"
     inkscape:pageshadow="2"
     inkscape:window-width="2560"
     inkscape:window-height="1412"
     id="namedview67"
     showgrid="false"
     inkscape:zoom="10.429825"
     inkscape:cx="61.949485"
     inkscape:cy="26.484584"
     inkscape:window-x="3840"
     inkscape:window-y="0"
     inkscape:window-maximized="1"
     inkscape:current-layer="g63" />
  <defs
     id="defs19">
    <linearGradient
       id="a">
      <stop
         stop-color="#404040"
         offset="0"
         id="stop2" />
      <stop
         stop-color="#636363"
         offset="1"
         id="stop4" />
    </linearGradient>
    <linearGradient
       id="d"
       x1="635.53998"
       x2="655.91998"
       gradientUnits="userSpaceOnUse"
       gradientTransform="matrix(1,0,0,1.0572307,0,-26.217956)">
      <stop
         stop-color="#ffdb00"
         offset="0"
         id="stop7" />
      <stop
         stop-color="#f60"
         offset="1"
         id="stop9" />
    </linearGradient>
    <linearGradient
       id="e"
       x1="569.92999"
       x2="577.34998"
       y1="328.64001"
       y2="385.56"
       gradientUnits="userSpaceOnUse"
       xlink:href="#a"
       gradientTransform="matrix(1,0,0,1.0572307,0,-26.217956)" />
    <linearGradient
       id="c"
       x1="571.75"
       x2="587.25"
       y1="259.35999"
       y2="303.60999"
       gradientUnits="userSpaceOnUse"
       xlink:href="#a"
       gradientTransform="matrix(1,0,0,1.0572307,1.2423029,-13.610178)" />
    <radialGradient
       id="b"
       cx="168.57001"
       cy="276.25"
       r="108.01"
       gradientTransform="matrix(0.6353,0.48286898,-0.48853,0.71843055,615.24,79.203803)"
       gradientUnits="userSpaceOnUse">
      <stop
         stop-color="#fff000"
         offset="0"
         id="stop14" />
      <stop
         stop-color="#fc0"
         offset="1"
         id="stop16" />
    </radialGradient>
  </defs>
  <g
     transform="matrix(0.38589174,0,0,0.33767853,-191.43936,-84.93193)"
     id="g63">
    <path
       d="m 589.912,450.02382 c -8.68034,1.11591 -23.62143,-48.32263 -30.96352,-53.34363 -8.11581,-5.54964 -57.05215,-2.56556 -61.12653,-11.83213 -3.6862,-8.3831 33.76865,-39.80943 36.01654,-48.7439 2.48422,-9.87498 -15.2848,-58.80251 -8.20854,-65.76313 6.40194,-6.29671 45.49155,21.70007 54.22256,21.19924 9.65125,-0.5536 51.48705,-33.19969 59.9353,-28.23574 7.64299,4.49136 -7.12586,53.14346 -3.97663,61.76817 3.48023,9.53297 42.89783,40.07168 41.04212,50.10015 -1.67837,9.07265 -47.51353,5.35946 -54.29893,11.19051 -7.50035,6.44554 -23.0477,62.42617 -32.64264,63.65926 z"
       id="path21"
       inkscape:connector-curvature="0"
       style="stroke-width:0.80450976" />
    <path
       d="m 590.42,442.09295 c -8.6804,1.11591 -20.621,-44.62253 -27.964,-49.64332 -8.1158,-5.54962 -55.552,-0.97998 -59.627,-10.24626 -3.6862,-8.3832 33.769,-34.52387 36.017,-43.45746 2.4844,-9.87528 -16.285,-56.1601 -9.2084,-63.11985 6.4021,-6.29697 41.492,23.28551 50.223,22.78544 9.6512,-0.55359 45.487,-33.72883 53.935,-28.76408 7.643,4.49143 -8.1257,48.91489 -4.977,57.53978 3.4804,9.53316 44.398,35.31468 42.542,45.34251 -1.6785,9.07284 -46.514,6.94527 -53.299,12.77664 -7.5002,6.4454 -18.048,55.5543 -27.643,56.78703 z"
       id="path23"
       inkscape:connector-curvature="0"
       style="fill:url(#b);stroke-width:1.0282172" />
    <path
       d="m 627,326.74909 c 0,10.51003 -8.0589,19.03015 -18,19.03015 -9.9411,0 -18,-8.52012 -18,-19.03015 0,-10.51004 8.0589,-19.03016 18,-19.03016 9.9411,0 18,8.52012 18,19.03016 z"
       id="path25"
       inkscape:connector-curvature="0"
       style="stroke-width:1.0282172" />
    <path
       d="m 627,326.74909 c 0,8.90431 -6.9396,16.12272 -15.49998,16.12272 -8.56038,0 -15.49998,-7.21841 -15.49998,-16.12272 0,-8.90432 6.9396,-16.12273 15.49998,-16.12273 8.56038,0 15.49998,7.21841 15.49998,16.12273 z"
       id="path27"
       inkscape:connector-curvature="0"
       style="fill:#ffffff;stroke-width:0.87823814" />
    <path
       d="m 618,327.49354 c 0,5.13825 -4.02945,9.30365 -9,9.30365 -4.97055,0 -9,-4.1654 -9,-9.30365 0,-5.13825 4.02945,-9.30365 9,-9.30365 4.97055,0 9,4.1654 9,9.30365 z"
       id="path29"
       inkscape:connector-curvature="0"
       style="stroke-width:0.5083648" />
    <path
       d="m 608.49455,322.20266 c 0,3.38655 -2.68628,6.1319 -5.99994,6.1319 -3.31367,0 -5.99994,-2.74535 -5.99994,-6.1319 0,-3.38654 2.68627,-6.13189 5.99994,-6.13189 3.31366,0 5.99994,2.74535 5.99994,6.13189 z"
       id="path31"
       inkscape:connector-curvature="0"
       style="fill:#ffffff;stroke-width:0.33697551" />
    <path
       d="m 630.97,270.2401 c -14.544,4.11157 -26.191,15.93881 -39.326,23.6714 -5.2436,3.53453 -11.994,7.98325 -17.986,3.75105 -14.035,-6.36653 -26.055,-18.18436 -41.094,-21.83815 -5.0976,-0.16056 -3.3522,7.76779 -3.125,11.06815 2.1041,17.23286 9.8959,33.61359 10.562,51.04415 -2.521,8.68367 -11.137,13.52198 -16.844,19.87805 -6.7241,7.3357 -16.302,13.13821 -19.562,23.17133 0.56097,2.83803 4.6831,4.10935 6.6562,3.9976 9.086,-15.18078 25.544,-23.69466 35.188,-38.39016 1.2394,-10.70341 -3.8337,-21.25563 -5.857,-31.69366 -1.8893,-10.09836 -6.5756,-20.74604 -3.893,-31.07942 3.2693,-5.65671 10.739,-0.80342 14.875,0.92508 12.522,5.94333 23.554,16.23484 36.688,20.08738 11.234,-3.074 20.062,-12.20678 30.026,-18.18542 5.4581,-4.11612 12.432,-7.39173 17.63,-10.69072 0.0352,-2.57414 -0.56349,-6.61213 -3.9375,-5.7156 z"
       id="path33"
       inkscape:connector-curvature="0"
       style="fill:#fee800;stroke-width:1.0282172" />
    <path
       d="m 643.64,284.77703 c -19.639,5.34123 -39.27,12.4658 -59.771,22.36677 -0.009,-0.35266 -2.1554,-1.63226 -2.1526,-1.99172 l -42.426,8.83063 c 0.46962,1.49926 0.64813,3.73657 0.97948,5.20781 -3.6382,1.00853 -7.1364,2.51484 -11.365,5.39663 l 1.7696,5.98647 c 4.2757,-3.085 7.5172,-3.19347 11.293,-2.57795 2.0922,8.19882 7.8311,15.52754 27.143,19.81144 18.138,-11.32294 18.723,-20.66569 17.079,-30.30446 17.611,-11.2225 32.807,-22.76535 57.441,-26.56292 z"
       id="path35"
       inkscape:connector-curvature="0"
       style="stroke-width:1.0282172" />
    <path
       d="m 642.41,286.45802 c -19.639,5.34124 -39.623,12.46581 -60.125,22.36678 -0.009,-0.35266 -0.0341,-0.69779 -0.0312,-1.05723 l -41.719,7.89624 c 0.46962,1.49926 0.8249,2.989 1.1562,4.46025 -3.6382,1.00853 -7.4899,2.70175 -11.719,5.58344 l 1.0625,3.36992 c 4.2757,-3.08499 8.2244,-3.75412 12,-3.1387 2.0922,8.19882 6.0633,15.34042 25.375,19.62431 18.138,-11.32294 16.424,-19.17076 14.781,-28.80953 17.611,-11.22251 34.928,-22.76535 59.562,-26.56292 l -0.3438,-3.7333 z"
       id="path37"
       inkscape:connector-curvature="0"
       style="fill:url(#e);stroke-width:1.0282172" />
    <path
       d="m 608.79,378.34194 c -5.786,8.62722 -17.772,6.04366 -24.473,2.42371 -9.8219,-5.47519 -19.659,4.21126 -19.659,4.21126 l 0.63045,0.69683 c 0,0 8.0066,-5.91097 17.251,-0.75742 7.6405,3.76501 22.788,3.25437 27.109,-6.18057 z"
       id="path39"
       inkscape:connector-curvature="0"
       style="stroke-width:1.0282172" />
    <path
       d="m 596,416.6137 c 0,0 -12.75,-2.11447 -15.25,3.43599 -2.5,5.55047 10.75,15.06554 11.5,22.46616 C 593,449.91646 590,458.11 590,458.11 c 0,0 5.9555,-1.15217 11,-9.25077 6.75,-10.83661 9.75,-24.3163 -5,-32.24553 z"
       id="path41"
       inkscape:connector-curvature="0"
       style="stroke-width:1.0282172" />
    <path
       d="m 584.37,364.71424 c 0,0 -0.69403,-7.48287 12.881,-1.71113 7.9916,3.39794 17.353,-1.92522 17.353,-1.92522 -10.293,10.13959 -23.586,8.20285 -30.234,3.63624 z"
       id="path43"
       inkscape:connector-curvature="0"
       style="stroke-width:1.0282172" />
    <path
       d="m 583.27,364.96798 c 0,0 -0.25925,-7.51385 -12.981,0.12637 -7.4897,4.49788 -17.441,0.54696 -17.441,0.54696 11.484,8.59233 24.412,4.79264 30.422,-0.67333 z"
       id="path45"
       inkscape:connector-curvature="0"
       style="stroke-width:1.0282172" />
    <path
       d="m 591,419.25677 c 0,0 -5.25,-2.64307 -7.25,1.58585 -2,4.22892 8.125,12.15815 9.625,16.38707 C 594.5,433.00077 580.75,419.52108 591,419.25677 Z"
       id="path47"
       inkscape:connector-curvature="0"
       style="fill:#ffffff;stroke-width:1.0282172" />
    <path
       d="m 570.5,312.21216 -28.25,4.36108 c 1.2167,9.31716 4.0807,16.35642 9.625,19.69092 -11.558,-21.3476 11.745,-16.53826 18.625,-24.052 z"
       id="path49"
       inkscape:connector-curvature="0"
       style="fill:#ffffff;stroke-width:1.0282172" />
    <path
       d="m 641,375.91031 c 0,0 2,-3.7003 7,-0.52861 5,3.17169 10.602,9.45925 6.5,15.59415 -6.5883,9.85297 -20.118,-2.24217 -18.875,-8.06138 l 5.625,-0.39647 c 0,0 2,5.28616 5,2.90739 3,-2.37877 -3.25,-5.55046 -3.25,-5.55046 0,0 -3.25,-0.79292 -2,-3.96462 z"
       id="path51"
       inkscape:connector-curvature="0"
       style="stroke-width:1.0282172" />
    <path
       d="m 642.75,376.31206 c 0,0 0.43757,-3.13797 5.125,0.52862 4.5028,3.52216 7.7156,7.74939 5.875,12.2903 -4.4956,11.09141 -17.618,-0.25984 -16.375,-6.07907 l 2.5,0.13215 c 0,0 4.291,8.68663 7.75,4.09677 4.04,-5.36079 -3.5,-8.72215 -3.5,-8.72215 0,0 -2.625,0.92507 -1.375,-2.24662 z"
       id="path53"
       inkscape:connector-curvature="0"
       style="fill:url(#d);stroke-width:1.0282172" />
    <path
       d="m 542.8823,289.21016 c 16.486,17.36185 69.657,14.86255 75.66,-1.49513 3.1973,-8.7119 -1.0607,-13.08217 -8.8388,-11.96151 -7.7781,1.12066 -9.663,-26.3039 -34.648,-21.67957 -14.779,2.73558 -11.04,20.46164 -25.456,20.93211 -10.642,0.34722 -12.374,11.96151 -6.7175,14.20389 z"
       id="path55"
       inkscape:connector-curvature="0"
       style="stroke-width:1.0282172" />
    <path
       d="m 546.6323,287.81687 c 17.518,12.26811 54.601,7.87288 65.16,2.20517 8.621,-4.62707 2.9393,-11.76063 -4.8388,-10.63997 -7.7781,1.12067 -6.663,-26.83251 -31.648,-22.20818 -14.779,2.73558 -8.0405,19.40441 -22.456,19.87488 -10.642,0.34722 -11.874,8.52519 -6.2175,10.76789 z"
       id="path57"
       inkscape:connector-curvature="0"
       style="fill:url(#c);stroke-width:1.0282172" />
    <path
       d="m 571.47768,267.29895 c -1.7526,0.22232 -2.08,2.69647 -0.87704,3.87972 -4.156,-0.39666 -2.31,6.32763 0.66932,3.58697 0.58413,-2.96542 2.6354,-1.39607 4.9631,-0.36107 1.8013,1.74062 10.959,1.52992 9.3576,4.72043 -0.70895,3.27847 4.6777,2.93212 3.5774,-0.19521 -0.62407,-1.12997 2.7629,-2.08232 1.3617,-4.02615 -1.2449,-2.19586 -4.2563,-0.22814 -3.5774,2.04966 -4.1711,-1.69125 -10.807,-3.56424 -14.967,-5.28658 2.2552,-1.00698 2.1241,-4.57379 -0.50776,-4.36774 z"
       id="path59"
       inkscape:connector-curvature="0"
       style="fill:#ffffff;stroke-width:1.0282172" />
    <path
       d="m 585.58876,266.74686 c -2.274,0.0926 -2.2417,3.60325 -0.18464,4.19699 -3.8057,2.57087 -10.126,4.94678 -13.928,7.52389 1.0946,-2.96257 -3.3323,-4.58119 -3.7851,-1.5129 -0.70254,2.71116 3.9168,1.68121 2.1003,3.90414 -0.63631,3.08405 4.4891,2.90242 3.6236,-0.1464 -2.041,-2.12482 0.79349,-2.90348 2.7064,-4.25705 2.428,-0.51125 8.6256,-6.33778 10.091,-2.94957 2.2405,2.49803 4.9304,-2.5475 1.7772,-3.24527 -0.98226,-0.34013 0.14632,-3.4378 -2.031,-3.51371 -0.11904,-0.0356 -0.25025,-0.0356 -0.36928,0 z"
       id="path61"
       inkscape:connector-curvature="0"
       style="fill:#ffffff;stroke-width:1.0282172" />
  </g>
</svg>
