<?xml version="1.0" encoding="UTF-8"?>
<svg viewBox="0 0 256 256" xmlns="http://www.w3.org/2000/svg" xmlns:xlink="http://www.w3.org/1999/xlink">
 <defs>
  <linearGradient id="a">
   <stop stop-color="#404040" offset="0"/>
   <stop stop-color="#636363" offset="1"/>
  </linearGradient>
  <linearGradient id="d" x1="635.54" x2="655.92" gradientUnits="userSpaceOnUse">
   <stop stop-color="#ffdb00" offset="0"/>
   <stop stop-color="#f60" offset="1"/>
  </linearGradient>
  <linearGradient id="e" x1="569.93" x2="577.35" y1="328.64" y2="385.56" gradientUnits="userSpaceOnUse" xlink:href="#a"/>
  <linearGradient id="c" x1="571.75" x2="587.25" y1="259.36" y2="303.61" gradientUnits="userSpaceOnUse" xlink:href="#a"/>
  <radialGradient id="b" cx="168.57" cy="276.25" r="108.01" gradientTransform="matrix(.6353 .45673 -.48853 .67954 615.24 99.715)" gradientUnits="userSpaceOnUse">
   <stop stop-color="#fff000" offset="0"/>
   <stop stop-color="#fc0" offset="1"/>
  </radialGradient>
 </defs>
 <g transform="translate(-453.1 -221.52)">
  <path transform="matrix(.64584 .44169 -.44169 .64584 601.45 110.81)" d="m232.88 366.64c-8.3958 7.3762-57.896-31.176-69.068-30.889-12.349 0.31773-61.938 38.602-72.56 32.295-9.6096-5.7055 8.4573-64.087 4.7316-74.624-4.1182-11.646-56.253-47.648-53.538-59.699 2.4567-10.902 62.8-11.168 71.669-17.967 9.8038-7.5156 31.66-70.275 43.96-71.417 11.128-1.0326 28.749 58.17 37.957 64.504 10.177 7.0015 72.601 9.0353 77.487 20.381 4.4208 10.264-46.467 39.628-49.646 50.342-3.5139 11.843 18.287 78.92 9.0063 87.073z"/>
  <path d="m590.42 442.96c-8.6804 1.0555-20.621-42.207-27.964-46.956-8.1158-5.2492-55.552-0.92693-59.627-9.6916-3.6862-7.9294 33.769-32.655 36.017-41.105 2.4844-9.3407-16.285-53.12-9.2084-59.703 6.4021-5.9561 41.492 22.025 50.223 21.552 9.6512-0.52362 45.487-31.903 53.935-27.207 7.643 4.2483-8.1257 46.267-4.977 54.425 3.4804 9.0171 44.398 33.403 42.542 42.888-1.6785 8.5817-46.514 6.5693-53.299 12.085-7.5002 6.0965-18.048 52.547-27.643 53.713z" fill="url(#b)"/>
  <path transform="translate(-9.5,-6)" d="m636.5 339.86c0 9.9411-8.0589 18-18 18s-18-8.0589-18-18 8.0589-18 18-18 18 8.0589 18 18z"/>
  <path transform="matrix(.86111 0 0 .84722 76.403 45.673)" d="m636.5 339.86c0 9.9411-8.0589 18-18 18s-18-8.0589-18-18 8.0589-18 18-18 18 8.0589 18 18z" fill="#fff"/>
  <path transform="matrix(.5 0 0 .48889 299.75 168.41)" d="m636.5 339.86c0 9.9411-8.0589 18-18 18s-18-8.0589-18-18 8.0589-18 18-18 18 8.0589 18 18z"/>
  <path transform="matrix(.33333 0 0 .32222 396.33 220.05)" d="m636.5 339.86c0 9.9411-8.0589 18-18 18s-18-8.0589-18-18 8.0589-18 18-18 18 8.0589 18 18z" fill="#fff"/>
  <path d="m630.97 280.41c-14.544 3.889-26.191 15.076-39.326 22.39-5.2436 3.3432-11.994 7.5511-17.986 3.548-14.035-6.0219-26.055-17.2-41.094-20.656-5.0976-0.15187-3.3522 7.3473-3.125 10.469 2.1041 16.3 9.8959 31.794 10.562 48.281-2.521 8.2136-11.137 12.79-16.844 18.802-6.7241 6.9386-16.302 12.427-19.562 21.917 0.56097 2.6844 4.6831 3.8869 6.6562 3.7812 9.086-14.359 25.544-22.412 35.188-36.312 1.2394-10.124-3.8337-20.105-5.857-29.978-1.8893-9.5517-6.5756-19.623-3.893-29.397 3.2693-5.3505 10.739-0.75993 14.875 0.875 12.522 5.6216 23.554 15.356 36.688 19 11.234-2.9076 20.062-11.546 30.026-17.201 5.4581-3.8933 12.432-6.9916 17.63-10.112 0.0352-2.4348-0.56349-6.2542-3.9375-5.4062z" fill="#fee800"/>
  <path d="m643.64 294.16c-19.639 5.0521-39.27 11.791-59.771 21.156-9e-3 -0.33357-2.1554-1.5439-2.1526-1.8839l-42.426 8.3526c0.46962 1.4181 0.64813 3.5343 0.97948 4.9259-3.6382 0.95394-7.1364 2.3787-11.365 5.1045l1.7696 5.6624c4.2757-2.918 7.5172-3.0206 11.293-2.4384 2.0922 7.755 7.8311 14.687 27.143 18.739 18.138-10.71 18.723-19.547 17.079-28.664 17.611-10.615 32.807-21.533 57.441-25.125z"/>
  <path d="m642.41 295.75c-19.639 5.0521-39.623 11.791-60.125 21.156-9e-3 -0.33357-0.0341-0.66001-0.0312-1l-41.719 7.4688c0.46962 1.4181 0.8249 2.8272 1.1562 4.2188-3.6382 0.95394-7.4899 2.5555-11.719 5.2812l1.0625 3.1875c4.2757-2.918 8.2244-3.5509 12-2.9688 2.0922 7.755 6.0633 14.51 25.375 18.562 18.138-10.71 16.424-18.133 14.781-27.25 17.611-10.615 34.928-21.533 59.562-25.125l-0.3438-3.5312z" fill="url(#e)"/>
  <path d="m608.79 382.66c-5.786 8.1602-17.772 5.7165-24.473 2.2925-9.8219-5.1788-19.659 3.9833-19.659 3.9833l0.63045 0.65911s8.0066-5.591 17.251-0.71642c7.6405 3.5612 22.788 3.0782 27.109-5.846z"/>
  <path d="m596 418.86s-12.75-2-15.25 3.25 10.75 14.25 11.5 21.25-2.25 14.75-2.25 14.75 5.9555-1.0898 11-8.75c6.75-10.25 9.75-23-5-30.5z"/>
  <path d="m584.37 369.77s-0.69403-7.0778 12.881-1.6185c7.9916 3.214 17.353-1.821 17.353-1.821-10.293 9.5907-23.586 7.7588-30.234 3.4394z"/>
  <path d="m583.27 370.01s-0.25925-7.1071-12.981 0.11953c-7.4897 4.2544-17.441 0.51736-17.441 0.51736 11.484 8.1272 24.412 4.5332 30.422-0.63689z"/>
  <path d="m591 421.36s-5.25-2.5-7.25 1.5 8.125 11.5 9.625 15.5c1.125-4-12.625-16.75-2.375-17z" fill="#fff"/>
  <path d="m570.5 320.11-28.25 4.125c1.2167 8.8128 4.0807 15.471 9.625 18.625-11.558-20.192 11.745-15.643 18.625-22.75z" fill="#fff"/>
  <path d="m641 380.36s2-3.5 7-0.5 10.602 8.9472 6.5 14.75c-6.5883 9.3196-20.118-2.1208-18.875-7.625l5.625-0.375s2 5 5 2.75-3.25-5.25-3.25-5.25-3.25-0.75-2-3.75z"/>
  <path d="m642.75 380.74s0.43757-2.9681 5.125 0.5c4.5028 3.3315 7.7156 7.3299 5.875 11.625-4.4956 10.491-17.618-0.24578-16.375-5.75l2.5 0.125s4.291 8.2164 7.75 3.875c4.04-5.0706-3.5-8.25-3.5-8.25s-2.625 0.875-1.375-2.125z" fill="url(#d)"/>
  <path d="m541.64 285.86c16.486 16.422 69.657 14.058 75.66-1.4142 3.1973-8.2403-1.0607-12.374-8.8388-11.314s-9.663-24.88-34.648-20.506c-14.779 2.5875-11.04 19.354-25.456 19.799-10.642 0.32843-12.374 11.314-6.7175 13.435z"/>
  <path d="m545.39 285.11c17.518 11.604 54.601 7.4467 65.16 2.0858 8.621-4.3766 2.9393-11.124-4.8388-10.064s-6.663-25.38-31.648-21.006c-14.779 2.5875-8.0405 18.354-22.456 18.799-10.642 0.32843-11.874 8.0637-6.2175 10.185z" fill="url(#c)"/>
  <path d="m569.49 269.11c-1.7526 0.21028-2.08 2.5505-0.87704 3.6697-4.156-0.37519-2.31 5.9851 0.66932 3.3928 0.58413-2.8049 2.6354-1.3205 4.9631-0.34153 1.8013 1.6464 10.959 1.4471 9.3576 4.4649-0.70895 3.101 4.6777 2.7734 3.5774-0.18464-0.62407-1.0688 2.7629-1.9696 1.3617-3.8082-1.2449-2.077-4.2563-0.21579-3.5774 1.9387-4.1711-1.5997-10.807-3.3713-14.967-5.0004 2.2552-0.95247 2.1241-4.3262-0.50776-4.1313z" fill="#fff"/>
  <path d="m584.55 268.21c-2.274 0.0876-2.2417 3.4082-0.18464 3.9698-3.8057 2.4317-10.126 4.679-13.928 7.1166 1.0946-2.8022-3.3323-4.3332-3.7851-1.431-0.70254 2.5644 3.9168 1.5902 2.1003 3.6928-0.63631 2.9171 4.4891 2.7453 3.6236-0.13848-2.041-2.0098 0.79349-2.7463 2.7064-4.0266 2.428-0.48358 8.6256-5.9947 10.091-2.7899 2.2405 2.3628 4.9304-2.4096 1.7772-3.0696-0.98226-0.32172 0.14632-3.2517-2.031-3.3235-0.11904-0.0337-0.25025-0.0337-0.36928 0z" fill="#fff"/>
 </g>
</svg>
