<?xml version="1.0" encoding="UTF-8" standalone="no"?>
<svg
   xmlns:dc="http://purl.org/dc/elements/1.1/"
   xmlns:cc="http://creativecommons.org/ns#"
   xmlns:rdf="http://www.w3.org/1999/02/22-rdf-syntax-ns#"
   xmlns:svg="http://www.w3.org/2000/svg"
   xmlns="http://www.w3.org/2000/svg"
   xmlns:sodipodi="http://sodipodi.sourceforge.net/DTD/sodipodi-0.dtd"
   xmlns:inkscape="http://www.inkscape.org/namespaces/inkscape"
   viewBox="0 0 70 70"
   height="70"
   width="70"
   xml:space="preserve"
   id="svg2"
   version="1.1"
   sodipodi:docname="star5.svg"
   inkscape:version="0.92.3 (2405546, 2018-03-11)"><sodipodi:namedview
     pagecolor="#ffffff"
     bordercolor="#666666"
     borderopacity="1"
     objecttolerance="10"
     gridtolerance="10"
     guidetolerance="10"
     inkscape:pageopacity="0"
     inkscape:pageshadow="2"
     inkscape:window-width="2560"
     inkscape:window-height="1412"
     id="namedview186"
     showgrid="false"
     inkscape:zoom="11.8"
     inkscape:cx="47.064833"
     inkscape:cy="30.689238"
     inkscape:window-x="3840"
     inkscape:window-y="0"
     inkscape:window-maximized="1"
     inkscape:current-layer="g10" /><metadata
     id="metadata8"><rdf:RDF><cc:Work
         rdf:about=""><dc:format>image/svg+xml</dc:format><dc:type
           rdf:resource="http://purl.org/dc/dcmitype/StillImage" /><dc:title></dc:title></cc:Work></rdf:RDF></metadata><defs
     id="defs6"><clipPath
       id="clipPath18"
       clipPathUnits="userSpaceOnUse"><path
         id="path16"
         d="m 314.715,273.236 c 0,-4.373 3.544,-7.918 7.917,-7.918 v 0 c 4.373,0 7.918,3.545 7.918,7.918 v 0 c 0,4.373 -3.545,7.919 -7.918,7.919 v 0 c -4.373,0 -7.917,-3.546 -7.917,-7.919"
         inkscape:connector-curvature="0" /></clipPath><linearGradient
       id="linearGradient28"
       spreadMethod="pad"
       gradientTransform="matrix(6.9183531,-6.7711544,-6.7711544,-6.9183531,322.02664,273.82907)"
       gradientUnits="userSpaceOnUse"
       y2="0"
       x2="1"
       y1="0"
       x1="0"><stop
         id="stop24"
         offset="0"
         style="stop-opacity:1;stop-color:#ffffff" /><stop
         id="stop26"
         offset="1"
         style="stop-opacity:1;stop-color:#a7c4e4" /></linearGradient><clipPath
       id="clipPath38"
       clipPathUnits="userSpaceOnUse"><path
         id="path36"
         d="M 0,480 H 640 V 0 H 0 Z"
         inkscape:connector-curvature="0" /></clipPath><clipPath
       id="clipPath146"
       clipPathUnits="userSpaceOnUse"><path
         id="path144"
         d="m 282.496,274.72 c 0,-9.021 6.045,-16.669 14.454,-19.478 v 0 c 12.334,4.989 22.308,13.248 28.203,23.387 v 0 c -1.906,9.529 -10.635,16.734 -21.129,16.734 v 0 c -11.889,0 -21.528,-9.242 -21.528,-20.643"
         inkscape:connector-curvature="0" /></clipPath><linearGradient
       id="linearGradient156"
       spreadMethod="pad"
       gradientTransform="matrix(30.915718,-30.257938,-30.257938,-30.915718,284.63232,293.70465)"
       gradientUnits="userSpaceOnUse"
       y2="0"
       x2="1"
       y1="0"
       x1="0"><stop
         id="stop152"
         offset="0"
         style="stop-opacity:1;stop-color:#ffffff" /><stop
         id="stop154"
         offset="1"
         style="stop-opacity:1;stop-color:#f584b6" /></linearGradient><clipPath
       id="clipPath166"
       clipPathUnits="userSpaceOnUse"><path
         id="path164"
         d="M 0,480 H 640 V 0 H 0 Z"
         inkscape:connector-curvature="0" /></clipPath><clipPath
       id="clipPath178"
       clipPathUnits="userSpaceOnUse"><path
         id="path176"
         d="m 220.492,292.839 c 0.768,-9.623 5.263,-18.417 12.341,-25.425 v 0 c 0.088,-0.051 0.172,-0.105 0.262,-0.156 v 0 c 6.373,1.015 11.591,5.617 12.608,11.822 v 0 c 1.287,7.843 -4.613,15.25 -13.176,16.547 v 0 c -0.863,0.13 -1.72,0.193 -2.564,0.193 v 0 c -3.521,0 -6.826,-1.098 -9.471,-2.981"
         inkscape:connector-curvature="0" /></clipPath><linearGradient
       id="linearGradient188"
       spreadMethod="pad"
       gradientTransform="matrix(26.617867,-26.051531,-26.051531,-26.617867,218.18246,297.91214)"
       gradientUnits="userSpaceOnUse"
       y2="0"
       x2="1"
       y1="0"
       x1="0"><stop
         id="stop184"
         offset="0"
         style="stop-opacity:1;stop-color:#ffffff" /><stop
         id="stop186"
         offset="1"
         style="stop-opacity:1;stop-color:#f584b6" /></linearGradient><clipPath
       id="clipPath198"
       clipPathUnits="userSpaceOnUse"><path
         id="path196"
         d="M 0,480 H 640 V 0 H 0 Z"
         inkscape:connector-curvature="0" /></clipPath><clipPath
       id="clipPath322"
       clipPathUnits="userSpaceOnUse"><path
         id="path320"
         d="m 343.37,272.191 -8.165,0.167 4.835,-6.582 -2.681,-7.714 7.753,2.564 6.508,-4.934 -0.042,8.167 6.704,4.664 -7.78,2.484 -2.365,7.817 z"
         inkscape:connector-curvature="0" /></clipPath><linearGradient
       id="linearGradient332"
       spreadMethod="pad"
       gradientTransform="matrix(16.715361,-16.359714,-16.359714,-16.715361,336.93814,274.12869)"
       gradientUnits="userSpaceOnUse"
       y2="0"
       x2="1"
       y1="0"
       x1="0"><stop
         id="stop328"
         offset="0"
         style="stop-opacity:1;stop-color:#ffffff" /><stop
         id="stop330"
         offset="1"
         style="stop-opacity:1;stop-color:#fffb6a" /></linearGradient><clipPath
       id="clipPath342"
       clipPathUnits="userSpaceOnUse"><path
         id="path340"
         d="M 0,480 H 640 V 0 H 0 Z"
         inkscape:connector-curvature="0" /></clipPath></defs><g
     transform="matrix(0.37057736,0,0,-0.33872596,-64.436369,130.5101)"
     id="g10"><g
       id="g12"
       transform="matrix(1.0071265,0,0,1.1767246,-27.238319,-52.196287)"><g
         clip-path="url(#clipPath18)"
         id="g14"><g
           id="g20"><g
             id="g22"><path
               id="path30"
               style="fill:url(#linearGradient28);stroke:none"
               d="m 314.715,273.236 c 0,-4.373 3.544,-7.918 7.917,-7.918 v 0 c 4.373,0 7.918,3.545 7.918,7.918 v 0 c 0,4.373 -3.545,7.919 -7.918,7.919 v 0 c -4.373,0 -7.917,-3.546 -7.917,-7.919"
               inkscape:connector-curvature="0" /></g></g></g></g><g
       id="g32"
       transform="matrix(1.0071265,0,0,1.1767246,-27.238319,-52.196287)"><g
         clip-path="url(#clipPath38)"
         id="g34"><g
           transform="translate(330.5498,273.2363)"
           id="g40"><path
             id="path42"
             style="fill:none;stroke:#819499;stroke-width:1;stroke-linecap:butt;stroke-linejoin:miter;stroke-miterlimit:10;stroke-dasharray:none;stroke-opacity:1"
             d="m 0,0 c 0,-4.373 -3.545,-7.918 -7.918,-7.918 -4.373,0 -7.917,3.545 -7.917,7.918 0,4.373 3.544,7.918 7.917,7.918 C -3.545,7.918 0,4.373 0,0 Z"
             inkscape:connector-curvature="0" /></g><g
           transform="translate(345.1797,291.9424)"
           id="g44"><path
             id="path46"
             style="fill:#a7c4e4;fill-opacity:1;fill-rule:nonzero;stroke:none"
             d="m 0,0 c -19.769,2.222 -35.093,10.252 -34.229,17.936 0.863,7.684 17.588,12.111 37.357,9.889 C 22.896,25.602 38.221,17.572 37.357,9.888 36.493,2.205 19.768,-2.223 0,0"
             inkscape:connector-curvature="0" /></g><g
           transform="translate(345.1797,291.9424)"
           id="g48"><path
             id="path50"
             style="fill:none;stroke:#819499;stroke-width:1;stroke-linecap:butt;stroke-linejoin:miter;stroke-miterlimit:10;stroke-dasharray:none;stroke-opacity:1"
             d="m 0,0 c -19.769,2.222 -35.093,10.252 -34.229,17.936 0.863,7.684 17.588,12.111 37.357,9.889 C 22.896,25.602 38.221,17.572 37.357,9.888 36.493,2.205 19.768,-2.223 0,0 Z"
             inkscape:connector-curvature="0" /></g><g
           transform="translate(343.6143,295.4971)"
           id="g52"><path
             id="path54"
             style="fill:#bad4eb;fill-opacity:1;fill-rule:nonzero;stroke:none"
             d="m 0,0 c -18.281,2.055 -32.5,9.064 -31.758,15.654 0.74,6.591 16.16,10.268 34.441,8.213 C 20.963,21.812 35.182,14.803 34.44,8.212 33.7,1.622 18.28,-2.055 0,0"
             inkscape:connector-curvature="0" /></g><g
           transform="translate(339.1299,297.6406)"
           id="g56"><path
             id="path58"
             style="fill:#ffffff;fill-opacity:1;fill-rule:nonzero;stroke:none"
             d="m 0,0 c -15.396,1.731 -27.359,7.752 -26.719,13.448 0.64,5.697 13.641,8.911 29.038,7.18 C 17.716,18.897 29.679,12.876 29.038,7.18 28.397,1.484 15.397,-1.73 0,0"
             inkscape:connector-curvature="0" /></g><g
           transform="translate(289.0986,334.2529)"
           id="g60"><path
             id="path62"
             style="fill:#a7c4e4;fill-opacity:1;fill-rule:nonzero;stroke:none"
             d="m 0,0 c -16.78,-10.684 -33.75,-14.057 -37.902,-7.535 -4.153,6.522 6.084,20.471 22.864,31.154 16.78,10.684 33.749,14.058 37.902,7.535 C 27.017,24.632 16.78,10.684 0,0"
             inkscape:connector-curvature="0" /></g><g
           transform="translate(289.0986,334.2529)"
           id="g64"><path
             id="path66"
             style="fill:none;stroke:#819499;stroke-width:1;stroke-linecap:butt;stroke-linejoin:miter;stroke-miterlimit:10;stroke-dasharray:none;stroke-opacity:1"
             d="m 0,0 c -16.78,-10.684 -33.75,-14.057 -37.902,-7.535 -4.153,6.522 6.084,20.471 22.864,31.154 16.78,10.684 33.749,14.058 37.902,7.535 C 27.017,24.632 16.78,10.684 0,0 Z"
             inkscape:connector-curvature="0" /></g><g
           transform="translate(285.6479,336.0366)"
           id="g68"><path
             id="path70"
             style="fill:#bad4eb;fill-opacity:1;fill-rule:nonzero;stroke:none"
             d="m 0,0 c -15.518,-9.88 -30.984,-13.354 -34.546,-7.759 -3.562,5.594 6.129,18.138 21.647,28.018 15.517,9.88 30.984,13.354 34.546,7.76 C 25.209,22.424 15.517,9.88 0,0"
             inkscape:connector-curvature="0" /></g><g
           transform="translate(280.812,334.8896)"
           id="g72"><path
             id="path74"
             style="fill:#ffffff;fill-opacity:1;fill-rule:nonzero;stroke:none"
             d="m 0,0 c -13.07,-8.322 -26.161,-11.147 -29.239,-6.312 -3.079,4.835 5.021,15.5 18.091,23.822 13.069,8.322 26.16,11.147 29.238,6.312 C 21.169,18.987 13.07,8.321 0,0"
             inkscape:connector-curvature="0" /></g><g
           transform="translate(302.793,259.3647)"
           id="g76"><path
             id="path78"
             style="fill:#81d6fd;fill-opacity:1;fill-rule:nonzero;stroke:none"
             d="m 0,0 c 0,16.07 -18.716,29.098 -41.804,29.098 -2.048,0 -4.059,-0.107 -6.029,-0.305 -3.185,2.721 -7.57,4.404 -12.413,4.404 -7.736,0 -14.292,-4.296 -16.663,-10.26 -13.594,-2.207 -23.911,-12.916 -23.911,-25.806 0,-14.486 13.028,-26.229 29.098,-26.229 4.533,0 8.823,0.934 12.648,2.6 5.265,-1.666 11.109,-2.6 17.27,-2.6 4.947,0 9.69,0.601 14.094,1.699 2.943,-2.443 6.923,-3.953 11.316,-3.953 9.054,0 16.394,6.376 16.394,14.241 0,2.71 -0.887,5.233 -2.399,7.39 C -0.851,-6.681 0,-3.41 0,0"
             inkscape:connector-curvature="0" /></g><g
           transform="translate(302.793,259.3647)"
           id="g80"><path
             id="path82"
             style="fill:none;stroke:#6998a8;stroke-width:1;stroke-linecap:butt;stroke-linejoin:miter;stroke-miterlimit:10;stroke-dasharray:none;stroke-opacity:1"
             d="m 0,0 c 0,16.07 -18.716,29.098 -41.804,29.098 -2.048,0 -4.059,-0.107 -6.029,-0.305 -3.185,2.721 -7.57,4.404 -12.413,4.404 -7.736,0 -14.292,-4.296 -16.663,-10.26 -13.594,-2.207 -23.911,-12.916 -23.911,-25.806 0,-14.486 13.028,-26.229 29.098,-26.229 4.533,0 8.823,0.934 12.648,2.6 5.265,-1.666 11.109,-2.6 17.27,-2.6 4.947,0 9.69,0.601 14.094,1.699 2.943,-2.443 6.923,-3.953 11.316,-3.953 9.054,0 16.394,6.376 16.394,14.241 0,2.71 -0.887,5.233 -2.399,7.39 C -0.851,-6.681 0,-3.41 0,0 Z"
             inkscape:connector-curvature="0" /></g><g
           transform="translate(213.0386,256.4956)"
           id="g84"><path
             id="path86"
             style="fill:#a7f5ff;fill-opacity:1;fill-rule:nonzero;stroke:none"
             d="M 0,0 C 0,10.186 11.56,18.443 25.82,18.443 40.08,18.443 51.64,10.186 51.64,0 51.64,-10.186 40.08,-18.443 25.82,-18.443 11.56,-18.443 0,-10.186 0,0"
             inkscape:connector-curvature="0" /></g><g
           transform="translate(227.252,258.5449)"
           id="g88"><path
             id="path90"
             style="fill:#ffffff;fill-opacity:1;fill-rule:nonzero;stroke:none"
             d="m 0,0 c 0,8.601 -6.973,15.574 -15.574,15.574 -0.627,0 -1.242,-0.048 -1.85,-0.12 -4.87,-4.687 -7.855,-10.984 -7.855,-17.913 0,-4.155 1.076,-8.082 2.985,-11.574 2.036,-0.977 4.31,-1.541 6.72,-1.541 C -6.973,-15.574 0,-8.601 0,0"
             inkscape:connector-curvature="0" /></g><g
           transform="translate(250.6616,276.9878)"
           id="g92"><path
             id="path94"
             style="fill:#ffffff;fill-opacity:1;fill-rule:nonzero;stroke:none"
             d="m 0,0 c 0,-5.885 -4.771,-10.656 -10.656,-10.656 -5.885,0 -10.656,4.771 -10.656,10.656 0,5.885 4.771,10.656 10.656,10.656 C -4.771,10.656 0,5.885 0,0"
             inkscape:connector-curvature="0" /></g><g
           transform="translate(236.6597,253.3804)"
           id="g96"><path
             id="path98"
             style="fill:#ffffff;fill-opacity:1;fill-rule:nonzero;stroke:none"
             d="m 0,0 c 0,-5.885 -4.771,-10.656 -10.656,-10.656 -5.885,0 -10.656,4.771 -10.656,10.656 0,5.885 4.771,10.656 10.656,10.656 C -4.771,10.656 0,5.885 0,0"
             inkscape:connector-curvature="0" /></g><g
           transform="translate(275.3335,258.5449)"
           id="g100"><path
             id="path102"
             style="fill:#ffffff;fill-opacity:1;fill-rule:nonzero;stroke:none"
             d="m 0,0 c 0,-5.885 -4.771,-10.656 -10.655,-10.656 -5.886,0 -10.656,4.771 -10.656,10.656 0,5.885 4.77,10.656 10.656,10.656 C -4.771,10.656 0,5.885 0,0"
             inkscape:connector-curvature="0" /></g><g
           transform="translate(242.4697,232.1631)"
           id="g104"><path
             id="path106"
             style="fill:#81d6fd;fill-opacity:1;fill-rule:nonzero;stroke:#6998a8;stroke-width:1;stroke-linecap:butt;stroke-linejoin:miter;stroke-miterlimit:10;stroke-dasharray:none;stroke-opacity:1"
             d="M 0,0 C 6.58,2.486 7.462,9.163 5.121,11.996"
             inkscape:connector-curvature="0" /></g><g
           transform="translate(253.3462,265.6978)"
           id="g108"><path
             id="path110"
             style="fill:none;stroke:#6998a8;stroke-width:1;stroke-linecap:butt;stroke-linejoin:miter;stroke-miterlimit:10;stroke-dasharray:none;stroke-opacity:1"
             d="m 0,0 c 0.082,0.004 0.164,-0.003 0.246,0.005 4.135,0.4 7.647,5.63 7.037,11.938 -0.377,3.887 -2.554,8.375 -4.698,10.25 0.039,-0.336 0.646,-1.857 0.679,-2.197"
             inkscape:connector-curvature="0" /></g><g
           transform="translate(300.3345,249.0415)"
           id="g112"><path
             id="path114"
             style="fill:#81d6fd;fill-opacity:1;fill-rule:nonzero;stroke:#6998a8;stroke-width:1;stroke-linecap:butt;stroke-linejoin:miter;stroke-miterlimit:10;stroke-dasharray:none;stroke-opacity:1"
             d="M 0,0 C -3.805,3.129 -8.965,2.296 -11.525,-0.94"
             inkscape:connector-curvature="0" /></g><g
           transform="translate(330.2158,295.7749)"
           id="g116"><path
             id="path118"
             style="fill:#a7c4e4;fill-opacity:1;fill-rule:nonzero;stroke:none"
             d="m 0,0 c 0,-24.675 -24.562,-44.677 -54.862,-44.677 -30.299,0 -54.862,20.002 -54.862,44.677 0,24.674 24.563,44.677 54.862,44.677 C -24.562,44.677 0,24.674 0,0"
             inkscape:connector-curvature="0" /></g><g
           transform="translate(330.2158,295.7749)"
           id="g120"><path
             id="path122"
             style="fill:none;stroke:#819499;stroke-width:1;stroke-linecap:butt;stroke-linejoin:miter;stroke-miterlimit:10;stroke-dasharray:none;stroke-opacity:1"
             d="m 0,0 c 0,-24.675 -24.562,-44.677 -54.862,-44.677 -30.299,0 -54.862,20.002 -54.862,44.677 0,24.674 24.563,44.677 54.862,44.677 C -24.562,44.677 0,24.674 0,0 Z"
             inkscape:connector-curvature="0" /></g><g
           transform="translate(320.2212,298.1177)"
           id="g124"><path
             id="path126"
             style="fill:#bfcfe9;fill-opacity:1;fill-rule:nonzero;stroke:none"
             d="m 0,0 c 0,-21.717 -21.714,-39.322 -48.5,-39.322 -26.785,0 -48.499,17.605 -48.499,39.322 0,21.717 21.714,39.322 48.499,39.322 C -21.714,39.322 0,21.717 0,0"
             inkscape:connector-curvature="0" /></g><g
           transform="translate(313.5859,302.0503)"
           id="g128"><path
             id="path130"
             style="fill:#ffffff;fill-opacity:1;fill-rule:nonzero;stroke:none"
             d="m 0,0 c 0,-19.215 -20.017,-34.792 -44.708,-34.792 -24.693,0 -44.709,15.577 -44.709,34.792 0,19.216 20.016,34.793 44.709,34.793 C -20.017,34.793 0,19.216 0,0"
             inkscape:connector-curvature="0" /></g><g
           transform="translate(314.6562,318.7471)"
           id="g132"><path
             id="path134"
             style="fill:#ffffff;fill-opacity:1;fill-rule:nonzero;stroke:none"
             d="m 0,0 c 0,3.851 -3.249,6.972 -7.257,6.972 -4.008,0 -7.257,-3.121 -7.257,-6.972 0,-3.85 3.249,-6.972 7.257,-6.972 C -3.249,-6.972 0,-3.85 0,0"
             inkscape:connector-curvature="0" /></g><g
           transform="translate(316.4502,314.4624)"
           id="g136"><path
             id="path138"
             style="fill:#ffffff;fill-opacity:1;fill-rule:nonzero;stroke:none"
             d="M 0,0 C 0,0.983 0.83,1.781 1.854,1.781 2.878,1.781 3.708,0.983 3.708,0 3.708,-0.984 2.878,-1.781 1.854,-1.781 0.83,-1.781 0,-0.984 0,0"
             inkscape:connector-curvature="0" /></g></g></g><g
       id="g140"
       transform="matrix(1.0071265,0,0,1.1767246,-27.238319,-52.196287)"><g
         clip-path="url(#clipPath146)"
         id="g142"><g
           id="g148"><g
             id="g150"><path
               id="path158"
               style="fill:url(#linearGradient156);stroke:none"
               d="m 282.496,274.72 c 0,-9.021 6.045,-16.669 14.454,-19.478 v 0 c 12.334,4.989 22.308,13.248 28.203,23.387 v 0 c -1.906,9.529 -10.635,16.734 -21.129,16.734 v 0 c -11.889,0 -21.528,-9.242 -21.528,-20.643"
               inkscape:connector-curvature="0" /></g></g></g></g><g
       id="g160"
       transform="matrix(1.0071265,0,0,1.1767246,-27.238319,-52.196287)"><g
         clip-path="url(#clipPath166)"
         id="g162"><g
           transform="translate(318.4131,289.5371)"
           id="g168"><path
             id="path170"
             style="fill:#f4b8da;fill-opacity:1;fill-rule:nonzero;stroke:none"
             d="m 0,0 c -3.876,3.626 -9.169,5.866 -15.014,5.866 -11.889,0 -21.528,-9.242 -21.528,-20.643 0,-5.252 2.059,-10.03 5.431,-13.667 C -15.555,-23.973 -3.658,-13.251 0,0"
             inkscape:connector-curvature="0" /></g></g></g><g
       id="g172"
       transform="matrix(1.0071265,0,0,1.1767246,-27.238319,-52.196287)"><g
         clip-path="url(#clipPath178)"
         id="g174"><g
           id="g180"><g
             id="g182"><path
               id="path190"
               style="fill:url(#linearGradient188);stroke:none"
               d="m 220.492,292.839 c 0.768,-9.623 5.263,-18.417 12.341,-25.425 v 0 c 0.088,-0.051 0.172,-0.105 0.262,-0.156 v 0 c 6.373,1.015 11.591,5.617 12.608,11.822 v 0 c 1.287,7.843 -4.613,15.25 -13.176,16.547 v 0 c -0.863,0.13 -1.72,0.193 -2.564,0.193 v 0 c -3.521,0 -6.826,-1.098 -9.471,-2.981"
               inkscape:connector-curvature="0" /></g></g></g></g><g
       id="g192"
       transform="matrix(1.0071265,0,0,1.1767246,-27.238319,-52.196287)"><g
         clip-path="url(#clipPath198)"
         id="g194"><g
           transform="translate(232.6968,295.709)"
           id="g200"><path
             id="path202"
             style="fill:#ffb4de;fill-opacity:1;fill-rule:nonzero;stroke:none"
             d="m 0,0 c -2.317,0.351 -4.585,0.206 -6.693,-0.333 2.012,-8.886 8.537,-16.573 17.695,-21.615 1.088,1.594 1.849,3.414 2.175,5.402 C 14.463,-8.705 8.563,-1.296 0,0"
             inkscape:connector-curvature="0" /></g><g
           transform="translate(311.1685,293.3013)"
           id="g204"><path
             id="path206"
             style="fill:#ffc9f0;fill-opacity:1;fill-rule:nonzero;stroke:none"
             d="m 0,0 c -2.406,0.893 -5.016,1.392 -7.751,1.392 -11.889,0 -21.527,-9.243 -21.527,-20.643 0,-1.897 0.281,-3.727 0.781,-5.471 C -14.188,-20.914 -3.244,-11.563 0,0"
             inkscape:connector-curvature="0" /></g><g
           transform="translate(301.0952,303.958)"
           id="g208"><path
             id="path210"
             style="fill:#ee5432;fill-opacity:1;fill-rule:nonzero;stroke:none"
             d="m 0,0 c 2.233,-6.05 0.774,-12.779 -3.259,-15.028 -4.033,-2.25 -9.112,0.831 -11.345,6.881 -2.233,6.05 -0.774,12.779 3.259,15.029 C -7.312,9.131 -2.233,6.05 0,0"
             inkscape:connector-curvature="0" /></g><g
           transform="translate(298.2949,303.623)"
           id="g212"><path
             id="path214"
             style="fill:#7e0e0a;fill-opacity:1;fill-rule:nonzero;stroke:none"
             d="m 0,0 c 1.286,-5.291 -0.427,-10.592 -3.826,-11.841 -3.4,-1.249 -7.197,2.027 -8.484,7.318 -1.286,5.29 0.427,10.591 3.826,11.84 C -5.084,8.566 -1.286,5.29 0,0"
             inkscape:connector-curvature="0" /></g><g
           transform="translate(290.7891,304.1475)"
           id="g216"><path
             id="path218"
             style="fill:#ffffff;fill-opacity:1;fill-rule:nonzero;stroke:none"
             d="M 0,0 C -0.684,1.573 -2.276,2.166 -3.556,1.325 -4.835,0.483 -5.317,-1.474 -4.633,-3.047 -3.949,-4.62 -2.357,-5.213 -1.077,-4.372 0.202,-3.531 0.685,-1.573 0,0"
             inkscape:connector-curvature="0" /></g><g
           transform="translate(299.4473,296.6616)"
           id="g220"><path
             id="path222"
             style="fill:#ffffff;fill-opacity:1;fill-rule:nonzero;stroke:none"
             d="M 0,0 C -0.583,1.341 -1.941,1.847 -3.032,1.129 -4.123,0.412 -4.534,-1.257 -3.95,-2.598 -3.367,-3.939 -2.01,-4.445 -0.919,-3.727 0.172,-3.01 0.583,-1.341 0,0"
             inkscape:connector-curvature="0" /></g><g
           transform="translate(234.6914,302.5068)"
           id="g224"><path
             id="path226"
             style="fill:#ee5432;fill-opacity:1;fill-rule:nonzero;stroke:none"
             d="m 0,0 c -0.888,-5.333 1.287,-10.618 4.858,-11.803 3.57,-1.185 7.184,2.178 8.073,7.511 C 13.818,1.042 11.644,6.327 8.073,7.512 4.502,8.697 0.888,5.333 0,0"
             inkscape:connector-curvature="0" /></g><g
           transform="translate(236.9878,302.6914)"
           id="g228"><path
             id="path230"
             style="fill:#7e0e0a;fill-opacity:1;fill-rule:nonzero;stroke:none"
             d="m 0,0 c -0.242,-4.554 1.924,-8.625 4.837,-9.093 2.913,-0.467 5.47,2.846 5.712,7.4 C 10.791,2.861 8.625,6.932 5.712,7.399 2.799,7.867 0.242,4.554 0,0"
             inkscape:connector-curvature="0" /></g><g
           transform="translate(242.9297,304.354)"
           id="g232"><path
             id="path234"
             style="fill:#ffffff;fill-opacity:1;fill-rule:nonzero;stroke:none"
             d="M 0,0 C 0.314,1.403 1.502,2.152 2.655,1.671 3.807,1.19 4.486,-0.337 4.171,-1.741 3.857,-3.145 2.669,-3.893 1.517,-3.413 0.365,-2.932 -0.314,-1.404 0,0"
             inkscape:connector-curvature="0" /></g><g
           transform="translate(237.103,296.7871)"
           id="g236"><path
             id="path238"
             style="fill:#ffffff;fill-opacity:1;fill-rule:nonzero;stroke:none"
             d="M 0,0 C 0.268,1.197 1.281,1.834 2.263,1.425 3.245,1.015 3.824,-0.288 3.556,-1.484 3.289,-2.681 2.275,-3.319 1.293,-2.909 0.311,-2.499 -0.268,-1.197 0,0"
             inkscape:connector-curvature="0" /></g><g
           transform="translate(278.4243,283.6362)"
           id="g240"><path
             id="path242"
             style="fill:none;stroke:#6998a8;stroke-width:1;stroke-linecap:butt;stroke-linejoin:miter;stroke-miterlimit:10;stroke-dasharray:none;stroke-opacity:1"
             d="m 0,0 c -0.884,-2.559 -3.194,-4.389 -5.913,-4.389 -2.719,0 -5.029,1.83 -5.913,4.389"
             inkscape:connector-curvature="0" /></g><g
           transform="translate(266.5981,283.8306)"
           id="g244"><path
             id="path246"
             style="fill:none;stroke:#6998a8;stroke-width:1;stroke-linecap:butt;stroke-linejoin:miter;stroke-miterlimit:10;stroke-dasharray:none;stroke-opacity:1"
             d="m 0,0 c -0.667,-2.559 -2.408,-4.389 -4.457,-4.389 -2.049,0 -3.79,1.83 -4.457,4.389"
             inkscape:connector-curvature="0" /></g><g
           transform="translate(307.3994,281.0073)"
           id="g248"><path
             id="path250"
             style="fill:#ffffff;fill-opacity:1;fill-rule:nonzero;stroke:none"
             d="m 0,0 c 0,-1.452 -1.177,-2.629 -2.629,-2.629 -1.452,0 -2.629,1.177 -2.629,2.629 0,1.452 1.177,2.629 2.629,2.629 C -1.177,2.629 0,1.452 0,0"
             inkscape:connector-curvature="0" /></g><g
           transform="translate(295.2319,273.2363)"
           id="g252"><path
             id="path254"
             style="fill:#ffffff;fill-opacity:1;fill-rule:nonzero;stroke:none"
             d="m 0,0 c 0,-1.141 -0.925,-2.065 -2.066,-2.065 -1.141,0 -2.065,0.924 -2.065,2.065 0,1.141 0.924,2.066 2.065,2.066 C -0.925,2.066 0,1.141 0,0"
             inkscape:connector-curvature="0" /></g><g
           transform="translate(232.1084,286.5122)"
           id="g256"><path
             id="path258"
             style="fill:#ffffff;fill-opacity:1;fill-rule:nonzero;stroke:none"
             d="m 0,0 c 0,-0.929 -0.752,-1.682 -1.681,-1.682 -0.929,0 -1.682,0.753 -1.682,1.682 0,0.928 0.753,1.681 1.682,1.681 C -0.752,1.681 0,0.928 0,0"
             inkscape:connector-curvature="0" /></g><g
           transform="translate(366.416,241.7432)"
           id="g260"><path
             id="path262"
             style="fill:#81d6fd;fill-opacity:1;fill-rule:nonzero;stroke:none"
             d="m 0,0 c 0,13.015 -12.11,23.565 -27.05,23.565 -4.317,0 -8.395,-0.885 -12.016,-2.453 -4.436,1.455 -9.247,2.397 -14.3,2.725 -3.197,6.459 -9.086,10.794 -15.827,10.794 -6.902,0 -12.912,-4.544 -16.052,-11.26 -1.047,0.124 -2.113,0.194 -3.198,0.194 -13.25,0 -23.992,-9.572 -23.992,-21.38 0,-5.699 2.506,-10.872 6.583,-14.705 -7.395,-3.026 -12.181,-7.857 -12.181,-13.299 0,-9.167 13.578,-16.599 30.328,-16.599 5.315,0 10.308,0.75 14.652,2.065 4.883,-1.334 10.163,-2.065 15.676,-2.065 11.188,0 21.416,3.008 29.297,7.977 2.871,-1.931 6.327,-3.059 10.047,-3.059 9.959,0 18.033,8.073 18.033,18.033 0,3.421 -0.971,6.608 -2.625,9.333 C -0.943,-7.064 0,-3.628 0,0"
             inkscape:connector-curvature="0" /></g><g
           transform="translate(366.416,241.7432)"
           id="g264"><path
             id="path266"
             style="fill:none;stroke:#6998a8;stroke-width:1;stroke-linecap:butt;stroke-linejoin:miter;stroke-miterlimit:10;stroke-dasharray:none;stroke-opacity:1"
             d="m 0,0 c 0,13.015 -12.11,23.565 -27.05,23.565 -4.317,0 -8.395,-0.885 -12.016,-2.453 -4.436,1.455 -9.247,2.397 -14.3,2.725 -3.197,6.459 -9.086,10.794 -15.827,10.794 -6.902,0 -12.912,-4.544 -16.052,-11.26 -1.047,0.124 -2.113,0.194 -3.198,0.194 -13.25,0 -23.992,-9.572 -23.992,-21.38 0,-5.699 2.506,-10.872 6.583,-14.705 -7.395,-3.026 -12.181,-7.857 -12.181,-13.299 0,-9.167 13.578,-16.599 30.328,-16.599 5.315,0 10.308,0.75 14.652,2.065 4.883,-1.334 10.163,-2.065 15.676,-2.065 11.188,0 21.416,3.008 29.297,7.977 2.871,-1.931 6.327,-3.059 10.047,-3.059 9.959,0 18.033,8.073 18.033,18.033 0,3.421 -0.971,6.608 -2.625,9.333 C -0.943,-7.064 0,-3.628 0,0 Z"
             inkscape:connector-curvature="0" /></g><g
           transform="translate(255.7598,245.6367)"
           id="g268"><path
             id="path270"
             style="fill:#a7f5ff;fill-opacity:1;fill-rule:nonzero;stroke:none"
             d="M 0,0 C 0,10.186 11.56,18.442 25.82,18.442 40.08,18.442 51.64,10.186 51.64,0 51.64,-10.186 40.08,-18.442 25.82,-18.442 11.56,-18.442 0,-10.186 0,0"
             inkscape:connector-curvature="0" /></g><g
           transform="translate(291.5962,229.915)"
           id="g272"><path
             id="path274"
             style="fill:#a7f5ff;fill-opacity:1;fill-rule:nonzero;stroke:none"
             d="m 0,0 c 0,10.186 11.56,18.443 25.819,18.443 14.261,0 25.82,-8.257 25.82,-18.443 0,-10.186 -11.559,-18.442 -25.82,-18.442 C 11.56,-18.442 0,-10.186 0,0"
             inkscape:connector-curvature="0" /></g><g
           transform="translate(311.0879,243.5874)"
           id="g276"><path
             id="path278"
             style="fill:#a7f5ff;fill-opacity:1;fill-rule:nonzero;stroke:none"
             d="M 0,0 C 0,10.186 11.56,18.443 25.819,18.443 40.079,18.443 51.64,10.186 51.64,0 51.64,-10.185 40.079,-18.443 25.819,-18.443 11.56,-18.443 0,-10.185 0,0"
             inkscape:connector-curvature="0" /></g><g
           transform="translate(302.793,229.2432)"
           id="g280"><path
             id="path282"
             style="fill:#ffffff;fill-opacity:1;fill-rule:nonzero;stroke:none"
             d="m 0,0 c 0,-7.017 -6.859,-12.705 -15.32,-12.705 -8.461,0 -15.32,5.688 -15.32,12.705 0,7.017 6.859,12.705 15.32,12.705 C -6.859,12.705 0,7.017 0,0"
             inkscape:connector-curvature="0" /></g><g
           transform="translate(283.6069,244.1592)"
           id="g284"><path
             id="path286"
             style="fill:#ffffff;fill-opacity:1;fill-rule:nonzero;stroke:none"
             d="m 0,0 c 0,-5.093 -4.968,-9.222 -11.096,-9.222 -6.128,0 -11.095,4.129 -11.095,9.222 0,5.093 4.967,9.221 11.095,9.221 C -4.968,9.221 0,5.093 0,0"
             inkscape:connector-curvature="0" /></g><g
           transform="translate(300.0225,248.3579)"
           id="g288"><path
             id="path290"
             style="fill:#ffffff;fill-opacity:1;fill-rule:nonzero;stroke:none"
             d="m 0,0 c 0,4.074 3.303,7.377 7.377,7.377 4.074,0 7.377,-3.303 7.377,-7.377 0,-4.074 -3.303,-7.377 -7.377,-7.377 C 3.303,-7.377 0,-4.074 0,0"
             inkscape:connector-curvature="0" /></g><g
           transform="translate(339.3662,250.9644)"
           id="g292"><path
             id="path294"
             style="fill:#ffffff;fill-opacity:1;fill-rule:nonzero;stroke:none"
             d="m 0,0 c 0,4.074 3.303,7.377 7.377,7.377 4.074,0 7.378,-3.303 7.378,-7.377 0,-4.074 -3.304,-7.377 -7.378,-7.377 C 3.303,-7.377 0,-4.074 0,0"
             inkscape:connector-curvature="0" /></g><g
           transform="translate(364.3535,230.5264)"
           id="g296"><path
             id="path298"
             style="fill:#81d6fd;fill-opacity:1;fill-rule:nonzero;stroke:#6998a8;stroke-width:1;stroke-linecap:butt;stroke-linejoin:miter;stroke-miterlimit:10;stroke-dasharray:none;stroke-opacity:1"
             d="M 0,0 C -3.805,3.129 -8.965,2.296 -11.525,-0.94"
             inkscape:connector-curvature="0" /></g><g
           transform="translate(293.0928,201.2549)"
           id="g300"><path
             id="path302"
             style="fill:#81d6fd;fill-opacity:1;fill-rule:nonzero;stroke:#6998a8;stroke-width:1;stroke-linecap:butt;stroke-linejoin:miter;stroke-miterlimit:10;stroke-dasharray:none;stroke-opacity:1"
             d="M 0,0 C 6.58,2.486 7.462,9.162 5.121,11.996"
             inkscape:connector-curvature="0" /></g><g
           transform="translate(342.8105,231.251)"
           id="g304"><path
             id="path306"
             style="fill:#fcfcfc;fill-opacity:1;fill-rule:nonzero;stroke:none"
             d="m 0,0 c 0,-5.519 -5.685,-9.992 -12.697,-9.992 -7.012,0 -12.697,4.473 -12.697,9.992 0,5.519 5.685,9.992 12.697,9.992 C -5.685,9.992 0,5.519 0,0"
             inkscape:connector-curvature="0" /></g><g
           transform="translate(306.0928,256.2544)"
           id="g308"><path
             id="path310"
             style="fill:#81d6fd;fill-opacity:1;fill-rule:nonzero;stroke:#6998a8;stroke-width:1;stroke-linecap:butt;stroke-linejoin:miter;stroke-miterlimit:10;stroke-dasharray:none;stroke-opacity:1"
             d="M 0,0 C 6.58,2.487 7.462,9.163 5.121,11.997"
             inkscape:connector-curvature="0" /></g><g
           transform="translate(260.564,229.2236)"
           id="g312"><path
             id="path314"
             style="fill:#81d6fd;fill-opacity:1;fill-rule:nonzero;stroke:#6998a8;stroke-width:1;stroke-linecap:butt;stroke-linejoin:miter;stroke-miterlimit:10;stroke-dasharray:none;stroke-opacity:1"
             d="M 0,0 8.729,-4.079"
             inkscape:connector-curvature="0" /></g></g></g><g
       id="g316"
       transform="matrix(1.0071265,0,0,1.1767246,-27.238319,-52.196287)"><g
         clip-path="url(#clipPath322)"
         id="g318"><g
           id="g324"><g
             id="g326"><path
               id="path334"
               style="fill:url(#linearGradient332);stroke:none"
               d="m 343.37,272.191 -8.165,0.167 4.835,-6.582 -2.681,-7.714 7.753,2.564 6.508,-4.934 -0.042,8.167 6.704,4.664 -7.78,2.484 -2.365,7.817 z"
               inkscape:connector-curvature="0" /></g></g></g></g><g
       id="g336"
       transform="matrix(1.0071265,0,0,1.1767246,-27.238319,-52.196287)"><g
         clip-path="url(#clipPath342)"
         id="g338"><g
           transform="translate(351.6201,255.6919)"
           id="g344"><path
             id="path346"
             style="fill:none;stroke:#b49c44;stroke-width:1;stroke-linecap:butt;stroke-linejoin:miter;stroke-miterlimit:10;stroke-dasharray:none;stroke-opacity:1"
             d="m 0,0 -6.508,4.934 -7.754,-2.564 2.682,7.714 -4.835,6.583 8.165,-0.167 4.767,6.632 2.365,-7.817 L 6.6619,12.8311 -0.042,8.167 Z"
             inkscape:connector-curvature="0"
             sodipodi:nodetypes="ccccccccccc" /></g><g
           transform="translate(351.9795,265.689)"
           id="g348"><path
             id="path350"
             style="fill:#3f3f37;fill-opacity:1;fill-rule:nonzero;stroke:none"
             d="m 0,0 c 0,-1.054 -0.781,-1.908 -1.745,-1.908 -0.964,0 -1.745,0.854 -1.745,1.908 0,1.054 0.781,1.908 1.745,1.908 C -0.781,1.908 0,1.054 0,0"
             inkscape:connector-curvature="0" /></g><g
           transform="translate(350.624,266.0742)"
           id="g352"><path
             id="path354"
             style="fill:#fcfcfc;fill-opacity:1;fill-rule:nonzero;stroke:none"
             d="m 0,0 c 0,-0.527 -0.391,-0.954 -0.872,-0.954 -0.482,0 -0.873,0.427 -0.873,0.954 0,0.527 0.391,0.954 0.873,0.954 C -0.391,0.954 0,0.527 0,0"
             inkscape:connector-curvature="0" /></g><g
           transform="translate(350.958,264.5239)"
           id="g356"><path
             id="path358"
             style="fill:#fcfcfc;fill-opacity:1;fill-rule:nonzero;stroke:none"
             d="m 0,0 c 0,-0.329 -0.241,-0.596 -0.54,-0.596 -0.299,0 -0.541,0.267 -0.541,0.596 0,0.33 0.242,0.596 0.541,0.596 C -0.241,0.596 0,0.33 0,0"
             inkscape:connector-curvature="0" /></g><g
           transform="translate(340.7441,266.5972)"
           id="g360"><path
             id="path362"
             style="fill:#3f3f37;fill-opacity:1;fill-rule:nonzero;stroke:none"
             d="M 0,0 C 0,-1.054 0.781,-1.908 1.745,-1.908 2.709,-1.908 3.49,-1.054 3.49,0 3.49,1.054 2.709,1.908 1.745,1.908 0.781,1.908 0,1.054 0,0"
             inkscape:connector-curvature="0" /></g><g
           transform="translate(342.0996,266.9824)"
           id="g364"><path
             id="path366"
             style="fill:#fcfcfc;fill-opacity:1;fill-rule:nonzero;stroke:none"
             d="m 0,0 c 0,-0.527 0.391,-0.954 0.872,-0.954 0.482,0 0.873,0.427 0.873,0.954 0,0.527 -0.391,0.954 -0.873,0.954 C 0.391,0.954 0,0.527 0,0"
             inkscape:connector-curvature="0" /></g><g
           transform="translate(341.7656,265.4321)"
           id="g368"><path
             id="path370"
             style="fill:#fcfcfc;fill-opacity:1;fill-rule:nonzero;stroke:none"
             d="m 0,0 c 0,-0.329 0.241,-0.596 0.54,-0.596 0.299,0 0.541,0.267 0.541,0.596 0,0.329 -0.242,0.596 -0.541,0.596 C 0.241,0.596 0,0.329 0,0"
             inkscape:connector-curvature="0" /></g></g></g></g></svg>