<?xml version="1.0" encoding="UTF-8" standalone="no"?>
<svg
   xmlns:dc="http://purl.org/dc/elements/1.1/"
   xmlns:cc="http://creativecommons.org/ns#"
   xmlns:rdf="http://www.w3.org/1999/02/22-rdf-syntax-ns#"
   xmlns:svg="http://www.w3.org/2000/svg"
   xmlns="http://www.w3.org/2000/svg"
   xmlns:xlink="http://www.w3.org/1999/xlink"
   xmlns:sodipodi="http://sodipodi.sourceforge.net/DTD/sodipodi-0.dtd"
   xmlns:inkscape="http://www.inkscape.org/namespaces/inkscape"
   viewBox="0 0 70 70"
   version="1.1"
   id="svg144"
   sodipodi:docname="star1.svg"
   width="70"
   height="70"
   inkscape:version="0.92.3 (2405546, 2018-03-11)">
  <metadata
     id="metadata148">
    <rdf:RDF>
      <cc:Work
         rdf:about="">
        <dc:format>image/svg+xml</dc:format>
        <dc:type
           rdf:resource="http://purl.org/dc/dcmitype/StillImage" />
        <dc:title></dc:title>
      </cc:Work>
    </rdf:RDF>
  </metadata>
  <sodipodi:namedview
     pagecolor="#ffffff"
     bordercolor="#666666"
     borderopacity="1"
     objecttolerance="10"
     gridtolerance="10"
     guidetolerance="10"
     inkscape:pageopacity="0"
     inkscape:pageshadow="2"
     inkscape:window-width="2560"
     inkscape:window-height="1412"
     id="namedview146"
     showgrid="false"
     inkscape:zoom="3.6875"
     inkscape:cx="131.74824"
     inkscape:cy="97.824854"
     inkscape:window-x="3840"
     inkscape:window-y="0"
     inkscape:window-maximized="1"
     inkscape:current-layer="svg144" />
  <defs
     id="defs44">
    <linearGradient
       id="d">
      <stop
         stop-color="#27a027"
         offset="0"
         id="stop2" />
      <stop
         stop-color="#2beb2b"
         offset="1"
         id="stop4" />
    </linearGradient>
    <linearGradient
       id="c">
      <stop
         stop-color="#404040"
         offset="0"
         id="stop7" />
      <stop
         stop-color="#636363"
         offset="1"
         id="stop9" />
    </linearGradient>
    <linearGradient
       id="e">
      <stop
         stop-color="#d40000"
         offset="0"
         id="stop12" />
      <stop
         stop-color="#ff0d00"
         offset="1"
         id="stop14" />
    </linearGradient>
    <linearGradient
       id="a">
      <stop
         stop-color="#fff000"
         offset="0"
         id="stop17" />
      <stop
         stop-color="#fc0"
         offset="1"
         id="stop19" />
    </linearGradient>
    <linearGradient
       id="r"
       x1="695.5"
       x2="689.5"
       y1="720.35999"
       y2="722.35999"
       gradientUnits="userSpaceOnUse">
      <stop
         stop-color="#b9a165"
         offset="0"
         id="stop22" />
      <stop
         stop-color="#978045"
         offset="1"
         id="stop24" />
    </linearGradient>
    <linearGradient
       id="q"
       x1="721.07001"
       x2="727.78998"
       y1="830.51001"
       y2="830.15002"
       gradientTransform="matrix(-0.29221,0.95636,0.95636,0.29221,130.72,-99.81)"
       gradientUnits="userSpaceOnUse"
       xlink:href="#e" />
    <linearGradient
       id="p"
       x1="694.03003"
       x2="695.78998"
       y1="802.21997"
       y2="800.81"
       gradientUnits="userSpaceOnUse"
       xlink:href="#c" />
    <linearGradient
       id="o"
       x1="660.78998"
       x2="664.15002"
       y1="759.96997"
       y2="757.32001"
       gradientUnits="userSpaceOnUse"
       xlink:href="#c" />
    <linearGradient
       id="n"
       x1="719.57001"
       x2="726.28998"
       y1="829.62"
       y2="829.27002"
       gradientUnits="userSpaceOnUse"
       xlink:href="#e" />
    <linearGradient
       id="m"
       x1="608.10999"
       x2="628.44"
       y1="810.17999"
       y2="815.29999"
       gradientUnits="userSpaceOnUse"
       xlink:href="#d" />
    <linearGradient
       id="l"
       x1="607.84998"
       x2="616.07001"
       y1="801.10999"
       y2="800.58002"
       gradientUnits="userSpaceOnUse"
       xlink:href="#d" />
    <radialGradient
       id="b"
       cx="674"
       cy="696.39001"
       r="27.993999"
       gradientTransform="matrix(-0.23219,-1.4735,0.83426,-0.13146,249.52,1781.1)"
       gradientUnits="userSpaceOnUse">
      <stop
         stop-color="#fff"
         offset="0"
         id="stop33" />
      <stop
         stop-color="#d5d5d5"
         offset="1"
         id="stop35" />
    </radialGradient>
    <radialGradient
       id="f"
       cx="168.57001"
       cy="276.25"
       r="108.01"
       gradientTransform="matrix(0.99972,0.02347,-0.0251,1.0693,6.5379,-21.654)"
       gradientUnits="userSpaceOnUse"
       xlink:href="#a" />
    <radialGradient
       id="k"
       cx="704.85999"
       cy="715.06"
       r="14.641"
       gradientTransform="matrix(-1.0814,-0.93579,0.52925,-0.61158,1082.8,1814.1)"
       gradientUnits="userSpaceOnUse"
       xlink:href="#a" />
    <radialGradient
       id="j"
       cx="687.04999"
       cy="708.40997"
       r="9.6824999"
       gradientTransform="matrix(0.77988,0.28301,-0.20762,0.57212,297.81,107.45)"
       gradientUnits="userSpaceOnUse"
       xlink:href="#a" />
    <radialGradient
       id="i"
       cx="687.37"
       cy="715.90002"
       r="10.189"
       gradientTransform="matrix(1,0,0,0.60143,0,285.13)"
       gradientUnits="userSpaceOnUse"
       xlink:href="#a" />
    <radialGradient
       id="h"
       cx="695.65997"
       cy="722.54999"
       r="9.6836996"
       gradientTransform="matrix(1,0,0,0.74705,1.25,183.46)"
       gradientUnits="userSpaceOnUse"
       xlink:href="#a" />
    <radialGradient
       id="g"
       cx="706.21997"
       cy="807.70001"
       r="18.885"
       gradientTransform="matrix(-1.4603,-0.74887,0.38408,-0.74897,1427.3,1940.8)"
       gradientUnits="userSpaceOnUse"
       xlink:href="#a" />
    <radialGradient
       inkscape:collect="always"
       xlink:href="#b"
       id="radialGradient955"
       gradientUnits="userSpaceOnUse"
       gradientTransform="matrix(-0.23219,-1.4735,0.83426,-0.13146,249.52,1781.1)"
       cx="674"
       cy="696.39001"
       r="27.993999" />
    <radialGradient
       inkscape:collect="always"
       xlink:href="#b"
       id="radialGradient957"
       gradientUnits="userSpaceOnUse"
       gradientTransform="matrix(-0.23219,-1.4735,0.83426,-0.13146,249.52,1781.1)"
       cx="674"
       cy="696.39001"
       r="27.993999" />
  </defs>
  <g
     transform="matrix(0.36435864,0,0,0.39468092,-188.00553,-269.24654)"
     id="g142">
    <g
       transform="matrix(0.93575,-0.35266,0.35266,0.93575,-284.73,309.18)"
       id="g50">
      <path
         d="m 650.25,684.86 c 0,0 -5.5,28.25 2.25,34 7.75,5.75 15.5,-15.75 15.5,-15.75 l 14.75,-3.25 c 19.83,-2.9467 20.095,-8.8647 -6.5,-6.75 52.827,-4.4362 17.916,-11.625 1.75,-9.25 49.932,-3.4703 9.4791,-9.6891 -0.25,-10.25 -4.8753,-0.28107 -21.5,-5.75 -27.5,11.25 z"
         id="path46"
         inkscape:connector-curvature="0" />
      <path
         d="m 651.49,685.57 c 0,0 -6.2071,26.482 1.5429,32.232 7.75,5.75 14.439,-16.811 14.439,-16.811 l 14.75,-1.659 c 19.83,-2.9467 17.62,-7.2737 -9.682,-5.8661 53.534,-5.8504 20.39,-10.565 0.86612,-9.4268 50.108,-5.0613 14.075,-8.6284 4.3462,-9.1893 -4.8753,-0.28107 -20.263,-6.2803 -26.263,10.72 z"
         id="path48"
         inkscape:connector-curvature="0"
         style="fill:url(#radialGradient955)" />
    </g>
    <g
       transform="matrix(0.9985,0.05467,-0.05467,0.9985,33.071,-3.9335)"
       id="g56">
      <path
         d="m 650.25,684.86 c 0,0 -5.5,28.25 2.25,34 7.75,5.75 15.5,-15.75 15.5,-15.75 l 14.75,-3.25 c 19.83,-2.9467 20.095,-8.8647 -6.5,-6.75 52.827,-4.4362 17.916,-11.625 1.75,-9.25 49.932,-3.4703 9.4791,-9.6891 -0.25,-10.25 -4.8753,-0.28107 -21.5,-5.75 -27.5,11.25 z"
         id="path52"
         inkscape:connector-curvature="0" />
      <path
         d="m 651.49,685.57 c 0,0 -6.2071,26.482 1.5429,32.232 7.75,5.75 14.439,-16.811 14.439,-16.811 l 14.75,-1.659 c 19.83,-2.9467 17.62,-7.2737 -9.682,-5.8661 53.534,-5.8504 20.39,-10.565 0.86612,-9.4268 50.108,-5.0613 14.075,-8.6284 4.3462,-9.1893 -4.8753,-0.28107 -20.263,-6.2803 -26.263,10.72 z"
         id="path54"
         inkscape:connector-curvature="0"
         style="fill:url(#radialGradient957)" />
    </g>
    <path
       transform="matrix(0.78048,0.05526,-0.05526,0.78048,507.5,558.69)"
       d="m 232.15,362.48 c -12.069,10.603 -52.885,-30.483 -68.945,-30.07 -17.752,0.45673 -56.351,40.88 -71.62,31.814 -13.814,-8.2016 12.009,-54.635 6.6533,-69.781 -5.9199,-16.742 -55.24,-41.878 -51.336,-59.201 3.5315,-15.672 56.175,-5.9598 68.925,-15.734 14.093,-10.804 23.353,-67.345 41.035,-68.985 15.996,-1.4843 22.073,54.568 35.308,63.673 14.63,10.065 71.66,-0.30532 78.684,16.004 6.3548,14.755 -44.508,37.016 -49.078,52.417 -5.0512,17.024 23.714,68.143 10.374,79.863 z"
       id="path58"
       inkscape:connector-curvature="0" />
    <path
       transform="matrix(0.78048,0.05526,-0.05526,0.78048,507.5,558.69)"
       d="m 228,358.36 c -12.069,10.603 -47.318,-29.774 -63.378,-29.361 -17.752,0.45673 -54.626,41.861 -69.895,32.795 -13.814,-8.2016 13.695,-54.203 8.339,-69.349 -5.9199,-16.742 -56.692,-39.017 -52.789,-56.34 3.5315,-15.672 55.782,-3.7251 68.532,-13.499 14.093,-10.804 19.588,-65.975 37.27,-67.615 15.996,-1.4843 20.78,51.901 34.016,61.006 14.63,10.065 68.799,-1.7578 75.823,14.551 6.3548,14.755 -42.939,35.801 -47.509,51.203 -5.0512,17.024 22.932,64.888 9.5914,76.608 z"
       id="path60"
       inkscape:connector-curvature="0"
       style="fill:url(#f)" />
    <path
       d="m 620.19,689.31 c -8.7628,2.8293 -11.368,13.317 -15.247,20.727 -5.1352,10.17 -7.6549,22.998 -17.065,30.179 -12.78,4.6733 -26.885,0.20519 -40.188,0.9375 -4.8534,0.003 -14.301,0.68569 -13.188,7.7188 0.41898,2.8804 2.943,6.9846 4.4375,7.6562 1.412,-7.4512 11.236,-7.4254 17.188,-7.4688 12.344,-0.47817 25.452,3.4508 37.312,-0.75 9.4611,-8.0109 11.772,-21.322 17.351,-31.918 3.8128,-7.2375 7.1733,-17.934 16.43,-19.207 2.3968,-0.0134 -1.4722,-4.5696 -2.4688,-5.9375 -1.1307,-1.3306 -2.7696,-2.1848 -4.5625,-1.9375 z"
       id="path62"
       inkscape:connector-curvature="0"
       style="fill:#fee800" />
    <g
       transform="matrix(0.99495,0.10038,-0.10038,0.99495,-78.479,15.09)"
       id="g86">
      <path
         d="m 681.11,706.18 c 14.615,-4.5671 12.483,-7.0029 21.618,-2.7403 9.135,4.2626 7.4508,21.461 -0.76997,22.983 -8.22077,1.522 -29.068,-9.8909 -20.848,-20.243 z"
         id="path64"
         inkscape:connector-curvature="0" />
      <path
         d="m 687.22,643.44 c -11.288,25.013 -10.847,53.565 -0.8125,76.875 10.0345,23.31 29.685,41.411 56.688,45.469 3.7836,-1.5202 1.944,-2.5404 0.44914,-4.0607 -26.641,-4.0032 -39.206,-19.474 -49.128,-42.521 -9.922,-23.047 -14.55,-48.02 -3.383,-72.763 0.80897,-4.2208 -1.0287,-5.1164 -3.8131,-2.9982 z"
         id="path66"
         inkscape:connector-curvature="0" />
      <path
         d="m 681.72,707.39 c 14.615,-4.5671 10.888,-6.3341 20.022,-2.0715 9.134,4.2626 6.4215,17.977 -1.7993,19.5 -8.2208,1.523 -26.443,-7.076 -18.223,-17.428 z"
         id="path68"
         inkscape:connector-curvature="0"
         style="fill:url(#k)" />
      <path
         d="m 687.75,644.5 c -11.288,25.013 -9.6099,52.858 0.42494,76.168 10.03484,23.31 27.21,39.997 54.213,44.055 3.7836,-1.5202 1.2369,-0.94945 -0.25796,-2.4697 -26.641,-4.0032 -38.852,-19.474 -48.775,-42.521 -9.923,-23.047 -14.903,-48.374 -3.7365,-73.117 0.80897,-4.2208 0.91587,-4.2325 -1.8686,-2.1143 z"
         id="path70"
         inkscape:connector-curvature="0"
         style="fill:url(#r)" />
      <path
         d="m 682.65,699.85 c 0,0 -6.4455,0.61164 -7.6899,5.5146 -2.6004,10.245 18.159,5.6136 19.14,1.4378 -0.6998,-4.9458 -8.3964,-7.5342 -11.45,-6.9524 z"
         id="path72"
         inkscape:connector-curvature="0" />
      <path
         d="m 678.69,710.93 c 0,0 -6.1354,0.58499 -5.4112,4.1572 2.7013,13.325 21.08,2.6804 20.293,-2.8265 -0.60663,-4.2464 -9.237,-3.2983 -14.882,-1.3307 z"
         id="path74"
         inkscape:connector-curvature="0" />
      <path
         d="m 687.39,718.86 c 0,0 -5.5519,1.9768 -4.2139,5.3672 4.6291,11.73 25.075,1.7502 17.489,-7.4745 -2.7246,-3.313 -8.2924,-1.1962 -13.275,2.1073 z"
         id="path76"
         inkscape:connector-curvature="0" />
      <path
         d="m 682.65,702.9 c 0,0 -2.6312,-1.2569 -4.6452,3.3832 -3.4563,7.9632 11.902,1.0573 14.421,0.98111 -0.6998,-4.9458 -6.7218,-4.9462 -9.7754,-4.3644 z"
         id="path78"
         inkscape:connector-curvature="0"
         style="fill:url(#j)" />
      <path
         d="m 680.22,712.61 c 0,0 -6.2662,-0.45162 -5.4112,3.0915 2.4606,10.197 17.264,0.72669 16.639,-2.6742 -0.77497,-4.2189 -5.5833,-2.3849 -11.228,-0.41731 z"
         id="path80"
         inkscape:connector-curvature="0"
         style="fill:url(#i)" />
      <path
         d="m 688.91,720.39 c 0,0 -3.7368,0.80977 -2.6915,4.3015 2.6597,8.8848 18.676,0.39006 12.769,-6.4088 -2.8133,-3.2381 -5.0955,-1.1962 -10.078,2.1073 z"
         id="path82"
         inkscape:connector-curvature="0"
         style="fill:url(#h)" />
      <path
         d="m 686.03,647.12 -0.0625,1 c 0.91877,0.84141 1.8216,1.8584 2.9688,0.1875 14.763,39.175 33.561,75.93 51.469,113.22 -2.9336,0.91667 -2.8376,1.8333 -2.5312,2.75 l 0.75,0.65625 c 1.7357,-1.0819 3.328,-2.1495 2.75,-3 l 0.21875,-0.21875 -0.125,-0.3125 -51.75,-113.78 -0.125,-0.28125 h -0.3125 c -1.2365,0.38646 -2.2437,0.0852 -3.25,-0.21875 z"
         id="path84"
         inkscape:connector-curvature="0" />
    </g>
    <g
       transform="translate(-18.25,6.25)"
       id="g96">
      <path
         d="m 666.5,741.61 c 0,8.1462 -6.9396,14.75 -15.5,14.75 -8.5604,0 -15.5,-6.6038 -15.5,-14.75 0,-8.1462 6.9396,-14.75 15.5,-14.75 8.5604,0 15.5,6.6038 15.5,14.75 z"
         id="path88"
         inkscape:connector-curvature="0" />
      <path
         transform="matrix(0.91935,0,0,0.92373,52.5,56.689)"
         d="m 666.5,741.61 c 0,8.1462 -6.9396,14.75 -15.5,14.75 -8.5604,0 -15.5,-6.6038 -15.5,-14.75 0,-8.1462 6.9396,-14.75 15.5,-14.75 8.5604,0 15.5,6.6038 15.5,14.75 z"
         id="path90"
         inkscape:connector-curvature="0"
         style="fill:#ffffff" />
      <path
         transform="matrix(0.54032,0,0,0.51695,295.62,360.61)"
         d="m 666.5,741.61 c 0,8.1462 -6.9396,14.75 -15.5,14.75 -8.5604,0 -15.5,-6.6038 -15.5,-14.75 0,-8.1462 6.9396,-14.75 15.5,-14.75 8.5604,0 15.5,6.6038 15.5,14.75 z"
         id="path92"
         inkscape:connector-curvature="0" />
      <path
         transform="matrix(0.29032,0,0,0.27776,454.25,531.47)"
         d="m 666.5,741.61 c 0,8.1462 -6.9396,14.75 -15.5,14.75 -8.5604,0 -15.5,-6.6038 -15.5,-14.75 0,-8.1462 6.9396,-14.75 15.5,-14.75 8.5604,0 15.5,6.6038 15.5,14.75 z"
         id="path94"
         inkscape:connector-curvature="0"
         style="fill:#ffffff" />
    </g>
    <g
       transform="translate(-3,12)"
       id="g106">
      <path
         d="m 623.49,831.92 c 0,0 -26.693,-9.3692 -18.738,-25.102 4.061,-8.0317 13.713,-9.6682 22.097,-4.773 7.4514,4.3508 -8.9967,21.982 -3.3588,29.875 z"
         id="path98"
         inkscape:connector-curvature="0" />
      <path
         d="m 622.25,830.51 c 0.40401,-1.4814 -22.905,-10.768 -15.91,-22.981 4.4729,-7.8098 10.708,-9.4914 19.092,-4.5962 7.4514,4.3508 -8.8199,19.684 -3.182,27.577 z"
         id="path100"
         inkscape:connector-curvature="0"
         style="fill:url(#m)" />
      <path
         d="m 614.65,813.54 c -2.0043,-2.5855 -9.1708,-21.053 -6.0104,-23.511 1.0408,-1.7026 3.2146,-1.517 5.6569,-0.88389 -4.4098,9.7993 0.12496,16.404 1.7678,24.042 z"
         id="path102"
         inkscape:connector-curvature="0" />
      <path
         d="m 615.01,812.74 c -2.0043,-2.5855 -8.994,-19.904 -5.8336,-22.362 1.0408,-1.7026 1.8888,-1.517 4.331,-0.88389 -4.4098,9.7993 0.30174,15.52 1.9445,23.158 z"
         id="path104"
         inkscape:connector-curvature="0"
         style="fill:url(#l)" />
    </g>
    <g
       transform="matrix(0.94856,-0.31658,0.31658,0.94856,-277.06,266.35)"
       id="g130">
      <path
         d="m 710.63,823.22 c 0.24891,1.0003 -2.6579,9.9089 -2.6579,9.9089 l 8.6927,12.083 1.9018,-11.064 z"
         id="path108"
         inkscape:connector-curvature="0" />
      <path
         d="m 711.01,825 c 0.2489,1.0003 -2.2587,7.9975 -2.2587,7.9975 l 7.5656,10.63 1.5355,-8.9579 z"
         id="path110"
         inkscape:connector-curvature="0"
         style="fill:url(#q)" />
      <path
         d="m 661.85,762.27 57.452,75.13 c 1.2106,-0.78778 2.7432,-0.60932 3.5355,-2.6516 l -58.336,-74.6 z"
         id="path112"
         inkscape:connector-curvature="0" />
      <path
         d="m 663.8,763.33 55.508,72.478 c 1.2106,-0.78778 1.329,0.62812 2.1213,-1.4142 l -57.276,-73.009 z"
         id="path114"
         inkscape:connector-curvature="0"
         style="fill:url(#p)" />
      <path
         d="m 699.06,788.64 c -11.319,-5.6689 -29.053,9.2317 -19.803,11.386 -8.5963,5.4324 -1.1852,15.584 11.163,12.65 0,0 -6.019,7.471 5.1246,6.3648 10.838,-1.0759 31.971,-19.319 3.516,-30.401 z"
         id="path116"
         inkscape:connector-curvature="0" />
      <path
         d="m 699.95,790.94 c -11.319,-5.6689 -27.108,6.4033 -17.859,8.5578 -8.5963,5.4324 -2.0691,14.346 10.279,11.413 0,0 -6.5134,6.9028 4.5943,5.4809 9.7811,-1.2521 27.247,-15.068 2.9856,-25.451 z"
         id="path118"
         inkscape:connector-curvature="0"
         style="fill:url(#g)" />
      <path
         d="m 661.32,766.51 c 1.7743,4.1399 9.2817,-2.5916 9.3692,-6.1872 0.0298,-1.223 -13.84,-12.014 -16.794,-10.783 -0.35255,5.6569 3.1082,11.314 7.4246,16.971 z"
         id="path120"
         inkscape:connector-curvature="0" />
      <path
         d="m 661.32,764.04 c 1.7743,4.1399 7.5139,0.0601 7.6014,-3.5355 0.0298,-1.223 -11.012,-11.13 -13.965,-9.8995 -0.35255,5.6569 2.0475,7.7782 6.364,13.435 z"
         id="path122"
         inkscape:connector-curvature="0"
         style="fill:url(#o)" />
      <path
         d="m 711.79,823.44 c 0.88389,0.53033 10.253,0.35355 10.253,0.35355 l 9.0156,11.844 -11.137,-1.4142 z"
         id="path124"
         inkscape:connector-curvature="0" />
      <path
         d="m 713.38,824.32 c 0.88389,0.53033 8.3085,0.17678 8.3085,0.17678 l 7.955,10.341 -9.0156,-1.149 z"
         id="path126"
         inkscape:connector-curvature="0"
         style="fill:url(#n)" />
      <path
         transform="matrix(0.94856,0.31658,-0.31658,0.94856,347.13,-164.93)"
         d="m 589.37,773.23 c -0.58734,-0.51607 -4.9875,-2.0677 -6.1872,-1.7678 -0.17081,2.8682 1.514,4.3446 3.182,5.8336 0,0 -2.1213,-5.1265 3.0052,-4.0659 z"
         id="path128"
         inkscape:connector-curvature="0"
         style="fill:#ffffff" />
    </g>
    <g
       transform="translate(-59,4.25)"
       id="g140">
      <path
         d="m 666.5,741.61 c 0,8.1462 -6.9396,14.75 -15.5,14.75 -8.5604,0 -15.5,-6.6038 -15.5,-14.75 0,-8.1462 6.9396,-14.75 15.5,-14.75 8.5604,0 15.5,6.6038 15.5,14.75 z"
         id="path132"
         inkscape:connector-curvature="0" />
      <path
         transform="matrix(0.91935,0,0,0.92373,52.5,56.689)"
         d="m 666.5,741.61 c 0,8.1462 -6.9396,14.75 -15.5,14.75 -8.5604,0 -15.5,-6.6038 -15.5,-14.75 0,-8.1462 6.9396,-14.75 15.5,-14.75 8.5604,0 15.5,6.6038 15.5,14.75 z"
         id="path134"
         inkscape:connector-curvature="0"
         style="fill:#ffffff" />
      <path
         transform="matrix(0.54032,0,0,0.51695,295.62,360.61)"
         d="m 666.5,741.61 c 0,8.1462 -6.9396,14.75 -15.5,14.75 -8.5604,0 -15.5,-6.6038 -15.5,-14.75 0,-8.1462 6.9396,-14.75 15.5,-14.75 8.5604,0 15.5,6.6038 15.5,14.75 z"
         id="path136"
         inkscape:connector-curvature="0" />
      <path
         transform="matrix(0.29032,0,0,0.27776,454.25,531.47)"
         d="m 666.5,741.61 c 0,8.1462 -6.9396,14.75 -15.5,14.75 -8.5604,0 -15.5,-6.6038 -15.5,-14.75 0,-8.1462 6.9396,-14.75 15.5,-14.75 8.5604,0 15.5,6.6038 15.5,14.75 z"
         id="path138"
         inkscape:connector-curvature="0"
         style="fill:#ffffff" />
    </g>
  </g>
</svg>
