<?xml version="1.0" encoding="UTF-8" standalone="no"?>
<svg
   xmlns:dc="http://purl.org/dc/elements/1.1/"
   xmlns:cc="http://creativecommons.org/ns#"
   xmlns:rdf="http://www.w3.org/1999/02/22-rdf-syntax-ns#"
   xmlns:svg="http://www.w3.org/2000/svg"
   xmlns="http://www.w3.org/2000/svg"
   xmlns:xlink="http://www.w3.org/1999/xlink"
   xmlns:sodipodi="http://sodipodi.sourceforge.net/DTD/sodipodi-0.dtd"
   xmlns:inkscape="http://www.inkscape.org/namespaces/inkscape"
   viewBox="0 0 70 70"
   version="1.1"
   id="svg89"
   sodipodi:docname="star3.svg"
   width="70"
   height="70"
   inkscape:version="0.92.3 (2405546, 2018-03-11)">
  <metadata
     id="metadata93">
    <rdf:RDF>
      <cc:Work
         rdf:about="">
        <dc:format>image/svg+xml</dc:format>
        <dc:type
           rdf:resource="http://purl.org/dc/dcmitype/StillImage" />
        <dc:title></dc:title>
      </cc:Work>
    </rdf:RDF>
  </metadata>
  <sodipodi:namedview
     pagecolor="#ffffff"
     bordercolor="#666666"
     borderopacity="1"
     objecttolerance="10"
     gridtolerance="10"
     guidetolerance="10"
     inkscape:pageopacity="0"
     inkscape:pageshadow="2"
     inkscape:window-width="2560"
     inkscape:window-height="1412"
     id="namedview91"
     showgrid="false"
     inkscape:zoom="10.429825"
     inkscape:cx="81.795373"
     inkscape:cy="49.327165"
     inkscape:window-x="3840"
     inkscape:window-y="0"
     inkscape:window-maximized="1"
     inkscape:current-layer="svg89" />
  <defs
     id="defs27">
    <linearGradient
       id="a">
      <stop
         stop-color="#fff"
         offset="0"
         id="stop2" />
      <stop
         stop-color="#d5d5d5"
         offset="1"
         id="stop4" />
    </linearGradient>
    <linearGradient
       id="i"
       x1="271.82001"
       x2="274.26001"
       y1="524.10999"
       y2="532.17999"
       gradientUnits="userSpaceOnUse">
      <stop
         stop-color="#b9a165"
         offset="0"
         id="stop7" />
      <stop
         stop-color="#978045"
         offset="1"
         id="stop9" />
    </linearGradient>
    <linearGradient
       id="h"
       x1="238.47"
       x2="225.73"
       y1="552.31"
       y2="569.94"
       gradientUnits="userSpaceOnUse">
      <stop
         stop-color="#404040"
         offset="0"
         id="stop12" />
      <stop
         stop-color="#636363"
         offset="1"
         id="stop14" />
    </linearGradient>
    <linearGradient
       id="g"
       x1="367.67001"
       x2="378.26999"
       y1="330.75"
       y2="342.06"
       gradientUnits="userSpaceOnUse"
       xlink:href="#a" />
    <radialGradient
       id="f"
       cx="163.92999"
       cy="284.48001"
       r="108.01"
       gradientTransform="matrix(1.0021,-0.00822,0.02281,1.1172,-6.8386,-33.021)"
       gradientUnits="userSpaceOnUse">
      <stop
         stop-color="#fff000"
         offset="0"
         id="stop18" />
      <stop
         stop-color="#fc0"
         offset="1"
         id="stop20" />
    </radialGradient>
    <radialGradient
       id="e"
       cx="455.34"
       cy="326.35999"
       r="33.596001"
       gradientTransform="matrix(1,0,0,0.54758,0,150.9)"
       gradientUnits="userSpaceOnUse"
       xlink:href="#a" />
    <radialGradient
       id="d"
       cx="506.75"
       cy="320.34"
       r="32.75"
       gradientTransform="matrix(1,0,0,0.59607,0,137.4)"
       gradientUnits="userSpaceOnUse"
       xlink:href="#a" />
    <radialGradient
       id="c"
       cx="502.10999"
       cy="260.34"
       r="26.274"
       gradientTransform="matrix(0.79551,0.44121,-0.42087,0.75885,209.13,-150.23)"
       gradientUnits="userSpaceOnUse"
       xlink:href="#a" />
    <radialGradient
       id="b"
       cx="502.10999"
       cy="260.34"
       r="26.274"
       gradientTransform="matrix(-0.73157,0.19305,0.18415,0.69785,770.56,-16.417)"
       gradientUnits="userSpaceOnUse"
       xlink:href="#a" />
  </defs>
  <g
     transform="matrix(0.32356118,0,0,0.38227778,-118.28722,-80.596636)"
     id="g87">
    <path
       d="m 533.59,391.78 c -7.758,4.9515 -51.674,-30.669 -61.26,-31.498 -10.595,-0.91686 -55.723,24.322 -64.327,18.41 -7.784,-5.3482 15.427,-50.127 13.053,-58.681 -2.6232,-9.456 -44.936,-41.227 -41.679,-50.354 2.9473,-8.2569 55.701,-0.51282 63.82,-4.9705 8.9741,-4.9273 27.419,-53.373 38.037,-53.102 9.6055,0.24518 23.176,48.509 30.567,54.309 8.1695,6.4108 64.337,10.75 67.641,20.044 2.9892,8.4085 -45.54,31.749 -49.091,39.791 -3.925,8.8894 11.813,60.579 3.2376,66.052 z"
       id="path29"
       inkscape:connector-curvature="0" />
    <path
       transform="matrix(0.856,0.09428,-0.07745,0.77859,359.45,83.166)"
       d="m 228,358.36 c -8.3958,7.3762 -52.206,-29.648 -63.378,-29.361 -12.349,0.31773 -59.273,39.102 -69.895,32.795 -9.6096,-5.7055 12.065,-58.812 8.339,-69.349 -4.1182,-11.646 -55.504,-44.289 -52.789,-56.34 2.4567,-10.902 59.662,-6.6998 68.532,-13.499 9.8038,-7.5156 24.969,-66.474 37.27,-67.615 11.128,-1.0326 24.809,54.672 34.016,61.006 10.177,7.0015 70.936,3.2058 75.823,14.551 4.4208,10.264 -44.33,40.489 -47.509,51.203 -3.5139,11.843 18.872,68.455 9.5914,76.608 z"
       id="path31"
       inkscape:connector-curvature="0"
       style="fill:url(#f)" />
    <path
       d="m 480.25,219.62 c -8.4059,4.1632 -12.06,13.93 -17.123,21.336 -6.1476,9.21 -10.073,20.623 -18.815,27.633 -11.521,3.2561 -23.939,0.3831 -35.781,0.5558 -7.6113,0.40159 -16.667,-1.7671 -23.282,2.663 -1.0074,4.7277 5.2583,10.197 6.625,11.906 -2.7163,-3.3291 -1.2603,-8.5592 3.2812,-9 18.09,-3.6678 37.051,1.9636 55.094,-1.125 8.0178,-5.4877 11.252,-15.837 16.632,-23.657 5.7488,-8.7876 10.018,-19.636 19.181,-25.343 -1.2411,-1.987 -2.9425,-5.4746 -5.8125,-4.9688 z m 31.969,53.844 c 4.9982,5.4439 13.796,4.8436 20.444,6.9188 11.608,2.0376 24.767,4.4142 35.306,7.1124 -7.8906,-6.5111 -19.165,-6.6187 -28.812,-9.0625 -9.0837,-1.7401 -18.265,-3.0657 -27.219,-5.4062 l 0.28125,0.4375 z m -86.406,46.281 c 1.3435,8.8576 -4.3902,17.272 -6.8296,25.62 -2.7109,8.6048 -8.2024,17.575 -6.6704,26.724 1.4543,2.2296 6.5897,2.5468 5.7274,-1.2931 2.9956,-14.622 11.781,-27.795 13.648,-42.519 -0.33311,-3.359 -4.6758,-7.4207 -5.875,-8.5312 z"
       id="path33"
       inkscape:connector-curvature="0"
       style="fill:#fee800" />
    <path
       d="m 448.06,324.67 c 16.853,-2.9204 33.705,-0.61828 50.558,3.0052 0,0 -32.704,37.3 -50.558,-3.0052 z"
       id="path35"
       inkscape:connector-curvature="0" />
    <path
       d="m 472.5,321.36 c 0,0 1.25,-13 16.75,-15.25 25.803,-1.4361 32.312,36.541 55.75,30.75 0,0 -15,13.5 -27.75,12.75 -18.305,-1.0768 -43.75,-1.25 -44.75,-28.25 z"
       id="path37"
       inkscape:connector-curvature="0" />
    <path
       d="m 474,321.36 c 0,0 0,-10.25 15.5,-12.5 25.803,-1.4361 26.562,34.791 50,29 0,0 -10.25,10 -19.75,10 -18.337,0 -44.75,0.5 -45.75,-26.5 z"
       id="path39"
       inkscape:connector-curvature="0"
       style="fill:url(#d)" />
    <path
       d="m 473.15,321.47 c 0,0 0.92129,-12.401 -14.117,-16.779 -25.355,-5.0002 -36.379,30.271 -58.788,21.287 0,0 11.764,14.825 21.173,16.142 18.16,2.5427 46.998,5.9503 51.733,-20.65 z"
       id="path41"
       inkscape:connector-curvature="0" />
    <path
       d="m 471.4,320.47 c 0,0 1.4213,-10.151 -13.617,-14.529 -25.355,-5.0002 -31.129,30.771 -53.538,21.787 0,0 8.7644,11.325 18.173,12.642 18.16,2.5427 44.248,6.7003 48.983,-19.9 z"
       id="path43"
       inkscape:connector-curvature="0"
       style="fill:url(#e)" />
    <g
       transform="matrix(1.156,0.08718,-0.08718,1.156,182.41,-297.24)"
       id="g51"
       style="fill-rule:evenodd">
      <path
         d="m 260.78,525.73 c -6.2281,5.562 -9.9812,17.506 -13.072,23.505 -4.3959,3.2321 -5.5005,-3.0987 -7.8415,-5.4247 -4.6813,-5.3064 -10.283,-9.9558 -17.212,-11.57 -8.4865,2.3012 -16.692,7.6756 -18.775,16.636 -1.2716,3.7084 2.2042,7.7002 4.3967,10.305 5.4993,5.7988 11.883,10.692 19.853,12.526 8.5173,1.2963 16.367,-1.0613 23.397,-6.0151 5.8551,-4.0587 7.622,-10.951 9.7801,-17.283 1.4925,-4.2435 4.1057,-12.21 5.7305,-13.278 2.5443,0.74848 -4.8461,-5.718 -6.2572,-9.4002 z"
         id="path45"
         inkscape:connector-curvature="0"
         style="fill:url(#h)" />
      <path
         d="m 259.97,524.29 c 0,0 16.526,-4.4822 25.246,-2.6116 2.7205,0.87055 5.2233,0.54409 4.8968,2.6116 -0.3265,2.06751 -1.2941,4.9616 -3.4705,4.9616 -7.4264,-2.5 -17.786,5.6748 -18.874,6.2189 -1.8382,-1.4559 -5.7775,-7.9438 -7.7982,-11.18 z"
         id="path47"
         inkscape:connector-curvature="0"
         style="fill:url(#i)" />
      <path
         d="m 277.62,520.75 c -6.3561,0.139 -12.842,1.0374 -18.625,3.8125 3.2584,2.2734 -2.0404,4.2112 -3.125,6.1875 -4.8135,5.1267 -3.7786,13.262 -8.7188,18.281 -4.3959,3.2321 -5.0652,-3.6428 -7.4062,-5.9688 -4.0284,-5.6328 -10.391,-10.826 -17.43,-11.57 -8.4865,2.3012 -17.019,8.2197 -19.102,17.18 -1.2716,3.7084 1.8777,7.9178 4.0703,10.523 5.4993,5.7988 12.21,11.127 20.18,12.961 8.5173,1.2963 17.564,-0.95245 24.594,-5.9062 5.8551,-4.0587 7.4044,-11.387 9.5625,-17.719 1.4925,-4.2435 2.2558,-8.9454 4.9688,-12.625 2.5443,0.74848 4.7833,-2.1548 7.3125,-3.375 3.8491,-2.3353 8.838,-5.0183 13.219,-2.3438 2.3401,-1.1795 5.7784,-4.7006 3.375,-7.3438 -3.1423,-2.2145 -7.5163,-1.8436 -11.281,-2.0938 -0.52965,-0.005 -1.0642,-0.009 -1.5938,0 z m 0,1 c 3.9386,0.10695 7.6269,-0.3461 11.235,1.3594 2.4904,2.8164 -1.5776,6.3621 -4.7033,5.0468 -5.4215,-0.51527 -9.7351,2.5395 -14.102,5.2346 -0.63769,0.44641 -1.7169,1.1826 -2.4921,1.3279 -1.3252,-1.0139 -3.053,-3.472 -4.4062,-5.75 -1.1807,-1.9874 -1.7661,-3.2204 -2.0312,-3.75 -0.006,-0.1639 0.0421,-0.348 0,-0.5 5.2146,-2.111 10.908,-2.8446 16.5,-2.9688 z m -16.844,4.3596 c 0.44262,0.84788 0.14921,2.3247 1.0236,3.7966 1.2386,2.085 3.2258,3.7941 4.6952,5.1251 -0.91394,0.28853 -1.7203,0.77162 -2.0312,2.2188 -3.5334,7.8964 -5.3751,16.398 -9.867,23.875 -5.1136,6.6827 -13.451,9.0409 -21.563,9.5626 -6.537,0.64632 -12.354,-1.633 -17.258,-5.6878 -4.2812,-3.6023 -8.7557,-7.4089 -11.281,-12.5 -0.51905,-4.9227 2.5853,-9.5391 6.0312,-12.812 3.4598,-3.1986 7.742,-5.457 12.281,-6.6875 9.228,1.3415 16.387,8.986 19.812,17.281 3.4363,2.0873 6.7796,-1.2836 7.875,-4.375 2.5344,-5.1917 2.6071,-11.671 7.25,-15.688 1.2867,-0.85039 2.4487,-2.8197 3.0312,-4.1092 z m -37.656,7.5467 c -5.7265,1.799 -11.133,5.2757 -14.312,10.469 -1.4929,2.4415 -2.6043,5.162 -3.0312,8 -0.0204,1.3019 1.5655,1.7776 2.5938,1.3125 2.291,-0.64392 4.2384,-2.0929 6.0938,-3.5312 2.2623,-1.8718 4.3567,-3.9342 6.3438,-6.0938 1.6505,-1.8676 3.3068,-3.9812 3.625,-6.5312 0.10195,-1.3184 -0.38647,-2.6797 -1.3125,-3.625 z"
         id="path49"
         inkscape:connector-curvature="0" />
    </g>
    <g
       transform="translate(-31,24.75)"
       id="g61">
      <path
         d="m 535.75,261.49 c 0,6.5584 -5.3166,11.875 -11.875,11.875 -6.5584,0 -11.875,-5.3166 -11.875,-11.875 0,-6.5584 5.3166,-11.875 11.875,-11.875 6.5584,0 11.875,5.3166 11.875,11.875 z"
         id="path53"
         inkscape:connector-curvature="0" />
      <path
         transform="matrix(0.86316,0,0,0.84211,71.313,41.162)"
         d="m 535.75,261.49 c 0,6.5584 -5.3166,11.875 -11.875,11.875 -6.5584,0 -11.875,-5.3166 -11.875,-11.875 0,-6.5584 5.3166,-11.875 11.875,-11.875 6.5584,0 11.875,5.3166 11.875,11.875 z"
         id="path55"
         inkscape:connector-curvature="0"
         style="fill:#ffffff" />
      <path
         transform="matrix(0.43158,0,0,0.43158,296.78,149.38)"
         d="m 535.75,261.49 c 0,6.5584 -5.3166,11.875 -11.875,11.875 -6.5584,0 -11.875,-5.3166 -11.875,-11.875 0,-6.5584 5.3166,-11.875 11.875,-11.875 6.5584,0 11.875,5.3166 11.875,11.875 z"
         id="path57"
         inkscape:connector-curvature="0" />
      <path
         transform="matrix(0.22105,0,0,0.22105,404.82,202.93)"
         d="m 535.75,261.49 c 0,6.5584 -5.3166,11.875 -11.875,11.875 -6.5584,0 -11.875,-5.3166 -11.875,-11.875 0,-6.5584 5.3166,-11.875 11.875,-11.875 6.5584,0 11.875,5.3166 11.875,11.875 z"
         id="path59"
         inkscape:connector-curvature="0"
         style="fill:#ffffff" />
    </g>
    <g
       transform="translate(-68.25,20.5)"
       id="g71">
      <path
         d="m 535.75,261.49 c 0,6.5584 -5.3166,11.875 -11.875,11.875 -6.5584,0 -11.875,-5.3166 -11.875,-11.875 0,-6.5584 5.3166,-11.875 11.875,-11.875 6.5584,0 11.875,5.3166 11.875,11.875 z"
         id="path63"
         inkscape:connector-curvature="0" />
      <path
         transform="matrix(0.86316,0,0,0.84211,71.313,41.162)"
         d="m 535.75,261.49 c 0,6.5584 -5.3166,11.875 -11.875,11.875 -6.5584,0 -11.875,-5.3166 -11.875,-11.875 0,-6.5584 5.3166,-11.875 11.875,-11.875 6.5584,0 11.875,5.3166 11.875,11.875 z"
         id="path65"
         inkscape:connector-curvature="0"
         style="fill:#ffffff" />
      <path
         transform="matrix(0.43158,0,0,0.43158,296.78,149.38)"
         d="m 535.75,261.49 c 0,6.5584 -5.3166,11.875 -11.875,11.875 -6.5584,0 -11.875,-5.3166 -11.875,-11.875 0,-6.5584 5.3166,-11.875 11.875,-11.875 6.5584,0 11.875,5.3166 11.875,11.875 z"
         id="path67"
         inkscape:connector-curvature="0" />
      <path
         transform="matrix(0.22105,0,0,0.22105,404.82,202.93)"
         d="m 535.75,261.49 c 0,6.5584 -5.3166,11.875 -11.875,11.875 -6.5584,0 -11.875,-5.3166 -11.875,-11.875 0,-6.5584 5.3166,-11.875 11.875,-11.875 6.5584,0 11.875,5.3166 11.875,11.875 z"
         id="path69"
         inkscape:connector-curvature="0"
         style="fill:#ffffff" />
    </g>
    <path
       d="m 429.84,274.75 c -0.83015,0.051 -1.6852,0.2218 -2.5625,0.5 -3.838,1.391 -2.8953,4.2444 0.4375,6 -1.3512,1.5213 -2.4017,3.5907 -3.0938,6.3438 -1.2396,10.4 9.0031,16.798 16.969,18.844 8.6654,1.889 21.39,0.15414 23.812,-8.8125 0.84414,-2.6171 1.0552,-4.8632 0.78125,-6.7812 5.0634,-1.4259 9.1805,-0.93362 12.188,1.75 -0.91204,1.6887 -1.478,3.8052 -1.625,6.4375 0.75194,10.446 12.041,14.78 20.25,15.281 8.8663,0.2141 21.038,-3.8931 21.719,-13.156 0.38013,-3.1128 0.0383,-5.5683 -0.8125,-7.5312 3.8919,-0.55838 5.8512,-3.0484 2.5625,-5.625 -2.9574,-2.129 -6.1996,-2.5849 -9.0938,-0.1875 -3.9567,-1.5425 -8.8164,-1.8338 -12.906,-1.9688 -7.7296,0.0129 -14.671,0.46936 -18.531,4.5938 -3.6884,-3.4737 -8.5348,-3.8462 -14.312,-1.75 -2.3956,-6.2864 -10.776,-8.4732 -17.219,-9.9375 -4.5852,-0.8763 -8.9054,-1.4991 -12.625,-1.1562 -1.4882,-2.1516 -3.588,-2.988 -5.9375,-2.8438 z m 0.53125,1.8125 c 0.67645,0.05 1.1569,0.53752 1.9688,1.7188 -1.0467,0.3473 -2.0202,0.80628 -2.9062,1.4375 -2.1996,-0.99172 -4.1214,-1.5862 -0.96875,-2.7188 0.86389,-0.29196 1.4312,-0.47259 1.9062,-0.4375 z m 7,3 c 3.3868,-0.0503 7.145,1.006 10.75,1.7812 12.937,3.3661 18.11,3.5012 15.094,15.719 -3.5608,9.1513 -13.426,8.2563 -20.906,6.5 -7.9181,-2.2056 -16.775,-6.5276 -14.875,-15.094 1.8698,-6.9005 5.583,-8.8415 9.9375,-8.9062 z m 79.281,8.6562 c 0.62091,-0.058 1.183,0.33368 2.1562,1.0625 2.7394,2.1337 0.44934,2.0206 -2.0625,2.3125 -0.62956,-0.82873 -1.4116,-1.5229 -2.25,-2.125 0.99261,-0.77067 1.6098,-1.199 2.1562,-1.25 z m -24.375,0.0625 c 2.1012,-0.0222 4.2996,0.1113 6.4062,0.15625 13.34,0.85566 18.43,0.0264 17.781,12.594 -1.7636,9.66 -11.635,10.652 -19.312,10.344 -8.1925,-0.66648 -17.712,-3.2604 -17.469,-12.031 0.70581,-9.5063 6.29,-10.996 12.594,-11.062 z"
       id="path73"
       inkscape:connector-curvature="0" />
    <path
       d="m 476.75,265.36 c 0,0 -6.5058,-14.397 13.25,-10.5 13.531,2.6694 14.696,10.713 45.25,12.75 -3.3399,3.7728 -36.246,20.768 -58.5,-2.25 z"
       id="path75"
       inkscape:connector-curvature="0" />
    <path
       d="m 480.25,266.36 c 0,0 -9.0058,-13.647 10.75,-9.75 13.531,2.6694 9.1959,9.4631 39.75,11.5 -3.9516,1.0202 -28.966,18.029 -50.5,-1.75 z"
       id="path77"
       inkscape:connector-curvature="0"
       style="fill:url(#c)" />
    <path
       d="m 469.83,263.92 c 0,0 8.1889,-10.277 -8.5354,-11.174 -11.455,-0.61472 -14.039,5.6321 -39.088,1.0269 1.9212,3.7246 24.976,24.155 47.624,10.148 z"
       id="path79"
       inkscape:connector-curvature="0" />
    <path
       d="m 466.8,264.01 c 0,0 10.051,-9.1612 -6.6732,-10.059 -11.455,-0.61472 -9.3488,5.7489 -34.398,1.1437 2.9772,1.6304 19.666,20.458 41.072,8.9149 z"
       id="path81"
       inkscape:connector-curvature="0"
       style="fill:url(#b)" />
    <path
       d="m 373.01,313.91 c 0,0 -13.319,28.727 2.1213,32.88 12.239,3.292 5.3033,-2.8284 -2.1213,-32.88 z"
       id="path83"
       inkscape:connector-curvature="0" />
    <path
       d="m 372.65,319.39 c 0.27913,0.13956 -11.005,22.913 3.182,25.456 8.9504,1.6039 2.6516,-1.591 -3.182,-25.456 z"
       id="path85"
       inkscape:connector-curvature="0"
       style="fill:url(#g)" />
  </g>
</svg>
