<?xml version="1.0" encoding="UTF-8"?>
<svg viewBox="0 0 256 256" xmlns="http://www.w3.org/2000/svg" xmlns:xlink="http://www.w3.org/1999/xlink">
 <defs>
  <linearGradient id="d">
   <stop stop-color="#27a027" offset="0"/>
   <stop stop-color="#2beb2b" offset="1"/>
  </linearGradient>
  <linearGradient id="c">
   <stop stop-color="#404040" offset="0"/>
   <stop stop-color="#636363" offset="1"/>
  </linearGradient>
  <linearGradient id="e">
   <stop stop-color="#d40000" offset="0"/>
   <stop stop-color="#ff0d00" offset="1"/>
  </linearGradient>
  <linearGradient id="a">
   <stop stop-color="#fff000" offset="0"/>
   <stop stop-color="#fc0" offset="1"/>
  </linearGradient>
  <linearGradient id="r" x1="695.5" x2="689.5" y1="720.36" y2="722.36" gradientUnits="userSpaceOnUse">
   <stop stop-color="#b9a165" offset="0"/>
   <stop stop-color="#978045" offset="1"/>
  </linearGradient>
  <linearGradient id="q" x1="721.07" x2="727.79" y1="830.51" y2="830.15" gradientTransform="matrix(-.29221 .95636 .95636 .29221 130.72 -99.81)" gradientUnits="userSpaceOnUse" xlink:href="#e"/>
  <linearGradient id="p" x1="694.03" x2="695.79" y1="802.22" y2="800.81" gradientUnits="userSpaceOnUse" xlink:href="#c"/>
  <linearGradient id="o" x1="660.79" x2="664.15" y1="759.97" y2="757.32" gradientUnits="userSpaceOnUse" xlink:href="#c"/>
  <linearGradient id="n" x1="719.57" x2="726.29" y1="829.62" y2="829.27" gradientUnits="userSpaceOnUse" xlink:href="#e"/>
  <linearGradient id="m" x1="608.11" x2="628.44" y1="810.18" y2="815.3" gradientUnits="userSpaceOnUse" xlink:href="#d"/>
  <linearGradient id="l" x1="607.85" x2="616.07" y1="801.11" y2="800.58" gradientUnits="userSpaceOnUse" xlink:href="#d"/>
  <radialGradient id="b" cx="674" cy="696.39" r="27.994" gradientTransform="matrix(-.23219 -1.4735 .83426 -.13146 249.52 1781.1)" gradientUnits="userSpaceOnUse">
   <stop stop-color="#fff" offset="0"/>
   <stop stop-color="#d5d5d5" offset="1"/>
  </radialGradient>
  <radialGradient id="f" cx="168.57" cy="276.25" r="108.01" gradientTransform="matrix(.99972 .02347 -.0251 1.0693 6.5379 -21.654)" gradientUnits="userSpaceOnUse" xlink:href="#a"/>
  <radialGradient id="k" cx="704.86" cy="715.06" r="14.641" gradientTransform="matrix(-1.0814 -.93579 .52925 -.61158 1082.8 1814.1)" gradientUnits="userSpaceOnUse" xlink:href="#a"/>
  <radialGradient id="j" cx="687.05" cy="708.41" r="9.6825" gradientTransform="matrix(.77988 .28301 -.20762 .57212 297.81 107.45)" gradientUnits="userSpaceOnUse" xlink:href="#a"/>
  <radialGradient id="i" cx="687.37" cy="715.9" r="10.189" gradientTransform="matrix(1 0 0 .60143 0 285.13)" gradientUnits="userSpaceOnUse" xlink:href="#a"/>
  <radialGradient id="h" cx="695.66" cy="722.55" r="9.6837" gradientTransform="matrix(1 0 0 .74705 1.25 183.46)" gradientUnits="userSpaceOnUse" xlink:href="#a"/>
  <radialGradient id="g" cx="706.22" cy="807.7" r="18.885" gradientTransform="matrix(-1.4603 -.74887 .38408 -.74897 1427.3 1940.8)" gradientUnits="userSpaceOnUse" xlink:href="#a"/>
 </defs>
 <g transform="translate(-480.05 -648.3)">
  <g transform="matrix(.93575 -.35266 .35266 .93575 -284.73 309.18)">
   <path d="m650.25 684.86s-5.5 28.25 2.25 34 15.5-15.75 15.5-15.75l14.75-3.25c19.83-2.9467 20.095-8.8647-6.5-6.75 52.827-4.4362 17.916-11.625 1.75-9.25 49.932-3.4703 9.4791-9.6891-0.25-10.25-4.8753-0.28107-21.5-5.75-27.5 11.25z"/>
   <path d="m651.49 685.57s-6.2071 26.482 1.5429 32.232 14.439-16.811 14.439-16.811l14.75-1.659c19.83-2.9467 17.62-7.2737-9.682-5.8661 53.534-5.8504 20.39-10.565 0.86612-9.4268 50.108-5.0613 14.075-8.6284 4.3462-9.1893-4.8753-0.28107-20.263-6.2803-26.263 10.72z" fill="url(#b)"/>
  </g>
  <g transform="matrix(.9985 .05467 -.05467 .9985 33.071 -3.9335)">
   <path d="m650.25 684.86s-5.5 28.25 2.25 34 15.5-15.75 15.5-15.75l14.75-3.25c19.83-2.9467 20.095-8.8647-6.5-6.75 52.827-4.4362 17.916-11.625 1.75-9.25 49.932-3.4703 9.4791-9.6891-0.25-10.25-4.8753-0.28107-21.5-5.75-27.5 11.25z"/>
   <path d="m651.49 685.57s-6.2071 26.482 1.5429 32.232 14.439-16.811 14.439-16.811l14.75-1.659c19.83-2.9467 17.62-7.2737-9.682-5.8661 53.534-5.8504 20.39-10.565 0.86612-9.4268 50.108-5.0613 14.075-8.6284 4.3462-9.1893-4.8753-0.28107-20.263-6.2803-26.263 10.72z" fill="url(#b)"/>
  </g>
  <path transform="matrix(.78048 .05526 -.05526 .78048 507.5 558.69)" d="m232.15 362.48c-12.069 10.603-52.885-30.483-68.945-30.07-17.752 0.45673-56.351 40.88-71.62 31.814-13.814-8.2016 12.009-54.635 6.6533-69.781-5.9199-16.742-55.24-41.878-51.336-59.201 3.5315-15.672 56.175-5.9598 68.925-15.734 14.093-10.804 23.353-67.345 41.035-68.985 15.996-1.4843 22.073 54.568 35.308 63.673 14.63 10.065 71.66-0.30532 78.684 16.004 6.3548 14.755-44.508 37.016-49.078 52.417-5.0512 17.024 23.714 68.143 10.374 79.863z"/>
  <path transform="matrix(.78048 .05526 -.05526 .78048 507.5 558.69)" d="m228 358.36c-12.069 10.603-47.318-29.774-63.378-29.361-17.752 0.45673-54.626 41.861-69.895 32.795-13.814-8.2016 13.695-54.203 8.339-69.349-5.9199-16.742-56.692-39.017-52.789-56.34 3.5315-15.672 55.782-3.7251 68.532-13.499 14.093-10.804 19.588-65.975 37.27-67.615 15.996-1.4843 20.78 51.901 34.016 61.006 14.63 10.065 68.799-1.7578 75.823 14.551 6.3548 14.755-42.939 35.801-47.509 51.203-5.0512 17.024 22.932 64.888 9.5914 76.608z" fill="url(#f)"/>
  <path d="m620.19 689.31c-8.7628 2.8293-11.368 13.317-15.247 20.727-5.1352 10.17-7.6549 22.998-17.065 30.179-12.78 4.6733-26.885 0.20519-40.188 0.9375-4.8534 3e-3 -14.301 0.68569-13.188 7.7188 0.41898 2.8804 2.943 6.9846 4.4375 7.6562 1.412-7.4512 11.236-7.4254 17.188-7.4688 12.344-0.47817 25.452 3.4508 37.312-0.75 9.4611-8.0109 11.772-21.322 17.351-31.918 3.8128-7.2375 7.1733-17.934 16.43-19.207 2.3968-0.0134-1.4722-4.5696-2.4688-5.9375-1.1307-1.3306-2.7696-2.1848-4.5625-1.9375z" fill="#fee800"/>
  <g transform="matrix(.99495 .10038 -.10038 .99495 -78.479 15.09)">
   <path d="m681.11 706.18c14.615-4.5671 12.483-7.0029 21.618-2.7403s7.4508 21.461-0.76997 22.983-29.068-9.8909-20.848-20.243z"/>
   <path d="m687.22 643.44c-11.288 25.013-10.847 53.565-0.8125 76.875s29.685 41.411 56.688 45.469c3.7836-1.5202 1.944-2.5404 0.44914-4.0607-26.641-4.0032-39.206-19.474-49.128-42.521s-14.55-48.02-3.383-72.763c0.80897-4.2208-1.0287-5.1164-3.8131-2.9982z"/>
   <path d="m681.72 707.39c14.615-4.5671 10.888-6.3341 20.022-2.0715s6.4215 17.977-1.7993 19.5-26.443-7.076-18.223-17.428z" fill="url(#k)"/>
   <path d="m687.75 644.5c-11.288 25.013-9.6099 52.858 0.42494 76.168s27.21 39.997 54.213 44.055c3.7836-1.5202 1.2369-0.94945-0.25796-2.4697-26.641-4.0032-38.852-19.474-48.775-42.521s-14.903-48.374-3.7365-73.117c0.80897-4.2208 0.91587-4.2325-1.8686-2.1143z" fill="url(#r)"/>
   <path d="m682.65 699.85s-6.4455 0.61164-7.6899 5.5146c-2.6004 10.245 18.159 5.6136 19.14 1.4378-0.6998-4.9458-8.3964-7.5342-11.45-6.9524z"/>
   <path d="m678.69 710.93s-6.1354 0.58499-5.4112 4.1572c2.7013 13.325 21.08 2.6804 20.293-2.8265-0.60663-4.2464-9.237-3.2983-14.882-1.3307z"/>
   <path d="m687.39 718.86s-5.5519 1.9768-4.2139 5.3672c4.6291 11.73 25.075 1.7502 17.489-7.4745-2.7246-3.313-8.2924-1.1962-13.275 2.1073z"/>
   <path d="m682.65 702.9s-2.6312-1.2569-4.6452 3.3832c-3.4563 7.9632 11.902 1.0573 14.421 0.98111-0.6998-4.9458-6.7218-4.9462-9.7754-4.3644z" fill="url(#j)"/>
   <path d="m680.22 712.61s-6.2662-0.45162-5.4112 3.0915c2.4606 10.197 17.264 0.72669 16.639-2.6742-0.77497-4.2189-5.5833-2.3849-11.228-0.41731z" fill="url(#i)"/>
   <path d="m688.91 720.39s-3.7368 0.80977-2.6915 4.3015c2.6597 8.8848 18.676 0.39006 12.769-6.4088-2.8133-3.2381-5.0955-1.1962-10.078 2.1073z" fill="url(#h)"/>
   <path d="m686.03 647.12-0.0625 1c0.91877 0.84141 1.8216 1.8584 2.9688 0.1875 14.763 39.175 33.561 75.93 51.469 113.22-2.9336 0.91667-2.8376 1.8333-2.5312 2.75l0.75 0.65625c1.7357-1.0819 3.328-2.1495 2.75-3l0.21875-0.21875-0.125-0.3125-51.75-113.78-0.125-0.28125h-0.3125c-1.2365 0.38646-2.2437 0.0852-3.25-0.21875z"/>
  </g>
  <g transform="translate(-18.25,6.25)">
   <path d="m666.5 741.61c0 8.1462-6.9396 14.75-15.5 14.75s-15.5-6.6038-15.5-14.75 6.9396-14.75 15.5-14.75 15.5 6.6038 15.5 14.75z"/>
   <path transform="matrix(.91935 0 0 .92373 52.5 56.689)" d="m666.5 741.61c0 8.1462-6.9396 14.75-15.5 14.75s-15.5-6.6038-15.5-14.75 6.9396-14.75 15.5-14.75 15.5 6.6038 15.5 14.75z" fill="#fff"/>
   <path transform="matrix(.54032 0 0 .51695 295.62 360.61)" d="m666.5 741.61c0 8.1462-6.9396 14.75-15.5 14.75s-15.5-6.6038-15.5-14.75 6.9396-14.75 15.5-14.75 15.5 6.6038 15.5 14.75z"/>
   <path transform="matrix(.29032 0 0 .27776 454.25 531.47)" d="m666.5 741.61c0 8.1462-6.9396 14.75-15.5 14.75s-15.5-6.6038-15.5-14.75 6.9396-14.75 15.5-14.75 15.5 6.6038 15.5 14.75z" fill="#fff"/>
  </g>
  <g transform="translate(-3,12)">
   <path d="m623.49 831.92s-26.693-9.3692-18.738-25.102c4.061-8.0317 13.713-9.6682 22.097-4.773 7.4514 4.3508-8.9967 21.982-3.3588 29.875z"/>
   <path d="m622.25 830.51c0.40401-1.4814-22.905-10.768-15.91-22.981 4.4729-7.8098 10.708-9.4914 19.092-4.5962 7.4514 4.3508-8.8199 19.684-3.182 27.577z" fill="url(#m)"/>
   <path d="m614.65 813.54c-2.0043-2.5855-9.1708-21.053-6.0104-23.511 1.0408-1.7026 3.2146-1.517 5.6569-0.88389-4.4098 9.7993 0.12496 16.404 1.7678 24.042z"/>
   <path d="m615.01 812.74c-2.0043-2.5855-8.994-19.904-5.8336-22.362 1.0408-1.7026 1.8888-1.517 4.331-0.88389-4.4098 9.7993 0.30174 15.52 1.9445 23.158z" fill="url(#l)"/>
  </g>
  <g transform="matrix(.94856 -.31658 .31658 .94856 -277.06 266.35)">
   <path d="m710.63 823.22c0.24891 1.0003-2.6579 9.9089-2.6579 9.9089l8.6927 12.083 1.9018-11.064z"/>
   <path d="m711.01 825c0.2489 1.0003-2.2587 7.9975-2.2587 7.9975l7.5656 10.63 1.5355-8.9579z" fill="url(#q)"/>
   <path d="m661.85 762.27 57.452 75.13c1.2106-0.78778 2.7432-0.60932 3.5355-2.6516l-58.336-74.6z"/>
   <path d="m663.8 763.33 55.508 72.478c1.2106-0.78778 1.329 0.62812 2.1213-1.4142l-57.276-73.009z" fill="url(#p)"/>
   <path d="m699.06 788.64c-11.319-5.6689-29.053 9.2317-19.803 11.386-8.5963 5.4324-1.1852 15.584 11.163 12.65 0 0-6.019 7.471 5.1246 6.3648 10.838-1.0759 31.971-19.319 3.516-30.401z"/>
   <path d="m699.95 790.94c-11.319-5.6689-27.108 6.4033-17.859 8.5578-8.5963 5.4324-2.0691 14.346 10.279 11.413 0 0-6.5134 6.9028 4.5943 5.4809 9.7811-1.2521 27.247-15.068 2.9856-25.451z" fill="url(#g)"/>
   <path d="m661.32 766.51c1.7743 4.1399 9.2817-2.5916 9.3692-6.1872 0.0298-1.223-13.84-12.014-16.794-10.783-0.35255 5.6569 3.1082 11.314 7.4246 16.971z"/>
   <path d="m661.32 764.04c1.7743 4.1399 7.5139 0.0601 7.6014-3.5355 0.0298-1.223-11.012-11.13-13.965-9.8995-0.35255 5.6569 2.0475 7.7782 6.364 13.435z" fill="url(#o)"/>
   <path d="m711.79 823.44c0.88389 0.53033 10.253 0.35355 10.253 0.35355l9.0156 11.844-11.137-1.4142z"/>
   <path d="m713.38 824.32c0.88389 0.53033 8.3085 0.17678 8.3085 0.17678l7.955 10.341-9.0156-1.149z" fill="url(#n)"/>
   <path transform="matrix(.94856 .31658 -.31658 .94856 347.13 -164.93)" d="m589.37 773.23c-0.58734-0.51607-4.9875-2.0677-6.1872-1.7678-0.17081 2.8682 1.514 4.3446 3.182 5.8336 0 0-2.1213-5.1265 3.0052-4.0659z" fill="#fff"/>
  </g>
  <g transform="translate(-59,4.25)">
   <path d="m666.5 741.61c0 8.1462-6.9396 14.75-15.5 14.75s-15.5-6.6038-15.5-14.75 6.9396-14.75 15.5-14.75 15.5 6.6038 15.5 14.75z"/>
   <path transform="matrix(.91935 0 0 .92373 52.5 56.689)" d="m666.5 741.61c0 8.1462-6.9396 14.75-15.5 14.75s-15.5-6.6038-15.5-14.75 6.9396-14.75 15.5-14.75 15.5 6.6038 15.5 14.75z" fill="#fff"/>
   <path transform="matrix(.54032 0 0 .51695 295.62 360.61)" d="m666.5 741.61c0 8.1462-6.9396 14.75-15.5 14.75s-15.5-6.6038-15.5-14.75 6.9396-14.75 15.5-14.75 15.5 6.6038 15.5 14.75z"/>
   <path transform="matrix(.29032 0 0 .27776 454.25 531.47)" d="m666.5 741.61c0 8.1462-6.9396 14.75-15.5 14.75s-15.5-6.6038-15.5-14.75 6.9396-14.75 15.5-14.75 15.5 6.6038 15.5 14.75z" fill="#fff"/>
  </g>
 </g>
</svg>
