<?xml version="1.0" encoding="UTF-8" standalone="no"?>
<svg
   xmlns:dc="http://purl.org/dc/elements/1.1/"
   xmlns:cc="http://creativecommons.org/ns#"
   xmlns:rdf="http://www.w3.org/1999/02/22-rdf-syntax-ns#"
   xmlns:svg="http://www.w3.org/2000/svg"
   xmlns="http://www.w3.org/2000/svg"
   xmlns:xlink="http://www.w3.org/1999/xlink"
   xmlns:sodipodi="http://sodipodi.sourceforge.net/DTD/sodipodi-0.dtd"
   xmlns:inkscape="http://www.inkscape.org/namespaces/inkscape"
   viewBox="0 0 522 390"
   version="1.1"
   id="svg129"
   sodipodi:docname="tractor2.svg"
   width="522"
   height="390"
   inkscape:version="0.92.3 (2405546, 2018-03-11)">
  <metadata
     id="metadata133">
    <rdf:RDF>
      <cc:Work
         rdf:about="">
        <dc:format>image/svg+xml</dc:format>
        <dc:type
           rdf:resource="http://purl.org/dc/dcmitype/StillImage" />
        <dc:title></dc:title>
      </cc:Work>
    </rdf:RDF>
  </metadata>
  <sodipodi:namedview
     pagecolor="#ffffff"
     bordercolor="#666666"
     borderopacity="1"
     objecttolerance="10"
     gridtolerance="10"
     guidetolerance="10"
     inkscape:pageopacity="0"
     inkscape:pageshadow="2"
     inkscape:window-width="1920"
     inkscape:window-height="1052"
     id="namedview131"
     showgrid="true"
     showborder="true"
     inkscape:zoom="0.45210728"
     inkscape:cx="-2.2118644"
     inkscape:cy="261"
     inkscape:window-x="0"
     inkscape:window-y="360"
     inkscape:window-maximized="1"
     inkscape:current-layer="svg129">
    <inkscape:grid
       type="xygrid"
       id="grid3842" />
  </sodipodi:namedview>
  <defs
     id="defs35">
    <linearGradient
       id="w"
       x1="480.23563"
       x2="403.30637"
       y1="222.8017"
       y2="291.43942"
       xlink:href="#o"
       gradientUnits="userSpaceOnUse" />
    <linearGradient
       id="x"
       x1="399.2861"
       x2="429.29257"
       y1="288.87003"
       y2="263.19012"
       xlink:href="#o"
       gradientUnits="userSpaceOnUse" />
    <linearGradient
       id="v"
       x1="146.32814"
       x2="143.95428"
       y1="24.219023"
       y2="19.396852"
       xlink:href="#p"
       gradientTransform="scale(0.56104597,1.7823851)"
       gradientUnits="userSpaceOnUse" />
    <linearGradient
       id="y"
       x1="373.43301"
       x2="237.05103"
       y1="-20.058737"
       y2="190.51248"
       xlink:href="#n"
       gradientTransform="scale(0.7394495,1.3523574)"
       gradientUnits="userSpaceOnUse" />
    <linearGradient
       id="r"
       x1="291.90387"
       x2="146.04205"
       y1="84.50827"
       y2="33.367104"
       gradientTransform="scale(0.55053699,1.8164084)"
       gradientUnits="userSpaceOnUse">
      <stop
         stop-color="#1a1a1a"
         offset="0"
         id="stop6" />
      <stop
         stop-color="#1a1a1a"
         stop-opacity="0"
         offset="1"
         id="stop8" />
    </linearGradient>
    <linearGradient
       id="u"
       x1="138.29034"
       x2="135.34151"
       y1="18.134169"
       y2="12.244557"
       xlink:href="#p"
       gradientTransform="scale(0.68565971,1.4584494)"
       gradientUnits="userSpaceOnUse" />
    <linearGradient
       id="z"
       x1="209.29173"
       x2="134.14198"
       y1="-6.5477972"
       y2="134.48817"
       gradientTransform="scale(0.82060358,1.2186152)"
       gradientUnits="userSpaceOnUse">
      <stop
         stop-color="#373737"
         offset="0"
         id="stop12" />
      <stop
         stop-opacity="0"
         offset="1"
         id="stop14" />
    </linearGradient>
    <linearGradient
       id="t"
       x1="208.41478"
       x2="93.666252"
       y1="149.87538"
       y2="267.83597"
       xlink:href="#n"
       gradientUnits="userSpaceOnUse"
       gradientTransform="matrix(0.93561939,0,0,0.91607994,20.136001,31.530995)" />
    <linearGradient
       id="p">
      <stop
         stop-color="#18181a"
         offset="0"
         id="stop18" />
      <stop
         stop-color="#18181a"
         stop-opacity="0"
         offset="1"
         id="stop20" />
    </linearGradient>
    <linearGradient
       id="s"
       x1="209.82404"
       x2="93.036354"
       y1="121.68607"
       y2="267.1394"
       xlink:href="#o"
       gradientUnits="userSpaceOnUse" />
    <linearGradient
       id="o">
      <stop
         offset="0"
         id="stop24" />
      <stop
         stop-opacity="0"
         offset="1"
         id="stop26" />
    </linearGradient>
    <linearGradient
       id="q"
       x1="139.58763"
       x2="64.150383"
       y1="186.66592"
       y2="302.90384"
       xlink:href="#n"
       gradientUnits="userSpaceOnUse" />
    <linearGradient
       id="n">
      <stop
         stop-color="#373737"
         offset="0"
         id="stop30" />
      <stop
         stop-opacity="0"
         offset="1"
         id="stop32" />
    </linearGradient>
    <linearGradient
       inkscape:collect="always"
       xlink:href="#n"
       id="linearGradient135"
       x1="139.07176"
       y1="188.23883"
       x2="66.746208"
       y2="299.68207"
       gradientTransform="scale(0.99712154,1.0028868)"
       gradientUnits="userSpaceOnUse" />
    <linearGradient
       inkscape:collect="always"
       xlink:href="#n"
       id="linearGradient137"
       x1="139.58763"
       y1="186.66592"
       x2="64.150383"
       y2="302.90384"
       gradientUnits="userSpaceOnUse" />
  </defs>
  <path
     d="m 433.21197,265.35124 a 75.44835,73.300123 0 1 1 -150.8967,0 75.44835,73.300123 0 1 1 150.8967,0 z"
     id="path37"
     inkscape:connector-curvature="0"
     style="stroke-width:0" />
  <g
     id="g63"
     transform="matrix(0.93561939,0,0,0.91607994,20.136001,31.530995)"
     style="fill-rule:evenodd">
    <g
       id="g43"
       style="fill:#3f3f3f">
      <path
         d="m 120.42,49.402 64.926,1.9285 1.285,12.214 54.641,-0.6428 2.571,119.57 H 256.7 l -4.5,-124.71 25.07,-16.714 v -20.57 l -158.78,1.9285 1.928,26.999 z"
         id="path39"
         inkscape:connector-curvature="0" />
      <path
         d="m 130.74,113.95 c 1.725,-4.314 14.667,-21.57 14.667,-21.57 l 3.02,-5.1769 -5.608,-25.021 3.451,-8.1967 5.177,-4.3141 20.708,-3.8826 6.039,6.471 v 10.354 l 2.589,9.9223 -3.883,1.7256 v 4.7454 l -0.431,4.7455 -4.746,3.4512 -2.588,1.7257 0.863,12.511 6.902,12.942 10.785,6.471 16.394,10.785 4.314,4.314 v 10.354 l 12.51,-24.59 3.883,-3.452 3.883,1.295 1.294,3.451 -4.746,10.354 -0.431,9.059 2.588,2.157 5.609,4.746 9.922,17.256 9.491,0.431 10.354,-15.962 9.491,6.04 -7.334,12.942 2.588,1.294 17.256,-11.216 3.452,48.317 -59.103,-0.431 -47.023,-73.77 -52.2,-13.805 0.863,-6.472 z"
         id="path41"
         inkscape:connector-curvature="0" />
    </g>
    <path
       d="m 152.94,255.08 76.331,29.584 160.5,0.741 47.347,-71.41 c 0,0 12.086,-41.537 -0.659,-66.798 -4.353,-8.627 -11.914,-11.349 -21.507,-12.505 -22.01,-2.651 -80.063,-6.934 -130.27,-6.686 1.087,17.412 4.328,51.377 4.409,77.87 -16.262,0.774 -43.049,1.236 -49.858,0.90401 -11.707,-23.742 -36.173,-71.233 -51.298,-83.264 -22.55,-3.224 -67.78,-8.504 -89.95,-7.739 -20.303,0.7 -55.9,-4.568 -66.804,11.087 -5.976,8.58 -0.8667,15.105 -5.1359,24.65 -4.1955,9.38 -22.826,25.538 -22.826,25.538 l 39.857,21.434 109.87,56.594 z"
       id="path45"
       inkscape:connector-curvature="0"
       style="fill:#0000ff;stroke-width:1.051" />
    <path
       d="m 288.64,151.49 149.74,3.564 c 0,0 1.125,1.975 1.753,6.942 -6.778,0 -151.09,-0.93799 -151.09,-0.93799 l -0.398,-9.568 z"
       id="path47"
       inkscape:connector-curvature="0"
       style="fill:#ffff00;stroke:#000000" />
    <path
       d="m 221.55,2.4082 c -41.866,-0.07913 -85.704,1.6143 -98.407,5.2188 -8.459,2.4004 -11.674,17.168 -11.674,17.168 l -8.669,94.244 c 31.252,2.493 81.677,5.262 86.968,9.618 18.847,15.515 50.032,83.344 50.032,83.344 h 53.406 l -8.906,-173.44 9.875,-7.6875 2.937,-10.796 c 0,0 -13.202,-13.068 -18.756,-13.495 C 261.816,5.31 246.669,2.452 221.55,2.4045 Z m -96.469,28 57.781,0.6562 c 0,0 0.52,8.1258 1.438,92.624 -5.781,-2.493 -34.516,-5.1 -62.813,-7.593 l 3.594,-85.688 z m 149.72,0.4375 10.718,175.91 -47.312,0.062 c 0,0 -22.496,-52.98 -47.188,-79.75 l -1.718,-95.624 85.5,-0.5937 z"
       id="path49"
       inkscape:connector-curvature="0"
       style="stroke-width:0.96600002" />
    <path
       d="m 1.1187,181.7 c 1.0495,-4.81 8.4241,-13.019 16.082,-21.443 7.6582,-8.424 30.062,-32.46 52.842,-36.759 30.843,-5.822 80.496,1.036 105.68,3.829 4.046,0.44801 9.911,1.199 13.019,3.829 14.771,12.5 39.047,56.817 50.544,83.475 6.957,16.129 -9.189,72.753 -9.189,72.753 l -76.583,-29.187 -124.06,-63.478 -16.087,-11.475 c 0,0 -4.086,2.22 -5.9705,2.041 -2.159,-0.205 -6.7399,-1.466 -6.2777,-3.585 z"
       id="path51"
       inkscape:connector-curvature="0" />
    <path
       d="m 289.44,163.65 h 151.3"
       id="path53"
       inkscape:connector-curvature="0"
       style="fill:#0000ff;stroke:#000000" />
    <path
       d="m 333.69,288.04 c 0,-7.174 -0.47098,-32.854 2.207,-43.592 3.819,-15.314 16.944,-35.081 28.142,-47.462 5.06,-5.595 23.849,-17.181 30.805,-20.13 18.957,-8.035 47.069,-4.398 49.183,-3.87 0,0 1.177,-3.583 -5.496,-4.686 -10.401,-1.72 -34.659,-0.62799 -49.11,2.207 -9.455,1.855 -31.147,12.775 -41.671,22.33 -14.422,13.091 -28.048,36.178 -32.034,50.551 -1.489,5.371 -4.171,24.182 -3.546,40.789 6.342,1.089 22.072,7.725 22.072,7.725"
       id="path55"
       inkscape:connector-curvature="0"
       style="fill:#007fff" />
    <path
       d="m 111.66,26.071 186.22,-4.9005 c 0,0 -5.419,-8.5234 -8.167,-10.89 -4.318,-3.7184 -11.187,-8.4605 -16.88,-8.712 -36.052,-1.5927 -86.667,-2.7528 -123.6,0.5445 -9.416,0.84057 -23.822,-0.66358 -31.037,5.445 -4.495,3.8059 -6.534,18.513 -6.534,18.513 z"
       id="path57"
       inkscape:connector-curvature="0"
       style="fill:#0000ff" />
    <path
       d="m 85.44,118.26 7.3339,-76.358 20.707,-15.962 0.863,-12.942 -16.393,-0.8628 -0.8628,12.511 1.7256,-1.2942 -9.4909,5.6083 -4.7455,0.2157 -0.4314,10.785 4.7455,0.6471"
       id="path59"
       inkscape:connector-curvature="0"
       style="stroke:#000000" />
    <path
       d="m 303.3,47.512 -2.157,4.7454 -3.02,163.5 c 0,0 1.003,3.786 2.588,4.745 2.217,1.342 6.434,1.81 8.628,0.43199 1.374,-0.862 2.589,-4.746 2.589,-4.746 l 2.588,-163.07 -1.725,-4.7454 v -15.962 c 0,0 -2.504,-2.3495 -3.883,-2.5884 -1.577,-0.2732 -5.177,1.2942 -5.177,1.2942 l -0.431,16.393 z"
       id="path61"
       inkscape:connector-curvature="0"
       style="fill:#3f3f3f" />
  </g>
  <g
     id="g77"
     transform="matrix(0.93561939,0,0,0.91607994,20.136001,31.530995)"
     style="fill-rule:evenodd">
    <path
       d="m 121.5,116.15 3.603,-85.684 57.783,0.6679 c 0,0 0.49901,8.0972 1.417,92.596 -5.781,-2.494 -34.507,-5.087 -62.803,-7.58 z"
       id="path65"
       style="fill:url(#z);stroke-width:0.91900003"
       inkscape:connector-curvature="0" />
    <path
       d="m 191.15,127.1 -1.722,-95.614 85.493,-0.5802 10.709,175.88 -47.32,0.061 c 0,0 -22.469,-52.981 -47.16,-79.75 z"
       id="path67"
       style="fill:url(#y);stroke-width:1.02199996"
       inkscape:connector-curvature="0" />
    <path
       d="m 93.206,41.904 -7.7653,75.496 17.688,0.431 8.628,-89.732"
       id="path69"
       style="fill:url(#r);stroke:#000000"
       inkscape:connector-curvature="0" />
    <g
       id="g75"
       style="stroke:#cccccc">
      <path
         d="m 96.657,23.785 c 0,0 -4.8907,0.3213 -4.5297,-3.2355 0.4021,-3.9629 -0.2455,-3.9454 0.2157,-5.6083 0.8628,-3.1109 5.1768,-3.0198 5.1768,-3.0198 l -0.8628,11.864 z"
         id="path71"
         style="fill:url(#u);stroke-width:0.30000001"
         inkscape:connector-curvature="0" />
      <path
         d="m 83.73,40.311 c 0,0 -3.6193,0.5385 -3.384,-3.0354 0.2621,-3.982 -0.1601,-3.9645 0.1406,-5.6353 0.5624,-3.1259 3.3744,-3.0344 3.3744,-3.0344 l -0.131,11.705 z"
         id="path73"
         style="fill:url(#v);stroke-width:0.243"
         inkscape:connector-curvature="0" />
    </g>
  </g>
  <g
     id="g95"
     transform="matrix(0.93561939,0,0,0.91607994,20.136001,31.530995)"
     style="stroke-width:0">
    <g
       id="g83"
       style="fill:#1a1a1a">
      <path
         d="m 225.71,248.86 a 112.86,112.86 0 1 1 -225.71,0 112.86,112.86 0 1 1 225.71,0 z"
         id="path79"
         inkscape:connector-curvature="0" />
      <path
         d="m 522,268.87 a 90,90 0 1 1 -180,0 90,90 0 1 1 180,0 z"
         id="path81"
         inkscape:connector-curvature="0" />
    </g>
    <g
       id="g89"
       style="fill:#ffff00">
      <path
         d="m 177.54,249.4 a 65.022,65.022 0 1 1 -130.04,0 65.022,65.022 0 1 1 130.04,0 z"
         id="path85"
         inkscape:connector-curvature="0" />
      <path
         d="m 483.55,269.63 a 50.14,50.14 0 1 1 -100.28,0 50.14,50.14 0 1 1 100.28,0 z"
         id="path87"
         inkscape:connector-curvature="0" />
    </g>
    <path
       d="m 166.15,248.26 a 53.635,53.635 0 1 1 -107.27,0 53.635,53.635 0 1 1 107.27,0 z"
       id="path91"
       inkscape:connector-curvature="0" />
    <path
       d="m 466.75,271.04 a 40.457,42.165 0 1 1 -80.914,0 40.457,42.165 0 1 1 80.914,0 z"
       id="path93"
       inkscape:connector-curvature="0" />
  </g>
  <path
     d="m 98.769206,212.00791 c 0,0 -0.63791,6.88434 5.755654,6.88434 6.39355,0 49.86757,4.80484 49.86757,4.80484 l 7.24918,-5.00363 10.65296,19.39799 -4.69213,4.38619 -5.54074,44.02131 3.83979,5.84642 -8.52443,8.3464 -8.52537,-4.17366 -54.770227,-5.63297 -8.099563,2.50364 -8.524709,-10.43415 6.60856,-5.64213 5.965977,-45.48612 -5.325639,-8.97117 14.063297,-10.8473 z"
     id="path97"
     inkscape:connector-curvature="0"
     style="fill:#ffff00;fill-rule:evenodd;stroke-width:0.92579812" />
  <g
     id="g107"
     transform="matrix(0.93561939,0,0,0.91607994,20.136001,31.530995)"
     style="stroke-width:2.10400009">
    <g
       id="g103"
       style="fill:none;stroke:url(#q)">
      <path
         d="m 170.48,248.41 a 57.686,57.686 0 1 1 -115.37,0 57.686,57.686 0 1 1 115.37,0 z"
         id="path99"
         style="stroke:url(#linearGradient135)"
         inkscape:connector-curvature="0" />
      <path
         d="m 172.91,248.68 a 60.39,60.39 0 1 1 -120.78,0 60.39,60.39 0 1 1 120.78,0 z"
         id="path101"
         style="stroke:url(#linearGradient137)"
         inkscape:connector-curvature="0" />
    </g>
    <path
       d="m 140.31,246.23 a 27.063,27.063 0 1 1 -54.126,0 27.063,27.063 0 1 1 54.126,0 z"
       id="path105"
       style="fill:url(#s)"
       inkscape:connector-curvature="0" />
  </g>
  <path
     d="m 143.16996,255.19191 a 15.629525,15.303118 0 1 1 -31.25905,0 15.629525,15.303118 0 1 1 31.25905,0 z"
     id="path109"
     style="fill:#3f3f3f;stroke:url(#t);stroke-width:18.76407623"
     inkscape:connector-curvature="0" />
  <path
     d="m 406.86493,248.88012 30.34588,4.85156 8.67038,-3.63867 9.28977,10.30865 -8.05101,6.66998 -4.9541,30.92503 5.57348,9.70128 -6.81224,7.88287 -7.43163,-3.63775 -35.30092,-4.85065 -5.57348,4.2442 -8.67039,-12.12707 1.85814,-6.06444 6.81225,-36.38212 -3.71535,-4.2442 13.00511,-9.09575 z"
     id="path111"
     inkscape:connector-curvature="0"
     style="fill:#ffff00;fill-rule:evenodd;stroke-width:0.92579812" />
  <g
     id="g117"
     transform="matrix(0.93561939,0,0,0.91607994,20.136001,31.530995)"
     style="fill:none;stroke:#000000;stroke-width:2.14400005">
    <path
       d="m 472.3,270.86 a 43.007,43.148 0 1 1 -86.014,0 43.007,43.148 0 1 1 86.014,0 z"
       id="path113"
       inkscape:connector-curvature="0" />
    <path
       d="m 475.18,270.49 a 44.595,44.736 0 1 1 -89.189,0 44.595,44.736 0 1 1 89.189,0 z"
       id="path115"
       inkscape:connector-curvature="0" />
  </g>
  <g
     id="g127"
     transform="matrix(0.93561939,0,0,0.91607994,20.136001,31.530995)"
     style="stroke-width:2.10400009">
    <path
       d="m 450.58,270.53 a 27.063,27.063 0 1 1 -54.126,0 27.063,27.063 0 1 1 54.126,0 z"
       id="path119"
       style="fill:url(#w)"
       inkscape:connector-curvature="0" />
    <path
       d="m 442.86,271.66 a 22.4025,22.4025 0 1 1 -44.805,0 22.4025,22.4025 0 1 1 44.805,0 z"
       id="path121"
       inkscape:connector-curvature="0"
       style="fill:#ffff00" />
    <path
       d="m 434.18,271.82 a 14.206,14.206 0 1 1 -28.412,0 14.206,14.206 0 1 1 28.412,0 z"
       id="path123"
       style="fill:url(#x)"
       inkscape:connector-curvature="0" />
    <path
       d="m 435.31,269.57 a 13.403,13.403 0 1 1 -26.805,0 13.403,13.403 0 1 1 26.805,0 z"
       id="path125"
       inkscape:connector-curvature="0"
       style="fill:#ffff00" />
  </g>
</svg>
