<?xml version="1.0" encoding="UTF-8"?>
<svg width="289.03" height="206.32" version="1.1" viewBox="0 0 289.03287 206.3167" xmlns="http://www.w3.org/2000/svg" xmlns:xlink="http://www.w3.org/1999/xlink">
 <defs>
  <linearGradient id="at">
   <stop stop-color="#1a1a1a" offset="0"/>
   <stop stop-color="#ccc" offset=".93849"/>
   <stop offset="1"/>
  </linearGradient>
  <linearGradient id="as">
   <stop offset="0"/>
   <stop offset=".30558"/>
   <stop stop-opacity="0" offset="1"/>
  </linearGradient>
  <linearGradient id="ar">
   <stop stop-color="#1a1a1a" offset="0"/>
   <stop stop-color="#808080" offset="1"/>
  </linearGradient>
  <linearGradient id="aq">
   <stop offset="0"/>
   <stop stop-color="#e5e5e5" offset=".57692"/>
   <stop offset="1"/>
  </linearGradient>
  <linearGradient id="av">
   <stop stop-color="#fff" stop-opacity="0" offset="0"/>
   <stop stop-color="#fff" stop-opacity="0" offset=".43851"/>
   <stop stop-color="#fff" offset=".57826"/>
   <stop stop-color="#fff" offset=".63298"/>
   <stop stop-color="#fff" stop-opacity="0" offset=".70464"/>
   <stop stop-color="#fff" stop-opacity="0" offset="1"/>
  </linearGradient>
  <linearGradient id="au">
   <stop stop-color="#ccc" offset="0"/>
   <stop stop-color="#ccc" offset=".87891"/>
   <stop offset="1"/>
  </linearGradient>
  <marker id="an" markerHeight="8" markerWidth="8" orient="auto" refX="4" refY="4">
   <rect width="8" height="8" rx="2" ry="2" color="#000000" color-rendering="auto" image-rendering="auto" shape-rendering="auto" solid-color="#000000" style="isolation:auto;mix-blend-mode:normal"/>
  </marker>
  <radialGradient id="bh" cx="235.98" cy="482.05" r="21.885" gradientTransform="matrix(.85482 .9109 -.93674 .8792 493.04 88.255)" gradientUnits="userSpaceOnUse" xlink:href="#au"/>
  <radialGradient id="bi" cx="232.62" cy="479.69" r="46.624" gradientTransform="matrix(1.2324 1.2436 -1.2435 1.2325 553.52 -153.46)" gradientUnits="userSpaceOnUse" xlink:href="#av"/>
  <radialGradient id="bj" cx="235.98" cy="482.05" r="21.885" gradientTransform="matrix(.64988 .69243 -.71217 .66833 603.45 256.2)" gradientUnits="userSpaceOnUse" xlink:href="#au"/>
  <radialGradient id="bk" cx="232.62" cy="479.69" r="46.624" gradientTransform="matrix(.93695 .94531 -.94537 .93689 649.43 72.459)" gradientUnits="userSpaceOnUse" xlink:href="#av"/>
  <linearGradient id="bm" x1="192.87" x2="192.91" y1="398.17" y2="402.91" gradientTransform="translate(-190.25 -402.91)" gradientUnits="userSpaceOnUse">
   <stop offset="0"/>
   <stop stop-opacity="0" offset="1"/>
  </linearGradient>
  <marker id="ap" markerHeight="5.3590736" markerWidth="5.3590736" orient="auto" refX="2.6795368" refY="2.6795368">
   <rect transform="scale(1,-1)" y="-5.3591" width="5.3591" height="5.3591" color="#000000" color-rendering="auto" fill="url(#bm)" image-rendering="auto" shape-rendering="auto" solid-color="#000000" style="isolation:auto;mix-blend-mode:normal"/>
  </marker>
  <linearGradient id="bn" x1="351.94" x2="351.94" y1="497.8" y2="492.1" gradientTransform="translate(0,220)" gradientUnits="userSpaceOnUse">
   <stop stop-color="#333" offset="0"/>
   <stop stop-color="#e5e5e5" offset=".57692"/>
   <stop stop-color="#1a1a1a" offset="1"/>
  </linearGradient>
  <linearGradient id="bo" x1="351.94" x2="351.94" y1="497.8" y2="492.1" gradientTransform="matrix(.692 0 0 1 114.98 219.34)" gradientUnits="userSpaceOnUse">
   <stop stop-color="#333" offset="0"/>
   <stop stop-color="#e5e5e5" offset=".57692"/>
   <stop stop-color="#4d4d4d" offset="1"/>
  </linearGradient>
  <linearGradient id="bp" x1="351.94" x2="351.94" y1="497.8" y2="492.1" gradientTransform="matrix(.692 0 0 .73077 108.51 347.88)" gradientUnits="userSpaceOnUse" xlink:href="#aq"/>
  <linearGradient id="bq" x1="351.94" x2="351.94" y1="497.8" y2="492.1" gradientTransform="matrix(1.0162 0 0 1 16.932 218.79)" gradientUnits="userSpaceOnUse" xlink:href="#aq"/>
  <linearGradient id="br" x1="330.46" x2="330.46" y1="469.12" y2="472.6" gradientUnits="userSpaceOnUse">
   <stop offset="0"/>
   <stop stop-color="#666" offset=".52"/>
   <stop offset="1"/>
  </linearGradient>
  <linearGradient id="bs" x1="330.46" x2="330.46" y1="469.12" y2="472.6" gradientTransform="translate(0,4)" gradientUnits="userSpaceOnUse">
   <stop offset="0"/>
   <stop stop-color="#666" offset=".52"/>
   <stop offset="1"/>
  </linearGradient>
  <linearGradient id="bt" x1="330.46" x2="330.46" y1="469.12" y2="472.6" gradientTransform="translate(0,12)" gradientUnits="userSpaceOnUse">
   <stop offset="0"/>
   <stop stop-color="#666" offset=".52"/>
   <stop offset="1"/>
  </linearGradient>
  <linearGradient id="bu" x1="330.46" x2="330.46" y1="469.12" y2="472.6" gradientTransform="translate(0,20)" gradientUnits="userSpaceOnUse">
   <stop offset="0"/>
   <stop stop-color="#666" offset=".52"/>
   <stop offset="1"/>
  </linearGradient>
  <linearGradient id="bv" x1="330.46" x2="330.46" y1="469.12" y2="472.6" gradientTransform="translate(0,28)" gradientUnits="userSpaceOnUse">
   <stop offset="0"/>
   <stop stop-color="#666" offset=".52"/>
   <stop offset="1"/>
  </linearGradient>
  <linearGradient id="bw" x1="330.46" x2="330.46" y1="469.12" y2="472.6" gradientTransform="translate(0,36)" gradientUnits="userSpaceOnUse">
   <stop offset="0"/>
   <stop stop-color="#666" offset=".52"/>
   <stop offset="1"/>
  </linearGradient>
  <linearGradient id="bx" x1="330.46" x2="330.46" y1="469.12" y2="472.6" gradientTransform="translate(0,32)" gradientUnits="userSpaceOnUse">
   <stop offset="0"/>
   <stop stop-color="#666" offset=".52"/>
   <stop offset="1"/>
  </linearGradient>
  <linearGradient id="aw" x1="330.46" x2="330.46" y1="469.12" y2="472.6" gradientTransform="translate(0,24)" gradientUnits="userSpaceOnUse">
   <stop offset="0"/>
   <stop stop-color="#666" offset=".52"/>
   <stop offset="1"/>
  </linearGradient>
  <linearGradient id="ax" x1="330.46" x2="330.46" y1="469.12" y2="472.6" gradientTransform="translate(0,16)" gradientUnits="userSpaceOnUse">
   <stop offset="0"/>
   <stop stop-color="#666" offset=".52"/>
   <stop offset="1"/>
  </linearGradient>
  <linearGradient id="ay" x1="330.46" x2="330.46" y1="469.12" y2="472.6" gradientTransform="translate(0,8)" gradientUnits="userSpaceOnUse">
   <stop offset="0"/>
   <stop stop-color="#666" offset=".52"/>
   <stop offset="1"/>
  </linearGradient>
  <linearGradient id="az" x1="303.97" x2="304.53" y1="519.3" y2="519.3" gradientTransform="translate(0,220)" gradientUnits="userSpaceOnUse" xlink:href="#ar"/>
  <linearGradient id="ba" x1="303.97" x2="304.53" y1="519.3" y2="519.3" gradientTransform="matrix(-1 0 0 1 628.77 220)" gradientUnits="userSpaceOnUse" xlink:href="#ar"/>
  <linearGradient id="bb" x1="250" x2="261.97" y1="382.82" y2="399.8" gradientTransform="translate(0,220)" gradientUnits="userSpaceOnUse">
   <stop stop-color="#4d4d4d" offset="0"/>
   <stop stop-color="#808080" offset="1"/>
  </linearGradient>
  <radialGradient id="bc" cx="331.3" cy="544.32" r="33.956" gradientTransform="matrix(-.89918 .4881 -.36353 -.66969 827.07 750.78)" gradientUnits="userSpaceOnUse">
   <stop stop-color="#4d4d4d" offset="0"/>
   <stop stop-color="#4d4d4d" stop-opacity="0" offset="1"/>
  </radialGradient>
  <filter id="bl" x="-.044973" y="-.18043" width="1.0899" height="1.3609" color-interpolation-filters="sRGB">
   <feGaussianBlur stdDeviation="1.2725941"/>
  </filter>
  <radialGradient id="ao" cx="331.3" cy="544.32" r="33.956" gradientTransform="matrix(-.89918 .4881 -.36353 -.66969 742.71 754.77)" gradientUnits="userSpaceOnUse">
   <stop stop-color="#1a1a1a" offset="0"/>
   <stop stop-color="#4d4d4d" stop-opacity="0" offset="1"/>
  </radialGradient>
  <filter id="t" x="-.027291" y="-.10949" width="1.0546" height="1.219" color-interpolation-filters="sRGB">
   <feGaussianBlur stdDeviation="0.77224604"/>
  </filter>
  <radialGradient id="bd" cx="233.99" cy="480" r="17.127" gradientTransform="matrix(.22799 1.1224 -1.0252 .20825 852.57 379.18)" gradientUnits="userSpaceOnUse" xlink:href="#as"/>
  <radialGradient id="be" cx="234.49" cy="504.41" r="17.127" gradientTransform="matrix(-.80726 .69527 -.72659 -.84362 969.3 1004.3)" gradientUnits="userSpaceOnUse" xlink:href="#at"/>
  <radialGradient id="bf" cx="234.49" cy="504.41" r="17.127" gradientTransform="matrix(-.94514 .81402 -.85069 -.98771 893.93 1034.4)" gradientUnits="userSpaceOnUse" xlink:href="#at"/>
  <radialGradient id="bg" cx="233.99" cy="480" r="17.127" gradientTransform="matrix(.26693 1.3141 -1.2003 .24382 757.26 302.5)" gradientUnits="userSpaceOnUse" xlink:href="#as"/>
 </defs>
 <g transform="translate(-176.75 -589.59)">
  <path transform="matrix(1.5116 0 0 1.0692 -169.02 182)" d="m364.35 549.17c0 2.3372-5.1537 8.6086-11.023 11.57-5.8691 2.9609-13.556-3.1057-22.933-3.1057s-17.064 6.0666-22.933 3.1057-11.023-9.2323-11.023-11.57 5.1537-8.6086 11.023-11.57 13.556 3.1057 22.933 3.1057 17.064-6.0666 22.933-3.1057 11.023 9.2323 11.023 11.57z" color="#000000" color-rendering="auto" fill="url(#bc)" filter="url(#bl)" image-rendering="auto" opacity=".6" shape-rendering="auto" solid-color="#000000" style="isolation:auto;mix-blend-mode:normal"/>
  <path transform="matrix(1.5161 0 0 .8828 -128.96 293.47)" d="m279.99 553.16a33.956 8.4638 0 0 1 -33.956 8.4638 33.956 8.4638 0 0 1 -33.956 -8.4638 33.956 8.4638 0 0 1 33.956 -8.4638 33.956 8.4638 0 0 1 33.956 8.4638z" color="#000000" color-rendering="auto" fill="url(#ao)" filter="url(#t)" image-rendering="auto" opacity=".8" shape-rendering="auto" solid-color="#000000" style="isolation:auto;mix-blend-mode:normal"/>
  <path transform="matrix(1.0494 0 0 .57585 157.47 465.86)" d="m279.99 553.16a33.956 8.4638 0 0 1 -33.956 8.4638 33.956 8.4638 0 0 1 -33.956 -8.4638 33.956 8.4638 0 0 1 33.956 -8.4638 33.956 8.4638 0 0 1 33.956 8.4638z" color="#000000" color-rendering="auto" fill="url(#ao)" filter="url(#t)" image-rendering="auto" opacity=".8" shape-rendering="auto" solid-color="#000000" style="isolation:auto;mix-blend-mode:normal"/>
  <path transform="matrix(1.2544 0 0 .6956 -55.176 373.57)" d="m279.99 553.16a33.956 8.4638 0 0 1 -33.956 8.4638 33.956 8.4638 0 0 1 -33.956 -8.4638 33.956 8.4638 0 0 1 33.956 -8.4638 33.956 8.4638 0 0 1 33.956 8.4638z" color="#000000" color-rendering="auto" fill="url(#ao)" filter="url(#t)" image-rendering="auto" opacity=".8" shape-rendering="auto" solid-color="#000000" style="isolation:auto;mix-blend-mode:normal"/>
  <path transform="matrix(1.0494 0 0 .57585 138.31 444.79)" d="m279.99 553.16a33.956 8.4638 0 0 1 -33.956 8.4638 33.956 8.4638 0 0 1 -33.956 -8.4638 33.956 8.4638 0 0 1 33.956 -8.4638 33.956 8.4638 0 0 1 33.956 8.4638z" color="#000000" color-rendering="auto" fill="url(#ao)" filter="url(#t)" image-rendering="auto" opacity=".8" shape-rendering="auto" solid-color="#000000" style="isolation:auto;mix-blend-mode:normal"/>
  <path d="m300.1 733.37h73.655c1.7678 0 3.191 1.1247 3.191 2.5217s-1.4232 2.5217-3.191 2.5217h-73.655c-1.7678 0-3.191-1.1247-3.191-2.5217s1.4232-2.5217 3.191-2.5217z" color="#000000" color-rendering="auto" image-rendering="auto" shape-rendering="auto" solid-color="#000000" style="isolation:auto;mix-blend-mode:normal"/>
  <path d="m266.64 646.64 6.9884 2.1725c0.98153 0.30514 1.7717 1.8426 1.7717 3.4471v15.615c0 1.6046-0.79018 2.6507-1.7717 2.3455l-6.9884-2.1725c-0.98152-0.30513-1.7717-1.8425-1.7717-3.4471v-15.615c0-1.6046 0.79018-2.6507 1.7717-2.3455z" color="#000000" color-rendering="auto" image-rendering="auto" shape-rendering="auto" solid-color="#000000" style="isolation:auto;mix-blend-mode:normal"/>
  <path d="m277.71 670.21 3.0761 7.2861c0.22656 0.53666 1.4402 0.95329 2.6943 0.95329h12.205c1.2542 0 2.0452-0.40692 1.8333-0.95329 0 0-0.76019-4.2901-2.2887-5.9009-0.36798-0.38779-2.301-1.7974-3.4818-2.3385-4.8386-2.2172-8.3463-0.60328-12.205 0-1.2449 0.19463-2.0599 0.41662-1.8333 0.95327z" color="#000000" color-rendering="auto" image-rendering="auto" shape-rendering="auto" solid-color="#000000" style="isolation:auto;mix-blend-mode:normal"/>
  <path d="m374.97 730.52-32.015-0.87712-3.2892-2.6314-45.391 0.87712v-32.892l8.1134 8.9905 31.357 0.43857v-18.2l41.883 3.0699 8.9905 4.1663 8.9905 12.499z" fill-rule="evenodd" stroke="#000" stroke-width="1px"/>
  <g transform="translate(0,220)" shape-rendering="auto">
   <path d="m333.74 469.08v3.2891h48.504l-6.6211-3.0684-3.0098-0.22071h-38.873z" color="#000000" color-rendering="auto" fill="url(#br)" image-rendering="auto" solid-color="#000000" style="isolation:auto;mix-blend-mode:normal"/>
   <path d="m333.74 473.08v3.2891h52.961l-2.0879-2.9023-0.83399-0.38672h-50.039zm-39.471 1.9219v1.3672h1.2344l-1.2344-1.3672z" color="#000000" color-rendering="auto" fill="url(#bs)" image-rendering="auto" solid-color="#000000" style="isolation:auto;mix-blend-mode:normal"/>
   <path d="m294.27 481.08v3.2891h35.131l-27.018-0.37695-2.6289-2.9121h-5.4844zm39.471 0v3.2891h56.014c0.554 0 1-0.446 1-1v-1.2891c0-0.0383-0.0173-0.0703-0.0215-0.10742l-0.58399-0.81055c-0.12146-0.0522-0.25349-0.082-0.39453-0.082h-56.014z" color="#000000" color-rendering="auto" fill="url(#bt)" image-rendering="auto" solid-color="#000000" style="isolation:auto;mix-blend-mode:normal"/>
   <path d="m294.27 489.08v3.2891h94.475l1.9531-2.5742c-0.12427-0.41082-0.49092-0.71485-0.94336-0.71485h-95.484z" color="#000000" color-rendering="auto" fill="url(#bu)" image-rendering="auto" solid-color="#000000" style="isolation:auto;mix-blend-mode:normal"/>
   <path d="m294.27 497.08v3.2891h88.402l2.4961-3.2891h-90.898z" color="#000000" color-rendering="auto" fill="url(#bv)" image-rendering="auto" solid-color="#000000" style="isolation:auto;mix-blend-mode:normal"/>
   <path d="m294.27 505.08v2.8125l45.393-0.87695 1.6914 1.3535h35.248l2.4961-3.2891h-84.828z" color="#000000" color-rendering="auto" fill="url(#bw)" image-rendering="auto" solid-color="#000000" style="isolation:auto;mix-blend-mode:normal"/>
   <path d="m294.27 501.08v3.2891h85.367l2.4961-3.2891h-87.863z" color="#000000" color-rendering="auto" fill="url(#bx)" image-rendering="auto" solid-color="#000000" style="isolation:auto;mix-blend-mode:normal"/>
   <path d="m294.27 493.08v3.2891h91.438l2.4961-3.2891h-93.934z" color="#000000" color-rendering="auto" fill="url(#aw)" image-rendering="auto" solid-color="#000000" style="isolation:auto;mix-blend-mode:normal"/>
   <path d="m294.27 485.08v3.2891h95.484c0.554 0 1-0.446 1-1v-1.2891c0-0.554-0.446-1-1-1h-95.484z" color="#000000" color-rendering="auto" fill="url(#ax)" image-rendering="auto" solid-color="#000000" style="isolation:auto;mix-blend-mode:normal"/>
   <path d="m294.27 477.08v3.2891h4.8438l-2.9688-3.2891h-1.875zm39.471 0v3.2891h55.838l-2.3652-3.2891h-53.473z" color="#000000" color-rendering="auto" fill="url(#ay)" image-rendering="auto" solid-color="#000000" style="isolation:auto;mix-blend-mode:normal"/>
  </g>
  <path d="m305.24 720.43h19.955v4.3856h-19.955z" color="#000000" color-rendering="auto" fill="#333" image-rendering="auto" shape-rendering="auto" solid-color="#000000" style="isolation:auto;mix-blend-mode:normal"/>
  <path d="m339.55 710.35h6.1591c0.0554 0 0.1 0.0446 0.1 0.1v8.1326c0 0.0554-0.0446 0.1-0.1 0.1h-6.1591c-0.0554 0-0.1-0.0446-0.1-0.1v-8.1326c0-0.0554 0.0446-0.1 0.1-0.1z" color="#000000" color-rendering="auto" fill="#999" image-rendering="auto" shape-rendering="auto" solid-color="#000000" style="isolation:auto;mix-blend-mode:normal"/>
  <path d="m351.05 699.16h5.7398c0.1108 0 0.2 0.0892 0.2 0.2v7.2748c0 0.1108-0.0892 0.2-0.2 0.2h-5.7398c-0.1108 0-0.2-0.0892-0.2-0.2v-7.2748c0-0.1108 0.0892-0.2 0.2-0.2z" color="#000000" color-rendering="auto" fill="#999" image-rendering="auto" shape-rendering="auto" solid-color="#000000" style="isolation:auto;mix-blend-mode:normal"/>
  <path d="m351.66 699.99h4.5099c0.0871 0 0.15714 0.0701 0.15714 0.15714v5.7159c0 0.087-0.0701 0.15714-0.15714 0.15714h-4.5099c-0.0871 0-0.15714-0.0701-0.15714-0.15714v-5.7159c0-0.0871 0.0701-0.15714 0.15714-0.15714z" color="#000000" color-rendering="auto" fill="#ccc" image-rendering="auto" shape-rendering="auto" solid-color="#000000" style="isolation:auto;mix-blend-mode:normal"/>
  <path d="m350.31 712.1h4.1398c0.554 0 1.3171 0.54572 1 1-0.86119 1.2338-0.58975 2.4675 0 3.7013 0.23892 0.49983-0.446 1-1 1h-4.1398c-0.554 0-0.75604-0.50261-1-1-0.46754-0.95324-0.95713-1.8932 0-3.7013 0.2592-0.48963 0.446-1 1-1z" color="#000000" color-rendering="auto" fill="url(#bn)" image-rendering="auto" shape-rendering="auto" solid-color="#000000" style="isolation:auto;mix-blend-mode:normal"/>
  <path d="m357.4 711.44h2.8648c0.38337 0 0.91143 0.54572 0.69201 1-0.59595 1.2338-0.40811 2.4675 0 3.7013 0.16533 0.49983-0.30864 1-0.69201 1h-2.8648c-0.38337 0-0.52318-0.50261-0.692-1-0.32354-0.95324-0.66234-1.8932 0-3.7013 0.17937-0.48963 0.30863-1 0.692-1z" color="#000000" color-rendering="auto" fill="url(#bo)" image-rendering="auto" shape-rendering="auto" solid-color="#000000" style="isolation:auto;mix-blend-mode:normal"/>
  <path d="m350.93 707.5h2.8648c0.38337 0 0.91143 0.3988 0.69201 0.73077-0.59595 0.9016-0.40811 1.8032 0 2.7048 0.16533 0.36526-0.30864 0.73077-0.69201 0.73077h-2.8648c-0.38337 0-0.52318-0.36729-0.692-0.73077-0.32354-0.6966-0.66234-1.3835 0-2.7048 0.17937-0.35781 0.30863-0.73077 0.692-0.73077z" color="#000000" color-rendering="auto" fill="url(#bp)" image-rendering="auto" shape-rendering="auto" solid-color="#000000" style="isolation:auto;mix-blend-mode:normal"/>
  <path d="m372.92 710.9h4.207c0.56298 0 1.3384 0.54573 1.0162 1-0.87516 1.2338-0.59932 2.4675 0 3.7013 0.24278 0.49983-0.45324 1-1.0162 1h-4.207c-0.56298 0-0.76829-0.50261-1.0162-1-0.47512-0.95324-0.97265-1.8932 0-3.7013 0.26341-0.48963 0.45323-1 1.0162-1z" color="#000000" color-rendering="auto" fill="url(#bq)" image-rendering="auto" shape-rendering="auto" solid-color="#000000" style="isolation:auto;mix-blend-mode:normal"/>
  <path d="m349.17 692.65h25.283c1.9806 0 3.5752 1.6256 3.5752 3.6448v5.9343c0 2.0192-1.5945 3.6448-3.5752 3.6448h-25.283c-1.9806 0-3.5752-1.6256-3.5752-3.6448v-5.9343c0-2.0192 1.5945-3.6448 3.5752-3.6448z" color="#000000" color-rendering="auto" fill="#1a1a1a" image-rendering="auto" shape-rendering="auto" solid-color="#000000" style="isolation:auto;mix-blend-mode:normal"/>
  <path d="m349.17 698.71h25.283c1.9806 0 3.5752 0.13689 3.5752 0.30693v0.49973c0 0.17004-1.5945 0.30693-3.5752 0.30693h-25.283c-1.9806 0-3.5752-0.13689-3.5752-0.30693v-0.49973c0-0.17004 1.5945-0.30693 3.5752-0.30693z" color="#000000" color-rendering="auto" fill="#666" image-rendering="auto" shape-rendering="auto" solid-color="#000000" style="isolation:auto;mix-blend-mode:normal"/>
  <g transform="translate(4,206)" fill="#666" shape-rendering="auto">
   <path d="m344.65 486.73c0.23135 0 0.41759 0.13689 0.41759 0.30693v5.4412c0 0.17004-0.18624 0.30693-0.41759 0.30693s-0.41759-0.13689-0.41759-0.30693v-5.4412c0-0.17004 0.18624-0.30693 0.41759-0.30693z" color="#000000" color-rendering="auto" image-rendering="auto" solid-color="#000000" style="isolation:auto;mix-blend-mode:normal"/>
   <path d="m346.65 486.73c0.23135 0 0.41759 0.13689 0.41759 0.30693v5.4412c0 0.17004-0.18624 0.30693-0.41759 0.30693s-0.41759-0.13689-0.41759-0.30693v-5.4412c0-0.17004 0.18624-0.30693 0.41759-0.30693z" color="#000000" color-rendering="auto" image-rendering="auto" solid-color="#000000" style="isolation:auto;mix-blend-mode:normal"/>
   <path d="m348.65 486.73c0.23135 0 0.41759 0.13689 0.41759 0.30693v5.4412c0 0.17004-0.18624 0.30693-0.41759 0.30693s-0.41759-0.13689-0.41759-0.30693v-5.4412c0-0.17004 0.18624-0.30693 0.41759-0.30693z" color="#000000" color-rendering="auto" image-rendering="auto" solid-color="#000000" style="isolation:auto;mix-blend-mode:normal"/>
   <path d="m350.65 486.73c0.23135 0 0.41759 0.13689 0.41759 0.30693v5.4412c0 0.17004-0.18624 0.30693-0.41759 0.30693s-0.41759-0.13689-0.41759-0.30693v-5.4412c0-0.17004 0.18624-0.30693 0.41759-0.30693z" color="#000000" color-rendering="auto" image-rendering="auto" solid-color="#000000" style="isolation:auto;mix-blend-mode:normal"/>
   <path d="m352.65 486.73c0.23135 0 0.41759 0.13689 0.41759 0.30693v5.4412c0 0.17004-0.18624 0.30693-0.41759 0.30693s-0.41759-0.13689-0.41759-0.30693v-5.4412c0-0.17004 0.18624-0.30693 0.41759-0.30693z" color="#000000" color-rendering="auto" image-rendering="auto" solid-color="#000000" style="isolation:auto;mix-blend-mode:normal"/>
   <path d="m354.65 486.73c0.23135 0 0.41759 0.13689 0.41759 0.30693v5.4412c0 0.17004-0.18624 0.30693-0.41759 0.30693s-0.41759-0.13689-0.41759-0.30693v-5.4412c0-0.17004 0.18624-0.30693 0.41759-0.30693z" color="#000000" color-rendering="auto" image-rendering="auto" solid-color="#000000" style="isolation:auto;mix-blend-mode:normal"/>
   <path d="m356.65 486.73c0.23135 0 0.41759 0.13689 0.41759 0.30693v5.4412c0 0.17004-0.18624 0.30693-0.41759 0.30693s-0.41759-0.13689-0.41759-0.30693v-5.4412c0-0.17004 0.18624-0.30693 0.41759-0.30693z" color="#000000" color-rendering="auto" image-rendering="auto" solid-color="#000000" style="isolation:auto;mix-blend-mode:normal"/>
   <path d="m358.65 486.73c0.23135 0 0.41759 0.13689 0.41759 0.30693v5.4412c0 0.17004-0.18624 0.30693-0.41759 0.30693s-0.41759-0.13689-0.41759-0.30693v-5.4412c0-0.17004 0.18624-0.30693 0.41759-0.30693z" color="#000000" color-rendering="auto" image-rendering="auto" solid-color="#000000" style="isolation:auto;mix-blend-mode:normal"/>
   <path d="m360.65 486.73c0.23135 0 0.41759 0.13689 0.41759 0.30693v5.4412c0 0.17004-0.18624 0.30693-0.41759 0.30693s-0.41759-0.13689-0.41759-0.30693v-5.4412c0-0.17004 0.18624-0.30693 0.41759-0.30693z" color="#000000" color-rendering="auto" image-rendering="auto" solid-color="#000000" style="isolation:auto;mix-blend-mode:normal"/>
   <path d="m362.65 486.73c0.23135 0 0.41759 0.13689 0.41759 0.30693v5.4412c0 0.17004-0.18624 0.30693-0.41759 0.30693s-0.41759-0.13689-0.41759-0.30693v-5.4412c0-0.17004 0.18624-0.30693 0.41759-0.30693z" color="#000000" color-rendering="auto" image-rendering="auto" solid-color="#000000" style="isolation:auto;mix-blend-mode:normal"/>
   <path d="m364.65 486.73c0.23135 0 0.41759 0.13689 0.41759 0.30693v5.4412c0 0.17004-0.18624 0.30693-0.41759 0.30693s-0.41759-0.13689-0.41759-0.30693v-5.4412c0-0.17004 0.18624-0.30693 0.41759-0.30693z" color="#000000" color-rendering="auto" image-rendering="auto" solid-color="#000000" style="isolation:auto;mix-blend-mode:normal"/>
   <path d="m366.65 486.73c0.23135 0 0.41759 0.13689 0.41759 0.30693v5.4412c0 0.17004-0.18624 0.30693-0.41759 0.30693s-0.41759-0.13689-0.41759-0.30693v-5.4412c0-0.17004 0.18624-0.30693 0.41759-0.30693z" color="#000000" color-rendering="auto" image-rendering="auto" solid-color="#000000" style="isolation:auto;mix-blend-mode:normal"/>
   <path d="m368.65 486.73c0.23135 0 0.41759 0.13689 0.41759 0.30693v5.4412c0 0.17004-0.18624 0.30693-0.41759 0.30693s-0.41759-0.13689-0.41759-0.30693v-5.4412c0-0.17004 0.18624-0.30693 0.41759-0.30693z" color="#000000" color-rendering="auto" image-rendering="auto" solid-color="#000000" style="isolation:auto;mix-blend-mode:normal"/>
   <path d="m370.65 486.73c0.23135 0 0.41759 0.13689 0.41759 0.30693v5.4412c0 0.17004-0.18624 0.30693-0.41759 0.30693s-0.41759-0.13689-0.41759-0.30693v-5.4412c0-0.17004 0.18624-0.30693 0.41759-0.30693z" color="#000000" color-rendering="auto" image-rendering="auto" solid-color="#000000" style="isolation:auto;mix-blend-mode:normal"/>
  </g>
  <path d="m354.15 690.59c0.96395 0 1.74 0.72667 1.74 1.6293v2.372c0 0.90264-0.77603 1.6293-1.74 1.6293-0.96394 0-1.74-0.72667-1.74-1.6293v-2.372c0-0.90264 0.77603-1.6293 1.74-1.6293z" color="#000000" color-rendering="auto" image-rendering="auto" shape-rendering="auto" solid-color="#000000" style="isolation:auto;mix-blend-mode:normal"/>
  <path d="m362.15 690.59c0.96395 0 1.74 0.72667 1.74 1.6293v2.372c0 0.90264-0.77603 1.6293-1.74 1.6293-0.96394 0-1.74-0.72667-1.74-1.6293v-2.372c0-0.90264 0.77603-1.6293 1.74-1.6293z" color="#000000" color-rendering="auto" image-rendering="auto" shape-rendering="auto" solid-color="#000000" style="isolation:auto;mix-blend-mode:normal"/>
  <path d="m370.15 690.59c0.96395 0 1.74 0.72667 1.74 1.6293v2.372c0 0.90264-0.77603 1.6293-1.74 1.6293-0.96394 0-1.74-0.72667-1.74-1.6293v-2.372c0-0.90264 0.77603-1.6293 1.74-1.6293z" color="#000000" color-rendering="auto" image-rendering="auto" shape-rendering="auto" solid-color="#000000" style="isolation:auto;mix-blend-mode:normal"/>
  <path d="m349.17 700.38h25.283c1.9806 0 3.5752 0.0522 3.5752 0.11703v0.19054c0 0.0648-1.5945 0.11702-3.5752 0.11702h-25.283c-1.9806 0-3.5752-0.0522-3.5752-0.11702v-0.19054c0-0.0648 1.5945-0.11703 3.5752-0.11703z" color="#000000" color-rendering="auto" fill="#666" image-rendering="auto" shape-rendering="auto" solid-color="#000000" style="isolation:auto;mix-blend-mode:normal"/>
  <path d="m349.17 701.2h25.283c1.9806 0 3.5752 0.0262 3.5752 0.0588v0.0957c0 0.0326-1.5945 0.0588-3.5752 0.0588h-25.283c-1.9806 0-3.5752-0.0262-3.5752-0.0588v-0.0957c0-0.0326 1.5945-0.0588 3.5752-0.0588z" color="#000000" color-rendering="auto" fill="#666" image-rendering="auto" shape-rendering="auto" solid-color="#000000" style="isolation:auto;mix-blend-mode:normal"/>
  <path d="m349.17 701.58h25.283c1.9806 0 3.5752 0.0262 3.5752 0.0588v0.0957c0 0.0326-1.5945 0.0588-3.5752 0.0588h-25.283c-1.9806 0-3.5752-0.0262-3.5752-0.0588v-0.0957c0-0.0326 1.5945-0.0588 3.5752-0.0588z" color="#000000" color-rendering="auto" fill="#666" image-rendering="auto" shape-rendering="auto" solid-color="#000000" style="isolation:auto;mix-blend-mode:normal"/>
  <path d="m349.17 701.96h25.283c1.9806 0 3.5752 0.0262 3.5752 0.0588v0.0957c0 0.0326-1.5945 0.0588-3.5752 0.0588h-25.283c-1.9806 0-3.5752-0.0262-3.5752-0.0588v-0.0957c0-0.0326 1.5945-0.0588 3.5752-0.0588z" color="#000000" color-rendering="auto" fill="#666" image-rendering="auto" shape-rendering="auto" solid-color="#000000" style="isolation:auto;mix-blend-mode:normal"/>
  <path d="m349.17 702.98h25.283c1.9806 0 3.5752 0.26821 3.5752 0.60137v0.97913c0 0.33316-1.5945 0.60137-3.5752 0.60137h-25.283c-1.9806 0-3.5752-0.26821-3.5752-0.60137v-0.97913c0-0.33316 1.5945-0.60137 3.5752-0.60137z" color="#000000" color-rendering="auto" fill="#4d4d4d" image-rendering="auto" shape-rendering="auto" solid-color="#000000" style="isolation:auto;mix-blend-mode:normal"/>
  <path d="m318.59 653.04a2.7094 11.414 64.225 0 1 -9.1004 7.4032 2.7094 11.414 64.225 0 1 -11.457 2.5236 2.7094 11.414 64.225 0 1 9.1004 -7.4032 2.7094 11.414 64.225 0 1 11.457 -2.5236z" color="#000000" color-rendering="auto" fill="none" image-rendering="auto" shape-rendering="auto" solid-color="#000000" stroke="#000" stroke-linecap="round" stroke-linejoin="round" stroke-width="2" style="isolation:auto;mix-blend-mode:normal"/>
  <path d="m299.02 661.13 9.3506-0.0984 3.3466-1.6733 3.0513-6.2994" fill="none" stroke="#000" stroke-width="1px"/>
  <path d="m311.52 658.37a1.3808 2.5815 68.877 0 1 -1.9104 2.2183 1.3808 2.5815 68.877 0 1 -2.9056 -0.3577 1.3808 2.5815 68.877 0 1 1.9104 -2.2183 1.3808 2.5815 68.877 0 1 2.9056 0.3577z" color="#000000" color-rendering="auto" image-rendering="auto" shape-rendering="auto" solid-color="#000000" style="isolation:auto;mix-blend-mode:normal"/>
  <path d="m306.51 662.54 2.3664 0.41759-0.55679 1.1136 1.5312 1.392-1.1136 1.2528 2.2272 6.9599 2.5056 0.27839 6.4031 15.451-1.1136 2.5056-1.9488 1.1136-1.9488-1.5312-2.6448 0.69599 0.69599 3.6191 1.6704 0.69599 5.5679-1.6704-0.97439 1.6704 0.69599 6.2639 8.4911 0.27839v-13.781l-0.55679-2.2272-1.9488-1.2528-4.1759-0.83519-1.1136 0.2784h-1.1136l-2.784-15.312-0.69599-2.088-0.83519-2.784-2.5128-0.0282 0.22146-1.501-1.2303-0.24606 0.49214-1.2057-0.88585-0.0246 0.44292-2.2146z" fill="#1a1a1a" fill-rule="evenodd"/>
  <path d="m327.17 655.14c-0.602 0.0144-0.70165 0.45364-1.0273 0.71414-1.18 0.94375-1.9156 2.3862-3.0465 3.407-1.7915 1.6169-4.3586 2.3612-5.8617 4.2492-0.79329 0.99645-1.4922 3.5176-1.4922 3.5176l0.23829 0.79687 0.69726 2.0879 2.7832 15.312h1.1133l1.1133-0.27929 4.1758 0.83593 1.9492 1.252 0.55664 2.2266v13.781l-1.4336-0.0469 0.45899 1.0215h6.9609l-0.13868-41.621s-1.5908-1.91-2.6465-3.2012c-0.91445-1.1185-2.9219-3.2012-2.9219-3.2012s-0.87652-0.86718-1.4785-0.85281z" fill="#4d4d4d" fill-rule="evenodd"/>
  <path d="m207.66 670.47s4.5509-6.4545 7.7037-8.7085c2.3614-1.6882 5.1371-3.438 8.0386-3.3494 16.461 0.50282 30.148 0.87613 45.887 3.0145 3.709 0.50392 7.4883 1.4576 10.718 3.3494 2.3852 1.3971 4.3102 3.5291 6.029 5.694 3.8577 4.8591 6.4791 10.592 9.3784 16.077 2.4271 4.5917 6.6988 14.068 6.6988 14.068l30.815 2.3446v-43.877h2.6795l0.33494 5.3591s7.1482 0.40644 10.718 0.66988c5.2521 0.38757 10.509 0.75027 15.742 1.3398 6.3859 0.71933 12.772 1.5131 19.092 2.6795 6.8715 1.2683 13.679 2.8917 20.431 4.6892 6.3141 1.6808 13.923 3.9426 18.099 6.3518 1.8169 1.0484 2.8053 3.0071 3.3374 5.0362 1.1642 4.4397 1.1298 9.1446 1.0048 13.733-0.11954 4.3883-1.6747 13.063-1.6747 13.063h-33.159s-1.735-7.6941-3.6844-11.053c-1.4287-2.4619-3.2044-4.984-5.694-6.3639-7.7193-4.2787-22.444-5.1084-28.695-5.0061l-16.187 0.31688v15.742s-31.134 3.1204-46.222 0c-28.942-5.9855-81.391-35.169-81.391-35.169z" fill="#fc9411" fill-rule="evenodd" stroke="#000" stroke-width="1px"/>
  <path d="m223.41 658.41c-2.9015-0.0886-5.6776 1.6614-8.0391 3.3496-3.1528 2.254-7.7031 8.707-7.7031 8.707s0.85607 0.47288 2.1113 1.1562c1.5727-2.0372 3.6916-4.5844 5.4473-5.8633 2.3177-1.6882 5.041-3.4382 7.8887-3.3496 16.156 0.50282 29.59 0.87532 45.037 3.0137 3.6403 0.50392 7.3496 1.4578 10.52 3.3496 2.341 1.3971 4.2291 3.5284 5.916 5.6934 3.7862 4.8591 6.3595 10.593 9.2051 16.078 2.3821 4.5917 6.5742 14.066 6.5742 14.066l2.0371-3.9785-0.2832-0.0215s-4.2721-9.4747-6.6992-14.066c-2.8993-5.4851-5.5193-11.219-9.377-16.078-1.7188-2.1649-3.6441-4.2963-6.0293-5.6934-3.2298-1.8918-7.0097-2.8457-10.719-3.3496-15.739-2.1384-29.425-2.5108-45.887-3.0137z" fill="#666" fill-rule="evenodd"/>
  <path d="m300.79 700.82-0.6494-1.399-0.6494-1.399-0.6494-1.399-0.6494-1.399-0.57188-1.2827-0.57187-1.2827-0.57188-1.2827-0.57187-1.2827-0.68817-1.2827-0.68817-1.2827-0.68816-1.2827-0.68817-1.2827-0.68817-1.3214-0.68816-1.3214-0.68817-1.3214-0.68816-1.3214-1.226-1.9669-1.226-1.9669-1.226-1.9669-1.226-1.9669-1.0809-1.1527-1.0809-1.1527-1.0809-1.1527-1.0809-1.1527-1.3056-0.82413-1.3056-0.82414-1.3056-0.82414-1.3056-0.82413-1.5848-0.29863-1.5848-0.29862-1.5848-0.29863-1.5848-0.29863-1.5848-0.29862-1.5848-0.29863-1.5848-0.29863-1.5848-0.29862-2.0534-0.12515-2.0534-0.12515-2.0534-0.12515-2.0534-0.12516-2.0534-0.12515-2.0534-0.12515-2.0534-0.12515-2.0534-0.12515-1.4376-0.0614-1.4376-0.0614-1.4376-0.0614-1.4376-0.0614-1.4376-0.0614-1.4376-0.0614-1.4376-0.0614-1.4376-0.0614-1.4376-0.0614-1.4376-0.0614-1.4376-0.0614-1.4376-0.0614-1.4376-0.0614-1.4376-0.0614-1.4376-0.0614-1.4376-0.0614-2.2145 0.45971-2.2145 0.45971-1.2022 0.89902-1.2022 0.89902-1.2022 0.89902-1.2022 0.89902-1.3735 1.5192-1.3735 1.5192-1.3735 1.5192-1.3735 1.5192" fill="none" marker-end="url(#ap)" marker-mid="url(#ap)" marker-start="url(#ap)" stroke="#000" stroke-width=".5"/>
  <path d="m338.33 685.02 0.15821 4.8203 12.979-0.25586c6.2515-0.10235 20.976 0.72911 28.695 5.0078 2.4896 1.3799 4.2646 3.9014 5.6934 6.3633 1.9493 3.359 3.6836 11.053 3.6836 11.053h12.104l-4.5449-7.1406-4.498-5.2734-4.1856-4.8066-3.5664-2.791-3.877-2.0156-5.4258-1.3945-37.215-3.5664z" fill="#e6e6e6" fill-rule="evenodd"/>
  <path d="m301.18 727.03c0 8.0053-1.6223 15.632-4.556 22.568-2.9337 6.9366-7.1789 13.183-12.425 18.43-5.2458 5.2461-11.492 9.4916-18.428 12.426-6.9361 2.9339-14.562 4.5563-22.567 4.5563-8.0047 0-15.631-1.6224-22.567-4.5563-6.9361-2.9339-13.182-7.1794-18.428-12.426-5.2457-5.2461-9.4909-11.493-12.425-18.43-2.9337-6.9366-4.556-14.563-4.556-22.568 0-8.0053 1.6223-15.632 4.556-22.568 2.9337-6.9366 7.1789-13.183 12.425-18.43 5.2457-5.2461 11.492-9.4916 18.428-12.426 6.9361-2.9339 14.562-4.5563 22.567-4.5563 8.0047 0 15.631 1.6224 22.567 4.5563 6.9361 2.9339 13.182 7.1794 18.428 12.426 5.2457 5.2461 9.4909 11.493 12.425 18.43 2.9337 6.9366 4.556 14.563 4.556 22.568z" color="#000000" color-rendering="auto" image-rendering="auto" marker-mid="url(#an)" marker-start="url(#an)" shape-rendering="auto" solid-color="#000000" style="isolation:auto;mix-blend-mode:normal"/>
  <path d="m270.42 727.03a27.213 27.215 0 0 1 -27.213 27.215 27.213 27.215 0 0 1 -27.213 -27.215 27.213 27.215 0 0 1 27.213 -27.215 27.213 27.215 0 0 1 27.213 27.215z" color="#000000" color-rendering="auto" fill="url(#bh)" image-rendering="auto" shape-rendering="auto" solid-color="#000000" style="isolation:auto;mix-blend-mode:normal"/>
  <path d="m265.53 727.03a22.327 22.326 0 0 1 -22.327 22.326 22.327 22.326 0 0 1 -22.327 -22.326 22.327 22.326 0 0 1 22.327 -22.326 22.327 22.326 0 0 1 22.327 22.326z" color="#000000" color-rendering="auto" fill="url(#bf)" image-rendering="auto" shape-rendering="auto" solid-color="#000000" style="isolation:auto;mix-blend-mode:normal"/>
  <path d="m252.67 727.03a9.4654 9.4661 0 0 1 -9.4654 9.4661 9.4654 9.4661 0 0 1 -9.4654 -9.4661 9.4654 9.4661 0 0 1 9.4654 -9.4661 9.4654 9.4661 0 0 1 9.4654 9.4661z" color="#000000" color-rendering="auto" image-rendering="auto" shape-rendering="auto" solid-color="#000000" style="isolation:auto;mix-blend-mode:normal"/>
  <path d="m264.18 727.03c0 1.4482-0.14678 2.8622-0.42622 4.2278-0.27947 1.3656-0.69164 2.6829-1.2225 3.9378-0.5308 1.2549-4.1555-5.7569-7.716-6.1489-3.5605-0.39197-7.0569 1.9926-7.3309 2.2667-0.27407 0.27405-2.6586 3.7702-2.2665 7.3305s7.4039 7.1848 6.149 7.7156c-1.255 0.53079-2.5723 0.94292-3.938 1.2224-1.3657 0.27944-2.7797 0.4262-4.228 0.4262s-2.8624-0.14676-4.2281-0.42619c-1.3657-0.27945-2.6831-0.69159-3.938-1.2224-1.255-0.53078 5.7569-4.1553 6.149-7.7156 0.39204-3.5603-1.9925-7.0564-2.2665-7.3305-0.27408-0.27406-3.7704-2.6587-7.3309-2.2667-3.5605 0.39198-7.1852 7.4038-7.716 6.1489-0.53081-1.2549-0.94299-2.5722-1.2224-3.9378-0.27947-1.3656-0.42623-2.7796-0.42623-4.2278s0.14675-2.8622 0.42622-4.2278c0.27946-1.3656 0.69163-2.6829 1.2224-3.9378 0.53081-1.2549 4.1555 5.7569 7.716 6.1489 3.5605 0.39198 7.0569-1.9926 7.3309-2.2667 0.27407-0.27406 2.6586-3.7702 2.2665-7.3305-0.39205-3.5603-7.4039-7.1848-6.149-7.7156 1.255-0.53078 2.5723-0.94291 3.938-1.2224 1.3657-0.27944 2.7797-0.4262 4.228-0.4262s2.8624 0.14674 4.228 0.42619c1.3657 0.27946 2.6831 0.69159 3.938 1.2224 1.255 0.53078-5.7569 4.1553-6.149 7.7156-0.39204 3.5603 1.9925 7.0564 2.2665 7.3305 0.27406 0.27405 3.7704 2.6587 7.331 2.2667 3.5605-0.39198 7.1852-7.4038 7.716-6.1489s0.94298 2.5722 1.2224 3.9378c0.27945 1.3656 0.42623 2.7796 0.42623 4.2278z" color="#000000" color-rendering="auto" fill="url(#bg)" image-rendering="auto" shape-rendering="auto" solid-color="#000000" style="isolation:auto;mix-blend-mode:normal"/>
  <path d="m301.18 727.03c0 8.0053-1.6223 15.632-4.556 22.568-2.9337 6.9366-7.1789 13.183-12.425 18.43-5.2458 5.2461-11.492 9.4916-18.428 12.426-6.9361 2.9339-14.562 4.5563-22.567 4.5563-8.0047 0-15.631-1.6224-22.567-4.5563-6.9361-2.9339-13.182-7.1794-18.428-12.426-5.2457-5.2461-9.4909-11.493-12.425-18.43-2.9337-6.9366-4.556-14.563-4.556-22.568 0-8.0053 1.6223-15.632 4.556-22.568 2.9337-6.9366 7.1789-13.183 12.425-18.43 5.2457-5.2461 11.492-9.4916 18.428-12.426 6.9361-2.9339 14.562-4.5563 22.567-4.5563 8.0047 0 15.631 1.6224 22.567 4.5563 6.9361 2.9339 13.182 7.1794 18.428 12.426 5.2457 5.2461 9.4909 11.493 12.425 18.43 2.9337 6.9366 4.556 14.563 4.556 22.568z" color="#000000" color-rendering="auto" fill="url(#bi)" image-rendering="auto" opacity=".2" shape-rendering="auto" solid-color="#000000" style="isolation:auto;mix-blend-mode:normal"/>
  <path d="m457.58 741.77c0 6.0853-1.2334 11.883-3.4638 17.156-2.2304 5.2729-5.4578 10.021-9.446 14.009s-8.737 7.2151-14.01 9.4454c-5.2732 2.2303-11.071 3.4635-17.157 3.4635s-11.883-1.2333-17.157-3.4635c-5.2732-2.2303-10.022-5.4575-14.01-9.4454-3.9881-3.9879-7.2156-8.7365-9.446-14.009s-3.4638-11.07-3.4638-17.156c0-6.0853 1.2334-11.883 3.4638-17.156 2.2304-5.2729 5.4578-10.021 9.446-14.009 3.9881-3.9879 8.737-7.2151 14.01-9.4454 5.2732-2.2303 11.071-3.4636 17.157-3.4636s11.883 1.2333 17.157 3.4636c5.2732 2.2302 10.022 5.4575 14.01 9.4454 3.9881 3.9879 7.2156 8.7365 9.446 14.009 2.2304 5.2729 3.4638 11.07 3.4638 17.156z" color="#000000" color-rendering="auto" image-rendering="auto" marker-mid="url(#an)" marker-start="url(#an)" shape-rendering="auto" solid-color="#000000" style="isolation:auto;mix-blend-mode:normal"/>
  <path d="m434.2 741.77a20.689 20.688 0 0 1 -20.689 20.688 20.689 20.688 0 0 1 -20.689 -20.688 20.689 20.688 0 0 1 20.689 -20.688 20.689 20.688 0 0 1 20.689 20.688z" color="#000000" color-rendering="auto" fill="url(#bj)" image-rendering="auto" shape-rendering="auto" solid-color="#000000" style="isolation:auto;mix-blend-mode:normal"/>
  <path d="m432.58 741.77a19.07 19.069 0 0 1 -19.07 19.069 19.07 19.069 0 0 1 -19.07 -19.069 19.07 19.069 0 0 1 19.07 -19.069 19.07 19.069 0 0 1 19.07 19.069z" color="#000000" color-rendering="auto" fill="url(#be)" image-rendering="auto" shape-rendering="auto" solid-color="#000000" style="isolation:auto;mix-blend-mode:normal"/>
  <path d="m420.7 741.77a7.1962 7.1957 0 0 1 -7.1962 7.1957 7.1962 7.1957 0 0 1 -7.1962 -7.1957 7.1962 7.1957 0 0 1 7.1962 -7.1957 7.1962 7.1957 0 0 1 7.1962 7.1957z" color="#000000" color-rendering="auto" image-rendering="auto" shape-rendering="auto" solid-color="#000000" style="isolation:auto;mix-blend-mode:normal"/>
  <path d="m457.58 741.77c0 6.0853-1.2334 11.883-3.4638 17.156-2.2304 5.2729-5.4578 10.021-9.446 14.009-3.9881 3.9879-8.737 7.2151-14.01 9.4454-5.2732 2.2303-11.071 3.4635-17.157 3.4635s-11.883-1.2333-17.157-3.4635c-5.2732-2.2303-10.022-5.4575-14.01-9.4454-3.9881-3.9879-7.2156-8.7365-9.446-14.009s-3.4638-11.07-3.4638-17.156c0-6.0853 1.2334-11.883 3.4638-17.156 2.2304-5.2729 5.4578-10.021 9.446-14.009 3.9881-3.9879 8.737-7.2151 14.01-9.4454 5.2732-2.2303 11.071-3.4636 17.157-3.4636s11.883 1.2333 17.157 3.4636c5.2732 2.2302 10.022 5.4575 14.01 9.4454 3.9881 3.9879 7.2156 8.7365 9.446 14.009 2.2304 5.2729 3.4638 11.07 3.4638 17.156z" color="#000000" color-rendering="auto" fill="url(#bk)" image-rendering="auto" opacity=".2" shape-rendering="auto" solid-color="#000000" style="isolation:auto;mix-blend-mode:normal"/>
  <path d="m431.43 741.77c0 1.237-0.12536 2.4446-0.36404 3.611-0.2387 1.1664-0.59074 2.2915-1.0441 3.3633-0.45337 1.0718-3.5493-4.9171-6.5904-5.2519-3.0411-0.33479-6.0274 1.7019-6.2615 1.936-0.23409 0.23407-2.2707 3.2202-1.9359 6.2611 0.33485 3.0409 6.3238 6.1367 5.2519 6.59-1.0719 0.45335-2.1971 0.80536-3.3635 1.044-1.1665 0.23868-2.3742 0.36403-3.6112 0.36403s-2.4448-0.12535-3.6113-0.36402c-1.1665-0.23868-2.2916-0.5907-3.3635-1.044-1.0719-0.45335 4.9171-3.5491 5.2519-6.59 0.33485-3.0409-1.7018-6.027-1.9359-6.2611-0.23409-0.23408-3.2204-2.2708-6.2615-1.936s-6.137 6.3237-6.5904 5.2519-0.80542-2.1969-1.0441-3.3633c-0.2387-1.1664-0.36405-2.3741-0.36405-3.611s0.12534-2.4446 0.36404-3.611c0.23869-1.1664 0.59073-2.2915 1.0441-3.3633 0.45338-1.0718 3.5493 4.9171 6.5904 5.2519s6.0274-1.7019 6.2615-1.936c0.23409-0.23408 2.2707-3.2202 1.9359-6.2611-0.33485-3.0409-6.3238-6.1367-5.2519-6.59 1.0719-0.45334 2.1971-0.80535 3.3635-1.044 1.1665-0.23868 2.3742-0.36403 3.6112-0.36403s2.4448 0.12534 3.6112 0.36402c1.1665 0.23869 2.2916 0.5907 3.3635 1.044 1.0719 0.45335-4.9171 3.5491-5.252 6.59-0.33485 3.0409 1.7018 6.027 1.9359 6.2611 0.23408 0.23407 3.2204 2.2708 6.2615 1.936 3.0411-0.33479 6.137-6.3237 6.5904-5.2519 0.45336 1.0718 0.80541 2.1969 1.0441 3.3633s0.36405 2.3741 0.36405 3.611z" color="#000000" color-rendering="auto" fill="url(#bd)" image-rendering="auto" shape-rendering="auto" solid-color="#000000" style="isolation:auto;mix-blend-mode:normal"/>
  <path d="m346.29 607.49c-0.97748 0-1.7637 0.80528-1.7637 1.8066v38.561c0 0.3547 0.10247 0.68238 0.27344 0.96094-1.4126 0.22745-2.4434 0.93115-2.4434 1.7773v39.693c0 1.0308 1.5204 1.8613 3.4102 1.8613h2.1719c1.8898 0 3.4102-0.83052 3.4102-1.8613v-39.693c0-0.84598-1.0313-1.5497-2.4434-1.7773 0.17096-0.27856 0.27343-0.60624 0.27343-0.96094v-38.561c0-1.0014-0.78814-1.8066-1.7656-1.8066h-1.123z" color="#000000" color-rendering="auto" image-rendering="auto" shape-rendering="auto" solid-color="#000000" style="isolation:auto;mix-blend-mode:normal"/>
  <path d="m356.03 673.79 30.073 3.0974c1.7585 0.18112 3.5635 1.713 4.0471 3.4348l1.7732 6.3134c0.48357 1.7218-0.54284 2.9621-2.3014 2.781l-30.073-3.0974c-1.7585-0.18112-3.5635-1.713-4.0471-3.4348l-1.7732-6.3134c-0.48356-1.7218 0.54285-2.9621 2.3014-2.7809z" color="#000000" color-rendering="auto" image-rendering="auto" shape-rendering="auto" solid-color="#000000" style="isolation:auto;mix-blend-mode:normal"/>
  <path d="m411.67 685.02 2.3258 12.404 8.2179-0.31011 0.31011 2.791h2.1708l0.15506-3.2562h1.7056l-0.15506-1.3955s-1.8606-1.7056-1.7056-4.4966c0.15506-2.791 0.62022-3.5663 0.62022-3.5663l-0.31011-1.7056z" fill-rule="evenodd"/>
  <path d="m305.43 702.35h17.905c0.554 0 1 0.446 1 1v3.8463c0 0.554-0.446 1-1 1h-17.905c-0.554 0-1-0.446-1-1v-3.8463c0-0.554 0.446-1 1-1z" color="#000000" color-rendering="auto" fill="#1a1a1a" image-rendering="auto" shape-rendering="auto" solid-color="#000000" style="isolation:auto;mix-blend-mode:normal"/>
  <path d="m307.69 704.98-0.95364 0.25553-0.69812-0.69811 0.25553-0.95364 0.95364-0.25553 0.69811 0.69811z" color="#000000" color-rendering="auto" fill="#808080" image-rendering="auto" shape-rendering="auto" solid-color="#000000" style="isolation:auto;mix-blend-mode:normal"/>
  <path d="m322.06 704.98-0.95364 0.25553-0.69811-0.69811 0.25552-0.95364 0.95364-0.25553 0.69812 0.69811z" color="#000000" color-rendering="auto" fill="#808080" image-rendering="auto" shape-rendering="auto" solid-color="#000000" style="isolation:auto;mix-blend-mode:normal"/>
  <path d="m303.54 705.02h0.88585v37.895h-0.88585z" color="#000000" color-rendering="auto" fill="url(#az)" image-rendering="auto" shape-rendering="auto" solid-color="#000000" style="isolation:auto;mix-blend-mode:normal"/>
  <path d="m325.23 705.02h-0.88585v37.895h0.88585z" color="#000000" color-rendering="auto" fill="url(#ba)" image-rendering="auto" shape-rendering="auto" solid-color="#000000" style="isolation:auto;mix-blend-mode:normal"/>
  <path d="m303.54 740.95v3.1992h21.695v-3.1992h-1.1406v0.25781h-0.27148v-0.25781h-0.25v0.25781h-0.27149v-0.25781h-0.25v0.25781h-0.26953v-0.25781h-0.25v0.25781h-0.27148v-0.25781h-0.25v0.25781h-0.26954v-0.25781h-0.25v0.25781h-0.27148v-0.25781h-0.25v0.25781h-0.26953v-0.25781h-0.25v0.25781h-0.27149v-0.25781h-0.25v0.25781h-0.26953v-0.25781h-0.25v0.25781h-0.27148v-0.25781h-0.25v0.25781h-0.27149v-0.25781h-0.24804v0.25781h-0.27149v-0.25781h-0.25v0.25781h-0.27148v-0.25781h-0.25v0.25781h-0.26953v-0.25781h-0.25v0.25781h-0.27149v-0.25781h-0.25v0.25781h-0.26953v-0.25781h-0.25v0.25781h-0.27148v-0.25781h-0.25v0.25781h-0.26953v-0.25781h-0.25v0.25781h-0.27149v-0.25781h-0.25v0.25781h-0.26953v-0.25781h-0.25v0.25781h-0.27148v-0.25781h-0.25v0.25781h-0.27149v-0.25781h-0.25v0.25781h-0.26953v-0.25781h-0.25v0.25781h-0.27148v-0.25781h-0.25v0.25781h-0.26954v-0.25781h-0.25v0.25781h-0.27148v-0.25781h-0.25v0.25781h-0.26953v-0.25781h-0.25v0.25781h-0.27149v-0.25781h-0.25v0.25781h-0.26953v-0.25781h-0.25v0.25781h-0.27148v-0.25781h-0.25v0.25781h-0.26953v-0.25781h-0.25v0.25781h-0.27149v-0.25781h-0.25v0.25781h-0.27148v-0.25781h-0.25v0.25781h-0.26953v-0.25781h-0.25v0.25781h-0.27149v-0.25781h-0.25v0.25781h-0.26953v-0.25781h-0.25v0.25781h-0.27148v-0.25781h-0.25v0.25781h-0.26953v-0.25781h-1.0215z" color="#000000" color-rendering="auto" fill="#1a1a1a" image-rendering="auto" shape-rendering="auto" solid-color="#000000" style="isolation:auto;mix-blend-mode:normal"/>
  <path d="m343.51 688.88-0.19685 12.796c-0.0107 0.69835-0.17455 1.5607-0.75006 1.9564-0.67864 0.46663-1.648-0.0373-2.4708 0-0.25599 0.0116-0.76559 0.0696-0.76559 0.0696s-0.21294 0.47748-0.2088 0.73079c6e-3 0.34111 0.11957 0.69349 0.3132 0.97438 0.29508 0.42808 0.78003 0.69417 1.218 0.97439 0.41512 0.26561 0.83751 0.573 1.3224 0.66119 0.55077 0.10018 1.1303-0.0267 1.6704-0.174 0.43067-0.11747 0.88633-0.25798 1.218-0.55679 0.39019-0.35156 0.5494-0.89583 0.80039-1.3572 0.24791-0.45569 0.52145-0.90346 0.69599-1.392 0.21209-0.5936 0.31755-1.222 0.41759-1.8444 0.1535-0.95499 0.21702-1.923 0.2784-2.8884 0.0714-1.1234 0.087-2.25 0.1044-3.3756 0.0335-2.1689 0-6.5075 0-6.5075z" fill-rule="evenodd" stroke="#000" stroke-width="1px"/>
  <path d="m309.65 603.05 5.7686 20.09-67.929 2.5056-23.866-22.595z" fill="url(#bb)" fill-rule="evenodd"/>
  <path d="m295.77 618.6-45.938 0.54492-1.5352 1.1348-0.31445 0.67969 0.91601 0.24219-1.248 4.4434 67.062-2.4746-0.0898-0.17578-16.049-4.0957-2.8047-0.29882z" fill="#666" fill-rule="evenodd"/>
  <path d="m249.83 619.14-15.377-15.923" fill="none" stroke="#666" stroke-width="1px"/>
  <path d="m223.63 603.05h86.026l-1.9686-2.5591-20.67-4.7245-3.5434-0.39371-57.088-0.78743-1.7185 1.1327-0.2784 0.69599 1.1832 0.27839-0.97439 5.5679z" fill="#fc9411" fill-rule="evenodd"/>
  <path d="m227.54 603.05-0.84375 2.8262-0.27148-0.17774-1.4805 35.887 2.9238 17.607h4.4531l-2.9219-17.607 1.3144-31.828-0.41406-0.39258 4.0684-3.7695 2.7461-2.5449h-9.5742z" color="#000000" color-rendering="auto" fill="#1a1a1a" image-rendering="auto" shape-rendering="auto" solid-color="#000000" style="isolation:auto;mix-blend-mode:normal"/>
  <path d="m246.52 624.72 0.69531 16.863-2.9219 17.607h4.4531l2.9238-17.607-0.66406-16.068-3.5117 0.12891-0.97461-0.92383z" color="#000000" color-rendering="auto" fill="#1a1a1a" image-rendering="auto" shape-rendering="auto" solid-color="#000000" style="isolation:auto;mix-blend-mode:normal"/>
  <path d="m220.07 618.27 7.9343 3.0624 7.0295 1.6704 0.90479 3.132-0.90479 3.132-7.0295 1.6704-7.9343 3.0624v-7.8647z" color="#000000" color-rendering="auto" fill="#1a1a1a" image-rendering="auto" shape-rendering="auto" solid-color="#000000" style="isolation:auto;mix-blend-mode:normal"/>
  <path d="m224.61 626.84-1.5177 0.25322-0.97813-1.1877 0.53954-1.441 1.5177-0.25322 0.97813 1.1877z" color="#000000" color-rendering="auto" fill="#ccc" image-rendering="auto" shape-rendering="auto" solid-color="#000000" style="isolation:auto;mix-blend-mode:normal"/>
  <path d="m233.47 626.77-1.3377 0.2232-0.86215-1.0469 0.47556-1.2701 1.3377-0.22319 0.86215 1.0469z" color="#000000" color-rendering="auto" fill="#ccc" image-rendering="auto" shape-rendering="auto" solid-color="#000000" style="isolation:auto;mix-blend-mode:normal"/>
  <path d="m222.79 622.07-0.85793 0.14315-0.55294-0.67142 0.305-0.81456 0.85793-0.14315 0.55294 0.67142z" color="#000000" color-rendering="auto" fill="#ccc" image-rendering="auto" shape-rendering="auto" solid-color="#000000" style="isolation:auto;mix-blend-mode:normal"/>
  <path d="m222.65 631.4-0.85793 0.14315-0.55294-0.67142 0.305-0.81456 0.85793-0.14315 0.55294 0.67142z" color="#000000" color-rendering="auto" fill="#ccc" image-rendering="auto" shape-rendering="auto" solid-color="#000000" style="isolation:auto;mix-blend-mode:normal"/>
  <path d="m243.32 635.89 5.9483 2.2958 5.27 1.2523 0.67832 2.348-0.67832 2.348-5.27 1.2523-5.9483 2.2958v-5.8961z" color="#000000" color-rendering="auto" fill="#1a1a1a" image-rendering="auto" shape-rendering="auto" solid-color="#000000" style="isolation:auto;mix-blend-mode:normal"/>
  <path d="m246.72 642.31-1.1378 0.18984-0.7333-0.89044 0.40449-1.0803 1.1378-0.18983 0.7333 0.89043z" color="#000000" color-rendering="auto" fill="#ccc" image-rendering="auto" shape-rendering="auto" solid-color="#000000" style="isolation:auto;mix-blend-mode:normal"/>
  <path d="m253.36 642.26-1.0029 0.16733-0.64635-0.78486 0.35653-0.95218 1.0029-0.16732 0.64635 0.78485z" color="#000000" color-rendering="auto" fill="#ccc" image-rendering="auto" shape-rendering="auto" solid-color="#000000" style="isolation:auto;mix-blend-mode:normal"/>
  <path d="m245.36 638.74-0.64319 0.10732-0.41454-0.50337 0.22866-0.61067 0.64319-0.10732 0.41453 0.50336z" color="#000000" color-rendering="auto" fill="#ccc" image-rendering="auto" shape-rendering="auto" solid-color="#000000" style="isolation:auto;mix-blend-mode:normal"/>
  <path d="m245.25 645.73-0.64319 0.10731-0.41454-0.50336 0.22866-0.61067 0.64319-0.10732 0.41453 0.50336z" color="#000000" color-rendering="auto" fill="#ccc" image-rendering="auto" shape-rendering="auto" solid-color="#000000" style="isolation:auto;mix-blend-mode:normal"/>
  <path d="m247.3 625.47 0.0469 7.2129 7.8965-7.3164 6.8672-6.3652-2e-3 -2e-3 5e-5 4e-5 -12.277 0.14649-1.5352 1.1348-0.31445 0.67969 0.91601 0.24219-1.3272 4.4463z" fill="#1a1a1a" fill-rule="evenodd"/>
 </g>
</svg>
