<?xml version="1.0" encoding="UTF-8"?>
<svg viewBox="0 0 522 522" xmlns="http://www.w3.org/2000/svg" xmlns:xlink="http://www.w3.org/1999/xlink">
 <defs>
  <linearGradient id="w" x1="1.5479" x2=".1266" y1="-.3818" y2=".88631" xlink:href="#o"/>
  <linearGradient id="x" x1="-.22814" x2=".82798" y1="1.1001" y2=".19626" xlink:href="#o"/>
  <linearGradient id="v" x1=".4995" x2=".14625" y1="1.2259" y2=".50832" xlink:href="#p"/>
  <linearGradient id="y" x1=".9013" x2="-.14699" y1="-.32984" y2="1.2887" xlink:href="#n"/>
  <linearGradient id="r" x1="2.7704" x2="-.16394" y1="1.3894" y2=".36058">
   <stop stop-color="#1a1a1a" offset="0"/>
   <stop stop-color="#1a1a1a" stop-opacity="0" offset="1"/>
  </linearGradient>
  <linearGradient id="u" x1=".50007" x2=".14673" y1="1.2058" y2=".50009" xlink:href="#p"/>
  <linearGradient id="z" x1=".80005" x2="-.18188" y1="-.41222" y2="1.4306">
   <stop stop-color="#373737" offset="0"/>
   <stop stop-opacity="0" offset="1"/>
  </linearGradient>
  <linearGradient id="t" x1="2.2441" x2=".10638" y1="-1.2563" y2=".94126" xlink:href="#n"/>
  <linearGradient id="p">
   <stop stop-color="#18181a" offset="0"/>
   <stop stop-color="#18181a" stop-opacity="0" offset="1"/>
  </linearGradient>
  <linearGradient id="s" x1="2.2843" x2=".1266" y1="-1.801" y2=".88631" xlink:href="#o"/>
  <linearGradient id="o">
   <stop offset="0"/>
   <stop stop-opacity="0" offset="1"/>
  </linearGradient>
  <linearGradient id="q" x1=".72027" x2=".10638" y1="-.004656" y2=".94126" xlink:href="#n"/>
  <linearGradient id="n">
   <stop stop-color="#373737" offset="0"/>
   <stop stop-opacity="0" offset="1"/>
  </linearGradient>
 </defs>
 <path d="m441.5 255.24a80.638 80.013 0 1 1 -161.28 0 80.638 80.013 0 1 1 161.28 0z" stroke-width="0"/>
 <g fill-rule="evenodd">
  <g fill="#3f3f3f">
   <path d="m120.42 49.402l64.926 1.9285 1.285 12.214 54.641-0.6428 2.571 119.57h12.857l-4.5-124.71 25.07-16.714v-20.57l-158.78 1.9285 1.928 26.999z"/>
   <path d="m130.74 113.95c1.725-4.314 14.667-21.57 14.667-21.57l3.02-5.1769-5.608-25.021 3.451-8.1967 5.177-4.3141 20.708-3.8826 6.039 6.471v10.354l2.589 9.9223-3.883 1.7256v4.7454l-0.431 4.7455-4.746 3.4512-2.588 1.7257 0.863 12.511 6.902 12.942 10.785 6.471 16.394 10.785 4.314 4.314v10.354l12.51-24.59 3.883-3.452 3.883 1.295 1.294 3.451-4.746 10.354-0.431 9.059 2.588 2.157 5.609 4.746 9.922 17.256 9.491 0.431 10.354-15.962 9.491 6.04-7.334 12.942 2.588 1.294 17.256-11.216 3.452 48.317-59.103-0.431-47.023-73.77-52.2-13.805 0.863-6.472z"/>
  </g>
  <path d="m152.94 255.08l76.331 29.584 160.5 0.741 47.347-71.41s12.086-41.537-0.659-66.798c-4.353-8.627-11.914-11.349-21.507-12.505-22.01-2.651-80.063-6.934-130.27-6.686 1.087 17.412 4.328 51.377 4.409 77.87-16.262 0.774-43.049 1.236-49.858 0.90401-11.707-23.742-36.173-71.233-51.298-83.264-22.55-3.224-67.78-8.504-89.95-7.739-20.303 0.7-55.9-4.568-66.804 11.087-5.976 8.58-0.8667 15.105-5.1359 24.65-4.1955 9.38-22.826 25.538-22.826 25.538l39.857 21.434 109.87 56.594z" fill="#00f" stroke-width="1.051"/>
  <path d="m288.64 151.49l149.74 3.564s1.125 1.975 1.753 6.942c-6.778 0-151.09-0.93799-151.09-0.93799l-0.398-9.568z" fill="#ff0" stroke="#000"/>
  <path d="m221.55 2.4082c-41.866-0.07913-85.704 1.6143-98.407 5.2188-8.459 2.4004-11.674 17.168-11.674 17.168l-8.669 94.244c31.252 2.493 81.677 5.262 86.968 9.618 18.847 15.515 50.032 83.344 50.032 83.344h53.406l-8.906-173.44 9.875-7.6875 2.937-10.796s-13.202-13.068-18.756-13.495c-16.54-1.2725-31.687-4.1305-56.806-4.178zm-96.469 28l57.781 0.6562s0.52 8.1258 1.438 92.624c-5.781-2.493-34.516-5.1-62.813-7.593l3.594-85.688zm149.72 0.4375l10.718 175.91-47.312 0.062s-22.496-52.98-47.188-79.75l-1.718-95.624 85.5-0.5937z" stroke-width=".966"/>
  <path d="m1.1187 181.7c1.0495-4.81 8.4241-13.019 16.082-21.443 7.6582-8.424 30.062-32.46 52.842-36.759 30.843-5.822 80.496 1.036 105.68 3.829 4.046 0.44801 9.911 1.199 13.019 3.829 14.771 12.5 39.047 56.817 50.544 83.475 6.957 16.129-9.189 72.753-9.189 72.753l-76.583-29.187-124.06-63.478-16.087-11.475s-4.086 2.22-5.9705 2.041c-2.159-0.205-6.7399-1.466-6.2777-3.585z"/>
  <path d="m289.44 163.65h151.3" fill="#00f" stroke="#000"/>
  <path d="m333.69 288.04c0-7.174-0.47098-32.854 2.207-43.592 3.819-15.314 16.944-35.081 28.142-47.462 5.06-5.595 23.849-17.181 30.805-20.13 18.957-8.035 47.069-4.398 49.183-3.87 0 0 1.177-3.583-5.496-4.686-10.401-1.72-34.659-0.62799-49.11 2.207-9.455 1.855-31.147 12.775-41.671 22.33-14.422 13.091-28.048 36.178-32.034 50.551-1.489 5.371-4.171 24.182-3.546 40.789 6.342 1.089 22.072 7.725 22.072 7.725" fill="#007fff"/>
  <path d="m111.66 26.071l186.22-4.9005s-5.419-8.5234-8.167-10.89c-4.318-3.7184-11.187-8.4605-16.88-8.712-36.052-1.5927-86.667-2.7528-123.6 0.5445-9.416 0.84057-23.822-0.66358-31.037 5.445-4.495 3.8059-6.534 18.513-6.534 18.513z" fill="#00f"/>
  <path d="m85.44 118.26l7.3339-76.358 20.707-15.962 0.863-12.942-16.393-0.8628-0.8628 12.511 1.7256-1.2942-9.4909 5.6083-4.7455 0.2157-0.4314 10.785 4.7455 0.6471" stroke="#000"/>
  <path d="m303.3 47.512l-2.157 4.7454-3.02 163.5s1.003 3.786 2.588 4.745c2.217 1.342 6.434 1.81 8.628 0.43199 1.374-0.862 2.589-4.746 2.589-4.746l2.588-163.07-1.725-4.7454v-15.962s-2.504-2.3495-3.883-2.5884c-1.577-0.2732-5.177 1.2942-5.177 1.2942l-0.431 16.393z" fill="#3f3f3f"/>
 </g>
 <g fill-rule="evenodd">
  <path d="m121.5 116.15l3.603-85.684 57.783 0.6679s0.49901 8.0972 1.417 92.596c-5.781-2.494-34.507-5.087-62.803-7.58z" fill="url(#z)" stroke-width=".919"/>
  <path d="m191.15 127.1l-1.722-95.614 85.493-0.5802 10.709 175.88-47.32 0.061s-22.469-52.981-47.16-79.75z" fill="url(#y)" stroke-width="1.022"/>
  <path d="m93.206 41.904l-7.7653 75.496 17.688 0.431 8.628-89.732" fill="url(#r)" stroke="#000"/>
  <g stroke="#ccc">
   <path d="m96.657 23.785s-4.8907 0.3213-4.5297-3.2355c0.4021-3.9629-0.2455-3.9454 0.2157-5.6083 0.8628-3.1109 5.1768-3.0198 5.1768-3.0198l-0.8628 11.864z" fill="url(#u)" stroke-width=".3"/>
   <path d="m83.73 40.311s-3.6193 0.5385-3.384-3.0354c0.2621-3.982-0.1601-3.9645 0.1406-5.6353 0.5624-3.1259 3.3744-3.0344 3.3744-3.0344l-0.131 11.705z" fill="url(#v)" stroke-width=".243"/>
  </g>
 </g>
 <g stroke-width="0">
  <g fill="#1a1a1a">
   <path d="m225.71 248.86a112.86 112.86 0 1 1 -225.71 0 112.86 112.86 0 1 1 225.71 0z"/>
   <path d="m522 268.87a90 90 0 1 1 -180 0 90 90 0 1 1 180 0z"/>
  </g>
  <g fill="#ff0">
   <path d="m177.54 249.4a65.022 65.022 0 1 1 -130.04 0 65.022 65.022 0 1 1 130.04 0z"/>
   <path d="m483.55 269.63a50.138 50.138 0 1 1 -100.28 0 50.138 50.138 0 1 1 100.28 0z"/>
  </g>
  <path d="m166.15 248.26a53.633 53.633 0 1 1 -107.27 0 53.633 53.633 0 1 1 107.27 0z"/>
  <path d="m466.75 271.04a40.457 42.165 0 1 1 -80.914 0 40.457 42.165 0 1 1 80.914 0z"/>
 </g>
 <path d="m84.044 197.01s-0.6818 7.515 6.1517 7.515 53.299 5.245 53.299 5.245l7.748-5.462 11.386 21.175-5.015 4.788-5.922 48.054 4.104 6.382-9.111 9.111-9.112-4.556-58.539-6.149-8.6569 2.733-9.1113-11.39 7.0633-6.159 6.3765-49.653-5.6921-9.793 15.031-11.841z" fill="#ff0" fill-rule="evenodd"/>
 <g stroke-width="2.104">
  <g fill="none" stroke="url(#q)">
   <path d="m170.48 248.41a57.686 57.686 0 1 1 -115.37 0 57.686 57.686 0 1 1 115.37 0z"/>
   <path d="m172.91 248.68a60.388 60.388 0 1 1 -120.78 0 60.388 60.388 0 1 1 120.78 0z"/>
  </g>
  <path d="m140.31 246.23a27.063 27.063 0 1 1 -54.126 0 27.063 27.063 0 1 1 54.126 0z" fill="url(#s)"/>
 </g>
 <path d="m131.5 244.15a16.705 16.705 0 1 1 -33.41 0 16.705 16.705 0 1 1 33.41 0z" fill="#3f3f3f" stroke="url(#t)" stroke-width="20.268"/>
 <path d="m413.34 237.26l32.434 5.296 9.267-3.972 9.929 11.253-8.605 7.281-5.295 33.758 5.957 10.59-7.281 8.605-7.943-3.971-37.73-5.295-5.957 4.633-9.267-13.238 1.986-6.62 7.281-39.715-3.971-4.633 13.9-9.929 5.295 5.957z" fill="#ff0" fill-rule="evenodd"/>
 <g fill="none" stroke="#000" stroke-width="2.144">
  <path d="m472.3 270.86a43.007 43.148 0 1 1 -86.014 0 43.007 43.148 0 1 1 86.014 0z"/>
  <path d="m475.18 270.49a44.595 44.736 0 1 1 -89.189 0 44.595 44.736 0 1 1 89.189 0z"/>
 </g>
 <g stroke-width="2.104">
  <path d="m450.58 270.53a27.063 27.063 0 1 1 -54.126 0 27.063 27.063 0 1 1 54.126 0z" fill="url(#w)"/>
  <path d="m442.86 271.66a22.402 22.402 0 1 1 -44.805 0 22.402 22.402 0 1 1 44.805 0z" fill="#ff0"/>
  <path d="m434.18 271.82a14.206 14.206 0 1 1 -28.412 0 14.206 14.206 0 1 1 28.412 0z" fill="url(#x)"/>
  <path d="m435.31 269.57a13.403 13.403 0 1 1 -26.805 0 13.403 13.403 0 1 1 26.805 0z" fill="#ff0"/>
 </g>
</svg>
