<?xml version="1.0" encoding="UTF-8"?>
<!DOCTYPE svg  PUBLIC '-//W3C//DTD SVG 1.1//EN'  'http://www.w3.org/Graphics/SVG/1.1/DTD/svg11.dtd'>
<svg enable-background="new 0 0 121.05 115.75" version="1.1" viewBox="0 0 121.05 115.75" xml:space="preserve" xmlns="http://www.w3.org/2000/svg" xmlns:xlink="http://www.w3.org/1999/xlink">
<symbol id="d" viewBox="-48.4 -46.3 96.85 92.6">
	<g clip-rule="evenodd" fill-rule="evenodd">
		<path d="m35.05-45.05c-1.5-0.6-2.95-0.85-4.35-0.75-1.5 0.066-2.55 0.85-3.15 2.35-0.566 1.367-0.517 2.35 0.15 2.95 0.8 0.667 2.2 2.333 4.2 5l7-1.65-2.05-6.95c-0.467-0.333-1.067-0.65-1.8-0.95z" fill="#8F4141"/>
		<polygon points="35.9 28.9 23.25 39.4 37.9 42.4 41.4 40.9" fill="#CA5C5C"/>
		<path d="m43.7 41.05l2.95 1.7 1-1.25 0.25-69.25-10.4-11.2 0.45 77 1.85 1.15c1.467 0.866 2.767 1.483 3.9 1.85z" fill="#C7B48D"/>
		<path d="m46.15 34.05v4.65c-0.066 1.533-0.233 2.233-0.5 2.1l-5.8-3.75c-0.967-0.7-1.417-2.9-1.35-6.6v-56.85c0-5.5 0.167-8.183 0.5-8.05l7.35 8.6c0.133 0.4 0.183 1.75 0.15 4.05-0.033 2.7-0.05 4.567-0.05 5.6l-0.3 50.25zm-2.45 7l2.95 1.7 0.85-1.05 0.3-65.85c0-1.966-0.034-3.233-0.1-3.8l-10.2-11 0.45 77 1.85 1.15c1.467 0.866 2.767 1.483 3.9 1.85z" fill="#FFE2A8"/>
		<path d="m36.8 38.25c0.3 1.567 0.667 2.417 1.1 2.55l9.3 4.3c0.667 1.167 1-0.85 1-6.05l0.25-63.8c0-3.367-0.233-5.15-0.7-5.35l-10.9-14c-0.4-0.367-0.65 1.05-0.75 4.25-0.033 1.267-0.05 3.8-0.05 7.6l0.4 65.4c0 1.933 0.117 3.633 0.35 5.1zm10-0.2c-0.066 1.534-0.233 2.233-0.5 2.1l-5.8-3.75c-0.967-0.667-1.417-2.85-1.35-6.55v-56.9c0-5.534 0.184-8.2 0.55-8l7.3 8.6c0.133 0.4 0.2 1.733 0.2 4-0.067 2.7-0.1 4.567-0.1 5.6l-0.3 50.25v4.65z" fill="#994848"/>
		<path d="m46.2 31.85c0.066-0.633-0.184-2.066-0.75-4.3-0.6-2.367-0.883-4.05-0.85-5.05-0.267-20.133-0.4-30.583-0.4-31.35 0-0.833 0.167-3.017 0.5-6.55 0.233-3.333 0.15-5.367-0.25-6.1-0.1-0.233-0.167-0.8-0.2-1.7 0-0.733-0.167-1.233-0.5-1.5-0.467-0.4-1.117-0.567-1.95-0.5-0.867 0.067-1.367 0.417-1.5 1.05-0.233 1.1-0.233 3.05 0 5.85 0.333 2.934 0.517 4.733 0.55 5.4 0.333 2.067 0.6 4.05 0.8 5.95 0.434 3.633 0.583 7.117 0.45 10.45-0.533 11.066-0.767 17.816-0.7 20.25 0.034 2.033 0.217 3.85 0.55 5.45 0.367 1.833 0.85 2.883 1.45 3.15 0.467 0.2 0.983 0.284 1.55 0.25 0.767-0.034 1.183-0.284 1.25-0.75z" fill="#FFE2A8"/>
		<path d="m45.4 32.35c0.733 0.3 1.133-0.667 1.2-2.9 0.033-1.333 0.033-3.65 0-6.95-0.267-20.133-0.4-30.583-0.4-31.35 0-0.833 0.167-3.017 0.5-6.55 0.233-3.333 0.15-5.367-0.25-6.1-0.6-1.233-1.333-2.25-2.2-3.05-1.067-0.934-1.717-0.8-1.95 0.4-0.233 1.1-0.233 3.05 0 5.85 0.333 2.933 0.517 4.733 0.55 5.4 0.333 2.066 0.6 4.05 0.8 5.95 0.434 3.633 0.583 7.117 0.45 10.45-0.533 11.067-0.767 17.817-0.7 20.25 0.033 2.033 0.217 3.85 0.55 5.45 0.367 1.833 0.85 2.883 1.45 3.15z" fill="#994848"/>
		<path d="m41.4 45.4l1.75-0.6-8.1-4c-15.833-0.1-31.467 0.017-46.9 0.35-9.633 0.2-16.316 0.467-20.05 0.8l-2.7 0.45 13.4 3.4 2.35 0.25 60.25-0.65z" fill="#FFE8BD"/>
		<path d="m43.15 44.8l-8.1-4h-8.7c3.469 0.092 5.969 0.325 7.5 0.7l4.6 2c0.4 0.3-0.6 0.45-3 0.45-3.267-0.033-5.7-0.017-7.3 0.05l-39.6 1.05c-4 0-6.383-0.117-7.15-0.35l-11.85-3.25c-1.167 0.067-2.167 0.233-3 0.5-0.633 0.233-0.983 0.367-1.05 0.4l12.3 2.9c0.4 0.133 1.367 0.25 2.9 0.35 1.467 0.1 3.1 0.15 4.9 0.15l56.15-0.45 1.4-0.5z" fill="#EBCF99"/>
		<path d="m33.45 42.1l6.4 2.6c0.4 0.267-0.833 0.417-3.7 0.45-3.8-0.066-6.5-0.066-8.1 0l-39.95 0.45c-4.8 0-7.383-0.067-7.75-0.2l-12.15-3.1c-0.467-0.167 1.333-0.25 5.4-0.25l47.85-0.75c4.333 0.067 6.65 0.117 6.95 0.15 2.067 0.1 3.75 0.317 5.05 0.65zm2.85-2.05c-0.533-0.2-1.466-0.383-2.8-0.55-1.733-0.2-3.717-0.283-5.95-0.25l-66.35 0.6c-1.6 0.033-2.917 0.183-3.95 0.45-0.933 0.267-1.167 0.467-0.7 0.6l20.8 4.9c0.4 0.133 1.367 0.25 2.9 0.35 1.467 0.1 3.117 0.15 4.95 0.15l57.45-0.45c1.767 0 3.133-0.05 4.1-0.15 0.967-0.133 1.25-0.267 0.85-0.4l-11.3-5.25z" fill="#C15A5A"/>
		<path d="m20.4 44.4c1.1 0.033 4.184 0.15 9.25 0.35 0.434 0 0.65-0.284 0.65-0.85 0.033-0.533-0.1-0.883-0.4-1.05-0.566-0.333-1.466-0.533-2.7-0.6-4.367-0.333-7.85-0.517-10.45-0.55h-3.75c-3.4-0.033-4.933-0.033-4.6 0 0.5 0.133-2.716 0.267-9.65 0.4l-4.7 0.05c-5.633 0.1-8.817 0.133-9.55 0.1-0.633 0-1.45-0.05-2.45-0.15-0.733-0.066-1.417-0.083-2.05-0.05-1 0.033-1.45 0.433-1.35 1.2 0.1 0.733 0.35 1.1 0.75 1.1 0.3 0 2 0.133 5.1 0.4 3.3 0.267 5.733 0.383 7.3 0.35 1.033-0.033 2.55-0.1 4.55-0.2 2.167-0.133 3.317-0.217 3.45-0.25 1.733-0.567 3.367-0.767 4.9-0.6 0.833 0.1 1.983 0.25 3.45 0.45l2.8-0.25c4.433-0.067 7.583-0.017 9.45 0.15z" fill="#EBCF99"/>
		<path d="m20.3 44.8c4.934 0.133 7.633 0.2 8.1 0.2 1.4-0.033 1.833-0.15 1.3-0.35-0.534-0.2-1.367-0.333-2.5-0.4-4.367-0.333-7.85-0.517-10.45-0.55h-3.75c-3.4-0.034-4.933-0.034-4.6 0 0.5 0.133-2.717 0.267-9.65 0.4l-4.7 0.05c-5.633 0.1-8.816 0.133-9.55 0.1-1.867-0.133-3.367-0.2-4.5-0.2-1.5 0.034-1.45 0.2 0.15 0.5 1.5 0.333 3.05 0.55 4.65 0.65 2.9 0.167 5.117 0.233 6.65 0.2 0.966 0 2.333-0.033 4.1-0.1 1.833-0.066 2.817-0.117 2.95-0.15 0.167-0.066 2.517-0.133 7.05-0.2l14.75-0.15z" fill="#C15A5A"/>
		<polygon points="34.2 -43.55 -45 -40.9 -44.9 38.45 34.2 35.55" fill="#FFE2A8"/>
		<path d="m33.15 29.9c-1.233-0.367-3.066-0.684-5.5-0.95-4.9-0.533-10.35-0.583-16.35-0.15-8.233 0.7-13.967 1.167-17.2 1.4-5.367 0.434-10.5 0.65-15.4 0.65-4.967 0.034-10.4-0.333-16.3-1.1-2.933-0.367-5.367-0.733-7.3-1.1l-1.05 4.25c0.334-0.101 0.734-0.201 1.2-0.3 2.167-0.466 5.1-0.667 8.8-0.6 12.066 0.2 23.183-0.117 33.35-0.95 4.867-0.433 9.65-0.85 14.35-1.25 2.733-0.2 5.633-0.15 8.7 0.15 4.667 0.467 8.816 1.367 12.45 2.7l0.25-2.75zm-19.075 2.95c-11.68-0.149-20.206-0.049-25.575 0.3-4.033 0.267-9.633 0.367-16.8 0.3-3.733-0.033-8.184-0.083-13.35-0.15h-4.4l-0.55 2.2c2.034-0.5 4.633-0.817 7.8-0.95 1.8-0.067 5.467-0.1 11-0.1 13.967-0.066 25.066-0.433 33.3-1.1 3.238-0.243 6.096-0.41 8.575-0.5zm-60.125 0.45l0.1-0.4c-0.456 0.132-0.789 0.266-1 0.4h0.9z" fill="#EBCF99"/>
		<path d="m33.45-0.5c-0.7-0.167-2.033-0.233-4-0.2-3.9 0.033-8.983 0.483-15.25 1.35-9.033 1.267-14.833 2.033-17.4 2.3-4.433 0.433-8.467 0.55-12.1 0.35-2.7-0.167-7.817-0.883-15.35-2.15-6.667-1.133-10.433-1.633-11.3-1.5l-1.875 0.325c-0.116 1.812-0.183 4.146-0.2 7 1.099-0.407 2.641-0.815 4.625-1.225 4.233-0.867 8.833-1.35 13.8-1.45 3.934-0.067 8.95-0.033 15.05 0.1 5.1 0.133 8.717 0.133 10.85 0 0.233 0 4.733-0.367 13.5-1.1 6.367-0.533 10.667-0.733 12.9-0.6 3.733 0.2 6.017 0.383 6.85 0.55l-0.1-3.75zm0.25 5.8c-1.767-0.133-4.117-0.2-7.05-0.2-5.867 0-11.733 0.317-17.6 0.95-5.267 0.567-11.667 0.633-19.2 0.2-7.6-0.434-12.317-0.55-14.15-0.35-4.788 0.495-11.355 1.595-19.7 3.3-4e-3 0.456-4e-3 0.923 0 1.4 6e-3 0.865 0.014 1.731 0.025 2.6 0.324-0.244 0.699-0.478 1.125-0.7 2.267-1.267 6.2-2.483 11.8-3.65 7.3-1.566 13.883-2.033 19.75-1.4 6.1 0.633 11.55 0.9 16.35 0.8 3.133-0.067 7.767-0.383 13.9-0.95 4.267-0.367 8.05-0.3 11.35 0.2 1.667 0.233 2.9 0.517 3.7 0.85l-0.3-3.05zm-0.8 10.2c-1.267-0.367-2.933-0.667-5-0.9-4.167-0.5-8.267-0.483-12.3 0.05-5 0.667-10.483 1.117-16.45 1.35-6.267 0.233-11.617 0.15-16.05-0.25-4.167-0.367-9.233-0.45-15.2-0.25-5.267 0.167-8.95 0.45-11.05 0.85-0.279 0.049-0.529 0.083-0.75 0.1 4e-3 0.457 0.012 0.915 0.025 1.375 0.503-0.094 1.146-0.169 1.925-0.225 2.767-0.267 6.267-0.183 10.5 0.25 4.4 0.467 9.3 0.65 14.7 0.55 2.733-0.033 6.633-0.2 11.7-0.5 0.367-0.033 4.933-0.5 13.7-1.4 6.7-0.7 11.35-0.934 13.95-0.7 4.367 0.367 6.7 0.583 7 0.65l3.3 0.85v-1.8zm0.8 7.55c-9.7 0.233-16.383 0.5-20.05 0.8-2.933 0.2-6.3 0.167-10.1-0.1-4.133-0.267-8.05-0.8-11.75-1.6s-10.2-1.533-19.5-2.2c-9.1-0.633-14.217-0.767-15.35-0.4-0.295 0.099-0.554 0.148-0.775 0.15 0.055 2.067 0.13 4.134 0.225 6.2 2.2-1.3 4.983-2.367 8.35-3.2 4.733-1.133 9.2-1.333 13.4-0.6 5.567 1 11.067 1.833 16.5 2.5 6.534 0.8 11.65 1.15 15.35 1.05 2.7-0.1 6.65-0.283 11.85-0.55 4.2-0.167 6.95-0.133 8.25 0.1 2.1 0.367 3.4 0.684 3.9 0.95l-0.3-3.1zm-77.575-5.225c-0.414 0.08-0.739 0.172-0.975 0.275-0.066 0.367-0.033 0.7 0.1 1 0.157 0.403 0.465 0.603 0.925 0.6-0.019-0.625-0.036-1.25-0.05-1.875zm-0.125-8.625c-0.014-0.773-0.022-1.515-0.025-2.225-0.056 0.026-0.114 0.051-0.175 0.075l-0.05 2.2c0.08-0.017 0.163-0.033 0.25-0.05zm-1.4 6.05c-0.167 0.863 0.333 1.263 1.5 1.2-0.03-1.085-0.055-2.169-0.075-3.25-0.83 0.621-1.305 1.304-1.425 2.05zm1.75-17.3c-0.082 0.017-0.165 0.033-0.25 0.05-1.6 0.3-2.183 0.75-1.75 1.35l1.1 0.75 0.725-0.125c0.053-0.768 0.111-1.443 0.175-2.025zm14.3 0.55c-7.333-2.2-11.783-3.284-13.35-3.25-0.404 0.014-0.721 0.914-0.95 2.7 2.636-0.439 7.402-0.256 14.3 0.55z" fill="#EBCF99"/>
		<path d="m11-2.75c-0.167 0.033-3.25 0.833-9.25 2.4-3.033 0.8-7.417 1.033-13.15 0.7l-7.75-0.7 1.3 0.4 3.95 0.5c8.367 0.967 15.7 0.733 22-0.7 5.733-1.267 12-2.333 18.8-3.2 0-0.133-0.283-0.267-0.85-0.4-1.167-0.233-3.184-0.3-6.05-0.2-3 0.133-6 0.533-9 1.2z" fill="#EBCF99"/>
		<path d="m32.6-7.75c0.493-0.132 0.551-0.232 0.175-0.3l-0.175 0.3zm0.175-0.3l1.225-2.2c-0.933-0.1-2.117-0.1-3.55 0-2 0.133-3.3 0.233-3.9 0.3-1.833 0.2-3.65 0.533-5.45 1-1.733 0.433-3.883 0.667-6.45 0.7l-3.35-0.05 3.1 0.6c2.934 0.333 6.534 0.317 10.8-0.05 4.3-0.333 6.816-0.434 7.55-0.3h0.025z" fill="#EBCF99"/>
		<path d="m-44.225-7.55c0.083-0.122 0.241-0.222 0.475-0.3 1.633-0.567 6.217-0.367 13.75 0.6 8.3 1.066 15.133 1.767 20.5 2.1 3.967 0.2 8.184 0.25 12.65 0.15 2.36-0.062 4.343-0.12 5.95-0.175-1.467 0.016-3.033 0.025-4.7 0.025-6.633-0.034-11.966-0.45-16-1.25-4.433-0.9-10.35-1.75-17.75-2.55-6.8-0.767-11.066-1.1-12.8-1l-2.95 0.15 0.875 2.25zm-0.025 0.45l0.35 0.4-0.325-0.85c-0.105 0.123-0.113 0.273-0.025 0.45z" fill="#EBCF99"/>
		<path d="m-44.55-11.4c2.167-0.566 5.4-0.833 9.7-0.8 4.016 0 6.374 0.058 7.075 0.175-9.089-1.883-14.314-2.808-15.675-2.775-0.867 0.033-1.3 0.6-1.3 1.7l0.2 1.7z" fill="#EBCF99"/>
		<path d="m-43.7-17c1.433-0.133 3.367-0.184 5.8-0.15 4.9 0.1 9.9 0.55 15 1.35 10.733 1.667 16.583 2.55 17.55 2.65 6.333 0.7 11.967 0.7 16.9 0 4.8-0.667 9.716-1.95 14.75-3.85 2.5-0.934 4.533-1.8 6.1-2.6l0.95-2.6c-1.367 0.933-3.183 1.933-5.45 3-4.533 2.1-9.1 3.4-13.7 3.9-6.233 0.7-11.317 1.067-15.25 1.1-5 0.033-9.95-0.417-14.85-1.35-16.967-3.133-26.05-4.683-27.25-4.65-0.7 0.033-1 0.567-0.9 1.6l0.35 1.6z" fill="#EBCF99"/>
		<path d="m33.5-29.8c-1.4-0.333-3.1-0.65-5.1-0.95-4.033-0.567-7.583-0.717-10.65-0.45-1.467 0.133-6.483 0.75-15.05 1.85-7.9 1.033-14.383 1.717-19.45 2.05-5.467 0.367-11.717-0.333-18.75-2.1-3.5-0.9-6.467-1.833-8.9-2.8l-0.025 5.5c0.852 0.429 2.011 0.829 3.475 1.2 4.4 1.133 10.1 1.417 17.1 0.85 5.3-0.433 13.017-1.483 23.15-3.15 8.4-1.367 14.2-2.017 17.4-1.95 6.1 0.1 11.8 0.583 17.1 1.45l-0.3-1.5zm-0.1 3.3c-1.433 0.7-3.433 1.517-6 2.45-5.167 1.866-10.633 3.35-16.4 4.45-6.267 1.167-13.017 1.683-20.25 1.55-5.967-0.1-10.917-0.566-14.85-1.4-4.367-0.967-11.133-2.867-20.3-5.7l-0.025 0.3-0.025 3.75c0.733-0.1 1.933-0.1 3.6 0 3.367 0.2 7.45 0.783 12.25 1.75 8.7 1.767 14.55 2.8 17.55 3.1 6.733 0.733 13.033 0.417 18.9-0.95 8.967-2.033 17.333-4.25 25.1-6.65l0.45-2.65zm-77.825 1.65v-1.85c-0.441-0.226-0.8-0.459-1.075-0.7l0.65 6.3 0.425-3.75z" fill="#EBCF99"/>
		<path d="m-10.4-20.65c3.167 0.6 6.7 0.767 10.6 0.5 4.367-0.3 7.35-1.117 8.95-2.45 1.7-1.4 1.567-2.333-0.4-2.8-1.967-0.5-4.983-0.383-9.05 0.35-4.4 0.767-7.65 1.55-9.75 2.35-2.367 0.933-2.483 1.617-0.35 2.05z" fill="#EBCF99"/>
		<path d="m34.05-33.4c-0.633-0.4-1.7-0.767-3.2-1.1-3-0.733-6.65-1-10.95-0.8-8.533 0.367-14.133 0.55-16.8 0.55-6.367 0.033-10.617-0.4-12.75-1.3-2.867-1.467-4.967-2.483-6.3-3.05-2.3-1.033-4.767-1.533-7.4-1.5-4.3 0.066-9.6 0.4-15.9 1 4.833 0.033 8.867 0.25 12.1 0.65 4 0.5 8 1.417 12 2.75 3.8 1.267 8.783 2.067 14.95 2.4 4.333 0.233 8.816 0.233 13.45 0 2.833-0.167 7 0.15 12.5 0.95 4.967 0.733 7.517 1.217 7.65 1.45 0.1 0.1 0.233-0.2 0.4-0.9 0.1-0.367 0.183-0.734 0.25-1.1z" fill="#EBCF99"/>
		<path d="m33.35-38.3c-4.2-0.066-9.933 0.05-17.2 0.35-4.933 0.233-10.066 0-15.4-0.7-4.4-0.6-7.65-1.283-9.75-2.05-1.4-0.5-2.65-0.633-3.75-0.4l-1.2 0.55c2.966 1.467 5.3 2.417 7 2.85 4.5 1.2 9.917 1.583 16.25 1.15 6.233-0.433 12.133-0.467 17.7-0.1 2.8 0.2 4.967 0.434 6.5 0.7l-0.15-2.35z" fill="#EBCF99"/>
		<path d="m2.8-41.05c2.106 0.349 3.557 0.583 4.35 0.7 6.7 1.066 11.167 1.45 13.4 1.15 2.333-0.3 4.267-0.883 5.8-1.75 0.733-0.467 1.25-0.883 1.55-1.25l-3.1-0.65c-0.867 0.533-1.934 1.083-3.2 1.65-2.533 1.1-4.817 1.667-6.85 1.7s-4.083-0.35-6.15-1.15l-2.55-1.15c-0.5 0.133-1.05 0.283-1.65 0.45-0.688 0.157-1.221 0.257-1.6 0.3z" fill="#EBCF99"/>
		<path d="m-24.1 26.2c1.833 0.5 2.184 1.067 1.05 1.7s-3.167 0.867-6.1 0.7c-2.833-0.133-5-0.566-6.5-1.3-0.7-0.333-0.567-0.617 0.4-0.85 0.667-0.133 2.333-0.35 5-0.65 2.333-0.234 4.383-0.1 6.15 0.4zm4.5-0.2c-0.4-1.833-2.667-2.617-6.8-2.35-4.633 0.3-8.283 0.967-10.95 2-2.767 1.066-2.767 1.933 0 2.6 2.467 0.6 4.567 1 6.3 1.2 2.733 0.333 5.267 0.317 7.6-0.05 2.967-0.434 4.25-1.567 3.85-3.4z" fill="#EBCF99"/>
		<path d="m-37.6-36.9c-4.466 0.3-6.05 0.9-4.75 1.8 2.4 1.633 5.95 2.867 10.65 3.7 4.9 0.867 8.9 0.883 12 0.05 3.033-0.833 3.583-2.017 1.65-3.55-1.9-1.466-4.517-2.216-7.85-2.25-5.467 0-9.367 0.083-11.7 0.25zm3.95 3.55c-1.667-0.434-3.133-0.867-4.4-1.3-0.967-0.4 0.533-0.667 4.5-0.8s7.05-0.017 9.25 0.35 3.133 0.917 2.8 1.65c-0.3 0.7-1.667 1.1-4.1 1.2-2.033 0.1-4.716-0.267-8.05-1.1z" fill="#EBCF99"/>
		<path d="m25.3 38.2c2.033-0.833 3.45-1.333 4.25-1.5 2.5-0.533 3.633-1.233 3.4-2.1-0.033-0.1-0.217-0.45-0.55-1.05-0.267-0.433-0.333-0.783-0.2-1.05 0.333-0.633 0.3-1.45-0.1-2.45-0.367-1.067-0.6-1.183-0.7-0.35-0.1 0.7-0.633 1.283-1.6 1.75-0.867 0.4-1.95 0.65-3.25 0.75-1.567 0.1-22.4 0.483-62.5 1.15-1.034 0-1.717-0.7-2.05-2.1-0.2-0.733-0.35-2.317-0.45-4.75-0.1-1.967-0.167-9.75-0.2-23.35-0.033-15.167 0.033-26.917 0.2-35.25 0.033-1.434 0.216-2.633 0.55-3.6 0.333-0.9 0.7-1.383 1.1-1.45l1.2-2.15c-3-0.233-4.95-0.3-5.85-0.2s-2.684 1.083-5.35 2.95l0.85 27.25 0.3 39.45 3.85 8.2c33.9-0.1 54.017-0.05 60.35 0.15 3.733 0.133 5.983 0.033 6.75-0.3z" fill="#B59C6F"/>
		<path d="m33.05-32.75v61.95c0 1.667-0.583 3.117-1.75 4.35-1.2 1.2-2.633 1.833-4.3 1.9l-61.4 1.6c-1.667 0.033-3.1-0.517-4.3-1.65-1.167-1.167-1.75-2.6-1.75-4.3v-61.95c0-1.667 0.583-3.117 1.75-4.35s2.583-1.867 4.25-1.9l61.45-1.6c1.633-0.067 3.05 0.5 4.25 1.7 1.167 1.167 1.767 2.583 1.8 4.25zm0.4-5.75c0-1.3 0.05-2.733 0.15-4.3-0.133-0.933-1.033-1.383-2.7-1.35l-69.9 1.75c-1.933 0.034-3.617 0.8-5.05 2.3-1.434 1.5-2.15 3.217-2.15 5.15l0.3 70.8c0 1.767 0.7 2.95 2.1 3.55 1 0.467 2.65 0.667 4.95 0.6l64.8-2c2.9-0.067 4.633-0.184 5.2-0.35 1.534-0.434 2.3-1.483 2.3-3.15v-73z" fill="#FFF2D1"/>
		<path d="m-45.2 14.2c-0.1 1 0.183 7 0.85 18l1 3.65 5.3 3 2.05-2c-1.3-0.3-2.367-0.983-3.2-2.05s-1.25-2.3-1.25-3.7v-61.95c0-2.167 0.883-3.883 2.65-5.15-0.767-0.233-1.3-0.65-1.6-1.25-0.333-0.667-0.283-1.45 0.15-2.35 0.3-0.533 0.35-1.067 0.15-1.6-0.167-0.467-0.5-0.833-1-1.1-2 0.4-3.617 1.517-4.85 3.35l-0.1 0.3c-0.467 2.5-0.617 11.883-0.45 28.15 0.1 8.167 0.2 16.4 0.3 24.7z" fill="#C7B48D"/>
		<path d="m31.05 27.2c0 1.733-0.617 3.35-1.85 4.85-1.3 1.6-2.767 2.417-4.4 2.45l-61.85 1.5c-1.633 0.033-3.133-0.667-4.5-2.1-1.333-1.434-2-3-2-4.7l0.7-62.7c-0.033-1.6 0.617-2.934 1.95-4 1.233-1 2.717-1.534 4.45-1.6l61.45-1.6c1.633-0.067 3.05 0.5 4.25 1.7 1.167 1.167 1.767 2.583 1.8 4.25v61.95zm3.25 9.5c1.267-1.4 1.9-3.066 1.9-5l-0.15-71.3c0-1.9-0.717-3.483-2.15-4.75-1.367-1.267-3.033-1.867-5-1.8l-69.9 1.75c-1.933 0.034-3.617 0.8-5.05 2.3-1.434 1.5-2.15 3.217-2.15 5.15l0.3 70.8c0 1.934 0.683 3.567 2.05 4.9 1.333 1.3 2.967 1.933 4.9 1.9l70.5-1.8c1.9-0.067 3.483-0.784 4.75-2.15z" fill="#EBCF99"/>
		<g fill="#AE5151">
			<path d="m-44.6-6.3c0.867-0.067 1.267 0.133 1.2 0.6-0.167 0.267-0.567 0.4-1.2 0.4v-1zm-0.65 8.85c0.233-0.066 0.433-0.05 0.6 0.05 0.1 0.033 0.233 0.117 0.4 0.25-0.133 0.7-0.35 1.1-0.65 1.2-0.3-0.267-0.417-0.767-0.35-1.5zm0.8 2.65c-0.066 0.233-0.216 0.35-0.45 0.35-0.033-0.4 0.083-0.683 0.35-0.85 0.133 0.133 0.167 0.3 0.1 0.5zm-1.95-0.8c0 0.3-0.15 0.533-0.45 0.7-0.3 0.2-0.583 0.2-0.85 0v-0.5c0.133-0.033 0.367-0.117 0.7-0.25 0.267-0.1 0.467-0.083 0.6 0.05zm-0.5 1.7c0.133-0.1 0.333-0.25 0.6-0.45 0.3-0.167 0.55-0.15 0.75 0.05 0.033 0.267-0.15 0.45-0.55 0.55s-0.667 0.05-0.8-0.15zm0 6.65c-0.233 0.067-0.45 0.05-0.65-0.05-0.133-0.034-0.3-0.117-0.5-0.25 0.1-0.5 0.483-0.784 1.15-0.85 0.133 0.1 0.2 0.283 0.2 0.55 0 0.3-0.067 0.5-0.2 0.6zm77.95 18.5c0.133 0.167 0.2 0.417 0.2 0.75 0 0.4-0.117 0.6-0.35 0.6-0.167-0.167-0.217-0.4-0.15-0.7 0.033-0.3 0.133-0.517 0.3-0.65zm-1.8 0.75c-1.2 1.2-2.633 1.833-4.3 1.9l-61.8 1.6c-1.667 0.033-3.1-0.517-4.3-1.65-1.167-1.167-1.75-2.6-1.75-4.3v-7.95c-1.1-0.067-1.883 0.367-2.35 1.3-0.667 0-1.05-0.05-1.15-0.15 0.066-0.9 0.45-1.683 1.15-2.35 0.7-0.7 1.483-1.066 2.35-1.1v-16.15c-0.267-0.233-0.383-0.566-0.35-1l0.35-0.05-0.05-34.9c0-0.534 0.117-1.184 0.35-1.95-1.233 0.7-2.283 1.117-3.15 1.25-0.567-0.2-0.817-0.65-0.75-1.35 0.033-0.533 0.233-1.083 0.6-1.65-0.1-0.533-0.4-0.95-0.9-1.25-0.1-0.067-0.6-0.283-1.5-0.65-0.067 0.267-0.1 0.65-0.1 1.15v8.95l1.15 1-1.15 0.1v41.05c0.3 0.467 0.3 0.867 0 1.2v19.25c0 1.934 0.683 3.567 2.05 4.9s3.017 1.983 4.95 1.95l70.95-1.85c1.934-0.066 3.567-0.8 4.9-2.2 1.367-1.4 2.05-3.067 2.05-5v-6c-0.433-0.067-0.817-0.167-1.15-0.3 0.167-0.533 0.55-0.833 1.15-0.9v-21.75c-0.3-0.533-0.683-0.983-1.15-1.35-0.2 0.034-0.483 0.2-0.85 0.5-0.3 0.267-0.633 0.383-1 0.35-0.067-0.367 0-0.7 0.2-1 0.2-0.333 0.3-0.617 0.3-0.85-0.067-0.167-0.267-0.383-0.6-0.65-0.3-0.267-0.483-0.533-0.55-0.8 0.8-0.467 1.033-1.083 0.7-1.85-0.7-1.633-1.05-2.467-1.05-2.5-0.067-0.433-0.233-1.033-0.5-1.8-0.2-0.633-0.3-1.133-0.3-1.5 0.767 0.233 1.383 1.433 1.85 3.6 0.567 2.5 1 3.95 1.3 4.35 0.333 0.4 0.883 0.633 1.65 0.7v-15.55l-0.45-0.2v-0.35c0-0.4-0.066-0.667-0.2-0.8-0.033-0.067-0.1-0.15-0.2-0.25 0-1.567-0.083-2.517-0.25-2.85-0.133-0.267-0.233-0.317-0.3-0.15-0.1 0.133-0.083 0.35 0.05 0.65 0.1 0.233 0.083 0.75-0.05 1.55-0.133 0.7-0.3 1.317-0.5 1.85l-0.2-0.05c0.2-1.2 0.3-1.85 0.3-1.95 0-0.3-0.1-0.467-0.3-0.5-0.267-0.033-0.433-0.083-0.5-0.15-0.1-0.133-0.1-0.4 0-0.8 0.133-0.533 0.184-0.933 0.15-1.2-0.033-0.333-0.133-0.45-0.3-0.35-0.5 0.3-0.767 0.45-0.8 0.45-0.267-0.067-0.517-0.017-0.75 0.15l-0.5 0.25c0.133 0.667 0.216 1.3 0.25 1.9 0.033 0.4 0.017 0.683-0.05 0.85-0.167 0.233-0.333 0.483-0.5 0.75-0.233 0.3-0.167 0.667 0.2 1.1l-0.25 0.15c0 0.167 0.05 0.6 0.15 1.3 0.067 0.5 0.017 0.9-0.15 1.2h-0.35v40.3c0 1.667-0.583 3.117-1.75 4.35zm1.95 6.25c-0.1-0.167-0.167-0.517-0.2-1.05 0-0.567-0.033-0.934-0.1-1.1 0.533-0.3 0.934-0.017 1.2 0.85 0.233 0.833-0.067 1.267-0.9 1.3z"/>
			<path d="m-39.45-40.15c-0.233 0.1-0.417 0.1-0.55 0l-0.3-0.3c0.033-0.133 0.167-0.483 0.4-1.05 0.066-0.2 0.233-0.3 0.5-0.3l-0.25 0.45c0.267 0.467 0.333 0.867 0.2 1.2zm4.45-2.95c0.2 0.2 0.2 0.434 0 0.7-0.167 0.233-0.383 0.383-0.65 0.45-0.2-0.233-0.233-0.5-0.1-0.8s0.383-0.417 0.75-0.35zm67.5 3.5c0.067 0.467 0.017 0.833-0.15 1.1h-0.5v-1.15c0.033-0.434 0.15-0.717 0.35-0.85 0.167 0.233 0.267 0.533 0.3 0.9zm-2.95-1.2c-0.333-0.267-0.733-0.467-1.2-0.6 0.1-0.233 0.367-0.6 0.8-1.1l0.15 0.2c0.233 0.167 0.434 0.5 0.6 1l-0.35 0.5zm1.8 4.45c0.4 0.7 0.35 1.15-0.15 1.35-0.233-0.833-0.183-1.283 0.15-1.35zm-21-5.25c-0.367-0.633-0.434-1.083-0.2-1.35 0.367-0.033 0.65 0.017 0.85 0.15-0.2 0.667-0.417 1.067-0.65 1.2zm23.65 19.85c0.267 0.367 0.533 0.65 0.8 0.85 0.434 0.3 0.767 0.183 1-0.35 0.167-0.433 0.2-0.867 0.1-1.3l-0.15-0.3 0.7-0.2v-11.1l-0.15-0.3 0.15-0.15v-4.85c0-1.533-0.45-2.9-1.35-4.1-0.867-1.2-2-2.017-3.4-2.45l-0.2 1.05c-0.7-0.2-1.3-0.283-1.8-0.25l0.25-1.1-66.85 1.7-0.25 0.05h-1.25c-0.033 0.767 0 1.383 0.1 1.85-0.367 0.034-0.567 0.05-0.6 0.05s-0.117-0.25-0.25-0.75c-0.167-0.567-0.55-0.9-1.15-1-0.467-0.067-1.217 0-2.25 0.2-0.8 0.167-1.617 0.567-2.45 1.2-0.667 0.5-1.1 0.933-1.3 1.3-0.133 0.667-0.367 1.167-0.7 1.5-0.2 0.233-0.233 0.467-0.1 0.7 0.2 0.233 0.317 0.4 0.35 0.5 0.033 0.033 0.267 0.35 0.7 0.95 0.1 0.133 0.316 0.133 0.65 0 0.5-0.267 0.85-0.417 1.05-0.45 0.367-0.1 0.667-0.083 0.9 0.05 0.267 0.167 0.483 0.317 0.65 0.45 0.2 0.067 0.383 0.083 0.55 0.05-0.433 0.534-0.667 1.1-0.7 1.7 0.067 0.2 0.3 0.417 0.7 0.65 0.5-1.033 1.233-1.85 2.2-2.45 0.966-0.633 2.033-0.967 3.2-1l20.5-0.55 0.05-0.65 0.35 0.65 12.05-0.35c0-0.533 0.117-0.8 0.35-0.8 0 0.067 0.117 0.15 0.35 0.25 0.167 0.067 0.217 0.2 0.15 0.4-0.124 0.093-0.273 0.143-0.45 0.15l28.4-0.7c1.667-0.067 3.1 0.483 4.3 1.65s1.8 2.6 1.8 4.3v5.65c0.133-1.333 0.367-2.65 0.7-3.95l0.95 0.5c-0.267 0.4-0.367 0.95-0.3 1.65 0.1 1.1 0.15 1.767 0.15 2l-0.7 2.4c-0.267 0.9-0.083 1.6 0.55 2.1-0.167 0.733-0.25 1.217-0.25 1.45 0 0.467 0.2 0.816 0.6 1.05l-0.65 0.45c-0.267 0.2-0.45 0.4-0.55 0.6 0.4 0.133 0.833 0.066 1.3-0.2 0.267-0.167 0.667-0.417 1.2-0.75z"/>
		</g>
		<path d="m18.6-25.35c0.867-0.067 1.5 0.033 1.9 0.3 0.4 0.3 0.217 0.483-0.55 0.55-0.4 0.033-0.917-0.083-1.55-0.35s-0.567-0.434 0.2-0.5zm2.85 4.1c-0.733 0.066-1.5-0.083-2.3-0.45-0.6-0.233-1.083-0.517-1.45-0.85-0.467-0.367-0.717-0.583-0.75-0.65-0.133-0.233 0.117-0.383 0.75-0.45 0.4-0.033 0.7 0.034 0.9 0.2 0.2 0.2 0.783 0.267 1.75 0.2 0.867-0.067 1.633-0.233 2.3-0.5 0.367-0.167 0.684-0.133 0.95 0.1 0.367 0.333 0.283 0.8-0.25 1.4-0.5 0.6-1.133 0.933-1.9 1zm-8.25 11.9c0.233 0.033 0.45 0.05 0.65 0.05 0.167 0 0.333 0.184 0.5 0.55 0.2 0.5 0.083 1.133-0.35 1.9-0.467 0.867-1.1 1.35-1.9 1.45-0.533 0.1-0.917 0.034-1.15-0.2-0.233-0.267-0.067-0.667 0.5-1.2 0.433-0.4 0.8-0.983 1.1-1.75 0.233-0.567 0.45-0.833 0.65-0.8zm-33.65-17.1c-0.467-0.567-0.534-0.9-0.2-1l0.2-0.5c0.067-0.167 0.45-0.05 1.15 0.35 0.867 0.5 1.35 0.917 1.45 1.25 0.133 0.333-0.1 0.533-0.7 0.6-0.766 0.1-1.4-0.133-1.9-0.7zm-2.2 7.55l0.55 1.05c-0.7-0.8-1.3-1.283-1.8-1.45-0.2-0.066-0.2-0.183 0-0.35 0.1-0.066 0.217-0.133 0.35-0.2 0.267 0.066 0.567 0.383 0.9 0.95zm20 16.85c-0.767 1.5-1.217 2.383-1.35 2.65-0.733 1.1-1.433 1.65-2.1 1.65-0.7 0-1.417-0.85-2.15-2.55-0.367-0.9-0.733-1.967-1.1-3.2-0.067-0.3-0.35-1.133-0.85-2.5-0.434-1.3-0.65-2.15-0.65-2.55 0-0.467 0.2-0.783 0.6-0.95-0.367-1.133-0.417-1.867-0.15-2.2 0.167-0.233 0.217-0.5 0.15-0.8 0-0.1 0.117-0.067 0.35 0.1 0.333 0.167 0.55 0.383 0.65 0.65 0.067 0.167 0.1 0.466 0.1 0.9 0 0.1 0.133 0.483 0.4 1.15h5.9c0.867 0 1.434 0.033 1.7 0.1 0.8 0.133 1.2 0.467 1.2 1 0 0.9-0.9 3.083-2.7 6.55zm5.5 18.45c0.567 1.033 0.567 1.6 0 1.7-2.2 0.333-2.95 0.233-2.25-0.3 0.567-0.467 1.317-0.933 2.25-1.4zm-2.9 5.75c0.167-0.167 0.383-0.333 0.65-0.5s0.517-0.367 0.75-0.6c0.2-0.233 0.4-0.567 0.6-1 0.2-0.267 0.45-0.217 0.75 0.15 0.2 0.2 0.417 0.533 0.65 1 1.6-1.733 3.467-4.633 5.6-8.7 0.667-1.233 2.95-6.317 6.85-15.25 4-9.167 6.617-15.333 7.85-18.5 0.8-2.133 2.133-3.5 4-4.1 1.5-0.5 2.25-1.483 2.25-2.95 0-2.533-1.85-4.217-5.55-5.05-1.8-0.4-4.55-0.6-8.25-0.6-6.133 0-10.167 0.217-12.1 0.65-2.933 0.667-4.4 2.15-4.4 4.45 0 1.367 0.733 2.367 2.2 3s2.2 1.383 2.2 2.25c0 1.8-0.783 2.917-2.35 3.35-1.433 0.4-5.117 0.6-11.05 0.6-2.2 0-3.667-0.183-4.4-0.55-1.067-0.567-1.6-1.75-1.6-3.55 0-0.8 0.333-1.383 1-1.75-0.2-0.333-0.367-0.7-0.5-1.1l-0.9-0.7c0.167-0.667 0.417-0.767 0.75-0.3 0.7 0.733 1.217 1.316 1.55 1.75 0.934-0.333 1.55-0.617 1.85-0.85 0.6-0.533 0.9-1.317 0.9-2.35 0-3.267-3.566-4.9-10.7-4.9-4.667 0-7.817 0.467-9.45 1.4-1.167 0.667-1.75 1.783-1.75 3.35 0 1.433 0.733 2.483 2.2 3.15 1.966 0.9 3.216 1.717 3.75 2.45 0.7 0.933 1.466 2.316 2.3 4.15 0.167 0.4 0.8 1.9 1.9 4.5l4.55 11.1c1.7 4.3 2.833 7.383 3.4 9.25 1.167 3.767 1.75 7.05 1.75 9.85 0 3 0.65 5.333 1.95 7 1.467 1.867 3.733 2.8 6.8 2.8 1.833 0 3.6-0.633 5.3-1.9-1.1-0.4-1.533-0.733-1.3-1z" fill="#B59C6F"/>
		<path d="m12.5 2.2c4-9.133 6.617-15.3 7.85-18.5 0.8-2.133 2.167-3.5 4.1-4.1 1.5-0.466 2.217-1.433 2.15-2.9-0.133-3.6-1.917-6.033-5.35-7.3-1.867-0.7-4.467-1.05-7.8-1.05-5.233 0-9.383 0.667-12.45 2-3.133 1.367-4.7 3.284-4.7 5.75 0 1.4 0.733 2.417 2.2 3.05s2.2 1.383 2.2 2.25c0 1.767-0.783 2.867-2.35 3.3-1.467 0.434-5.15 0.65-11.05 0.65-2.2 0-3.667-0.2-4.4-0.6-1.066-0.534-1.6-1.717-1.6-3.55 0-0.967 0.783-1.717 2.35-2.25 1.534-0.5 2.3-1.5 2.3-3 0-3.3-3.567-4.95-10.7-4.95-4.667 0-7.816 0.466-9.45 1.4-1.167 0.7-1.75 1.833-1.75 3.4 0 1.4 0.733 2.433 2.2 3.1 1.967 0.9 3.217 1.733 3.75 2.5 0.7 0.933 1.467 2.316 2.3 4.15 0.1 0.233 0.733 1.733 1.9 4.5l4.5 11.1c1.633 4.066 2.783 7.15 3.45 9.25 1.167 3.767 1.75 7.05 1.75 9.85 0 3 0.65 5.333 1.95 7 1.467 1.867 3.717 2.8 6.75 2.8 2.767 0 5.383-1.417 7.85-4.25 1.5-1.733 3.233-4.5 5.2-8.3 0.667-1.233 2.95-6.333 6.85-15.3zm-19.8 3.35c-0.733 1.1-1.433 1.65-2.1 1.65-0.7 0-1.417-0.85-2.15-2.55-0.1-0.2-0.467-1.267-1.1-3.2-0.067-0.3-0.35-1.133-0.85-2.5-0.433-1.3-0.65-2.133-0.65-2.5 0-0.6 0.333-0.967 1-1.1 0.167-0.033 0.7-0.05 1.6-0.05h5.4c0.867 0 1.433 0.017 1.7 0.05 0.8 0.167 1.2 0.5 1.2 1 0 0.534-0.367 1.633-1.1 3.3-0.567 1.267-1.1 2.35-1.6 3.25-0.767 1.5-1.217 2.383-1.35 2.65z" fill="#FFF2D1"/>
		<path d="m-2.7 11.35l-1.35 10.8c-0.9 2.167-1.167 3.867-0.8 5.1 0.434 1.466 1.717 1.466 3.85 0 2-1.867 4.217-5.117 6.65-9.75 0.667-1.233 2.95-6.333 6.85-15.3 4-9.133 6.617-15.3 7.85-18.5 0.6-1.633 1.483-2.8 2.65-3.5-1.833-0.733-2.9-1.683-3.2-2.85-0.434-1.6 0.35-2.267 2.35-2 2.267 0.267 3.733 1.1 4.4 2.5 0.066-0.466 0.083-0.85 0.05-1.15-0.167-4.767-3.217-7.483-9.15-8.15-1.4 1.733-4.283 5.467-8.65 11.2l-6.15 8.1-5.35 23.5z" fill="#C7B48D"/>
		<path d="m10.5-0.8c4-9.133 6.617-15.3 7.85-18.5 0.8-2.133 2.133-3.5 4-4.1 1.5-0.466 2.25-1.433 2.25-2.9 0-2.533-1.85-4.233-5.55-5.1-1.8-0.4-4.55-0.6-8.25-0.6-6.1 0-10.133 0.216-12.1 0.65-2.934 0.7-4.4 2.183-4.4 4.45 0 1.4 0.733 2.417 2.2 3.05s2.2 1.383 2.2 2.25c0 1.767-0.783 2.867-2.35 3.3-1.467 0.434-5.15 0.65-11.05 0.65-2.2 0-3.667-0.2-4.4-0.6-1.066-0.534-1.6-1.717-1.6-3.55 0-0.967 0.783-1.717 2.35-2.25 1.534-0.5 2.3-1.5 2.3-3 0-3.3-3.567-4.95-10.7-4.95-4.667 0-7.816 0.466-9.45 1.4-1.167 0.7-1.75 1.833-1.75 3.4 0 1.4 0.733 2.433 2.2 3.1 1.967 0.9 3.217 1.733 3.75 2.5 0.7 0.933 1.467 2.316 2.3 4.15 0.1 0.233 0.733 1.733 1.9 4.5l4.5 11.1c1.633 4.066 2.783 7.15 3.45 9.25 1.167 3.767 1.75 7.05 1.75 9.85 0 3 0.65 5.333 1.95 7 1.467 1.867 3.717 2.8 6.75 2.8 2.767 0 5.383-1.417 7.85-4.25 1.5-1.733 3.233-4.5 5.2-8.3 0.667-1.233 2.95-6.333 6.85-15.3zm-25.15-0.75c-0.067-0.3-0.35-1.133-0.85-2.5-0.433-1.3-0.65-2.133-0.65-2.5 0-0.6 0.333-0.967 1-1.1 0.167-0.033 0.7-0.05 1.6-0.05h5.4c0.867 0 1.433 0.017 1.7 0.05 0.8 0.167 1.2 0.5 1.2 1 0 0.534-0.367 1.633-1.1 3.3-0.567 1.267-1.1 2.35-1.6 3.25-0.767 1.5-1.217 2.383-1.35 2.65-0.733 1.1-1.434 1.65-2.1 1.65-0.7 0-1.417-0.85-2.15-2.55-0.1-0.2-0.467-1.267-1.1-3.2z" fill="#FFE2A8"/>
		<path d="m13.1-22.9c-0.667-0.267-0.6-0.417 0.2-0.45 0.867-0.066 1.5 0.033 1.9 0.3s0.216 0.433-0.55 0.5c-0.367 0.067-0.883-0.05-1.55-0.35zm-0.7 1.2c0.4-0.033 0.7 0.05 0.9 0.25s0.784 0.267 1.75 0.2c0.867-0.067 1.633-0.25 2.3-0.55 0.4-0.167 0.717-0.133 0.95 0.1 0.367 0.333 0.284 0.8-0.25 1.4-0.5 0.6-1.133 0.933-1.9 1-1.3 0.1-2.55-0.317-3.75-1.25-0.5-0.434-0.75-0.667-0.75-0.7-0.133-0.233 0.117-0.383 0.75-0.45zm-3.7 16.8c-0.467 0.867-1.1 1.367-1.9 1.5-0.533 0.1-0.917 0.017-1.15-0.25s-0.067-0.65 0.5-1.15c0.434-0.4 0.8-0.983 1.1-1.75 0.233-0.567 0.45-0.833 0.65-0.8 0.233 0.033 0.45 0.033 0.65 0 0.167 0.033 0.333 0.217 0.5 0.55 0.2 0.5 0.083 1.133-0.35 1.9zm-32.55-18.9c-0.767 0.1-1.4-0.133-1.9-0.7-0.467-0.567-0.533-0.9-0.2-1l0.2-0.45c0.067-0.167 0.45-0.05 1.15 0.35 0.867 0.467 1.35 0.867 1.45 1.2 0.133 0.333-0.1 0.533-0.7 0.6zm-5 5.9c0.267 0.1 0.567 0.433 0.9 1l0.55 1.05c-0.667-0.833-1.267-1.333-1.8-1.5-0.2-0.033-0.2-0.133 0-0.3 0.1-0.1 0.217-0.183 0.35-0.25zm17.45 22.1c-0.7 0-1.417-0.85-2.15-2.55-0.1-0.2-0.467-1.267-1.1-3.2-0.067-0.3-0.35-1.133-0.85-2.5-0.433-1.3-0.65-2.133-0.65-2.5 0-0.467 0.2-0.784 0.6-0.95-0.367-1.133-0.417-1.883-0.15-2.25 0.167-0.233 0.217-0.483 0.15-0.75 0-0.1 0.117-0.083 0.35 0.05 0.333 0.2 0.55 0.434 0.65 0.7 0.066 0.133 0.1 0.417 0.1 0.85 0 0.133 0.133 0.533 0.4 1.2h5.9c0.867 0 1.433 0.017 1.7 0.05 0.8 0.167 1.2 0.5 1.2 1 0 0.533-0.367 1.633-1.1 3.3-0.567 1.267-1.1 2.35-1.6 3.25-0.767 1.5-1.217 2.383-1.35 2.65-0.733 1.1-1.433 1.65-2.1 1.65zm8.95 15.85c-2.233 0.4-2.983 0.317-2.25-0.25 0.567-0.466 1.317-0.933 2.25-1.4 0.567 1 0.567 1.55 0 1.65zm-6.95 7c1.9 0 3.683-0.65 5.35-1.95-1.133-0.333-1.567-0.65-1.3-0.95 0.167-0.167 0.383-0.333 0.65-0.5 0.267-0.2 0.517-0.417 0.75-0.65 0.2-0.233 0.4-0.567 0.6-1 0.2-0.233 0.45-0.183 0.75 0.15l0.65 1.05c1.534-1.7 3.4-4.6 5.6-8.7 0.667-1.233 2.95-6.333 6.85-15.3 4-9.133 6.617-15.3 7.85-18.5 0.8-2.133 2.133-3.5 4-4.1 1.5-0.467 2.25-1.434 2.25-2.9 0-2.534-1.85-4.233-5.55-5.1-1.8-0.4-4.55-0.6-8.25-0.6-6.1 0-10.133 0.217-12.1 0.65-2.934 0.7-4.4 2.184-4.4 4.45 0 1.4 0.733 2.417 2.2 3.05s2.2 1.383 2.2 2.25c0 1.767-0.784 2.867-2.35 3.3-1.467 0.433-5.15 0.65-11.05 0.65-2.2 0-3.667-0.2-4.4-0.6-1.066-0.533-1.6-1.717-1.6-3.55 0-0.767 0.333-1.333 1-1.7-0.2-0.367-0.367-0.75-0.5-1.15l-0.9-0.7c0.167-0.633 0.417-0.717 0.75-0.25 0.7 0.733 1.217 1.317 1.55 1.75 0.933-0.333 1.55-0.617 1.85-0.85 0.6-0.533 0.9-1.316 0.9-2.35 0-3.3-3.567-4.95-10.7-4.95-4.667 0-7.817 0.467-9.45 1.4-1.167 0.7-1.75 1.833-1.75 3.4 0 1.4 0.733 2.434 2.2 3.1 1.967 0.9 3.217 1.733 3.75 2.5 0.7 0.934 1.467 2.317 2.3 4.15 0.1 0.233 0.733 1.733 1.9 4.5l4.5 11.1c1.633 4.067 2.783 7.15 3.45 9.25 1.167 3.767 1.75 7.05 1.75 9.85 0 3 0.65 5.333 1.95 7 1.467 1.867 3.717 2.8 6.75 2.8z" fill="#AE5151"/>
	</g>
</symbol>
<symbol id="e" viewBox="-60.5 -57.874 121.063 115.75">
			<use transform="translate(-.0498 49.6)" x="-60.45" y="-107.474" width="121.063" height="115.75" xlink:href="#f"/>
</symbol>
<symbol id="f" viewBox="-60.45 -107.474 121.063 115.75">
			<use transform="matrix(1.25 0 0 1.25 .0498 -49.6)" x="-48.4" y="-46.3" width="96.85" height="92.6" xlink:href="#d"/>
</symbol>
<use transform="matrix(1 0 0 -1 60.5 57.85)" x="-60.5" y="-57.874" width="121.063" height="115.75" xlink:href="#e"/>
</svg>
