<?xml version="1.0" encoding="UTF-8"?>
<svg enable-background="new 0 0 425.197 332" viewBox="0 0 425.197 332" xmlns="http://www.w3.org/2000/svg">
 <path d="m313.489,199.794c2.709-5.091 4.987-9.537 3.875-15.236-1.585-8.12-.776-16.677-2.847-24.641-.793-3.05-2.863-6.216-2.166-9.411 1.408-6.463 1.621-12.829.466-19.377-.594-2.833-2.117-5.803-1.218-8.424 .872-2.545 1.06-5.131 1.06-7.82 0-3.21-.603-6.606-2.07-9.487-.767-1.501-2.971-6.169-4.725-6.07-.035-2.42-.169-4.845-.711-7.207-.498-2.049-1.291-3.993-2.624-5.643-.484-.599-1.894-1.4-2.154-2.041-.267-.651.283-2.505.334-3.257 .259-3.895-.011-9.284-3.338-11.912-4.181-3.304-9.918-.749-14.265.802-5.063,1.809-9.78,4.54-14.179,7.593-5.908,4.231-11.947,8.813-16.593,14.456l.1.002c-.082.038-.168.074-.216.125-1.092,1.221-2.147,2.428-3.151,3.721-2.169,2.795-3.759,4.999-6.235,7.482-1.393,1.395-4.108,7.972-5.034,8.501-16.271,9.298-34.295,16.062-51.71,22.814-19.169,7.436-38.716,14.398-58.613,19.652-11.43,3.018-36.997,8.46-40.347-9.226-2.742,1.483-5.328,9.027-6.523,11.833-1.645,3.868-2.96,7.85-4.119,11.883-.459.285-.644.929-1.02,2.364-.456,1.734-.947,3.512-1.207,5.285-2.968,20.226 3.798,40.068 17.643,55.06 4.342,4.702 10.203,7.6 14.642,11.979 4.353,4.292 8.116,8.223 13.754,10.929 7.987,3.831 16.393,6.771 25.03,8.736 2.571.587 5.189.993 7.809,1.281 1.425.158 2.85.277 4.281.357 1.865.1 1.795.95 2.245,2.757 1.491,5.98 1.875,11.86 1.335,17.99 .112.035.188.03.285.05-.756.481-.636,2.075-.795,3.084-.079.503-3.502-.165-4.427-.11-4.129.243-8.248.532-12.372.851-5.819.447-14.984-.117-19.608,4.027-3.75,3.362-8.195,9.843-2.903,14.196 4.779,3.936 15.742-.191 21.135-1.067-2.685,3.019-4.834,7.08-2.37,10.612 1.778,2.55 6.248,2.928 9.323,1.762 3.199-1.212 5.904-1.893 8.494-4.413 1.721-1.675 3.337-6.404 5.452-7.129-.086,5.468.23,10.769 5.432,13.998 3.957,2.457 9.125,1.768 10.172-3.305 1.248-6.046-1.117-12.568.633-18.457 .635-2.142 2.064-4.399 2.606-6.712 .566-2.412-1.641-5.256-2.45-7.387-2.771-6.24-.575-14.1-.473-20.633l1.935.078c-.29,3.284 2.656,7.207 3.49,10.371 .531,2.012.918,4.037 1.239,6.094 .25,1.604.477,3.651 1.895,4.065l-.698.024c.594,1.562 1.376,3.028 1.659,4.755 .475,2.885-.646,5.389.633,8.276 1.193,2.696 3.683,5.201 5.439,7.746 1.957,2.839 3.682,5.887 6.018,8.432 2.052,2.232 9.169,6.732 12.405,4.038 1.026-.854 1.705-1.551 2.25-2.853 1.253-2.985-.985-6.049-2.923-8.334 1.414.134 2.864-.161 4.107.158 1.255.32 2.821,1.259 4.065,1.79 2.76,1.183 5.776,1.954 8.718,2.525 4.495.877 12.601,2.338 16.829-.079 3.378-1.929 7.024-3.839 6.142-8.436-1.037-5.392-8.082-5.809-12.444-7.01 3.026-.563 5.23-1.91 4.742-5.345-.279-1.949-1.856-3.507-3.301-4.733-.624-.531-1.339-.796-2.098-.932h.774c-5.469-3.716-12.47-1.196-18.329,0h8.853l-.064.011c-4.769.028-9.449.147-14.241.722-2.783.335-5.571.586-8.365.798-.696.052-1.838.307-2.421-.024-.641-.366-.756-1.016-1.176-1.367-.008-.035-.018-.068-.028-.1 .086-.013.169-.018.257-.039-1.392-3.637-2.132-7.014-2.371-10.896-.096-1.564-.749-10.457.63-10.634 8.399-1.087 16.715-2.544 25.169-3.212 4.117-.324 8.276-.027 12.127-1.376 3.385-1.186 7.405-1.05 10.944-1.94 14.482-3.647 29.464-14.458 39.189-25.715 5.413-6.273 10.655-12.749 15.46-19.5 2.088-2.924 5.165-7.533 7.847-12.575z" fill="#5a3d1c"/>
 <path d="m310.973,168.511-.041-.063h-.137c.063.015.121.043.178.063z" fill="#c96"/>
 <path d="m287.332,170.945c.302-1.831.518-2.338 1.398-2.469-.745-.078-.884-.484-1.082-2.086-.175-1.397-.842-2.57-1.779-3.604-2.117-2.34-5.027-2.999-8.059-2.377-.432.088-.865.191-1.298.301 5.498.646 9.521,7.266 8.092,12.532-1.188,4.382-5.495,7.212-9.56,8.553 5.812,2.206 10.519-1.158 12.707-5.939-.58.318-1.253.498-2.041.474 .981-1.534 1.326-3.607 1.622-5.385z" fill="#c96"/>
 <path d="m303.056,197.081c.46-1.854 2.67-3.727 3.393-5.694 .389-1.063.789-2.136.99-3.255 .235-1.283-.186-2.679.315-3.88 .497-1.188 1.636-2.119 2.153-3.367 .449-1.081.553-2.49.613-3.642 .167-3.2-.915-6.321-2.923-8.792 .515,0 1.026-.05 1.525-.085-.851-.104-1.583-.342-2.591-.905-1.343-.752-2.42-1.183-3.951-1.387-3.937-.531-8.029-.321-11.972,0 .187.779.316,1.577.396,2.377-.018.279-.044.57-.077.867 1.892-.142 3.913-.706 5.766-.632 3.058.123 5.883.624 8.812,1.504 3.427,1.797 2.229,8.149 1.106,10.893-.756-.782-2.512-1.198-3.044-1.822-.413-.485-.437-2.03-.81-2.691-.847-1.51-2.945-3.413-4.759-3.052-1.953.393-1.742,2.516-.278,3.249 1.354.677 1.733,2.314 1.659,3.761-.157,3.134-3.383,3.115-4.029,5.586-.393,1.501.662,1.65 1.896,1.623 2.59-.057 4.569-2.551 5.688-4.754 1.283,2.935 2.038,5.667.711,8.755-.886,2.064-2.691,3.421-3.757,5.344-.717,1.294-.158,2.852-1.221,3.843 1.534-.617 3.147-.45 4.782-1.545 .847-.567 1.593-1.297 2.252-2.109-.239.17-.479.278-.714.308-1.376.17-2.566,2.05-1.931-.498z" fill="#c96"/>
 <path d="m286.779,214.309c-2.385,3.012-6.002,5.145-8.544,8.218-3.387,4.087-6.021,8.41-8.621,13.022-1.188,2.104-2.106,4.382-3.041,6.605-.501,1.194-.938,2.408-1.384,3.627-.114.316-.323.491-.58.593 .121.009.242.014.362.014-4.188,12.433-6.073,26.65-.712,39.009 2.84,6.918 9.552,12.302 16.276,15.365 13.373,6.096 30.018,6.094 44.294,3.783 6.923-1.12 13.323-3.171 19.27-6.912 3.332-2.097 6.245-4.689 9.285-7.169 1.475-1.2 3.136-1.973 3.978-3.419 .623-1.068 1.109-1.471 1.762-1.613-.271-.018-.544-.035-.802-.035 5.953-12.593 7.214-25.88 1.976-39.009h.716c-.526-.117-.936-.447-1.357-1.308-.55-1.131-1.125-2.253-1.789-3.322-1.447-2.321-3.082-4.487-4.819-6.598-3.474-4.226-7.46-8.038-11.805-11.358-4.56-3.485-9.26-6.785-13.925-10.124-1.543-1.106-6.096-3.164-6.802-5.112-.376-1.032-.002-1.146.604-.915-.014-.016-.03-.035-.044-.051l-.364-.181 .215-.009c-.125-.157-.247-.318-.382-.472-2.997-.827-7.148-2.555-5.64-3.719-1.171.181-4.727,1.053-4.465-.909-1.384.866-3.107,1.749-3.672-.277-.431,2.964-7.771,4.686-12.035,5.208l-.365.191c.529-.018 1.095-.014 1.732-.014-3.973,1.698-6.773,3.671-9.322,6.891zm33.5,12.754c-1.359,3.313-6.716,3.179-6.52-.913 .249-5.159 7.857-4.299 6.52.913zm-22.517-8.239c2.833,1.037 6.356,3.438 7.19,6.495 .158.648.266,1.299.354,1.961 .525,3.953-2.583,10.351-6.617,11.503-6.438,1.841-12.305-2.096-15.808-7.367-3.6-5.41-2.164-12.604 5.122-13.739 1.121-.175 2.226-.15 3.355-.126 .435.011.529-1.252.812-1.697 .731-1.139 2.175-1.765 3.516-1.643 2.527.229 2.968,2.618 2.076,4.613z" fill="#ffb442"/>
 <path d="m258.037,273.319c-.06.487.197.942.569,1.347-.093-.782-.166-1.567-.229-2.353-.162.29-.29.614-.34,1.006z" fill="#ffb442"/>
 <path d="m387.236,193.633c-.919-1.054-1.881-2.057-2.9-2.98 .055.073.125.139.18.212l2.72,2.768z" fill="#ffb442"/>
 <path d="m308.543,201.379c-.121-.066-.237-.126-.355-.183-.013.123-.016.224-.038.361l.393-.178z" fill="#ffb442"/>
 <path d="m413.248,270.453 .033-.042c-.018-.059-.036-.122-.047-.182 .009.065.011.142.014.224z" fill="#ffb442"/>
 <path d="m294.798,217.914c-.324-.12-.268-.099 0,0z" fill="#ffb442"/>
 <path d="m413.02,242.531c-.549-1.65-1.099-3.301-1.663-4.949-1.233-3.61-2.448-7.221-3.969-10.72-2.965-6.827-6.468-13.199-10.508-19.443h.646c-.068-.106-.143-.209-.211-.316-1.383-.548-1.877-1.79-3.22-3.526-1.402-1.813-3.008-3.464-4.681-5.028-1.883-1.76-3.675-3.572-5.335-5.548-.983-1.17-3.244-3.854-4.839-3.978-1.408-.108-2.966-1.207-4.433-1.547-2.035-.475-4.051-.846-6.136-1.027-2.162-.188-8.952,1.186-10.427-.481-.13.04-.259.084-.389.13-1.494,1.525-5.313,6.264-7.041,4.569-.402.547-2.013,2.296-2.013,2.833 0,1.659-3.886,3.792-5.139,5.052-1.997,2.003-4.016,3.975-5.844,6.135-.493.583-1.072,2.02-1.423,2.297-.308.243-.687.365-1.105.426l.947.011c-.646.687-1.413,1.054-2.329,1.311l-.049.071c1.256.481-.19,2.57-1.438,3.932 0,.04-.016.089-.016.133 0,.443-.364.797-.712,1.19 12.917,8.458 24.875,18.118 31.646,32.332 .888,2.361 1.656,4.731 2.288,7.176 1.956,7.536 1.368,16.55-.967,23.872-.344,1.085-.738,2.15-1.09,3.231-.176.543-.231.826-.176,1.003 .107.09.205.189.32.272 .225.09.559.18 1.005.406 1.452.728 3.278,1.13 4.86,1.462 3.681.777 7.482.693 11.218.564 6.949-.239 13.567-1.396 19.714-4.76 1.958-1.074 3.691-2.422 5.375-3.799 .875-.955 1.773-1.824 2.742-2.416 1.018-1.21 2.369-3.067 3.301-2.419 .134-.65-.234-1.891.316-2.259 .798-.531.842-.107 1.224-.872 .18-.359-.164-1.174-.039-1.644 .376-1.416 2.227-1.095 2.487-2.672 .993-5.965 0-11.399-1.617-17.147 .183,0 .318.011.477.016l-.07-.288c-1.007-.448-.993-1.5-1.687-3.585zm-44.269-28.737c-1.299,1.174-4.324,1.09-5.49-.356-1.62-2.006-.206-5.559 2.172-6.218 3.277.126 6.229,3.951 3.318,6.574zm18.015,18.317c-3.845,2.471-11.561,1.1-14.496-2.278-4.001-4.597 2.38-13.626 7.307-14.852 1.716.147 3.472.72 4.978,1.546 1.355.741 1.612,1.383 2.177,2.249 1.098,1.688 1.427,3.534 2.346,4.979 1.769,2.778.409,6.606-2.312,8.356zm1.58-19.783c-.125-4.289 6.37-5.936 6.6-1.305 .2,4.106-6.211,5.56-6.6,1.305z" fill="#ffb442"/>
 <path d="m385.621,230.148c6.052-2.512-1.07-13.269-6.241-12.592-2.204,1.336-4.111,3.126-4.899,5.663-.416,1.336-1.11,4.581.336,5.546 2.702,1.8 7.914,2.586 10.804,1.383z" fill="#f60"/>
 <path d="m298.037,236.389c1.433-.718 2.239-2.329 3.239-3.507 1.037-1.22 1.145-.673 1.621-2.492 .308-1.176.646-2.525.316-3.684-.736-.878-.75-1.905-1.422-2.813-.714-.958-1.861-1.651-2.865-2.253-2.714-1.632-5.479-1.551-8.546-1.128-2.673.37-6.062.468-6.962,3.498-.646,2.18.648,5.123 2.022,6.676 2.992,3.389 7.684,8.157 12.597,5.703z" fill="#f60"/>
 <path d="m328.232,312.867c-2.871-.264-6.437-.561-5.978-4.224-1.771.045-3.548.214-5.305.464-.188.314-.321.651-.428,1.006 .319,1.211.327,2.202-.313,3.559-1.042,2.215-3.299,2.964-4.7,4.894-.093.128-.165.248-.232.369-.341,1.213-.098,2.352 1.454,2.837 .225.068.443.12.657.169 .709.108 1.455.079 2.071-.109 .769-.236 2.349-1.121 2.725-1.901 .609-1.264-.3-2.556 1.265-3.366 2.771-1.437 1.895,1.737 2.883,2.879 1.138,1.324 7.073,4.771 7.073,1.359 0-1.063-.984-1.964-1.777-2.616-.815-.666-4.401-2.244-4.703-3.048-1.019-2.724 5.487,1.09 6.406.991 3.059-.321 6.946,1.597 9.808.45 .02-.063.052-.126.062-.19-2.761-3.293-7.02-3.162-10.968-3.523z" fill="#f60"/>
 <path d="m359.227,300.799c-.006.092.003.183.009.27 .068-.09.113-.171.192-.268l-.201-.002z" fill="#f60"/>
 <path d="m362.866,293.118c-1.531-.068-4.473-.921-5.649.436 1.814-.376 3.8-.567 5.649-.436z" fill="#f60"/>
 <path d="m366.064,290.822c-.275.522-.163.813-.367.963 1.055-.198 1.18-2.541.728-4.34-.107,1.099.164,2.389-.361,3.377z" fill="#f60"/>
 <path d="m367.725,286.228c.177,1.854.236,3.649.236,5.507 0,2.435-2.653,1.641-4.108,1.462l.553.278c-.06.05.738,1.204-.128,1.183-.962-.024-1.874.006-2.833.085-1.979.163-3.973.462-5.887.991-.856.235-3.43.532-3.538,1.723-.188,2.084 1.053,1.563 2.826,1.563 1.642,0 3.975.501 5.492-.038 1.306-.466 2.472-2.009 3.685-2.896 .494-.362 2.885-1.352 3.426-.591 .659.928-2.568,1.986-3.122,2.272-1.961,1.021-6.125,5.206-2.092,5.768 1.702.239 3.409-.507 4.741-1.54 .681-.784 1.272-1.705 2.031-2.536 .088-.099.173-.171.257-.263 .752-1.374 1.349-2.809 2.825-3.957 .525-.407.583-3.63.892-4.495 .405-1.145.955-2.278 1.708-3.246-.107-.184-.246-.356-.42-.525-2.189-.214-4.373-.453-6.544-.745z" fill="#f60"/>
 <path d="m374.992,288.975c-.162.463-.277.983-.361,1.516 .185-.525.324-1.031.361-1.516z" fill="#f60"/>
 <path d="m388.07,289.159c.311.402 1.946.36 2.513.431 1.183.147 2.362.292 3.545.443-.409-.075-.817-.155-1.198-.243-1.194-.271-4.665-.611-4.861-1.764-.151.446-.197.877.001,1.133z" fill="#f60"/>
 <path d="m387.239,286.623c-2.086.174-4.171.338-6.26.494-.063.11-.106.22-.135.328 1.627,2.865.802,4.871 1.101,7.931 .014.129.063.263.097.393 .107.336.233.666.384.982 .888,1.615 2.831,3.192 4.261,4.127 1.499.978 7.556,4.004 10.595,3.364 .742-.303 1.298-.791 1.617-1.373 .522-2.081-3.856-4.389-5.254-4.898-1.868-.682-5.355-.861-6.622-2.496-1.493-1.926 4.596-.675 4.998-.479 2.303,1.11 4.426,2.457 6.204,4.311 .142.002.295.008.452.017 2.199-.461 10.277-.03 6.499-3.353-2.291-2.016-5.59-2.173-8.439-2.649-1.042-.175-7.417-.979-5.389-1.984-1.391-.224-2.772-.468-4.157-.746-.902-.185-.169-3.339.048-3.969z" fill="#f60"/>
 <path d="m395.734,291.613c3.716.478 7.272,1.837 10.468,3.564-.18-3.961-7.813-3.652-10.468-3.564z" fill="#f60"/>
 <path d="m34.624,207.433c-.002.006-.006.011-.009.016l.066-.016h-.057z" fill="#ffb442"/>
 <path d="m72.793,287.829c1.478-.155 2.973-.343 4.519-.593l.831-.126c1.324-.259 2.645-.562 3.957-.961 1.195.7 4.373-.753 6.109-.753h-1.014c7.465-2.195 17.241-4.073 20.938-11.859 1.839-3.877 2.4-9.025 2.03-13.297-.254-2.93-.726-5.238-1.674-8.031-.372-1.098-1.234-5.448-2.41-5.821 .314,0 .702-.028 1.116-.063-.77-.128-1.516-.352-2.222-.769-1.78-1.05-3.556-2.549-5.107-3.912-3.266-2.872-6.604-5.891-9.583-9.06-3.262-3.471-5.098-7.649-7.646-11.57-2.735-4.214-5.291-8.776-6.779-13.596 .65,0 1.11-.039 1.474-.027-1.713-.106-1.813-.646-2.433-2.795-.459-1.595-.877-3.188-1.219-4.81-.645-3.06-.964-6.157-1.022-9.279-.901.131-1.564-.692-2.272-1.318-.678-.598-2.486-.183-3.337-.167-2.523.05-5.039.137-7.56.238-2.018.078-2.785,1.912-4.332,2.078-1.033.111-1.715-.35-1.461-1.464-.581.73-3.608,3.285-3.655,3.782-.268,2.848-1.594,2.675-3.97,4.198-2.15,1.376-4.156,3.046-5.926,4.891-.924.966-1.89,2.021-2.577,3.17-.644,1.075-1.084,1.402-1.752,1.492 .259.006.537.011.853.011-.065.098-.255.372-.316.515 5.813-.347 1.632,8.693-2.054,5.308-.113.533-.187.907-.217,1.19 .181.396.405.76.663,1.099 .257.132.59.293 1.025.545 .972.561 1.64.7 1.925,1.699 .228.793 1.703,1.79 2.2,2.563 .864,1.349 1.321,2.659 1.513,4.244 .292,2.421-.603,5.234-3.15,5.659-2.514.421-4.964.54-7.484.12-1.449-.242-2.824-.621-4.198-1.141-1.562-.592-2.539,1.525-3.43,2.74-1.887,2.577-3.472,5.384-4.619,8.365-.587,1.524-1.05,3.063-1.415,4.657-.226.981-.415,1.294-.861,1.391 .181.009.375.014.587.014-.581,2.737-.792,5.445-.731,8.238 .048,2.234 1.083,4.814.87,6.969-.064.636-.485,1.129-.731,1.703-.761,1.779-.014.801.711,1.783 .988,1.338.739,1.972.525,3.602 .049.037.112.076.17.113 1.911.216 2.395,1.779 3.258,3.172 .274.346.538.694.795,1.04 1.954,1.96 3.532,3.986 5.84,5.613 4.703,3.315 10.056,5.037 15.539,6.521 1.17.269 2.295.58 3.406.89 8.743.925 17.607,2.456 26.303,1.799zm-23.364-75.776c1.58-1.583 4.039-2.462 5.748-.258 .886,1.143.989,3.25.178,4.454-2.57,3.814-7.455-.45-5.926-4.196z" fill="#ffb442"/>
 <path d="m26.02,226.142c1.568.741 3.14,1.262 4.072,1.436 2.616.496 7.793,1.753 9.105-1.308 2.021-4.714-4.381-6.023-6.084-8.912-3.513-1.306-9.46-.606-11.595,2.894-1.023,1.676.294,3.309 2.231,4.612 .469.253.919.483 1.305.697 .341.188.659.383.966.581z" fill="#f60"/>
 <path d="m37.677,299.715c1.176-.624 2.508-.705 3.802-.892 1.58-.229 5.786-1.646 6.766-.793l-.256.145c-2.014,1.131-3.928,1.992-6.144,2.587-1.903.514-7.049,1.575-5.649,4.873 1.413,3.326 6.778.124 8.495-.625 4.543-1.985 4.167-2.176 7.525.842 1.798,1.614 4.99,4.049 7.565,2.971 2.344-.983 1.046-3.752-.04-5.288-1.01-1.428-2.299-2.656-3.753-3.63-1.986-1.329-1.731-1.308-2.014-3.538-.217-1.697-.375-3.387.352-5.019-.035-.365-.105-.706-.222-1.022-1.38-.272-2.65-.571-3.883-1.245-.049,2.922-1.595,7.073-4.943,7.528-2.985.402-5.953.67-8.963.67-2.491,0-6.011-.874-8.296.038-1.651.659-3.829,2.851-1.778,4.277 1.771,1.231 6.675.428 8.805.469 .445.008 1.917-1.973 2.631-2.348z" fill="#f60"/>
 <path d="m34.429,303.899 .146.032c.005,0 .009.013.013.019 .012-.021.016-.038.027-.06-.056.005-.126.006-.186.009z" fill="#f60"/>
 <path d="m88.382,301.988 .068.353c.492-.178 1-.272 1.511-.669l.003-.001c-.558.233-1.123.356-1.582.317z" fill="#f60"/>
 <path d="m77.991,289.911-3.042.516c-2.002.264-3.994.487-6.005.673 .395,2.422.157,4.034-1.026,6.096-1.115,1.944-2.923,3.351-3.358,5.586-.688,3.531 3.517,3.186 5.372,1.09 .899-1.016 1.107-2.057 1.699-3.149 1.184-2.188 1.721-1.026 3.753.316 2.51,1.662 5.229,2.703 8.101,3.537 .727.212 1.965-.543 3.167-.366 .25-.294.404-.631.594-.944 .112-.905.112-1.785-.958-2.027 .184-.023.369-.052.553-.078-.743-1.837-2.437-1.979-4.148-2.54-.617-.202-6.545-1.895-6.558-2.333-.052-1.845 5.068.21 5.808.477 2.034.731 4.19,1.104 5.59,3.287 .856,1.334 3.657-.024 3.338-1.425-.415-1.823-3.87-2.085-5.244-2.56-3.361-1.162-9.03-1.982-7.636-6.156z" fill="#f60"/>
 <path d="m82.14,293.356c.859.359 1.744.602 2.623.817-2.116-.794-5.008-1.255-5.488-3.33-.032-.143-.09-.241-.136-.36-.283,1.394 1.961,2.441 3.001,2.873z" fill="#f60"/>
 <path d="m274.71,216.071c.142-.038.28-.093.422-.138 5.369-6.137 11.535-15.179 8.646-22.692-.143-.594-.176-.963-.137-1.167-.747-.881-1.686-1.631-2.867-2.199-.376-.002-.763.159-1.105.237 4.255,6.324 1.365,13.283-3.043,18.573-.688.828-1.434,1.674-2.251,2.375-.637.549-2.506,1.235-2.923,1.94-.134.224-.22.431-.288.627 .465.804.774,1.507.982,2.239 .769.356 1.787.418 2.564.205z" fill="#c96"/>
 <path d="m229.97 285.4-0.063 9e-3c1.357-9e-3 2.719-9e-3 4.096-9e-3h-4.033z" fill="#f60"/>
 <path d="m202.235,285.396c.211-.055.382-.076.544-.09-3.457-1.58-2.697-15.429-2.914-18.207-2.093,1.13-4.146,2.036-6.439,2.674-2.59.72-7.063,1.736-9.64.811 .717,2.271 1.393,4.555 2.071,6.838 .104.281.21.563.299.846 .203.65.381,1.308.556,1.961 .517,1.724 1.028,3.452 1.578,5.168 .519,1.453 1.354,2.997 1.896,3.96 .496.879 1.025.706.277,2.081-.977,1.789-.945,4.151.019,6.059 .635,1.254.713,2.195 1.245,3.188 .741,1.378 2.293,2.719 3.276,3.975 1.91,2.441 3.59,5.223 5.67,7.507 2.355,2.588 6.423,5.96 10.095,4.558 5.569-2.129-1.681-10.552-3.515-13.269 1.556,1.729 3.923.632 6.082.84 3.314.32 5.532,2.593 8.573,3.552 3.863,1.221 7.813,2.03 11.854,2.382 4.556.395 13.967,1.637 15.564-4.318 .808-3.004-.282-4.703-3.121-5.444-3.969-1.038-7.969-1.934-12.007-2.658-4.011-.72-8.029-1.273-12.077-1.731-3.641-.408-5.987-1.101-9.496-1.888 6.65.205 13.262-.114 19.873.871 2.027.303 2.602.5 4.425-.238 1.515-.613 3.051-1.125 4.602-1.644 2.372-.793-2.981-5.728-3.833-6.177-5.174-2.74-12.032.263-17.462.866-3.031.338-7.073,1.371-10.095.883-1.507-.242-3.01-.532-4.528-.703-2.256-.252-2.403-.636-3.372-2.653z" fill="#f60"/>
 <path d="m203.706,285.533c-.01-.035-.02-.064-.028-.102l-.105.018c.045.027.092.051.133.084z" fill="#f60"/>
 <path d="m284.85,320.68c.143.296.371.602.745.912 1.343,1.12 4.996-.157 6.32-1.027 1.612-1.062 1.988-2.839 3.337-3.999 .545-.472 1.248.096 1.482-.04 .469-.276 2.37-1.933 2.37-2.396 0-1.579-1.437-2.675-1.343-4.494 .311-.251.539-.677.791-.991-1.979-.34-3.955-.682-5.927-1.03 .504,2.182.316,4.023-1.971,4.072-2.626.057-5.317.694-7.748,1.67-1.343.537-5.754,2.3-4.898,4.477 .697,1.776 4.162.463 5.215.595 .735-2.344 3.447-3.856 5.686-4.434 1.967-.508 4.86-.693 2.096,1.186-1.251.851-5.825,2.495-6.276,4.522 .021-.006.051-.006.075-.009-.058.386-.027.704.046.986z" fill="#f60"/>
 <path d="m277.771,312.287c-1.092.684-4.206,2.777-1.383,3.681 .886-2.326 2.911-3.529 5.214-4.315-1.187.03-3.057-.406-3.831.634z" fill="#f60"/>
 <path d="m145.506,317.317c-.198-.027-.396-.055-.593-.079 .191.033.365.123.593.079z" fill="#f60"/>
 <path d="m179.164,289.713c-.488-1.441-1.191-3-1.856-4.316 .229,0 .474-.02.719-.03l-.005-.026c-1.738-.747-1.792-5.028-1.919-6.775-.225-3.076-.3-6.172.461-9.181l-.017-.137c-.637.165-1.192-.099-1.846-.088-1.25.024-2.632.35-3.94.409-3.354.156-6.527-.195-9.768-1.082 .519,2.999 1.023,6.045 1.08,9.094 .03,1.633 0,3.257-.091,4.885-.054.985.221,2.439-.433,2.892 .093.016.167.008.273.04-.302,1.912-.37,3.415-.994,4.376-.01.125-.023.25-.033.377-.081-.009-.165-.015-.245-.025-.606.632-1.602.935-3.372.837-4.356-.241-8.222.021-12.519.23-6.907.334-15.225-.408-20.97,4.248-1.257,1.017-2.289,2.441-2.845,4.004l-.027.085-.003.003c-.414,1.213-.549,2.501-.235,3.766 .575,2.308 4.705,3.074 6.608,3.278 7.003.759 12.538-3.104 18.913-4.86-1.342,1.091-2.843,2.93-3.981,4.974 .053.074.097.141.16.215l-.012-.002c-.179.039-.36.244-.533.517-.396.793-.729,1.604-.971,2.407-.076.256-.15.513-.205.766-.022.096-.038.188-.057.282-.421,2.219.035,4.191 1.825,5.43 2.188,1.109 5.637.066 7.705-.808 3.39-1.435 6.101-4.342 8.157-7.297 .894-1.282 5.202-9.795 6.914-6.763 .781-.234-.146,3.301-.256,4.278-.527,4.642.242,14.772 6.538,15.365 3.909.369 5.7-2.759 5.545-6.226-.186-4.192-.25-8.354-.214-12.554 .015-1.646-.042-3.457.555-4.745 .271-.584.983-1.619 1.344-2.377 1.087-2.281 1.363-3.064.55-5.466zm-58.183,9.617c.854-1.387 2.579-2.19 4.14-2.408 .947-.039 1.698.286 2.191.781-1.414-.996-4.628-.297-6.331,1.627zm22.944-.27-.119-.063 .534.187c-.138-.038-.284-.073-.415-.124zm-.592,8.792c-.058-.019-.178-.133-.314-.272 .178.135.359.254.552.354-.079-.027-.154-.057-.238-.082zm2.884.433c-.675.253-1.169.186-1.664.019 .677.159 1.358.11 1.959-.177-.1.053-.182.117-.295.158zm18.33-36.314c-.138-.139-.302-.376-.473-.475h.553c-.005.057-.056.403-.08.475z" fill="#ff6500"/>
 <path d="m311.793,148.858c1.408-6.462 1.62-12.83.466-19.377-.594-2.834-2.116-5.803-1.218-8.424 .872-2.545 1.06-5.133 1.06-7.822 0-3.21-.603-6.605-2.07-9.485-.765-1.501-2.969-6.169-4.725-6.069-.035-2.422-.169-4.846-.71-7.208-.5-2.048-1.293-3.992-2.624-5.643-.485-.599-1.896-1.398-2.155-2.04-.268-.651.283-2.504.334-3.256 .26-3.896-.011-9.285-3.336-11.912-4.184-3.304-9.921-.749-14.266.801-5.063,1.809-9.782,4.541-14.18,7.594-5.91,4.23-11.947,8.812-16.592,14.455l.098.003c-.082.038-.166.072-.216.125-1.092,1.219-2.146,2.427-3.151,3.721-1.026,1.325-3.511,6.435-5.068,6.367l-2.875,7.893c.431-3.459 5.461-6.032 7.496-8.871 2.359-3.288 5.252-6.258 7.982-9.236 .929-.441 1.866-2.07 2.646-2.813 2.252-2.138 4.565-4.206 7.031-6.098 4.477-3.435 9.434-6.63 14.637-8.844 3.559-1.513 9.904-5.554 13.77-3.235 3.387,2.032 3.354,8.474 2.961,11.999-1.11-.467-3.016-.874-3.829.199 2.409.864 4.389,2.517 6.023,4.454 .741.878 1.177,1.905 1.836,2.832 .874,1.229 1.065,1.467 1.938,1.506h-1.227c2.247,4.849 2.167,11.519.91,16.633 1.925-.582 2.061-4.995 2.371-6.573 4.468,3.928 4.023,12.787 3.83,18.097-.281-.669-1.605-3.859-2.45-3.919-1.905-.14-.492,4.048-.274,4.792 .615,2.1 1.501,4.119 2.134,6.216 .343,1.146.624,2.309.912,3.466 .039.144.183.235.379.297h-.305c.743,3.292.996,6.86.903,10.228-.092,3.305-1.318,6.084-1.606,9.239-.336,3.69 1.934,7.577 2.979,11.072 .55,1.839.908,3.755 1.231,5.645 .476,2.747.309,2.786 3.206,2.786-.587-3.423-1.219-6.816-2.092-10.179-.791-3.053-2.861-6.22-2.164-9.416zm-72.742-42.864z"/>
 <path d="m306.77,202.033c.564,2.026 2.288,1.144 3.672.277-.262,1.962 3.294,1.09 4.465.909-1.509,1.164 2.643,2.892 5.64,3.719 1.069.296 1.995.48 2.458.48-1.647-1.158-3.311-2.3-5.078-3.273-1.876-1.028-1.219-1.083-.728-2.628 1.03-3.244 1.496-6.74 1.697-10.139 .234-3.95.381-8.841-1.008-12.613-.537-1.461-1.065-1.887-1.164-3.546-.136-2.267-.408-4.516-.674-6.769h-2.724c.163,1.857.304,3.734.475,5.582-.393-1.582-.858-3.213-1.706-4.616-.3-.493-.687-.754-1.122-.906-.057-.02-.114-.048-.178-.063h.137l.578.004c-2.33-4.252-8.271-5.899-12.801-5.902-2.881-.004-5.832.277-8.394,1.675-.014.012-4.121-4.549-5.158-5.122-4.647-2.561-11.121-.547-15.796,1.094-6.006,2.105-11.443,4.813-16.794,8.256h.067c-.071.025-.151.045-.215.08-1.566.867-3.188,1.673-4.714,2.61-1.553.956-8.262,5.177-7.979,7.21 .27,1.942 6.986-3.433 7.863-4 3.266-2.117 6.601-4.067 10.033-5.9-.217,0-.482-.02-.76-.043 .686-.097 1.354-.279 2.003-.629 2.117-1.142 4.283-2.154 6.503-3.083 3.531-1.475 7.365-3.055 11.144-3.986 .433-.109.866-.213 1.298-.301 3.031-.622 5.941.037 8.059,2.377 .938,1.034 1.604,2.207 1.779,3.604 .198,1.602.337,2.008 1.082,2.086-.881.131-1.097.638-1.398,2.469-.296,1.777-.641,3.851-1.621,5.384 .788.024 1.461-.155 2.041-.474 2.049-1.119 2.901-4.037 3.176-6.537 .033-.297.06-.588.077-.867-.079-.8-.209-1.598-.396-2.377 3.942-.321 8.035-.531 11.972,0 1.531.204 2.608.635 3.951,1.387 1.008.563 1.74.802 2.591.905-.499.035-1.011.085-1.525.085 2.008,2.471 3.09,5.592 2.923,8.792-.061,1.151-.164,2.561-.613,3.642-.518,1.248-1.656,2.179-2.153,3.367-.501,1.201-.08,2.597-.315,3.88-.201,1.119-.602,2.191-.99,3.255-.723,1.968-2.933,3.84-3.393,5.694-.635,2.548.556.668 1.934.496 .235-.029.475-.138.714-.308 1.654-1.174 3.335-5.291 3.752-6.604 .36-1.132.298-2.499.711-3.564 .393-1.017 1.216-1.566 1.816-2.573 .971-1.627 1.475-3.826 1.897-5.741 .121,2.359 1.635,4.713 1.678,6.69 .055,2.538.052,5.371-.783,7.793-.535,1.544-1.246,2.909-2.164,4.258-.483.711-1.142,1.845-1.575,2.365-.427.512.036.58-1.183.957-.444.137-.883.328-1.31.528l-.394.179c.022-.138.025-.238.038-.361 .421-3.921-3.307,1-4.62,1.63-3.599,1.724-7.699,2.477-11.1,4.593 .534,0 1.326-.061 2.267-.178 4.264-.523 11.604-2.245 12.035-5.209zm5.925.079c.001-.009-.085.258 0,0z"/>
 <path d="m396.88,207.419c4.04,6.244 7.543,12.616 10.508,19.443 1.521,3.499 2.735,7.109 3.969,10.72 .564,1.648 1.114,3.299 1.663,4.949 .694,2.085.681,3.137 1.689,3.584 .433.19 1.055.272 2.002.272-4.13-13.707-9.256-27.115-17.421-38.969h-1.765l-.645.001z"/>
 <path d="m418.705,255.415c-.113-1.952-.641-3.923-1.114-5.815-.618-2.481-.509-3.122-2.812-3.196-.158-.005-.294-.016-.477-.016 1.617,5.748 2.61,11.183 1.617,17.147-.261,1.577-2.111,1.256-2.487,2.672-.125.47.219,1.284.039,1.644-.382.765-.426.341-1.224.872-.551.368-.183,1.608-.316,2.259-.932-.648-2.283,1.209-3.301,2.419-.271.319-.519.597-.729.77-.671.545-1.339,1.097-2.014,1.646-1.684,1.377-3.417,2.725-5.375,3.799-6.146,3.364-12.765,4.521-19.714,4.76-3.735.129-7.537.213-11.218-.564-1.582-.332-3.408-.734-4.86-1.462-.446-.227-.78-.316-1.005-.406-.169-.068-.276-.143-.32-.272-.056-.177 0-.46.176-1.003 .352-1.081.746-2.146 1.09-3.231 2.335-7.322 2.923-16.336.967-23.872-.632-2.444-1.4-4.814-2.288-7.176-6.771-14.214-18.729-23.874-31.646-32.332l-.396-.262c.259-.188.679-.58 1.123-1.062 1.248-1.361 2.694-3.45 1.438-3.932-.027-.012-.043-.027-.071-.036l.12-.035c.916-.257 1.684-.624 2.329-1.311l-.947-.011c.419-.061.798-.183 1.105-.426 .351-.277.93-1.714 1.423-2.297 1.828-2.16 3.847-4.132 5.844-6.135 1.253-1.26 5.139-3.393 5.139-5.052 0-.537 1.61-2.286 2.013-2.833 1.728,1.694 5.547-3.044 7.041-4.569 .101-.104.19-.19.27-.261 .029.048.082.084.119.131 1.475,1.667 8.265.293 10.427.481 2.085.182 4.101.553 6.136,1.027 1.467.34 3.024,1.438 4.433,1.547 1.595.123 3.855,2.808 4.839,3.978 1.66,1.976 3.452,3.788 5.335,5.548 1.673,1.564 3.278,3.215 4.681,5.028 1.343,1.736 1.837,2.979 3.22,3.526 .51.201 1.134.316 1.976.316-3.67-5.113-7.753-9.408-12.054-13.786-.898-.916-1.805-1.837-2.721-2.769-.055-.073-.125-.139-.18-.212-2.534-3.382-7.534-5.044-11.486-5.79-2.412-.455-4.848-.679-7.298-.53-1.898.11-4.949,1.405-6.399-.043 .464-.332.668-.865 1.066-1.227-.369.248-.861.372-1.265.833-1.073-1.259-1.226.585-1.915,1.109-1.429,1.084-2.91,2.116-4.443,3.09-1.173.739-2.039-.613-3.241.553-.726.706-.084,2.565-1.383,1.484-1.819-1.518-1.145,1.927-1.065,2.556 .219,1.76-3.23,3.466-4.566,4.672-3.32,3.002-5.522,8.267-9.46,10.06 .308,0 .618.014.927.024-.705.068-1.384.248-2.128.692-.921.55-.921,1.387.175,1.738-1.223.255-2.281,1.564-.712,2.179-1.229,1.924-3.723-.735-5.192-1.621-1.237-.74-2.297-1.236-2.51-2.735-.745-.441-1.644-.308-2.512-.286l-.215.009 .364.181c.846.413 1.758.824 2.401,1.442-.534-.313-1.621-1.108-2.357-1.392-.606-.231-.98-.117-.604.915 .706,1.948 5.259,4.006 6.802,5.112 4.665,3.339 9.365,6.639 13.925,10.124 4.345,3.32 8.331,7.133 11.805,11.358 1.737,2.11 3.372,4.276 4.819,6.598 .664,1.069 1.239,2.191 1.789,3.322 .422.86.831,1.19 1.357,1.308h-.716c5.238,13.129 3.978,26.416-1.976,39.009 .258,0 .53.018.802.035-.652.143-1.139.545-1.762,1.613-.842,1.446-2.503,2.219-3.978,3.419-3.04,2.479-5.953,5.072-9.285,7.169-5.946,3.741-12.347,5.792-19.27,6.912-14.276,2.311-30.921,2.313-44.294-3.783-6.725-3.063-13.437-8.447-16.276-15.365-5.361-12.358-3.477-26.576.712-39.009l-.362-.014c.257-.102.466-.276.58-.593 .445-1.219.883-2.433 1.384-3.627 .935-2.224 1.853-4.502 3.041-6.605 2.6-4.612 5.234-8.936 8.621-13.022 2.542-3.073 6.159-5.206 8.544-8.218 2.549-3.22 5.349-5.192 9.322-6.89-.638,0-1.203-.004-1.732.014-1.602.055-2.822.308-4.41,1.448-2.123,1.527-3.744,3.172-5.629,4.953-2.97,2.806-6.272,5.053-9.007,8.158-2.259,2.563-4.243,5.411-5.989,8.418 .18-.348.364-.688.536-1.051 1.565-3.322 1.475-8.436 4.475-10.399 2.906-1.907 5.25-4.665 7.198-7.501 2.141-3.125 4.555-6.642 5.196-10.456 .374-2.227.062-4.441-.87-6.496-.42-.924-2.055-3.337-2.229-2.433-.039.204-.006.573.137,1.167 2.89,7.514-3.276,16.556-8.646,22.692-.894,1.022-1.771,1.972-2.575,2.811-.065-1.144-.174-2.032-.411-2.877-.208-.732-.518-1.436-.982-2.239-.039-.063-.068-.122-.108-.188-.571-.955 3.616-6.743 4.228-7.765-1.613,1.733-7.388,5.809-7.388,7.979 0,.966 1.765,1.913 2.111,3.071 .396,1.313-.079,2.699-.408,3.967-1.308,5.023-3.898,12.666-8.696,15.399-5.152,2.934-14.257.372-19.363-1.673-3.666-1.472-6.959-3.874-10.273-5.98-3.283-2.088-6.986-3.219-10.343-5.101 1.041,2.436 5.731,4.162 7.961,5.566 3.119,1.964 5.832,4.378 8.946,6.356 6.126,3.888 13.917,6.621 21.089,4.468 4.553-1.364 7.502-4.245 9.72-8.05-2.596,4.705-4.663,9.747-6.314,14.709 .131,0 .267.007.403.019-.284.112-.518.319-.653.72-.396,1.175-.747,2.351-1.094,3.539-.862-.426-1.388,1.42-2.408,1.804-.979.368-1.809.526-2.844.73-3.779.752-7.541,1.566-11.354,2.16-7.944,1.237-15.94,1.903-23.939,2.7-7.931.79-15.778,2.152-23.735,2.793-7.38.596-14.988.504-22.407.62-4.843.077-9.725-.487-14.495-1.285l-11.06-1.853-3.182-.535c-.632-.105-1.574.548-2.28.548-3.16,0-6.855-1.522-9.943-2.331-5.098-1.336-9.761-3.912-14.491-6.184-2.078-1.091-4.138-2.204-6.188-3.348-.073-.041-.171-.063-.253-.096l.081-.002c-7.832-5.002-14.872-10.901-21.231-17.688-3.239-3.457-5.458-6.932-7.775-11.032-1.156-2.046-2.354-4.069-3.462-6.141-.464-.869-.86-1.748-1.205-2.673-.415-1.108-.707-1.396-1.308-1.452 .231.008.479.017.77.017-3.464-12.896-3.34-26.133.356-38.968-2.985,0-2.962-.307-3.717,2.57-.456,1.735-.947,3.513-1.207,5.283-.592,4.035-.924,7.991-1.041,12.064-2.216-1.604-5.984-1.656-8.612-1.467-1.634.12-3.185.748-4.78.913-.184.02-.577-.684-.791-.635-.325.077-.584.441-.909.515-.709.167-1.594.914-2.291,1.229 .674-2.978-1.726-1.643-2.864-.395-.647.705-1.464,3.492-2.272,3.008-.642-.385-1.4-1.764-2.271-.891-.827.827 1.033,2.74.376,3.859-.173.297-2.29.914-2.699,1.156-1.054.62-2.075,1.248-3.085,1.938-3.663,2.497-6.631,5.863-8.636,9.818 .299,0 .559.005.799.014h.057c-.024.002-.043.011-.066.016-.777.12-1.213.545-1.672,1.96-.581,1.781-.943,3.473-1.132,5.336-4.037-.813-9.425.187-12.063,3.566-3.562,4.564 1.166,8.032 5.03,10.135-5.434,4.689-9.075,10.78-10.192,17.942 .179,0 .331.006.482.007-.401.112-.625.441-.739,1.32-.176,1.354-.347,2.731-.375,4.1-.06,2.741.293,5.536.928,8.197 .271,1.138-.976,5.041-1.659,6.14-.912,1.462 1.154,2.736 2.272,1.621-.284,1.615.894,5.266 3.082,4.119 .381,3.5 6.359,8.064 9.168,9.728 2.324,1.373 4.681,2.415 7.224,3.314 .68.239 1.39.391 2.118.48-.27-.004-.542-.018-.812-.018 2.542.771 5.068,1.615 7.625,2.336 1.144.323 2.296.599 3.458.85 1.889.403 1.313,1.344.808,3.031-.765,2.56-1.563,2.905-3.991,3.366-2.489.471-4.987.693-7.525.745-3.893.083-11.909-2.018-12.82,3.771-.778,4.95 7.365,4.544 10.6,4.403l.185-.009c-.011.021-.015.038-.027.06-1.503,2.826 2.119,4.643 4.61,4.533 1.745-.075 3.443-.991 5.036-1.622 1.22-.483 3.239-2.044 4.563-1.861 1.3.179 2.621,2.424 3.792,3.248 1.039.728 2.637,1.759 3.753,2.156 2.583.925 5.185-.029 5.767-2.791 .561-2.659-1.237-5.063-2.963-6.929-.963-1.044-2.063-1.991-3.201-2.837-.553-.408-.262-2.732-.493-3.521-.158-.536 1.132-3.633 1.44-3.607 3.567.32 7.087.459 10.668.459-.074,2.621-.433,3.421-1.719,5.664-1.008,1.758-2.559,3.213-3.062,5.107-.69,2.605.226,4.747 3.2,4.951 2.905.199 5.539-1.436 6.558-4.157 .785-2.102 3.566.951 4.898,1.661 2.346,1.25 4.903,1.735 7.545,1.744-.076-.202-.097-.396-.158-.595 3.318.281 4.275.127 3.624-3.214-.022-.118-.042-.226-.068-.353 .459.039 1.024-.084 1.582-.317 1.489-.622 2.918-2.052 2.091-3.502-1.654-2.906-4.443-3.297-7.292-3.995-.879-.216-1.764-.458-2.623-.817-1.04-.433-3.283-1.479-3.001-2.873 .056-.27.197-.553.473-.85 .782-.84 5.158-1.055 6.212-1.267 4.05-.821 8.096-1.759 12.039-2.971h-1.527c2.112,0 3.665-.98 5.477-1.98 3.035-1.673 5.598-3.805 7.506-6.69 5.204-7.88 3.766-18.79 1.224-27.407 10.577,6.315 22.206,10.964 34.226,13.694 2.571.582 5.189.989 7.808,1.281 1.425.156 2.851.273 4.281.354 1.866.1 1.795.954 2.245,2.76 1.491,5.98 1.875,11.856 1.336,17.989 .113.033.188.029.285.047-.756.482-.635,2.078-.795,3.087-.08.505-3.502-.163-4.427-.108-4.129.242-8.249.526-12.373.847-5.818.449-14.984-.117-19.608,4.03-3.75,3.36-8.195,9.843-2.903,14.196 4.779,3.931 15.743-.193 21.135-1.07-2.686,3.021-4.834,7.084-2.37,10.615 1.778,2.547 6.248,2.928 9.323,1.763 3.198-1.216 5.903-1.895 8.493-4.417 1.721-1.675 3.337-6.405 5.452-7.128-.086,5.469.231,10.771 5.432,13.998 3.957,2.456 9.126,1.767 10.172-3.307 1.248-6.046-1.115-12.566.633-18.453 .636-2.141 2.064-4.399 2.608-6.714 .565-2.41-1.641-5.254-2.45-7.386-2.772-6.242-.575-14.102-.474-20.632 .646.024 1.291.051 1.937.079-.291,3.279 2.654,7.206 3.489,10.366 .531,2.013.919,4.037 1.239,6.095 .25,1.604.478,3.653 1.896,4.065-.237.011-.476.026-.7.026 .595,1.561 1.376,3.026 1.659,4.753 .475,2.885-.646,5.387.633,8.276 1.194,2.7 3.684,5.201 5.441,7.748 1.957,2.835 3.682,5.888 6.016,8.43 2.052,2.234 9.169,6.735 12.403,4.039 1.029-.857 1.708-1.552 2.252-2.851 1.253-2.987-.986-6.049-2.924-8.337 1.415.134 2.863-.161 4.109.158s2.819,1.26 4.064,1.793c2.761,1.182 5.775,1.949 8.716,2.524 4.496.877 12.603,2.335 16.83-.079 3.378-1.933 7.025-3.839 6.144-8.434-1.039-5.393-8.085-5.81-12.446-7.012 3.026-.563 5.23-1.91 4.74-5.348-.277-1.948-1.854-3.507-3.299-4.732-.624-.529-1.338-.793-2.098-.93h.776c-5.471-3.717-12.471-1.196-18.33,0h8.852 4.032c-1.377,0-2.738,0-4.096.009-4.771.026-9.447.149-14.244.725-2.781.332-5.568.583-8.363.795-.695.056-1.839.309-2.419-.024-.643-.365-.757-1.016-1.176-1.367l-.134-.084c.035-.004.07-.011.105-.018 .085-.011.168-.013.257-.035-1.393-3.639-2.133-7.016-2.372-10.895-.097-1.564-.749-10.456.629-10.637 8.402-1.087 16.717-2.543 25.171-3.21 4.117-.327 8.277-.03 12.126-1.376 3.386-1.185 7.405-1.052 10.945-1.942 2.239-.564 6.75-2.983 8.906-2.255 .652.217-.982,9.357-1.074,10.93-.119,2.122-.054,4.214.112,6.302 .063.785.136,1.57.229,2.353 .118,1.018.257,2.035.408,3.057 .279,1.844.802,3.66 1.347,5.439 .574,1.875 1.051,2.19 2.349,2.234h-1.452c2.499,5.893 7.797,12.421 13.769,14.991 2.961,1.274 5.747,3.498 8.909,4.85 2.868,1.228 5.838,1.049 6.952,4.239-1.586.149-3.157.248-4.705.646-1.474.379-2.938-.18-4.46-.292-3.025-.22-6.224.479-7.766,3.427-1.4,2.681 1.556,3.852 2.485,5.711 1.221,2.45 4.705,2.278 6.781,1.12-.495,3.264 3.872,3.747 6.28,3.446 2.195-.275 4.084-1.719 5.492-3.367 1.665-1.948 3.744-3.004 5.727-4.711 .84-.722.17-2.98-.237-3.863-.639-1.392-.392-1.338-.117-2.751 2.477.459 5.104.61 7.623.672 1.162.031 2.345.047 3.505-.008 1.953-.093 2.942-.812 3.291,1.157 .643,3.635-5.256,4.935-5.59,8.95-.558,6.694 9.484,5.115 11.003.118 1.84,2.367 5.055,5.295 8.335,4.356 2.947-.845 3.552-3.98 1.58-6.139 2.111.712 10.021,2.776 10.943-.454 1.246-4.362-7.1-6.069-9.818-6.535-2.021-.348-6.973.682-6.973-2.138 0-.648 7.447-1.949 8.716-2.323 5.551-1.639 10.563-4.753 15.503-7.836-.093.051 1.51-1.114 1.976-1.468-.227,1.113-.027,3.475 1.28,3.499 2.493.05 4.988.08 7.484.104l.201.002c-.079.097-.124.178-.192.268-2.444,3.294 3.567,4.034 5.645,3.517 2.825-.708 4.604-2.771 5.81-5.307 .86-1.815 3.79-3.154 3.746-4.863-.02-.804-.048-2.419.195-3.925 .084-.532.199-1.053.361-1.516 .378-1.06.995-1.837 1.998-1.837 2.913,0 3.021,4.315 3.021,6.724 0,2.04-.385,2.815 1.032,4.535 1.308,1.591 2.661,3.066 4.417,4.18 3.101,1.963 6.342,3.374 10.075,3.374 2.747,0 5.852-2.114 3.932-5.188-.114-.181-.237-.353-.376-.514 2.345.294 6.683.771 8.021-1.743 1.204-2.264.531-5.6-1.937-6.733-2.067-.947-5.077-.863-7.286-1.209-1.253-.195-2.507-.368-3.762-.529l-3.545-.443c-.566-.07-2.202-.028-2.513-.431-.198-.256-.152-.688-.002-1.133 .25-.747.798-1.548.989-1.679 .931-.637 3.471-.703 4.661-.951h-.028c3.318,0 8.537-3.285 11.053-5.266 2.835-2.234 4.485-5.073 6.753-7.604 1.338,2.525 1.791-.758 1.752-2.073-.003-.082-.005-.159-.014-.224 .011.06.029.123.047.182 .201.785.863,1.605 1.732,1.201 .915-.424.597-2.601.335-3.383-.163-.49 2.198-2.858 2.408-3.702 .789-3.141 1.143-5.811.95-9.1zm-176.056-20.274c.482.033.738.33 1.068.515-.362-.162-.711-.343-1.068-.515zm-218.9-10.278c-1.937-1.304-3.254-2.937-2.231-4.612 2.135-3.5 8.083-4.199 11.595-2.894 1.703,2.889 8.105,4.198 6.084,8.912-1.313,3.061-6.489,1.804-9.105,1.308-.933-.174-2.504-.694-4.072-1.436-.788-.372-1.567-.803-2.271-1.278zm16.483,60.656c1.283-.034 2.565-.122 3.785-.122-.313-.084-.623-.171-.935-.255-5.482-1.483-10.836-3.205-15.539-6.521-2.308-1.627-3.886-3.653-5.84-5.613l-.027-.026c-.307-.308-.546-.656-.768-1.014-.863-1.393-1.347-2.956-3.258-3.172-.065-.005-.114-.029-.182-.032 .003-.03.008-.055.012-.081 .214-1.63.463-2.264-.525-3.602-.725-.982-1.472-.004-.711-1.783 .246-.574.667-1.067.731-1.703 .214-2.154-.821-4.734-.87-6.969-.061-2.793.15-5.501.731-8.238-.212,0-.406-.005-.587-.014 .446-.097.635-.409.861-1.391 .364-1.594.827-3.133 1.415-4.657 1.147-2.981 2.732-5.788 4.619-8.365 .891-1.215 1.868-3.332 3.43-2.74 1.374.52 2.749.898 4.198,1.141 2.52.42 4.971.301 7.484-.12 2.547-.425 3.442-3.238 3.15-5.659-.192-1.585-.649-2.896-1.513-4.244-.497-.773-1.972-1.771-2.2-2.563-.285-.999-.954-1.139-1.925-1.699-.435-.252-.768-.413-1.025-.545-.56-.297-.73-.466-.663-1.099 .03-.283.104-.657.217-1.19 3.686,3.386 7.867-5.654 2.054-5.308 .062-.143.251-.417.316-.515l-.853-.011c.668-.09 1.108-.417 1.752-1.492 .687-1.148 1.652-2.204 2.577-3.17 1.77-1.845 3.775-3.515 5.926-4.891 2.375-1.523 3.702-1.351 3.97-4.198 .047-.497 3.074-3.052 3.655-3.782-.254,1.114.429,1.575 1.461,1.464 1.547-.166 2.314-2 4.332-2.078 2.521-.102 5.037-.188 7.56-.238 .851-.016 2.659-.431 3.337.167 .708.626 1.372,1.449 2.272,1.318 .058,3.122.377,6.22 1.022,9.279 .342,1.621.76,3.215 1.219,4.81 .619,2.148.719,2.688 2.433,2.795-.363-.012-.824.027-1.474.027 1.489,4.819 4.044,9.382 6.779,13.596 2.548,3.921 4.384,8.1 7.646,11.57 2.98,3.169 6.317,6.188 9.583,9.06 1.551,1.363 3.327,2.862 5.107,3.912 .706.417 1.452.641 2.222.769-.414.034-.801.063-1.116.063 1.176.373 2.038,4.724 2.41,5.821 .948,2.793 1.419,5.102 1.674,8.031 .371,4.271-.19,9.42-2.03,13.297-3.697,7.786-13.473,9.664-20.938,11.859h1.014c-1.737,0-4.915,1.453-6.109.753-1.313.399-2.633.702-3.957.961-1.775.346-3.558.583-5.35.719-8.696.657-17.56-.874-26.306-1.798-2.091-.222-4.177-.404-6.253-.514zm-13.993,16.075c-2.051-1.427.127-3.618 1.778-4.277 2.285-.912 5.805-.038 8.296-.038 3.011,0 5.979-.268 8.963-.67 3.348-.455 4.894-4.606 4.943-7.528 1.233.674 2.503.973 3.883,1.245l.7.139c-.195.292-.346.587-.478.884-.727,1.632-.568,3.321-.352,5.019 .283,2.23.028,2.209 2.014,3.538 1.454.974 2.743,2.202 3.753,3.63 1.086,1.536 2.384,4.305.04,5.288-2.575,1.078-5.767-1.356-7.565-2.971-3.358-3.018-2.982-2.827-7.525-.842-1.717.749-7.082,3.951-8.495.625-1.399-3.298 3.747-4.359 5.649-4.873 2.216-.595 4.13-1.456 6.144-2.587l.256-.145c-.98-.853-5.186.564-6.766.793-1.294.187-2.625.268-3.802.892-.714.375-2.186,2.356-2.632,2.348-2.128-.043-7.033.761-8.804-.47zm59.387-5.529c1.375.475 4.83.736 5.244,2.56 .318,1.4-2.482,2.759-3.338,1.425-1.4-2.183-3.556-2.556-5.59-3.287-.739-.267-5.86-2.321-5.808-.477 .013.438 5.941,2.131 6.558,2.333 1.711.561 3.405.703 4.148,2.54-.184.026-.369.055-.553.078 1.07.242 1.07,1.122.958,2.027-.046.362-.108.729-.128,1.063-.154-.061-.309-.092-.465-.118-1.202-.177-2.44.578-3.167.366-2.872-.834-5.591-1.875-8.101-3.537-2.032-1.343-2.569-2.504-3.753-.316-.591,1.093-.799,2.134-1.699,3.149-1.855,2.096-6.06,2.441-5.372-1.09 .435-2.235 2.243-3.642 3.358-5.586 1.183-2.062 1.421-3.674 1.026-6.096 2.011-.186 4.003-.409 6.005-.673l3.042-.516c-1.394,4.175 4.275,4.995 7.635,6.155zm54.804,17.549c-.169-.848-.121-1.779.07-2.741 .02-.094.035-.187.057-.282 .059-.253.128-.51.205-.766 .243-.804.575-1.614.971-2.407 .123-.244.25-.486.385-.729 1.138-2.044 2.639-3.883 3.981-4.974-6.375,1.756-11.909,5.619-18.913,4.86-1.903-.204-6.033-.971-6.608-3.278-.314-1.265-.179-2.553.235-3.766l.03-.088c.557-1.563 1.588-2.987 2.845-4.004 5.745-4.656 14.063-3.914 20.97-4.248 4.297-.209 8.163-.472 12.519-.23 1.77.098 2.766-.205 3.372-.837 .104-.106.196-.223.278-.352 .624-.961.691-2.464.994-4.376-.105-.032-.18-.024-.273-.04 .654-.452.379-1.906.433-2.892 .091-1.628.121-3.252.091-4.885-.057-3.049-.562-6.095-1.08-9.094 3.241.887 6.415,1.238 9.768,1.082 1.308-.06 2.69-.385 3.94-.409 .654-.011 1.209.253 1.846.088 .017-.007.033-.004.05-.01-.013.05-.021.099-.033.146-.761,3.009-.686,6.104-.461,9.181 .128,1.747.181,6.028 1.919,6.775l.052.024-.047.002c-.245.011-.49.03-.719.03 .665,1.316 1.368,2.875 1.856,4.316 .813,2.402.537,3.186-.552,5.465-.361.758-1.073,1.793-1.344,2.377-.597,1.288-.54,3.1-.555,4.745-.036,4.199.028,8.361.214,12.554 .154,3.467-1.636,6.595-5.545,6.226-6.296-.593-7.065-10.724-6.538-15.365 .11-.978 1.038-4.513.256-4.278-1.711-3.032-6.02,5.48-6.914,6.763-2.057,2.955-4.767,5.862-8.157,7.297-2.068.874-5.517,1.917-7.705.808-.915-.464-1.615-1.295-1.893-2.688zm4.483,3.624c.198.024.396.052.593.079-.228.044-.402-.046-.593-.079zm60.694-29.191c1.518.171 3.021.461 4.528.703 3.021.488 7.063-.545 10.095-.883 5.43-.604 12.288-3.606 17.462-.866 .852.449 6.205,5.384 3.833,6.177-1.551.519-3.087,1.03-4.602,1.644-1.823.738-2.397.541-4.425.238-6.61-.985-13.223-.666-19.873-.871 3.508.787 5.855,1.479 9.496,1.888 4.048.458 8.066,1.012 12.077,1.731 4.038.725 8.038,1.62 12.007,2.658 2.839.741 3.929,2.44 3.121,5.444-1.598,5.955-11.009,4.713-15.564,4.318-4.04-.352-7.99-1.161-11.854-2.382-3.041-.959-5.259-3.231-8.573-3.552-2.159-.208-4.526.89-6.082-.84 1.834,2.717 9.084,11.14 3.515,13.269-3.672,1.402-7.74-1.97-10.095-4.558-2.08-2.284-3.761-5.065-5.67-7.507-.983-1.256-2.535-2.597-3.276-3.975-.532-.993-.609-1.935-1.245-3.188-.964-1.907-.996-4.27-.019-6.059 .748-1.375.219-1.202-.277-2.081-.542-.963-1.377-2.507-1.896-3.96-.55-1.716-1.061-3.444-1.578-5.168-.28-.938-.576-1.868-.855-2.807-.679-2.283-1.354-4.566-2.071-6.838 2.577.926 7.05-.091 9.64-.811 2.294-.638 4.346-1.544 6.439-2.674 .217,2.778-.543,16.627 2.914,18.207-.162.014-.333.035-.544.09 .969,2.019 1.116,2.403 3.372,2.653zm160.453-2.651h-1.06c.644.014 1.145.924 1.425,2.049 .452,1.799.327,4.142-.728,4.34-.161.03-.335.03-.539-.049-2.569-.997-5.687-.956-8.139.352 2.261-2.011 3.291-3.948 4.662-6.691l-.523-.011c.618-.164 1.087-.566 1.192-1.534 1.096.817 2.361,1.286 3.71,1.544zm-9.831,7.327c-.195.854-.825,1.352-1.738,1.308 .466-.358 1.594-1.21 1.738-1.308zm6.637.395c-1.85-.131-3.835.06-5.649.436 1.177-1.357 4.118-.504 5.649-.436zm-86.477,22.85c-2.823-.903.291-2.997 1.383-3.681 .773-1.04 2.644-.604 3.831-.635-2.303.786-4.329,1.99-5.214,4.316zm8.34,3.733c.451-2.027 5.025-3.672 6.276-4.522 2.765-1.879-.129-1.693-2.096-1.186-2.238.577-4.95,2.09-5.686,4.434-1.053-.132-4.518,1.182-5.215-.595-.855-2.177 3.556-3.939 4.898-4.477 2.431-.976 5.122-1.613 7.748-1.67 2.287-.049 2.475-1.891 1.971-4.072 1.972.349 3.947.69 5.927,1.03-.252.314-.48.74-.791.991-.094,1.819 1.343,2.915 1.343,4.494 0,.464-1.901,2.12-2.37,2.396-.234.136-.938-.432-1.482.04-1.349,1.16-1.725,2.938-3.337,3.999-1.324.87-4.978,2.147-6.32,1.027-.374-.311-.603-.616-.745-.912-.161-.333-.194-.66-.121-.977zm54.41-3.122c-2.861,1.146-6.749-.771-9.808-.45-.919.099-7.425-3.715-6.406-.991 .302.804 3.888,2.382 4.703,3.048 .793.652 1.777,1.554 1.777,2.616 0,3.411-5.936-.035-7.073-1.359-.988-1.142-.112-4.315-2.883-2.879-1.564.811-.655,2.103-1.265,3.366-.376.78-1.956,1.665-2.725,1.901-.616.188-1.362.218-2.071.109-1.645-.258-3.065-1.303-2.111-3.006 .067-.121.14-.241.232-.369 1.401-1.93 3.658-2.679 4.7-4.894 .64-1.356.632-2.348.313-3.559-.076-.291-.166-.591-.272-.915 .232-.038.466-.054.7-.091 1.757-.25 3.534-.419 5.305-.464-.459,3.663 3.106,3.96 5.978,4.224 3.947.36 8.207.229 10.968,3.521l.121.137c-.06.026-.123.031-.183.055zm35.549-29.082c-.753.968-1.303,2.102-1.708,3.246-.309.865-.366,4.088-.892,4.495-1.477,1.148-2.073,2.583-2.825,3.957-.441.811-.938,1.601-1.697,2.301-.186.171-.387.338-.591.498-1.332,1.033-3.039,1.779-4.741,1.54-4.033-.562.131-4.747 2.092-5.768 .554-.286 3.781-1.345 3.122-2.272-.541-.761-2.932.229-3.426.591-1.213.888-2.379,2.431-3.685,2.896-1.518.539-3.851.038-5.492.038-1.773,0-3.015.521-2.826-1.563 .108-1.19 2.682-1.487 3.538-1.723 1.914-.529 3.908-.828 5.887-.991 .959-.079 1.871-.109 2.833-.085 .866.021.068-1.133.128-1.183-.183-.092-.367-.186-.553-.278 1.455.179 4.108.973 4.108-1.462 0-1.857-.06-3.653-.236-5.507 2.171.292 4.355.531 6.544.744l.766.088c-.126.138-.232.292-.346.438zm31.514,7.681c-3.195-1.728-6.752-3.087-10.468-3.564 2.655-.089 10.288-.398 10.468,3.564zm-14.854-3.842c-2.028,1.005 4.347,1.81 5.389,1.984 2.85.477 6.148.634 8.439,2.649 3.778,3.322-4.3,2.892-6.499,3.353-.13.027-.249.057-.334.092l-.118-.108c-1.778-1.854-3.901-3.2-6.204-4.311-.402-.195-6.491-1.446-4.998.479 1.267,1.635 4.754,1.814 6.622,2.496 1.397.51 5.776,2.817 5.254,4.898-.025.09-.042.18-.082.27-.285.613-.83.956-1.535,1.104-3.039.64-9.096-2.387-10.595-3.364-1.43-.935-3.373-2.512-4.261-4.127-.18-.329-.305-.655-.384-.982-.033-.13-.083-.264-.097-.393-.299-3.06.526-5.065-1.101-7.931-.06-.104-.098-.201-.162-.308 .1-.005.198-.016.297-.021 2.089-.156 4.174-.32 6.26-.494-.217.63-.95,3.784-.049,3.967 1.385.279 2.767.523 4.158.747z"/>
 <path d="m388.35 212.33c0.39 4.255 6.8 2.801 6.6-1.305-0.23-4.63-6.725-2.984-6.6 1.305z"/>
 <path d="m365.433,207.22c-2.378.659-3.792,4.212-2.172,6.218 1.166,1.446 4.191,1.53 5.49.356 2.911-2.623-.041-6.448-3.318-6.574z"/>
 <path d="m386.73,218.776c-.564-.866-.821-1.508-2.177-2.249-1.506-.826-3.262-1.398-4.978-1.546-4.927,1.226-11.308,10.255-7.307,14.852 2.936,3.378 10.651,4.749 14.496,2.278 2.722-1.75 4.081-5.578 2.311-8.356-.918-1.444-1.247-3.291-2.345-4.979zm-12.25,4.444c.788-2.537 2.695-4.327 4.899-5.663 5.171-.677 12.293,10.08 6.241,12.592-2.89,1.202-8.103.417-10.805-1.383-1.445-.965-.751-4.21-.335-5.546z"/>
 <path d="m320.279,227.063c1.337-5.212-6.271-6.071-6.52-.913-.196,4.091 5.161,4.226 6.52.913z"/>
 <path d="m292.17,215.854c-.282.445-.377,1.708-.812,1.697-1.13-.024-2.234-.049-3.355.126-7.286,1.135-8.722,8.329-5.122,13.739 3.503,5.271 9.369,9.208 15.808,7.367 4.034-1.152 7.143-7.55 6.617-11.503-.088-.662-.195-1.313-.354-1.961-.834-3.058-4.357-5.458-7.19-6.495 .893-1.995.451-4.384-2.076-4.613-1.341-.122-2.785.504-3.516,1.643zm-8.751,8.157c.9-3.03 4.289-3.128 6.962-3.498 3.067-.423 5.832-.504 8.546,1.128 1.004.602 2.151,1.295 2.865,2.253 .672.907.686,1.935 1.422,2.813 .329,1.158-.009,2.508-.316,3.684-.477,1.819-.584,1.272-1.621,2.492-1,1.178-1.807,2.789-3.239,3.507-4.913,2.454-9.605-2.313-12.596-5.702-1.375-1.554-2.669-4.498-2.023-6.677zm11.379-6.097c-.268-.099-.324-.12 0,0z"/>
 <path d="m55.355,216.249c.811-1.204.708-3.312-.178-4.454-1.709-2.204-4.168-1.325-5.748.258-1.529,3.746 3.356,8.01 5.926,4.196z"/>
 <path d="m164.547,271.971c.024-.071.075-.418.08-.475h-.553c.171.099.335.336.473.475z"/>
 <g transform="matrix(-1 0 0 1 326.7 0)">
  <path d="m162.335,33.979c0,.908.244,1.854.635,2.776 .411.642.733,1.277 1.054,1.89 1.13,1.618 2.68,2.965 4.238,3.551 3.582,1.346 8.016.973 11.765,1.028 8.85.13 14.918,2.592 21.657,8.279 .986.384 2.162,1.813 2.968,2.532 1.883,1.676 3.649,3.468 5.334,5.338 5.025,5.583 7.13,12.255 10.741,18.624 2.754,4.861 7.593,8.832 13.154,5.308 6.116-3.877 6.759-11.242 5.326-17.81-.723-3.313-3.717-5.792-4.338-8.882-.28-1.39.436-2.981 1.302-4.04 .56-.681.876-.941 1.342-1.035-.253-.018-.524-.034-.826-.034 .431-1.8.603-3.464.316-5.307-1.099-7.075-4.507-14.78-9.445-19.992-5.196-5.482-14.045-8.595-20.699-3.532-.637.484-2.349,3.211-2.705,3.169-1.224-.146-2.146-.67-2.529-1.902-.899-2.886-3.273-4.159-5.726-6.002-4.409-3.316-13.636-3.696-16.931,1.092-.87,1.263-1.855,4.495-3.733,4.059-1.467-.34-3.105-2.793-3.981-2.902-1.898-.238-3.712-.191-5.52.506-2.609,1.006-5.592,3.485-5.482,6.494 .085,2.317 2.083,4.375 2.083,6.792z" fill="#c00"/>
  <path d="m158.242,184.897c2.918-.898 4.919-3.357 6.211-6.144-.058-.084-.125-.161-.183-.244-1.385,3.038-3.504,5.19-6.028,6.388z" fill="#c96"/>
  <path d="m89.824,129.561-.003.005 .031-.002-.028-.003z" fill="#c96"/>
  <path d="m176.637,187.552c3.082,1.734 6.99,2.167 10.271,1.003-3.344.538-6.903.122-10.271-1.003z" fill="#c96"/>
  <path d="m246.56,138.846c-2.516-2.785-3.578-6.06-5.017-9.364l.461-.013c-.343-.099-.615-.344-.875-.938-.449-1.029-.849-2.079-1.18-3.154-.659-2.162-1.18-4.346-1.446-6.589-.503-4.195-.896-8.742.553-12.792 .856-2.394 1.682-4.678 2.548-6.969 .717-1.899 1.578-3.814 1.883-5.811 .267-1.733.027-2.415 1.005-2.643 0-.022-.002-.048-.002-.072-.2-.015-.409-.029-.654-.029 .12-4.19-.341-8.061-1.523-12.023-.227-.189-.431-.33-.624-.434-3.722,7.891-15.208,14.527-21.595,5.131-1.729-2.545-2.588-5.775-3.99-8.514-1.563-3.055-3.331-6.009-5.215-8.871-3.669-5.569-8.122-10.503-13.669-14.258 .23,0 .497-.019.776-.04-.674-.109-1.331-.327-1.979-.756-1.475-.974-3.036-1.918-4.645-2.649-3.431-1.563-6.816-1.907-10.548-1.961-6.983-.102-14.025,1.063-18.33-5.723-.89-1.403-1.624-2.849-2.186-4.414-.77-2.146-.539-1.533-2.554-1.13-1.297.26-1.49-.022-2.906.839-1.659,1.008-3.49,1.731-5.074,2.844-2.966,2.084-5.458,4.979-7.938,7.594-1.111,1.17-2.225,2.465-3.184,3.765-.793,1.076-1.366,1.46-2.107,1.591l-.033.041h.937c-5.143,5.397-8.89,13.083-12.177,19.703-1.982,3.99-3.981,7.971-5.888,11.998-.867,1.832-1.693,3.681-2.523,5.531-.576,1.281-.981,1.64-1.768,1.729l1.023.009c-3.019,6.585-5.685,13.295-8.411,20 0,.14-.018.273-.014.413 .03.98-.792,2.288-1.625,3.479-1.171,2.73-2.384,5.438-3.638,8.135-.75,1.616-1.556,3.21-2.352,4.803-.762,1.529-1.146,1.998-1.979,2.134 .292.024.586.046.873.046-1.476,2.185-3.135,4.942-5.491,6.255-.961.085-1.632.723-2.37,1.15 .569-1.441 1.17-2.618 2.173-3.962 .698-.935 1.411-1.83 2.097-2.786 .264-.369.604-.554.981-.655l-.51-.002c1.326-2.343 2.601-4.702 3.911-7.051-1.492,1.254-2.851,2.663-4.325,3.942-1.097.949-2.134,1.946-3.178,2.954-.067.065-.159.114-.264.155h.103c-2.556,2.347-4.497,4.746-5.399,8.166-.515,1.951-.839,2.813.816,3.893 1.094.711 1.94,1.595 1.817,2.95-.619,6.823 4.912,10.271 10.468,12.383 3.963,1.51 8.146,1.453 12.289,1.207-.873-.095-1.498-.489-1.774-1.145-.178-.337-.224-.783-.111-1.348 .012-.07.012-.133.028-.207 .055-.257.142-.482.25-.694l.006-.018c.952-2.294 4.509-2.477 7.186-2.675 .919-.104 1.832-.229 2.727-.431 1.491-.482 3.066-1.42 4.612-1.829 .642-.192 1.285-.297 1.929-.177 1.419.265 2.046,1.106 2.136,2.079 .001.02.005.039.007.058 .01.134.006.268-.004.403-.013.37-.082.746-.214,1.117 .562-.398 1.108-.812 1.63-1.24 1.581,2.415.578,5.336 1.177,8.002 .668,2.971 1.621,5.727 2.931,8.475-.265,0-.529.021-.785.042 .646.112.996.478 1.662,1.611 .715,1.22 1.445,2.433 2.284,3.573 1.494,2.036 3.269,4.043 5.232,5.638 3.641,2.961 8.838,4.807 13.572,3.747 3.526-.788 3.691-3.472 5.215-6.335 .492-.927 1.118-2.218 1.935-2.259 .355-.018 2.194,1.406 2.489,1.763 3.551,4.321 8.037,8.149 13.591,9.483 2.185.525 4.399.587 6.598.042 1.789-.445 3.448-1.237 4.977-2.259 1.651-1.104 1.98-1.778 2.647-3.564 .732-1.956 2.017-3.947 2.213-5.8 .125-1.199.721-2.433 1.975-2.834 1.515-.483 1.955.422 3.185,1.213 5.877,3.769 13.689,4.969 20.479,3.264 2.281-.575 4.538-1.585 6.479-2.932 1.096-.758 2.13-1.688 3.09-2.61 1.076-1.033 1.725-1.461 2.561-1.643l.063-.085c-.398-.03-.741-.056-.933-.056 2.932-4.247 3.348-9.068 2.723-14.081-.194-1.566 2.833-1.731 3.775-2 1.803-.516 3.512-2.821 4.839-4.06 1.365-1.27 3.866-4.123 4.154-6.127-.054-.497-.142-.98-.267-1.453-.406-.655-1.136-1.152-1.797-1.885zm-8.153-7.422c-.09.76-.231,1.426-.399,2.054-.08.599-.173,1.192-.295,1.784-.738,2.119-1.798,4.204-3.397,5.782-.485.477-1.449.883-1.817,1.424-.589.864-.283.883-.356,2.021-.099,1.534-.257,2.998-.712,4.475-1.752,5.688-5.896,10.279-12.284,9.464-1.329-.169-2.676-.536-3.735-1.383-1.072-.861-.773-.359-1.837.196-2.052,1.075-3.484,2.305-6.004,2.435-6.127.319-11.828-3.175-13.354-9.285-1.663-6.666 2.925-14.324 8.099-18.139 1.427-1.049 2.875-1.325 3.477-2.851 .553-1.406.34-3.768.597-5.331 .603-3.681 2.416-6.717 5.605-8.73 5.588-3.526 14.339-3.918 19.636.278 4.144,3.286 6.182,8.133 6.531,13.17 .019.018.054.035.064.057 .416.712.332,1.325.181,2.579z" fill="#c96"/>
  <path d="m234.078,121.521c-.684-3.16-4.833-5.755-7.577-6.944-.836-.364-1.705-.555-2.591-.638-2.272-.213-4.647.356-6.822,1.086-3.413,1.147-6.726,2.828-8.532,6.1-1.56,2.828-1.44,5.98-1.134,9l.074.13c.024,1.182.241,2.523.671,3.741 .014.03.02.065.034.096l.016.038c2.141,4.909 9.056,7.361 13.73,7.536 5.528.209 9.249-.106 12.209-5.017 2.448-4.062 2.775-11.178-.078-15.128z" fill="#ff6500"/>
  <path d="m217.104,155.724c1.123.791 2.684.956 4.054.886 6.356-.332 8.467-7.537 8.812-12.832-3.926.901-7.209,1.128-11.22.435 1.499,2.557.213,5.104-1.03,7.447-.956,1.805-2.528,2.721-.616,4.064z" fill="#c00"/>
  <path d="m202.947,156.451c4.106,1.37 8.561.527 11.017-3.16 1.853-2.784 2.517-6.138 3.956-8.999 .046-.472-6.041-2.796-7.152-3.563-2.493-1.729-4.974-4.813-5.333-7.921-4.022,3.939-7.645,7.204-8.513,13.048-.731,4.925 1.19,8.983 6.025,10.595z" fill="#c00"/>
  <path d="m129.082,151.694c-.001-.019-.006-.038-.007-.058-.09-.973-.717-1.814-2.136-2.079-.644-.12-1.288-.016-1.929.177-1.454.445-2.894,1.421-4.273,1.764-.112.03-.228.041-.339.065-.895.202-1.808.326-2.727.431-1.143.131-2.291.248-3.412.502-1.44.327-3.093.839-3.78,2.19-.108.212-.195.438-.25.694-.016.074-.016.137-.028.207-.083.525-.044.981.111,1.348 .277.655.901,1.05 1.774,1.145 1.564-.093 3.123-.209 4.661-.283 .608-.029 1.214-.095 1.819-.186l.167-.028c3.589-.579 7.07-2.208 10.041-4.307 .169-.386.277-.787.305-1.179 .009-.135.013-.269.003-.403z" fill="#ce9a63"/>
  <path d="m207.05 106.86c1.621-0.4865 3.2556-1.784 4.227-3.958s1.177-5.1545-1.264-7.051-7.783 1.685-7.783 4.212-0.4715 4.808 0.633 6.087 2.566 1.1965 4.187 0.71z"/>
  <path d="m229.8854,103.93905c1.611-.406 2.665-2.215 3.338-3.564 .812-1.629.926-3.956-.492-5.347-2.977-2.912-6.172,1.486-6.601,4.277-.446,2.225 1.213,5.273 3.755,4.634z"/>
  <path d="m238.16,128.79c-.35-5.037-2.388-9.884-6.531-13.17-5.297-4.196-14.048-3.805-19.636-.278-3.189,2.013-5.002,5.049-5.605,8.73-.257,1.563-.044,3.925-.597,5.331-.601,1.525-2.05,1.802-3.477,2.851-5.173,3.814-9.762,11.473-8.099,18.139 1.525,6.11 7.227,9.604 13.354,9.285 2.52-.13 3.952-1.359 6.004-2.435 1.063-.556.765-1.058 1.837-.196 1.06.847 2.406,1.214 3.735,1.383 6.389.815 10.532-3.775 12.284-9.464 .455-1.477.613-2.94.712-4.475 .073-1.139-.232-1.157.356-2.021 .368-.541 1.332-.947 1.817-1.424 1.6-1.578 2.659-3.663 3.397-5.782 .122-.592.215-1.186.295-1.784 .207-1.558.26-3.132.154-4.69zm-32.724,4.018c.359,3.108 2.839,6.191 5.333,7.921 1.111.768 7.198,3.092 7.152,3.563-1.439,2.861-2.104,6.215-3.956,8.999-2.456,3.688-6.911,4.53-11.017,3.16-4.835-1.612-6.756-5.67-6.024-10.596 .867-5.843 4.489-9.108 8.512-13.047zm12.284,18.851c1.243-2.343 2.529-4.891 1.03-7.447 4.011.693 7.294.467 11.22-.435-.345,5.295-2.455,12.5-8.812,12.832-1.37.07-2.931-.095-4.054-.886-1.912-1.342-.34-2.258.616-4.064zm4.228-9.993c-4.675-.175-11.59-2.627-13.73-7.536-.006-.012-.011-.024-.016-.038-.015-.03-.021-.065-.034-.096-.277-.67-.477-1.381-.56-2.139-.063-.569-.126-1.15-.186-1.732-.307-3.02-.426-6.172 1.134-9 1.806-3.272 5.12-4.953 8.532-6.1 2.175-.73 4.55-1.299 6.822-1.086 .886.083 1.755.274 2.591.638 2.744,1.189 6.894,3.784 7.577,6.944 2.853,3.951 2.525,11.066.079,15.129-2.96,4.91-6.68,5.225-12.209,5.016z"/>
  <path d="m243.44,100.688c1.232-3.383 1.979-6.628 2.412-10.216l-.406.011c.27-.096.419-.352.443-1 .042-.988.102-1.985.079-2.973-.041-2.041-.318-4.081-.733-6.078-.642-3.096-2.209-6.033-2.308-9.128-.116-3.612-.661-7.279-2.338-10.536-.634-1.231-2.897-3.759-2.429-4.953 .574-1.453 1.062-2.798 1.371-4.313l-.538-.006c.357-.151.548-.525.569-1.43 .028-1.205.041-2.389-.031-3.593-.156-2.511-.661-4.945-1.325-7.366-1.498-5.469-4.891-9.819-8.315-14.218-4.885-5.695-12.34-9.285-19.782-6.57-1.856.675-3.681,1.347-5.425,2.273-1.158.615-2.834-1.947-3.899-2.81-2.815-2.279-5.955-3.787-9.451-4.691-3.373-.874-7.559-1.068-10.784.317-1.584.681-3.007,2.221-4.041,3.562-1.536,1.99-1.377,2.511-3.744,1.444-5.969-2.692-14.854,1.966-14.854,8.881 0,1.381.307,2.739.908,3.97-10.894,3.696-18.154,11.129-24.848,20.237-9.04,11.551-15.307,25.487-20.859,38.969 .43,0 .781.007 1.1.013-.946.082-1.299.463-1.962,2.082l-2.9,7.079c-1.424,3.477-2.791,6.977-4.178,10.47-.965,2.25-1.926,4.501-2.88,6.757-.538,1.272-3.284,2.738-4.497,3.797-3.059,2.676-6.623,5.544-9.057,8.812 .258,0 .655.041 1.087.079l.027.002-.031.002c-1.197.167-1.884.679-2.923,2.313-1.135,1.782-2.077,3.541-2.796,5.541-.613,1.706-.736,3.562.408,5.089 .767,1.025 1.131,1.527.75,2.813-.963,3.254-3.817,6.772-5.214,10.06-1.807,4.244-3.227,8.628-4.464,13.07 3.509,0 3.11-.232 4.094-3.572 .582-1.97 1.29-3.925 2.052-5.833 1.524-3.82 2.954-7.711 5.468-10.991 1.258,8.68 12.277,12.832 19.918,12.832 2.268,0 4.476-.623 6.708-.676 2.207-.05 4.134.131 6.361-.195 3.338-.493 5.866-.84 8.809-2.455 .278,2.396.638,4.811 1.402,7.107 .342,1.025.704,2.041 1.146,3.03 .19.428.47.641.801.747-.15.002-.292.006-.465.006 3.127,7.59 8.663,13.641 16.395,16.592 3.552,1.357 7.037,1.25 9.971-.146 2.524-1.198 4.643-3.351 6.028-6.388 .058.083.125.16.183.244 2.777,3.994 7.267,7.157 12.184,8.798 3.368,1.125 6.927,1.541 10.271,1.003 1.221-.197 2.413-.515 3.556-.976 2.747-1.106 4.117-2.769 5.649-5.19 1.278-2.02 3.164-4.95 3.2-7.443 1.738.536 3.189,1.734 4.946,2.31 2.061.674 4.098,1.272 6.216,1.749 3.804.856 7.791.892 11.594.02 6.274-1.439 11.259-5.089 14.617-10.572h-.262c.175-.057.314-.127.359-.235 .415-.989.87-1.988 1.156-3.024 .474-1.732.76-3.362.936-5.139 .099-.973.112-1.935.043-2.913-.12-1.685.089-1.179 1.282-1.917 1.335-.826 2.659-1.164 3.801-2.406 2.664-2.894 7.433-7.236 7.103-11.494-.143-1.845-1.141-2.932-2.292-4.277-1.655-1.946-3.028-4.108-4.463-6.258-.105-.856-.478-1.182-.991-1.294 .129-.005.257-.011.398-.011-2.191-6.68-4.068-13.857-3.191-20.902zm-77.707-79.996c1.808-.697 3.622-.745 5.52-.506 .875.109 2.514,2.562 3.981,2.902 1.878.436 2.863-2.796 3.733-4.059 3.295-4.788 12.521-4.408 16.931-1.092 2.452,1.844 4.827,3.116 5.726,6.002 .383,1.231 1.305,1.756 2.529,1.902 .356.042 2.068-2.685 2.705-3.169 6.654-5.063 15.503-1.95 20.699,3.532 4.938,5.212 8.347,12.917 9.445,19.992 .286,1.843.114,3.507-.316,5.307 .302,0 .573.016.826.034-.466.094-.782.354-1.342,1.035-.866,1.059-1.582,2.649-1.302,4.04 .621,3.09 3.615,5.569 4.338,8.882 1.433,6.568.79,13.933-5.326,17.81-5.562,3.524-10.4-.447-13.154-5.308-3.61-6.368-5.716-13.041-10.741-18.624-1.685-1.87-3.451-3.662-5.334-5.338-.806-.719-1.981-2.148-2.968-2.532-6.739-5.687-12.807-8.149-21.657-8.279-3.749-.055-8.183.318-11.765-1.028-1.558-.586-3.108-1.933-4.238-3.551-.42-.601-.776-1.237-1.054-1.89-.391-.922-.635-1.869-.635-2.776 0-2.417-1.998-4.475-2.084-6.792-.109-3.009 2.874-5.488 5.483-6.494zm82.888,121.492c-.288,2.004-2.789,4.857-4.154,6.127-1.327,1.238-3.036,3.544-4.839,4.06-.942.269-3.97.434-3.775,2 .625,5.013.209,9.834-2.723,14.081 .191,0 .534.025.933.056l.248.018-.312.067c-.836.182-1.484.609-2.561,1.643-.96.922-1.994,1.853-3.09,2.61-1.94,1.347-4.197,2.356-6.479,2.932-6.79,1.705-14.602.505-20.479-3.264-1.229-.791-1.67-1.696-3.185-1.213-1.254.401-1.85,1.635-1.975,2.834-.196,1.853-1.48,3.844-2.213,5.8-.667,1.786-.996,2.461-2.647,3.564-1.529,1.021-3.188,1.813-4.977,2.259-2.198.545-4.413.483-6.598-.042-5.554-1.334-10.04-5.162-13.591-9.483-.294-.356-2.134-1.78-2.489-1.763-.817.041-1.443,1.332-1.935,2.259-1.524,2.863-1.688,5.547-5.215,6.335-4.733,1.06-9.931-.786-13.572-3.747-1.964-1.595-3.739-3.602-5.232-5.638-.839-1.141-1.568-2.354-2.284-3.573-.666-1.134-1.016-1.499-1.662-1.611 .256-.021.52-.042.785-.042-1.31-2.748-2.263-5.504-2.931-8.475-.6-2.666.403-5.587-1.177-8.002-.521.429-1.068.842-1.63,1.24l-.091.062c-2.97,2.099-6.452,3.728-10.041,4.307l-.167.028c-.604.091-1.211.156-1.819.186-1.538.074-3.097.19-4.661.283-4.142.246-8.326.303-12.289-1.207-5.556-2.111-11.086-5.56-10.468-12.383 .123-1.355-.723-2.239-1.817-2.95-1.655-1.079-1.332-1.941-.816-3.893 .903-3.42 2.844-5.819 5.399-8.166h-.103c.105-.041.197-.09.264-.155 1.044-1.007 2.081-2.005 3.178-2.954 1.474-1.28 2.833-2.688 4.325-3.942-1.31,2.349-2.584,4.708-3.911,7.051l.51.002c-.378.101-.717.286-.981.655-.686.956-1.398,1.851-2.097,2.786-1.003,1.344-1.604,2.521-2.173,3.962 .738-.428 1.409-1.065 2.37-1.15 2.356-1.313 4.015-4.07 5.491-6.255-.286,0-.58-.021-.873-.046 .833-.136 1.217-.604 1.979-2.134 .796-1.593 1.602-3.187 2.352-4.803 1.254-2.697 2.467-5.405 3.638-8.135 .404-.944.823-1.879 1.21-2.832 .144-.353.286-.704.429-1.06 2.726-6.705 5.392-13.414 8.411-20l-1.023-.009c.787-.09 1.192-.449 1.768-1.729 .83-1.85 1.656-3.699 2.523-5.531 1.906-4.027 3.906-8.008 5.888-11.998 3.288-6.619 7.035-14.305 12.177-19.703h-.937-.251c.098-.009.191-.024.284-.041 .741-.131 1.313-.515 2.107-1.591 .959-1.3 2.073-2.594 3.184-3.765 2.48-2.615 4.973-5.51 7.938-7.594 1.584-1.112 3.416-1.836 5.074-2.844 1.417-.861 1.609-.579 2.906-.839 2.015-.402 1.784-1.016 2.554,1.13 .563,1.565 1.296,3.011 2.186,4.414 4.305,6.786 11.347,5.621 18.33,5.723 3.732.054 7.117.398 10.548,1.961 1.608.731 3.17,1.675 4.645,2.649 .648.429 1.305.647 1.979.756-.28.021-.546.04-.776.04 5.547,3.754 10,8.689 13.669,14.258 1.884,2.862 3.651,5.816 5.215,8.871 1.402,2.739 2.261,5.969 3.99,8.514 6.387,9.396 17.873,2.76 21.595-5.131 .102-.217.202-.433.292-.652 .12.363.224.724.332,1.085 1.183,3.962 1.644,7.833 1.523,12.023 .245,0 .454.015.654.029l.327.024c-.112.015-.235.027-.325.048-.978.229-.738.91-1.005,2.643-.305,1.996-1.166,3.912-1.883,5.811-.866,2.291-1.691,4.575-2.548,6.969-1.449,4.049-1.056,8.596-.553,12.792 .267,2.243.787,4.428 1.446,6.589 .331,1.075.73,2.125 1.18,3.154 .26.594.532.839.875.938-.152.005-.306.013-.461.013 1.438,3.305 2.501,6.579 5.017,9.364 .661.733 1.392,1.23 1.795,1.885 .223.366.35.775.3,1.306 .001.047-.02.102-.029.149z"/>
 </g>
</svg>
