<?xml version="1.0" encoding="UTF-8"?>
<svg width="210mm" height="297mm" version="1.1" viewBox="0 0 744.09448819 1052.3622047" xmlns="http://www.w3.org/2000/svg">
 <g transform="translate(-17.143 -2.8571)">
  <g transform="matrix(.98685 .16163 -.16163 .98685 -1316.7 19.518)">
   <g transform="matrix(-.10766 .45309 -.45309 -.10766 2013.7 -420.76)">
    <path d="m1658.8 319.86c23.554-6.1191 38.645 1.4648 52.321 11.339-19.817-0.97316-38.628 0.0647-52.321 11.339z" fill="#f2f2f2"/>
    <path d="m1674.9 320.52c-4.9409-4e-3 -10.301 0.59124-16.19 1.9453v20.074c13.176-10.849 31.094-12.212 50.084-11.434-9.6378-5.9088-20.142-10.574-33.894-10.586z" fill="#fff"/>
    <path d="m1658.8 319.86c23.554-6.1191 38.645 1.4648 52.321 11.339-19.817-0.97316-38.628 0.0647-52.321 11.339z" fill="none" stroke="#000"/>
   </g>
   <g transform="matrix(-.048459 .46318 -.46318 -.048459 1906.8 -449.42)">
    <path d="m1658.8 319.86c23.554-6.1191 38.645 1.4648 52.321 11.339-19.817-0.97316-38.628 0.0647-52.321 11.339z" fill="#f2f2f2"/>
    <path d="m1674.9 320.52c-4.9409-4e-3 -10.301 0.59124-16.19 1.9453v20.074c13.176-10.849 31.094-12.212 50.084-11.434-9.6378-5.9088-20.142-10.574-33.894-10.586z" fill="#fff"/>
    <path d="m1658.8 319.86c23.554-6.1191 38.645 1.4648 52.321 11.339-19.817-0.97316-38.628 0.0647-52.321 11.339z" fill="none" stroke="#000"/>
   </g>
   <g transform="matrix(-.25348 .39067 .39067 .25348 1961.6 -434.47)">
    <path d="m1658.8 319.86c23.554-6.1191 38.645 1.4648 52.321 11.339-19.817-0.97316-38.628 0.0647-52.321 11.339z" fill="#f2f2f2"/>
    <path d="m1674.9 320.52c-4.9409-4e-3 -10.301 0.59124-16.19 1.9453v20.074c13.176-10.849 31.094-12.212 50.084-11.434-9.6378-5.9088-20.142-10.574-33.894-10.586z" fill="#fff"/>
    <path d="m1658.8 319.86c23.554-6.1191 38.645 1.4648 52.321 11.339-19.817-0.97316-38.628 0.0647-52.321 11.339z" fill="none" stroke="#000"/>
   </g>
   <path d="m1730.7 221.65c-4.2499-3.6627-10.494-5.609-16.072-5-3.8165 0.41674-7.5507 2.7579-10 5.7143-2.3298 2.8122-3.1737 6.727-3.5714 10.357-0.4568 4.1688 1.4286 12.5 1.4286 12.5l-5.3572 6.7857-0.3571 6.4286-10.357 13.75-8.9285 4.1072-18.591 27.177s1.9888 1.2799 2.7921 2.132c1.2905 1.3692 3.1549 4.6806 3.1549 4.6806l3.3585-6.4898 2.7417 5.6926 6.8506 1.609 2.9455-7.3685s3.5122 0.67068 5.2148 1.2033c1.3536 0.42343 3.952 1.5765 3.952 1.5765l1.5096-22.713s9.542-0.80792 14.107-2.1428c4.5014-1.3163 9.4664-2.4742 12.857-5.7143 2.9831-2.8506 5.5357-11.071 5.5357-11.071 0.3447-3.9283 1.4388-7.6551 2.5-11.429 0 0 6.9103-3.8153 8.5715-7.1429 2.1295-4.2658 1.6611-9.6128 0.7143-14.286-0.7612-3.7573-2.096-7.8544-5-10.357z" fill="#2ca02c" fill-rule="evenodd"/>
   <path d="m1734.7 228.21c0.5439 4.6722 0.421 9.5339-1.4941 13.607-1.9532 4.1541-10.078 8.916-10.078 8.916-1.2476 4.7108-2.5342 9.3636-2.9394 14.268 0 0-3.0004 10.264-6.5078 13.822-0.086 0.0868-0.1765 0.16557-0.2637 0.25 1.8289-0.79232 3.5385-1.7736 4.9629-3.1348 2.9831-2.8506 5.5351-11.072 5.5351-11.072 0.3447-3.9283 1.4388-7.6542 2.5-11.428 0 0 6.9111-3.815 8.5723-7.1426 2.1295-4.2658 1.6616-9.6122 0.7148-14.285-0.254-1.2538-0.5832-2.5432-1.0019-3.8008zm-43.531 59.289c-4.6733 0.72271-5.407 6.2708-5.407 6.2708l-4.7316 10.018c0.4537 0.0877 3.347 0.65129 4.9238 1.1445 1.3536 0.42343 3.9512 1.5762 3.9512 1.5762z" fill="#217821" fill-rule="evenodd"/>
   <circle cx="1717.5" cy="229.51" r="5" fill="#258625"/>
   <circle cx="1721.1" cy="243.79" r="2.8571" fill="#258625"/>
   <circle cx="1706.6" cy="255.04" r="3.5714" fill="#258625"/>
   <circle cx="1708.8" cy="272.36" r="2.8571" fill="#258625"/>
   <circle cx="1695.7" cy="272.01" r="4.8214" fill="#258625"/>
   <circle cx="1674.1" cy="292.36" r="4.1071" fill="#258625"/>
   <circle cx="1683.8" cy="281.47" r="1.7857" fill="#258625"/>
   <path d="m1730.7 221.65c-4.2499-3.6627-10.494-5.609-16.072-5-3.8165 0.41674-7.5507 2.7579-10 5.7143-2.3298 2.8122-3.1737 6.727-3.5714 10.357-0.4568 4.1688 1.4286 12.5 1.4286 12.5l-5.3572 6.7857-0.3571 6.4286-10.357 13.75-8.9285 4.1072-18.591 27.177s1.9888 1.2799 2.7921 2.132c1.2905 1.3692 3.1549 4.6806 3.1549 4.6806l3.3585-6.4898 2.7417 5.6926 6.8506 1.609 2.9455-7.3685s3.5122 0.67068 5.2148 1.2033c1.3536 0.42343 3.952 1.5765 3.952 1.5765l1.5096-22.713s9.542-0.80792 14.107-2.1428c4.5014-1.3163 9.4664-2.4742 12.857-5.7143 2.9831-2.8506 5.5357-11.071 5.5357-11.071 0.3447-3.9283 1.4388-7.6551 2.5-11.429 0 0 6.9103-3.8153 8.5715-7.1429 2.1295-4.2658 1.6611-9.6128 0.7143-14.286-0.7612-3.7573-2.096-7.8544-5-10.357z" fill="none" stroke="#000" stroke-width="1px"/>
  </g>
  <g transform="translate(-1525.1 363.09)">
   <g transform="translate(-80 -98.571)">
    <path d="m2090 286.8c-14.98-12.998-38.917-17.065-61.948-10.525-33.811 9.6007-55.166 38.702-47.699 64.999 1.8715 6.496 5.4349 12.433 10.47 17.445 1.3159 16.993 0.2395 31.098 14.804 64.086l37.23-5.4502c-4.3978-18.427-3.3427-35.22 15.189-46.778 32.251-10.492 51.936-38.679 44.746-64.071-2.1316-7.5064-6.5148-14.259-12.792-19.706z" fill="#2ca02c"/>
    <path d="m2049.6 273.2c-7.0732 0.0232-14.36 1.0305-21.557 3.0742-33.811 9.6007-55.165 38.703-47.697 65 1.8715 6.496 5.4333 12.432 10.469 17.443 1.3159 16.993 0.2407 31.1 14.805 64.088l35.404-5.1836c-1.9883-10.498-2.0388-18.656-2.7305-27.588-5.0354-5.0116-8.5992-10.949-10.471-17.445-7.4676-26.297 13.889-55.399 47.699-65 7.1971-2.0438 14.482-3.051 21.555-3.0742 1.7266-6e-3 3.4379 0.057 5.1348 0.16797-2.2929-6.7768-6.4543-12.881-12.219-17.883-10.299-8.936-24.832-13.651-40.393-13.6z" fill="#37c837"/>
    <path d="m2090 286.8c-14.98-12.998-38.917-17.065-61.948-10.525-33.811 9.6007-55.166 38.702-47.699 64.999 1.8715 6.496 5.4349 12.433 10.47 17.445 1.3159 16.993 0.2395 31.098 14.804 64.086l37.23-5.4502c-4.3978-18.427-3.3427-35.22 15.189-46.778 32.251-10.492 51.936-38.679 44.746-64.071-2.1316-7.5064-6.5148-14.259-12.792-19.706z" fill="none" stroke="#000" stroke-width="3"/>
   </g>
   <g transform="translate(-80 -98.571)">
    <path d="m2024.4 409.18a56.529 37.538 0 0 0 -56.473 36.802h112.96a56.529 37.538 0 0 0 -56.489 -36.802z" fill="#2ca02c"/>
    <path d="m2024.4 409.18a56.529 37.538 0 0 0 -56.475 36.803h31.492a56.529 37.538 0 0 1 45.186 -15.084 56.529 37.538 0 0 1 35.07 8.1504 56.529 37.538 0 0 0 -55.274 -29.869z" fill="#37c837"/>
    <path d="m2024.4 409.18a56.529 37.538 0 0 0 -56.473 36.802h112.96a56.529 37.538 0 0 0 -56.489 -36.802z" fill="none" stroke="#000" stroke-width="3"/>
   </g>
   <g transform="matrix(.82791 0 0 .82791 334.53 -36.866)">
    <path d="m1879.9 426.35a56.529 37.538 0 0 0 -56.473 36.802h112.96a56.529 37.538 0 0 0 -56.489 -36.802z" fill="#2ca02c"/>
    <path d="m1879.9 426.35a56.529 37.538 0 0 0 -56.473 36.803h82.365a89.398 35.103 0 0 0 26.522 -13.156 56.529 37.538 0 0 0 -52.414 -23.646z" fill="#37c837"/>
    <path d="m1879.9 426.35a56.529 37.538 0 0 0 -56.473 36.803h62.478a36.871 43.942 0 0 0 2.0684 -14.359 36.871 43.942 0 0 0 -5.1934 -22.391 56.529 37.538 0 0 0 -2.8808 -0.0527z" fill="#fff"/>
    <path d="m1879.9 426.35a56.529 37.538 0 0 0 -56.473 36.802h112.96a56.529 37.538 0 0 0 -56.489 -36.802z" fill="none" stroke="#000" stroke-width="3"/>
   </g>
   <g transform="matrix(.61991 0 0 .61991 738.76 60.51)">
    <path d="m1879.9 426.35a56.529 37.538 0 0 0 -56.473 36.802h112.96a56.529 37.538 0 0 0 -56.489 -36.802z" fill="#2ca02c"/>
    <path d="m1879.9 426.35a56.529 37.538 0 0 0 -56.473 36.803h82.365a89.398 35.103 0 0 0 26.522 -13.156 56.529 37.538 0 0 0 -52.414 -23.646z" fill="#37c837"/>
    <path d="m1879.9 426.35a56.529 37.538 0 0 0 -56.473 36.803h62.478a36.871 43.942 0 0 0 2.0684 -14.359 36.871 43.942 0 0 0 -5.1934 -22.391 56.529 37.538 0 0 0 -2.8808 -0.0527z" fill="#fff"/>
    <path d="m1879.9 426.35a56.529 37.538 0 0 0 -56.473 36.802h112.96a56.529 37.538 0 0 0 -56.489 -36.802z" fill="none" stroke="#000" stroke-width="3"/>
   </g>
   <ellipse cx="1954.1" cy="205.22" rx="4.0765" ry="4.3501" fill="#217821"/>
   <circle cx="1992" cy="228.51" r="7.6987" fill="#258625"/>
   <circle cx="1973.5" cy="190.65" r="7.6987" fill="#258625"/>
   <circle cx="1932.7" cy="218.11" r="4.8416" fill="#258625"/>
   <circle cx="1999.9" cy="208" r="4.8416" fill="#258625"/>
   <circle cx="1948.6" cy="239.12" r="6.1835" fill="#258625"/>
   <circle cx="1919.8" cy="238.61" r="4.1632" fill="#258625"/>
   <circle cx="1932.7" cy="260.03" r="4.8416" fill="#258625"/>
   <circle cx="1950.2" cy="276.52" r="7.6987" fill="#258625"/>
   <circle cx="1967" cy="323.21" r="2.3954" fill="#258625"/>
   <circle cx="1979.4" cy="334.07" r="4.1632" fill="#258625"/>
   <circle cx="1950.1" cy="319.68" r="3.6581" fill="#258625"/>
  </g>
  <g transform="translate(-1494.4 363.09)">
   <path d="m1798.1 133.53c7.2374-11.603 30.905-26.983 30.905-26.983s55.948 2.8952 83 9.5018c29.991 7.3243 86.514 33.066 86.514 33.066s72.252-8.0673 117.77 5.5096c49.203 14.674 68.57 31.554 68.57 31.554s-48.903-3.7428-72.881 0.16397c-46.604 7.5934-87.778 37.368-134.43 44.665-35.957 5.6243-74.519 9.9646-109.18-1.1427-31.348-10.047-79.033-47.599-80.957-56.559-2.8812-13.422 3.4146-28.127 10.68-39.775z" fill="#2ca02c" fill-rule="evenodd"/>
   <path d="m1829 106.54s-3.0601 2.0047-7.2481 5.0371c1.8594 0.093 58.594 2.9659 86.543 9.4648 31.498 7.3243 90.859 33.066 90.859 33.066s75.88-8.0671 123.69 5.5098c22.784 6.4702 39.462 13.365 51.006 19.057-10.494-6.2717-28.956-15.526-57.561-24.057-45.523-13.577-117.78-5.5098-117.78-5.5098s-56.522-25.742-86.514-33.066c-27.052-6.6066-83-9.502-83-9.502z" fill="#37c837" fill-rule="evenodd"/>
   <path d="m1957.1 178.08c-65.968 0-120.31-17.493-170.1-16.804-0.5265 4.0473-0.4875 8.0932 0.3574 12.029 1.9234 8.9599 49.608 46.514 80.957 56.561 34.658 11.107 73.219 6.7668 109.18 1.1426 46.651-7.2969 87.826-37.073 134.43-44.666 23.977-3.9068 72.881-0.16406 72.881-0.16406s-2.951-2.5489-9.3731-6.5059c-60.966-12.251-138.13-1.5921-218.33-1.5921z" fill="#fd5"/>
   <path d="m1786.7 165.48c-0.068 2.6327 0.136 5.2491 0.6875 7.8184 1.9234 8.9599 49.608 46.514 80.957 56.561 34.658 11.107 73.219 6.7668 109.18 1.1426 46.651-7.2969 87.826-37.073 134.43-44.666 23.977-3.9068 72.881-0.16406 72.881-0.16406s-2.5503-2.1856-7.9825-5.6289c-14.86-0.86937-46.898-2.2473-64.898 0.68555-46.604 7.5934-87.779 26.762-134.43 34.059-35.957 5.6243-74.518 9.9647-109.18-1.1426-25.35-8.1243-65.997-34.231-81.644-48.664z" fill="#fc0"/>
   <path d="m1798.1 133.53c7.2374-11.603 30.905-26.983 30.905-26.983s54.089 1.7453 80.229 7.9866c31.043 7.4118 89.284 34.581 89.284 34.581s72.252-8.0673 117.77 5.5096c49.203 14.674 68.57 31.554 68.57 31.554s-48.903-3.7428-72.881 0.16397c-46.604 7.5934-87.778 37.368-134.43 44.665-35.957 5.6243-74.519 9.9646-109.18-1.1427-31.348-10.047-79.033-47.599-80.957-56.559-2.8812-13.422 3.4146-28.127 10.68-39.775z" fill="none" stroke="#000" stroke-width="4.0311"/>
   <circle cx="1815.6" cy="127.44" r="5.5558" fill="#258625"/>
   <circle cx="1849.9" cy="119.58" r="4.4844" fill="#258625"/>
   <circle cx="1870.6" cy="141.37" r="6.2701" fill="#258625"/>
   <circle cx="1910.6" cy="132.44" r="4.4844" fill="#258625"/>
   <circle cx="1930.6" cy="154.22" r="7.6987" fill="#258625"/>
   <circle cx="1977.4" cy="161.37" r="4.4844" fill="#258625"/>
   <circle cx="1956" cy="146.37" r="5.913" fill="#258625"/>
   <circle transform="matrix(.98138 -.19206 .19206 .98138 0 0)" cx="1968" cy="544.75" r="2.4649" fill="#258625"/>
   <circle transform="matrix(.98138 -.19206 .19206 .98138 0 0)" cx="1979.4" cy="556.73" r="3.4464" fill="#258625"/>
   <circle transform="matrix(.98138 -.19206 .19206 .98138 0 0)" cx="2001.4" cy="551.82" r="2.4649" fill="#258625"/>
   <circle transform="matrix(.98138 -.19206 .19206 .98138 0 0)" cx="2012.3" cy="563.8" r="4.2316" fill="#258625"/>
   <circle transform="matrix(.98138 -.19206 .19206 .98138 0 0)" cx="2038.1" cy="567.72" r="2.4649" fill="#258625"/>
   <circle transform="matrix(.98138 -.19206 .19206 .98138 0 0)" cx="2026.3" cy="559.48" r="3.2501" fill="#258625"/>
  </g>
  <g transform="translate(-1973.3 363.09)">
   <g transform="translate(478.81)">
    <g transform="matrix(.31956 -.052424 -.039692 -.24195 1523.9 171.72)">
     <path d="m307.09 263.94c17.728 0 43.437 86.873 43.437 86.873h-86.873s26.718-86.873 43.437-86.873z" fill="#fff"/>
     <path d="m307.09 263.94c-16.718 0-43.436 86.873-43.436 86.873s24.698-78.285 40.152-78.285c16.389 0 40.154 78.285 40.154 78.285h6.5664s-25.709-86.873-43.438-86.873z" fill="#b3b3b3"/>
     <path d="m307.09 263.94c17.728 0 43.437 86.873 43.437 86.873h-86.873s26.718-86.873 43.437-86.873z" fill="none" stroke="#000"/>
    </g>
    <g transform="matrix(.31902 -.052335 -.052265 -.31859 1552.6 193.1)">
     <path d="m307.09 263.94c17.728 0 43.437 86.873 43.437 86.873h-86.873s26.718-86.873 43.437-86.873z" fill="#fff"/>
     <path d="m307.09 263.94c-16.718 0-43.436 86.873-43.436 86.873s24.698-78.285 40.152-78.285c16.389 0 40.154 78.285 40.154 78.285h6.5664s-25.709-86.873-43.438-86.873z" fill="#b3b3b3"/>
     <path d="m307.09 263.94c17.728 0 43.437 86.873 43.437 86.873h-86.873s26.718-86.873 43.437-86.873z" fill="none" stroke="#000"/>
    </g>
    <g transform="matrix(.32805 -.016203 -.0079117 -.16018 1567.5 133.25)">
     <path d="m307.09 263.94c17.728 0 43.437 86.873 43.437 86.873h-86.873s26.718-86.873 43.437-86.873z" fill="#fff"/>
     <path d="m307.09 263.94c-16.718 0-43.436 86.873-43.436 86.873s24.698-78.285 40.152-78.285c16.389 0 40.154 78.285 40.154 78.285h6.5664s-25.709-86.873-43.438-86.873z" fill="#b3b3b3"/>
     <path d="m307.09 263.94c17.728 0 43.437 86.873 43.437 86.873h-86.873s26.718-86.873 43.437-86.873z" fill="none" stroke="#000"/>
    </g>
    <path d="m1590.1 82.273s-3.5322-23.733-0.8209-35.127c1.5378-6.4627 5.2804-12.359 9.3897-17.579 4.6038-5.8477 10.144-11.278 16.675-14.848 5.0907-2.7831 11.299-2.7362 16.76-4.6949 38.321-13.744 111.74-49.312 111.74-49.312s18.976 0.72887 27.522 4.3696c9.319 3.9703 24.228 18.344 24.228 18.344l4.2779 8.4931s31.629 27.393 35.953 46.503c3.8523 17.027-11.078 51.186-11.078 51.186l-3.5755 16.098 12.242 25.366s10.393 30.75-11.713 37.297c-27.663 8.193-39.637-18.2-39.637-18.2l-10.917-23.526-17.482-33.492-28.238-15.273-38.237-5.0699-38.374 1.3968z" fill="#2ca02c" fill-rule="evenodd"/>
    <path d="m1743.8-39.288s-73.416 35.567-111.74 49.311c-5.4612 1.9587-11.671 1.9126-16.762 4.6953-6.5302 3.5702-12.07 9.0005-16.674 14.848-4.1093 5.2196-7.8517 11.115-9.3896 17.578-2.7113 11.394 0.8205 35.127 0.8205 35.127l4.1985-0.57594c-0.8755-7.2119-2.3814-22.681-0.4445-31.207 1.4654-6.4508 5.0774-12.325 9.0484-17.522 4.4487-5.8223 9.8097-11.223 16.142-14.761 4.936-2.7578 10.972-2.6828 16.272-4.615 37.191-13.559 108.4-48.763 108.4-48.763s18.451 0.81318 26.775 4.4903c3.8349 1.6941 8.6125 5.2446 12.893 8.7845l-0.9893-6.0307c-3.7743-2.8977-7.746-5.5916-11.029-6.9903-8.5455-3.6408-27.522-4.3699-27.522-4.3699zm69.226 43.921 1.2882 7.8521c8.2368 9.2575 16.989 20.88 19.129 30.414 3.8228 17.031-10.535 51.096-10.535 51.096l-3.4024 16.069 12.017 25.403s4.3807 13.166 1.4067 24.078c6.1987-11.411 0.4389-28.476 0.4389-28.476l-12.242-25.366 3.5759-16.098s14.929-34.159 11.077-51.185c-2.4345-10.76-13.525-24.144-22.752-33.788z" fill="#5fd35f" fill-rule="evenodd"/>
    <path d="m1589.4 76.708c0.3714 3.2917 0.6932 5.5647 0.6932 5.5647l58.713-8.0663 38.374-1.3966 38.237 5.0702 28.237 15.271 17.481 33.493 10.917 23.525s4.7706 10.497 15.233 16.195l-3.1435-19.162c-0.6387-1.0345-0.9897-1.714-0.9897-1.714l-12.161-24.143-19.56-34.331-32.396-15.236-44.192-4.4614-44.484 2.2406-50.96 7.1507z" fill="#217821" fill-rule="evenodd"/>
    <path d="m1783 88.129-25.342 14.404 12.535 24.016 10.918 23.525s11.974 26.394 39.637 18.201c1.5895-0.47076 2.9923-1.0787 4.2617-1.7793l-42.01-78.367z" fill="#fc0"/>
    <path d="m1783 88.129-8.4922 4.8262-8.3555 6.1875 14.721 26.092 13.053 25.652s6.9989 13.999 20.408 18.713c2.0398-0.24195 4.1696-0.6595 6.414-1.3242 1.5895-0.47076 2.9923-1.0787 4.2617-1.7793l-42.01-78.367z" fill="#fd5"/>
    <path d="m1590.1 82.273s-3.5322-23.733-0.8209-35.127c1.5378-6.4627 5.2804-12.359 9.3897-17.579 4.6038-5.8477 10.144-11.278 16.675-14.848 5.0907-2.7831 11.299-2.7362 16.76-4.6949 38.321-13.744 111.74-49.312 111.74-49.312s18.976 0.72887 27.522 4.3696c9.319 3.9703 24.228 18.344 24.228 18.344l4.2779 8.4931s31.629 27.393 35.953 46.503c3.8523 17.027-11.078 51.186-11.078 51.186l-3.5755 16.098 12.242 25.366s10.393 30.75-11.713 37.297c-27.663 8.193-39.637-18.2-39.637-18.2l-10.917-23.526-17.482-33.492-28.238-15.273-38.237-5.0699-38.374 1.3968z" fill="none" stroke="#000" stroke-width="3"/>
    <g transform="matrix(.98681 -.16189 .16189 .98681 1196.2 -446.13)">
     <path d="m436.31 482.1a32.814 50.312 73.259 0 0 -9.7576 2.2763 32.814 50.312 73.259 0 0 -38.523 45.974 32.814 50.312 73.259 0 0 0.16502 0.45173 32.814 50.312 73.259 0 1 39.333 -41.498 32.814 50.312 73.259 0 1 57.603 16.317 32.814 50.312 73.259 0 0 -0.81036 -4.4782 32.814 50.312 73.259 0 0 -48.01 -19.044z"/>
     <ellipse transform="matrix(.95695 -.29026 .29324 .95604 0 0)" cx="265.3" cy="624.69" rx="50.311" ry="32.814" fill="#2ca02c"/>
     <ellipse transform="matrix(.99441 -.10557 .095758 .9954 0 0)" cx="385.49" cy="570.78" rx="42.789" ry="29.739" fill="#217821"/>
     <path d="m451.57 512.37-55.538 21.497a26.27 30.956 74.525 0 0 32.584 21.973 26.27 30.956 74.525 0 0 28.532 -30.343 26.27 30.956 74.525 0 0 -5.5782 -13.126z" fill="#fff"/>
     <path d="m442.05 514.57-42.338 17.865a20.98 23.199 61.319 0 0 23.609 14.695 20.98 23.199 61.319 0 0 21.14 -24.51 20.98 23.199 61.319 0 0 -2.4114 -8.0508z" fill="#59f"/>
     <path d="m431.51 521.95-27.264 9.5174a13.289 14.579 60.904 0 0 13.23 7.493 13.289 14.579 60.904 0 0 14.277 -14.638 13.289 14.579 60.904 0 0 -0.24252 -2.3722z" fill="#003380"/>
     <path d="m471.78 507.36c-4.5621-5.1969-44.029 9.4937-75.86 26.386l78.506-23.815c-0.62166-0.8571-1.4306-1.7142-2.6456-2.5713z" color="#000000" color-rendering="auto" fill-rule="evenodd" image-rendering="auto" shape-rendering="auto" solid-color="#000000" style="block-progression:tb;isolation:auto;mix-blend-mode:normal;text-decoration-color:#000000;text-decoration-line:none;text-decoration-style:solid;text-indent:0;text-transform:none;white-space:normal"/>
     <path d="m451.57 512.37-55.538 21.497a26.27 30.956 74.525 0 0 32.584 21.973 26.27 30.956 74.525 0 0 28.532 -30.343 26.27 30.956 74.525 0 0 -5.5782 -13.126z" fill="none" stroke="#000"/>
    </g>
    <g transform="matrix(.73947 .16479 -.11572 .9784 1429.6 -547.39)">
     <ellipse cx="324.73" cy="554.86" rx="6.5321" ry="6.6071" fill="#1a1a1a"/>
     <circle cx="325.26" cy="555.46" r="6.0065"/>
    </g>
    <circle transform="matrix(.47939 .8776 -.8776 .47939 0 0)" cx="932.96" cy="-1533.5" r="7.1429" fill="#217821"/>
    <circle transform="matrix(.98681 -.16189 .16189 .98681 0 0)" cx="1612.7" cy="318.62" r="7.1429" fill="#217821"/>
    <circle transform="matrix(.98681 -.16189 .16189 .98681 0 0)" cx="1629.1" cy="301.83" r="4.2857" fill="#217821"/>
    <circle transform="matrix(.98681 -.16189 .16189 .98681 0 0)" cx="1670.5" cy="320.41" r="4.2857" fill="#217821"/>
    <circle transform="matrix(.98681 -.16189 .16189 .98681 0 0)" cx="1648.4" cy="315.05" r="7.1429" fill="#217821"/>
    <circle transform="matrix(.89454 .447 -.447 .89454 0 0)" cx="1588" cy="-782.23" r="7.1429" fill="#217821"/>
    <circle transform="matrix(.89454 .447 -.447 .89454 0 0)" cx="1604.5" cy="-799.02" r="4.2857" fill="#217821"/>
    <circle transform="matrix(.89454 .447 -.447 .89454 0 0)" cx="1645.9" cy="-780.44" r="4.2857" fill="#217821"/>
    <circle transform="matrix(.89454 .447 -.447 .89454 0 0)" cx="1623.7" cy="-785.8" r="7.1429" fill="#217821"/>
    <circle transform="matrix(.47939 .8776 -.8776 .47939 0 0)" cx="957.24" cy="-1539.2" r="4.2857" fill="#217821"/>
    <circle transform="matrix(.98681 -.16189 .16189 .98681 0 0)" cx="1596.9" cy="291.48" r="4.2857" fill="#217821"/>
    <circle transform="matrix(.98681 -.16189 .16189 .98681 0 0)" cx="1747.3" cy="266.12" r="4.2857" fill="#217821"/>
    <circle transform="matrix(.98681 -.16189 .16189 .98681 0 0)" cx="1678.7" cy="288.62" r="4.2857" fill="#fff"/>
   </g>
   <circle cx="2296.9" cy="65.652" r="5.5558" fill="#258625"/>
  </g>
  <g transform="matrix(.98685 .16163 -.16163 .98685 -1275.3 35.232)">
   <g transform="matrix(-.10766 .45309 -.45309 -.10766 2013.7 -420.76)">
    <path d="m1658.8 319.86c23.554-6.1191 38.645 1.4648 52.321 11.339-19.817-0.97316-38.628 0.0647-52.321 11.339z" fill="#f2f2f2"/>
    <path d="m1674.9 320.52c-4.9409-4e-3 -10.301 0.59124-16.19 1.9453v20.074c13.176-10.849 31.094-12.212 50.084-11.434-9.6378-5.9088-20.142-10.574-33.894-10.586z" fill="#fff"/>
    <path d="m1658.8 319.86c23.554-6.1191 38.645 1.4648 52.321 11.339-19.817-0.97316-38.628 0.0647-52.321 11.339z" fill="none" stroke="#000"/>
   </g>
   <g transform="matrix(-.048459 .46318 -.46318 -.048459 1906.8 -449.42)">
    <path d="m1658.8 319.86c23.554-6.1191 38.645 1.4648 52.321 11.339-19.817-0.97316-38.628 0.0647-52.321 11.339z" fill="#f2f2f2"/>
    <path d="m1674.9 320.52c-4.9409-4e-3 -10.301 0.59124-16.19 1.9453v20.074c13.176-10.849 31.094-12.212 50.084-11.434-9.6378-5.9088-20.142-10.574-33.894-10.586z" fill="#fff"/>
    <path d="m1658.8 319.86c23.554-6.1191 38.645 1.4648 52.321 11.339-19.817-0.97316-38.628 0.0647-52.321 11.339z" fill="none" stroke="#000"/>
   </g>
   <g transform="matrix(-.25348 .39067 .39067 .25348 1961.6 -434.47)">
    <path d="m1658.8 319.86c23.554-6.1191 38.645 1.4648 52.321 11.339-19.817-0.97316-38.628 0.0647-52.321 11.339z" fill="#f2f2f2"/>
    <path d="m1674.9 320.52c-4.9409-4e-3 -10.301 0.59124-16.19 1.9453v20.074c13.176-10.849 31.094-12.212 50.084-11.434-9.6378-5.9088-20.142-10.574-33.894-10.586z" fill="#fff"/>
    <path d="m1658.8 319.86c23.554-6.1191 38.645 1.4648 52.321 11.339-19.817-0.97316-38.628 0.0647-52.321 11.339z" fill="none" stroke="#000"/>
   </g>
   <path d="m1730.7 221.65c-4.2499-3.6627-10.494-5.609-16.072-5-3.8165 0.41674-7.5507 2.7579-10 5.7143-2.3298 2.8122-3.1737 6.727-3.5714 10.357-0.4568 4.1688 1.4286 12.5 1.4286 12.5l-5.3572 6.7857-0.3571 6.4286-10.357 13.75-8.9285 4.1072-18.591 27.177s1.9888 1.2799 2.7921 2.132c1.2905 1.3692 3.1549 4.6806 3.1549 4.6806l3.3585-6.4898 2.7417 5.6926 6.8506 1.609 2.9455-7.3685s3.5122 0.67068 5.2148 1.2033c1.3536 0.42343 3.952 1.5765 3.952 1.5765l1.5096-22.713s9.542-0.80792 14.107-2.1428c4.5014-1.3163 9.4664-2.4742 12.857-5.7143 2.9831-2.8506 5.5357-11.071 5.5357-11.071 0.3447-3.9283 1.4388-7.6551 2.5-11.429 0 0 6.9103-3.8153 8.5715-7.1429 2.1295-4.2658 1.6611-9.6128 0.7143-14.286-0.7612-3.7573-2.096-7.8544-5-10.357z" fill="#2ca02c" fill-rule="evenodd"/>
   <path d="m1734.7 228.21c0.5439 4.6722 0.421 9.5339-1.4941 13.607-1.9532 4.1541-10.078 8.916-10.078 8.916-1.2476 4.7108-2.5342 9.3636-2.9394 14.268 0 0-3.0004 10.264-6.5078 13.822-0.086 0.0868-0.1765 0.16557-0.2637 0.25 1.8289-0.79232 3.5385-1.7736 4.9629-3.1348 2.9831-2.8506 5.5351-11.072 5.5351-11.072 0.3447-3.9283 1.4388-7.6542 2.5-11.428 0 0 6.9111-3.815 8.5723-7.1426 2.1295-4.2658 1.6616-9.6122 0.7148-14.285-0.254-1.2538-0.5832-2.5432-1.0019-3.8008zm-43.531 59.289c-4.6733 0.72271-5.407 6.2708-5.407 6.2708l-4.7316 10.018c0.4537 0.0877 3.347 0.65129 4.9238 1.1445 1.3536 0.42343 3.9512 1.5762 3.9512 1.5762z" fill="#217821" fill-rule="evenodd"/>
   <circle cx="1717.5" cy="229.51" r="5" fill="#258625"/>
   <circle cx="1721.1" cy="243.79" r="2.8571" fill="#258625"/>
   <circle cx="1706.6" cy="255.04" r="3.5714" fill="#258625"/>
   <circle cx="1708.8" cy="272.36" r="2.8571" fill="#258625"/>
   <circle cx="1695.7" cy="272.01" r="4.8214" fill="#258625"/>
   <circle cx="1674.1" cy="292.36" r="4.1071" fill="#258625"/>
   <circle cx="1683.8" cy="281.47" r="1.7857" fill="#258625"/>
   <path d="m1730.7 221.65c-4.2499-3.6627-10.494-5.609-16.072-5-3.8165 0.41674-7.5507 2.7579-10 5.7143-2.3298 2.8122-3.1737 6.727-3.5714 10.357-0.4568 4.1688 1.4286 12.5 1.4286 12.5l-5.3572 6.7857-0.3571 6.4286-10.357 13.75-8.9285 4.1072-18.591 27.177s1.9888 1.2799 2.7921 2.132c1.2905 1.3692 3.1549 4.6806 3.1549 4.6806l3.3585-6.4898 2.7417 5.6926 6.8506 1.609 2.9455-7.3685s3.5122 0.67068 5.2148 1.2033c1.3536 0.42343 3.952 1.5765 3.952 1.5765l1.5096-22.713s9.542-0.80792 14.107-2.1428c4.5014-1.3163 9.4664-2.4742 12.857-5.7143 2.9831-2.8506 5.5357-11.071 5.5357-11.071 0.3447-3.9283 1.4388-7.6551 2.5-11.429 0 0 6.9103-3.8153 8.5715-7.1429 2.1295-4.2658 1.6611-9.6128 0.7143-14.286-0.7612-3.7573-2.096-7.8544-5-10.357z" fill="none" stroke="#000" stroke-width="1px"/>
  </g>
  <g transform="translate(-1470.2 363.09)">
   <g transform="translate(-80 -98.571)">
    <path d="m2090 286.8c-14.98-12.998-38.917-17.065-61.948-10.525-33.811 9.6007-55.166 38.702-47.699 64.999 1.8715 6.496 5.4349 12.433 10.47 17.445 1.3159 16.993 0.2395 31.098 14.804 64.086l37.23-5.4502c-4.3978-18.427-3.3427-35.22 15.189-46.778 32.251-10.492 51.936-38.679 44.746-64.071-2.1316-7.5064-6.5148-14.259-12.792-19.706z" fill="#2ca02c"/>
    <path d="m2049.6 273.2c-7.0732 0.0232-14.36 1.0305-21.557 3.0742-33.811 9.6007-55.165 38.703-47.697 65 1.8715 6.496 5.4333 12.432 10.469 17.443 1.3159 16.993 0.2407 31.1 14.805 64.088l35.404-5.1836c-1.9883-10.498-2.0388-18.656-2.7305-27.588-5.0354-5.0116-8.5992-10.949-10.471-17.445-7.4676-26.297 13.889-55.399 47.699-65 7.1971-2.0438 14.482-3.051 21.555-3.0742 1.7266-6e-3 3.4379 0.057 5.1348 0.16797-2.2929-6.7768-6.4543-12.881-12.219-17.883-10.299-8.936-24.832-13.651-40.393-13.6z" fill="#37c837"/>
    <path d="m2090 286.8c-14.98-12.998-38.917-17.065-61.948-10.525-33.811 9.6007-55.166 38.702-47.699 64.999 1.8715 6.496 5.4349 12.433 10.47 17.445 1.3159 16.993 0.2395 31.098 14.804 64.086l37.23-5.4502c-4.3978-18.427-3.3427-35.22 15.189-46.778 32.251-10.492 51.936-38.679 44.746-64.071-2.1316-7.5064-6.5148-14.259-12.792-19.706z" fill="none" stroke="#000" stroke-width="3"/>
   </g>
   <g transform="translate(-80 -98.571)">
    <path d="m2024.4 409.18a56.529 37.538 0 0 0 -56.473 36.802h112.96a56.529 37.538 0 0 0 -56.489 -36.802z" fill="#2ca02c"/>
    <path d="m2024.4 409.18a56.529 37.538 0 0 0 -56.475 36.803h31.492a56.529 37.538 0 0 1 45.186 -15.084 56.529 37.538 0 0 1 35.07 8.1504 56.529 37.538 0 0 0 -55.274 -29.869z" fill="#37c837"/>
    <path d="m2024.4 409.18a56.529 37.538 0 0 0 -56.473 36.802h112.96a56.529 37.538 0 0 0 -56.489 -36.802z" fill="none" stroke="#000" stroke-width="3"/>
   </g>
   <g transform="matrix(.82791 0 0 .82791 334.53 -36.866)">
    <path d="m1879.9 426.35a56.529 37.538 0 0 0 -56.473 36.802h112.96a56.529 37.538 0 0 0 -56.489 -36.802z" fill="#2ca02c"/>
    <path d="m1879.9 426.35a56.529 37.538 0 0 0 -56.473 36.803h82.365a89.398 35.103 0 0 0 26.522 -13.156 56.529 37.538 0 0 0 -52.414 -23.646z" fill="#37c837"/>
    <path d="m1879.9 426.35a56.529 37.538 0 0 0 -56.473 36.803h62.478a36.871 43.942 0 0 0 2.0684 -14.359 36.871 43.942 0 0 0 -5.1934 -22.391 56.529 37.538 0 0 0 -2.8808 -0.0527z" fill="#fff"/>
    <path d="m1879.9 426.35a56.529 37.538 0 0 0 -56.473 36.802h112.96a56.529 37.538 0 0 0 -56.489 -36.802z" fill="none" stroke="#000" stroke-width="3"/>
   </g>
   <g transform="matrix(.61991 0 0 .61991 738.76 60.51)">
    <path d="m1879.9 426.35a56.529 37.538 0 0 0 -56.473 36.802h112.96a56.529 37.538 0 0 0 -56.489 -36.802z" fill="#2ca02c"/>
    <path d="m1879.9 426.35a56.529 37.538 0 0 0 -56.473 36.803h82.365a89.398 35.103 0 0 0 26.522 -13.156 56.529 37.538 0 0 0 -52.414 -23.646z" fill="#37c837"/>
    <path d="m1879.9 426.35a56.529 37.538 0 0 0 -56.473 36.803h62.478a36.871 43.942 0 0 0 2.0684 -14.359 36.871 43.942 0 0 0 -5.1934 -22.391 56.529 37.538 0 0 0 -2.8808 -0.0527z" fill="#fff"/>
    <path d="m1879.9 426.35a56.529 37.538 0 0 0 -56.473 36.802h112.96a56.529 37.538 0 0 0 -56.489 -36.802z" fill="none" stroke="#000" stroke-width="3"/>
   </g>
   <ellipse cx="1954.1" cy="205.22" rx="4.0765" ry="4.3501" fill="#217821"/>
   <circle cx="1992" cy="228.51" r="7.6987" fill="#258625"/>
   <circle cx="1973.5" cy="190.65" r="7.6987" fill="#258625"/>
   <circle cx="1932.7" cy="218.11" r="4.8416" fill="#258625"/>
   <circle cx="1999.9" cy="208" r="4.8416" fill="#258625"/>
   <circle cx="1948.6" cy="239.12" r="6.1835" fill="#258625"/>
   <circle cx="1919.8" cy="238.61" r="4.1632" fill="#258625"/>
   <circle cx="1932.7" cy="260.03" r="4.8416" fill="#258625"/>
   <circle cx="1950.2" cy="276.52" r="7.6987" fill="#258625"/>
   <circle cx="1967" cy="323.21" r="2.3954" fill="#258625"/>
   <circle cx="1979.4" cy="334.07" r="4.1632" fill="#258625"/>
   <circle cx="1950.1" cy="319.68" r="3.6581" fill="#258625"/>
  </g>
  <g transform="matrix(.99997 .007292 -.007292 .99997 -199.07 -166.56)">
   <g transform="matrix(.25783 -.064287 .082039 .20465 237.98 583.05)">
    <path d="m307.09 263.94c17.728 0 43.437 86.873 43.437 86.873h-86.873s26.718-86.873 43.437-86.873z" fill="#fff"/>
    <path d="m307.09 263.94c-16.718 0-43.436 86.873-43.436 86.873s24.698-78.285 40.152-78.285c16.389 0 40.154 78.285 40.154 78.285h6.5664s-25.709-86.873-43.438-86.873z" fill="#b3b3b3"/>
    <path d="m307.09 263.94c17.728 0 43.437 86.873 43.437 86.873h-86.873s26.718-86.873 43.437-86.873z" fill="none" stroke="#000"/>
   </g>
   <g transform="matrix(.18684 -.058316 .070658 .19397 309.52 569.25)">
    <path d="m307.09 263.94c17.728 0 43.437 86.873 43.437 86.873h-86.873s26.718-86.873 43.437-86.873z" fill="#fff"/>
    <path d="m307.09 263.94c-16.718 0-43.436 86.873-43.436 86.873s24.698-78.285 40.152-78.285c16.389 0 40.154 78.285 40.154 78.285h6.5664s-25.709-86.873-43.438-86.873z" fill="#b3b3b3"/>
    <path d="m307.09 263.94c17.728 0 43.437 86.873 43.437 86.873h-86.873s26.718-86.873 43.437-86.873z" fill="none" stroke="#000"/>
   </g>
   <g transform="matrix(.26949 -.071278 .05825 .22024 215.09 583.17)">
    <path d="m307.09 263.94c17.728 0 43.437 86.873 43.437 86.873h-86.873s26.718-86.873 43.437-86.873z" fill="#fff"/>
    <path d="m307.09 263.94c-16.718 0-43.436 86.873-43.436 86.873s24.698-78.285 40.152-78.285c16.389 0 40.154 78.285 40.154 78.285h6.5664s-25.709-86.873-43.438-86.873z" fill="#b3b3b3"/>
    <path d="m307.09 263.94c17.728 0 43.437 86.873 43.437 86.873h-86.873s26.718-86.873 43.437-86.873z" fill="none" stroke="#000"/>
   </g>
   <g transform="matrix(.26916 -.079552 .08516 .25143 254.73 559.19)">
    <path d="m307.09 263.94c17.728 0 43.437 86.873 43.437 86.873h-86.873s26.718-86.873 43.437-86.873z" fill="#fff"/>
    <path d="m307.09 263.94c-16.718 0-43.436 86.873-43.436 86.873s24.698-78.285 40.152-78.285c16.389 0 40.154 78.285 40.154 78.285h6.5664s-25.709-86.873-43.438-86.873z" fill="#b3b3b3"/>
    <path d="m307.09 263.94c17.728 0 43.437 86.873 43.437 86.873h-86.873s26.718-86.873 43.437-86.873z" fill="none" stroke="#000"/>
   </g>
   <g transform="matrix(.98308 -.1832 .1832 .98308 -106.85 88.192)">
    <path d="m432.67 590.33c23.556-20.028 44.249-31.139 66.101-22.977 12.8 4.7813 20.805 21.889 20.415 35.547-0.34088 11.95-10.151 22.714-19.605 30.031-12.107 9.3718-28.401 12.295-43.527 14.667-41.761 6.5492-85.233 0.73733-126.8-1.764-2.5584-0.17486-5.4281-7e-3 -7.5582-1.4343-9.4938-6.3635-17.871-28.549-17.871-28.549s90.323-4.1654 128.85-25.522z" fill="#fc0" fill-rule="evenodd"/>
    <path d="m484.56 564.66c-16.826-0.1763-33.483 10.029-51.887 25.676-38.524 21.356-128.85 25.521-128.85 25.521s8.3773 22.185 17.871 28.549c2.1301 1.4273 4.9982 1.2587 7.5566 1.4336 15.302 0.92075 30.865 2.286 46.502 3.3223 44.225-10.779 103.5-27.978 143.29-50.27-1.0723-12.817-8.7015-27.21-20.275-31.533-4.7802-1.7855-9.5035-2.6499-14.215-2.6992z" fill="#fd5" fill-rule="evenodd"/>
    <path d="m432.67 590.33c23.556-20.028 44.249-31.139 66.101-22.977 12.8 4.7813 20.805 21.889 20.415 35.547-0.34088 11.95-10.151 22.714-19.605 30.031-12.107 9.3718-28.401 12.295-43.527 14.667-41.761 6.5492-85.233 0.73733-126.8-1.764-2.5584-0.17486-5.4281-7e-3 -7.5582-1.4343-9.4938-6.3635-17.871-28.549-17.871-28.549s90.323-4.1654 128.85-25.522z" fill="none" stroke="#000" stroke-width="3"/>
   </g>
  </g>
 </g>
</svg>
